<svg width="647" height="623" viewBox="0 0 647 623" fill="none" xmlns="http://www.w3.org/2000/svg">
<path d="M368.795 342L314.795 386.167V297.833L368.795 342Z" fill="#BA1E71"/>
<path fill-rule="evenodd" clip-rule="evenodd" d="M0.999465 386L54.7949 342L0.999465 298H314.795V386H0.999465ZM0.794922 386L0.794923 298H0.794922V386Z" fill="#BA1E71"/>
<path d="M129.523 349V319.909H139.352C141.634 319.909 143.5 320.321 144.949 321.145C146.407 321.959 147.487 323.062 148.188 324.455C148.888 325.847 149.239 327.4 149.239 329.114C149.239 330.828 148.888 332.385 148.188 333.787C147.496 335.188 146.426 336.306 144.977 337.139C143.528 337.963 141.672 338.375 139.409 338.375H132.364V335.25H139.295C140.858 335.25 142.113 334.98 143.06 334.44C144.007 333.901 144.693 333.171 145.119 332.253C145.555 331.325 145.773 330.278 145.773 329.114C145.773 327.949 145.555 326.907 145.119 325.989C144.693 325.07 144.002 324.35 143.045 323.83C142.089 323.299 140.82 323.034 139.239 323.034H133.045V349H129.523ZM157.811 335.875V349H154.459V319.909H157.811V330.591H158.095C158.607 329.464 159.374 328.569 160.396 327.906C161.429 327.234 162.802 326.898 164.516 326.898C166.002 326.898 167.304 327.196 168.422 327.793C169.539 328.38 170.406 329.284 171.021 330.506C171.646 331.718 171.959 333.261 171.959 335.136V349H168.607V335.364C168.607 333.631 168.157 332.291 167.257 331.344C166.367 330.387 165.131 329.909 163.55 329.909C162.451 329.909 161.466 330.141 160.595 330.605C159.733 331.069 159.052 331.746 158.55 332.636C158.057 333.527 157.811 334.606 157.811 335.875ZM184.512 349.511C183.129 349.511 181.875 349.251 180.748 348.73C179.621 348.2 178.726 347.438 178.063 346.443C177.4 345.439 177.069 344.227 177.069 342.807C177.069 341.557 177.315 340.544 177.808 339.767C178.3 338.981 178.958 338.366 179.782 337.92C180.606 337.475 181.515 337.144 182.509 336.926C183.513 336.699 184.522 336.519 185.535 336.386C186.861 336.216 187.935 336.088 188.759 336.003C189.593 335.908 190.199 335.752 190.577 335.534C190.966 335.316 191.16 334.937 191.16 334.398V334.284C191.16 332.883 190.776 331.794 190.009 331.017C189.252 330.241 188.101 329.852 186.558 329.852C184.957 329.852 183.702 330.203 182.793 330.903C181.884 331.604 181.245 332.352 180.876 333.148L177.694 332.011C178.262 330.686 179.02 329.653 179.967 328.915C180.923 328.167 181.965 327.646 183.092 327.352C184.228 327.049 185.345 326.898 186.444 326.898C187.145 326.898 187.95 326.983 188.859 327.153C189.777 327.314 190.663 327.651 191.515 328.162C192.377 328.673 193.092 329.445 193.66 330.477C194.228 331.509 194.512 332.892 194.512 334.625V349H191.16V346.045H190.989C190.762 346.519 190.383 347.026 189.853 347.565C189.323 348.105 188.617 348.564 187.737 348.943C186.856 349.322 185.781 349.511 184.512 349.511ZM185.023 346.5C186.349 346.5 187.467 346.24 188.376 345.719C189.294 345.198 189.986 344.526 190.45 343.702C190.923 342.878 191.16 342.011 191.16 341.102V338.034C191.018 338.205 190.705 338.361 190.222 338.503C189.749 338.635 189.2 338.754 188.575 338.858C187.959 338.953 187.358 339.038 186.771 339.114C186.193 339.18 185.724 339.237 185.364 339.284C184.493 339.398 183.679 339.582 182.921 339.838C182.173 340.084 181.567 340.458 181.103 340.96C180.648 341.453 180.421 342.125 180.421 342.977C180.421 344.142 180.852 345.023 181.714 345.619C182.585 346.206 183.688 346.5 185.023 346.5ZM216.085 332.068L213.074 332.92C212.884 332.419 212.605 331.931 212.236 331.457C211.876 330.974 211.384 330.577 210.759 330.264C210.134 329.952 209.333 329.795 208.358 329.795C207.023 329.795 205.91 330.103 205.02 330.719C204.139 331.325 203.699 332.097 203.699 333.034C203.699 333.867 204.002 334.526 204.608 335.009C205.214 335.491 206.161 335.894 207.449 336.216L210.688 337.011C212.638 337.485 214.092 338.209 215.048 339.185C216.005 340.151 216.483 341.396 216.483 342.92C216.483 344.17 216.123 345.288 215.403 346.273C214.693 347.258 213.699 348.034 212.42 348.602C211.142 349.17 209.655 349.455 207.96 349.455C205.735 349.455 203.893 348.972 202.435 348.006C200.976 347.04 200.053 345.629 199.665 343.773L202.847 342.977C203.15 344.152 203.723 345.032 204.565 345.619C205.418 346.206 206.53 346.5 207.903 346.5C209.466 346.5 210.706 346.169 211.625 345.506C212.553 344.833 213.017 344.028 213.017 343.091C213.017 342.333 212.752 341.699 212.222 341.188C211.691 340.667 210.877 340.278 209.778 340.023L206.142 339.17C204.144 338.697 202.676 337.963 201.739 336.969C200.811 335.965 200.347 334.71 200.347 333.205C200.347 331.973 200.692 330.884 201.384 329.938C202.084 328.991 203.036 328.247 204.239 327.707C205.451 327.168 206.824 326.898 208.358 326.898C210.517 326.898 212.212 327.371 213.443 328.318C214.684 329.265 215.564 330.515 216.085 332.068ZM230.677 349.455C228.575 349.455 226.761 348.991 225.237 348.062C223.721 347.125 222.552 345.818 221.728 344.142C220.914 342.456 220.506 340.496 220.506 338.261C220.506 336.027 220.914 334.057 221.728 332.352C222.552 330.638 223.698 329.303 225.165 328.347C226.643 327.381 228.366 326.898 230.336 326.898C231.472 326.898 232.594 327.087 233.702 327.466C234.81 327.845 235.819 328.46 236.728 329.312C237.637 330.155 238.362 331.273 238.901 332.665C239.441 334.057 239.711 335.771 239.711 337.807V339.227H222.893V336.33H236.302C236.302 335.098 236.056 334 235.563 333.034C235.08 332.068 234.389 331.306 233.489 330.747C232.599 330.188 231.548 329.909 230.336 329.909C229.001 329.909 227.845 330.241 226.87 330.903C225.904 331.557 225.161 332.409 224.64 333.46C224.119 334.511 223.859 335.638 223.859 336.841V338.773C223.859 340.42 224.143 341.817 224.711 342.963C225.289 344.099 226.089 344.966 227.112 345.562C228.134 346.15 229.323 346.443 230.677 346.443C231.558 346.443 232.353 346.32 233.063 346.074C233.783 345.818 234.403 345.439 234.924 344.938C235.445 344.426 235.847 343.792 236.131 343.034L239.37 343.943C239.029 345.042 238.456 346.008 237.651 346.841C236.846 347.665 235.852 348.309 234.668 348.773C233.485 349.227 232.154 349.455 230.677 349.455ZM257.31 334.966V338.091H244.583V334.966H257.31ZM261.785 349V346.443L271.387 335.932C272.514 334.701 273.442 333.631 274.171 332.722C274.9 331.803 275.44 330.941 275.79 330.136C276.15 329.322 276.33 328.47 276.33 327.58C276.33 326.557 276.084 325.671 275.592 324.923C275.109 324.175 274.446 323.598 273.603 323.19C272.76 322.783 271.813 322.58 270.762 322.58C269.645 322.58 268.669 322.812 267.836 323.276C267.012 323.73 266.373 324.369 265.918 325.193C265.473 326.017 265.251 326.983 265.251 328.091H261.898C261.898 326.386 262.291 324.89 263.077 323.602C263.863 322.314 264.933 321.311 266.288 320.591C267.651 319.871 269.181 319.511 270.876 319.511C272.58 319.511 274.091 319.871 275.407 320.591C276.723 321.311 277.755 322.281 278.504 323.503C279.252 324.724 279.626 326.083 279.626 327.58C279.626 328.65 279.432 329.696 279.043 330.719C278.665 331.732 278.002 332.864 277.055 334.114C276.117 335.354 274.815 336.869 273.148 338.659L266.614 345.648V345.875H280.137V349H261.785Z" fill="black"/>
<circle cx="94.2949" cy="335.5" r="8.5" fill="#D9D9D9"/>
<path d="M95.0655 420.823C94.1489 420.82 93.313 420.593 92.5578 420.143C91.8026 419.685 91.1998 419.077 90.7493 418.317C90.3063 417.558 90.0873 416.72 90.0921 415.803C90.0971 414.879 90.325 414.043 90.7759 413.295C91.2345 412.539 91.8438 411.939 92.6037 411.495C93.3637 411.044 94.202 410.82 95.1187 410.823C96.0429 410.827 96.8788 411.058 97.6264 411.515C98.3816 411.965 98.9807 412.57 99.4236 413.329C99.8742 414.081 100.097 414.919 100.092 415.843C100.087 416.76 99.8555 417.596 99.3969 418.352C98.9459 419.108 98.3404 419.711 97.5804 420.163C96.8281 420.607 95.9898 420.827 95.0655 420.823ZM141.004 409.576L137.458 409.561C137.326 408.803 137.076 408.136 136.708 407.558C136.339 406.981 135.887 406.491 135.352 406.087C134.816 405.683 134.215 405.378 133.55 405.171C132.892 404.963 132.192 404.858 131.449 404.855C130.108 404.85 128.906 405.182 127.842 405.852C126.785 406.522 125.946 407.508 125.326 408.808C124.713 410.109 124.401 411.698 124.391 413.577C124.381 415.471 124.676 417.071 125.275 418.376C125.882 419.682 126.714 420.67 127.771 421.341C128.828 422.012 130.019 422.35 131.345 422.355C132.08 422.358 132.777 422.262 133.437 422.068C134.105 421.866 134.709 421.569 135.249 421.178C135.789 420.786 136.246 420.307 136.62 419.74C137.002 419.166 137.267 418.508 137.415 417.766L140.96 417.791C140.765 418.935 140.392 419.986 139.841 420.946C139.298 421.898 138.601 422.721 137.748 423.415C136.904 424.101 135.939 424.631 134.854 425.006C133.768 425.38 132.585 425.565 131.305 425.56C129.29 425.551 127.497 425.067 125.926 424.106C124.356 423.138 123.121 421.758 122.221 419.966C121.329 418.175 120.89 416.04 120.903 413.563C120.916 411.078 121.382 408.948 122.3 407.171C123.219 405.387 124.469 404.021 126.049 403.072C127.63 402.117 129.425 401.643 131.432 401.651C132.667 401.656 133.817 401.838 134.884 402.199C135.958 402.551 136.921 403.071 137.773 403.756C138.626 404.433 139.33 405.262 139.885 406.242C140.441 407.213 140.813 408.325 141.004 409.576ZM145.122 425.297L145.246 402.024L159.836 402.083L159.82 405.106L148.741 405.061L148.703 412.152L159.021 412.193L159.005 415.205L148.687 415.163L148.649 422.288L159.865 422.333L159.849 425.356L145.122 425.297ZM166.97 402.111L172.49 411.236L172.671 411.237L178.288 402.157L182.356 402.173L175.044 413.78L182.278 425.446L178.187 425.429L172.644 416.43L172.462 416.429L166.824 425.384L162.733 425.367L170.215 413.761L162.902 402.095L166.97 402.111ZM197.433 402.234L197.309 425.506L193.911 425.492L194.035 402.22L197.433 402.234ZM201.88 425.524L201.973 408.07L205.37 408.084L205.278 425.538L201.88 425.524ZM203.703 405.384C203.112 405.381 202.606 405.182 202.183 404.787C201.769 404.384 201.563 403.906 201.566 403.353C201.569 402.792 201.78 402.316 202.199 401.923C202.625 401.523 203.134 401.325 203.725 401.327C204.315 401.329 204.818 401.532 205.233 401.935C205.655 402.331 205.864 402.809 205.861 403.37C205.859 403.923 205.644 404.399 205.217 404.799C204.799 405.191 204.294 405.386 203.703 405.384ZM222.998 412.416L219.916 412.949C219.789 412.554 219.587 412.179 219.308 411.822C219.037 411.464 218.668 411.171 218.199 410.942C217.731 410.713 217.144 410.597 216.44 410.594C215.478 410.59 214.673 410.803 214.027 411.232C213.381 411.654 213.056 412.202 213.053 412.876C213.049 413.459 213.263 413.93 213.693 414.288C214.123 414.645 214.818 414.94 215.779 415.171L218.548 415.818C220.152 416.196 221.346 416.773 222.13 417.549C222.914 418.325 223.302 419.33 223.296 420.565C223.29 421.61 222.982 422.541 222.372 423.357C221.769 424.165 220.929 424.798 219.85 425.256C218.78 425.713 217.54 425.94 216.131 425.934C214.176 425.926 212.584 425.503 211.353 424.665C210.123 423.819 209.372 422.623 209.1 421.076L212.387 420.589C212.587 421.446 213.004 422.096 213.638 422.537C214.272 422.972 215.1 423.191 216.123 423.195C217.236 423.2 218.128 422.972 218.797 422.513C219.466 422.046 219.802 421.475 219.806 420.801C219.809 420.255 219.607 419.796 219.2 419.423C218.8 419.051 218.184 418.768 217.352 418.575L214.401 417.915C212.774 417.538 211.573 416.942 210.797 416.128C210.028 415.315 209.647 414.287 209.654 413.044C209.659 412.014 209.952 411.114 210.532 410.343C211.112 409.573 211.91 408.974 212.928 408.546C213.945 408.111 215.109 407.896 216.42 407.901C218.306 407.908 219.789 408.323 220.868 409.146C221.947 409.961 222.657 411.051 222.998 412.416ZM235.245 408.204L235.231 410.931L225.697 410.893L225.711 408.165L235.245 408.204ZM228.29 403.994L231.688 404.007L231.6 420.519C231.597 421.178 231.693 421.674 231.888 422.008C232.083 422.335 232.336 422.559 232.646 422.682C232.963 422.797 233.308 422.855 233.679 422.856C233.951 422.858 234.19 422.84 234.395 422.803C234.6 422.765 234.759 422.736 234.873 422.714L235.471 425.523C235.274 425.598 234.993 425.672 234.629 425.747C234.265 425.829 233.81 425.872 233.265 425.878C232.371 425.889 231.538 425.727 230.768 425.39C229.997 425.054 229.374 424.536 228.901 423.837C228.427 423.138 228.193 422.263 228.199 421.21L228.29 403.994ZM238.911 425.673L239.004 408.219L242.401 408.232L242.309 425.687L238.911 425.673ZM240.734 405.532C240.143 405.53 239.637 405.331 239.214 404.935C238.8 404.532 238.594 404.054 238.597 403.501C238.6 402.94 238.811 402.464 239.23 402.072C239.656 401.672 240.165 401.473 240.755 401.476C241.346 401.478 241.849 401.681 242.264 402.084C242.686 402.48 242.895 402.958 242.892 403.518C242.889 404.071 242.675 404.548 242.248 404.948C241.83 405.34 241.325 405.535 240.734 405.532ZM250.332 415.355L250.277 425.719L246.88 425.705L246.972 408.251L250.234 408.264L250.219 411.105L250.435 411.105C250.841 410.183 251.474 409.443 252.333 408.886C253.199 408.329 254.288 408.053 255.599 408.058C256.788 408.063 257.828 408.317 258.72 408.82C259.611 409.316 260.3 410.054 260.787 411.033C261.275 412.013 261.514 413.222 261.507 414.661L261.448 425.763L258.05 425.75L258.107 415.057C258.114 413.792 257.789 412.802 257.134 412.087C256.479 411.365 255.575 411.001 254.424 410.996C253.636 410.993 252.934 411.161 252.319 411.499C251.711 411.838 251.227 412.336 250.868 412.994C250.516 413.644 250.337 414.431 250.332 415.355ZM273.286 432.72C271.9 432.714 270.707 432.528 269.709 432.16C268.719 431.793 267.911 431.308 267.285 430.707C266.66 430.106 266.193 429.449 265.887 428.736L268.813 427.543C269.016 427.877 269.287 428.23 269.626 428.603C269.972 428.983 270.44 429.307 271.03 429.575C271.627 429.842 272.395 429.978 273.335 429.982C274.622 429.987 275.689 429.677 276.533 429.051C277.377 428.433 277.803 427.443 277.81 426.079L277.828 422.647L277.612 422.646C277.406 423.017 277.108 423.428 276.719 423.881C276.338 424.334 275.813 424.726 275.145 425.057C274.476 425.388 273.608 425.551 272.54 425.546C271.161 425.541 269.92 425.214 268.818 424.566C267.723 423.91 266.857 422.948 266.22 421.68C265.59 420.405 265.28 418.839 265.29 416.983C265.3 415.127 265.623 413.538 266.258 412.214C266.902 410.891 267.778 409.88 268.888 409.179C269.998 408.472 271.254 408.121 272.655 408.126C273.739 408.131 274.613 408.316 275.277 408.682C275.942 409.041 276.459 409.46 276.827 409.939C277.204 410.417 277.493 410.839 277.696 411.203L277.946 411.204L277.961 408.375L281.29 408.388L281.196 426.229C281.188 427.729 280.833 428.959 280.13 429.918C279.428 430.877 278.481 431.586 277.29 432.043C276.105 432.5 274.771 432.726 273.286 432.72ZM273.305 422.731C274.282 422.735 275.109 422.511 275.786 422.059C276.47 421.6 276.989 420.943 277.342 420.088C277.702 419.226 277.886 418.193 277.892 416.988C277.899 415.814 277.73 414.779 277.386 413.884C277.042 412.989 276.535 412.29 275.863 411.787C275.192 411.277 274.36 411.02 273.367 411.016C272.344 411.012 271.491 411.273 270.806 411.801C270.122 412.321 269.603 413.031 269.249 413.931C268.904 414.831 268.728 415.838 268.722 416.952C268.716 418.095 268.885 419.1 269.229 419.965C269.573 420.83 270.084 421.506 270.763 421.994C271.45 422.481 272.297 422.727 273.305 422.731ZM295.274 414.263C295.289 411.414 295.678 408.794 296.44 406.404C297.203 404.013 298.309 401.809 299.76 399.792L302.873 399.804C302.309 400.552 301.781 401.47 301.29 402.559C300.8 403.648 300.369 404.844 299.999 406.145C299.628 407.439 299.337 408.783 299.125 410.176C298.913 411.561 298.803 412.928 298.796 414.277C298.787 416.08 298.955 417.906 299.301 419.756C299.647 421.606 300.119 423.324 300.717 424.91C301.315 426.495 301.982 427.79 302.719 428.793L299.606 428.78C298.177 426.752 297.094 424.539 296.357 422.142C295.619 419.745 295.258 417.119 295.274 414.263ZM305.549 405.69L305.565 402.667L323.577 402.74L323.561 405.762L316.299 405.733L316.192 425.983L312.692 425.969L312.799 405.719L305.549 405.69ZM327.16 426.027L327.253 408.573L330.651 408.586L330.558 426.041L327.16 426.027ZM328.983 405.886C328.392 405.884 327.886 405.685 327.464 405.289C327.049 404.886 326.843 404.408 326.846 403.855C326.849 403.294 327.06 402.818 327.479 402.426C327.905 402.026 328.414 401.827 329.005 401.83C329.596 401.832 330.098 402.035 330.513 402.438C330.935 402.834 331.145 403.312 331.142 403.872C331.139 404.425 330.924 404.902 330.498 405.302C330.079 405.694 329.574 405.889 328.983 405.886ZM342.65 426.441C340.93 426.434 339.451 426.061 338.212 425.321C336.982 424.574 336.033 423.528 335.365 422.185C334.706 420.834 334.381 419.253 334.391 417.442C334.4 415.654 334.742 414.08 335.416 412.719C336.097 411.358 337.042 410.298 338.251 409.537C339.467 408.777 340.886 408.4 342.507 408.407C343.492 408.411 344.445 408.577 345.368 408.907C346.29 409.236 347.117 409.751 347.848 410.451C348.58 411.151 349.154 412.058 349.573 413.174C349.991 414.281 350.196 415.627 350.188 417.21L350.181 418.415L336.306 418.359L336.32 415.814L346.865 415.856C346.87 414.962 346.692 414.17 346.332 413.479C345.972 412.78 345.464 412.229 344.807 411.825C344.158 411.421 343.394 411.217 342.515 411.213C341.56 411.21 340.726 411.441 340.011 411.908C339.304 412.367 338.755 412.971 338.365 413.72C337.982 414.46 337.789 415.266 337.784 416.138L337.773 418.126C337.767 419.293 337.967 420.286 338.371 421.106C338.784 421.926 339.36 422.553 340.1 422.988C340.84 423.415 341.706 423.631 342.699 423.635C343.343 423.637 343.93 423.549 344.462 423.369C344.993 423.182 345.453 422.903 345.841 422.534C346.229 422.164 346.527 421.707 346.735 421.162L349.947 421.755C349.685 422.701 349.218 423.528 348.548 424.238C347.885 424.94 347.053 425.486 346.051 425.875C345.056 426.258 343.922 426.446 342.65 426.441ZM353.91 426.134L354.003 408.68L357.287 408.693L357.272 411.466L357.454 411.467C357.777 410.528 358.342 409.792 359.148 409.257C359.961 408.715 360.879 408.446 361.902 408.45C362.114 408.451 362.364 408.46 362.652 408.476C362.947 408.492 363.178 408.512 363.345 408.536L363.327 411.786C363.191 411.747 362.949 411.704 362.601 411.658C362.253 411.603 361.904 411.575 361.556 411.574C360.753 411.571 360.036 411.738 359.405 412.077C358.782 412.407 358.287 412.871 357.921 413.468C357.554 414.058 357.368 414.731 357.364 415.489L357.308 426.148L353.91 426.134ZM383.568 402.98L383.444 426.253L379.921 426.239L380.026 406.489L379.89 406.488L374.302 410.102L374.32 406.739L380.147 402.967L383.568 402.98ZM396.381 414.668C396.365 417.524 395.977 420.148 395.214 422.539C394.451 424.929 393.345 427.133 391.895 429.15L388.781 429.138C389.346 428.39 389.873 427.472 390.364 426.383C390.854 425.294 391.285 424.102 391.656 422.808C392.026 421.507 392.317 420.159 392.529 418.766C392.741 417.373 392.851 416.003 392.858 414.654C392.867 412.859 392.699 411.036 392.353 409.186C392.007 407.336 391.535 405.618 390.937 404.033C390.339 402.447 389.672 401.153 388.935 400.15L392.049 400.162C393.477 402.191 394.56 404.403 395.297 406.8C396.035 409.197 396.396 411.82 396.381 414.668ZM94.8583 459.823C93.9417 459.819 93.1057 459.592 92.3505 459.142C91.5954 458.685 90.9926 458.076 90.542 457.317C90.0991 456.557 89.8801 455.719 89.8849 454.803C89.8898 453.878 90.1178 453.042 90.5687 452.294C91.0273 451.538 91.6365 450.938 92.3965 450.495C93.1565 450.043 93.9948 449.819 94.9115 449.823C95.8357 449.826 96.6716 450.057 97.4192 450.515C98.1744 450.965 98.7734 451.569 99.2164 452.329C99.6669 453.081 99.8898 453.919 99.8849 454.843C99.88 455.759 99.6483 456.596 99.1897 457.351C98.7387 458.107 98.1332 458.711 97.3732 459.162C96.6209 459.606 95.7826 459.826 94.8583 459.823ZM121.384 464.202L121.507 440.929L130.03 440.964C131.682 440.97 133.047 441.248 134.128 441.798C135.208 442.34 136.015 443.075 136.548 444.001C137.081 444.92 137.345 445.955 137.338 447.107C137.333 448.076 137.151 448.894 136.791 449.559C136.432 450.217 135.952 450.745 135.351 451.144C134.758 451.536 134.105 451.821 133.392 452L133.391 452.227C134.163 452.268 134.916 452.521 135.648 452.986C136.388 453.444 136.998 454.094 137.479 454.937C137.959 455.78 138.196 456.803 138.19 458.008C138.183 459.197 137.897 460.264 137.332 461.209C136.774 462.146 135.914 462.889 134.752 463.437C133.59 463.978 132.107 464.245 130.304 464.238L121.384 464.202ZM124.911 461.205L129.979 461.225C131.661 461.232 132.867 460.911 133.598 460.262C134.329 459.614 134.697 458.801 134.702 457.823C134.706 457.089 134.524 456.414 134.156 455.798C133.788 455.183 133.26 454.693 132.573 454.326C131.893 453.96 131.083 453.775 130.144 453.771L124.951 453.75L124.911 461.205ZM124.965 451.012L129.67 451.03C130.458 451.034 131.167 450.885 131.797 450.584C132.435 450.284 132.941 449.862 133.315 449.318C133.697 448.766 133.89 448.115 133.894 447.366C133.899 446.403 133.566 445.595 132.895 444.941C132.225 444.287 131.192 443.957 129.798 443.951L125.003 443.932L124.965 451.012ZM153.144 457.091L153.198 446.875L156.607 446.888L156.514 464.343L153.173 464.329L153.189 461.307L153.007 461.306C152.601 462.236 151.953 463.01 151.063 463.628C150.181 464.238 149.085 464.54 147.774 464.535C146.653 464.53 145.662 464.28 144.801 463.784C143.948 463.281 143.277 462.54 142.79 461.56C142.31 460.581 142.074 459.372 142.082 457.933L142.141 446.83L145.539 446.844L145.482 457.537C145.476 458.726 145.8 459.675 146.455 460.382C147.111 461.089 147.965 461.445 149.018 461.449C149.654 461.452 150.288 461.295 150.918 460.979C151.556 460.664 152.085 460.185 152.505 459.543C152.933 458.9 153.146 458.083 153.144 457.091ZM163.192 470.915C162.685 470.913 162.223 470.869 161.807 470.784C161.39 470.707 161.08 470.622 160.876 470.531L161.709 467.75C162.329 467.919 162.882 467.993 163.367 467.973C163.852 467.952 164.281 467.772 164.654 467.432C165.035 467.093 165.371 466.537 165.663 465.766L166.09 464.608L159.797 446.901L163.433 446.916L167.782 460.479L167.964 460.48L172.456 446.952L176.104 446.967L168.806 466.722C168.467 467.629 168.039 468.397 167.521 469.023C167.002 469.658 166.386 470.132 165.672 470.448C164.958 470.763 164.132 470.919 163.192 470.915ZM187.946 464.469L188.069 441.196L196.592 441.231C198.243 441.237 199.609 441.515 200.69 442.065C201.77 442.607 202.577 443.342 203.11 444.268C203.643 445.187 203.906 446.222 203.9 447.374C203.895 448.343 203.713 449.161 203.353 449.826C202.994 450.484 202.514 451.012 201.913 451.411C201.32 451.803 200.667 452.088 199.954 452.267L199.953 452.494C200.725 452.535 201.478 452.788 202.21 453.253C202.95 453.711 203.56 454.361 204.041 455.204C204.521 456.047 204.758 457.07 204.752 458.275C204.745 459.464 204.459 460.531 203.894 461.476C203.336 462.413 202.476 463.156 201.314 463.704C200.152 464.245 198.669 464.512 196.866 464.505L187.946 464.469ZM191.473 461.472L196.541 461.492C198.223 461.499 199.429 461.178 200.16 460.529C200.891 459.881 201.259 459.068 201.264 458.09C201.268 457.356 201.086 456.681 200.718 456.065C200.35 455.45 199.822 454.96 199.135 454.593C198.455 454.227 197.645 454.042 196.706 454.038L191.513 454.017L191.473 461.472ZM191.527 451.279L196.232 451.297C197.02 451.301 197.729 451.152 198.359 450.851C198.997 450.551 199.503 450.129 199.877 449.585C200.259 449.033 200.452 448.382 200.456 447.633C200.461 446.67 200.128 445.862 199.457 445.208C198.786 444.554 197.754 444.224 196.36 444.218L191.565 444.199L191.527 451.279ZM213.688 464.958C212.582 464.954 211.583 464.745 210.691 464.333C209.799 463.913 209.094 463.307 208.576 462.517C208.065 461.728 207.812 460.761 207.818 459.617C207.824 458.632 208.017 457.822 208.399 457.187C208.782 456.552 209.296 456.051 209.942 455.682C210.587 455.313 211.309 455.036 212.105 454.85C212.902 454.664 213.713 454.523 214.539 454.428C215.585 454.311 216.434 454.216 217.086 454.142C217.738 454.062 218.212 453.931 218.509 453.75C218.805 453.57 218.954 453.275 218.957 452.866L218.957 452.786C218.962 451.794 218.686 451.024 218.128 450.476C217.578 449.928 216.754 449.652 215.655 449.648C214.512 449.643 213.609 449.894 212.947 450.399C212.293 450.896 211.839 451.451 211.586 452.064L208.396 451.323C208.781 450.264 209.338 449.411 210.069 448.762C210.808 448.106 211.655 447.632 212.611 447.34C213.567 447.041 214.572 446.894 215.625 446.898C216.322 446.901 217.06 446.987 217.839 447.157C218.626 447.319 219.359 447.617 220.039 448.052C220.726 448.487 221.287 449.106 221.722 449.911C222.157 450.708 222.372 451.743 222.365 453.016L222.303 464.607L218.985 464.593L218.998 462.207L218.862 462.206C218.639 462.645 218.308 463.075 217.866 463.498C217.424 463.92 216.858 464.27 216.167 464.548C215.476 464.825 214.65 464.962 213.688 464.958ZM214.441 462.234C215.38 462.238 216.184 462.056 216.853 461.687C217.529 461.319 218.043 460.836 218.395 460.239C218.754 459.634 218.935 458.987 218.939 458.298L218.951 456.048C218.829 456.168 218.594 456.281 218.245 456.386C217.903 456.483 217.513 456.568 217.073 456.642C216.633 456.709 216.205 456.771 215.788 456.83C215.371 456.882 215.022 456.926 214.742 456.963C214.082 457.043 213.479 457.181 212.933 457.376C212.394 457.571 211.96 457.853 211.633 458.223C211.312 458.585 211.151 459.069 211.148 459.675C211.143 460.516 211.45 461.154 212.069 461.588C212.688 462.015 213.479 462.23 214.441 462.234ZM234.179 465.007C232.49 465 231.037 464.611 229.822 463.841C228.614 463.064 227.688 461.996 227.043 460.637C226.399 459.278 226.081 457.724 226.091 455.974C226.1 454.201 226.442 452.638 227.116 451.285C227.79 449.924 228.735 448.863 229.951 448.103C231.167 447.343 232.597 446.966 234.241 446.973C235.567 446.978 236.747 447.229 237.782 447.725C238.818 448.214 239.651 448.9 240.283 449.781C240.922 450.662 241.299 451.69 241.414 452.865L238.107 452.852C237.93 452.033 237.517 451.327 236.869 450.733C236.228 450.14 235.366 449.841 234.283 449.836C233.336 449.833 232.505 450.079 231.79 450.576C231.083 451.066 230.53 451.768 230.131 452.683C229.732 453.591 229.53 454.666 229.523 455.908C229.516 457.181 229.704 458.28 230.085 459.206C230.466 460.132 231.008 460.85 231.71 461.36C232.419 461.871 233.255 462.128 234.217 462.132C234.861 462.134 235.445 462.019 235.969 461.786C236.501 461.546 236.946 461.203 237.304 460.758C237.67 460.312 237.927 459.775 238.074 459.147L241.381 459.16C241.254 460.289 240.881 461.295 240.263 462.179C239.644 463.063 238.819 463.756 237.786 464.26C236.76 464.763 235.558 465.012 234.179 465.007ZM248.141 458.79L248.141 454.642L248.732 454.644L255.725 447.286L259.794 447.302L251.817 455.679L251.283 455.677L248.141 458.79ZM244.985 464.698L245.109 441.425L248.506 441.439L248.383 464.711L244.985 464.698ZM256.008 464.742L249.802 456.421L252.155 454.056L260.178 464.759L256.008 464.742ZM278.037 465.16C276.476 465.153 275.133 464.864 274.007 464.291C272.889 463.719 272.03 462.942 271.429 461.963C270.828 460.975 270.531 459.861 270.538 458.618C270.543 457.671 270.744 456.831 271.142 456.098C271.54 455.357 272.093 454.674 272.8 454.048C273.508 453.422 274.326 452.792 275.254 452.16L279.018 449.527C279.656 449.113 280.155 448.676 280.513 448.215C280.872 447.747 281.053 447.168 281.057 446.479C281.06 445.933 280.828 445.409 280.36 444.908C279.893 444.406 279.266 444.153 278.478 444.15C277.933 444.148 277.451 444.278 277.033 444.542C276.622 444.805 276.299 445.145 276.062 445.561C275.832 445.969 275.716 446.4 275.714 446.855C275.711 447.385 275.852 447.92 276.137 448.459C276.43 448.998 276.805 449.556 277.264 450.134C277.724 450.704 278.205 451.297 278.71 451.912L289.448 464.876L285.607 464.861L276.72 454.313C275.974 453.424 275.282 452.588 274.642 451.805C274.002 451.015 273.484 450.217 273.086 449.412C272.697 448.6 272.505 447.725 272.509 446.785C272.515 445.717 272.763 444.771 273.252 443.947C273.749 443.116 274.438 442.467 275.319 442.001C276.2 441.535 277.232 441.304 278.414 441.309C279.611 441.314 280.636 441.553 281.489 442.026C282.351 442.491 283.01 443.111 283.468 443.886C283.934 444.653 284.164 445.491 284.159 446.4C284.154 447.506 283.872 448.482 283.314 449.329C282.764 450.167 282.007 450.937 281.041 451.638L276.352 455.062C275.439 455.725 274.803 456.382 274.444 457.032C274.092 457.674 273.915 458.177 273.913 458.541C273.909 459.208 274.077 459.826 274.414 460.395C274.76 460.965 275.242 461.421 275.862 461.765C276.489 462.108 277.223 462.281 278.064 462.285C278.927 462.288 279.769 462.106 280.589 461.738C281.417 461.363 282.166 460.824 282.836 460.122C283.514 459.42 284.053 458.578 284.452 457.595C284.851 456.611 285.054 455.51 285.061 454.29L288.129 454.302C288.121 455.802 287.944 457.071 287.597 458.107C287.251 459.136 286.834 459.975 286.345 460.625C285.865 461.267 285.411 461.769 284.985 462.131C284.848 462.251 284.719 462.372 284.597 462.493C284.475 462.614 284.345 462.734 284.208 462.855C283.416 463.647 282.459 464.23 281.335 464.605C280.22 464.979 279.12 465.164 278.037 465.16ZM300.851 464.922L300.975 441.649L309.497 441.683C311.149 441.69 312.515 441.968 313.595 442.518C314.676 443.06 315.482 443.795 316.015 444.721C316.548 445.64 316.812 446.675 316.806 447.826C316.801 448.796 316.618 449.614 316.259 450.279C315.899 450.937 315.419 451.465 314.818 451.864C314.225 452.256 313.572 452.541 312.859 452.72L312.858 452.947C313.63 452.988 314.383 453.241 315.115 453.706C315.855 454.164 316.466 454.814 316.946 455.657C317.426 456.499 317.663 457.523 317.657 458.728C317.651 459.917 317.365 460.984 316.799 461.929C316.241 462.866 315.381 463.609 314.219 464.157C313.057 464.698 311.574 464.965 309.771 464.957L300.851 464.922ZM304.378 461.924L309.446 461.945C311.128 461.952 312.335 461.631 313.065 460.982C313.796 460.333 314.164 459.521 314.169 458.543C314.173 457.808 313.991 457.133 313.623 456.518C313.255 455.903 312.727 455.412 312.04 455.046C311.36 454.68 310.55 454.495 309.611 454.491L304.418 454.47L304.378 461.924ZM304.433 451.731L309.137 451.75C309.925 451.753 310.634 451.605 311.264 451.304C311.902 451.004 312.408 450.582 312.783 450.038C313.164 449.486 313.357 448.835 313.361 448.085C313.366 447.123 313.033 446.315 312.363 445.661C311.692 445.007 310.659 444.677 309.266 444.671L304.47 444.652L304.433 451.731ZM332.611 457.81L332.665 447.595L336.074 447.608L335.981 465.063L332.641 465.049L332.657 462.027L332.475 462.026C332.068 462.956 331.42 463.73 330.531 464.348C329.649 464.958 328.552 465.26 327.242 465.255C326.12 465.25 325.129 465 324.268 464.504C323.415 464.001 322.745 463.26 322.257 462.28C321.778 461.301 321.542 460.092 321.549 458.652L321.608 447.55L325.006 447.564L324.949 458.257C324.943 459.446 325.267 460.395 325.923 461.102C326.578 461.809 327.432 462.165 328.485 462.169C329.122 462.171 329.755 462.015 330.386 461.699C331.024 461.384 331.553 460.905 331.973 460.262C332.4 459.62 332.613 458.803 332.611 457.81ZM340.547 465.081L340.639 447.627L343.924 447.64L343.909 450.412L344.091 450.413C344.414 449.475 344.978 448.739 345.784 448.204C346.598 447.662 347.516 447.393 348.539 447.397C348.751 447.398 349.001 447.406 349.288 447.423C349.584 447.439 349.815 447.459 349.981 447.482L349.964 450.732C349.828 450.694 349.586 450.651 349.237 450.604C348.889 450.55 348.541 450.522 348.192 450.521C347.389 450.517 346.673 450.685 346.042 451.023C345.419 451.354 344.924 451.818 344.557 452.415C344.19 453.005 344.005 453.678 344.001 454.436L343.944 465.095L340.547 465.081ZM356.281 454.78L356.226 465.144L352.828 465.13L352.921 447.676L356.182 447.689L356.167 450.53L356.383 450.531C356.789 449.608 357.422 448.868 358.281 448.311C359.148 447.754 360.236 447.478 361.547 447.483C362.736 447.488 363.776 447.742 364.668 448.246C365.559 448.742 366.248 449.479 366.736 450.459C367.223 451.438 367.463 452.647 367.455 454.087L367.396 465.189L363.998 465.175L364.055 454.482C364.062 453.217 363.737 452.227 363.082 451.512C362.427 450.79 361.524 450.426 360.372 450.422C359.584 450.419 358.882 450.586 358.267 450.925C357.659 451.263 357.175 451.761 356.816 452.419C356.464 453.069 356.286 453.856 356.281 454.78ZM94.6511 498.822C93.7344 498.818 92.8985 498.592 92.1433 498.142C91.3882 497.684 90.7853 497.076 90.3348 496.316C89.8919 495.557 89.6728 494.719 89.6777 493.802C89.6826 492.878 89.9106 492.042 90.3615 491.293C90.8201 490.538 91.4293 489.938 92.1893 489.494C92.9493 489.042 93.7876 488.819 94.7042 488.822C95.6285 488.826 96.4644 489.057 97.212 489.514C97.9672 489.964 98.5662 490.569 99.0092 491.328C99.4597 492.08 99.6825 492.918 99.6776 493.842C99.6728 494.759 99.441 495.595 98.9825 496.351C98.5315 497.107 97.926 497.71 97.166 498.162C96.4136 498.606 95.5753 498.826 94.6511 498.822ZM129.811 479.963L129.688 503.235L126.165 503.221L126.27 483.472L126.134 483.471L120.546 487.085L120.564 483.721L126.391 479.949L129.811 479.963ZM144.083 503.68C142.288 503.665 140.756 503.185 139.489 502.241C138.221 501.296 137.255 499.925 136.59 498.127C135.925 496.329 135.6 494.164 135.613 491.634C135.627 489.111 135.975 486.957 136.659 485.172C137.35 483.387 138.335 482.028 139.612 481.093C140.898 480.159 142.43 479.695 144.211 479.703C145.991 479.71 147.515 480.189 148.783 481.141C150.05 482.086 151.017 483.453 151.681 485.244C152.354 487.027 152.683 489.18 152.67 491.703C152.656 494.24 152.308 496.406 151.624 498.198C150.94 499.984 149.959 501.347 148.682 502.289C147.404 503.223 145.871 503.687 144.083 503.68ZM144.099 500.645C145.675 500.652 146.91 499.888 147.805 498.353C148.707 496.819 149.166 494.598 149.181 491.689C149.191 489.757 148.996 488.123 148.594 486.788C148.199 485.446 147.625 484.428 146.871 483.736C146.125 483.036 145.233 482.684 144.195 482.68C142.627 482.674 141.392 483.441 140.489 484.983C139.587 486.525 139.125 488.747 139.102 491.648C139.091 493.587 139.283 495.228 139.678 496.571C140.08 497.906 140.654 498.92 141.4 499.612C142.147 500.297 143.046 500.641 144.099 500.645ZM164.739 503.762C162.944 503.748 161.412 503.268 160.145 502.323C158.877 501.379 157.911 500.008 157.246 498.21C156.581 496.411 156.256 494.247 156.269 491.717C156.283 489.194 156.631 487.04 157.315 485.255C158.006 483.47 158.991 482.11 160.268 481.176C161.554 480.242 163.087 479.778 164.867 479.785C166.647 479.793 168.171 480.272 169.439 481.224C170.707 482.169 171.673 483.536 172.337 485.327C173.01 487.11 173.339 489.263 173.326 491.785C173.312 494.323 172.964 496.488 172.28 498.281C171.596 500.066 170.616 501.43 169.338 502.372C168.06 503.306 166.527 503.77 164.739 503.762ZM164.756 500.728C166.331 500.735 167.566 499.971 168.461 498.436C169.363 496.902 169.822 494.68 169.837 491.771C169.848 489.84 169.652 488.206 169.25 486.871C168.855 485.529 168.281 484.511 167.527 483.819C166.781 483.119 165.889 482.767 164.851 482.763C163.283 482.756 162.048 483.524 161.146 485.066C160.243 486.608 159.781 488.829 159.758 491.731C159.748 493.67 159.94 495.311 160.334 496.654C160.736 497.989 161.31 499.002 162.056 499.695C162.803 500.38 163.703 500.724 164.756 500.728ZM185.396 503.845C183.6 503.83 182.069 503.351 180.801 502.406C179.533 501.462 178.567 500.091 177.902 498.292C177.237 496.494 176.912 494.33 176.925 491.8C176.939 489.277 177.287 487.123 177.971 485.338C178.662 483.553 179.647 482.193 180.925 481.259C182.21 480.325 183.743 479.861 185.523 479.868C187.303 479.875 188.827 480.355 190.095 481.307C191.363 482.252 192.329 483.619 192.994 485.41C193.666 487.193 193.995 489.346 193.982 491.868C193.969 494.406 193.62 496.571 192.936 498.364C192.252 500.149 191.272 501.513 189.994 502.455C188.716 503.389 187.183 503.852 185.396 503.845ZM185.412 500.811C186.987 500.817 188.223 500.054 189.117 498.519C190.019 496.985 190.478 494.763 190.493 491.854C190.504 489.922 190.308 488.289 189.906 486.954C189.511 485.612 188.937 484.594 188.183 483.902C187.437 483.202 186.545 482.85 185.507 482.846C183.939 482.839 182.704 483.607 181.802 485.149C180.899 486.691 180.437 488.912 180.414 491.814C180.404 493.753 180.596 495.394 180.99 496.737C181.392 498.072 181.966 499.085 182.713 499.778C183.459 500.462 184.359 500.807 185.412 500.811ZM206.052 503.928C204.256 503.913 202.725 503.434 201.457 502.489C200.189 501.545 199.223 500.173 198.558 498.375C197.894 496.577 197.568 494.413 197.581 491.883C197.595 489.36 197.943 487.206 198.627 485.421C199.318 483.636 200.303 482.276 201.581 481.342C202.866 480.408 204.399 479.944 206.179 479.951C207.959 479.958 209.483 480.438 210.751 481.39C212.019 482.334 212.985 483.702 213.65 485.493C214.322 487.276 214.651 489.428 214.638 491.951C214.625 494.489 214.276 496.654 213.592 498.447C212.908 500.232 211.928 501.596 210.65 502.537C209.372 503.472 207.839 503.935 206.052 503.928ZM206.068 500.894C207.643 500.9 208.879 500.136 209.773 498.602C210.675 497.068 211.134 494.846 211.149 491.937C211.16 490.005 210.964 488.372 210.562 487.037C210.167 485.694 209.593 484.677 208.839 483.985C208.093 483.285 207.201 482.933 206.163 482.928C204.595 482.922 203.36 483.69 202.458 485.232C201.556 486.774 201.093 488.995 201.07 491.897C201.06 493.836 201.252 495.477 201.646 496.819C202.048 498.154 202.622 499.168 203.369 499.86C204.115 500.545 205.015 500.89 206.068 500.894ZM230.574 493.276L230.519 503.64L227.122 503.626L227.245 480.354L230.598 480.367L230.552 489.026L230.767 489.027C231.182 488.089 231.81 487.346 232.654 486.796C233.498 486.246 234.598 485.974 235.954 485.98C237.151 485.985 238.195 486.235 239.087 486.731C239.985 487.227 240.679 487.965 241.166 488.944C241.661 489.916 241.904 491.129 241.896 492.583L241.837 503.685L238.44 503.672L238.497 492.979C238.503 491.698 238.179 490.705 237.524 489.997C236.868 489.283 235.954 488.923 234.779 488.918C233.976 488.915 233.256 489.083 232.618 489.421C231.987 489.759 231.488 490.257 231.121 490.915C230.762 491.565 230.579 492.352 230.574 493.276ZM253.722 504.085C252.085 504.079 250.659 503.698 249.444 502.943C248.228 502.188 247.287 501.135 246.62 499.784C245.953 498.433 245.624 496.856 245.633 495.053C245.643 493.242 245.989 491.66 246.67 490.307C247.351 488.953 248.304 487.904 249.528 487.159C250.751 486.414 252.181 486.045 253.818 486.051C255.454 486.058 256.88 486.439 258.096 487.194C259.311 487.948 260.253 489.005 260.92 490.364C261.587 491.723 261.916 493.307 261.906 495.118C261.896 496.921 261.551 498.495 260.869 499.841C260.188 501.187 259.236 502.232 258.012 502.977C256.788 503.723 255.358 504.092 253.722 504.085ZM253.748 501.233C254.809 501.237 255.689 500.96 256.389 500.403C257.089 499.845 257.608 499.101 257.947 498.17C258.292 497.24 258.468 496.214 258.474 495.093C258.48 493.979 258.315 492.956 257.979 492.023C257.651 491.082 257.14 490.326 256.446 489.755C255.752 489.184 254.875 488.897 253.814 488.892C252.746 488.888 251.858 489.169 251.15 489.734C250.45 490.299 249.927 491.051 249.582 491.989C249.243 492.919 249.071 493.941 249.065 495.055C249.059 496.176 249.22 497.203 249.549 498.137C249.885 499.07 250.4 499.818 251.094 500.381C251.795 500.945 252.68 501.229 253.748 501.233ZM269.174 480.522L269.05 503.794L265.653 503.781L265.776 480.508L269.174 480.522ZM280.154 504.18C278.744 504.174 277.489 503.809 276.387 503.085C275.292 502.354 274.434 501.316 273.812 499.973C273.198 498.622 272.896 497.003 272.906 495.117C272.916 493.23 273.239 491.618 273.875 490.28C274.518 488.941 275.395 487.918 276.505 487.211C277.615 486.503 278.87 486.152 280.272 486.157C281.355 486.162 282.226 486.347 282.883 486.713C283.547 487.072 284.06 487.491 284.422 487.97C284.79 488.448 285.076 488.87 285.278 489.234L285.483 489.235L285.529 480.588L288.927 480.601L288.803 503.874L285.485 503.86L285.499 501.144L285.215 501.143C285.009 501.514 284.711 501.937 284.322 502.412C283.941 502.888 283.416 503.303 282.747 503.656C282.079 504.01 281.214 504.184 280.154 504.18ZM280.919 501.285C281.896 501.289 282.723 501.035 283.4 500.522C284.085 500.002 284.604 499.281 284.957 498.358C285.318 497.435 285.502 496.36 285.508 495.133C285.515 493.921 285.346 492.86 285.003 491.949C284.659 491.039 284.151 490.328 283.48 489.818C282.808 489.308 281.976 489.051 280.984 489.047C279.961 489.043 279.108 489.304 278.423 489.832C277.738 490.359 277.219 491.081 276.866 491.996C276.52 492.911 276.344 493.945 276.338 495.096C276.332 496.263 276.501 497.313 276.844 498.246C277.188 499.179 277.699 499.92 278.378 500.468C279.064 501.009 279.911 501.281 280.919 501.285ZM301.173 504.276C299.453 504.269 297.974 503.895 296.736 503.155C295.505 502.408 294.556 501.363 293.889 500.019C293.229 498.668 292.904 497.087 292.914 495.276C292.924 493.489 293.265 491.914 293.939 490.553C294.621 489.192 295.566 488.132 296.774 487.371C297.99 486.611 299.409 486.234 301.03 486.241C302.015 486.245 302.969 486.411 303.891 486.741C304.814 487.07 305.641 487.585 306.372 488.285C307.103 488.985 307.678 489.892 308.096 491.008C308.514 492.116 308.719 493.461 308.711 495.044L308.705 496.249L294.83 496.193L294.843 493.648L305.389 493.69C305.393 492.796 305.216 492.004 304.856 491.313C304.496 490.615 303.987 490.063 303.33 489.659C302.681 489.255 301.917 489.051 301.038 489.048C300.084 489.044 299.249 489.275 298.534 489.742C297.827 490.201 297.279 490.805 296.888 491.554C296.506 492.295 296.312 493.101 296.307 493.972L296.297 495.96C296.291 497.127 296.49 498.12 296.895 498.94C297.307 499.76 297.883 500.387 298.623 500.822C299.363 501.249 300.23 501.465 301.222 501.469C301.866 501.471 302.454 501.383 302.985 501.203C303.516 501.016 303.976 500.738 304.364 500.368C304.753 499.998 305.051 499.541 305.258 498.996L308.471 499.589C308.208 500.535 307.742 501.362 307.071 502.072C306.408 502.774 305.576 503.32 304.574 503.71C303.579 504.092 302.446 504.281 301.173 504.276ZM312.433 503.968L312.526 486.514L315.81 486.527L315.796 489.3L315.977 489.301C316.301 488.363 316.865 487.626 317.671 487.092C318.484 486.549 319.403 486.28 320.425 486.284C320.637 486.285 320.887 486.294 321.175 486.31C321.471 486.327 321.701 486.346 321.868 486.37L321.851 489.62C321.715 489.581 321.472 489.539 321.124 489.492C320.776 489.437 320.428 489.409 320.079 489.408C319.276 489.405 318.559 489.572 317.929 489.911C317.306 490.242 316.811 490.706 316.444 491.303C316.077 491.892 315.892 492.566 315.888 493.323L315.831 503.982L312.433 503.968ZM337.864 490.877L334.782 491.41C334.655 491.016 334.452 490.64 334.174 490.283C333.903 489.926 333.534 489.633 333.065 489.403C332.597 489.174 332.01 489.058 331.306 489.055C330.343 489.052 329.539 489.264 328.893 489.693C328.247 490.115 327.922 490.663 327.918 491.337C327.915 491.921 328.129 492.391 328.559 492.749C328.989 493.107 329.684 493.401 330.645 493.632L333.414 494.28C335.018 494.657 336.212 495.234 336.996 496.01C337.78 496.786 338.168 497.791 338.162 499.026C338.156 500.072 337.848 501.002 337.238 501.818C336.635 502.626 335.795 503.259 334.716 503.717C333.646 504.175 332.406 504.401 330.997 504.395C329.042 504.387 327.45 503.964 326.219 503.126C324.989 502.28 324.238 501.084 323.966 499.537L327.252 499.051C327.452 499.907 327.869 500.557 328.503 500.999C329.138 501.433 329.966 501.652 330.989 501.656C332.102 501.661 332.994 501.433 333.663 500.974C334.332 500.507 334.668 499.936 334.672 499.262C334.675 498.717 334.473 498.258 334.066 497.885C333.666 497.512 333.05 497.229 332.218 497.036L329.267 496.377C327.64 495.999 326.438 495.403 325.662 494.59C324.894 493.776 324.513 492.748 324.52 491.505C324.525 490.475 324.818 489.575 325.398 488.804C325.978 488.034 326.776 487.435 327.794 487.007C328.811 486.572 329.975 486.357 331.286 486.362C333.172 486.37 334.655 486.785 335.734 487.607C336.813 488.422 337.523 489.512 337.864 490.877ZM94.4439 537.822C93.5272 537.818 92.6913 537.591 91.9361 537.141C91.181 536.683 90.5781 536.075 90.1276 535.316C89.6847 534.556 89.4656 533.718 89.4705 532.802C89.4754 531.877 89.7033 531.041 90.1543 530.293C90.6129 529.537 91.2221 528.937 91.9821 528.493C92.742 528.042 93.5804 527.818 94.497 527.822C95.4213 527.825 96.2572 528.056 97.0047 528.514C97.7599 528.964 98.359 529.568 98.8019 530.328C99.2525 531.079 99.4753 531.917 99.4704 532.842C99.4655 533.758 99.2338 534.595 98.7753 535.35C98.3243 536.106 97.7188 536.71 96.9588 537.161C96.2064 537.605 95.3681 537.825 94.4439 537.822ZM120.969 542.201L121.093 518.928L124.604 518.942L124.551 529.056L136.153 529.102L136.206 518.989L139.729 519.003L139.605 542.275L136.083 542.261L136.137 532.114L124.535 532.067L124.481 542.215L120.969 542.201ZM155.542 535.101L155.596 524.885L159.005 524.899L158.912 542.353L155.571 542.34L155.587 539.317L155.406 539.316C154.999 540.246 154.351 541.02 153.461 541.638C152.579 542.248 151.483 542.55 150.172 542.545C149.051 542.541 148.06 542.29 147.199 541.795C146.346 541.291 145.675 540.55 145.188 539.571C144.708 538.591 144.472 537.382 144.48 535.943L144.539 524.841L147.937 524.854L147.88 535.547C147.874 536.737 148.198 537.685 148.854 538.392C149.509 539.099 150.363 539.455 151.416 539.459C152.052 539.462 152.686 539.305 153.316 538.99C153.954 538.674 154.483 538.195 154.904 537.553C155.331 536.91 155.544 536.093 155.542 535.101ZM170.759 549.31C169.373 549.304 168.18 549.117 167.182 548.75C166.192 548.382 165.384 547.898 164.758 547.297C164.133 546.696 163.666 546.039 163.359 545.325L166.286 544.132C166.489 544.467 166.76 544.82 167.099 545.193C167.445 545.573 167.913 545.897 168.503 546.164C169.1 546.432 169.868 546.567 170.808 546.571C172.095 546.576 173.161 546.266 174.006 545.641C174.85 545.023 175.276 544.032 175.283 542.669L175.301 539.237L175.085 539.236C174.879 539.606 174.581 540.018 174.192 540.471C173.811 540.924 173.286 541.316 172.618 541.647C171.949 541.977 171.081 542.14 170.013 542.136C168.634 542.131 167.393 541.804 166.291 541.155C165.196 540.499 164.33 539.537 163.692 538.27C163.063 536.995 162.753 535.429 162.763 533.573C162.773 531.717 163.096 530.127 163.731 528.804C164.375 527.481 165.251 526.469 166.361 525.769C167.471 525.061 168.727 524.71 170.128 524.716C171.211 524.72 172.086 524.906 172.75 525.272C173.415 525.631 173.932 526.049 174.3 526.528C174.677 527.007 174.966 527.429 175.169 527.793L175.419 527.794L175.434 524.965L178.763 524.978L178.668 542.819C178.66 544.318 178.305 545.548 177.603 546.507C176.901 547.467 175.954 548.175 174.763 548.632C173.578 549.09 172.244 549.316 170.759 549.31ZM170.778 539.321C171.755 539.325 172.582 539.101 173.259 538.649C173.943 538.19 174.462 537.533 174.815 536.678C175.175 535.816 175.359 534.782 175.365 533.578C175.371 532.404 175.203 531.369 174.859 530.474C174.515 529.578 174.008 528.879 173.336 528.377C172.664 527.866 171.833 527.609 170.84 527.605C169.817 527.601 168.964 527.863 168.279 528.39C167.594 528.91 167.076 529.62 166.722 530.521C166.377 531.421 166.201 532.428 166.195 533.541C166.189 534.685 166.358 535.69 166.702 536.555C167.045 537.42 167.557 538.096 168.236 538.583C168.923 539.071 169.77 539.317 170.778 539.321ZM190.748 542.833C189.028 542.826 187.549 542.453 186.311 541.713C185.08 540.965 184.131 539.92 183.464 538.576C182.804 537.225 182.479 535.644 182.489 533.834C182.498 532.046 182.84 530.472 183.514 529.111C184.196 527.75 185.141 526.689 186.349 525.929C187.565 525.168 188.984 524.792 190.605 524.798C191.59 524.802 192.544 524.969 193.466 525.298C194.389 525.628 195.216 526.142 195.947 526.842C196.678 527.542 197.253 528.45 197.671 529.565C198.089 530.673 198.294 532.018 198.286 533.602L198.279 534.806L184.405 534.751L184.418 532.205L194.963 532.247C194.968 531.354 194.791 530.561 194.431 529.87C194.071 529.172 193.562 528.621 192.905 528.216C192.256 527.812 191.492 527.608 190.613 527.605C189.659 527.601 188.824 527.833 188.109 528.299C187.402 528.759 186.854 529.363 186.463 530.111C186.081 530.852 185.887 531.658 185.882 532.529L185.872 534.518C185.866 535.684 186.065 536.678 186.47 537.497C186.882 538.317 187.458 538.945 188.198 539.379C188.938 539.807 189.805 540.022 190.797 540.026C191.441 540.029 192.029 539.94 192.56 539.761C193.091 539.573 193.551 539.295 193.939 538.925C194.328 538.556 194.626 538.098 194.833 537.554L198.046 538.146C197.783 539.092 197.317 539.92 196.646 540.629C195.983 541.331 195.151 541.877 194.149 542.267C193.154 542.649 192.021 542.838 190.748 542.833ZM210.873 519.288L215.135 519.306L222.448 537.426L222.72 537.427L230.226 519.366L234.487 519.383L234.363 542.656L231.022 542.642L231.112 525.801L230.896 525.801L223.943 542.58L221.17 542.569L214.396 525.723L214.18 525.722L214.091 542.574L210.75 542.561L210.873 519.288ZM244.273 543.082C243.167 543.077 242.168 542.869 241.276 542.456C240.385 542.036 239.679 541.431 239.161 540.641C238.65 539.851 238.398 538.884 238.404 537.74C238.409 536.755 238.603 535.945 238.985 535.31C239.367 534.676 239.881 534.174 240.527 533.805C241.173 533.437 241.894 533.159 242.69 532.973C243.487 532.787 244.298 532.646 245.124 532.551C246.171 532.434 247.02 532.339 247.671 532.266C248.323 532.185 248.798 532.054 249.094 531.874C249.39 531.693 249.54 531.398 249.542 530.989L249.542 530.91C249.548 529.917 249.271 529.147 248.714 528.599C248.164 528.052 247.339 527.776 246.241 527.771C245.097 527.767 244.194 528.017 243.532 528.522C242.878 529.019 242.424 529.574 242.171 530.187L238.982 529.447C239.366 528.388 239.924 527.534 240.655 526.885C241.393 526.229 242.24 525.755 243.196 525.464C244.152 525.164 245.157 525.017 246.21 525.021C246.907 525.024 247.645 525.11 248.425 525.28C249.212 525.442 249.945 525.741 250.624 526.175C251.311 526.61 251.873 527.229 252.308 528.034C252.743 528.831 252.957 529.866 252.95 531.139L252.889 542.73L249.571 542.717L249.583 540.33L249.447 540.33C249.225 540.768 248.893 541.199 248.451 541.621C248.01 542.044 247.443 542.394 246.753 542.671C246.062 542.949 245.235 543.086 244.273 543.082ZM245.026 540.357C245.966 540.361 246.77 540.179 247.438 539.81C248.114 539.442 248.628 538.959 248.98 538.362C249.339 537.757 249.521 537.11 249.524 536.421L249.536 534.171C249.415 534.292 249.179 534.404 248.83 534.509C248.489 534.606 248.098 534.692 247.658 534.766C247.218 534.832 246.79 534.895 246.373 534.954C245.956 535.005 245.607 535.049 245.327 535.086C244.667 535.167 244.064 535.304 243.518 535.499C242.979 535.694 242.546 535.976 242.218 536.346C241.898 536.708 241.736 537.193 241.733 537.799C241.728 538.64 242.036 539.277 242.655 539.712C243.274 540.138 244.064 540.354 245.026 540.357ZM257.414 542.748L257.507 525.294L260.791 525.307L260.776 528.08L260.958 528.08C261.281 527.142 261.846 526.406 262.652 525.871C263.465 525.329 264.383 525.06 265.406 525.064C265.618 525.065 265.868 525.073 266.156 525.09C266.451 525.106 266.682 525.126 266.849 525.149L266.831 528.399C266.695 528.361 266.453 528.318 266.105 528.271C265.757 528.217 265.408 528.189 265.06 528.188C264.257 528.184 263.54 528.352 262.909 528.69C262.286 529.021 261.792 529.485 261.425 530.082C261.058 530.672 260.873 531.345 260.869 532.103L260.812 542.762L257.414 542.748ZM272.852 536.889L272.851 532.742L273.442 532.744L280.436 525.386L284.504 525.402L276.527 533.779L275.993 533.777L272.852 536.889ZM269.695 542.797L269.819 519.525L273.217 519.539L273.093 542.811L269.695 542.797ZM280.718 542.842L274.512 534.521L276.866 532.156L284.888 542.858L280.718 542.842ZM294.31 543.248C292.59 543.241 291.111 542.868 289.872 542.128C288.642 541.381 287.693 540.335 287.025 538.992C286.366 537.641 286.041 536.06 286.051 534.249C286.06 532.461 286.402 530.887 287.076 529.526C287.757 528.165 288.702 527.104 289.911 526.344C291.127 525.584 292.546 525.207 294.167 525.214C295.152 525.217 296.105 525.384 297.028 525.714C297.95 526.043 298.777 526.558 299.508 527.258C300.24 527.958 300.814 528.865 301.233 529.981C301.651 531.088 301.856 532.434 301.848 534.017L301.841 535.222L287.966 535.166L287.98 532.621L298.525 532.663C298.53 531.769 298.352 530.977 297.992 530.286C297.632 529.587 297.124 529.036 296.467 528.632C295.818 528.228 295.054 528.024 294.175 528.02C293.22 528.017 292.386 528.248 291.671 528.715C290.964 529.174 290.415 529.778 290.025 530.526C289.642 531.267 289.449 532.073 289.444 532.945L289.433 534.933C289.427 536.1 289.626 537.093 290.031 537.913C290.444 538.733 291.02 539.36 291.76 539.795C292.5 540.222 293.366 540.438 294.359 540.442C295.003 540.444 295.59 540.356 296.122 540.176C296.653 539.989 297.113 539.71 297.501 539.341C297.889 538.971 298.187 538.514 298.395 537.969L301.607 538.562C301.345 539.508 300.878 540.335 300.208 541.045C299.545 541.747 298.713 542.292 297.711 542.682C296.716 543.065 295.582 543.253 294.31 543.248ZM313.81 525.52L313.796 528.247L304.262 528.209L304.276 525.481L313.81 525.52ZM306.855 521.31L310.253 521.323L310.165 537.835C310.162 538.494 310.258 538.99 310.453 539.324C310.648 539.651 310.901 539.875 311.211 539.998C311.528 540.113 311.873 540.171 312.244 540.172C312.517 540.174 312.755 540.156 312.96 540.119C313.165 540.081 313.324 540.052 313.438 540.03L314.037 542.839C313.839 542.914 313.559 542.988 313.195 543.063C312.83 543.145 312.376 543.188 311.83 543.194C310.936 543.205 310.104 543.043 309.333 542.706C308.562 542.37 307.94 541.852 307.466 541.153C306.992 540.454 306.758 539.579 306.764 538.525L306.855 521.31ZM317.476 542.989L317.569 525.535L320.967 525.548L320.874 543.003L317.476 542.989ZM319.299 522.848C318.708 522.846 318.202 522.647 317.78 522.251C317.365 521.848 317.159 521.37 317.162 520.817C317.165 520.256 317.376 519.78 317.795 519.388C318.221 518.988 318.73 518.789 319.321 518.792C319.912 518.794 320.414 518.997 320.829 519.4C321.251 519.796 321.461 520.274 321.458 520.834C321.455 521.387 321.24 521.864 320.814 522.264C320.395 522.656 319.89 522.851 319.299 522.848ZM328.898 532.671L328.843 543.035L325.445 543.021L325.538 525.567L328.799 525.58L328.784 528.421L329 528.421C329.406 527.499 330.039 526.759 330.898 526.202C331.765 525.645 332.853 525.369 334.164 525.374C335.353 525.379 336.393 525.633 337.285 526.136C338.176 526.632 338.865 527.37 339.353 528.349C339.84 529.329 340.08 530.538 340.072 531.977L340.013 543.079L336.615 543.066L336.672 532.373C336.679 531.108 336.355 530.118 335.699 529.403C335.044 528.681 334.141 528.317 332.989 528.312C332.201 528.309 331.5 528.477 330.884 528.815C330.276 529.154 329.793 529.652 329.433 530.31C329.081 530.96 328.903 531.747 328.898 532.671ZM351.851 550.036C350.465 550.03 349.273 549.844 348.275 549.476C347.284 549.109 346.476 548.624 345.85 548.023C345.225 547.422 344.759 546.765 344.452 546.052L347.379 544.859C347.581 545.193 347.852 545.546 348.191 545.919C348.538 546.299 349.006 546.623 349.595 546.891C350.192 547.158 350.96 547.294 351.9 547.298C353.188 547.303 354.254 546.993 355.098 546.367C355.942 545.749 356.368 544.759 356.375 543.395L356.393 539.963L356.177 539.962C355.971 540.333 355.673 540.744 355.285 541.197C354.903 541.65 354.379 542.042 353.71 542.373C353.042 542.704 352.173 542.867 351.105 542.862C349.726 542.857 348.486 542.53 347.383 541.882C346.288 541.226 345.422 540.264 344.785 538.996C344.155 537.721 343.845 536.155 343.855 534.299C343.865 532.443 344.188 530.854 344.824 529.53C345.467 528.207 346.344 527.196 347.453 526.495C348.563 525.788 349.819 525.437 351.22 525.442C352.304 525.447 353.178 525.632 353.843 525.998C354.507 526.357 355.024 526.776 355.393 527.255C355.769 527.733 356.058 528.155 356.261 528.519L356.511 528.52L356.526 525.691L359.856 525.704L359.761 543.545C359.753 545.045 359.398 546.275 358.696 547.234C357.994 548.193 357.047 548.902 355.855 549.359C354.671 549.816 353.336 550.042 351.851 550.036ZM351.87 540.047C352.847 540.051 353.674 539.827 354.351 539.375C355.035 538.916 355.554 538.259 355.907 537.404C356.268 536.542 356.451 535.509 356.458 534.304C356.464 533.13 356.295 532.095 355.951 531.2C355.608 530.305 355.1 529.606 354.428 529.103C353.757 528.593 352.925 528.336 351.932 528.332C350.91 528.327 350.056 528.589 349.371 529.117C348.687 529.637 348.168 530.347 347.815 531.247C347.469 532.147 347.293 533.154 347.287 534.268C347.281 535.411 347.45 536.416 347.794 537.281C348.138 538.146 348.649 538.822 349.329 539.31C350.015 539.797 350.863 540.043 351.87 540.047ZM380.139 543.593C378.449 543.586 376.997 543.197 375.781 542.427C374.573 541.65 373.647 540.582 373.003 539.223C372.358 537.864 372.041 536.31 372.05 534.56C372.06 532.787 372.401 531.224 373.075 529.871C373.749 528.51 374.694 527.449 375.91 526.689C377.126 525.929 378.556 525.552 380.2 525.559C381.526 525.564 382.707 525.815 383.742 526.311C384.777 526.8 385.611 527.486 386.242 528.367C386.882 529.248 387.259 530.276 387.374 531.451L384.067 531.438C383.889 530.619 383.476 529.913 382.828 529.319C382.187 528.726 381.325 528.427 380.242 528.422C379.295 528.419 378.464 528.665 377.749 529.162C377.042 529.652 376.489 530.354 376.09 531.269C375.692 532.177 375.489 533.252 375.482 534.494C375.476 535.767 375.663 536.866 376.044 537.792C376.426 538.718 376.967 539.436 377.669 539.946C378.379 540.457 379.214 540.714 380.177 540.718C380.821 540.72 381.404 540.605 381.928 540.372C382.46 540.132 382.905 539.789 383.264 539.344C383.63 538.898 383.886 538.361 384.033 537.733L387.34 537.746C387.213 538.875 386.84 539.881 386.222 540.765C385.604 541.649 384.778 542.342 383.745 542.846C382.719 543.349 381.517 543.598 380.139 543.593ZM396.022 543.69C394.916 543.686 393.917 543.477 393.025 543.065C392.133 542.644 391.428 542.039 390.91 541.249C390.399 540.459 390.146 539.493 390.152 538.349C390.158 537.364 390.351 536.554 390.733 535.919C391.116 535.284 391.63 534.783 392.276 534.414C392.922 534.045 393.643 533.768 394.439 533.582C395.236 533.395 396.047 533.255 396.873 533.16C397.919 533.043 398.768 532.948 399.42 532.874C400.072 532.794 400.546 532.663 400.843 532.482C401.139 532.302 401.289 532.007 401.291 531.598L401.291 531.518C401.296 530.526 401.02 529.756 400.462 529.208C399.912 528.66 399.088 528.384 397.99 528.38C396.846 528.375 395.943 528.626 395.281 529.13C394.627 529.628 394.173 530.183 393.92 530.795L390.731 530.055C391.115 528.996 391.673 528.143 392.403 527.494C393.142 526.838 393.989 526.364 394.945 526.072C395.901 525.773 396.906 525.626 397.959 525.63C398.656 525.633 399.394 525.719 400.173 525.889C400.96 526.051 401.694 526.349 402.373 526.784C403.06 527.218 403.621 527.838 404.056 528.643C404.492 529.44 404.706 530.475 404.699 531.748L404.637 543.339L401.319 543.325L401.332 540.939L401.196 540.938C400.974 541.377 400.642 541.807 400.2 542.23C399.758 542.652 399.192 543.002 398.501 543.28C397.81 543.557 396.984 543.694 396.022 543.69ZM396.775 540.966C397.714 540.97 398.518 540.787 399.187 540.419C399.863 540.05 400.377 539.568 400.729 538.971C401.088 538.366 401.27 537.719 401.273 537.03L401.285 534.78C401.163 534.9 400.928 535.013 400.579 535.118C400.237 535.215 399.847 535.3 399.407 535.374C398.967 535.441 398.539 535.503 398.122 535.562C397.705 535.614 397.356 535.658 397.076 535.695C396.416 535.775 395.813 535.913 395.267 536.108C394.728 536.303 394.294 536.585 393.967 536.955C393.647 537.317 393.485 537.801 393.482 538.407C393.477 539.248 393.784 539.886 394.403 540.32C395.022 540.747 395.813 540.962 396.775 540.966ZM409.163 543.357L409.256 525.902L412.517 525.916L412.502 528.756L412.718 528.757C413.087 527.797 413.685 527.049 414.514 526.514C415.343 525.972 416.333 525.704 417.484 525.708C418.651 525.713 419.627 525.989 420.412 526.538C421.204 527.087 421.787 527.839 422.161 528.795L422.343 528.796C422.764 527.866 423.431 527.126 424.343 526.577C425.255 526.02 426.34 525.744 427.598 525.749C429.181 525.755 430.47 526.256 431.465 527.253C432.467 528.249 432.963 529.748 432.952 531.748L432.89 543.452L429.492 543.438L429.553 532.052C429.559 530.87 429.242 530.013 428.601 529.48C427.959 528.947 427.192 528.679 426.298 528.675C425.192 528.671 424.33 529.008 423.713 529.688C423.096 530.359 422.784 531.226 422.779 532.286L422.72 543.411L419.333 543.398L419.395 531.795C419.4 530.848 419.109 530.086 418.521 529.508C417.933 528.93 417.166 528.639 416.219 528.635C415.575 528.632 414.979 528.8 414.432 529.139C413.892 529.47 413.454 529.934 413.118 530.532C412.789 531.129 412.622 531.821 412.618 532.609L412.561 543.37L409.163 543.357ZM437.409 550.016L437.537 526.016L440.855 526.029L440.84 528.859L441.124 528.86C441.323 528.497 441.609 528.078 441.983 527.602C442.357 527.126 442.874 526.712 443.535 526.358C444.196 525.997 445.068 525.819 446.152 525.823C447.561 525.829 448.816 526.19 449.919 526.906C451.021 527.623 451.883 528.653 452.504 529.996C453.134 531.34 453.443 532.955 453.433 534.841C453.423 536.727 453.1 538.344 452.464 539.689C451.828 541.028 450.959 542.058 449.857 542.781C448.755 543.497 447.499 543.851 446.09 543.846C445.029 543.842 444.163 543.66 443.49 543.301C442.826 542.943 442.305 542.524 441.929 542.045C441.553 541.566 441.263 541.141 441.061 540.769L440.856 540.768L440.807 550.029L437.409 550.016ZM440.82 534.756C440.813 535.984 440.986 537.06 441.337 537.986C441.688 538.911 442.199 539.637 442.871 540.162C443.542 540.68 444.367 540.941 445.344 540.945C446.359 540.949 447.209 540.684 447.894 540.148C448.578 539.606 449.097 538.869 449.451 537.939C449.812 537.008 449.995 535.96 450.002 534.793C450.008 533.642 449.839 532.607 449.495 531.689C449.159 530.771 448.648 530.045 447.961 529.512C447.282 528.979 446.432 528.711 445.409 528.707C444.424 528.703 443.589 528.953 442.905 529.458C442.228 529.963 441.713 530.669 441.36 531.577C441.006 532.484 440.826 533.544 440.82 534.756ZM462.271 543.956C461.165 543.952 460.166 543.743 459.275 543.33C458.383 542.91 457.678 542.305 457.159 541.515C456.648 540.725 456.396 539.758 456.402 538.614C456.407 537.63 456.601 536.82 456.983 536.185C457.365 535.55 457.879 535.048 458.525 534.68C459.171 534.311 459.892 534.034 460.689 533.847C461.485 533.661 462.296 533.521 463.123 533.425C464.169 533.308 465.018 533.213 465.67 533.14C466.322 533.059 466.796 532.929 467.092 532.748C467.389 532.567 467.538 532.273 467.54 531.864L467.541 531.784C467.546 530.792 467.27 530.022 466.712 529.474C466.162 528.926 465.338 528.65 464.239 528.646C463.095 528.641 462.192 528.891 461.53 529.396C460.876 529.894 460.423 530.449 460.169 531.061L456.98 530.321C457.364 529.262 457.922 528.408 458.653 527.76C459.391 527.104 460.238 526.63 461.194 526.338C462.151 526.039 463.155 525.891 464.208 525.896C464.905 525.898 465.643 525.985 466.423 526.154C467.21 526.317 467.943 526.615 468.623 527.05C469.31 527.484 469.871 528.104 470.306 528.909C470.741 529.706 470.955 530.741 470.948 532.014L470.887 543.604L467.569 543.591L467.581 541.205L467.445 541.204C467.223 541.643 466.891 542.073 466.45 542.496C466.008 542.918 465.442 543.268 464.751 543.546C464.06 543.823 463.233 543.96 462.271 543.956ZM463.024 541.232C463.964 541.236 464.768 541.053 465.436 540.685C466.113 540.316 466.627 539.833 466.978 539.236C467.338 538.632 467.519 537.985 467.523 537.295L467.535 535.045C467.413 535.166 467.177 535.279 466.828 535.383C466.487 535.481 466.096 535.566 465.656 535.64C465.217 535.707 464.788 535.769 464.371 535.828C463.954 535.879 463.606 535.924 463.325 535.96C462.666 536.041 462.063 536.179 461.516 536.373C460.977 536.568 460.544 536.851 460.216 537.221C459.896 537.583 459.734 538.067 459.731 538.673C459.727 539.514 460.034 540.152 460.653 540.586C461.272 541.013 462.062 541.228 463.024 541.232ZM475.412 543.622L475.505 526.168L478.903 526.182L478.81 543.636L475.412 543.622ZM477.235 523.482C476.644 523.48 476.138 523.281 475.716 522.885C475.301 522.482 475.095 522.004 475.098 521.451C475.101 520.89 475.312 520.414 475.731 520.021C476.157 519.621 476.666 519.423 477.257 519.425C477.848 519.428 478.351 519.63 478.765 520.033C479.187 520.429 479.397 520.907 479.394 521.468C479.391 522.021 479.176 522.497 478.75 522.897C478.331 523.289 477.826 523.484 477.235 523.482ZM490.663 550.593C489.276 550.587 488.084 550.401 487.086 550.033C486.095 549.665 485.287 549.181 484.662 548.58C484.036 547.979 483.57 547.322 483.263 546.609L486.19 545.416C486.393 545.75 486.664 546.103 487.003 546.476C487.349 546.856 487.817 547.18 488.406 547.447C489.004 547.715 489.772 547.851 490.711 547.854C491.999 547.859 493.065 547.549 493.909 546.924C494.754 546.306 495.179 545.315 495.187 543.952L495.205 540.52L494.989 540.519C494.782 540.89 494.485 541.301 494.096 541.754C493.715 542.207 493.19 542.599 492.521 542.93C491.853 543.26 490.985 543.424 489.917 543.419C488.538 543.414 487.297 543.087 486.194 542.438C485.099 541.783 484.233 540.821 483.596 539.553C482.967 538.278 482.657 536.712 482.667 534.856C482.676 533 482.999 531.41 483.635 530.087C484.278 528.764 485.155 527.752 486.265 527.052C487.375 526.345 488.63 525.994 490.032 525.999C491.115 526.004 491.989 526.189 492.654 526.555C493.319 526.914 493.835 527.333 494.204 527.811C494.58 528.29 494.87 528.712 495.072 529.076L495.322 529.077L495.337 526.248L498.667 526.261L498.572 544.102C498.564 545.602 498.209 546.831 497.507 547.791C496.805 548.75 495.858 549.458 494.666 549.916C493.482 550.373 492.147 550.599 490.663 550.593ZM490.682 540.604C491.659 540.608 492.486 540.384 493.162 539.932C493.847 539.473 494.365 538.816 494.718 537.961C495.079 537.099 495.263 536.066 495.269 534.861C495.275 533.687 495.106 532.652 494.763 531.757C494.419 530.861 493.911 530.162 493.24 529.66C492.568 529.15 491.736 528.892 490.744 528.888C489.721 528.884 488.867 529.146 488.183 529.674C487.498 530.194 486.979 530.904 486.626 531.804C486.28 532.704 486.104 533.711 486.099 534.824C486.092 535.968 486.261 536.973 486.605 537.838C486.949 538.703 487.461 539.379 488.14 539.867C488.827 540.354 489.674 540.6 490.682 540.604ZM506.584 533.384L506.529 543.747L503.131 543.734L503.224 526.279L506.485 526.292L506.47 529.133L506.686 529.134C507.092 528.212 507.725 527.472 508.584 526.915C509.451 526.357 510.539 526.081 511.85 526.087C513.039 526.091 514.08 526.346 514.971 526.849C515.862 527.345 516.551 528.083 517.039 529.062C517.526 530.041 517.766 531.251 517.758 532.69L517.699 543.792L514.301 543.778L514.358 533.085C514.365 531.82 514.041 530.83 513.385 530.116C512.73 529.393 511.827 529.03 510.675 529.025C509.887 529.022 509.186 529.19 508.57 529.528C507.962 529.867 507.479 530.365 507.119 531.022C506.767 531.672 506.589 532.46 506.584 533.384Z" fill="#BA1E71"/>
<path d="M93.9207 333.201L93.9606 434.1L94.0006 535" stroke="#BA1E71"/>
</svg>
