<svg width="646" height="627" viewBox="0 0 646 627" fill="none" xmlns="http://www.w3.org/2000/svg">
<path d="M368 335L314 379.167V290.833L368 335Z" fill="#4CC9F0"/>
<path fill-rule="evenodd" clip-rule="evenodd" d="M0.204543 379L54 335L0.204543 291H314V379H0.204543ZM0 379L1.51992e-06 291H0V379Z" fill="#4CC9F0"/>
<path d="M128.523 349V319.909H138.352C140.634 319.909 142.5 320.321 143.949 321.145C145.407 321.959 146.487 323.062 147.188 324.455C147.888 325.847 148.239 327.4 148.239 329.114C148.239 330.828 147.888 332.385 147.188 333.787C146.496 335.188 145.426 336.306 143.977 337.139C142.528 337.963 140.672 338.375 138.409 338.375H131.364V335.25H138.295C139.858 335.25 141.113 334.98 142.06 334.44C143.007 333.901 143.693 333.171 144.119 332.253C144.555 331.325 144.773 330.278 144.773 329.114C144.773 327.949 144.555 326.907 144.119 325.989C143.693 325.07 143.002 324.35 142.045 323.83C141.089 323.299 139.82 323.034 138.239 323.034H132.045V349H128.523ZM156.811 335.875V349H153.459V319.909H156.811V330.591H157.095C157.607 329.464 158.374 328.569 159.396 327.906C160.429 327.234 161.802 326.898 163.516 326.898C165.002 326.898 166.304 327.196 167.422 327.793C168.539 328.38 169.406 329.284 170.021 330.506C170.646 331.718 170.959 333.261 170.959 335.136V349H167.607V335.364C167.607 333.631 167.157 332.291 166.257 331.344C165.367 330.387 164.131 329.909 162.55 329.909C161.451 329.909 160.466 330.141 159.595 330.605C158.733 331.069 158.052 331.746 157.55 332.636C157.057 333.527 156.811 334.606 156.811 335.875ZM183.512 349.511C182.129 349.511 180.875 349.251 179.748 348.73C178.621 348.2 177.726 347.438 177.063 346.443C176.4 345.439 176.069 344.227 176.069 342.807C176.069 341.557 176.315 340.544 176.808 339.767C177.3 338.981 177.958 338.366 178.782 337.92C179.606 337.475 180.515 337.144 181.509 336.926C182.513 336.699 183.522 336.519 184.535 336.386C185.861 336.216 186.935 336.088 187.759 336.003C188.593 335.908 189.199 335.752 189.577 335.534C189.966 335.316 190.16 334.937 190.16 334.398V334.284C190.16 332.883 189.776 331.794 189.009 331.017C188.252 330.241 187.101 329.852 185.558 329.852C183.957 329.852 182.702 330.203 181.793 330.903C180.884 331.604 180.245 332.352 179.876 333.148L176.694 332.011C177.262 330.686 178.02 329.653 178.967 328.915C179.923 328.167 180.965 327.646 182.092 327.352C183.228 327.049 184.345 326.898 185.444 326.898C186.145 326.898 186.95 326.983 187.859 327.153C188.777 327.314 189.663 327.651 190.515 328.162C191.377 328.673 192.092 329.445 192.66 330.477C193.228 331.509 193.512 332.892 193.512 334.625V349H190.16V346.045H189.989C189.762 346.519 189.383 347.026 188.853 347.565C188.323 348.105 187.617 348.564 186.737 348.943C185.856 349.322 184.781 349.511 183.512 349.511ZM184.023 346.5C185.349 346.5 186.467 346.24 187.376 345.719C188.294 345.198 188.986 344.526 189.45 343.702C189.923 342.878 190.16 342.011 190.16 341.102V338.034C190.018 338.205 189.705 338.361 189.222 338.503C188.749 338.635 188.2 338.754 187.575 338.858C186.959 338.953 186.358 339.038 185.771 339.114C185.193 339.18 184.724 339.237 184.364 339.284C183.493 339.398 182.679 339.582 181.921 339.838C181.173 340.084 180.567 340.458 180.103 340.96C179.648 341.453 179.421 342.125 179.421 342.977C179.421 344.142 179.852 345.023 180.714 345.619C181.585 346.206 182.688 346.5 184.023 346.5ZM215.085 332.068L212.074 332.92C211.884 332.419 211.605 331.931 211.236 331.457C210.876 330.974 210.384 330.577 209.759 330.264C209.134 329.952 208.333 329.795 207.358 329.795C206.023 329.795 204.91 330.103 204.02 330.719C203.139 331.325 202.699 332.097 202.699 333.034C202.699 333.867 203.002 334.526 203.608 335.009C204.214 335.491 205.161 335.894 206.449 336.216L209.688 337.011C211.638 337.485 213.092 338.209 214.048 339.185C215.005 340.151 215.483 341.396 215.483 342.92C215.483 344.17 215.123 345.288 214.403 346.273C213.693 347.258 212.699 348.034 211.42 348.602C210.142 349.17 208.655 349.455 206.96 349.455C204.735 349.455 202.893 348.972 201.435 348.006C199.976 347.04 199.053 345.629 198.665 343.773L201.847 342.977C202.15 344.152 202.723 345.032 203.565 345.619C204.418 346.206 205.53 346.5 206.903 346.5C208.466 346.5 209.706 346.169 210.625 345.506C211.553 344.833 212.017 344.028 212.017 343.091C212.017 342.333 211.752 341.699 211.222 341.188C210.691 340.667 209.877 340.278 208.778 340.023L205.142 339.17C203.144 338.697 201.676 337.963 200.739 336.969C199.811 335.965 199.347 334.71 199.347 333.205C199.347 331.973 199.692 330.884 200.384 329.938C201.084 328.991 202.036 328.247 203.239 327.707C204.451 327.168 205.824 326.898 207.358 326.898C209.517 326.898 211.212 327.371 212.443 328.318C213.684 329.265 214.564 330.515 215.085 332.068ZM229.677 349.455C227.575 349.455 225.761 348.991 224.237 348.062C222.721 347.125 221.552 345.818 220.728 344.142C219.914 342.456 219.506 340.496 219.506 338.261C219.506 336.027 219.914 334.057 220.728 332.352C221.552 330.638 222.698 329.303 224.165 328.347C225.643 327.381 227.366 326.898 229.336 326.898C230.472 326.898 231.594 327.087 232.702 327.466C233.81 327.845 234.819 328.46 235.728 329.312C236.637 330.155 237.362 331.273 237.901 332.665C238.441 334.057 238.711 335.771 238.711 337.807V339.227H221.893V336.33H235.302C235.302 335.098 235.056 334 234.563 333.034C234.08 332.068 233.389 331.306 232.489 330.747C231.599 330.188 230.548 329.909 229.336 329.909C228.001 329.909 226.845 330.241 225.87 330.903C224.904 331.557 224.161 332.409 223.64 333.46C223.119 334.511 222.859 335.638 222.859 336.841V338.773C222.859 340.42 223.143 341.817 223.711 342.963C224.289 344.099 225.089 344.966 226.112 345.562C227.134 346.15 228.323 346.443 229.677 346.443C230.558 346.443 231.353 346.32 232.063 346.074C232.783 345.818 233.403 345.439 233.924 344.938C234.445 344.426 234.847 343.792 235.131 343.034L238.37 343.943C238.029 345.042 237.456 346.008 236.651 346.841C235.846 347.665 234.852 348.309 233.668 348.773C232.485 349.227 231.154 349.455 229.677 349.455ZM256.31 334.966V338.091H243.583V334.966H256.31ZM271.513 349.398C269.638 349.398 267.966 349.076 266.499 348.432C265.04 347.788 263.88 346.893 263.018 345.747C262.166 344.592 261.702 343.252 261.626 341.727H265.206C265.282 342.665 265.604 343.474 266.172 344.156C266.74 344.829 267.483 345.349 268.402 345.719C269.321 346.088 270.339 346.273 271.456 346.273C272.706 346.273 273.814 346.055 274.78 345.619C275.746 345.184 276.503 344.578 277.053 343.801C277.602 343.025 277.876 342.125 277.876 341.102C277.876 340.032 277.611 339.09 277.081 338.276C276.551 337.452 275.774 336.808 274.751 336.344C273.729 335.88 272.479 335.648 271.001 335.648H268.672V332.523H271.001C272.157 332.523 273.17 332.314 274.041 331.898C274.922 331.481 275.608 330.894 276.101 330.136C276.603 329.379 276.854 328.489 276.854 327.466C276.854 326.481 276.636 325.624 276.2 324.895C275.765 324.166 275.149 323.598 274.354 323.19C273.568 322.783 272.64 322.58 271.57 322.58C270.566 322.58 269.619 322.764 268.729 323.134C267.848 323.493 267.128 324.019 266.57 324.71C266.011 325.392 265.708 326.216 265.661 327.182H262.251C262.308 325.657 262.768 324.322 263.629 323.176C264.491 322.021 265.618 321.121 267.01 320.477C268.411 319.833 269.95 319.511 271.626 319.511C273.426 319.511 274.969 319.876 276.257 320.605C277.545 321.325 278.535 322.277 279.226 323.46C279.917 324.644 280.263 325.922 280.263 327.295C280.263 328.934 279.832 330.33 278.97 331.486C278.118 332.641 276.958 333.441 275.49 333.886V334.114C277.327 334.417 278.762 335.198 279.794 336.457C280.826 337.707 281.342 339.256 281.342 341.102C281.342 342.684 280.911 344.104 280.05 345.364C279.197 346.614 278.033 347.598 276.555 348.318C275.078 349.038 273.397 349.398 271.513 349.398Z" fill="black"/>
<circle cx="93.5" cy="335.5" r="8.5" fill="#D9D9D9"/>
<path d="M93.2136 26.7273C92.2969 26.7273 91.4598 26.5038 90.7022 26.0568C89.9447 25.6023 89.3386 24.9962 88.8841 24.2386C88.4371 23.4811 88.2136 22.6439 88.2136 21.7273C88.2136 20.803 88.4371 19.9659 88.8841 19.2159C89.3386 18.4583 89.9447 17.8561 90.7022 17.4091C91.4598 16.9545 92.2969 16.7273 93.2136 16.7273C94.1378 16.7273 94.975 16.9545 95.725 17.4091C96.4825 17.8561 97.0848 18.4583 97.5318 19.2159C97.9863 19.9659 98.2136 20.803 98.2136 21.7273C98.2136 22.6439 97.9863 23.4811 97.5318 24.2386C97.0848 24.9962 96.4825 25.6023 95.725 26.0568C94.975 26.5038 94.1378 26.7273 93.2136 26.7273ZM132.455 13.8409C132.334 12.7652 131.834 11.9318 130.955 11.3409C130.076 10.7424 128.97 10.4432 127.637 10.4432C126.682 10.4432 125.857 10.5947 125.16 10.8977C124.463 11.1932 123.921 11.6023 123.535 12.125C123.156 12.6402 122.966 13.2273 122.966 13.8864C122.966 14.4394 123.095 14.9167 123.353 15.3182C123.618 15.7197 123.963 16.0568 124.387 16.3295C124.819 16.5947 125.281 16.8182 125.773 17C126.266 17.1742 126.739 17.3182 127.194 17.4318L129.466 18.0227C130.209 18.2045 130.97 18.4508 131.751 18.7614C132.531 19.072 133.254 19.4811 133.921 19.9886C134.588 20.4962 135.126 21.125 135.535 21.875C135.951 22.625 136.16 23.5227 136.16 24.5682C136.16 25.8864 135.819 27.0568 135.137 28.0795C134.463 29.1023 133.482 29.9091 132.194 30.5C130.913 31.0909 129.364 31.3864 127.546 31.3864C125.804 31.3864 124.296 31.1098 123.023 30.5568C121.751 30.0038 120.754 29.2197 120.035 28.2045C119.315 27.1818 118.917 25.9697 118.841 24.5682H122.364C122.432 25.4091 122.705 26.1098 123.182 26.6705C123.667 27.2235 124.285 27.6364 125.035 27.9091C125.792 28.1742 126.622 28.3068 127.523 28.3068C128.516 28.3068 129.398 28.1515 130.171 27.8409C130.951 27.5227 131.565 27.0833 132.012 26.5227C132.459 25.9545 132.682 25.2917 132.682 24.5341C132.682 23.8447 132.485 23.2803 132.091 22.8409C131.705 22.4015 131.179 22.0379 130.512 21.75C129.853 21.4621 129.107 21.2083 128.273 20.9886L125.523 20.2386C123.66 19.7311 122.182 18.9848 121.091 18C120.008 17.0152 119.466 15.7121 119.466 14.0909C119.466 12.75 119.83 11.5795 120.557 10.5795C121.285 9.57954 122.269 8.80303 123.512 8.25C124.754 7.68939 126.156 7.40909 127.716 7.40909C129.292 7.40909 130.682 7.68561 131.887 8.23864C133.099 8.79167 134.054 9.55303 134.751 10.5227C135.448 11.4848 135.811 12.5909 135.841 13.8409H132.455ZM148.231 13.5455V16.2727H138.697V13.5455H148.231ZM141.253 9.36364H144.651V25.875C144.651 26.5341 144.75 27.0303 144.947 27.3636C145.144 27.6894 145.397 27.9129 145.708 28.0341C146.026 28.1477 146.371 28.2045 146.742 28.2045C147.015 28.2045 147.253 28.1856 147.458 28.1477C147.662 28.1098 147.822 28.0795 147.935 28.0568L148.549 30.8636C148.352 30.9394 148.072 31.0152 147.708 31.0909C147.344 31.1742 146.89 31.2197 146.344 31.2273C145.45 31.2424 144.617 31.0833 143.844 30.75C143.072 30.4167 142.447 29.9015 141.969 29.2045C141.492 28.5076 141.253 27.6326 141.253 26.5795V9.36364ZM157.069 31.3864C155.963 31.3864 154.963 31.1818 154.069 30.7727C153.175 30.3561 152.466 29.7538 151.944 28.9659C151.429 28.178 151.171 27.2121 151.171 26.0682C151.171 25.0833 151.36 24.2727 151.739 23.6364C152.118 23 152.629 22.4962 153.273 22.125C153.917 21.7538 154.637 21.4735 155.432 21.2841C156.228 21.0947 157.038 20.9508 157.864 20.8523C158.91 20.7311 159.758 20.6326 160.41 20.5568C161.061 20.4735 161.535 20.3409 161.83 20.1591C162.126 19.9773 162.273 19.6818 162.273 19.2727V19.1932C162.273 18.2008 161.993 17.4318 161.432 16.8864C160.879 16.3409 160.054 16.0682 158.955 16.0682C157.811 16.0682 156.91 16.322 156.251 16.8295C155.599 17.3295 155.148 17.8864 154.898 18.5L151.705 17.7727C152.084 16.7121 152.637 15.8561 153.364 15.2045C154.099 14.5455 154.944 14.0682 155.898 13.7727C156.853 13.4697 157.857 13.3182 158.91 13.3182C159.607 13.3182 160.345 13.4015 161.126 13.5682C161.913 13.7273 162.648 14.0227 163.33 14.4545C164.019 14.8864 164.584 15.5038 165.023 16.3068C165.463 17.1023 165.682 18.1364 165.682 19.4091V31H162.364V28.6136H162.228C162.008 29.053 161.679 29.4848 161.239 29.9091C160.8 30.3333 160.235 30.6856 159.546 30.9659C158.857 31.2462 158.031 31.3864 157.069 31.3864ZM157.807 28.6591C158.747 28.6591 159.55 28.4735 160.216 28.1023C160.891 27.7311 161.402 27.2462 161.751 26.6477C162.107 26.0417 162.285 25.3939 162.285 24.7045V22.4545C162.163 22.5758 161.929 22.6894 161.58 22.7955C161.239 22.8939 160.849 22.9811 160.41 23.0568C159.97 23.125 159.542 23.1894 159.126 23.25C158.709 23.303 158.36 23.3485 158.08 23.3864C157.421 23.4697 156.819 23.6098 156.273 23.8068C155.735 24.0038 155.304 24.2879 154.978 24.6591C154.66 25.0227 154.501 25.5076 154.501 26.1136C154.501 26.9545 154.811 27.5909 155.432 28.0227C156.054 28.447 156.845 28.6591 157.807 28.6591ZM173.333 25.0795L173.31 20.9318H173.901L180.856 13.5455H184.924L176.992 21.9545H176.458L173.333 25.0795ZM170.208 31V7.72727H173.606V31H170.208ZM181.231 31L174.981 22.7045L177.322 20.3295L185.401 31H181.231ZM188.02 31V13.5455H191.418V31H188.02ZM189.736 10.8523C189.145 10.8523 188.638 10.6553 188.214 10.2614C187.797 9.85985 187.589 9.38257 187.589 8.82954C187.589 8.26894 187.797 7.79167 188.214 7.39773C188.638 6.99621 189.145 6.79545 189.736 6.79545C190.327 6.79545 190.831 6.99621 191.248 7.39773C191.672 7.79167 191.884 8.26894 191.884 8.82954C191.884 9.38257 191.672 9.85985 191.248 10.2614C190.831 10.6553 190.327 10.8523 189.736 10.8523ZM199.387 20.6364V31H195.989V13.5455H199.251V16.3864H199.466C199.868 15.4621 200.497 14.7197 201.353 14.1591C202.216 13.5985 203.304 13.3182 204.614 13.3182C205.804 13.3182 206.845 13.5682 207.739 14.0682C208.633 14.5606 209.326 15.2955 209.819 16.2727C210.311 17.25 210.557 18.4583 210.557 19.8977V31H207.16V20.3068C207.16 19.0417 206.83 18.053 206.171 17.3409C205.512 16.6212 204.607 16.2614 203.455 16.2614C202.667 16.2614 201.966 16.4318 201.353 16.7727C200.747 17.1136 200.266 17.6136 199.91 18.2727C199.561 18.9242 199.387 19.7121 199.387 20.6364ZM222.432 37.9091C221.046 37.9091 219.853 37.7273 218.853 37.3636C217.86 37 217.05 36.5189 216.421 35.9205C215.792 35.322 215.323 34.6667 215.012 33.9545L217.932 32.75C218.137 33.0833 218.41 33.4356 218.751 33.8068C219.099 34.1856 219.569 34.5076 220.16 34.7727C220.758 35.0379 221.527 35.1705 222.466 35.1705C223.754 35.1705 224.819 34.8561 225.66 34.2273C226.501 33.6061 226.921 32.6136 226.921 31.25V27.8182H226.705C226.501 28.1894 226.205 28.6023 225.819 29.0568C225.44 29.5114 224.917 29.9053 224.251 30.2386C223.584 30.572 222.716 30.7386 221.648 30.7386C220.269 30.7386 219.027 30.4167 217.921 29.7727C216.823 29.1212 215.951 28.1629 215.307 26.8977C214.671 25.625 214.353 24.0606 214.353 22.2045C214.353 20.3485 214.667 18.7576 215.296 17.4318C215.932 16.1061 216.804 15.0909 217.91 14.3864C219.016 13.6742 220.269 13.3182 221.671 13.3182C222.754 13.3182 223.629 13.5 224.296 13.8636C224.963 14.2197 225.482 14.6364 225.853 15.1136C226.232 15.5909 226.523 16.0114 226.728 16.375H226.978V13.5455H230.307V31.3864C230.307 32.8864 229.959 34.1174 229.262 35.0795C228.565 36.0417 227.622 36.7538 226.432 37.2159C225.251 37.678 223.917 37.9091 222.432 37.9091ZM222.398 27.9205C223.376 27.9205 224.201 27.6932 224.876 27.2386C225.557 26.7765 226.073 26.1174 226.421 25.2614C226.777 24.3977 226.955 23.3636 226.955 22.1591C226.955 20.9848 226.781 19.9508 226.432 19.0568C226.084 18.1629 225.573 17.4659 224.898 16.9659C224.224 16.4583 223.391 16.2045 222.398 16.2045C221.376 16.2045 220.523 16.4697 219.841 17C219.16 17.5227 218.644 18.2348 218.296 19.1364C217.955 20.0379 217.785 21.0455 217.785 22.1591C217.785 23.303 217.959 24.3068 218.307 25.1705C218.656 26.0341 219.171 26.7083 219.853 27.1932C220.542 27.678 221.391 27.9205 222.398 27.9205ZM243.333 37.5455V13.5455H246.651V16.375H246.935C247.132 16.0114 247.416 15.5909 247.787 15.1136C248.159 14.6364 248.674 14.2197 249.333 13.8636C249.992 13.5 250.863 13.3182 251.947 13.3182C253.356 13.3182 254.613 13.6742 255.719 14.3864C256.825 15.0985 257.693 16.125 258.322 17.4659C258.958 18.8068 259.276 20.4205 259.276 22.3068C259.276 24.1932 258.962 25.8106 258.333 27.1591C257.704 28.5 256.84 29.5341 255.742 30.2614C254.644 30.9811 253.39 31.3409 251.981 31.3409C250.92 31.3409 250.053 31.1629 249.378 30.8068C248.712 30.4508 248.189 30.0341 247.81 29.5568C247.431 29.0795 247.14 28.6553 246.935 28.2841H246.731V37.5455H243.333ZM246.662 22.2727C246.662 23.5 246.84 24.5758 247.197 25.5C247.553 26.4242 248.068 27.1477 248.742 27.6705C249.416 28.1856 250.242 28.4432 251.219 28.4432C252.234 28.4432 253.083 28.1742 253.765 27.6364C254.447 27.0909 254.962 26.3523 255.31 25.4205C255.666 24.4886 255.844 23.4394 255.844 22.2727C255.844 21.1212 255.67 20.0871 255.322 19.1705C254.981 18.2538 254.465 17.5303 253.776 17C253.094 16.4697 252.242 16.2045 251.219 16.2045C250.234 16.2045 249.401 16.4583 248.719 16.9659C248.045 17.4735 247.534 18.1818 247.185 19.0909C246.837 20 246.662 21.0606 246.662 22.2727ZM270.435 31.3523C268.799 31.3523 267.371 30.9773 266.151 30.2273C264.931 29.4773 263.984 28.428 263.31 27.0795C262.636 25.7311 262.299 24.1553 262.299 22.3523C262.299 20.5417 262.636 18.9583 263.31 17.6023C263.984 16.2462 264.931 15.1932 266.151 14.4432C267.371 13.6932 268.799 13.3182 270.435 13.3182C272.072 13.3182 273.5 13.6932 274.719 14.4432C275.939 15.1932 276.886 16.2462 277.56 17.6023C278.234 18.9583 278.572 20.5417 278.572 22.3523C278.572 24.1553 278.234 25.7311 277.56 27.0795C276.886 28.428 275.939 29.4773 274.719 30.2273C273.5 30.9773 272.072 31.3523 270.435 31.3523ZM270.447 28.5C271.507 28.5 272.386 28.2197 273.083 27.6591C273.78 27.0985 274.295 26.3523 274.628 25.4205C274.969 24.4886 275.14 23.4621 275.14 22.3409C275.14 21.2273 274.969 20.2045 274.628 19.2727C274.295 18.3333 273.78 17.5795 273.083 17.0114C272.386 16.4432 271.507 16.1591 270.447 16.1591C269.378 16.1591 268.492 16.4432 267.787 17.0114C267.09 17.5795 266.572 18.3333 266.231 19.2727C265.897 20.2045 265.731 21.2273 265.731 22.3409C265.731 23.4621 265.897 24.4886 266.231 25.4205C266.572 26.3523 267.09 27.0985 267.787 27.6591C268.492 28.2197 269.378 28.5 270.447 28.5ZM289.716 31.3523C288.08 31.3523 286.652 30.9773 285.432 30.2273C284.213 29.4773 283.266 28.428 282.591 27.0795C281.917 25.7311 281.58 24.1553 281.58 22.3523C281.58 20.5417 281.917 18.9583 282.591 17.6023C283.266 16.2462 284.213 15.1932 285.432 14.4432C286.652 13.6932 288.08 13.3182 289.716 13.3182C291.353 13.3182 292.781 13.6932 294.001 14.4432C295.22 15.1932 296.167 16.2462 296.841 17.6023C297.516 18.9583 297.853 20.5417 297.853 22.3523C297.853 24.1553 297.516 25.7311 296.841 27.0795C296.167 28.428 295.22 29.4773 294.001 30.2273C292.781 30.9773 291.353 31.3523 289.716 31.3523ZM289.728 28.5C290.788 28.5 291.667 28.2197 292.364 27.6591C293.061 27.0985 293.576 26.3523 293.91 25.4205C294.251 24.4886 294.421 23.4621 294.421 22.3409C294.421 21.2273 294.251 20.2045 293.91 19.2727C293.576 18.3333 293.061 17.5795 292.364 17.0114C291.667 16.4432 290.788 16.1591 289.728 16.1591C288.66 16.1591 287.773 16.4432 287.069 17.0114C286.372 17.5795 285.853 18.3333 285.512 19.2727C285.179 20.2045 285.012 21.2273 285.012 22.3409C285.012 23.4621 285.179 24.4886 285.512 25.4205C285.853 26.3523 286.372 27.0985 287.069 27.6591C287.773 28.2197 288.66 28.5 289.728 28.5ZM305.043 7.72727V31H301.645V7.72727H305.043ZM93.2136 65.7273C92.2969 65.7273 91.4598 65.5038 90.7022 65.0568C89.9447 64.6023 89.3386 63.9962 88.8841 63.2386C88.4371 62.4811 88.2136 61.6439 88.2136 60.7273C88.2136 59.803 88.4371 58.9659 88.8841 58.2159C89.3386 57.4583 89.9447 56.8561 90.7022 56.4091C91.4598 55.9545 92.2969 55.7273 93.2136 55.7273C94.1378 55.7273 94.975 55.9545 95.725 56.4091C96.4825 56.8561 97.0848 57.4583 97.5318 58.2159C97.9863 58.9659 98.2136 59.803 98.2136 60.7273C98.2136 61.6439 97.9863 62.4811 97.5318 63.2386C97.0848 63.9962 96.4825 64.6023 95.725 65.0568C94.975 65.5038 94.1378 65.7273 93.2136 65.7273ZM128.231 70V46.7273H131.742V66.9773H142.287V70H128.231ZM146.02 70V52.5455H149.418V70H146.02ZM147.736 49.8523C147.145 49.8523 146.638 49.6553 146.214 49.2614C145.797 48.8598 145.589 48.3826 145.589 47.8295C145.589 47.2689 145.797 46.7917 146.214 46.3977C146.638 45.9962 147.145 45.7955 147.736 45.7955C148.327 45.7955 148.831 45.9962 149.248 46.3977C149.672 46.7917 149.884 47.2689 149.884 47.8295C149.884 48.3826 149.672 48.8598 149.248 49.2614C148.831 49.6553 148.327 49.8523 147.736 49.8523ZM165.773 76.5455V67.2841H165.569C165.364 67.6553 165.069 68.0795 164.682 68.5568C164.304 69.0341 163.781 69.4508 163.114 69.8068C162.448 70.1629 161.584 70.3409 160.523 70.3409C159.114 70.3409 157.857 69.9811 156.751 69.2614C155.652 68.5341 154.788 67.5 154.16 66.1591C153.538 64.8106 153.228 63.1932 153.228 61.3068C153.228 59.4205 153.542 57.8068 154.171 56.4659C154.807 55.125 155.679 54.0985 156.785 53.3864C157.891 52.6742 159.144 52.3182 160.546 52.3182C161.629 52.3182 162.501 52.5 163.16 52.8636C163.826 53.2197 164.341 53.6364 164.705 54.1136C165.076 54.5909 165.364 55.0114 165.569 55.375H165.853V52.5455H169.171V76.5455H165.773ZM161.273 67.4432C162.251 67.4432 163.076 67.1856 163.751 66.6705C164.432 66.1477 164.948 65.4242 165.296 64.5C165.652 63.5758 165.83 62.5 165.83 61.2727C165.83 60.0606 165.656 59 165.307 58.0909C164.959 57.1818 164.448 56.4735 163.773 55.9659C163.099 55.4583 162.266 55.2045 161.273 55.2045C160.251 55.2045 159.398 55.4697 158.716 56C158.035 56.5303 157.519 57.2538 157.171 58.1705C156.83 59.0871 156.66 60.1212 156.66 61.2727C156.66 62.4394 156.834 63.4886 157.182 64.4205C157.531 65.3523 158.046 66.0909 158.728 66.6364C159.417 67.1742 160.266 67.4432 161.273 67.4432ZM184.796 62.7614V52.5455H188.205V70H184.864V66.9773H184.682C184.281 67.9091 183.637 68.6856 182.751 69.3068C181.872 69.9205 180.777 70.2273 179.466 70.2273C178.345 70.2273 177.353 69.9811 176.489 69.4886C175.633 68.9886 174.959 68.25 174.466 67.2727C173.982 66.2955 173.739 65.0871 173.739 63.6477V52.5455H177.137V63.2386C177.137 64.428 177.466 65.375 178.126 66.0795C178.785 66.7841 179.641 67.1364 180.694 67.1364C181.33 67.1364 181.963 66.9773 182.591 66.6591C183.228 66.3409 183.754 65.8598 184.171 65.2159C184.595 64.572 184.804 63.7538 184.796 62.7614ZM192.77 70V52.5455H196.168V70H192.77ZM194.486 49.8523C193.895 49.8523 193.388 49.6553 192.964 49.2614C192.547 48.8598 192.339 48.3826 192.339 47.8295C192.339 47.2689 192.547 46.7917 192.964 46.3977C193.388 45.9962 193.895 45.7955 194.486 45.7955C195.077 45.7955 195.581 45.9962 195.998 46.3977C196.422 46.7917 196.634 47.2689 196.634 47.8295C196.634 48.3826 196.422 48.8598 195.998 49.2614C195.581 49.6553 195.077 49.8523 194.486 49.8523ZM207.273 70.3409C205.864 70.3409 204.607 69.9811 203.501 69.2614C202.402 68.5341 201.538 67.5 200.91 66.1591C200.288 64.8106 199.978 63.1932 199.978 61.3068C199.978 59.4205 200.292 57.8068 200.921 56.4659C201.557 55.125 202.429 54.0985 203.535 53.3864C204.641 52.6742 205.894 52.3182 207.296 52.3182C208.379 52.3182 209.251 52.5 209.91 52.8636C210.576 53.2197 211.091 53.6364 211.455 54.1136C211.826 54.5909 212.114 55.0114 212.319 55.375H212.523V46.7273H215.921V70H212.603V67.2841H212.319C212.114 67.6553 211.819 68.0795 211.432 68.5568C211.054 69.0341 210.531 69.4508 209.864 69.8068C209.198 70.1629 208.334 70.3409 207.273 70.3409ZM208.023 67.4432C209.001 67.4432 209.826 67.1856 210.501 66.6705C211.182 66.1477 211.698 65.4242 212.046 64.5C212.402 63.5758 212.58 62.5 212.58 61.2727C212.58 60.0606 212.406 59 212.057 58.0909C211.709 57.1818 211.198 56.4735 210.523 55.9659C209.849 55.4583 209.016 55.2045 208.023 55.2045C207.001 55.2045 206.148 55.4697 205.466 56C204.785 56.5303 204.269 57.2538 203.921 58.1705C203.58 59.0871 203.41 60.1212 203.41 61.2727C203.41 62.4394 203.584 63.4886 203.932 64.4205C204.281 65.3523 204.796 66.0909 205.478 66.6364C206.167 67.1742 207.016 67.4432 208.023 67.4432ZM220.77 70V52.5455H224.168V70H220.77ZM222.486 49.8523C221.895 49.8523 221.388 49.6553 220.964 49.2614C220.547 48.8598 220.339 48.3826 220.339 47.8295C220.339 47.2689 220.547 46.7917 220.964 46.3977C221.388 45.9962 221.895 45.7955 222.486 45.7955C223.077 45.7955 223.581 45.9962 223.998 46.3977C224.422 46.7917 224.634 47.2689 224.634 47.8295C224.634 48.3826 224.422 48.8598 223.998 49.2614C223.581 49.6553 223.077 49.8523 222.486 49.8523ZM236.887 52.5455V55.2727H227.353V52.5455H236.887ZM229.91 48.3636H233.307V64.875C233.307 65.5341 233.406 66.0303 233.603 66.3636C233.8 66.6894 234.054 66.9129 234.364 67.0341C234.682 67.1477 235.027 67.2045 235.398 67.2045C235.671 67.2045 235.91 67.1856 236.114 67.1477C236.319 67.1098 236.478 67.0795 236.591 67.0568L237.205 69.8636C237.008 69.9394 236.728 70.0152 236.364 70.0909C236.001 70.1742 235.546 70.2197 235.001 70.2273C234.107 70.2424 233.273 70.0833 232.501 69.75C231.728 69.4167 231.103 68.9015 230.626 68.2045C230.148 67.5076 229.91 66.6326 229.91 65.5795V48.3636ZM242.793 76.5455C242.286 76.5455 241.823 76.5038 241.407 76.4205C240.99 76.3447 240.68 76.2614 240.475 76.1705L241.293 73.3864C241.914 73.553 242.467 73.625 242.952 73.6023C243.437 73.5795 243.865 73.3977 244.236 73.0568C244.615 72.7159 244.948 72.1591 245.236 71.3864L245.657 70.2273L239.27 52.5455H242.907L247.327 66.0909H247.509L251.93 52.5455H255.577L248.384 72.3295C248.051 73.2386 247.626 74.0076 247.111 74.6364C246.596 75.2727 245.983 75.75 245.27 76.0682C244.558 76.3864 243.733 76.5455 242.793 76.5455ZM275.546 52.5455V55.2727H265.682V52.5455H275.546ZM268.387 70V50.5227C268.387 49.4318 268.626 48.5265 269.103 47.8068C269.58 47.0795 270.213 46.5379 271.001 46.1818C271.788 45.8182 272.644 45.6364 273.569 45.6364C274.251 45.6364 274.834 45.6932 275.319 45.8068C275.804 45.9129 276.163 46.0114 276.398 46.1023L275.603 48.8523C275.444 48.8068 275.239 48.7538 274.989 48.6932C274.739 48.625 274.436 48.5909 274.08 48.5909C273.254 48.5909 272.663 48.7955 272.307 49.2045C271.959 49.6136 271.785 50.2045 271.785 50.9773V70H268.387ZM283.6 70.3864C282.494 70.3864 281.494 70.1818 280.6 69.7727C279.706 69.3561 278.998 68.7538 278.475 67.9659C277.96 67.178 277.702 66.2121 277.702 65.0682C277.702 64.0833 277.892 63.2727 278.27 62.6364C278.649 62 279.161 61.4962 279.805 61.125C280.448 60.7538 281.168 60.4735 281.964 60.2841C282.759 60.0947 283.57 59.9508 284.395 59.8523C285.441 59.7311 286.289 59.6326 286.941 59.5568C287.592 59.4735 288.066 59.3409 288.361 59.1591C288.657 58.9773 288.805 58.6818 288.805 58.2727V58.1932C288.805 57.2008 288.524 56.4318 287.964 55.8864C287.411 55.3409 286.585 55.0682 285.486 55.0682C284.342 55.0682 283.441 55.322 282.782 55.8295C282.13 56.3295 281.68 56.8864 281.43 57.5L278.236 56.7727C278.615 55.7121 279.168 54.8561 279.895 54.2045C280.63 53.5455 281.475 53.0682 282.43 52.7727C283.384 52.4697 284.388 52.3182 285.441 52.3182C286.138 52.3182 286.876 52.4015 287.657 52.5682C288.445 52.7273 289.18 53.0227 289.861 53.4545C290.551 53.8864 291.115 54.5038 291.555 55.3068C291.994 56.1023 292.214 57.1364 292.214 58.4091V70H288.895V67.6136H288.759C288.539 68.053 288.21 68.4848 287.77 68.9091C287.331 69.3333 286.767 69.6856 286.077 69.9659C285.388 70.2462 284.562 70.3864 283.6 70.3864ZM284.339 67.6591C285.278 67.6591 286.081 67.4735 286.748 67.1023C287.422 66.7311 287.933 66.2462 288.282 65.6477C288.638 65.0417 288.816 64.3939 288.816 63.7045V61.4545C288.695 61.5758 288.46 61.6894 288.111 61.7955C287.77 61.8939 287.38 61.9811 286.941 62.0568C286.501 62.125 286.073 62.1894 285.657 62.25C285.24 62.303 284.892 62.3485 284.611 62.3864C283.952 62.4697 283.35 62.6098 282.805 62.8068C282.267 63.0038 281.835 63.2879 281.509 63.6591C281.191 64.0227 281.032 64.5076 281.032 65.1136C281.032 65.9545 281.342 66.5909 281.964 67.0227C282.585 67.447 283.376 67.6591 284.339 67.6591ZM296.739 70V52.5455H300.023V55.3182H300.205C300.523 54.3788 301.084 53.6402 301.887 53.1023C302.698 52.5568 303.614 52.2841 304.637 52.2841C304.849 52.2841 305.099 52.2917 305.387 52.3068C305.682 52.322 305.913 52.3409 306.08 52.3636V55.6136C305.944 55.5758 305.701 55.5341 305.353 55.4886C305.004 55.4356 304.656 55.4091 304.307 55.4091C303.504 55.4091 302.788 55.5795 302.16 55.9205C301.538 56.2538 301.046 56.7197 300.682 57.3182C300.319 57.9091 300.137 58.5833 300.137 59.3409V70H296.739ZM309.02 70V52.5455H312.282V55.3864H312.498C312.861 54.4242 313.456 53.6742 314.282 53.1364C315.108 52.5909 316.096 52.3182 317.248 52.3182C318.414 52.3182 319.392 52.5909 320.18 53.1364C320.975 53.6818 321.562 54.4318 321.941 55.3864H322.123C322.539 54.4545 323.202 53.7121 324.111 53.1591C325.02 52.5985 326.104 52.3182 327.361 52.3182C328.945 52.3182 330.236 52.8144 331.236 53.8068C332.244 54.7992 332.748 56.2955 332.748 58.2955V70H329.35V58.6136C329.35 57.4318 329.028 56.5758 328.384 56.0455C327.74 55.5152 326.971 55.25 326.077 55.25C324.971 55.25 324.111 55.5909 323.498 56.2727C322.884 56.947 322.577 57.8144 322.577 58.875V70H319.191V58.3977C319.191 57.4508 318.895 56.6894 318.305 56.1136C317.714 55.5379 316.945 55.25 315.998 55.25C315.354 55.25 314.759 55.4205 314.214 55.7614C313.676 56.0947 313.24 56.5606 312.907 57.1591C312.581 57.7576 312.418 58.4508 312.418 59.2386V70H309.02ZM337.302 70V52.5455H340.699V70H337.302ZM339.018 49.8523C338.427 49.8523 337.919 49.6553 337.495 49.2614C337.078 48.8598 336.87 48.3826 336.87 47.8295C336.87 47.2689 337.078 46.7917 337.495 46.3977C337.919 45.9962 338.427 45.7955 339.018 45.7955C339.608 45.7955 340.112 45.9962 340.529 46.3977C340.953 46.7917 341.165 47.2689 341.165 47.8295C341.165 48.3826 340.953 48.8598 340.529 49.2614C340.112 49.6553 339.608 49.8523 339.018 49.8523ZM348.668 59.6364V70H345.27V52.5455H348.532V55.3864H348.748C349.149 54.4621 349.778 53.7197 350.634 53.1591C351.498 52.5985 352.585 52.3182 353.895 52.3182C355.085 52.3182 356.126 52.5682 357.02 53.0682C357.914 53.5606 358.608 54.2955 359.1 55.2727C359.592 56.25 359.839 57.4583 359.839 58.8977V70H356.441V59.3068C356.441 58.0417 356.111 57.053 355.452 56.3409C354.793 55.6212 353.888 55.2614 352.736 55.2614C351.948 55.2614 351.248 55.4318 350.634 55.7727C350.028 56.1136 349.547 56.6136 349.191 57.2727C348.842 57.9242 348.668 58.7121 348.668 59.6364ZM371.714 76.9091C370.327 76.9091 369.134 76.7273 368.134 76.3636C367.142 76 366.331 75.5189 365.702 74.9205C365.073 74.322 364.604 73.6667 364.293 72.9545L367.214 71.75C367.418 72.0833 367.691 72.4356 368.032 72.8068C368.38 73.1856 368.85 73.5076 369.441 73.7727C370.039 74.0379 370.808 74.1705 371.748 74.1705C373.036 74.1705 374.1 73.8561 374.941 73.2273C375.782 72.6061 376.202 71.6136 376.202 70.25V66.8182H375.986C375.782 67.1894 375.486 67.6023 375.1 68.0568C374.721 68.5114 374.198 68.9053 373.532 69.2386C372.865 69.572 371.998 69.7386 370.93 69.7386C369.551 69.7386 368.308 69.4167 367.202 68.7727C366.104 68.1212 365.233 67.1629 364.589 65.8977C363.952 64.625 363.634 63.0606 363.634 61.2045C363.634 59.3485 363.948 57.7576 364.577 56.4318C365.214 55.1061 366.085 54.0909 367.191 53.3864C368.297 52.6742 369.551 52.3182 370.952 52.3182C372.036 52.3182 372.911 52.5 373.577 52.8636C374.244 53.2197 374.763 53.6364 375.134 54.1136C375.513 54.5909 375.805 55.0114 376.009 55.375H376.259V52.5455H379.589V70.3864C379.589 71.8864 379.24 73.1174 378.543 74.0795C377.846 75.0417 376.903 75.7538 375.714 76.2159C374.532 76.678 373.198 76.9091 371.714 76.9091ZM371.68 66.9205C372.657 66.9205 373.483 66.6932 374.157 66.2386C374.839 65.7765 375.354 65.1174 375.702 64.2614C376.058 63.3977 376.236 62.3636 376.236 61.1591C376.236 59.9848 376.062 58.9508 375.714 58.0568C375.365 57.1629 374.854 56.4659 374.18 55.9659C373.505 55.4583 372.672 55.2045 371.68 55.2045C370.657 55.2045 369.805 55.4697 369.123 56C368.441 56.5227 367.926 57.2348 367.577 58.1364C367.236 59.0379 367.066 60.0455 367.066 61.1591C367.066 62.303 367.24 63.3068 367.589 64.1705C367.937 65.0341 368.452 65.7083 369.134 66.1932C369.823 66.678 370.672 66.9205 371.68 66.9205ZM93.2136 104.727C92.2969 104.727 91.4598 104.504 90.7022 104.057C89.9447 103.602 89.3386 102.996 88.8841 102.239C88.4371 101.481 88.2136 100.644 88.2136 99.7273C88.2136 98.803 88.4371 97.9659 88.8841 97.2159C89.3386 96.4583 89.9447 95.8561 90.7022 95.4091C91.4598 94.9545 92.2969 94.7273 93.2136 94.7273C94.1378 94.7273 94.975 94.9545 95.725 95.4091C96.4825 95.8561 97.0848 96.4583 97.5318 97.2159C97.9863 97.9659 98.2136 98.803 98.2136 99.7273C98.2136 100.644 97.9863 101.481 97.5318 102.239C97.0848 102.996 96.4825 103.602 95.725 104.057C94.975 104.504 94.1378 104.727 93.2136 104.727ZM127.126 109.318C125.701 109.318 124.421 109.045 123.285 108.5C122.156 107.947 121.254 107.189 120.58 106.227C119.906 105.265 119.546 104.167 119.501 102.932H122.91C122.993 103.932 123.436 104.754 124.239 105.398C125.042 106.042 126.004 106.364 127.126 106.364C128.019 106.364 128.811 106.159 129.501 105.75C130.198 105.333 130.743 104.761 131.137 104.034C131.538 103.307 131.739 102.477 131.739 101.545C131.739 100.598 131.535 99.7538 131.126 99.0114C130.716 98.2689 130.152 97.6856 129.432 97.2614C128.72 96.8371 127.902 96.6212 126.978 96.6136C126.273 96.6136 125.565 96.7348 124.853 96.9773C124.141 97.2197 123.565 97.5379 123.126 97.9318L119.91 97.4545L121.216 85.7273H134.012V88.7386H124.137L123.398 95.25H123.535C123.989 94.8106 124.591 94.4432 125.341 94.1477C126.099 93.8523 126.91 93.7045 127.773 93.7045C129.19 93.7045 130.451 94.0417 131.557 94.7159C132.671 95.3902 133.546 96.3106 134.182 97.4773C134.826 98.6364 135.144 99.9697 135.137 101.477C135.144 102.985 134.804 104.33 134.114 105.511C133.432 106.693 132.485 107.625 131.273 108.307C130.069 108.981 128.686 109.318 127.126 109.318ZM167.404 93.2955H163.858C163.722 92.5379 163.468 91.8712 163.097 91.2955C162.726 90.7197 162.271 90.2311 161.733 89.8295C161.196 89.428 160.593 89.125 159.927 88.9205C159.268 88.7159 158.567 88.6136 157.824 88.6136C156.483 88.6136 155.283 88.9508 154.222 89.625C153.169 90.2992 152.336 91.2879 151.722 92.5909C151.116 93.8939 150.813 95.4848 150.813 97.3636C150.813 99.2576 151.116 100.856 151.722 102.159C152.336 103.462 153.173 104.447 154.233 105.114C155.294 105.78 156.487 106.114 157.813 106.114C158.548 106.114 159.245 106.015 159.904 105.818C160.571 105.614 161.173 105.314 161.711 104.92C162.249 104.527 162.703 104.045 163.074 103.477C163.453 102.902 163.715 102.242 163.858 101.5L167.404 101.511C167.215 102.655 166.847 103.708 166.302 104.67C165.764 105.625 165.071 106.451 164.222 107.148C163.381 107.837 162.419 108.371 161.336 108.75C160.252 109.129 159.071 109.318 157.79 109.318C155.775 109.318 153.98 108.841 152.404 107.886C150.828 106.924 149.586 105.549 148.677 103.761C147.775 101.973 147.324 99.8409 147.324 97.3636C147.324 94.8788 147.779 92.7462 148.688 90.9659C149.597 89.178 150.84 87.8068 152.415 86.8523C153.991 85.8902 155.783 85.4091 157.79 85.4091C159.025 85.4091 160.177 85.5871 161.245 85.9432C162.321 86.2917 163.287 86.8068 164.143 87.4886C164.999 88.1629 165.707 88.9886 166.268 89.9659C166.828 90.9356 167.207 92.0455 167.404 93.2955ZM171.606 109V85.7273H186.197V88.75H175.117V95.8409H185.435V98.8523H175.117V105.977H186.333V109H171.606ZM193.33 85.7273L198.898 94.8295H199.08L204.648 85.7273H208.716L201.466 97.3636L208.762 109H204.671L199.08 100.023H198.898L193.307 109H189.216L196.637 97.3636L189.262 85.7273H193.33ZM223.793 85.7273V109H220.395V85.7273H223.793ZM228.364 109V91.5455H231.762V109H228.364ZM230.08 88.8523C229.489 88.8523 228.982 88.6553 228.557 88.2614C228.141 87.8598 227.932 87.3826 227.932 86.8295C227.932 86.2689 228.141 85.7917 228.557 85.3977C228.982 84.9962 229.489 84.7955 230.08 84.7955C230.671 84.7955 231.175 84.9962 231.591 85.3977C232.016 85.7917 232.228 86.2689 232.228 86.8295C232.228 87.3826 232.016 87.8598 231.591 88.2614C231.175 88.6553 230.671 88.8523 230.08 88.8523ZM249.412 95.8068L246.333 96.3523C246.204 95.9583 246 95.5833 245.719 95.2273C245.447 94.8712 245.075 94.5795 244.606 94.3523C244.136 94.125 243.549 94.0114 242.844 94.0114C241.882 94.0114 241.079 94.2273 240.435 94.6591C239.791 95.0833 239.469 95.6326 239.469 96.3068C239.469 96.8902 239.685 97.3598 240.117 97.7159C240.549 98.072 241.246 98.3636 242.208 98.5909L244.981 99.2273C246.587 99.5985 247.784 100.17 248.572 100.943C249.359 101.716 249.753 102.72 249.753 103.955C249.753 105 249.45 105.932 248.844 106.75C248.246 107.561 247.409 108.197 246.333 108.659C245.265 109.121 244.026 109.352 242.617 109.352C240.662 109.352 239.068 108.936 237.833 108.102C236.598 107.261 235.84 106.068 235.56 104.523L238.844 104.023C239.049 104.879 239.469 105.527 240.106 105.966C240.742 106.398 241.572 106.614 242.594 106.614C243.708 106.614 244.598 106.383 245.265 105.92C245.931 105.451 246.265 104.879 246.265 104.205C246.265 103.659 246.06 103.201 245.651 102.83C245.25 102.458 244.632 102.178 243.799 101.989L240.844 101.341C239.215 100.97 238.011 100.379 237.231 99.5682C236.458 98.7576 236.072 97.7311 236.072 96.4886C236.072 95.4583 236.359 94.5568 236.935 93.7841C237.511 93.0114 238.306 92.4091 239.322 91.9773C240.337 91.5379 241.5 91.3182 242.81 91.3182C244.697 91.3182 246.181 91.7273 247.265 92.5455C248.348 93.3561 249.064 94.4432 249.412 95.8068ZM261.637 91.5455V94.2727H252.103V91.5455H261.637ZM254.66 87.3636H258.057V103.875C258.057 104.534 258.156 105.03 258.353 105.364C258.55 105.689 258.804 105.913 259.114 106.034C259.432 106.148 259.777 106.205 260.148 106.205C260.421 106.205 260.66 106.186 260.864 106.148C261.069 106.11 261.228 106.08 261.341 106.057L261.955 108.864C261.758 108.939 261.478 109.015 261.114 109.091C260.751 109.174 260.296 109.22 259.751 109.227C258.857 109.242 258.023 109.083 257.251 108.75C256.478 108.417 255.853 107.902 255.376 107.205C254.898 106.508 254.66 105.633 254.66 104.58V87.3636ZM265.395 109V91.5455H268.793V109H265.395ZM267.111 88.8523C266.52 88.8523 266.013 88.6553 265.589 88.2614C265.172 87.8598 264.964 87.3826 264.964 86.8295C264.964 86.2689 265.172 85.7917 265.589 85.3977C266.013 84.9962 266.52 84.7955 267.111 84.7955C267.702 84.7955 268.206 84.9962 268.623 85.3977C269.047 85.7917 269.259 86.2689 269.259 86.8295C269.259 87.3826 269.047 87.8598 268.623 88.2614C268.206 88.6553 267.702 88.8523 267.111 88.8523ZM276.762 98.6364V109H273.364V91.5455H276.626V94.3864H276.841C277.243 93.4621 277.872 92.7197 278.728 92.1591C279.591 91.5985 280.679 91.3182 281.989 91.3182C283.179 91.3182 284.22 91.5682 285.114 92.0682C286.008 92.5606 286.701 93.2955 287.194 94.2727C287.686 95.25 287.932 96.4583 287.932 97.8977V109H284.535V98.3068C284.535 97.0417 284.205 96.053 283.546 95.3409C282.887 94.6212 281.982 94.2614 280.83 94.2614C280.042 94.2614 279.341 94.4318 278.728 94.7727C278.122 95.1136 277.641 95.6136 277.285 96.2727C276.936 96.9242 276.762 97.7121 276.762 98.6364ZM299.807 115.909C298.421 115.909 297.228 115.727 296.228 115.364C295.235 115 294.425 114.519 293.796 113.92C293.167 113.322 292.698 112.667 292.387 111.955L295.307 110.75C295.512 111.083 295.785 111.436 296.126 111.807C296.474 112.186 296.944 112.508 297.535 112.773C298.133 113.038 298.902 113.17 299.841 113.17C301.129 113.17 302.194 112.856 303.035 112.227C303.876 111.606 304.296 110.614 304.296 109.25V105.818H304.08C303.876 106.189 303.58 106.602 303.194 107.057C302.815 107.511 302.292 107.905 301.626 108.239C300.959 108.572 300.091 108.739 299.023 108.739C297.644 108.739 296.402 108.417 295.296 107.773C294.198 107.121 293.326 106.163 292.682 104.898C292.046 103.625 291.728 102.061 291.728 100.205C291.728 98.3485 292.042 96.7576 292.671 95.4318C293.307 94.1061 294.179 93.0909 295.285 92.3864C296.391 91.6742 297.644 91.3182 299.046 91.3182C300.129 91.3182 301.004 91.5 301.671 91.8636C302.338 92.2197 302.857 92.6364 303.228 93.1136C303.607 93.5909 303.898 94.0114 304.103 94.375H304.353V91.5455H307.682V109.386C307.682 110.886 307.334 112.117 306.637 113.08C305.94 114.042 304.997 114.754 303.807 115.216C302.626 115.678 301.292 115.909 299.807 115.909ZM299.773 105.92C300.751 105.92 301.576 105.693 302.251 105.239C302.932 104.777 303.448 104.117 303.796 103.261C304.152 102.398 304.33 101.364 304.33 100.159C304.33 98.9848 304.156 97.9508 303.807 97.0568C303.459 96.1629 302.948 95.4659 302.273 94.9659C301.599 94.4583 300.766 94.2045 299.773 94.2045C298.751 94.2045 297.898 94.4697 297.216 95C296.535 95.5227 296.019 96.2348 295.671 97.1364C295.33 98.0379 295.16 99.0455 295.16 100.159C295.16 101.303 295.334 102.307 295.682 103.17C296.031 104.034 296.546 104.708 297.228 105.193C297.917 105.678 298.766 105.92 299.773 105.92ZM325.319 95.8068L322.239 96.3523C322.11 95.9583 321.906 95.5833 321.626 95.2273C321.353 94.8712 320.982 94.5795 320.512 94.3523C320.042 94.125 319.455 94.0114 318.751 94.0114C317.788 94.0114 316.985 94.2273 316.341 94.6591C315.698 95.0833 315.376 95.6326 315.376 96.3068C315.376 96.8902 315.591 97.3598 316.023 97.7159C316.455 98.072 317.152 98.3636 318.114 98.5909L320.887 99.2273C322.493 99.5985 323.69 100.17 324.478 100.943C325.266 101.716 325.66 102.72 325.66 103.955C325.66 105 325.357 105.932 324.751 106.75C324.152 107.561 323.315 108.197 322.239 108.659C321.171 109.121 319.932 109.352 318.523 109.352C316.569 109.352 314.974 108.936 313.739 108.102C312.504 107.261 311.747 106.068 311.466 104.523L314.751 104.023C314.955 104.879 315.376 105.527 316.012 105.966C316.648 106.398 317.478 106.614 318.501 106.614C319.614 106.614 320.504 106.383 321.171 105.92C321.838 105.451 322.171 104.879 322.171 104.205C322.171 103.659 321.966 103.201 321.557 102.83C321.156 102.458 320.538 102.178 319.705 101.989L316.751 101.341C315.122 100.97 313.917 100.379 313.137 99.5682C312.364 98.7576 311.978 97.7311 311.978 96.4886C311.978 95.4583 312.266 94.5568 312.841 93.7841C313.417 93.0114 314.213 92.4091 315.228 91.9773C316.243 91.5379 317.406 91.3182 318.716 91.3182C320.603 91.3182 322.088 91.7273 323.171 92.5455C324.254 93.3561 324.97 94.4432 325.319 95.8068ZM338.853 97.3636C338.853 94.5152 339.228 91.8939 339.978 89.5C340.728 87.1061 341.823 84.8977 343.262 82.875H346.376C345.815 83.625 345.292 84.5455 344.807 85.6364C344.323 86.7273 343.898 87.9242 343.535 89.2273C343.171 90.5227 342.887 91.8674 342.682 93.2614C342.478 94.6477 342.376 96.0152 342.376 97.3636C342.376 99.1667 342.554 100.992 342.91 102.841C343.266 104.689 343.747 106.405 344.353 107.989C344.959 109.572 345.633 110.864 346.376 111.864H343.262C341.823 109.841 340.728 107.633 339.978 105.239C339.228 102.845 338.853 100.22 338.853 97.3636ZM358.381 109V106.455L366.256 98.2955C367.097 97.4091 367.79 96.6326 368.336 95.9659C368.889 95.2917 369.302 94.6515 369.574 94.0455C369.847 93.4394 369.983 92.7955 369.983 92.1136C369.983 91.3409 369.802 90.6742 369.438 90.1136C369.074 89.5455 368.578 89.1098 367.949 88.8068C367.321 88.4962 366.612 88.3409 365.824 88.3409C364.991 88.3409 364.264 88.5114 363.643 88.8523C363.021 89.1932 362.544 89.6742 362.211 90.2955C361.877 90.9167 361.711 91.6439 361.711 92.4773H358.358C358.358 91.0606 358.684 89.822 359.336 88.7614C359.987 87.7008 360.881 86.8788 362.018 86.2955C363.154 85.7045 364.446 85.4091 365.893 85.4091C367.355 85.4091 368.643 85.7008 369.756 86.2841C370.877 86.8598 371.752 87.6477 372.381 88.6477C373.01 89.6402 373.324 90.7614 373.324 92.0114C373.324 92.875 373.162 93.7197 372.836 94.5455C372.518 95.3712 371.961 96.2917 371.165 97.3068C370.37 98.3144 369.264 99.5379 367.847 100.977L363.222 105.818V105.989H373.699V109H358.381ZM393.873 109.352C392.236 109.352 390.808 108.977 389.589 108.227C388.369 107.477 387.422 106.428 386.748 105.08C386.073 103.731 385.736 102.155 385.736 100.352C385.736 98.5417 386.073 96.9583 386.748 95.6023C387.422 94.2462 388.369 93.1932 389.589 92.4432C390.808 91.6932 392.236 91.3182 393.873 91.3182C395.509 91.3182 396.937 91.6932 398.157 92.4432C399.376 93.1932 400.323 94.2462 400.998 95.6023C401.672 96.9583 402.009 98.5417 402.009 100.352C402.009 102.155 401.672 103.731 400.998 105.08C400.323 106.428 399.376 107.477 398.157 108.227C396.937 108.977 395.509 109.352 393.873 109.352ZM393.884 106.5C394.945 106.5 395.823 106.22 396.52 105.659C397.217 105.098 397.733 104.352 398.066 103.42C398.407 102.489 398.577 101.462 398.577 100.341C398.577 99.2273 398.407 98.2045 398.066 97.2727C397.733 96.3333 397.217 95.5795 396.52 95.0114C395.823 94.4432 394.945 94.1591 393.884 94.1591C392.816 94.1591 391.93 94.4432 391.225 95.0114C390.528 95.5795 390.009 96.3333 389.668 97.2727C389.335 98.2045 389.168 99.2273 389.168 100.341C389.168 101.462 389.335 102.489 389.668 103.42C390.009 104.352 390.528 105.098 391.225 105.659C391.93 106.22 392.816 106.5 393.884 106.5ZM416.858 101.761V91.5455H420.268V109H416.927V105.977H416.745C416.343 106.909 415.699 107.686 414.813 108.307C413.934 108.92 412.84 109.227 411.529 109.227C410.408 109.227 409.415 108.981 408.552 108.489C407.696 107.989 407.021 107.25 406.529 106.273C406.044 105.295 405.802 104.087 405.802 102.648V91.5455H409.199V102.239C409.199 103.428 409.529 104.375 410.188 105.08C410.847 105.784 411.703 106.136 412.756 106.136C413.393 106.136 414.025 105.977 414.654 105.659C415.29 105.341 415.817 104.86 416.233 104.216C416.658 103.572 416.866 102.754 416.858 101.761ZM432.981 91.5455V94.2727H423.447V91.5455H432.981ZM426.003 87.3636H429.401V103.875C429.401 104.534 429.5 105.03 429.697 105.364C429.894 105.689 430.147 105.913 430.458 106.034C430.776 106.148 431.121 106.205 431.492 106.205C431.765 106.205 432.003 106.186 432.208 106.148C432.412 106.11 432.572 106.08 432.685 106.057L433.299 108.864C433.102 108.939 432.822 109.015 432.458 109.091C432.094 109.174 431.64 109.22 431.094 109.227C430.2 109.242 429.367 109.083 428.594 108.75C427.822 108.417 427.197 107.902 426.719 107.205C426.242 106.508 426.003 105.633 426.003 104.58V87.3636ZM452.56 109.352C450.924 109.352 449.496 108.977 448.276 108.227C447.056 107.477 446.109 106.428 445.435 105.08C444.761 103.731 444.424 102.155 444.424 100.352C444.424 98.5417 444.761 96.9583 445.435 95.6023C446.109 94.2462 447.056 93.1932 448.276 92.4432C449.496 91.6932 450.924 91.3182 452.56 91.3182C454.197 91.3182 455.625 91.6932 456.844 92.4432C458.064 93.1932 459.011 94.2462 459.685 95.6023C460.359 96.9583 460.697 98.5417 460.697 100.352C460.697 102.155 460.359 103.731 459.685 105.08C459.011 106.428 458.064 107.477 456.844 108.227C455.625 108.977 454.197 109.352 452.56 109.352ZM452.572 106.5C453.632 106.5 454.511 106.22 455.208 105.659C455.905 105.098 456.42 104.352 456.753 103.42C457.094 102.489 457.265 101.462 457.265 100.341C457.265 99.2273 457.094 98.2045 456.753 97.2727C456.42 96.3333 455.905 95.5795 455.208 95.0114C454.511 94.4432 453.632 94.1591 452.572 94.1591C451.503 94.1591 450.617 94.4432 449.912 95.0114C449.215 95.5795 448.697 96.3333 448.356 97.2727C448.022 98.2045 447.856 99.2273 447.856 100.341C447.856 101.462 448.022 102.489 448.356 103.42C448.697 104.352 449.215 105.098 449.912 105.659C450.617 106.22 451.503 106.5 452.572 106.5ZM472.796 91.5455V94.2727H462.932V91.5455H472.796ZM465.637 109V89.5227C465.637 88.4318 465.876 87.5265 466.353 86.8068C466.83 86.0795 467.463 85.5379 468.251 85.1818C469.038 84.8182 469.894 84.6364 470.819 84.6364C471.501 84.6364 472.084 84.6932 472.569 84.8068C473.054 84.9129 473.413 85.0114 473.648 85.1023L472.853 87.8523C472.694 87.8068 472.489 87.7538 472.239 87.6932C471.989 87.625 471.686 87.5909 471.33 87.5909C470.504 87.5909 469.913 87.7955 469.557 88.2045C469.209 88.6136 469.035 89.2045 469.035 89.9773V109H465.637ZM492.918 91.5455V94.2727H483.384V91.5455H492.918ZM485.941 87.3636H489.339V103.875C489.339 104.534 489.437 105.03 489.634 105.364C489.831 105.689 490.085 105.913 490.395 106.034C490.714 106.148 491.058 106.205 491.43 106.205C491.702 106.205 491.941 106.186 492.145 106.148C492.35 106.11 492.509 106.08 492.623 106.057L493.236 108.864C493.039 108.939 492.759 109.015 492.395 109.091C492.032 109.174 491.577 109.22 491.032 109.227C490.138 109.242 489.305 109.083 488.532 108.75C487.759 108.417 487.134 107.902 486.657 107.205C486.18 106.508 485.941 105.633 485.941 104.58V87.3636ZM500.449 98.6364V109H497.052V85.7273H500.404V94.3864H500.62C501.029 93.447 501.654 92.7008 502.495 92.1477C503.336 91.5947 504.434 91.3182 505.79 91.3182C506.987 91.3182 508.033 91.5644 508.927 92.0568C509.828 92.5492 510.525 93.2841 511.018 94.2614C511.518 95.2311 511.768 96.4432 511.768 97.8977V109H508.37V98.3068C508.37 97.0265 508.04 96.0341 507.381 95.3295C506.722 94.6174 505.805 94.2614 504.631 94.2614C503.828 94.2614 503.108 94.4318 502.472 94.7727C501.843 95.1136 501.347 95.6136 500.983 96.2727C500.627 96.9242 500.449 97.7121 500.449 98.6364ZM523.824 109.352C522.105 109.352 520.624 108.985 519.381 108.25C518.146 107.508 517.192 106.466 516.518 105.125C515.851 103.777 515.518 102.197 515.518 100.386C515.518 98.5985 515.851 97.0227 516.518 95.6591C517.192 94.2955 518.131 93.2311 519.336 92.4659C520.548 91.7008 521.965 91.3182 523.586 91.3182C524.571 91.3182 525.525 91.4811 526.449 91.8068C527.374 92.1326 528.203 92.6439 528.938 93.3409C529.673 94.0379 530.252 94.9432 530.677 96.0568C531.101 97.1629 531.313 98.5076 531.313 100.091V101.295H517.438V98.75H527.983C527.983 97.8561 527.802 97.0644 527.438 96.375C527.074 95.678 526.563 95.1288 525.904 94.7273C525.252 94.3258 524.487 94.125 523.608 94.125C522.654 94.125 521.821 94.3598 521.108 94.8295C520.404 95.2917 519.858 95.8977 519.472 96.6477C519.093 97.3902 518.904 98.197 518.904 99.0682V101.057C518.904 102.223 519.108 103.216 519.518 104.034C519.934 104.852 520.514 105.477 521.256 105.909C521.999 106.333 522.866 106.545 523.858 106.545C524.502 106.545 525.09 106.455 525.62 106.273C526.15 106.083 526.608 105.803 526.995 105.432C527.381 105.061 527.677 104.602 527.881 104.057L531.097 104.636C530.84 105.583 530.377 106.413 529.711 107.125C529.052 107.83 528.222 108.379 527.222 108.773C526.23 109.159 525.097 109.352 523.824 109.352ZM535.083 109V91.5455H538.344V94.3864H538.56C538.924 93.4242 539.519 92.6742 540.344 92.1364C541.17 91.5909 542.159 91.3182 543.31 91.3182C544.477 91.3182 545.454 91.5909 546.242 92.1364C547.037 92.6818 547.625 93.4318 548.003 94.3864H548.185C548.602 93.4545 549.265 92.7121 550.174 92.1591C551.083 91.5985 552.166 91.3182 553.424 91.3182C555.007 91.3182 556.299 91.8144 557.299 92.8068C558.306 93.7992 558.81 95.2955 558.81 97.2955V109H555.412V97.6136C555.412 96.4318 555.09 95.5758 554.447 95.0455C553.803 94.5152 553.034 94.25 552.14 94.25C551.034 94.25 550.174 94.5909 549.56 95.2727C548.947 95.947 548.64 96.8144 548.64 97.875V109H545.253V97.3977C545.253 96.4508 544.958 95.6894 544.367 95.1136C543.776 94.5379 543.007 94.25 542.06 94.25C541.416 94.25 540.822 94.4205 540.276 94.7614C539.738 95.0947 539.303 95.5606 538.969 96.1591C538.644 96.7576 538.481 97.4508 538.481 98.2386V109H535.083ZM576.912 109.386C575.806 109.386 574.806 109.182 573.912 108.773C573.019 108.356 572.31 107.754 571.787 106.966C571.272 106.178 571.015 105.212 571.015 104.068C571.015 103.083 571.204 102.273 571.583 101.636C571.962 101 572.473 100.496 573.117 100.125C573.761 99.7538 574.481 99.4735 575.276 99.2841C576.072 99.0947 576.882 98.9508 577.708 98.8523C578.753 98.7311 579.602 98.6326 580.253 98.5568C580.905 98.4735 581.378 98.3409 581.674 98.1591C581.969 97.9773 582.117 97.6818 582.117 97.2727V97.1932C582.117 96.2008 581.837 95.4318 581.276 94.8864C580.723 94.3409 579.897 94.0682 578.799 94.0682C577.655 94.0682 576.753 94.322 576.094 94.8295C575.443 95.3295 574.992 95.8864 574.742 96.5L571.549 95.7727C571.928 94.7121 572.481 93.8561 573.208 93.2045C573.943 92.5455 574.787 92.0682 575.742 91.7727C576.697 91.4697 577.7 91.3182 578.753 91.3182C579.45 91.3182 580.189 91.4015 580.969 91.5682C581.757 91.7273 582.492 92.0227 583.174 92.4545C583.863 92.8864 584.428 93.5038 584.867 94.3068C585.306 95.1023 585.526 96.1364 585.526 97.4091V109H582.208V106.614H582.072C581.852 107.053 581.522 107.485 581.083 107.909C580.644 108.333 580.079 108.686 579.39 108.966C578.7 109.246 577.875 109.386 576.912 109.386ZM577.651 106.659C578.59 106.659 579.394 106.473 580.06 106.102C580.734 105.731 581.246 105.246 581.594 104.648C581.95 104.042 582.128 103.394 582.128 102.705V100.455C582.007 100.576 581.772 100.689 581.424 100.795C581.083 100.894 580.693 100.981 580.253 101.057C579.814 101.125 579.386 101.189 578.969 101.25C578.553 101.303 578.204 101.348 577.924 101.386C577.265 101.47 576.662 101.61 576.117 101.807C575.579 102.004 575.147 102.288 574.822 102.659C574.503 103.023 574.344 103.508 574.344 104.114C574.344 104.955 574.655 105.591 575.276 106.023C575.897 106.447 576.689 106.659 577.651 106.659ZM590.052 109V91.5455H593.336V94.3182H593.518C593.836 93.3788 594.396 92.6402 595.199 92.1023C596.01 91.5568 596.927 91.2841 597.949 91.2841C598.162 91.2841 598.412 91.2917 598.699 91.3068C598.995 91.322 599.226 91.3409 599.393 91.3636V94.6136C599.256 94.5758 599.014 94.5341 598.665 94.4886C598.317 94.4356 597.968 94.4091 597.62 94.4091C596.817 94.4091 596.101 94.5795 595.472 94.9205C594.851 95.2538 594.358 95.7197 593.995 96.3182C593.631 96.9091 593.449 97.5833 593.449 98.3409V109H590.052ZM609.231 109.352C607.511 109.352 606.03 108.985 604.787 108.25C603.553 107.508 602.598 106.466 601.924 105.125C601.257 103.777 600.924 102.197 600.924 100.386C600.924 98.5985 601.257 97.0227 601.924 95.6591C602.598 94.2955 603.537 93.2311 604.742 92.4659C605.954 91.7008 607.371 91.3182 608.992 91.3182C609.977 91.3182 610.931 91.4811 611.856 91.8068C612.78 92.1326 613.609 92.6439 614.344 93.3409C615.079 94.0379 615.659 94.9432 616.083 96.0568C616.507 97.1629 616.719 98.5076 616.719 100.091V101.295H602.844V98.75H613.39C613.39 97.8561 613.208 97.0644 612.844 96.375C612.481 95.678 611.969 95.1288 611.31 94.7273C610.659 94.3258 609.894 94.125 609.015 94.125C608.06 94.125 607.227 94.3598 606.515 94.8295C605.81 95.2917 605.265 95.8977 604.878 96.6477C604.5 97.3902 604.31 98.197 604.31 99.0682V101.057C604.31 102.223 604.515 103.216 604.924 104.034C605.34 104.852 605.92 105.477 606.662 105.909C607.405 106.333 608.272 106.545 609.265 106.545C609.909 106.545 610.496 106.455 611.026 106.273C611.556 106.083 612.015 105.803 612.401 105.432C612.787 105.061 613.083 104.602 613.287 104.057L616.503 104.636C616.246 105.583 615.784 106.413 615.117 107.125C614.458 107.83 613.628 108.379 612.628 108.773C611.636 109.159 610.503 109.352 609.231 109.352ZM118.614 127.75V124.727H136.626V127.75H129.364V148H125.864V127.75H118.614ZM140.333 148V130.545H143.731V148H140.333ZM142.049 127.852C141.458 127.852 140.95 127.655 140.526 127.261C140.109 126.86 139.901 126.383 139.901 125.83C139.901 125.269 140.109 124.792 140.526 124.398C140.95 123.996 141.458 123.795 142.049 123.795C142.64 123.795 143.144 123.996 143.56 124.398C143.984 124.792 144.197 125.269 144.197 125.83C144.197 126.383 143.984 126.86 143.56 127.261C143.144 127.655 142.64 127.852 142.049 127.852ZM155.824 148.352C154.105 148.352 152.624 147.985 151.381 147.25C150.146 146.508 149.192 145.466 148.518 144.125C147.851 142.777 147.518 141.197 147.518 139.386C147.518 137.598 147.851 136.023 148.518 134.659C149.192 133.295 150.131 132.231 151.336 131.466C152.548 130.701 153.965 130.318 155.586 130.318C156.571 130.318 157.525 130.481 158.449 130.807C159.374 131.133 160.203 131.644 160.938 132.341C161.673 133.038 162.252 133.943 162.677 135.057C163.101 136.163 163.313 137.508 163.313 139.091V140.295H149.438V137.75H159.983C159.983 136.856 159.802 136.064 159.438 135.375C159.074 134.678 158.563 134.129 157.904 133.727C157.252 133.326 156.487 133.125 155.608 133.125C154.654 133.125 153.821 133.36 153.108 133.83C152.404 134.292 151.858 134.898 151.472 135.648C151.093 136.39 150.904 137.197 150.904 138.068V140.057C150.904 141.223 151.108 142.216 151.518 143.034C151.934 143.852 152.514 144.477 153.256 144.909C153.999 145.333 154.866 145.545 155.858 145.545C156.502 145.545 157.09 145.455 157.62 145.273C158.15 145.083 158.608 144.803 158.995 144.432C159.381 144.061 159.677 143.602 159.881 143.057L163.097 143.636C162.84 144.583 162.377 145.413 161.711 146.125C161.052 146.83 160.222 147.379 159.222 147.773C158.23 148.159 157.097 148.352 155.824 148.352ZM167.083 148V130.545H170.367V133.318H170.549C170.867 132.379 171.428 131.64 172.231 131.102C173.041 130.557 173.958 130.284 174.981 130.284C175.193 130.284 175.443 130.292 175.731 130.307C176.026 130.322 176.257 130.341 176.424 130.364V133.614C176.287 133.576 176.045 133.534 175.697 133.489C175.348 133.436 175 133.409 174.651 133.409C173.848 133.409 173.132 133.58 172.503 133.92C171.882 134.254 171.39 134.72 171.026 135.318C170.662 135.909 170.481 136.583 170.481 137.341V148H167.083ZM196.617 124.727V148H193.094V128.25H192.958L187.39 131.886V128.523L193.197 124.727H196.617ZM209.492 136.364C209.492 139.22 209.117 141.845 208.367 144.239C207.617 146.633 206.522 148.841 205.083 150.864H201.969C202.53 150.114 203.053 149.193 203.537 148.102C204.022 147.011 204.447 145.818 204.81 144.523C205.174 143.22 205.458 141.871 205.662 140.477C205.867 139.083 205.969 137.712 205.969 136.364C205.969 134.568 205.791 132.746 205.435 130.898C205.079 129.049 204.598 127.333 203.992 125.75C203.386 124.167 202.712 122.875 201.969 121.875H205.083C206.522 123.898 207.617 126.106 208.367 128.5C209.117 130.894 209.492 133.515 209.492 136.364ZM93.2136 182.727C92.2969 182.727 91.4598 182.504 90.7022 182.057C89.9447 181.602 89.3386 180.996 88.8841 180.239C88.4371 179.481 88.2136 178.644 88.2136 177.727C88.2136 176.803 88.4371 175.966 88.8841 175.216C89.3386 174.458 89.9447 173.856 90.7022 173.409C91.4598 172.955 92.2969 172.727 93.2136 172.727C94.1378 172.727 94.975 172.955 95.725 173.409C96.4825 173.856 97.0848 174.458 97.5318 175.216C97.9863 175.966 98.2136 176.803 98.2136 177.727C98.2136 178.644 97.9863 179.481 97.5318 180.239C97.0848 180.996 96.4825 181.602 95.725 182.057C94.975 182.504 94.1378 182.727 93.2136 182.727ZM119.444 187V184.455L127.319 176.295C128.16 175.409 128.853 174.633 129.398 173.966C129.951 173.292 130.364 172.652 130.637 172.045C130.91 171.439 131.046 170.795 131.046 170.114C131.046 169.341 130.864 168.674 130.501 168.114C130.137 167.545 129.641 167.11 129.012 166.807C128.383 166.496 127.675 166.341 126.887 166.341C126.054 166.341 125.326 166.511 124.705 166.852C124.084 167.193 123.607 167.674 123.273 168.295C122.94 168.917 122.773 169.644 122.773 170.477H119.421C119.421 169.061 119.747 167.822 120.398 166.761C121.05 165.701 121.944 164.879 123.08 164.295C124.216 163.705 125.508 163.409 126.955 163.409C128.417 163.409 129.705 163.701 130.819 164.284C131.94 164.86 132.815 165.648 133.444 166.648C134.073 167.64 134.387 168.761 134.387 170.011C134.387 170.875 134.224 171.72 133.898 172.545C133.58 173.371 133.023 174.292 132.228 175.307C131.432 176.314 130.326 177.538 128.91 178.977L124.285 183.818V183.989H134.762V187H119.444ZM147.171 187.386C145.376 187.379 143.841 186.905 142.569 185.966C141.296 185.027 140.323 183.659 139.648 181.864C138.974 180.068 138.637 177.905 138.637 175.375C138.637 172.852 138.974 170.697 139.648 168.909C140.33 167.121 141.307 165.758 142.58 164.818C143.86 163.879 145.391 163.409 147.171 163.409C148.951 163.409 150.478 163.883 151.751 164.83C153.023 165.769 153.997 167.133 154.671 168.92C155.353 170.701 155.694 172.852 155.694 175.375C155.694 177.913 155.357 180.08 154.682 181.875C154.008 183.663 153.035 185.03 151.762 185.977C150.489 186.917 148.959 187.386 147.171 187.386ZM147.171 184.352C148.747 184.352 149.978 183.583 150.864 182.045C151.758 180.508 152.205 178.284 152.205 175.375C152.205 173.443 152.001 171.811 151.591 170.477C151.19 169.136 150.61 168.121 149.853 167.432C149.103 166.735 148.209 166.386 147.171 166.386C145.603 166.386 144.372 167.159 143.478 168.705C142.584 170.25 142.133 172.473 142.126 175.375C142.126 177.314 142.326 178.955 142.728 180.295C143.137 181.629 143.716 182.64 144.466 183.33C145.216 184.011 146.118 184.352 147.171 184.352ZM167.827 187.386C166.032 187.379 164.498 186.905 163.225 185.966C161.952 185.027 160.979 183.659 160.305 181.864C159.63 180.068 159.293 177.905 159.293 175.375C159.293 172.852 159.63 170.697 160.305 168.909C160.986 167.121 161.964 165.758 163.236 164.818C164.517 163.879 166.047 163.409 167.827 163.409C169.608 163.409 171.134 163.883 172.407 164.83C173.68 165.769 174.653 167.133 175.327 168.92C176.009 170.701 176.35 172.852 176.35 175.375C176.35 177.913 176.013 180.08 175.339 181.875C174.664 183.663 173.691 185.03 172.418 185.977C171.145 186.917 169.615 187.386 167.827 187.386ZM167.827 184.352C169.403 184.352 170.634 183.583 171.52 182.045C172.414 180.508 172.861 178.284 172.861 175.375C172.861 173.443 172.657 171.811 172.248 170.477C171.846 169.136 171.267 168.121 170.509 167.432C169.759 166.735 168.865 166.386 167.827 166.386C166.259 166.386 165.028 167.159 164.134 168.705C163.24 170.25 162.789 172.473 162.782 175.375C162.782 177.314 162.983 178.955 163.384 180.295C163.793 181.629 164.373 182.64 165.123 183.33C165.873 184.011 166.774 184.352 167.827 184.352ZM188.483 187.386C186.688 187.379 185.154 186.905 183.881 185.966C182.608 185.027 181.635 183.659 180.961 181.864C180.287 180.068 179.949 177.905 179.949 175.375C179.949 172.852 180.287 170.697 180.961 168.909C181.643 167.121 182.62 165.758 183.893 164.818C185.173 163.879 186.703 163.409 188.483 163.409C190.264 163.409 191.79 163.883 193.063 164.83C194.336 165.769 195.309 167.133 195.983 168.92C196.665 170.701 197.006 172.852 197.006 175.375C197.006 177.913 196.669 180.08 195.995 181.875C195.321 183.663 194.347 185.03 193.074 185.977C191.802 186.917 190.271 187.386 188.483 187.386ZM188.483 184.352C190.059 184.352 191.29 183.583 192.177 182.045C193.071 180.508 193.518 178.284 193.518 175.375C193.518 173.443 193.313 171.811 192.904 170.477C192.502 169.136 191.923 168.121 191.165 167.432C190.415 166.735 189.521 166.386 188.483 166.386C186.915 166.386 185.684 167.159 184.79 168.705C183.896 170.25 183.446 172.473 183.438 175.375C183.438 177.314 183.639 178.955 184.04 180.295C184.449 181.629 185.029 182.64 185.779 183.33C186.529 184.011 187.43 184.352 188.483 184.352ZM209.14 187.386C207.344 187.379 205.81 186.905 204.537 185.966C203.265 185.027 202.291 183.659 201.617 181.864C200.943 180.068 200.606 177.905 200.606 175.375C200.606 172.852 200.943 170.697 201.617 168.909C202.299 167.121 203.276 165.758 204.549 164.818C205.829 163.879 207.359 163.409 209.14 163.409C210.92 163.409 212.447 163.883 213.719 164.83C214.992 165.769 215.965 167.133 216.64 168.92C217.322 170.701 217.662 172.852 217.662 175.375C217.662 177.913 217.325 180.08 216.651 181.875C215.977 183.663 215.003 185.03 213.731 185.977C212.458 186.917 210.928 187.386 209.14 187.386ZM209.14 184.352C210.715 184.352 211.947 183.583 212.833 182.045C213.727 180.508 214.174 178.284 214.174 175.375C214.174 173.443 213.969 171.811 213.56 170.477C213.159 169.136 212.579 168.121 211.822 167.432C211.072 166.735 210.178 166.386 209.14 166.386C207.572 166.386 206.34 167.159 205.447 168.705C204.553 170.25 204.102 172.473 204.094 175.375C204.094 177.314 204.295 178.955 204.697 180.295C205.106 181.629 205.685 182.64 206.435 183.33C207.185 184.011 208.087 184.352 209.14 184.352ZM233.606 176.636V187H230.208V163.727H233.56V172.386H233.776C234.185 171.447 234.81 170.701 235.651 170.148C236.492 169.595 237.59 169.318 238.947 169.318C240.144 169.318 241.189 169.564 242.083 170.057C242.984 170.549 243.681 171.284 244.174 172.261C244.674 173.231 244.924 174.443 244.924 175.898V187H241.526V176.307C241.526 175.027 241.197 174.034 240.537 173.33C239.878 172.617 238.962 172.261 237.787 172.261C236.984 172.261 236.265 172.432 235.628 172.773C235 173.114 234.503 173.614 234.14 174.273C233.784 174.924 233.606 175.712 233.606 176.636ZM256.81 187.352C255.174 187.352 253.746 186.977 252.526 186.227C251.306 185.477 250.359 184.428 249.685 183.08C249.011 181.731 248.674 180.155 248.674 178.352C248.674 176.542 249.011 174.958 249.685 173.602C250.359 172.246 251.306 171.193 252.526 170.443C253.746 169.693 255.174 169.318 256.81 169.318C258.447 169.318 259.875 169.693 261.094 170.443C262.314 171.193 263.261 172.246 263.935 173.602C264.609 174.958 264.947 176.542 264.947 178.352C264.947 180.155 264.609 181.731 263.935 183.08C263.261 184.428 262.314 185.477 261.094 186.227C259.875 186.977 258.447 187.352 256.81 187.352ZM256.822 184.5C257.882 184.5 258.761 184.22 259.458 183.659C260.155 183.098 260.67 182.352 261.003 181.42C261.344 180.489 261.515 179.462 261.515 178.341C261.515 177.227 261.344 176.205 261.003 175.273C260.67 174.333 260.155 173.58 259.458 173.011C258.761 172.443 257.882 172.159 256.822 172.159C255.753 172.159 254.867 172.443 254.162 173.011C253.465 173.58 252.947 174.333 252.606 175.273C252.272 176.205 252.106 177.227 252.106 178.341C252.106 179.462 252.272 180.489 252.606 181.42C252.947 182.352 253.465 183.098 254.162 183.659C254.867 184.22 255.753 184.5 256.822 184.5ZM272.137 163.727V187H268.739V163.727H272.137ZM283.242 187.341C281.833 187.341 280.575 186.981 279.469 186.261C278.371 185.534 277.507 184.5 276.878 183.159C276.257 181.811 275.947 180.193 275.947 178.307C275.947 176.42 276.261 174.807 276.89 173.466C277.526 172.125 278.397 171.098 279.503 170.386C280.609 169.674 281.863 169.318 283.265 169.318C284.348 169.318 285.219 169.5 285.878 169.864C286.545 170.22 287.06 170.636 287.424 171.114C287.795 171.591 288.083 172.011 288.287 172.375H288.492V163.727H291.89V187H288.572V184.284H288.287C288.083 184.655 287.787 185.08 287.401 185.557C287.022 186.034 286.5 186.451 285.833 186.807C285.166 187.163 284.303 187.341 283.242 187.341ZM283.992 184.443C284.969 184.443 285.795 184.186 286.469 183.67C287.151 183.148 287.666 182.424 288.015 181.5C288.371 180.576 288.549 179.5 288.549 178.273C288.549 177.061 288.375 176 288.026 175.091C287.678 174.182 287.166 173.473 286.492 172.966C285.818 172.458 284.984 172.205 283.992 172.205C282.969 172.205 282.117 172.47 281.435 173C280.753 173.53 280.238 174.254 279.89 175.17C279.549 176.087 279.378 177.121 279.378 178.273C279.378 179.439 279.553 180.489 279.901 181.42C280.25 182.352 280.765 183.091 281.447 183.636C282.136 184.174 282.984 184.443 283.992 184.443ZM304.262 187.352C302.542 187.352 301.061 186.985 299.819 186.25C298.584 185.508 297.629 184.466 296.955 183.125C296.288 181.777 295.955 180.197 295.955 178.386C295.955 176.598 296.288 175.023 296.955 173.659C297.629 172.295 298.569 171.231 299.773 170.466C300.985 169.701 302.402 169.318 304.023 169.318C305.008 169.318 305.963 169.481 306.887 169.807C307.811 170.133 308.641 170.644 309.376 171.341C310.11 172.038 310.69 172.943 311.114 174.057C311.538 175.163 311.751 176.508 311.751 178.091V179.295H297.876V176.75H308.421C308.421 175.856 308.239 175.064 307.876 174.375C307.512 173.678 307.001 173.129 306.341 172.727C305.69 172.326 304.925 172.125 304.046 172.125C303.091 172.125 302.258 172.36 301.546 172.83C300.841 173.292 300.296 173.898 299.91 174.648C299.531 175.39 299.341 176.197 299.341 177.068V179.057C299.341 180.223 299.546 181.216 299.955 182.034C300.372 182.852 300.951 183.477 301.694 183.909C302.436 184.333 303.304 184.545 304.296 184.545C304.94 184.545 305.527 184.455 306.057 184.273C306.588 184.083 307.046 183.803 307.432 183.432C307.819 183.061 308.114 182.602 308.319 182.057L311.535 182.636C311.277 183.583 310.815 184.413 310.148 185.125C309.489 185.83 308.66 186.379 307.66 186.773C306.667 187.159 305.535 187.352 304.262 187.352ZM315.52 187V169.545H318.805V172.318H318.986C319.305 171.379 319.865 170.64 320.668 170.102C321.479 169.557 322.395 169.284 323.418 169.284C323.63 169.284 323.88 169.292 324.168 169.307C324.464 169.322 324.695 169.341 324.861 169.364V172.614C324.725 172.576 324.483 172.534 324.134 172.489C323.786 172.436 323.437 172.409 323.089 172.409C322.286 172.409 321.57 172.58 320.941 172.92C320.32 173.254 319.827 173.72 319.464 174.318C319.1 174.909 318.918 175.583 318.918 176.341V187H315.52ZM340.881 173.807L337.802 174.352C337.673 173.958 337.468 173.583 337.188 173.227C336.915 172.871 336.544 172.58 336.074 172.352C335.605 172.125 335.018 172.011 334.313 172.011C333.351 172.011 332.548 172.227 331.904 172.659C331.26 173.083 330.938 173.633 330.938 174.307C330.938 174.89 331.154 175.36 331.586 175.716C332.018 176.072 332.715 176.364 333.677 176.591L336.449 177.227C338.055 177.598 339.252 178.17 340.04 178.943C340.828 179.716 341.222 180.72 341.222 181.955C341.222 183 340.919 183.932 340.313 184.75C339.715 185.561 338.877 186.197 337.802 186.659C336.733 187.121 335.495 187.352 334.086 187.352C332.131 187.352 330.537 186.936 329.302 186.102C328.067 185.261 327.309 184.068 327.029 182.523L330.313 182.023C330.518 182.879 330.938 183.527 331.574 183.966C332.211 184.398 333.04 184.614 334.063 184.614C335.177 184.614 336.067 184.383 336.733 183.92C337.4 183.451 337.733 182.879 337.733 182.205C337.733 181.659 337.529 181.201 337.12 180.83C336.718 180.458 336.101 180.178 335.268 179.989L332.313 179.341C330.684 178.97 329.48 178.379 328.699 177.568C327.927 176.758 327.54 175.731 327.54 174.489C327.54 173.458 327.828 172.557 328.404 171.784C328.98 171.011 329.775 170.409 330.79 169.977C331.805 169.538 332.968 169.318 334.279 169.318C336.165 169.318 337.65 169.727 338.733 170.545C339.817 171.356 340.533 172.443 340.881 173.807ZM93.2136 221.727C92.2969 221.727 91.4598 221.504 90.7022 221.057C89.9447 220.602 89.3386 219.996 88.8841 219.239C88.4371 218.481 88.2136 217.644 88.2136 216.727C88.2136 215.803 88.4371 214.966 88.8841 214.216C89.3386 213.458 89.9447 212.856 90.7022 212.409C91.4598 211.955 92.2969 211.727 93.2136 211.727C94.1378 211.727 94.975 211.955 95.725 212.409C96.4825 212.856 97.0848 213.458 97.5318 214.216C97.9863 214.966 98.2136 215.803 98.2136 216.727C98.2136 217.644 97.9863 218.481 97.5318 219.239C97.0848 219.996 96.4825 220.602 95.725 221.057C94.975 221.504 94.1378 221.727 93.2136 221.727Z" fill="#4CC9F0"/>
<line x1="93.7051" y1="20" x2="93.7051" y2="335" stroke="#0FA9D9"/>
</svg>
