<svg width="646" height="627" viewBox="0 0 646 627" fill="none" xmlns="http://www.w3.org/2000/svg">
<path d="M368 335L314 379.167V290.833L368 335Z" fill="#4CC9F0"/>
<path fill-rule="evenodd" clip-rule="evenodd" d="M0.204543 379L54 335L0.204543 291H314V379H0.204543ZM0 379L1.51992e-06 291H0V379Z" fill="#4CC9F0"/>
<path d="M128.523 349V319.909H138.352C140.634 319.909 142.5 320.321 143.949 321.145C145.407 321.959 146.487 323.062 147.188 324.455C147.888 325.847 148.239 327.4 148.239 329.114C148.239 330.828 147.888 332.385 147.188 333.787C146.496 335.188 145.426 336.306 143.977 337.139C142.528 337.963 140.672 338.375 138.409 338.375H131.364V335.25H138.295C139.858 335.25 141.113 334.98 142.06 334.44C143.007 333.901 143.693 333.171 144.119 332.253C144.555 331.325 144.773 330.278 144.773 329.114C144.773 327.949 144.555 326.907 144.119 325.989C143.693 325.07 143.002 324.35 142.045 323.83C141.089 323.299 139.82 323.034 138.239 323.034H132.045V349H128.523ZM156.811 335.875V349H153.459V319.909H156.811V330.591H157.095C157.607 329.464 158.374 328.569 159.396 327.906C160.429 327.234 161.802 326.898 163.516 326.898C165.002 326.898 166.304 327.196 167.422 327.793C168.539 328.38 169.406 329.284 170.021 330.506C170.646 331.718 170.959 333.261 170.959 335.136V349H167.607V335.364C167.607 333.631 167.157 332.291 166.257 331.344C165.367 330.387 164.131 329.909 162.55 329.909C161.451 329.909 160.466 330.141 159.595 330.605C158.733 331.069 158.052 331.746 157.55 332.636C157.057 333.527 156.811 334.606 156.811 335.875ZM183.512 349.511C182.129 349.511 180.875 349.251 179.748 348.73C178.621 348.2 177.726 347.438 177.063 346.443C176.4 345.439 176.069 344.227 176.069 342.807C176.069 341.557 176.315 340.544 176.808 339.767C177.3 338.981 177.958 338.366 178.782 337.92C179.606 337.475 180.515 337.144 181.509 336.926C182.513 336.699 183.522 336.519 184.535 336.386C185.861 336.216 186.935 336.088 187.759 336.003C188.593 335.908 189.199 335.752 189.577 335.534C189.966 335.316 190.16 334.937 190.16 334.398V334.284C190.16 332.883 189.776 331.794 189.009 331.017C188.252 330.241 187.101 329.852 185.558 329.852C183.957 329.852 182.702 330.203 181.793 330.903C180.884 331.604 180.245 332.352 179.876 333.148L176.694 332.011C177.262 330.686 178.02 329.653 178.967 328.915C179.923 328.167 180.965 327.646 182.092 327.352C183.228 327.049 184.345 326.898 185.444 326.898C186.145 326.898 186.95 326.983 187.859 327.153C188.777 327.314 189.663 327.651 190.515 328.162C191.377 328.673 192.092 329.445 192.66 330.477C193.228 331.509 193.512 332.892 193.512 334.625V349H190.16V346.045H189.989C189.762 346.519 189.383 347.026 188.853 347.565C188.323 348.105 187.617 348.564 186.737 348.943C185.856 349.322 184.781 349.511 183.512 349.511ZM184.023 346.5C185.349 346.5 186.467 346.24 187.376 345.719C188.294 345.198 188.986 344.526 189.45 343.702C189.923 342.878 190.16 342.011 190.16 341.102V338.034C190.018 338.205 189.705 338.361 189.222 338.503C188.749 338.635 188.2 338.754 187.575 338.858C186.959 338.953 186.358 339.038 185.771 339.114C185.193 339.18 184.724 339.237 184.364 339.284C183.493 339.398 182.679 339.582 181.921 339.838C181.173 340.084 180.567 340.458 180.103 340.96C179.648 341.453 179.421 342.125 179.421 342.977C179.421 344.142 179.852 345.023 180.714 345.619C181.585 346.206 182.688 346.5 184.023 346.5ZM215.085 332.068L212.074 332.92C211.884 332.419 211.605 331.931 211.236 331.457C210.876 330.974 210.384 330.577 209.759 330.264C209.134 329.952 208.333 329.795 207.358 329.795C206.023 329.795 204.91 330.103 204.02 330.719C203.139 331.325 202.699 332.097 202.699 333.034C202.699 333.867 203.002 334.526 203.608 335.009C204.214 335.491 205.161 335.894 206.449 336.216L209.688 337.011C211.638 337.485 213.092 338.209 214.048 339.185C215.005 340.151 215.483 341.396 215.483 342.92C215.483 344.17 215.123 345.288 214.403 346.273C213.693 347.258 212.699 348.034 211.42 348.602C210.142 349.17 208.655 349.455 206.96 349.455C204.735 349.455 202.893 348.972 201.435 348.006C199.976 347.04 199.053 345.629 198.665 343.773L201.847 342.977C202.15 344.152 202.723 345.032 203.565 345.619C204.418 346.206 205.53 346.5 206.903 346.5C208.466 346.5 209.706 346.169 210.625 345.506C211.553 344.833 212.017 344.028 212.017 343.091C212.017 342.333 211.752 341.699 211.222 341.188C210.691 340.667 209.877 340.278 208.778 340.023L205.142 339.17C203.144 338.697 201.676 337.963 200.739 336.969C199.811 335.965 199.347 334.71 199.347 333.205C199.347 331.973 199.692 330.884 200.384 329.938C201.084 328.991 202.036 328.247 203.239 327.707C204.451 327.168 205.824 326.898 207.358 326.898C209.517 326.898 211.212 327.371 212.443 328.318C213.684 329.265 214.564 330.515 215.085 332.068ZM229.677 349.455C227.575 349.455 225.761 348.991 224.237 348.062C222.721 347.125 221.552 345.818 220.728 344.142C219.914 342.456 219.506 340.496 219.506 338.261C219.506 336.027 219.914 334.057 220.728 332.352C221.552 330.638 222.698 329.303 224.165 328.347C225.643 327.381 227.366 326.898 229.336 326.898C230.472 326.898 231.594 327.087 232.702 327.466C233.81 327.845 234.819 328.46 235.728 329.312C236.637 330.155 237.362 331.273 237.901 332.665C238.441 334.057 238.711 335.771 238.711 337.807V339.227H221.893V336.33H235.302C235.302 335.098 235.056 334 234.563 333.034C234.08 332.068 233.389 331.306 232.489 330.747C231.599 330.188 230.548 329.909 229.336 329.909C228.001 329.909 226.845 330.241 225.87 330.903C224.904 331.557 224.161 332.409 223.64 333.46C223.119 334.511 222.859 335.638 222.859 336.841V338.773C222.859 340.42 223.143 341.817 223.711 342.963C224.289 344.099 225.089 344.966 226.112 345.562C227.134 346.15 228.323 346.443 229.677 346.443C230.558 346.443 231.353 346.32 232.063 346.074C232.783 345.818 233.403 345.439 233.924 344.938C234.445 344.426 234.847 343.792 235.131 343.034L238.37 343.943C238.029 345.042 237.456 346.008 236.651 346.841C235.846 347.665 234.852 348.309 233.668 348.773C232.485 349.227 231.154 349.455 229.677 349.455ZM256.31 334.966V338.091H243.583V334.966H256.31ZM272.379 319.909V349H268.857V323.602H268.686L261.584 328.318V324.739L268.857 319.909H272.379Z" fill="black"/>
<circle cx="93.5" cy="335.5" r="8.5" fill="#D9D9D9"/>
<path d="M93.2126 26.7273C92.296 26.7273 91.4588 26.5038 90.7013 26.0568C89.9437 25.6023 89.3376 24.9962 88.8831 24.2386C88.4361 23.4811 88.2126 22.6439 88.2126 21.7273C88.2126 20.803 88.4361 19.9659 88.8831 19.2159C89.3376 18.4583 89.9437 17.8561 90.7013 17.4091C91.4588 16.9545 92.296 16.7273 93.2126 16.7273C94.1369 16.7273 94.974 16.9545 95.724 17.4091C96.4816 17.8561 97.0838 18.4583 97.5308 19.2159C97.9854 19.9659 98.2126 20.803 98.2126 21.7273C98.2126 22.6439 97.9854 23.4811 97.5308 24.2386C97.0838 24.9962 96.4816 25.6023 95.724 26.0568C94.974 26.5038 94.1369 26.7273 93.2126 26.7273ZM118.613 10.75V7.72727H136.625V10.75H129.363V31H125.863V10.75H118.613ZM145.153 31.3523C143.517 31.3523 142.089 30.9773 140.869 30.2273C139.649 29.4773 138.702 28.428 138.028 27.0795C137.354 25.7311 137.017 24.1553 137.017 22.3523C137.017 20.5417 137.354 18.9583 138.028 17.6023C138.702 16.2462 139.649 15.1932 140.869 14.4432C142.089 13.6932 143.517 13.3182 145.153 13.3182C146.789 13.3182 148.217 13.6932 149.437 14.4432C150.657 15.1932 151.604 16.2462 152.278 17.6023C152.952 18.9583 153.289 20.5417 153.289 22.3523C153.289 24.1553 152.952 25.7311 152.278 27.0795C151.604 28.428 150.657 29.4773 149.437 30.2273C148.217 30.9773 146.789 31.3523 145.153 31.3523ZM145.164 28.5C146.225 28.5 147.104 28.2197 147.801 27.6591C148.498 27.0985 149.013 26.3523 149.346 25.4205C149.687 24.4886 149.858 23.4621 149.858 22.3409C149.858 21.2273 149.687 20.2045 149.346 19.2727C149.013 18.3333 148.498 17.5795 147.801 17.0114C147.104 16.4432 146.225 16.1591 145.164 16.1591C144.096 16.1591 143.21 16.4432 142.505 17.0114C141.808 17.5795 141.289 18.3333 140.948 19.2727C140.615 20.2045 140.448 21.2273 140.448 22.3409C140.448 23.4621 140.615 24.4886 140.948 25.4205C141.289 26.3523 141.808 27.0985 142.505 27.6591C143.21 28.2197 144.096 28.5 145.164 28.5ZM165.823 31V7.72727H174.346C175.998 7.72727 177.365 8 178.448 8.54545C179.532 9.08333 180.342 9.81439 180.88 10.7386C181.418 11.6553 181.687 12.6894 181.687 13.8409C181.687 14.8106 181.509 15.6288 181.153 16.2955C180.797 16.9545 180.32 17.4848 179.721 17.8864C179.13 18.2803 178.479 18.5682 177.767 18.75V18.9773C178.539 19.0152 179.293 19.2652 180.028 19.7273C180.77 20.1818 181.384 20.8295 181.869 21.6705C182.354 22.5114 182.596 23.5341 182.596 24.7386C182.596 25.928 182.316 26.9962 181.755 27.9432C181.202 28.8826 180.346 29.6288 179.187 30.1818C178.028 30.7273 176.547 31 174.744 31H165.823ZM169.335 27.9886H174.403C176.085 27.9886 177.289 27.6629 178.017 27.0114C178.744 26.3598 179.108 25.5455 179.108 24.5682C179.108 23.8333 178.922 23.1591 178.551 22.5455C178.179 21.9318 177.649 21.4432 176.96 21.0795C176.278 20.7159 175.467 20.5341 174.528 20.5341H169.335V27.9886ZM169.335 17.7955H174.039C174.827 17.7955 175.536 17.6439 176.164 17.3409C176.801 17.0379 177.304 16.6136 177.676 16.0682C178.054 15.5152 178.244 14.8636 178.244 14.1136C178.244 13.1515 177.907 12.3447 177.233 11.6932C176.558 11.0417 175.524 10.7159 174.13 10.7159H169.335V17.7955ZM194.011 31.3523C192.291 31.3523 190.81 30.9848 189.568 30.25C188.333 29.5076 187.378 28.4659 186.704 27.125C186.037 25.7765 185.704 24.197 185.704 22.3864C185.704 20.5985 186.037 19.0227 186.704 17.6591C187.378 16.2955 188.318 15.2311 189.522 14.4659C190.734 13.7008 192.151 13.3182 193.772 13.3182C194.757 13.3182 195.712 13.4811 196.636 13.8068C197.56 14.1326 198.39 14.6439 199.125 15.3409C199.859 16.0379 200.439 16.9432 200.863 18.0568C201.287 19.1629 201.5 20.5076 201.5 22.0909V23.2955H187.625V20.75H198.17C198.17 19.8561 197.988 19.0644 197.625 18.375C197.261 17.678 196.75 17.1288 196.09 16.7273C195.439 16.3258 194.674 16.125 193.795 16.125C192.84 16.125 192.007 16.3598 191.295 16.8295C190.59 17.2917 190.045 17.8977 189.659 18.6477C189.28 19.3902 189.09 20.197 189.09 21.0682V23.0568C189.09 24.2235 189.295 25.2159 189.704 26.0341C190.121 26.8523 190.7 27.4773 191.443 27.9091C192.185 28.3333 193.053 28.5455 194.045 28.5455C194.689 28.5455 195.276 28.4545 195.806 28.2727C196.337 28.0833 196.795 27.803 197.181 27.4318C197.568 27.0606 197.863 26.6023 198.068 26.0568L201.284 26.6364C201.026 27.5833 200.564 28.4129 199.897 29.125C199.238 29.8295 198.409 30.3788 197.409 30.7727C196.416 31.1591 195.284 31.3523 194.011 31.3523ZM215.977 31H212.25L220.625 7.72727H224.681L233.056 31H229.329L222.75 11.9545H222.568L215.977 31ZM216.602 21.8864H228.693V24.8409H216.602V21.8864ZM239.542 20.6364V31H236.144V13.5455H239.406V16.3864H239.622C240.023 15.4621 240.652 14.7197 241.508 14.1591C242.372 13.5985 243.459 13.3182 244.769 13.3182C245.959 13.3182 247.001 13.5682 247.894 14.0682C248.788 14.5606 249.482 15.2955 249.974 16.2727C250.466 17.25 250.713 18.4583 250.713 19.8977V31H247.315V20.3068C247.315 19.0417 246.985 18.053 246.326 17.3409C245.667 16.6212 244.762 16.2614 243.61 16.2614C242.822 16.2614 242.122 16.4318 241.508 16.7727C240.902 17.1136 240.421 17.6136 240.065 18.2727C239.716 18.9242 239.542 19.7121 239.542 20.6364ZM258.667 20.6364V31H255.269V13.5455H258.531V16.3864H258.747C259.148 15.4621 259.777 14.7197 260.633 14.1591C261.497 13.5985 262.584 13.3182 263.894 13.3182C265.084 13.3182 266.126 13.5682 267.019 14.0682C267.913 14.5606 268.607 15.2955 269.099 16.2727C269.591 17.25 269.838 18.4583 269.838 19.8977V31H266.44V20.3068C266.44 19.0417 266.11 18.053 265.451 17.3409C264.792 16.6212 263.887 16.2614 262.735 16.2614C261.947 16.2614 261.247 16.4318 260.633 16.7727C260.027 17.1136 259.546 17.6136 259.19 18.2727C258.841 18.9242 258.667 19.7121 258.667 20.6364ZM281.747 31.3523C280.11 31.3523 278.682 30.9773 277.463 30.2273C276.243 29.4773 275.296 28.428 274.622 27.0795C273.947 25.7311 273.61 24.1553 273.61 22.3523C273.61 20.5417 273.947 18.9583 274.622 17.6023C275.296 16.2462 276.243 15.1932 277.463 14.4432C278.682 13.6932 280.11 13.3182 281.747 13.3182C283.383 13.3182 284.811 13.6932 286.031 14.4432C287.251 15.1932 288.197 16.2462 288.872 17.6023C289.546 18.9583 289.883 20.5417 289.883 22.3523C289.883 24.1553 289.546 25.7311 288.872 27.0795C288.197 28.428 287.251 29.4773 286.031 30.2273C284.811 30.9773 283.383 31.3523 281.747 31.3523ZM281.758 28.5C282.819 28.5 283.697 28.2197 284.394 27.6591C285.091 27.0985 285.607 26.3523 285.94 25.4205C286.281 24.4886 286.451 23.4621 286.451 22.3409C286.451 21.2273 286.281 20.2045 285.94 19.2727C285.607 18.3333 285.091 17.5795 284.394 17.0114C283.697 16.4432 282.819 16.1591 281.758 16.1591C280.69 16.1591 279.804 16.4432 279.099 17.0114C278.402 17.5795 277.883 18.3333 277.542 19.2727C277.209 20.2045 277.042 21.2273 277.042 22.3409C277.042 23.4621 277.209 24.4886 277.542 25.4205C277.883 26.3523 278.402 27.0985 279.099 27.6591C279.804 28.2197 280.69 28.5 281.758 28.5ZM304.733 23.7614V13.5455H308.142V31H304.801V27.9773H304.619C304.217 28.9091 303.573 29.6856 302.687 30.3068C301.808 30.9205 300.714 31.2273 299.403 31.2273C298.282 31.2273 297.289 30.9811 296.426 30.4886C295.57 29.9886 294.895 29.25 294.403 28.2727C293.918 27.2955 293.676 26.0871 293.676 24.6477V13.5455H297.073V24.2386C297.073 25.428 297.403 26.375 298.062 27.0795C298.721 27.7841 299.577 28.1364 300.63 28.1364C301.267 28.1364 301.899 27.9773 302.528 27.6591C303.164 27.3409 303.691 26.8598 304.108 26.2159C304.532 25.572 304.74 24.7538 304.733 23.7614ZM316.105 20.6364V31H312.707V13.5455H315.968V16.3864H316.184C316.586 15.4621 317.215 14.7197 318.071 14.1591C318.934 13.5985 320.021 13.3182 321.332 13.3182C322.521 13.3182 323.563 13.5682 324.457 14.0682C325.351 14.5606 326.044 15.2955 326.536 16.2727C327.029 17.25 327.275 18.4583 327.275 19.8977V31H323.877V20.3068C323.877 19.0417 323.548 18.053 322.889 17.3409C322.23 16.6212 321.324 16.2614 320.173 16.2614C319.385 16.2614 318.684 16.4318 318.071 16.7727C317.465 17.1136 316.983 17.6136 316.627 18.2727C316.279 18.9242 316.105 19.7121 316.105 20.6364ZM339.184 31.3523C337.495 31.3523 336.04 30.9697 334.821 30.2045C333.608 29.4318 332.677 28.3674 332.025 27.0114C331.374 25.6553 331.048 24.1023 331.048 22.3523C331.048 20.5795 331.381 19.0152 332.048 17.6591C332.715 16.2955 333.654 15.2311 334.866 14.4659C336.078 13.7008 337.506 13.3182 339.15 13.3182C340.476 13.3182 341.658 13.5644 342.696 14.0568C343.733 14.5417 344.571 15.2235 345.207 16.1023C345.851 16.9811 346.233 18.0076 346.355 19.1818H343.048C342.866 18.3636 342.449 17.6591 341.798 17.0682C341.154 16.4773 340.29 16.1818 339.207 16.1818C338.26 16.1818 337.43 16.4318 336.718 16.9318C336.014 17.4242 335.465 18.1288 335.071 19.0455C334.677 19.9545 334.48 21.0303 334.48 22.2727C334.48 23.5455 334.673 24.6439 335.059 25.5682C335.446 26.4924 335.991 27.2083 336.696 27.7159C337.408 28.2235 338.245 28.4773 339.207 28.4773C339.851 28.4773 340.434 28.3598 340.957 28.125C341.487 27.8826 341.93 27.5379 342.286 27.0909C342.65 26.6439 342.904 26.1061 343.048 25.4773H346.355C346.233 26.6061 345.866 27.6136 345.252 28.5C344.639 29.3864 343.817 30.0833 342.786 30.5909C341.764 31.0985 340.563 31.3523 339.184 31.3523ZM357.511 31.3523C355.791 31.3523 354.31 30.9848 353.068 30.25C351.833 29.5076 350.878 28.4659 350.204 27.125C349.537 25.7765 349.204 24.197 349.204 22.3864C349.204 20.5985 349.537 19.0227 350.204 17.6591C350.878 16.2955 351.818 15.2311 353.022 14.4659C354.234 13.7008 355.651 13.3182 357.272 13.3182C358.257 13.3182 359.212 13.4811 360.136 13.8068C361.06 14.1326 361.89 14.6439 362.625 15.3409C363.359 16.0379 363.939 16.9432 364.363 18.0568C364.787 19.1629 365 20.5076 365 22.0909V23.2955H351.125V20.75H361.67C361.67 19.8561 361.488 19.0644 361.125 18.375C360.761 17.678 360.25 17.1288 359.59 16.7273C358.939 16.3258 358.174 16.125 357.295 16.125C356.34 16.125 355.507 16.3598 354.795 16.8295C354.09 17.2917 353.545 17.8977 353.159 18.6477C352.78 19.3902 352.59 20.197 352.59 21.0682V23.0568C352.59 24.2235 352.795 25.2159 353.204 26.0341C353.621 26.8523 354.2 27.4773 354.943 27.9091C355.685 28.3333 356.553 28.5455 357.545 28.5455C358.189 28.5455 358.776 28.4545 359.306 28.2727C359.837 28.0833 360.295 27.803 360.681 27.4318C361.068 27.0606 361.363 26.6023 361.568 26.0568L364.784 26.6364C364.526 27.5833 364.064 28.4129 363.397 29.125C362.738 29.8295 361.909 30.3788 360.909 30.7727C359.916 31.1591 358.784 31.3523 357.511 31.3523ZM375.304 31.3409C373.894 31.3409 372.637 30.9811 371.531 30.2614C370.432 29.5341 369.569 28.5 368.94 27.1591C368.319 25.8106 368.008 24.1932 368.008 22.3068C368.008 20.4205 368.322 18.8068 368.951 17.4659C369.588 16.125 370.459 15.0985 371.565 14.3864C372.671 13.6742 373.925 13.3182 375.326 13.3182C376.41 13.3182 377.281 13.5 377.94 13.8636C378.607 14.2197 379.122 14.6364 379.485 15.1136C379.857 15.5909 380.144 16.0114 380.349 16.375H380.554V7.72727H383.951V31H380.633V28.2841H380.349C380.144 28.6553 379.849 29.0795 379.463 29.5568C379.084 30.0341 378.561 30.4508 377.894 30.8068C377.228 31.1629 376.364 31.3409 375.304 31.3409ZM376.054 28.4432C377.031 28.4432 377.857 28.1856 378.531 27.6705C379.213 27.1477 379.728 26.4242 380.076 25.5C380.432 24.5758 380.61 23.5 380.61 22.2727C380.61 21.0606 380.436 20 380.088 19.0909C379.739 18.1818 379.228 17.4735 378.554 16.9659C377.879 16.4583 377.046 16.2045 376.054 16.2045C375.031 16.2045 374.179 16.4697 373.497 17C372.815 17.5303 372.3 18.2538 371.951 19.1705C371.61 20.0871 371.44 21.1212 371.44 22.2727C371.44 23.4394 371.614 24.4886 371.963 25.4205C372.311 26.3523 372.826 27.0909 373.508 27.6364C374.197 28.1742 375.046 28.4432 376.054 28.4432Z" fill="#4CC9F0"/>
<line x1="93.7041" y1="20" x2="93.7041" y2="335" stroke="#0FA9D9"/>
</svg>
