<svg width="646" height="627" viewBox="0 0 646 627" fill="none" xmlns="http://www.w3.org/2000/svg">
<path d="M368 340L314 384.167V295.833L368 340Z" fill="#4CC9F0"/>
<path fill-rule="evenodd" clip-rule="evenodd" d="M0.205078 384L54.0005 340L0.205078 296H314.001V384H0.205078Z" fill="#4CC9F0"/>
<path d="M128.523 349V319.909H138.352C140.634 319.909 142.5 320.321 143.949 321.145C145.407 321.959 146.487 323.062 147.188 324.455C147.888 325.847 148.239 327.4 148.239 329.114C148.239 330.828 147.888 332.385 147.188 333.787C146.496 335.188 145.426 336.306 143.977 337.139C142.528 337.963 140.672 338.375 138.409 338.375H131.364V335.25H138.295C139.858 335.25 141.113 334.98 142.06 334.44C143.007 333.901 143.693 333.171 144.119 332.253C144.555 331.325 144.773 330.278 144.773 329.114C144.773 327.949 144.555 326.907 144.119 325.989C143.693 325.07 143.002 324.35 142.045 323.83C141.089 323.299 139.82 323.034 138.239 323.034H132.045V349H128.523ZM156.811 335.875V349H153.459V319.909H156.811V330.591H157.095C157.607 329.464 158.374 328.569 159.396 327.906C160.429 327.234 161.802 326.898 163.516 326.898C165.002 326.898 166.304 327.196 167.422 327.793C168.539 328.38 169.406 329.284 170.021 330.506C170.646 331.718 170.959 333.261 170.959 335.136V349H167.607V335.364C167.607 333.631 167.157 332.291 166.257 331.344C165.367 330.387 164.131 329.909 162.55 329.909C161.451 329.909 160.466 330.141 159.595 330.605C158.733 331.069 158.052 331.746 157.55 332.636C157.057 333.527 156.811 334.606 156.811 335.875ZM183.512 349.511C182.129 349.511 180.875 349.251 179.748 348.73C178.621 348.2 177.726 347.438 177.063 346.443C176.4 345.439 176.069 344.227 176.069 342.807C176.069 341.557 176.315 340.544 176.808 339.767C177.3 338.981 177.958 338.366 178.782 337.92C179.606 337.475 180.515 337.144 181.509 336.926C182.513 336.699 183.522 336.519 184.535 336.386C185.861 336.216 186.935 336.088 187.759 336.003C188.593 335.908 189.199 335.752 189.577 335.534C189.966 335.316 190.16 334.937 190.16 334.398V334.284C190.16 332.883 189.776 331.794 189.009 331.017C188.252 330.241 187.101 329.852 185.558 329.852C183.957 329.852 182.702 330.203 181.793 330.903C180.884 331.604 180.245 332.352 179.876 333.148L176.694 332.011C177.262 330.686 178.02 329.653 178.967 328.915C179.923 328.167 180.965 327.646 182.092 327.352C183.228 327.049 184.345 326.898 185.444 326.898C186.145 326.898 186.95 326.983 187.859 327.153C188.777 327.314 189.663 327.651 190.515 328.162C191.377 328.673 192.092 329.445 192.66 330.477C193.228 331.509 193.512 332.892 193.512 334.625V349H190.16V346.045H189.989C189.762 346.519 189.383 347.026 188.853 347.565C188.323 348.105 187.617 348.564 186.737 348.943C185.856 349.322 184.781 349.511 183.512 349.511ZM184.023 346.5C185.349 346.5 186.467 346.24 187.376 345.719C188.294 345.198 188.986 344.526 189.45 343.702C189.923 342.878 190.16 342.011 190.16 341.102V338.034C190.018 338.205 189.705 338.361 189.222 338.503C188.749 338.635 188.2 338.754 187.575 338.858C186.959 338.953 186.358 339.038 185.771 339.114C185.193 339.18 184.724 339.237 184.364 339.284C183.493 339.398 182.679 339.582 181.921 339.838C181.173 340.084 180.567 340.458 180.103 340.96C179.648 341.453 179.421 342.125 179.421 342.977C179.421 344.142 179.852 345.023 180.714 345.619C181.585 346.206 182.688 346.5 184.023 346.5ZM215.085 332.068L212.074 332.92C211.884 332.419 211.605 331.931 211.236 331.457C210.876 330.974 210.384 330.577 209.759 330.264C209.134 329.952 208.333 329.795 207.358 329.795C206.023 329.795 204.91 330.103 204.02 330.719C203.139 331.325 202.699 332.097 202.699 333.034C202.699 333.867 203.002 334.526 203.608 335.009C204.214 335.491 205.161 335.894 206.449 336.216L209.688 337.011C211.638 337.485 213.092 338.209 214.048 339.185C215.005 340.151 215.483 341.396 215.483 342.92C215.483 344.17 215.123 345.288 214.403 346.273C213.693 347.258 212.699 348.034 211.42 348.602C210.142 349.17 208.655 349.455 206.96 349.455C204.735 349.455 202.893 348.972 201.435 348.006C199.976 347.04 199.053 345.629 198.665 343.773L201.847 342.977C202.15 344.152 202.723 345.032 203.565 345.619C204.418 346.206 205.53 346.5 206.903 346.5C208.466 346.5 209.706 346.169 210.625 345.506C211.553 344.833 212.017 344.028 212.017 343.091C212.017 342.333 211.752 341.699 211.222 341.188C210.691 340.667 209.877 340.278 208.778 340.023L205.142 339.17C203.144 338.697 201.676 337.963 200.739 336.969C199.811 335.965 199.347 334.71 199.347 333.205C199.347 331.973 199.692 330.884 200.384 329.938C201.084 328.991 202.036 328.247 203.239 327.707C204.451 327.168 205.824 326.898 207.358 326.898C209.517 326.898 211.212 327.371 212.443 328.318C213.684 329.265 214.564 330.515 215.085 332.068ZM229.677 349.455C227.575 349.455 225.761 348.991 224.237 348.062C222.721 347.125 221.552 345.818 220.728 344.142C219.914 342.456 219.506 340.496 219.506 338.261C219.506 336.027 219.914 334.057 220.728 332.352C221.552 330.638 222.698 329.303 224.165 328.347C225.643 327.381 227.366 326.898 229.336 326.898C230.472 326.898 231.594 327.087 232.702 327.466C233.81 327.845 234.819 328.46 235.728 329.312C236.637 330.155 237.362 331.273 237.901 332.665C238.441 334.057 238.711 335.771 238.711 337.807V339.227H221.893V336.33H235.302C235.302 335.098 235.056 334 234.563 333.034C234.08 332.068 233.389 331.306 232.489 330.747C231.599 330.188 230.548 329.909 229.336 329.909C228.001 329.909 226.845 330.241 225.87 330.903C224.904 331.557 224.161 332.409 223.64 333.46C223.119 334.511 222.859 335.638 222.859 336.841V338.773C222.859 340.42 223.143 341.817 223.711 342.963C224.289 344.099 225.089 344.966 226.112 345.562C227.134 346.15 228.323 346.443 229.677 346.443C230.558 346.443 231.353 346.32 232.063 346.074C232.783 345.818 233.403 345.439 233.924 344.938C234.445 344.426 234.847 343.792 235.131 343.034L238.37 343.943C238.029 345.042 237.456 346.008 236.651 346.841C235.846 347.665 234.852 348.309 233.668 348.773C232.485 349.227 231.154 349.455 229.677 349.455ZM256.31 334.966V338.091H243.583V334.966H256.31ZM272.379 319.909V349H268.857V323.602H268.686L261.584 328.318V324.739L268.857 319.909H272.379Z" fill="black"/>
<circle cx="93.5" cy="335.5" r="8.5" fill="#D9D9D9"/>
<path d="M93.2136 26.7273C92.2969 26.7273 91.4598 26.5038 90.7022 26.0568C89.9447 25.6023 89.3386 24.9962 88.8841 24.2386C88.4371 23.4811 88.2136 22.6439 88.2136 21.7273C88.2136 20.803 88.4371 19.9659 88.8841 19.2159C89.3386 18.4583 89.9447 17.8561 90.7022 17.4091C91.4598 16.9545 92.2969 16.7273 93.2136 16.7273C94.1378 16.7273 94.975 16.9545 95.725 17.4091C96.4825 17.8561 97.0848 18.4583 97.5318 19.2159C97.9863 19.9659 98.2136 20.803 98.2136 21.7273C98.2136 22.6439 97.9863 23.4811 97.5318 24.2386C97.0848 24.9962 96.4825 25.6023 95.725 26.0568C94.975 26.5038 94.1378 26.7273 93.2136 26.7273ZM119.762 31V7.72727H123.273V27.9773H133.819V31H119.762ZM142.631 31.3864C141.525 31.3864 140.525 31.1818 139.631 30.7727C138.737 30.3561 138.029 29.7538 137.506 28.9659C136.991 28.178 136.733 27.2121 136.733 26.0682C136.733 25.0833 136.923 24.2727 137.302 23.6364C137.68 23 138.192 22.4962 138.836 22.125C139.48 21.7538 140.199 21.4735 140.995 21.2841C141.79 21.0947 142.601 20.9508 143.427 20.8523C144.472 20.7311 145.321 20.6326 145.972 20.5568C146.624 20.4735 147.097 20.3409 147.393 20.1591C147.688 19.9773 147.836 19.6818 147.836 19.2727V19.1932C147.836 18.2008 147.555 17.4318 146.995 16.8864C146.442 16.3409 145.616 16.0682 144.518 16.0682C143.374 16.0682 142.472 16.322 141.813 16.8295C141.162 17.3295 140.711 17.8864 140.461 18.5L137.268 17.7727C137.646 16.7121 138.199 15.8561 138.927 15.2045C139.662 14.5455 140.506 14.0682 141.461 13.7727C142.415 13.4697 143.419 13.3182 144.472 13.3182C145.169 13.3182 145.908 13.4015 146.688 13.5682C147.476 13.7273 148.211 14.0227 148.893 14.4545C149.582 14.8864 150.146 15.5038 150.586 16.3068C151.025 17.1023 151.245 18.1364 151.245 19.4091V31H147.927V28.6136H147.79C147.571 29.053 147.241 29.4848 146.802 29.9091C146.362 30.3333 145.798 30.6856 145.108 30.9659C144.419 31.2462 143.593 31.3864 142.631 31.3864ZM143.37 28.6591C144.309 28.6591 145.112 28.4735 145.779 28.1023C146.453 27.7311 146.965 27.2462 147.313 26.6477C147.669 26.0417 147.847 25.3939 147.847 24.7045V22.4545C147.726 22.5758 147.491 22.6894 147.143 22.7955C146.802 22.8939 146.412 22.9811 145.972 23.0568C145.533 23.125 145.105 23.1894 144.688 23.25C144.271 23.303 143.923 23.3485 143.643 23.3864C142.983 23.4697 142.381 23.6098 141.836 23.8068C141.298 24.0038 140.866 24.2879 140.54 24.6591C140.222 25.0227 140.063 25.5076 140.063 26.1136C140.063 26.9545 140.374 27.5909 140.995 28.0227C141.616 28.447 142.408 28.6591 143.37 28.6591ZM166.827 23.7614V13.5455H170.236V31H166.895V27.9773H166.714C166.312 28.9091 165.668 29.6856 164.782 30.3068C163.903 30.9205 162.808 31.2273 161.498 31.2273C160.376 31.2273 159.384 30.9811 158.52 30.4886C157.664 29.9886 156.99 29.25 156.498 28.2727C156.013 27.2955 155.77 26.0871 155.77 24.6477V13.5455H159.168V24.2386C159.168 25.428 159.498 26.375 160.157 27.0795C160.816 27.7841 161.672 28.1364 162.725 28.1364C163.361 28.1364 163.994 27.9773 164.623 27.6591C165.259 27.3409 165.786 26.8598 166.202 26.2159C166.626 25.572 166.835 24.7538 166.827 23.7614ZM178.199 20.6364V31H174.802V13.5455H178.063V16.3864H178.279C178.68 15.4621 179.309 14.7197 180.165 14.1591C181.029 13.5985 182.116 13.3182 183.427 13.3182C184.616 13.3182 185.658 13.5682 186.552 14.0682C187.446 14.5606 188.139 15.2955 188.631 16.2727C189.124 17.25 189.37 18.4583 189.37 19.8977V31H185.972V20.3068C185.972 19.0417 185.643 18.053 184.983 17.3409C184.324 16.6212 183.419 16.2614 182.268 16.2614C181.48 16.2614 180.779 16.4318 180.165 16.7727C179.559 17.1136 179.078 17.6136 178.722 18.2727C178.374 18.9242 178.199 19.7121 178.199 20.6364ZM201.279 31.3523C199.59 31.3523 198.135 30.9697 196.915 30.2045C195.703 29.4318 194.771 28.3674 194.12 27.0114C193.468 25.6553 193.143 24.1023 193.143 22.3523C193.143 20.5795 193.476 19.0152 194.143 17.6591C194.809 16.2955 195.749 15.2311 196.961 14.4659C198.173 13.7008 199.601 13.3182 201.245 13.3182C202.571 13.3182 203.752 13.5644 204.79 14.0568C205.828 14.5417 206.665 15.2235 207.302 16.1023C207.946 16.9811 208.328 18.0076 208.449 19.1818H205.143C204.961 18.3636 204.544 17.6591 203.893 17.0682C203.249 16.4773 202.385 16.1818 201.302 16.1818C200.355 16.1818 199.525 16.4318 198.813 16.9318C198.108 17.4242 197.559 18.1288 197.165 19.0455C196.771 19.9545 196.574 21.0303 196.574 22.2727C196.574 23.5455 196.768 24.6439 197.154 25.5682C197.54 26.4924 198.086 27.2083 198.79 27.7159C199.502 28.2235 200.34 28.4773 201.302 28.4773C201.946 28.4773 202.529 28.3598 203.052 28.125C203.582 27.8826 204.025 27.5379 204.381 27.0909C204.745 26.6439 204.999 26.1061 205.143 25.4773H208.449C208.328 26.6061 207.961 27.6136 207.347 28.5C206.733 29.3864 205.912 30.0833 204.881 30.5909C203.858 31.0985 202.658 31.3523 201.279 31.3523ZM215.481 20.6364V31H212.083V7.72727H215.435V16.3864H215.651C216.06 15.447 216.685 14.7008 217.526 14.1477C218.367 13.5947 219.465 13.3182 220.822 13.3182C222.019 13.3182 223.064 13.5644 223.958 14.0568C224.859 14.5492 225.556 15.2841 226.049 16.2614C226.549 17.2311 226.799 18.4432 226.799 19.8977V31H223.401V20.3068C223.401 19.0265 223.072 18.0341 222.412 17.3295C221.753 16.6174 220.837 16.2614 219.662 16.2614C218.859 16.2614 218.14 16.4318 217.503 16.7727C216.875 17.1136 216.378 17.6136 216.015 18.2727C215.659 18.9242 215.481 19.7121 215.481 20.6364ZM247.154 31.3523C245.518 31.3523 244.09 30.9773 242.87 30.2273C241.65 29.4773 240.703 28.428 240.029 27.0795C239.355 25.7311 239.018 24.1553 239.018 22.3523C239.018 20.5417 239.355 18.9583 240.029 17.6023C240.703 16.2462 241.65 15.1932 242.87 14.4432C244.09 13.6932 245.518 13.3182 247.154 13.3182C248.79 13.3182 250.218 13.6932 251.438 14.4432C252.658 15.1932 253.605 16.2462 254.279 17.6023C254.953 18.9583 255.29 20.5417 255.29 22.3523C255.29 24.1553 254.953 25.7311 254.279 27.0795C253.605 28.428 252.658 29.4773 251.438 30.2273C250.218 30.9773 248.79 31.3523 247.154 31.3523ZM247.165 28.5C248.226 28.5 249.105 28.2197 249.802 27.6591C250.499 27.0985 251.014 26.3523 251.347 25.4205C251.688 24.4886 251.858 23.4621 251.858 22.3409C251.858 21.2273 251.688 20.2045 251.347 19.2727C251.014 18.3333 250.499 17.5795 249.802 17.0114C249.105 16.4432 248.226 16.1591 247.165 16.1591C246.097 16.1591 245.211 16.4432 244.506 17.0114C243.809 17.5795 243.29 18.3333 242.949 19.2727C242.616 20.2045 242.449 21.2273 242.449 22.3409C242.449 23.4621 242.616 24.4886 242.949 25.4205C243.29 26.3523 243.809 27.0985 244.506 27.6591C245.211 28.2197 246.097 28.5 247.165 28.5ZM267.39 13.5455V16.2727H257.526V13.5455H267.39ZM260.231 31V11.5227C260.231 10.4318 260.469 9.52651 260.947 8.80682C261.424 8.07954 262.056 7.53788 262.844 7.18182C263.632 6.81818 264.488 6.63636 265.412 6.63636C266.094 6.63636 266.678 6.69318 267.162 6.80682C267.647 6.91288 268.007 7.01136 268.242 7.10227L267.447 9.85227C267.287 9.80682 267.083 9.75379 266.833 9.69318C266.583 9.625 266.28 9.59091 265.924 9.59091C265.098 9.59091 264.507 9.79545 264.151 10.2045C263.803 10.6136 263.628 11.2045 263.628 11.9773V31H260.231ZM292.444 17.8068L289.364 18.3523C289.235 17.9583 289.031 17.5833 288.751 17.2273C288.478 16.8712 288.107 16.5795 287.637 16.3523C287.167 16.125 286.58 16.0114 285.876 16.0114C284.913 16.0114 284.11 16.2273 283.466 16.6591C282.823 17.0833 282.501 17.6326 282.501 18.3068C282.501 18.8902 282.716 19.3598 283.148 19.7159C283.58 20.072 284.277 20.3636 285.239 20.5909L288.012 21.2273C289.618 21.5985 290.815 22.1705 291.603 22.9432C292.391 23.7159 292.785 24.7197 292.785 25.9545C292.785 27 292.482 27.9318 291.876 28.75C291.277 29.5606 290.44 30.197 289.364 30.6591C288.296 31.1212 287.057 31.3523 285.648 31.3523C283.694 31.3523 282.099 30.9356 280.864 30.1023C279.629 29.2614 278.872 28.0682 278.591 26.5227L281.876 26.0227C282.08 26.8788 282.501 27.5265 283.137 27.9659C283.773 28.3977 284.603 28.6136 285.626 28.6136C286.739 28.6136 287.629 28.3826 288.296 27.9205C288.963 27.4508 289.296 26.8788 289.296 26.2045C289.296 25.6591 289.091 25.2008 288.682 24.8295C288.281 24.4583 287.663 24.178 286.83 23.9886L283.876 23.3409C282.247 22.9697 281.042 22.3788 280.262 21.5682C279.489 20.7576 279.103 19.7311 279.103 18.4886C279.103 17.4583 279.391 16.5568 279.966 15.7841C280.542 15.0114 281.338 14.4091 282.353 13.9773C283.368 13.5379 284.531 13.3182 285.841 13.3182C287.728 13.3182 289.213 13.7273 290.296 14.5455C291.379 15.3561 292.095 16.4432 292.444 17.8068ZM303.873 31.3523C302.236 31.3523 300.808 30.9773 299.589 30.2273C298.369 29.4773 297.422 28.428 296.748 27.0795C296.073 25.7311 295.736 24.1553 295.736 22.3523C295.736 20.5417 296.073 18.9583 296.748 17.6023C297.422 16.2462 298.369 15.1932 299.589 14.4432C300.808 13.6932 302.236 13.3182 303.873 13.3182C305.509 13.3182 306.937 13.6932 308.157 14.4432C309.376 15.1932 310.323 16.2462 310.998 17.6023C311.672 18.9583 312.009 20.5417 312.009 22.3523C312.009 24.1553 311.672 25.7311 310.998 27.0795C310.323 28.428 309.376 29.4773 308.157 30.2273C306.937 30.9773 305.509 31.3523 303.873 31.3523ZM303.884 28.5C304.945 28.5 305.823 28.2197 306.52 27.6591C307.217 27.0985 307.733 26.3523 308.066 25.4205C308.407 24.4886 308.577 23.4621 308.577 22.3409C308.577 21.2273 308.407 20.2045 308.066 19.2727C307.733 18.3333 307.217 17.5795 306.52 17.0114C305.823 16.4432 304.945 16.1591 303.884 16.1591C302.816 16.1591 301.93 16.4432 301.225 17.0114C300.528 17.5795 300.009 18.3333 299.668 19.2727C299.335 20.2045 299.168 21.2273 299.168 22.3409C299.168 23.4621 299.335 24.4886 299.668 25.4205C300.009 26.3523 300.528 27.0985 301.225 27.6591C301.93 28.2197 302.816 28.5 303.884 28.5ZM323.154 31.3523C321.465 31.3523 320.01 30.9697 318.79 30.2045C317.578 29.4318 316.646 28.3674 315.995 27.0114C315.343 25.6553 315.018 24.1023 315.018 22.3523C315.018 20.5795 315.351 19.0152 316.018 17.6591C316.684 16.2955 317.624 15.2311 318.836 14.4659C320.048 13.7008 321.476 13.3182 323.12 13.3182C324.446 13.3182 325.627 13.5644 326.665 14.0568C327.703 14.5417 328.54 15.2235 329.177 16.1023C329.821 16.9811 330.203 18.0076 330.324 19.1818H327.018C326.836 18.3636 326.419 17.6591 325.768 17.0682C325.124 16.4773 324.26 16.1818 323.177 16.1818C322.23 16.1818 321.4 16.4318 320.688 16.9318C319.983 17.4242 319.434 18.1288 319.04 19.0455C318.646 19.9545 318.449 21.0303 318.449 22.2727C318.449 23.5455 318.643 24.6439 319.029 25.5682C319.415 26.4924 319.961 27.2083 320.665 27.7159C321.377 28.2235 322.215 28.4773 323.177 28.4773C323.821 28.4773 324.404 28.3598 324.927 28.125C325.457 27.8826 325.9 27.5379 326.256 27.0909C326.62 26.6439 326.874 26.1061 327.018 25.4773H330.324C330.203 26.6061 329.836 27.6136 329.222 28.5C328.608 29.3864 327.787 30.0833 326.756 30.5909C325.733 31.0985 324.533 31.3523 323.154 31.3523ZM333.958 31V13.5455H337.356V31H333.958ZM335.674 10.8523C335.083 10.8523 334.575 10.6553 334.151 10.2614C333.734 9.85985 333.526 9.38257 333.526 8.82954C333.526 8.26894 333.734 7.79167 334.151 7.39773C334.575 6.99621 335.083 6.79545 335.674 6.79545C336.265 6.79545 336.769 6.99621 337.185 7.39773C337.609 7.79167 337.822 8.26894 337.822 8.82954C337.822 9.38257 337.609 9.85985 337.185 10.2614C336.769 10.6553 336.265 10.8523 335.674 10.8523ZM347.006 31.3864C345.9 31.3864 344.9 31.1818 344.006 30.7727C343.112 30.3561 342.404 29.7538 341.881 28.9659C341.366 28.178 341.108 27.2121 341.108 26.0682C341.108 25.0833 341.298 24.2727 341.677 23.6364C342.055 23 342.567 22.4962 343.211 22.125C343.855 21.7538 344.574 21.4735 345.37 21.2841C346.165 21.0947 346.976 20.9508 347.802 20.8523C348.847 20.7311 349.696 20.6326 350.347 20.5568C350.999 20.4735 351.472 20.3409 351.768 20.1591C352.063 19.9773 352.211 19.6818 352.211 19.2727V19.1932C352.211 18.2008 351.93 17.4318 351.37 16.8864C350.817 16.3409 349.991 16.0682 348.893 16.0682C347.749 16.0682 346.847 16.322 346.188 16.8295C345.537 17.3295 345.086 17.8864 344.836 18.5L341.643 17.7727C342.021 16.7121 342.574 15.8561 343.302 15.2045C344.037 14.5455 344.881 14.0682 345.836 13.7727C346.79 13.4697 347.794 13.3182 348.847 13.3182C349.544 13.3182 350.283 13.4015 351.063 13.5682C351.851 13.7273 352.586 14.0227 353.268 14.4545C353.957 14.8864 354.521 15.5038 354.961 16.3068C355.4 17.1023 355.62 18.1364 355.62 19.4091V31H352.302V28.6136H352.165C351.946 29.053 351.616 29.4848 351.177 29.9091C350.737 30.3333 350.173 30.6856 349.483 30.9659C348.794 31.2462 347.968 31.3864 347.006 31.3864ZM347.745 28.6591C348.684 28.6591 349.487 28.4735 350.154 28.1023C350.828 27.7311 351.34 27.2462 351.688 26.6477C352.044 26.0417 352.222 25.3939 352.222 24.7045V22.4545C352.101 22.5758 351.866 22.6894 351.518 22.7955C351.177 22.8939 350.787 22.9811 350.347 23.0568C349.908 23.125 349.48 23.1894 349.063 23.25C348.646 23.303 348.298 23.3485 348.018 23.3864C347.358 23.4697 346.756 23.6098 346.211 23.8068C345.673 24.0038 345.241 24.2879 344.915 24.6591C344.597 25.0227 344.438 25.5076 344.438 26.1136C344.438 26.9545 344.749 27.5909 345.37 28.0227C345.991 28.447 346.783 28.6591 347.745 28.6591ZM363.543 7.72727V31H360.145V7.72727H363.543ZM380.367 31L375.231 13.5455H378.742L382.162 26.3636H382.333L385.765 13.5455H389.276L392.685 26.3068H392.856L396.253 13.5455H399.765L394.64 31H391.174L387.628 18.3977H387.367L383.822 31H380.367ZM409.981 31.3523C408.261 31.3523 406.78 30.9848 405.537 30.25C404.303 29.5076 403.348 28.4659 402.674 27.125C402.007 25.7765 401.674 24.197 401.674 22.3864C401.674 20.5985 402.007 19.0227 402.674 17.6591C403.348 16.2955 404.287 15.2311 405.492 14.4659C406.704 13.7008 408.121 13.3182 409.742 13.3182C410.727 13.3182 411.681 13.4811 412.606 13.8068C413.53 14.1326 414.359 14.6439 415.094 15.3409C415.829 16.0379 416.409 16.9432 416.833 18.0568C417.257 19.1629 417.469 20.5076 417.469 22.0909V23.2955H403.594V20.75H414.14C414.14 19.8561 413.958 19.0644 413.594 18.375C413.231 17.678 412.719 17.1288 412.06 16.7273C411.409 16.3258 410.644 16.125 409.765 16.125C408.81 16.125 407.977 16.3598 407.265 16.8295C406.56 17.2917 406.015 17.8977 405.628 18.6477C405.25 19.3902 405.06 20.197 405.06 21.0682V23.0568C405.06 24.2235 405.265 25.2159 405.674 26.0341C406.09 26.8523 406.67 27.4773 407.412 27.9091C408.155 28.3333 409.022 28.5455 410.015 28.5455C410.659 28.5455 411.246 28.4545 411.776 28.2727C412.306 28.0833 412.765 27.803 413.151 27.4318C413.537 27.0606 413.833 26.6023 414.037 26.0568L417.253 26.6364C416.996 27.5833 416.534 28.4129 415.867 29.125C415.208 29.8295 414.378 30.3788 413.378 30.7727C412.386 31.1591 411.253 31.3523 409.981 31.3523ZM421.512 31V7.72727H424.91V16.375H425.114C425.311 16.0114 425.595 15.5909 425.966 15.1136C426.338 14.6364 426.853 14.2197 427.512 13.8636C428.171 13.5 429.042 13.3182 430.126 13.3182C431.535 13.3182 432.792 13.6742 433.898 14.3864C435.004 15.0985 435.872 16.125 436.501 17.4659C437.137 18.8068 437.455 20.4205 437.455 22.3068C437.455 24.1932 437.141 25.8106 436.512 27.1591C435.883 28.5 435.019 29.5341 433.921 30.2614C432.823 30.9811 431.569 31.3409 430.16 31.3409C429.099 31.3409 428.232 31.1629 427.557 30.8068C426.891 30.4508 426.368 30.0341 425.989 29.5568C425.61 29.0795 425.319 28.6553 425.114 28.2841H424.83V31H421.512ZM424.841 22.2727C424.841 23.5 425.019 24.5758 425.376 25.5C425.732 26.4242 426.247 27.1477 426.921 27.6705C427.595 28.1856 428.421 28.4432 429.398 28.4432C430.413 28.4432 431.262 28.1742 431.944 27.6364C432.626 27.0909 433.141 26.3523 433.489 25.4205C433.845 24.4886 434.023 23.4394 434.023 22.2727C434.023 21.1212 433.849 20.0871 433.501 19.1705C433.16 18.2538 432.644 17.5303 431.955 17C431.273 16.4697 430.421 16.2045 429.398 16.2045C428.413 16.2045 427.58 16.4583 426.898 16.9659C426.224 17.4735 425.713 18.1818 425.364 19.0909C425.016 20 424.841 21.0606 424.841 22.2727ZM454.35 17.8068L451.27 18.3523C451.142 17.9583 450.937 17.5833 450.657 17.2273C450.384 16.8712 450.013 16.5795 449.543 16.3523C449.073 16.125 448.486 16.0114 447.782 16.0114C446.82 16.0114 446.017 16.2273 445.373 16.6591C444.729 17.0833 444.407 17.6326 444.407 18.3068C444.407 18.8902 444.623 19.3598 445.055 19.7159C445.486 20.072 446.183 20.3636 447.145 20.5909L449.918 21.2273C451.524 21.5985 452.721 22.1705 453.509 22.9432C454.297 23.7159 454.691 24.7197 454.691 25.9545C454.691 27 454.388 27.9318 453.782 28.75C453.183 29.5606 452.346 30.197 451.27 30.6591C450.202 31.1212 448.964 31.3523 447.555 31.3523C445.6 31.3523 444.005 30.9356 442.77 30.1023C441.536 29.2614 440.778 28.0682 440.498 26.5227L443.782 26.0227C443.986 26.8788 444.407 27.5265 445.043 27.9659C445.68 28.3977 446.509 28.6136 447.532 28.6136C448.645 28.6136 449.536 28.3826 450.202 27.9205C450.869 27.4508 451.202 26.8788 451.202 26.2045C451.202 25.6591 450.998 25.2008 450.589 24.8295C450.187 24.4583 449.57 24.178 448.736 23.9886L445.782 23.3409C444.153 22.9697 442.948 22.3788 442.168 21.5682C441.395 20.7576 441.009 19.7311 441.009 18.4886C441.009 17.4583 441.297 16.5568 441.873 15.7841C442.448 15.0114 443.244 14.4091 444.259 13.9773C445.274 13.5379 446.437 13.3182 447.748 13.3182C449.634 13.3182 451.119 13.7273 452.202 14.5455C453.286 15.3561 454.001 16.4432 454.35 17.8068ZM458.427 31V13.5455H461.824V31H458.427ZM460.143 10.8523C459.552 10.8523 459.044 10.6553 458.62 10.2614C458.203 9.85985 457.995 9.38257 457.995 8.82954C457.995 8.26894 458.203 7.79167 458.62 7.39773C459.044 6.99621 459.552 6.79545 460.143 6.79545C460.733 6.79545 461.237 6.99621 461.654 7.39773C462.078 7.79167 462.29 8.26894 462.29 8.82954C462.29 9.38257 462.078 9.85985 461.654 10.2614C461.237 10.6553 460.733 10.8523 460.143 10.8523ZM474.543 13.5455V16.2727H465.009V13.5455H474.543ZM467.566 9.36364H470.964V25.875C470.964 26.5341 471.062 27.0303 471.259 27.3636C471.456 27.6894 471.71 27.9129 472.02 28.0341C472.339 28.1477 472.683 28.2045 473.055 28.2045C473.327 28.2045 473.566 28.1856 473.77 28.1477C473.975 28.1098 474.134 28.0795 474.248 28.0568L474.861 30.8636C474.664 30.9394 474.384 31.0152 474.02 31.0909C473.657 31.1742 473.202 31.2197 472.657 31.2273C471.763 31.2424 470.93 31.0833 470.157 30.75C469.384 30.4167 468.759 29.9015 468.282 29.2045C467.805 28.5076 467.566 27.6326 467.566 26.5795V9.36364ZM485.637 31.3523C483.917 31.3523 482.436 30.9848 481.194 30.25C479.959 29.5076 479.004 28.4659 478.33 27.125C477.663 25.7765 477.33 24.197 477.33 22.3864C477.33 20.5985 477.663 19.0227 478.33 17.6591C479.004 16.2955 479.944 15.2311 481.148 14.4659C482.36 13.7008 483.777 13.3182 485.398 13.3182C486.383 13.3182 487.338 13.4811 488.262 13.8068C489.186 14.1326 490.016 14.6439 490.751 15.3409C491.485 16.0379 492.065 16.9432 492.489 18.0568C492.913 19.1629 493.126 20.5076 493.126 22.0909V23.2955H479.251V20.75H489.796C489.796 19.8561 489.614 19.0644 489.251 18.375C488.887 17.678 488.376 17.1288 487.716 16.7273C487.065 16.3258 486.3 16.125 485.421 16.125C484.466 16.125 483.633 16.3598 482.921 16.8295C482.216 17.2917 481.671 17.8977 481.285 18.6477C480.906 19.3902 480.716 20.197 480.716 21.0682V23.0568C480.716 24.2235 480.921 25.2159 481.33 26.0341C481.747 26.8523 482.326 27.4773 483.069 27.9091C483.811 28.3333 484.679 28.5455 485.671 28.5455C486.315 28.5455 486.902 28.4545 487.432 28.2727C487.963 28.0833 488.421 27.803 488.807 27.4318C489.194 27.0606 489.489 26.6023 489.694 26.0568L492.91 26.6364C492.652 27.5833 492.19 28.4129 491.523 29.125C490.864 29.8295 490.035 30.3788 489.035 30.7727C488.042 31.1591 486.91 31.3523 485.637 31.3523ZM509.975 17.8068L506.895 18.3523C506.767 17.9583 506.562 17.5833 506.282 17.2273C506.009 16.8712 505.638 16.5795 505.168 16.3523C504.698 16.125 504.111 16.0114 503.407 16.0114C502.445 16.0114 501.642 16.2273 500.998 16.6591C500.354 17.0833 500.032 17.6326 500.032 18.3068C500.032 18.8902 500.248 19.3598 500.68 19.7159C501.111 20.072 501.808 20.3636 502.77 20.5909L505.543 21.2273C507.149 21.5985 508.346 22.1705 509.134 22.9432C509.922 23.7159 510.316 24.7197 510.316 25.9545C510.316 27 510.013 27.9318 509.407 28.75C508.808 29.5606 507.971 30.197 506.895 30.6591C505.827 31.1212 504.589 31.3523 503.18 31.3523C501.225 31.3523 499.63 30.9356 498.395 30.1023C497.161 29.2614 496.403 28.0682 496.123 26.5227L499.407 26.0227C499.611 26.8788 500.032 27.5265 500.668 27.9659C501.305 28.3977 502.134 28.6136 503.157 28.6136C504.27 28.6136 505.161 28.3826 505.827 27.9205C506.494 27.4508 506.827 26.8788 506.827 26.2045C506.827 25.6591 506.623 25.2008 506.214 24.8295C505.812 24.4583 505.195 24.178 504.361 23.9886L501.407 23.3409C499.778 22.9697 498.573 22.3788 497.793 21.5682C497.02 20.7576 496.634 19.7311 496.634 18.4886C496.634 17.4583 496.922 16.5568 497.498 15.7841C498.073 15.0114 498.869 14.4091 499.884 13.9773C500.899 13.5379 502.062 13.3182 503.373 13.3182C505.259 13.3182 506.744 13.7273 507.827 14.5455C508.911 15.3561 509.626 16.4432 509.975 17.8068ZM93.2136 65.7273C92.2969 65.7273 91.4598 65.5038 90.7022 65.0568C89.9447 64.6023 89.3386 63.9962 88.8841 63.2386C88.4371 62.4811 88.2136 61.6439 88.2136 60.7273C88.2136 59.803 88.4371 58.9659 88.8841 58.2159C89.3386 57.4583 89.9447 56.8561 90.7022 56.4091C91.4598 55.9545 92.2969 55.7273 93.2136 55.7273C94.1378 55.7273 94.975 55.9545 95.725 56.4091C96.4825 56.8561 97.0848 57.4583 97.5318 58.2159C97.9863 58.9659 98.2136 59.803 98.2136 60.7273C98.2136 61.6439 97.9863 62.4811 97.5318 63.2386C97.0848 63.9962 96.4825 64.6023 95.725 65.0568C94.975 65.5038 94.1378 65.7273 93.2136 65.7273ZM124.319 70L117.864 46.7273H121.557L126.091 64.75H126.307L131.023 46.7273H134.682L139.398 64.7614H139.614L144.137 46.7273H147.841L141.376 70H137.841L132.944 52.5682H132.762L127.864 70H124.319ZM156.574 70.3523C154.855 70.3523 153.374 69.9848 152.131 69.25C150.896 68.5076 149.942 67.4659 149.268 66.125C148.601 64.7765 148.268 63.197 148.268 61.3864C148.268 59.5985 148.601 58.0227 149.268 56.6591C149.942 55.2955 150.881 54.2311 152.086 53.4659C153.298 52.7008 154.715 52.3182 156.336 52.3182C157.321 52.3182 158.275 52.4811 159.199 52.8068C160.124 53.1326 160.953 53.6439 161.688 54.3409C162.423 55.0379 163.002 55.9432 163.427 57.0568C163.851 58.1629 164.063 59.5076 164.063 61.0909V62.2955H150.188V59.75H160.733C160.733 58.8561 160.552 58.0644 160.188 57.375C159.824 56.678 159.313 56.1288 158.654 55.7273C158.002 55.3258 157.237 55.125 156.358 55.125C155.404 55.125 154.571 55.3598 153.858 55.8295C153.154 56.2917 152.608 56.8977 152.222 57.6477C151.843 58.3902 151.654 59.197 151.654 60.0682V62.0568C151.654 63.2235 151.858 64.2159 152.268 65.0341C152.684 65.8523 153.264 66.4773 154.006 66.9091C154.749 67.3333 155.616 67.5455 156.608 67.5455C157.252 67.5455 157.84 67.4545 158.37 67.2727C158.9 67.0833 159.358 66.803 159.745 66.4318C160.131 66.0606 160.427 65.6023 160.631 65.0568L163.847 65.6364C163.59 66.5833 163.127 67.4129 162.461 68.125C161.802 68.8295 160.972 69.3788 159.972 69.7727C158.98 70.1591 157.847 70.3523 156.574 70.3523ZM168.106 70V46.7273H171.503V55.375H171.708C171.905 55.0114 172.189 54.5909 172.56 54.1136C172.931 53.6364 173.447 53.2197 174.106 52.8636C174.765 52.5 175.636 52.3182 176.719 52.3182C178.128 52.3182 179.386 52.6742 180.492 53.3864C181.598 54.0985 182.465 55.125 183.094 56.4659C183.731 57.8068 184.049 59.4205 184.049 61.3068C184.049 63.1932 183.734 64.8106 183.106 66.1591C182.477 67.5 181.613 68.5341 180.515 69.2614C179.416 69.9811 178.162 70.3409 176.753 70.3409C175.693 70.3409 174.825 70.1629 174.151 69.8068C173.484 69.4508 172.962 69.0341 172.583 68.5568C172.204 68.0795 171.912 67.6553 171.708 67.2841H171.424V70H168.106ZM171.435 61.2727C171.435 62.5 171.613 63.5758 171.969 64.5C172.325 65.4242 172.84 66.1477 173.515 66.6705C174.189 67.1856 175.015 67.4432 175.992 67.4432C177.007 67.4432 177.856 67.1742 178.537 66.6364C179.219 66.0909 179.734 65.3523 180.083 64.4205C180.439 63.4886 180.617 62.4394 180.617 61.2727C180.617 60.1212 180.443 59.0871 180.094 58.1705C179.753 57.2538 179.238 56.5303 178.549 56C177.867 55.4697 177.015 55.2045 175.992 55.2045C175.007 55.2045 174.174 55.4583 173.492 55.9659C172.818 56.4735 172.306 57.1818 171.958 58.0909C171.609 59 171.435 60.0606 171.435 61.2727ZM200.944 56.8068L197.864 57.3523C197.735 56.9583 197.531 56.5833 197.251 56.2273C196.978 55.8712 196.607 55.5795 196.137 55.3523C195.667 55.125 195.08 55.0114 194.376 55.0114C193.413 55.0114 192.61 55.2273 191.966 55.6591C191.323 56.0833 191.001 56.6326 191.001 57.3068C191.001 57.8902 191.216 58.3598 191.648 58.7159C192.08 59.072 192.777 59.3636 193.739 59.5909L196.512 60.2273C198.118 60.5985 199.315 61.1705 200.103 61.9432C200.891 62.7159 201.285 63.7197 201.285 64.9545C201.285 66 200.982 66.9318 200.376 67.75C199.777 68.5606 198.94 69.197 197.864 69.6591C196.796 70.1212 195.557 70.3523 194.148 70.3523C192.194 70.3523 190.599 69.9356 189.364 69.1023C188.129 68.2614 187.372 67.0682 187.091 65.5227L190.376 65.0227C190.58 65.8788 191.001 66.5265 191.637 66.9659C192.273 67.3977 193.103 67.6136 194.126 67.6136C195.239 67.6136 196.129 67.3826 196.796 66.9205C197.463 66.4508 197.796 65.8788 197.796 65.2045C197.796 64.6591 197.591 64.2008 197.182 63.8295C196.781 63.4583 196.163 63.178 195.33 62.9886L192.376 62.3409C190.747 61.9697 189.542 61.3788 188.762 60.5682C187.989 59.7576 187.603 58.7311 187.603 57.4886C187.603 56.4583 187.891 55.5568 188.466 54.7841C189.042 54.0114 189.838 53.4091 190.853 52.9773C191.868 52.5379 193.031 52.3182 194.341 52.3182C196.228 52.3182 197.713 52.7273 198.796 53.5455C199.879 54.3561 200.595 55.4432 200.944 56.8068ZM205.02 70V52.5455H208.418V70H205.02ZM206.736 49.8523C206.145 49.8523 205.638 49.6553 205.214 49.2614C204.797 48.8598 204.589 48.3826 204.589 47.8295C204.589 47.2689 204.797 46.7917 205.214 46.3977C205.638 45.9962 206.145 45.7955 206.736 45.7955C207.327 45.7955 207.831 45.9962 208.248 46.3977C208.672 46.7917 208.884 47.2689 208.884 47.8295C208.884 48.3826 208.672 48.8598 208.248 49.2614C207.831 49.6553 207.327 49.8523 206.736 49.8523ZM221.137 52.5455V55.2727H211.603V52.5455H221.137ZM214.16 48.3636H217.557V64.875C217.557 65.5341 217.656 66.0303 217.853 66.3636C218.05 66.6894 218.304 66.9129 218.614 67.0341C218.932 67.1477 219.277 67.2045 219.648 67.2045C219.921 67.2045 220.16 67.1856 220.364 67.1477C220.569 67.1098 220.728 67.0795 220.841 67.0568L221.455 69.8636C221.258 69.9394 220.978 70.0152 220.614 70.0909C220.251 70.1742 219.796 70.2197 219.251 70.2273C218.357 70.2424 217.523 70.0833 216.751 69.75C215.978 69.4167 215.353 68.9015 214.876 68.2045C214.398 67.5076 214.16 66.6326 214.16 65.5795V48.3636ZM232.231 70.3523C230.511 70.3523 229.03 69.9848 227.787 69.25C226.553 68.5076 225.598 67.4659 224.924 66.125C224.257 64.7765 223.924 63.197 223.924 61.3864C223.924 59.5985 224.257 58.0227 224.924 56.6591C225.598 55.2955 226.537 54.2311 227.742 53.4659C228.954 52.7008 230.371 52.3182 231.992 52.3182C232.977 52.3182 233.931 52.4811 234.856 52.8068C235.78 53.1326 236.609 53.6439 237.344 54.3409C238.079 55.0379 238.659 55.9432 239.083 57.0568C239.507 58.1629 239.719 59.5076 239.719 61.0909V62.2955H225.844V59.75H236.39C236.39 58.8561 236.208 58.0644 235.844 57.375C235.481 56.678 234.969 56.1288 234.31 55.7273C233.659 55.3258 232.894 55.125 232.015 55.125C231.06 55.125 230.227 55.3598 229.515 55.8295C228.81 56.2917 228.265 56.8977 227.878 57.6477C227.5 58.3902 227.31 59.197 227.31 60.0682V62.0568C227.31 63.2235 227.515 64.2159 227.924 65.0341C228.34 65.8523 228.92 66.4773 229.662 66.9091C230.405 67.3333 231.272 67.5455 232.265 67.5455C232.909 67.5455 233.496 67.4545 234.026 67.2727C234.556 67.0833 235.015 66.803 235.401 66.4318C235.787 66.0606 236.083 65.6023 236.287 65.0568L239.503 65.6364C239.246 66.5833 238.784 67.4129 238.117 68.125C237.458 68.8295 236.628 69.3788 235.628 69.7727C234.636 70.1591 233.503 70.3523 232.231 70.3523ZM255.356 46.7273V70H251.958V46.7273H255.356ZM265.006 70.3864C263.9 70.3864 262.9 70.1818 262.006 69.7727C261.112 69.3561 260.404 68.7538 259.881 67.9659C259.366 67.178 259.108 66.2121 259.108 65.0682C259.108 64.0833 259.298 63.2727 259.677 62.6364C260.055 62 260.567 61.4962 261.211 61.125C261.855 60.7538 262.574 60.4735 263.37 60.2841C264.165 60.0947 264.976 59.9508 265.802 59.8523C266.847 59.7311 267.696 59.6326 268.347 59.5568C268.999 59.4735 269.472 59.3409 269.768 59.1591C270.063 58.9773 270.211 58.6818 270.211 58.2727V58.1932C270.211 57.2008 269.93 56.4318 269.37 55.8864C268.817 55.3409 267.991 55.0682 266.893 55.0682C265.749 55.0682 264.847 55.322 264.188 55.8295C263.537 56.3295 263.086 56.8864 262.836 57.5L259.643 56.7727C260.021 55.7121 260.574 54.8561 261.302 54.2045C262.037 53.5455 262.881 53.0682 263.836 52.7727C264.79 52.4697 265.794 52.3182 266.847 52.3182C267.544 52.3182 268.283 52.4015 269.063 52.5682C269.851 52.7273 270.586 53.0227 271.268 53.4545C271.957 53.8864 272.521 54.5038 272.961 55.3068C273.4 56.1023 273.62 57.1364 273.62 58.4091V70H270.302V67.6136H270.165C269.946 68.053 269.616 68.4848 269.177 68.9091C268.737 69.3333 268.173 69.6856 267.483 69.9659C266.794 70.2462 265.968 70.3864 265.006 70.3864ZM265.745 67.6591C266.684 67.6591 267.487 67.4735 268.154 67.1023C268.828 66.7311 269.34 66.2462 269.688 65.6477C270.044 65.0417 270.222 64.3939 270.222 63.7045V61.4545C270.101 61.5758 269.866 61.6894 269.518 61.7955C269.177 61.8939 268.787 61.9811 268.347 62.0568C267.908 62.125 267.48 62.1894 267.063 62.25C266.646 62.303 266.298 62.3485 266.018 62.3864C265.358 62.4697 264.756 62.6098 264.211 62.8068C263.673 63.0038 263.241 63.2879 262.915 63.6591C262.597 64.0227 262.438 64.5076 262.438 65.1136C262.438 65.9545 262.749 66.5909 263.37 67.0227C263.991 67.447 264.783 67.6591 265.745 67.6591ZM289.202 62.7614V52.5455H292.611V70H289.27V66.9773H289.089C288.687 67.9091 288.043 68.6856 287.157 69.3068C286.278 69.9205 285.183 70.2273 283.873 70.2273C282.751 70.2273 281.759 69.9811 280.895 69.4886C280.039 68.9886 279.365 68.25 278.873 67.2727C278.388 66.2955 278.145 65.0871 278.145 63.6477V52.5455H281.543V63.2386C281.543 64.428 281.873 65.375 282.532 66.0795C283.191 66.7841 284.047 67.1364 285.1 67.1364C285.736 67.1364 286.369 66.9773 286.998 66.6591C287.634 66.3409 288.161 65.8598 288.577 65.2159C289.001 64.572 289.21 63.7538 289.202 62.7614ZM300.574 59.6364V70H297.177V52.5455H300.438V55.3864H300.654C301.055 54.4621 301.684 53.7197 302.54 53.1591C303.404 52.5985 304.491 52.3182 305.802 52.3182C306.991 52.3182 308.033 52.5682 308.927 53.0682C309.821 53.5606 310.514 54.2955 311.006 55.2727C311.499 56.25 311.745 57.4583 311.745 58.8977V70H308.347V59.3068C308.347 58.0417 308.018 57.053 307.358 56.3409C306.699 55.6212 305.794 55.2614 304.643 55.2614C303.855 55.2614 303.154 55.4318 302.54 55.7727C301.934 56.1136 301.453 56.6136 301.097 57.2727C300.749 57.9242 300.574 58.7121 300.574 59.6364ZM323.654 70.3523C321.965 70.3523 320.51 69.9697 319.29 69.2045C318.078 68.4318 317.146 67.3674 316.495 66.0114C315.843 64.6553 315.518 63.1023 315.518 61.3523C315.518 59.5795 315.851 58.0152 316.518 56.6591C317.184 55.2955 318.124 54.2311 319.336 53.4659C320.548 52.7008 321.976 52.3182 323.62 52.3182C324.946 52.3182 326.127 52.5644 327.165 53.0568C328.203 53.5417 329.04 54.2235 329.677 55.1023C330.321 55.9811 330.703 57.0076 330.824 58.1818H327.518C327.336 57.3636 326.919 56.6591 326.268 56.0682C325.624 55.4773 324.76 55.1818 323.677 55.1818C322.73 55.1818 321.9 55.4318 321.188 55.9318C320.483 56.4242 319.934 57.1288 319.54 58.0455C319.146 58.9545 318.949 60.0303 318.949 61.2727C318.949 62.5455 319.143 63.6439 319.529 64.5682C319.915 65.4924 320.461 66.2083 321.165 66.7159C321.877 67.2235 322.715 67.4773 323.677 67.4773C324.321 67.4773 324.904 67.3598 325.427 67.125C325.957 66.8826 326.4 66.5379 326.756 66.0909C327.12 65.6439 327.374 65.1061 327.518 64.4773H330.824C330.703 65.6061 330.336 66.6136 329.722 67.5C329.108 68.3864 328.287 69.0833 327.256 69.5909C326.233 70.0985 325.033 70.3523 323.654 70.3523ZM337.856 59.6364V70H334.458V46.7273H337.81V55.3864H338.026C338.435 54.447 339.06 53.7008 339.901 53.1477C340.742 52.5947 341.84 52.3182 343.197 52.3182C344.394 52.3182 345.439 52.5644 346.333 53.0568C347.234 53.5492 347.931 54.2841 348.424 55.2614C348.924 56.2311 349.174 57.4432 349.174 58.8977V70H345.776V59.3068C345.776 58.0265 345.447 57.0341 344.787 56.3295C344.128 55.6174 343.212 55.2614 342.037 55.2614C341.234 55.2614 340.515 55.4318 339.878 55.7727C339.25 56.1136 338.753 56.6136 338.39 57.2727C338.034 57.9242 337.856 58.7121 337.856 59.6364ZM93.2136 104.727C92.2969 104.727 91.4598 104.504 90.7022 104.057C89.9447 103.602 89.3386 102.996 88.8841 102.239C88.4371 101.481 88.2136 100.644 88.2136 99.7273C88.2136 98.803 88.4371 97.9659 88.8841 97.2159C89.3386 96.4583 89.9447 95.8561 90.7022 95.4091C91.4598 94.9545 92.2969 94.7273 93.2136 94.7273C94.1378 94.7273 94.975 94.9545 95.725 95.4091C96.4825 95.8561 97.0848 96.4583 97.5318 97.2159C97.9863 97.9659 98.2136 98.803 98.2136 99.7273C98.2136 100.644 97.9863 101.481 97.5318 102.239C97.0848 102.996 96.4825 103.602 95.725 104.057C94.975 104.504 94.1378 104.727 93.2136 104.727ZM119.762 109V85.7273H123.273V105.977H133.819V109H119.762ZM137.552 109V91.5455H140.949V109H137.552ZM139.268 88.8523C138.677 88.8523 138.169 88.6553 137.745 88.2614C137.328 87.8598 137.12 87.3826 137.12 86.8295C137.12 86.2689 137.328 85.7917 137.745 85.3977C138.169 84.9962 138.677 84.7955 139.268 84.7955C139.858 84.7955 140.362 84.9962 140.779 85.3977C141.203 85.7917 141.415 86.2689 141.415 86.8295C141.415 87.3826 141.203 87.8598 140.779 88.2614C140.362 88.6553 139.858 88.8523 139.268 88.8523ZM158.6 95.8068L155.52 96.3523C155.392 95.9583 155.187 95.5833 154.907 95.2273C154.634 94.8712 154.263 94.5795 153.793 94.3523C153.323 94.125 152.736 94.0114 152.032 94.0114C151.07 94.0114 150.267 94.2273 149.623 94.6591C148.979 95.0833 148.657 95.6326 148.657 96.3068C148.657 96.8902 148.873 97.3598 149.305 97.7159C149.736 98.072 150.433 98.3636 151.395 98.5909L154.168 99.2273C155.774 99.5985 156.971 100.17 157.759 100.943C158.547 101.716 158.941 102.72 158.941 103.955C158.941 105 158.638 105.932 158.032 106.75C157.433 107.561 156.596 108.197 155.52 108.659C154.452 109.121 153.214 109.352 151.805 109.352C149.85 109.352 148.255 108.936 147.02 108.102C145.786 107.261 145.028 106.068 144.748 104.523L148.032 104.023C148.236 104.879 148.657 105.527 149.293 105.966C149.93 106.398 150.759 106.614 151.782 106.614C152.895 106.614 153.786 106.383 154.452 105.92C155.119 105.451 155.452 104.879 155.452 104.205C155.452 103.659 155.248 103.201 154.839 102.83C154.437 102.458 153.82 102.178 152.986 101.989L150.032 101.341C148.403 100.97 147.198 100.379 146.418 99.5682C145.645 98.7576 145.259 97.7311 145.259 96.4886C145.259 95.4583 145.547 94.5568 146.123 93.7841C146.698 93.0114 147.494 92.4091 148.509 91.9773C149.524 91.5379 150.687 91.3182 151.998 91.3182C153.884 91.3182 155.369 91.7273 156.452 92.5455C157.536 93.3561 158.251 94.4432 158.6 95.8068ZM170.824 91.5455V94.2727H161.29V91.5455H170.824ZM163.847 87.3636H167.245V103.875C167.245 104.534 167.343 105.03 167.54 105.364C167.737 105.689 167.991 105.913 168.302 106.034C168.62 106.148 168.965 106.205 169.336 106.205C169.608 106.205 169.847 106.186 170.052 106.148C170.256 106.11 170.415 106.08 170.529 106.057L171.143 108.864C170.946 108.939 170.665 109.015 170.302 109.091C169.938 109.174 169.483 109.22 168.938 109.227C168.044 109.242 167.211 109.083 166.438 108.75C165.665 108.417 165.04 107.902 164.563 107.205C164.086 106.508 163.847 105.633 163.847 104.58V87.3636ZM174.583 109V91.5455H177.981V109H174.583ZM176.299 88.8523C175.708 88.8523 175.2 88.6553 174.776 88.2614C174.359 87.8598 174.151 87.3826 174.151 86.8295C174.151 86.2689 174.359 85.7917 174.776 85.3977C175.2 84.9962 175.708 84.7955 176.299 84.7955C176.89 84.7955 177.394 84.9962 177.81 85.3977C178.234 85.7917 178.447 86.2689 178.447 86.8295C178.447 87.3826 178.234 87.8598 177.81 88.2614C177.394 88.6553 176.89 88.8523 176.299 88.8523ZM185.949 98.6364V109H182.552V91.5455H185.813V94.3864H186.029C186.43 93.4621 187.059 92.7197 187.915 92.1591C188.779 91.5985 189.866 91.3182 191.177 91.3182C192.366 91.3182 193.408 91.5682 194.302 92.0682C195.196 92.5606 195.889 93.2955 196.381 94.2727C196.874 95.25 197.12 96.4583 197.12 97.8977V109H193.722V98.3068C193.722 97.0417 193.393 96.053 192.733 95.3409C192.074 94.6212 191.169 94.2614 190.018 94.2614C189.23 94.2614 188.529 94.4318 187.915 94.7727C187.309 95.1136 186.828 95.6136 186.472 96.2727C186.124 96.9242 185.949 97.7121 185.949 98.6364ZM208.995 115.909C207.608 115.909 206.415 115.727 205.415 115.364C204.423 115 203.612 114.519 202.983 113.92C202.355 113.322 201.885 112.667 201.574 111.955L204.495 110.75C204.699 111.083 204.972 111.436 205.313 111.807C205.662 112.186 206.131 112.508 206.722 112.773C207.321 113.038 208.09 113.17 209.029 113.17C210.317 113.17 211.381 112.856 212.222 112.227C213.063 111.606 213.483 110.614 213.483 109.25V105.818H213.268C213.063 106.189 212.768 106.602 212.381 107.057C212.002 107.511 211.48 107.905 210.813 108.239C210.146 108.572 209.279 108.739 208.211 108.739C206.832 108.739 205.59 108.417 204.483 107.773C203.385 107.121 202.514 106.163 201.87 104.898C201.233 103.625 200.915 102.061 200.915 100.205C200.915 98.3485 201.23 96.7576 201.858 95.4318C202.495 94.1061 203.366 93.0909 204.472 92.3864C205.578 91.6742 206.832 91.3182 208.233 91.3182C209.317 91.3182 210.192 91.5 210.858 91.8636C211.525 92.2197 212.044 92.6364 212.415 93.1136C212.794 93.5909 213.086 94.0114 213.29 94.375H213.54V91.5455H216.87V109.386C216.87 110.886 216.521 112.117 215.824 113.08C215.127 114.042 214.184 114.754 212.995 115.216C211.813 115.678 210.48 115.909 208.995 115.909ZM208.961 105.92C209.938 105.92 210.764 105.693 211.438 105.239C212.12 104.777 212.635 104.117 212.983 103.261C213.34 102.398 213.518 101.364 213.518 100.159C213.518 98.9848 213.343 97.9508 212.995 97.0568C212.646 96.1629 212.135 95.4659 211.461 94.9659C210.787 94.4583 209.953 94.2045 208.961 94.2045C207.938 94.2045 207.086 94.4697 206.404 95C205.722 95.5227 205.207 96.2348 204.858 97.1364C204.518 98.0379 204.347 99.0455 204.347 100.159C204.347 101.303 204.521 102.307 204.87 103.17C205.218 104.034 205.733 104.708 206.415 105.193C207.105 105.678 207.953 105.92 208.961 105.92ZM237.248 109.352C235.611 109.352 234.183 108.977 232.964 108.227C231.744 107.477 230.797 106.428 230.123 105.08C229.448 103.731 229.111 102.155 229.111 100.352C229.111 98.5417 229.448 96.9583 230.123 95.6023C230.797 94.2462 231.744 93.1932 232.964 92.4432C234.183 91.6932 235.611 91.3182 237.248 91.3182C238.884 91.3182 240.312 91.6932 241.532 92.4432C242.751 93.1932 243.698 94.2462 244.373 95.6023C245.047 96.9583 245.384 98.5417 245.384 100.352C245.384 102.155 245.047 103.731 244.373 105.08C243.698 106.428 242.751 107.477 241.532 108.227C240.312 108.977 238.884 109.352 237.248 109.352ZM237.259 106.5C238.32 106.5 239.198 106.22 239.895 105.659C240.592 105.098 241.108 104.352 241.441 103.42C241.782 102.489 241.952 101.462 241.952 100.341C241.952 99.2273 241.782 98.2045 241.441 97.2727C241.108 96.3333 240.592 95.5795 239.895 95.0114C239.198 94.4432 238.32 94.1591 237.259 94.1591C236.191 94.1591 235.305 94.4432 234.6 95.0114C233.903 95.5795 233.384 96.3333 233.043 97.2727C232.71 98.2045 232.543 99.2273 232.543 100.341C232.543 101.462 232.71 102.489 233.043 103.42C233.384 104.352 233.903 105.098 234.6 105.659C235.305 106.22 236.191 106.5 237.259 106.5ZM252.574 98.6364V109H249.177V91.5455H252.438V94.3864H252.654C253.055 93.4621 253.684 92.7197 254.54 92.1591C255.404 91.5985 256.491 91.3182 257.802 91.3182C258.991 91.3182 260.033 91.5682 260.927 92.0682C261.821 92.5606 262.514 93.2955 263.006 94.2727C263.499 95.25 263.745 96.4583 263.745 97.8977V109H260.347V98.3068C260.347 97.0417 260.018 96.053 259.358 95.3409C258.699 94.6212 257.794 94.2614 256.643 94.2614C255.855 94.2614 255.154 94.4318 254.54 94.7727C253.934 95.1136 253.453 95.6136 253.097 96.2727C252.749 96.9242 252.574 97.7121 252.574 98.6364ZM292.009 85.7273H295.532V101.034C295.532 102.663 295.149 104.106 294.384 105.364C293.619 106.614 292.543 107.598 291.157 108.318C289.77 109.03 288.145 109.386 286.282 109.386C284.426 109.386 282.805 109.03 281.418 108.318C280.032 107.598 278.956 106.614 278.191 105.364C277.426 104.106 277.043 102.663 277.043 101.034V85.7273H280.555V100.75C280.555 101.803 280.786 102.739 281.248 103.557C281.717 104.375 282.38 105.019 283.236 105.489C284.092 105.951 285.108 106.182 286.282 106.182C287.464 106.182 288.483 105.951 289.339 105.489C290.202 105.019 290.861 104.375 291.316 103.557C291.778 102.739 292.009 101.803 292.009 100.75V85.7273ZM303.762 98.6364V109H300.364V91.5455H303.626V94.3864H303.841C304.243 93.4621 304.872 92.7197 305.728 92.1591C306.591 91.5985 307.679 91.3182 308.989 91.3182C310.179 91.3182 311.22 91.5682 312.114 92.0682C313.008 92.5606 313.701 93.2955 314.194 94.2727C314.686 95.25 314.932 96.4583 314.932 97.8977V109H311.535V98.3068C311.535 97.0417 311.205 96.053 310.546 95.3409C309.887 94.6212 308.982 94.2614 307.83 94.2614C307.042 94.2614 306.341 94.4318 305.728 94.7727C305.122 95.1136 304.641 95.6136 304.285 96.2727C303.936 96.9242 303.762 97.7121 303.762 98.6364ZM319.489 109V91.5455H322.887V109H319.489ZM321.205 88.8523C320.614 88.8523 320.107 88.6553 319.682 88.2614C319.266 87.8598 319.057 87.3826 319.057 86.8295C319.057 86.2689 319.266 85.7917 319.682 85.3977C320.107 84.9962 320.614 84.7955 321.205 84.7955C321.796 84.7955 322.3 84.9962 322.716 85.3977C323.141 85.7917 323.353 86.2689 323.353 86.8295C323.353 87.3826 323.141 87.8598 322.716 88.2614C322.3 88.6553 321.796 88.8523 321.205 88.8523ZM340.537 95.8068L337.458 96.3523C337.329 95.9583 337.125 95.5833 336.844 95.2273C336.572 94.8712 336.2 94.5795 335.731 94.3523C335.261 94.125 334.674 94.0114 333.969 94.0114C333.007 94.0114 332.204 94.2273 331.56 94.6591C330.916 95.0833 330.594 95.6326 330.594 96.3068C330.594 96.8902 330.81 97.3598 331.242 97.7159C331.674 98.072 332.371 98.3636 333.333 98.5909L336.106 99.2273C337.712 99.5985 338.909 100.17 339.697 100.943C340.484 101.716 340.878 102.72 340.878 103.955C340.878 105 340.575 105.932 339.969 106.75C339.371 107.561 338.534 108.197 337.458 108.659C336.39 109.121 335.151 109.352 333.742 109.352C331.787 109.352 330.193 108.936 328.958 108.102C327.723 107.261 326.965 106.068 326.685 104.523L329.969 104.023C330.174 104.879 330.594 105.527 331.231 105.966C331.867 106.398 332.697 106.614 333.719 106.614C334.833 106.614 335.723 106.383 336.39 105.92C337.056 105.451 337.39 104.879 337.39 104.205C337.39 103.659 337.185 103.201 336.776 102.83C336.375 102.458 335.757 102.178 334.924 101.989L331.969 101.341C330.34 100.97 329.136 100.379 328.356 99.5682C327.583 98.7576 327.197 97.7311 327.197 96.4886C327.197 95.4583 327.484 94.5568 328.06 93.7841C328.636 93.0114 329.431 92.4091 330.447 91.9773C331.462 91.5379 332.625 91.3182 333.935 91.3182C335.822 91.3182 337.306 91.7273 338.39 92.5455C339.473 93.3561 340.189 94.4432 340.537 95.8068ZM348.398 109L343.262 91.5455H346.773L350.194 104.364H350.364L353.796 91.5455H357.307L360.716 104.307H360.887L364.285 91.5455H367.796L362.671 109H359.205L355.66 96.3977H355.398L351.853 109H348.398ZM376.1 109.386C374.994 109.386 373.994 109.182 373.1 108.773C372.206 108.356 371.498 107.754 370.975 106.966C370.46 106.178 370.202 105.212 370.202 104.068C370.202 103.083 370.392 102.273 370.77 101.636C371.149 101 371.661 100.496 372.305 100.125C372.948 99.7538 373.668 99.4735 374.464 99.2841C375.259 99.0947 376.07 98.9508 376.895 98.8523C377.941 98.7311 378.789 98.6326 379.441 98.5568C380.092 98.4735 380.566 98.3409 380.861 98.1591C381.157 97.9773 381.305 97.6818 381.305 97.2727V97.1932C381.305 96.2008 381.024 95.4318 380.464 94.8864C379.911 94.3409 379.085 94.0682 377.986 94.0682C376.842 94.0682 375.941 94.322 375.282 94.8295C374.63 95.3295 374.18 95.8864 373.93 96.5L370.736 95.7727C371.115 94.7121 371.668 93.8561 372.395 93.2045C373.13 92.5455 373.975 92.0682 374.93 91.7727C375.884 91.4697 376.888 91.3182 377.941 91.3182C378.638 91.3182 379.376 91.4015 380.157 91.5682C380.945 91.7273 381.68 92.0227 382.361 92.4545C383.051 92.8864 383.615 93.5038 384.055 94.3068C384.494 95.1023 384.714 96.1364 384.714 97.4091V109H381.395V106.614H381.259C381.039 107.053 380.71 107.485 380.27 107.909C379.831 108.333 379.267 108.686 378.577 108.966C377.888 109.246 377.062 109.386 376.1 109.386ZM376.839 106.659C377.778 106.659 378.581 106.473 379.248 106.102C379.922 105.731 380.433 105.246 380.782 104.648C381.138 104.042 381.316 103.394 381.316 102.705V100.455C381.195 100.576 380.96 100.689 380.611 100.795C380.27 100.894 379.88 100.981 379.441 101.057C379.001 101.125 378.573 101.189 378.157 101.25C377.74 101.303 377.392 101.348 377.111 101.386C376.452 101.47 375.85 101.61 375.305 101.807C374.767 102.004 374.335 102.288 374.009 102.659C373.691 103.023 373.532 103.508 373.532 104.114C373.532 104.955 373.842 105.591 374.464 106.023C375.085 106.447 375.876 106.659 376.839 106.659ZM389.239 115.545V91.5455H392.557V94.375H392.841C393.038 94.0114 393.323 93.5909 393.694 93.1136C394.065 92.6364 394.58 92.2197 395.239 91.8636C395.898 91.5 396.769 91.3182 397.853 91.3182C399.262 91.3182 400.519 91.6742 401.626 92.3864C402.732 93.0985 403.599 94.125 404.228 95.4659C404.864 96.8068 405.182 98.4205 405.182 100.307C405.182 102.193 404.868 103.811 404.239 105.159C403.61 106.5 402.747 107.534 401.648 108.261C400.55 108.981 399.296 109.341 397.887 109.341C396.826 109.341 395.959 109.163 395.285 108.807C394.618 108.451 394.095 108.034 393.716 107.557C393.338 107.08 393.046 106.655 392.841 106.284H392.637V115.545H389.239ZM392.569 100.273C392.569 101.5 392.747 102.576 393.103 103.5C393.459 104.424 393.974 105.148 394.648 105.67C395.323 106.186 396.148 106.443 397.126 106.443C398.141 106.443 398.989 106.174 399.671 105.636C400.353 105.091 400.868 104.352 401.216 103.42C401.573 102.489 401.751 101.439 401.751 100.273C401.751 99.1212 401.576 98.0871 401.228 97.1705C400.887 96.2538 400.372 95.5303 399.682 95C399.001 94.4697 398.148 94.2045 397.126 94.2045C396.141 94.2045 395.307 94.4583 394.626 94.9659C393.951 95.4735 393.44 96.1818 393.091 97.0909C392.743 98 392.569 99.0606 392.569 100.273ZM93.2136 143.727C92.2969 143.727 91.4598 143.504 90.7022 143.057C89.9447 142.602 89.3386 141.996 88.8841 141.239C88.4371 140.481 88.2136 139.644 88.2136 138.727C88.2136 137.803 88.4371 136.966 88.8841 136.216C89.3386 135.458 89.9447 134.856 90.7022 134.409C91.4598 133.955 92.2969 133.727 93.2136 133.727C94.1378 133.727 94.975 133.955 95.725 134.409C96.4825 134.856 97.0848 135.458 97.5318 136.216C97.9863 136.966 98.2136 137.803 98.2136 138.727C98.2136 139.644 97.9863 140.481 97.5318 141.239C97.0848 141.996 96.4825 142.602 95.725 143.057C94.975 143.504 94.1378 143.727 93.2136 143.727ZM139.091 132.295H135.546C135.41 131.538 135.156 130.871 134.785 130.295C134.413 129.72 133.959 129.231 133.421 128.83C132.883 128.428 132.281 128.125 131.614 127.92C130.955 127.716 130.254 127.614 129.512 127.614C128.171 127.614 126.97 127.951 125.91 128.625C124.857 129.299 124.023 130.288 123.41 131.591C122.804 132.894 122.501 134.485 122.501 136.364C122.501 138.258 122.804 139.856 123.41 141.159C124.023 142.462 124.86 143.447 125.921 144.114C126.982 144.78 128.175 145.114 129.501 145.114C130.235 145.114 130.932 145.015 131.591 144.818C132.258 144.614 132.86 144.314 133.398 143.92C133.936 143.527 134.391 143.045 134.762 142.477C135.141 141.902 135.402 141.242 135.546 140.5L139.091 140.511C138.902 141.655 138.535 142.708 137.989 143.67C137.451 144.625 136.758 145.451 135.91 146.148C135.069 146.837 134.107 147.371 133.023 147.75C131.94 148.129 130.758 148.318 129.478 148.318C127.463 148.318 125.667 147.841 124.091 146.886C122.516 145.924 121.273 144.549 120.364 142.761C119.463 140.973 119.012 138.841 119.012 136.364C119.012 133.879 119.466 131.746 120.376 129.966C121.285 128.178 122.527 126.807 124.103 125.852C125.679 124.89 127.47 124.409 129.478 124.409C130.713 124.409 131.864 124.587 132.932 124.943C134.008 125.292 134.974 125.807 135.83 126.489C136.686 127.163 137.394 127.989 137.955 128.966C138.516 129.936 138.894 131.045 139.091 132.295ZM159.043 132.08C158.823 131.39 158.528 130.773 158.157 130.227C157.793 129.674 157.358 129.205 156.85 128.818C156.342 128.424 155.763 128.125 155.111 127.92C154.467 127.716 153.759 127.614 152.986 127.614C151.676 127.614 150.494 127.951 149.441 128.625C148.388 129.299 147.555 130.288 146.941 131.591C146.335 132.886 146.032 134.473 146.032 136.352C146.032 138.239 146.339 139.833 146.952 141.136C147.566 142.439 148.407 143.428 149.475 144.102C150.543 144.777 151.759 145.114 153.123 145.114C154.388 145.114 155.49 144.856 156.43 144.341C157.376 143.826 158.108 143.098 158.623 142.159C159.145 141.212 159.407 140.098 159.407 138.818L160.316 138.989H153.657V136.091H162.805V138.739C162.805 140.693 162.388 142.39 161.555 143.83C160.729 145.261 159.585 146.367 158.123 147.148C156.668 147.928 155.001 148.318 153.123 148.318C151.017 148.318 149.168 147.833 147.577 146.864C145.994 145.894 144.759 144.519 143.873 142.739C142.986 140.951 142.543 138.83 142.543 136.375C142.543 134.519 142.801 132.852 143.316 131.375C143.831 129.898 144.555 128.644 145.486 127.614C146.426 126.576 147.528 125.784 148.793 125.239C150.066 124.686 151.456 124.409 152.964 124.409C154.221 124.409 155.392 124.595 156.475 124.966C157.566 125.337 158.536 125.864 159.384 126.545C160.24 127.227 160.948 128.038 161.509 128.977C162.07 129.909 162.448 130.943 162.645 132.08H159.043ZM182.231 148.33C180.67 148.33 179.325 148.045 178.197 147.477C177.075 146.909 176.212 146.136 175.606 145.159C175 144.174 174.697 143.061 174.697 141.818C174.697 140.871 174.894 140.03 175.287 139.295C175.681 138.553 176.231 137.867 176.935 137.239C177.64 136.61 178.454 135.977 179.378 135.341L183.128 132.693C183.765 132.277 184.261 131.837 184.617 131.375C184.973 130.905 185.151 130.326 185.151 129.636C185.151 129.091 184.916 128.568 184.447 128.068C183.977 127.568 183.348 127.318 182.56 127.318C182.015 127.318 181.534 127.451 181.117 127.716C180.708 127.981 180.386 128.322 180.151 128.739C179.924 129.148 179.81 129.58 179.81 130.034C179.81 130.564 179.954 131.098 180.242 131.636C180.537 132.174 180.916 132.731 181.378 133.307C181.84 133.875 182.325 134.466 182.833 135.08L193.64 148H189.799L180.856 137.489C180.106 136.602 179.409 135.769 178.765 134.989C178.121 134.201 177.598 133.405 177.197 132.602C176.803 131.792 176.606 130.917 176.606 129.977C176.606 128.909 176.848 127.962 177.333 127.136C177.825 126.303 178.511 125.652 179.39 125.182C180.269 124.712 181.299 124.477 182.481 124.477C183.678 124.477 184.704 124.712 185.56 125.182C186.424 125.644 187.087 126.261 187.549 127.034C188.019 127.799 188.253 128.636 188.253 129.545C188.253 130.652 187.977 131.629 187.424 132.477C186.878 133.318 186.125 134.091 185.162 134.795L180.492 138.239C179.583 138.905 178.95 139.564 178.594 140.216C178.246 140.86 178.072 141.364 178.072 141.727C178.072 142.394 178.242 143.011 178.583 143.58C178.931 144.148 179.416 144.602 180.037 144.943C180.666 145.284 181.401 145.455 182.242 145.455C183.106 145.455 183.947 145.269 184.765 144.898C185.59 144.519 186.337 143.977 187.003 143.273C187.678 142.568 188.212 141.723 188.606 140.739C189 139.754 189.197 138.652 189.197 137.432H192.265C192.265 138.932 192.094 140.201 191.753 141.239C191.412 142.269 191 143.11 190.515 143.761C190.037 144.405 189.587 144.909 189.162 145.273C189.026 145.394 188.897 145.515 188.776 145.636C188.655 145.758 188.526 145.879 188.39 146C187.602 146.795 186.647 147.383 185.526 147.761C184.412 148.14 183.314 148.33 182.231 148.33ZM224.373 132.295H220.827C220.691 131.538 220.437 130.871 220.066 130.295C219.695 129.72 219.24 129.231 218.702 128.83C218.164 128.428 217.562 128.125 216.895 127.92C216.236 127.716 215.536 127.614 214.793 127.614C213.452 127.614 212.251 127.951 211.191 128.625C210.138 129.299 209.305 130.288 208.691 131.591C208.085 132.894 207.782 134.485 207.782 136.364C207.782 138.258 208.085 139.856 208.691 141.159C209.305 142.462 210.142 143.447 211.202 144.114C212.263 144.78 213.456 145.114 214.782 145.114C215.517 145.114 216.214 145.015 216.873 144.818C217.539 144.614 218.142 144.314 218.68 143.92C219.217 143.527 219.672 143.045 220.043 142.477C220.422 141.902 220.683 141.242 220.827 140.5L224.373 140.511C224.183 141.655 223.816 142.708 223.27 143.67C222.733 144.625 222.039 145.451 221.191 146.148C220.35 146.837 219.388 147.371 218.305 147.75C217.221 148.129 216.039 148.318 214.759 148.318C212.744 148.318 210.948 147.841 209.373 146.886C207.797 145.924 206.555 144.549 205.645 142.761C204.744 140.973 204.293 138.841 204.293 136.364C204.293 133.879 204.748 131.746 205.657 129.966C206.566 128.178 207.808 126.807 209.384 125.852C210.96 124.89 212.751 124.409 214.759 124.409C215.994 124.409 217.145 124.587 218.214 124.943C219.289 125.292 220.255 125.807 221.111 126.489C221.967 127.163 222.676 127.989 223.236 128.966C223.797 129.936 224.176 131.045 224.373 132.295ZM228.574 124.727H232.836L240.245 142.818H240.518L247.927 124.727H252.188V148H248.847V131.159H248.631L241.768 147.966H238.995L232.131 131.148H231.915V148H228.574V124.727ZM276.623 132.295H273.077C272.941 131.538 272.687 130.871 272.316 130.295C271.945 129.72 271.49 129.231 270.952 128.83C270.414 128.428 269.812 128.125 269.145 127.92C268.486 127.716 267.786 127.614 267.043 127.614C265.702 127.614 264.501 127.951 263.441 128.625C262.388 129.299 261.555 130.288 260.941 131.591C260.335 132.894 260.032 134.485 260.032 136.364C260.032 138.258 260.335 139.856 260.941 141.159C261.555 142.462 262.392 143.447 263.452 144.114C264.513 144.78 265.706 145.114 267.032 145.114C267.767 145.114 268.464 145.015 269.123 144.818C269.789 144.614 270.392 144.314 270.93 143.92C271.467 143.527 271.922 143.045 272.293 142.477C272.672 141.902 272.933 141.242 273.077 140.5L276.623 140.511C276.433 141.655 276.066 142.708 275.52 143.67C274.983 144.625 274.289 145.451 273.441 146.148C272.6 146.837 271.638 147.371 270.555 147.75C269.471 148.129 268.289 148.318 267.009 148.318C264.994 148.318 263.198 147.841 261.623 146.886C260.047 145.924 258.805 144.549 257.895 142.761C256.994 140.973 256.543 138.841 256.543 136.364C256.543 133.879 256.998 131.746 257.907 129.966C258.816 128.178 260.058 126.807 261.634 125.852C263.21 124.89 265.001 124.409 267.009 124.409C268.244 124.409 269.395 124.587 270.464 124.943C271.539 125.292 272.505 125.807 273.361 126.489C274.217 127.163 274.926 127.989 275.486 128.966C276.047 129.936 276.426 131.045 276.623 132.295ZM292.418 124.727V148H289.02V124.727H292.418ZM296.989 148V130.545H300.387V148H296.989ZM298.705 127.852C298.114 127.852 297.607 127.655 297.182 127.261C296.766 126.86 296.557 126.383 296.557 125.83C296.557 125.269 296.766 124.792 297.182 124.398C297.607 123.996 298.114 123.795 298.705 123.795C299.296 123.795 299.8 123.996 300.216 124.398C300.641 124.792 300.853 125.269 300.853 125.83C300.853 126.383 300.641 126.86 300.216 127.261C299.8 127.655 299.296 127.852 298.705 127.852ZM318.037 134.807L314.958 135.352C314.829 134.958 314.625 134.583 314.344 134.227C314.072 133.871 313.7 133.58 313.231 133.352C312.761 133.125 312.174 133.011 311.469 133.011C310.507 133.011 309.704 133.227 309.06 133.659C308.416 134.083 308.094 134.633 308.094 135.307C308.094 135.89 308.31 136.36 308.742 136.716C309.174 137.072 309.871 137.364 310.833 137.591L313.606 138.227C315.212 138.598 316.409 139.17 317.197 139.943C317.984 140.716 318.378 141.72 318.378 142.955C318.378 144 318.075 144.932 317.469 145.75C316.871 146.561 316.034 147.197 314.958 147.659C313.89 148.121 312.651 148.352 311.242 148.352C309.287 148.352 307.693 147.936 306.458 147.102C305.223 146.261 304.465 145.068 304.185 143.523L307.469 143.023C307.674 143.879 308.094 144.527 308.731 144.966C309.367 145.398 310.197 145.614 311.219 145.614C312.333 145.614 313.223 145.383 313.89 144.92C314.556 144.451 314.89 143.879 314.89 143.205C314.89 142.659 314.685 142.201 314.276 141.83C313.875 141.458 313.257 141.178 312.424 140.989L309.469 140.341C307.84 139.97 306.636 139.379 305.856 138.568C305.083 137.758 304.697 136.731 304.697 135.489C304.697 134.458 304.984 133.557 305.56 132.784C306.136 132.011 306.931 131.409 307.947 130.977C308.962 130.538 310.125 130.318 311.435 130.318C313.322 130.318 314.806 130.727 315.89 131.545C316.973 132.356 317.689 133.443 318.037 134.807ZM330.262 130.545V133.273H320.728V130.545H330.262ZM323.285 126.364H326.682V142.875C326.682 143.534 326.781 144.03 326.978 144.364C327.175 144.689 327.429 144.913 327.739 145.034C328.057 145.148 328.402 145.205 328.773 145.205C329.046 145.205 329.285 145.186 329.489 145.148C329.694 145.11 329.853 145.08 329.966 145.057L330.58 147.864C330.383 147.939 330.103 148.015 329.739 148.091C329.376 148.174 328.921 148.22 328.376 148.227C327.482 148.242 326.648 148.083 325.876 147.75C325.103 147.417 324.478 146.902 324.001 146.205C323.523 145.508 323.285 144.633 323.285 143.58V126.364ZM334.02 148V130.545H337.418V148H334.02ZM335.736 127.852C335.145 127.852 334.638 127.655 334.214 127.261C333.797 126.86 333.589 126.383 333.589 125.83C333.589 125.269 333.797 124.792 334.214 124.398C334.638 123.996 335.145 123.795 335.736 123.795C336.327 123.795 336.831 123.996 337.248 124.398C337.672 124.792 337.884 125.269 337.884 125.83C337.884 126.383 337.672 126.86 337.248 127.261C336.831 127.655 336.327 127.852 335.736 127.852ZM345.387 137.636V148H341.989V130.545H345.251V133.386H345.466C345.868 132.462 346.497 131.72 347.353 131.159C348.216 130.598 349.304 130.318 350.614 130.318C351.804 130.318 352.845 130.568 353.739 131.068C354.633 131.561 355.326 132.295 355.819 133.273C356.311 134.25 356.557 135.458 356.557 136.898V148H353.16V137.307C353.16 136.042 352.83 135.053 352.171 134.341C351.512 133.621 350.607 133.261 349.455 133.261C348.667 133.261 347.966 133.432 347.353 133.773C346.747 134.114 346.266 134.614 345.91 135.273C345.561 135.924 345.387 136.712 345.387 137.636ZM368.432 154.909C367.046 154.909 365.853 154.727 364.853 154.364C363.86 154 363.05 153.519 362.421 152.92C361.792 152.322 361.323 151.667 361.012 150.955L363.932 149.75C364.137 150.083 364.41 150.436 364.751 150.807C365.099 151.186 365.569 151.508 366.16 151.773C366.758 152.038 367.527 152.17 368.466 152.17C369.754 152.17 370.819 151.856 371.66 151.227C372.501 150.606 372.921 149.614 372.921 148.25V144.818H372.705C372.501 145.189 372.205 145.602 371.819 146.057C371.44 146.511 370.917 146.905 370.251 147.239C369.584 147.572 368.716 147.739 367.648 147.739C366.269 147.739 365.027 147.417 363.921 146.773C362.823 146.121 361.951 145.163 361.307 143.898C360.671 142.625 360.353 141.061 360.353 139.205C360.353 137.348 360.667 135.758 361.296 134.432C361.932 133.106 362.804 132.091 363.91 131.386C365.016 130.674 366.269 130.318 367.671 130.318C368.754 130.318 369.629 130.5 370.296 130.864C370.963 131.22 371.482 131.636 371.853 132.114C372.232 132.591 372.523 133.011 372.728 133.375H372.978V130.545H376.307V148.386C376.307 149.886 375.959 151.117 375.262 152.08C374.565 153.042 373.622 153.754 372.432 154.216C371.251 154.678 369.917 154.909 368.432 154.909ZM368.398 144.92C369.376 144.92 370.201 144.693 370.876 144.239C371.557 143.777 372.073 143.117 372.421 142.261C372.777 141.398 372.955 140.364 372.955 139.159C372.955 137.985 372.781 136.951 372.432 136.057C372.084 135.163 371.573 134.466 370.898 133.966C370.224 133.458 369.391 133.205 368.398 133.205C367.376 133.205 366.523 133.47 365.841 134C365.16 134.523 364.644 135.235 364.296 136.136C363.955 137.038 363.785 138.045 363.785 139.159C363.785 140.303 363.959 141.307 364.307 142.17C364.656 143.034 365.171 143.708 365.853 144.193C366.542 144.678 367.391 144.92 368.398 144.92ZM93.2136 182.727C92.2969 182.727 91.4598 182.504 90.7022 182.057C89.9447 181.602 89.3386 180.996 88.8841 180.239C88.4371 179.481 88.2136 178.644 88.2136 177.727C88.2136 176.803 88.4371 175.966 88.8841 175.216C89.3386 174.458 89.9447 173.856 90.7022 173.409C91.4598 172.955 92.2969 172.727 93.2136 172.727C94.1378 172.727 94.975 172.955 95.725 173.409C96.4825 173.856 97.0848 174.458 97.5318 175.216C97.9863 175.966 98.2136 176.803 98.2136 177.727C98.2136 178.644 97.9863 179.481 97.5318 180.239C97.0848 180.996 96.4825 181.602 95.725 182.057C94.975 182.504 94.1378 182.727 93.2136 182.727ZM136.742 163.727V187H133.219V167.25H133.083L127.515 170.886V167.523L133.322 163.727H136.742ZM151.14 187.386C149.344 187.379 147.81 186.905 146.537 185.966C145.265 185.027 144.291 183.659 143.617 181.864C142.943 180.068 142.606 177.905 142.606 175.375C142.606 172.852 142.943 170.697 143.617 168.909C144.299 167.121 145.276 165.758 146.549 164.818C147.829 163.879 149.359 163.409 151.14 163.409C152.92 163.409 154.447 163.883 155.719 164.83C156.992 165.769 157.965 167.133 158.64 168.92C159.322 170.701 159.662 172.852 159.662 175.375C159.662 177.913 159.325 180.08 158.651 181.875C157.977 183.663 157.003 185.03 155.731 185.977C154.458 186.917 152.928 187.386 151.14 187.386ZM151.14 184.352C152.715 184.352 153.947 183.583 154.833 182.045C155.727 180.508 156.174 178.284 156.174 175.375C156.174 173.443 155.969 171.811 155.56 170.477C155.159 169.136 154.579 168.121 153.822 167.432C153.072 166.735 152.178 166.386 151.14 166.386C149.572 166.386 148.34 167.159 147.447 168.705C146.553 170.25 146.102 172.473 146.094 175.375C146.094 177.314 146.295 178.955 146.697 180.295C147.106 181.629 147.685 182.64 148.435 183.33C149.185 184.011 150.087 184.352 151.14 184.352ZM171.796 187.386C170.001 187.379 168.466 186.905 167.194 185.966C165.921 185.027 164.948 183.659 164.273 181.864C163.599 180.068 163.262 177.905 163.262 175.375C163.262 172.852 163.599 170.697 164.273 168.909C164.955 167.121 165.932 165.758 167.205 164.818C168.485 163.879 170.016 163.409 171.796 163.409C173.576 163.409 175.103 163.883 176.376 164.83C177.648 165.769 178.622 167.133 179.296 168.92C179.978 170.701 180.319 172.852 180.319 175.375C180.319 177.913 179.982 180.08 179.307 181.875C178.633 183.663 177.66 185.03 176.387 185.977C175.114 186.917 173.584 187.386 171.796 187.386ZM171.796 184.352C173.372 184.352 174.603 183.583 175.489 182.045C176.383 180.508 176.83 178.284 176.83 175.375C176.83 173.443 176.626 171.811 176.216 170.477C175.815 169.136 175.235 168.121 174.478 167.432C173.728 166.735 172.834 166.386 171.796 166.386C170.228 166.386 168.997 167.159 168.103 168.705C167.209 170.25 166.758 172.473 166.751 175.375C166.751 177.314 166.951 178.955 167.353 180.295C167.762 181.629 168.341 182.64 169.091 183.33C169.841 184.011 170.743 184.352 171.796 184.352ZM192.452 187.386C190.657 187.379 189.123 186.905 187.85 185.966C186.577 185.027 185.604 183.659 184.93 181.864C184.255 180.068 183.918 177.905 183.918 175.375C183.918 172.852 184.255 170.697 184.93 168.909C185.611 167.121 186.589 165.758 187.861 164.818C189.142 163.879 190.672 163.409 192.452 163.409C194.233 163.409 195.759 163.883 197.032 164.83C198.305 165.769 199.278 167.133 199.952 168.92C200.634 170.701 200.975 172.852 200.975 175.375C200.975 177.913 200.638 180.08 199.964 181.875C199.289 183.663 198.316 185.03 197.043 185.977C195.77 186.917 194.24 187.386 192.452 187.386ZM192.452 184.352C194.028 184.352 195.259 183.583 196.145 182.045C197.039 180.508 197.486 178.284 197.486 175.375C197.486 173.443 197.282 171.811 196.873 170.477C196.471 169.136 195.892 168.121 195.134 167.432C194.384 166.735 193.49 166.386 192.452 166.386C190.884 166.386 189.653 167.159 188.759 168.705C187.865 170.25 187.414 172.473 187.407 175.375C187.407 177.314 187.608 178.955 188.009 180.295C188.418 181.629 188.998 182.64 189.748 183.33C190.498 184.011 191.399 184.352 192.452 184.352ZM216.918 176.636V187H213.52V163.727H216.873V172.386H217.089C217.498 171.447 218.123 170.701 218.964 170.148C219.805 169.595 220.903 169.318 222.259 169.318C223.456 169.318 224.501 169.564 225.395 170.057C226.297 170.549 226.994 171.284 227.486 172.261C227.986 173.231 228.236 174.443 228.236 175.898V187H224.839V176.307C224.839 175.027 224.509 174.034 223.85 173.33C223.191 172.617 222.274 172.261 221.1 172.261C220.297 172.261 219.577 172.432 218.941 172.773C218.312 173.114 217.816 173.614 217.452 174.273C217.096 174.924 216.918 175.712 216.918 176.636ZM240.123 187.352C238.486 187.352 237.058 186.977 235.839 186.227C234.619 185.477 233.672 184.428 232.998 183.08C232.323 181.731 231.986 180.155 231.986 178.352C231.986 176.542 232.323 174.958 232.998 173.602C233.672 172.246 234.619 171.193 235.839 170.443C237.058 169.693 238.486 169.318 240.123 169.318C241.759 169.318 243.187 169.693 244.407 170.443C245.626 171.193 246.573 172.246 247.248 173.602C247.922 174.958 248.259 176.542 248.259 178.352C248.259 180.155 247.922 181.731 247.248 183.08C246.573 184.428 245.626 185.477 244.407 186.227C243.187 186.977 241.759 187.352 240.123 187.352ZM240.134 184.5C241.195 184.5 242.073 184.22 242.77 183.659C243.467 183.098 243.983 182.352 244.316 181.42C244.657 180.489 244.827 179.462 244.827 178.341C244.827 177.227 244.657 176.205 244.316 175.273C243.983 174.333 243.467 173.58 242.77 173.011C242.073 172.443 241.195 172.159 240.134 172.159C239.066 172.159 238.18 172.443 237.475 173.011C236.778 173.58 236.259 174.333 235.918 175.273C235.585 176.205 235.418 177.227 235.418 178.341C235.418 179.462 235.585 180.489 235.918 181.42C236.259 182.352 236.778 183.098 237.475 183.659C238.18 184.22 239.066 184.5 240.134 184.5ZM255.449 163.727V187H252.052V163.727H255.449ZM266.555 187.341C265.145 187.341 263.888 186.981 262.782 186.261C261.683 185.534 260.82 184.5 260.191 183.159C259.57 181.811 259.259 180.193 259.259 178.307C259.259 176.42 259.573 174.807 260.202 173.466C260.839 172.125 261.71 171.098 262.816 170.386C263.922 169.674 265.176 169.318 266.577 169.318C267.661 169.318 268.532 169.5 269.191 169.864C269.858 170.22 270.373 170.636 270.736 171.114C271.108 171.591 271.395 172.011 271.6 172.375H271.805V163.727H275.202V187H271.884V184.284H271.6C271.395 184.655 271.1 185.08 270.714 185.557C270.335 186.034 269.812 186.451 269.145 186.807C268.479 187.163 267.615 187.341 266.555 187.341ZM267.305 184.443C268.282 184.443 269.108 184.186 269.782 183.67C270.464 183.148 270.979 182.424 271.327 181.5C271.683 180.576 271.861 179.5 271.861 178.273C271.861 177.061 271.687 176 271.339 175.091C270.99 174.182 270.479 173.473 269.805 172.966C269.13 172.458 268.297 172.205 267.305 172.205C266.282 172.205 265.43 172.47 264.748 173C264.066 173.53 263.551 174.254 263.202 175.17C262.861 176.087 262.691 177.121 262.691 178.273C262.691 179.439 262.865 180.489 263.214 181.42C263.562 182.352 264.077 183.091 264.759 183.636C265.448 184.174 266.297 184.443 267.305 184.443ZM287.574 187.352C285.855 187.352 284.374 186.985 283.131 186.25C281.896 185.508 280.942 184.466 280.268 183.125C279.601 181.777 279.268 180.197 279.268 178.386C279.268 176.598 279.601 175.023 280.268 173.659C280.942 172.295 281.881 171.231 283.086 170.466C284.298 169.701 285.715 169.318 287.336 169.318C288.321 169.318 289.275 169.481 290.199 169.807C291.124 170.133 291.953 170.644 292.688 171.341C293.423 172.038 294.002 172.943 294.427 174.057C294.851 175.163 295.063 176.508 295.063 178.091V179.295H281.188V176.75H291.733C291.733 175.856 291.552 175.064 291.188 174.375C290.824 173.678 290.313 173.129 289.654 172.727C289.002 172.326 288.237 172.125 287.358 172.125C286.404 172.125 285.571 172.36 284.858 172.83C284.154 173.292 283.608 173.898 283.222 174.648C282.843 175.39 282.654 176.197 282.654 177.068V179.057C282.654 180.223 282.858 181.216 283.268 182.034C283.684 182.852 284.264 183.477 285.006 183.909C285.749 184.333 286.616 184.545 287.608 184.545C288.252 184.545 288.84 184.455 289.37 184.273C289.9 184.083 290.358 183.803 290.745 183.432C291.131 183.061 291.427 182.602 291.631 182.057L294.847 182.636C294.59 183.583 294.127 184.413 293.461 185.125C292.802 185.83 291.972 186.379 290.972 186.773C289.98 187.159 288.847 187.352 287.574 187.352ZM298.833 187V169.545H302.117V172.318H302.299C302.617 171.379 303.178 170.64 303.981 170.102C304.791 169.557 305.708 169.284 306.731 169.284C306.943 169.284 307.193 169.292 307.481 169.307C307.776 169.322 308.007 169.341 308.174 169.364V172.614C308.037 172.576 307.795 172.534 307.447 172.489C307.098 172.436 306.75 172.409 306.401 172.409C305.598 172.409 304.882 172.58 304.253 172.92C303.632 173.254 303.14 173.72 302.776 174.318C302.412 174.909 302.231 175.583 302.231 176.341V187H298.833ZM324.194 173.807L321.114 174.352C320.985 173.958 320.781 173.583 320.501 173.227C320.228 172.871 319.857 172.58 319.387 172.352C318.917 172.125 318.33 172.011 317.626 172.011C316.663 172.011 315.86 172.227 315.216 172.659C314.573 173.083 314.251 173.633 314.251 174.307C314.251 174.89 314.466 175.36 314.898 175.716C315.33 176.072 316.027 176.364 316.989 176.591L319.762 177.227C321.368 177.598 322.565 178.17 323.353 178.943C324.141 179.716 324.535 180.72 324.535 181.955C324.535 183 324.232 183.932 323.626 184.75C323.027 185.561 322.19 186.197 321.114 186.659C320.046 187.121 318.807 187.352 317.398 187.352C315.444 187.352 313.849 186.936 312.614 186.102C311.379 185.261 310.622 184.068 310.341 182.523L313.626 182.023C313.83 182.879 314.251 183.527 314.887 183.966C315.523 184.398 316.353 184.614 317.376 184.614C318.489 184.614 319.379 184.383 320.046 183.92C320.713 183.451 321.046 182.879 321.046 182.205C321.046 181.659 320.841 181.201 320.432 180.83C320.031 180.458 319.413 180.178 318.58 179.989L315.626 179.341C313.997 178.97 312.792 178.379 312.012 177.568C311.239 176.758 310.853 175.731 310.853 174.489C310.853 173.458 311.141 172.557 311.716 171.784C312.292 171.011 313.088 170.409 314.103 169.977C315.118 169.538 316.281 169.318 317.591 169.318C319.478 169.318 320.963 169.727 322.046 170.545C323.129 171.356 323.845 172.443 324.194 173.807ZM93.2136 221.727C92.2969 221.727 91.4598 221.504 90.7022 221.057C89.9447 220.602 89.3386 219.996 88.8841 219.239C88.4371 218.481 88.2136 217.644 88.2136 216.727C88.2136 215.803 88.4371 214.966 88.8841 214.216C89.3386 213.458 89.9447 212.856 90.7022 212.409C91.4598 211.955 92.2969 211.727 93.2136 211.727C94.1378 211.727 94.975 211.955 95.725 212.409C96.4825 212.856 97.0848 213.458 97.5318 214.216C97.9863 214.966 98.2136 215.803 98.2136 216.727C98.2136 217.644 97.9863 218.481 97.5318 219.239C97.0848 219.996 96.4825 220.602 95.725 221.057C94.975 221.504 94.1378 221.727 93.2136 221.727Z" fill="#4CC9F0"/>
<line x1="93.7051" y1="20" x2="93.7051" y2="335" stroke="#0FA9D9"/>
</svg>
