<svg width="645" height="654" viewBox="0 0 645 654" fill="none" xmlns="http://www.w3.org/2000/svg">
<path d="M367.795 362L313.795 406.167V317.833L367.795 362Z" fill="#BA1E71"/>
<path fill-rule="evenodd" clip-rule="evenodd" d="M0 406L53.7955 362L0 318H313.795V406H0Z" fill="#BA1E71"/>
<path d="M128.318 376V346.909H138.147C140.429 346.909 142.295 347.321 143.744 348.145C145.202 348.959 146.282 350.062 146.982 351.455C147.683 352.847 148.034 354.4 148.034 356.114C148.034 357.828 147.683 359.385 146.982 360.787C146.291 362.188 145.221 363.306 143.772 364.139C142.323 364.963 140.467 365.375 138.204 365.375H131.159V362.25H138.09C139.653 362.25 140.908 361.98 141.855 361.44C142.802 360.901 143.488 360.171 143.914 359.253C144.35 358.325 144.568 357.278 144.568 356.114C144.568 354.949 144.35 353.907 143.914 352.989C143.488 352.07 142.797 351.35 141.84 350.83C140.884 350.299 139.615 350.034 138.034 350.034H131.84V376H128.318ZM156.606 362.875V376H153.254V346.909H156.606V357.591H156.89C157.401 356.464 158.169 355.569 159.191 354.906C160.223 354.234 161.597 353.898 163.311 353.898C164.797 353.898 166.099 354.196 167.217 354.793C168.334 355.38 169.201 356.284 169.816 357.506C170.441 358.718 170.754 360.261 170.754 362.136V376H167.401V362.364C167.401 360.631 166.952 359.291 166.052 358.344C165.162 357.387 163.926 356.909 162.345 356.909C161.246 356.909 160.261 357.141 159.39 357.605C158.528 358.069 157.847 358.746 157.345 359.636C156.852 360.527 156.606 361.606 156.606 362.875ZM183.307 376.511C181.924 376.511 180.67 376.251 179.543 375.73C178.416 375.2 177.521 374.438 176.858 373.443C176.195 372.439 175.864 371.227 175.864 369.807C175.864 368.557 176.11 367.544 176.602 366.767C177.095 365.981 177.753 365.366 178.577 364.92C179.401 364.475 180.31 364.144 181.304 363.926C182.308 363.699 183.316 363.519 184.33 363.386C185.655 363.216 186.73 363.088 187.554 363.003C188.387 362.908 188.994 362.752 189.372 362.534C189.761 362.316 189.955 361.937 189.955 361.398V361.284C189.955 359.883 189.571 358.794 188.804 358.017C188.047 357.241 186.896 356.852 185.352 356.852C183.752 356.852 182.497 357.203 181.588 357.903C180.679 358.604 180.04 359.352 179.671 360.148L176.489 359.011C177.057 357.686 177.815 356.653 178.762 355.915C179.718 355.167 180.76 354.646 181.887 354.352C183.023 354.049 184.14 353.898 185.239 353.898C185.94 353.898 186.744 353.983 187.654 354.153C188.572 354.314 189.458 354.651 190.31 355.162C191.172 355.673 191.887 356.445 192.455 357.477C193.023 358.509 193.307 359.892 193.307 361.625V376H189.955V373.045H189.784C189.557 373.519 189.178 374.026 188.648 374.565C188.118 375.105 187.412 375.564 186.531 375.943C185.651 376.322 184.576 376.511 183.307 376.511ZM183.818 373.5C185.144 373.5 186.262 373.24 187.171 372.719C188.089 372.198 188.78 371.526 189.244 370.702C189.718 369.878 189.955 369.011 189.955 368.102V365.034C189.813 365.205 189.5 365.361 189.017 365.503C188.544 365.635 187.994 365.754 187.369 365.858C186.754 365.953 186.153 366.038 185.566 366.114C184.988 366.18 184.519 366.237 184.159 366.284C183.288 366.398 182.474 366.582 181.716 366.838C180.968 367.084 180.362 367.458 179.898 367.96C179.443 368.453 179.216 369.125 179.216 369.977C179.216 371.142 179.647 372.023 180.509 372.619C181.38 373.206 182.483 373.5 183.818 373.5ZM214.88 359.068L211.869 359.92C211.679 359.419 211.4 358.931 211.031 358.457C210.671 357.974 210.178 357.577 209.553 357.264C208.928 356.952 208.128 356.795 207.153 356.795C205.818 356.795 204.705 357.103 203.815 357.719C202.934 358.325 202.494 359.097 202.494 360.034C202.494 360.867 202.797 361.526 203.403 362.009C204.009 362.491 204.956 362.894 206.244 363.216L209.482 364.011C211.433 364.485 212.887 365.209 213.843 366.185C214.8 367.151 215.278 368.396 215.278 369.92C215.278 371.17 214.918 372.288 214.198 373.273C213.488 374.258 212.494 375.034 211.215 375.602C209.937 376.17 208.45 376.455 206.755 376.455C204.53 376.455 202.688 375.972 201.23 375.006C199.771 374.04 198.848 372.629 198.46 370.773L201.642 369.977C201.945 371.152 202.517 372.032 203.36 372.619C204.213 373.206 205.325 373.5 206.698 373.5C208.261 373.5 209.501 373.169 210.42 372.506C211.348 371.833 211.812 371.028 211.812 370.091C211.812 369.333 211.547 368.699 211.017 368.188C210.486 367.667 209.672 367.278 208.573 367.023L204.937 366.17C202.939 365.697 201.471 364.963 200.534 363.969C199.606 362.965 199.142 361.71 199.142 360.205C199.142 358.973 199.487 357.884 200.178 356.938C200.879 355.991 201.831 355.247 203.034 354.707C204.246 354.168 205.619 353.898 207.153 353.898C209.312 353.898 211.007 354.371 212.238 355.318C213.479 356.265 214.359 357.515 214.88 359.068ZM229.472 376.455C227.369 376.455 225.556 375.991 224.031 375.062C222.516 374.125 221.347 372.818 220.523 371.142C219.709 369.456 219.301 367.496 219.301 365.261C219.301 363.027 219.709 361.057 220.523 359.352C221.347 357.638 222.493 356.303 223.96 355.347C225.438 354.381 227.161 353.898 229.131 353.898C230.267 353.898 231.389 354.087 232.497 354.466C233.605 354.845 234.614 355.46 235.523 356.312C236.432 357.155 237.156 358.273 237.696 359.665C238.236 361.057 238.506 362.771 238.506 364.807V366.227H221.688V363.33H235.097C235.097 362.098 234.851 361 234.358 360.034C233.875 359.068 233.184 358.306 232.284 357.747C231.394 357.188 230.343 356.909 229.131 356.909C227.796 356.909 226.64 357.241 225.665 357.903C224.699 358.557 223.956 359.409 223.435 360.46C222.914 361.511 222.654 362.638 222.654 363.841V365.773C222.654 367.42 222.938 368.817 223.506 369.963C224.084 371.099 224.884 371.966 225.906 372.562C226.929 373.15 228.118 373.443 229.472 373.443C230.352 373.443 231.148 373.32 231.858 373.074C232.578 372.818 233.198 372.439 233.719 371.938C234.24 371.426 234.642 370.792 234.926 370.034L238.165 370.943C237.824 372.042 237.251 373.008 236.446 373.841C235.641 374.665 234.647 375.309 233.463 375.773C232.28 376.227 230.949 376.455 229.472 376.455ZM256.105 361.966V365.091H243.378V361.966H256.105ZM260.58 376V373.443L270.182 362.932C271.309 361.701 272.237 360.631 272.966 359.722C273.695 358.803 274.235 357.941 274.585 357.136C274.945 356.322 275.125 355.47 275.125 354.58C275.125 353.557 274.879 352.671 274.387 351.923C273.904 351.175 273.241 350.598 272.398 350.19C271.555 349.783 270.608 349.58 269.557 349.58C268.44 349.58 267.464 349.812 266.631 350.276C265.807 350.73 265.168 351.369 264.713 352.193C264.268 353.017 264.046 353.983 264.046 355.091H260.693C260.693 353.386 261.086 351.89 261.872 350.602C262.658 349.314 263.728 348.311 265.083 347.591C266.446 346.871 267.976 346.511 269.671 346.511C271.375 346.511 272.886 346.871 274.202 347.591C275.518 348.311 276.55 349.281 277.298 350.503C278.047 351.724 278.421 353.083 278.421 354.58C278.421 355.65 278.227 356.696 277.838 357.719C277.459 358.732 276.797 359.864 275.85 361.114C274.912 362.354 273.61 363.869 271.943 365.659L265.409 372.648V372.875H278.932V376H260.58Z" fill="black"/>
<circle cx="93.2949" cy="362.5" r="8.5" fill="#D9D9D9"/>
<path d="M93.0085 26.7273C92.0919 26.7273 91.2547 26.5038 90.4972 26.0568C89.7396 25.6023 89.1335 24.9962 88.679 24.2386C88.232 23.4811 88.0085 22.6439 88.0085 21.7273C88.0085 20.803 88.232 19.9659 88.679 19.2159C89.1335 18.4583 89.7396 17.8561 90.4972 17.4091C91.2547 16.9545 92.0919 16.7273 93.0085 16.7273C93.9328 16.7273 94.7699 16.9545 95.5199 17.4091C96.2775 17.8561 96.8797 18.4583 97.3267 19.2159C97.7813 19.9659 98.0085 20.803 98.0085 21.7273C98.0085 22.6439 97.7813 23.4811 97.3267 24.2386C96.8797 24.9962 96.2775 25.6023 95.5199 26.0568C94.7699 26.5038 93.9328 26.7273 93.0085 26.7273ZM138.886 15.2955H135.341C135.205 14.5379 134.951 13.8712 134.58 13.2955C134.208 12.7197 133.754 12.2311 133.216 11.8295C132.678 11.428 132.076 11.125 131.409 10.9205C130.75 10.7159 130.049 10.6136 129.307 10.6136C127.966 10.6136 126.765 10.9508 125.705 11.625C124.652 12.2992 123.818 13.2879 123.205 14.5909C122.598 15.8939 122.295 17.4848 122.295 19.3636C122.295 21.2576 122.598 22.8561 123.205 24.1591C123.818 25.4621 124.655 26.447 125.716 27.1136C126.777 27.7803 127.97 28.1136 129.295 28.1136C130.03 28.1136 130.727 28.0152 131.386 27.8182C132.053 27.6136 132.655 27.3144 133.193 26.9205C133.731 26.5265 134.186 26.0455 134.557 25.4773C134.936 24.9015 135.197 24.2424 135.341 23.5L138.886 23.5114C138.697 24.6553 138.33 25.7083 137.784 26.6705C137.246 27.625 136.553 28.4508 135.705 29.1477C134.864 29.8371 133.902 30.3712 132.818 30.75C131.735 31.1288 130.553 31.3182 129.273 31.3182C127.258 31.3182 125.462 30.8409 123.886 29.8864C122.311 28.9242 121.068 27.5492 120.159 25.7614C119.258 23.9735 118.807 21.8409 118.807 19.3636C118.807 16.8788 119.261 14.7462 120.17 12.9659C121.08 11.178 122.322 9.80682 123.898 8.85227C125.473 7.89015 127.265 7.40909 129.273 7.40909C130.508 7.40909 131.659 7.58712 132.727 7.94318C133.803 8.29167 134.769 8.80682 135.625 9.48864C136.481 10.1629 137.189 10.9886 137.75 11.9659C138.311 12.9356 138.689 14.0455 138.886 15.2955ZM143.088 31V7.72727H157.679V10.75H146.599V17.8409H156.918V20.8523H146.599V27.9773H157.815V31H143.088ZM164.812 7.72727L170.381 16.8295H170.562L176.131 7.72727H180.199L172.949 19.3636L180.244 31H176.153L170.562 22.0227H170.381L164.79 31H160.699L168.119 19.3636L160.744 7.72727H164.812ZM195.276 7.72727V31H191.878V7.72727H195.276ZM199.847 31V13.5455H203.244V31H199.847ZM201.562 10.8523C200.972 10.8523 200.464 10.6553 200.04 10.2614C199.623 9.85985 199.415 9.38257 199.415 8.82954C199.415 8.26894 199.623 7.79167 200.04 7.39773C200.464 6.99621 200.972 6.79545 201.562 6.79545C202.153 6.79545 202.657 6.99621 203.074 7.39773C203.498 7.79167 203.71 8.26894 203.71 8.82954C203.71 9.38257 203.498 9.85985 203.074 10.2614C202.657 10.6553 202.153 10.8523 201.562 10.8523ZM220.895 17.8068L217.815 18.3523C217.687 17.9583 217.482 17.5833 217.202 17.2273C216.929 16.8712 216.558 16.5795 216.088 16.3523C215.618 16.125 215.031 16.0114 214.327 16.0114C213.365 16.0114 212.562 16.2273 211.918 16.6591C211.274 17.0833 210.952 17.6326 210.952 18.3068C210.952 18.8902 211.168 19.3598 211.599 19.7159C212.031 20.072 212.728 20.3636 213.69 20.5909L216.463 21.2273C218.069 21.5985 219.266 22.1705 220.054 22.9432C220.842 23.7159 221.236 24.7197 221.236 25.9545C221.236 27 220.933 27.9318 220.327 28.75C219.728 29.5606 218.891 30.197 217.815 30.6591C216.747 31.1212 215.509 31.3523 214.099 31.3523C212.145 31.3523 210.55 30.9356 209.315 30.1023C208.08 29.2614 207.323 28.0682 207.043 26.5227L210.327 26.0227C210.531 26.8788 210.952 27.5265 211.588 27.9659C212.224 28.3977 213.054 28.6136 214.077 28.6136C215.19 28.6136 216.08 28.3826 216.747 27.9205C217.414 27.4508 217.747 26.8788 217.747 26.2045C217.747 25.6591 217.543 25.2008 217.134 24.8295C216.732 24.4583 216.115 24.178 215.281 23.9886L212.327 23.3409C210.698 22.9697 209.493 22.3788 208.713 21.5682C207.94 20.7576 207.554 19.7311 207.554 18.4886C207.554 17.4583 207.842 16.5568 208.418 15.7841C208.993 15.0114 209.789 14.4091 210.804 13.9773C211.819 13.5379 212.982 13.3182 214.293 13.3182C216.179 13.3182 217.664 13.7273 218.747 14.5455C219.83 15.3561 220.546 16.4432 220.895 17.8068ZM233.119 13.5455V16.2727H223.585V13.5455H233.119ZM226.142 9.36364H229.54V25.875C229.54 26.5341 229.638 27.0303 229.835 27.3636C230.032 27.6894 230.286 27.9129 230.597 28.0341C230.915 28.1477 231.259 28.2045 231.631 28.2045C231.903 28.2045 232.142 28.1856 232.347 28.1477C232.551 28.1098 232.71 28.0795 232.824 28.0568L233.438 30.8636C233.241 30.9394 232.96 31.0152 232.597 31.0909C232.233 31.1742 231.778 31.2197 231.233 31.2273C230.339 31.2424 229.506 31.0833 228.733 30.75C227.96 30.4167 227.335 29.9015 226.858 29.2045C226.381 28.5076 226.142 27.6326 226.142 26.5795V9.36364ZM236.878 31V13.5455H240.276V31H236.878ZM238.594 10.8523C238.003 10.8523 237.495 10.6553 237.071 10.2614C236.654 9.85985 236.446 9.38257 236.446 8.82954C236.446 8.26894 236.654 7.79167 237.071 7.39773C237.495 6.99621 238.003 6.79545 238.594 6.79545C239.185 6.79545 239.688 6.99621 240.105 7.39773C240.529 7.79167 240.741 8.26894 240.741 8.82954C240.741 9.38257 240.529 9.85985 240.105 10.2614C239.688 10.6553 239.185 10.8523 238.594 10.8523ZM248.244 20.6364V31H244.847V13.5455H248.108V16.3864H248.324C248.725 15.4621 249.354 14.7197 250.21 14.1591C251.074 13.5985 252.161 13.3182 253.472 13.3182C254.661 13.3182 255.703 13.5682 256.597 14.0682C257.491 14.5606 258.184 15.2955 258.676 16.2727C259.169 17.25 259.415 18.4583 259.415 19.8977V31H256.017V20.3068C256.017 19.0417 255.688 18.053 255.028 17.3409C254.369 16.6212 253.464 16.2614 252.312 16.2614C251.525 16.2614 250.824 16.4318 250.21 16.7727C249.604 17.1136 249.123 17.6136 248.767 18.2727C248.419 18.9242 248.244 19.7121 248.244 20.6364ZM271.29 37.9091C269.903 37.9091 268.71 37.7273 267.71 37.3636C266.718 37 265.907 36.5189 265.278 35.9205C264.65 35.322 264.18 34.6667 263.869 33.9545L266.79 32.75C266.994 33.0833 267.267 33.4356 267.608 33.8068C267.956 34.1856 268.426 34.5076 269.017 34.7727C269.616 35.0379 270.384 35.1705 271.324 35.1705C272.612 35.1705 273.676 34.8561 274.517 34.2273C275.358 33.6061 275.778 32.6136 275.778 31.25V27.8182H275.562C275.358 28.1894 275.063 28.6023 274.676 29.0568C274.297 29.5114 273.775 29.9053 273.108 30.2386C272.441 30.572 271.574 30.7386 270.506 30.7386C269.127 30.7386 267.884 30.4167 266.778 29.7727C265.68 29.1212 264.809 28.1629 264.165 26.8977C263.528 25.625 263.21 24.0606 263.21 22.2045C263.21 20.3485 263.525 18.7576 264.153 17.4318C264.79 16.1061 265.661 15.0909 266.767 14.3864C267.873 13.6742 269.127 13.3182 270.528 13.3182C271.612 13.3182 272.487 13.5 273.153 13.8636C273.82 14.2197 274.339 14.6364 274.71 15.1136C275.089 15.5909 275.381 16.0114 275.585 16.375H275.835V13.5455H279.165V31.3864C279.165 32.8864 278.816 34.1174 278.119 35.0795C277.422 36.0417 276.479 36.7538 275.29 37.2159C274.108 37.678 272.775 37.9091 271.29 37.9091ZM271.256 27.9205C272.233 27.9205 273.059 27.6932 273.733 27.2386C274.415 26.7765 274.93 26.1174 275.278 25.2614C275.634 24.3977 275.812 23.3636 275.812 22.1591C275.812 20.9848 275.638 19.9508 275.29 19.0568C274.941 18.1629 274.43 17.4659 273.756 16.9659C273.081 16.4583 272.248 16.2045 271.256 16.2045C270.233 16.2045 269.381 16.4697 268.699 17C268.017 17.5227 267.502 18.2348 267.153 19.1364C266.813 20.0379 266.642 21.0455 266.642 22.1591C266.642 23.303 266.816 24.3068 267.165 25.1705C267.513 26.0341 268.028 26.7083 268.71 27.1932C269.4 27.678 270.248 27.9205 271.256 27.9205ZM293.179 19.3636C293.179 16.5152 293.554 13.8939 294.304 11.5C295.054 9.10606 296.149 6.89773 297.588 4.875H300.702C300.141 5.625 299.618 6.54545 299.134 7.63636C298.649 8.72727 298.224 9.92424 297.861 11.2273C297.497 12.5227 297.213 13.8674 297.009 15.2614C296.804 16.6477 296.702 18.0152 296.702 19.3636C296.702 21.1667 296.88 22.9924 297.236 24.8409C297.592 26.6894 298.073 28.4053 298.679 29.9886C299.285 31.572 299.959 32.8636 300.702 33.8636H297.588C296.149 31.8409 295.054 29.6326 294.304 27.2386C293.554 24.8447 293.179 22.2197 293.179 19.3636ZM303.409 10.75V7.72727H321.42V10.75H314.159V31H310.659V10.75H303.409ZM325.128 31V13.5455H328.526V31H325.128ZM326.844 10.8523C326.253 10.8523 325.745 10.6553 325.321 10.2614C324.904 9.85985 324.696 9.38257 324.696 8.82954C324.696 8.26894 324.904 7.79167 325.321 7.39773C325.745 6.99621 326.253 6.79545 326.844 6.79545C327.435 6.79545 327.938 6.99621 328.355 7.39773C328.779 7.79167 328.991 8.26894 328.991 8.82954C328.991 9.38257 328.779 9.85985 328.355 10.2614C327.938 10.6553 327.435 10.8523 326.844 10.8523ZM340.619 31.3523C338.9 31.3523 337.419 30.9848 336.176 30.25C334.941 29.5076 333.987 28.4659 333.312 27.125C332.646 25.7765 332.312 24.197 332.312 22.3864C332.312 20.5985 332.646 19.0227 333.312 17.6591C333.987 16.2955 334.926 15.2311 336.131 14.4659C337.343 13.7008 338.759 13.3182 340.381 13.3182C341.366 13.3182 342.32 13.4811 343.244 13.8068C344.169 14.1326 344.998 14.6439 345.733 15.3409C346.468 16.0379 347.047 16.9432 347.472 18.0568C347.896 19.1629 348.108 20.5076 348.108 22.0909V23.2955H334.233V20.75H344.778C344.778 19.8561 344.597 19.0644 344.233 18.375C343.869 17.678 343.358 17.1288 342.699 16.7273C342.047 16.3258 341.282 16.125 340.403 16.125C339.449 16.125 338.616 16.3598 337.903 16.8295C337.199 17.2917 336.653 17.8977 336.267 18.6477C335.888 19.3902 335.699 20.197 335.699 21.0682V23.0568C335.699 24.2235 335.903 25.2159 336.312 26.0341C336.729 26.8523 337.309 27.4773 338.051 27.9091C338.794 28.3333 339.661 28.5455 340.653 28.5455C341.297 28.5455 341.884 28.4545 342.415 28.2727C342.945 28.0833 343.403 27.803 343.79 27.4318C344.176 27.0606 344.472 26.6023 344.676 26.0568L347.892 26.6364C347.634 27.5833 347.172 28.4129 346.506 29.125C345.847 29.8295 345.017 30.3788 344.017 30.7727C343.025 31.1591 341.892 31.3523 340.619 31.3523ZM351.878 31V13.5455H355.162V16.3182H355.344C355.662 15.3788 356.223 14.6402 357.026 14.1023C357.836 13.5568 358.753 13.2841 359.776 13.2841C359.988 13.2841 360.238 13.2917 360.526 13.3068C360.821 13.322 361.052 13.3409 361.219 13.3636V16.6136C361.082 16.5758 360.84 16.5341 360.491 16.4886C360.143 16.4356 359.795 16.4091 359.446 16.4091C358.643 16.4091 357.927 16.5795 357.298 16.9205C356.677 17.2538 356.185 17.7197 355.821 18.3182C355.457 18.9091 355.276 19.5833 355.276 20.3409V31H351.878ZM381.412 7.72727V31H377.889V11.25H377.753L372.185 14.8864V11.5227L377.991 7.72727H381.412ZM394.287 19.3636C394.287 22.2197 393.912 24.8447 393.162 27.2386C392.412 29.6326 391.317 31.8409 389.878 33.8636H386.764C387.325 33.1136 387.848 32.1932 388.332 31.1023C388.817 30.0114 389.241 28.8182 389.605 27.5227C389.969 26.2197 390.253 24.8712 390.457 23.4773C390.662 22.0833 390.764 20.7121 390.764 19.3636C390.764 17.5682 390.586 15.7462 390.23 13.8977C389.874 12.0492 389.393 10.3333 388.787 8.75C388.181 7.16667 387.507 5.875 386.764 4.875H389.878C391.317 6.89773 392.412 9.10606 393.162 11.5C393.912 13.8939 394.287 16.5152 394.287 19.3636ZM93.0085 65.7273C92.0919 65.7273 91.2547 65.5038 90.4972 65.0568C89.7396 64.6023 89.1335 63.9962 88.679 63.2386C88.232 62.4811 88.0085 61.6439 88.0085 60.7273C88.0085 59.803 88.232 58.9659 88.679 58.2159C89.1335 57.4583 89.7396 56.8561 90.4972 56.4091C91.2547 55.9545 92.0919 55.7273 93.0085 55.7273C93.9328 55.7273 94.7699 55.9545 95.5199 56.4091C96.2775 56.8561 96.8797 57.4583 97.3267 58.2159C97.7813 58.9659 98.0085 59.803 98.0085 60.7273C98.0085 61.6439 97.7813 62.4811 97.3267 63.2386C96.8797 63.9962 96.2775 64.6023 95.5199 65.0568C94.7699 65.5038 93.9328 65.7273 93.0085 65.7273ZM119.557 70V46.7273H128.08C129.731 46.7273 131.098 47 132.182 47.5455C133.265 48.0833 134.076 48.8144 134.614 49.7386C135.152 50.6553 135.42 51.6894 135.42 52.8409C135.42 53.8106 135.242 54.6288 134.886 55.2955C134.53 55.9545 134.053 56.4848 133.455 56.8864C132.864 57.2803 132.212 57.5682 131.5 57.75V57.9773C132.273 58.0152 133.027 58.2652 133.761 58.7273C134.504 59.1818 135.117 59.8295 135.602 60.6705C136.087 61.5114 136.33 62.5341 136.33 63.7386C136.33 64.928 136.049 65.9962 135.489 66.9432C134.936 67.8826 134.08 68.6288 132.92 69.1818C131.761 69.7273 130.28 70 128.477 70H119.557ZM123.068 66.9886H128.136C129.818 66.9886 131.023 66.6629 131.75 66.0114C132.477 65.3598 132.841 64.5455 132.841 63.5682C132.841 62.8333 132.655 62.1591 132.284 61.5455C131.913 60.9318 131.383 60.4432 130.693 60.0795C130.011 59.7159 129.201 59.5341 128.261 59.5341H123.068V66.9886ZM123.068 56.7955H127.773C128.561 56.7955 129.269 56.6439 129.898 56.3409C130.534 56.0379 131.038 55.6136 131.409 55.0682C131.788 54.5152 131.977 53.8636 131.977 53.1136C131.977 52.1515 131.64 51.3447 130.966 50.6932C130.292 50.0417 129.258 49.7159 127.864 49.7159H123.068V56.7955ZM151.278 62.7614V52.5455H154.688V70H151.347V66.9773H151.165C150.763 67.9091 150.119 68.6856 149.233 69.3068C148.354 69.9205 147.259 70.2273 145.949 70.2273C144.828 70.2273 143.835 69.9811 142.972 69.4886C142.116 68.9886 141.441 68.25 140.949 67.2727C140.464 66.2955 140.222 65.0871 140.222 63.6477V52.5455H143.619V63.2386C143.619 64.428 143.949 65.375 144.608 66.0795C145.267 66.7841 146.123 67.1364 147.176 67.1364C147.813 67.1364 148.445 66.9773 149.074 66.6591C149.71 66.3409 150.237 65.8598 150.653 65.2159C151.078 64.572 151.286 63.7538 151.278 62.7614ZM161.401 76.5455C160.893 76.5455 160.431 76.5038 160.014 76.4205C159.598 76.3447 159.287 76.2614 159.082 76.1705L159.901 73.3864C160.522 73.553 161.075 73.625 161.56 73.6023C162.045 73.5795 162.473 73.3977 162.844 73.0568C163.223 72.7159 163.556 72.1591 163.844 71.3864L164.264 70.2273L157.878 52.5455H161.514L165.935 66.0909H166.116L170.537 52.5455H174.185L166.991 72.3295C166.658 73.2386 166.234 74.0076 165.719 74.6364C165.204 75.2727 164.59 75.75 163.878 76.0682C163.166 76.3864 162.34 76.5455 161.401 76.5455ZM186.119 70V46.7273H194.642C196.294 46.7273 197.661 47 198.744 47.5455C199.828 48.0833 200.638 48.8144 201.176 49.7386C201.714 50.6553 201.983 51.6894 201.983 52.8409C201.983 53.8106 201.805 54.6288 201.449 55.2955C201.093 55.9545 200.616 56.4848 200.017 56.8864C199.426 57.2803 198.775 57.5682 198.062 57.75V57.9773C198.835 58.0152 199.589 58.2652 200.324 58.7273C201.066 59.1818 201.68 59.8295 202.165 60.6705C202.65 61.5114 202.892 62.5341 202.892 63.7386C202.892 64.928 202.612 65.9962 202.051 66.9432C201.498 67.8826 200.642 68.6288 199.483 69.1818C198.324 69.7273 196.843 70 195.04 70H186.119ZM189.631 66.9886H194.699C196.381 66.9886 197.585 66.6629 198.312 66.0114C199.04 65.3598 199.403 64.5455 199.403 63.5682C199.403 62.8333 199.218 62.1591 198.847 61.5455C198.475 60.9318 197.945 60.4432 197.256 60.0795C196.574 59.7159 195.763 59.5341 194.824 59.5341H189.631V66.9886ZM189.631 56.7955H194.335C195.123 56.7955 195.831 56.6439 196.46 56.3409C197.097 56.0379 197.6 55.6136 197.972 55.0682C198.35 54.5152 198.54 53.8636 198.54 53.1136C198.54 52.1515 198.203 51.3447 197.528 50.6932C196.854 50.0417 195.82 49.7159 194.426 49.7159H189.631V56.7955ZM211.864 70.3864C210.758 70.3864 209.758 70.1818 208.864 69.7727C207.97 69.3561 207.261 68.7538 206.739 67.9659C206.223 67.178 205.966 66.2121 205.966 65.0682C205.966 64.0833 206.155 63.2727 206.534 62.6364C206.913 62 207.424 61.4962 208.068 61.125C208.712 60.7538 209.432 60.4735 210.227 60.2841C211.023 60.0947 211.833 59.9508 212.659 59.8523C213.705 59.7311 214.553 59.6326 215.205 59.5568C215.856 59.4735 216.33 59.3409 216.625 59.1591C216.92 58.9773 217.068 58.6818 217.068 58.2727V58.1932C217.068 57.2008 216.788 56.4318 216.227 55.8864C215.674 55.3409 214.848 55.0682 213.75 55.0682C212.606 55.0682 211.705 55.322 211.045 55.8295C210.394 56.3295 209.943 56.8864 209.693 57.5L206.5 56.7727C206.879 55.7121 207.432 54.8561 208.159 54.2045C208.894 53.5455 209.739 53.0682 210.693 52.7727C211.648 52.4697 212.652 52.3182 213.705 52.3182C214.402 52.3182 215.14 52.4015 215.92 52.5682C216.708 52.7273 217.443 53.0227 218.125 53.4545C218.814 53.8864 219.379 54.5038 219.818 55.3068C220.258 56.1023 220.477 57.1364 220.477 58.4091V70H217.159V67.6136H217.023C216.803 68.053 216.473 68.4848 216.034 68.9091C215.595 69.3333 215.03 69.6856 214.341 69.9659C213.652 70.2462 212.826 70.3864 211.864 70.3864ZM212.602 67.6591C213.542 67.6591 214.345 67.4735 215.011 67.1023C215.686 66.7311 216.197 66.2462 216.545 65.6477C216.902 65.0417 217.08 64.3939 217.08 63.7045V61.4545C216.958 61.5758 216.723 61.6894 216.375 61.7955C216.034 61.8939 215.644 61.9811 215.205 62.0568C214.765 62.125 214.337 62.1894 213.92 62.25C213.504 62.303 213.155 62.3485 212.875 62.3864C212.216 62.4697 211.614 62.6098 211.068 62.8068C210.53 63.0038 210.098 63.2879 209.773 63.6591C209.455 64.0227 209.295 64.5076 209.295 65.1136C209.295 65.9545 209.606 66.5909 210.227 67.0227C210.848 67.447 211.64 67.6591 212.602 67.6591ZM232.355 70.3523C230.666 70.3523 229.211 69.9697 227.991 69.2045C226.779 68.4318 225.848 67.3674 225.196 66.0114C224.545 64.6553 224.219 63.1023 224.219 61.3523C224.219 59.5795 224.552 58.0152 225.219 56.6591C225.885 55.2955 226.825 54.2311 228.037 53.4659C229.249 52.7008 230.677 52.3182 232.321 52.3182C233.647 52.3182 234.829 52.5644 235.866 53.0568C236.904 53.5417 237.741 54.2235 238.378 55.1023C239.022 55.9811 239.404 57.0076 239.526 58.1818H236.219C236.037 57.3636 235.62 56.6591 234.969 56.0682C234.325 55.4773 233.461 55.1818 232.378 55.1818C231.431 55.1818 230.601 55.4318 229.889 55.9318C229.185 56.4242 228.635 57.1288 228.241 58.0455C227.848 58.9545 227.651 60.0303 227.651 61.2727C227.651 62.5455 227.844 63.6439 228.23 64.5682C228.616 65.4924 229.162 66.2083 229.866 66.7159C230.579 67.2235 231.416 67.4773 232.378 67.4773C233.022 67.4773 233.605 67.3598 234.128 67.125C234.658 66.8826 235.101 66.5379 235.457 66.0909C235.821 65.6439 236.075 65.1061 236.219 64.4773H239.526C239.404 65.6061 239.037 66.6136 238.423 67.5C237.81 68.3864 236.988 69.0833 235.957 69.5909C234.935 70.0985 233.734 70.3523 232.355 70.3523ZM246.284 64.0795L246.261 59.9318H246.852L253.807 52.5455H257.875L249.943 60.9545H249.409L246.284 64.0795ZM243.159 70V46.7273H246.557V70H243.159ZM254.182 70L247.932 61.7045L250.273 59.3295L258.352 70H254.182ZM276.213 70.3295C274.652 70.3295 273.308 70.0455 272.179 69.4773C271.058 68.9091 270.194 68.1364 269.588 67.1591C268.982 66.1742 268.679 65.0606 268.679 63.8182C268.679 62.8712 268.876 62.0303 269.27 61.2955C269.664 60.553 270.213 59.8674 270.918 59.2386C271.622 58.6098 272.437 57.9773 273.361 57.3409L277.111 54.6932C277.747 54.2765 278.243 53.8371 278.599 53.375C278.955 52.9053 279.134 52.3258 279.134 51.6364C279.134 51.0909 278.899 50.5682 278.429 50.0682C277.959 49.5682 277.33 49.3182 276.543 49.3182C275.997 49.3182 275.516 49.4508 275.099 49.7159C274.69 49.9811 274.368 50.322 274.134 50.7386C273.906 51.1477 273.793 51.5795 273.793 52.0341C273.793 52.5644 273.937 53.0985 274.224 53.6364C274.52 54.1742 274.899 54.7311 275.361 55.3068C275.823 55.875 276.308 56.4659 276.815 57.0795L287.622 70H283.781L274.838 59.4886C274.088 58.6023 273.391 57.7689 272.747 56.9886C272.103 56.2008 271.58 55.4053 271.179 54.6023C270.785 53.7917 270.588 52.9167 270.588 51.9773C270.588 50.9091 270.83 49.9621 271.315 49.1364C271.808 48.303 272.493 47.6515 273.372 47.1818C274.251 46.7121 275.281 46.4773 276.463 46.4773C277.66 46.4773 278.687 46.7121 279.543 47.1818C280.406 47.6439 281.069 48.2614 281.531 49.0341C282.001 49.7992 282.236 50.6364 282.236 51.5455C282.236 52.6515 281.959 53.6288 281.406 54.4773C280.861 55.3182 280.107 56.0909 279.145 56.7955L274.474 60.2386C273.565 60.9053 272.933 61.5644 272.577 62.2159C272.228 62.8598 272.054 63.3636 272.054 63.7273C272.054 64.3939 272.224 65.0114 272.565 65.5795C272.914 66.1477 273.399 66.6023 274.02 66.9432C274.649 67.2841 275.384 67.4545 276.224 67.4545C277.088 67.4545 277.929 67.2689 278.747 66.8977C279.573 66.5189 280.319 65.9773 280.986 65.2727C281.66 64.5682 282.194 63.7235 282.588 62.7386C282.982 61.7538 283.179 60.6515 283.179 59.4318H286.247C286.247 60.9318 286.077 62.2008 285.736 63.2386C285.395 64.2689 284.982 65.1098 284.497 65.7614C284.02 66.4053 283.569 66.9091 283.145 67.2727C283.009 67.3939 282.88 67.5152 282.759 67.6364C282.637 67.7576 282.509 67.8788 282.372 68C281.584 68.7955 280.63 69.3826 279.509 69.7614C278.395 70.1402 277.296 70.3295 276.213 70.3295ZM299.026 70V46.7273H307.548C309.2 46.7273 310.567 47 311.651 47.5455C312.734 48.0833 313.545 48.8144 314.082 49.7386C314.62 50.6553 314.889 51.6894 314.889 52.8409C314.889 53.8106 314.711 54.6288 314.355 55.2955C313.999 55.9545 313.522 56.4848 312.923 56.8864C312.332 57.2803 311.681 57.5682 310.969 57.75V57.9773C311.741 58.0152 312.495 58.2652 313.23 58.7273C313.973 59.1818 314.586 59.8295 315.071 60.6705C315.556 61.5114 315.798 62.5341 315.798 63.7386C315.798 64.928 315.518 65.9962 314.957 66.9432C314.404 67.8826 313.548 68.6288 312.389 69.1818C311.23 69.7273 309.749 70 307.946 70H299.026ZM302.537 66.9886H307.605C309.287 66.9886 310.491 66.6629 311.219 66.0114C311.946 65.3598 312.31 64.5455 312.31 63.5682C312.31 62.8333 312.124 62.1591 311.753 61.5455C311.382 60.9318 310.851 60.4432 310.162 60.0795C309.48 59.7159 308.67 59.5341 307.73 59.5341H302.537V66.9886ZM302.537 56.7955H307.241C308.029 56.7955 308.738 56.6439 309.366 56.3409C310.003 56.0379 310.507 55.6136 310.878 55.0682C311.257 54.5152 311.446 53.8636 311.446 53.1136C311.446 52.1515 311.109 51.3447 310.435 50.6932C309.76 50.0417 308.726 49.7159 307.332 49.7159H302.537V56.7955ZM330.747 62.7614V52.5455H334.156V70H330.815V66.9773H330.634C330.232 67.9091 329.588 68.6856 328.702 69.3068C327.823 69.9205 326.728 70.2273 325.418 70.2273C324.296 70.2273 323.304 69.9811 322.44 69.4886C321.584 68.9886 320.91 68.25 320.418 67.2727C319.933 66.2955 319.69 65.0871 319.69 63.6477V52.5455H323.088V63.2386C323.088 64.428 323.418 65.375 324.077 66.0795C324.736 66.7841 325.592 67.1364 326.645 67.1364C327.281 67.1364 327.914 66.9773 328.543 66.6591C329.179 66.3409 329.705 65.8598 330.122 65.2159C330.546 64.572 330.755 63.7538 330.747 62.7614ZM338.722 70V52.5455H342.006V55.3182H342.188C342.506 54.3788 343.066 53.6402 343.869 53.1023C344.68 52.5568 345.597 52.2841 346.619 52.2841C346.831 52.2841 347.081 52.2917 347.369 52.3068C347.665 52.322 347.896 52.3409 348.062 52.3636V55.6136C347.926 55.5758 347.684 55.5341 347.335 55.4886C346.987 55.4356 346.638 55.4091 346.29 55.4091C345.487 55.4091 344.771 55.5795 344.142 55.9205C343.521 56.2538 343.028 56.7197 342.665 57.3182C342.301 57.9091 342.119 58.5833 342.119 59.3409V70H338.722ZM354.401 59.6364V70H351.003V52.5455H354.264V55.3864H354.48C354.882 54.4621 355.51 53.7197 356.366 53.1591C357.23 52.5985 358.317 52.3182 359.628 52.3182C360.817 52.3182 361.859 52.5682 362.753 53.0682C363.647 53.5606 364.34 54.2955 364.832 55.2727C365.325 56.25 365.571 57.4583 365.571 58.8977V70H362.173V59.3068C362.173 58.0417 361.844 57.053 361.185 56.3409C360.526 55.6212 359.62 55.2614 358.469 55.2614C357.681 55.2614 356.98 55.4318 356.366 55.7727C355.76 56.1136 355.279 56.6136 354.923 57.2727C354.575 57.9242 354.401 58.7121 354.401 59.6364ZM93.0085 104.727C92.0919 104.727 91.2547 104.504 90.4972 104.057C89.7396 103.602 89.1335 102.996 88.679 102.239C88.232 101.481 88.0085 100.644 88.0085 99.7273C88.0085 98.803 88.232 97.9659 88.679 97.2159C89.1335 96.4583 89.7396 95.8561 90.4972 95.4091C91.2547 94.9545 92.0919 94.7273 93.0085 94.7273C93.9328 94.7273 94.7699 94.9545 95.5199 95.4091C96.2775 95.8561 96.8797 96.4583 97.3267 97.2159C97.7813 97.9659 98.0085 98.803 98.0085 99.7273C98.0085 100.644 97.7813 101.481 97.3267 102.239C96.8797 102.996 96.2775 103.602 95.5199 104.057C94.7699 104.504 93.9328 104.727 93.0085 104.727ZM128.068 85.7273V109H124.545V89.25H124.409L118.841 92.8864V89.5227L124.648 85.7273H128.068ZM142.466 109.386C140.67 109.379 139.136 108.905 137.864 107.966C136.591 107.027 135.617 105.659 134.943 103.864C134.269 102.068 133.932 99.9053 133.932 97.375C133.932 94.8523 134.269 92.697 134.943 90.9091C135.625 89.1212 136.602 87.7576 137.875 86.8182C139.155 85.8788 140.686 85.4091 142.466 85.4091C144.246 85.4091 145.773 85.8826 147.045 86.8295C148.318 87.7689 149.292 89.1326 149.966 90.9205C150.648 92.7008 150.989 94.8523 150.989 97.375C150.989 99.9129 150.652 102.08 149.977 103.875C149.303 105.663 148.33 107.03 147.057 107.977C145.784 108.917 144.254 109.386 142.466 109.386ZM142.466 106.352C144.042 106.352 145.273 105.583 146.159 104.045C147.053 102.508 147.5 100.284 147.5 97.375C147.5 95.4432 147.295 93.8106 146.886 92.4773C146.485 91.1364 145.905 90.1212 145.148 89.4318C144.398 88.7348 143.504 88.3864 142.466 88.3864C140.898 88.3864 139.667 89.1591 138.773 90.7045C137.879 92.25 137.428 94.4735 137.42 97.375C137.42 99.3144 137.621 100.955 138.023 102.295C138.432 103.629 139.011 104.64 139.761 105.33C140.511 106.011 141.413 106.352 142.466 106.352ZM163.122 109.386C161.327 109.379 159.793 108.905 158.52 107.966C157.247 107.027 156.274 105.659 155.599 103.864C154.925 102.068 154.588 99.9053 154.588 97.375C154.588 94.8523 154.925 92.697 155.599 90.9091C156.281 89.1212 157.259 87.7576 158.531 86.8182C159.812 85.8788 161.342 85.4091 163.122 85.4091C164.902 85.4091 166.429 85.8826 167.702 86.8295C168.974 87.7689 169.948 89.1326 170.622 90.9205C171.304 92.7008 171.645 94.8523 171.645 97.375C171.645 99.9129 171.308 102.08 170.634 103.875C169.959 105.663 168.986 107.03 167.713 107.977C166.44 108.917 164.91 109.386 163.122 109.386ZM163.122 106.352C164.698 106.352 165.929 105.583 166.815 104.045C167.709 102.508 168.156 100.284 168.156 97.375C168.156 95.4432 167.952 93.8106 167.543 92.4773C167.141 91.1364 166.562 90.1212 165.804 89.4318C165.054 88.7348 164.16 88.3864 163.122 88.3864C161.554 88.3864 160.323 89.1591 159.429 90.7045C158.535 92.25 158.084 94.4735 158.077 97.375C158.077 99.3144 158.277 100.955 158.679 102.295C159.088 103.629 159.668 104.64 160.418 105.33C161.168 106.011 162.069 106.352 163.122 106.352ZM183.778 109.386C181.983 109.379 180.449 108.905 179.176 107.966C177.903 107.027 176.93 105.659 176.256 103.864C175.581 102.068 175.244 99.9053 175.244 97.375C175.244 94.8523 175.581 92.697 176.256 90.9091C176.938 89.1212 177.915 87.7576 179.188 86.8182C180.468 85.8788 181.998 85.4091 183.778 85.4091C185.559 85.4091 187.085 85.8826 188.358 86.8295C189.631 87.7689 190.604 89.1326 191.278 90.9205C191.96 92.7008 192.301 94.8523 192.301 97.375C192.301 99.9129 191.964 102.08 191.29 103.875C190.616 105.663 189.642 107.03 188.369 107.977C187.097 108.917 185.566 109.386 183.778 109.386ZM183.778 106.352C185.354 106.352 186.585 105.583 187.472 104.045C188.366 102.508 188.812 100.284 188.812 97.375C188.812 95.4432 188.608 93.8106 188.199 92.4773C187.797 91.1364 187.218 90.1212 186.46 89.4318C185.71 88.7348 184.816 88.3864 183.778 88.3864C182.21 88.3864 180.979 89.1591 180.085 90.7045C179.191 92.25 178.741 94.4735 178.733 97.375C178.733 99.3144 178.934 100.955 179.335 102.295C179.744 103.629 180.324 104.64 181.074 105.33C181.824 106.011 182.725 106.352 183.778 106.352ZM204.435 109.386C202.639 109.379 201.105 108.905 199.832 107.966C198.56 107.027 197.586 105.659 196.912 103.864C196.238 102.068 195.901 99.9053 195.901 97.375C195.901 94.8523 196.238 92.697 196.912 90.9091C197.594 89.1212 198.571 87.7576 199.844 86.8182C201.124 85.8788 202.654 85.4091 204.435 85.4091C206.215 85.4091 207.741 85.8826 209.014 86.8295C210.287 87.7689 211.26 89.1326 211.935 90.9205C212.616 92.7008 212.957 94.8523 212.957 97.375C212.957 99.9129 212.62 102.08 211.946 103.875C211.272 105.663 210.298 107.03 209.026 107.977C207.753 108.917 206.223 109.386 204.435 109.386ZM204.435 106.352C206.01 106.352 207.241 105.583 208.128 104.045C209.022 102.508 209.469 100.284 209.469 97.375C209.469 95.4432 209.264 93.8106 208.855 92.4773C208.454 91.1364 207.874 90.1212 207.116 89.4318C206.366 88.7348 205.473 88.3864 204.435 88.3864C202.866 88.3864 201.635 89.1591 200.741 90.7045C199.848 92.25 199.397 94.4735 199.389 97.375C199.389 99.3144 199.59 100.955 199.991 102.295C200.401 103.629 200.98 104.64 201.73 105.33C202.48 106.011 203.382 106.352 204.435 106.352ZM228.901 98.6364V109H225.503V85.7273H228.855V94.3864H229.071C229.48 93.447 230.105 92.7008 230.946 92.1477C231.787 91.5947 232.885 91.3182 234.241 91.3182C235.438 91.3182 236.484 91.5644 237.378 92.0568C238.279 92.5492 238.976 93.2841 239.469 94.2614C239.969 95.2311 240.219 96.4432 240.219 97.8977V109H236.821V98.3068C236.821 97.0265 236.491 96.0341 235.832 95.3295C235.173 94.6174 234.257 94.2614 233.082 94.2614C232.279 94.2614 231.56 94.4318 230.923 94.7727C230.295 95.1136 229.798 95.6136 229.435 96.2727C229.079 96.9242 228.901 97.7121 228.901 98.6364ZM252.105 109.352C250.469 109.352 249.041 108.977 247.821 108.227C246.601 107.477 245.654 106.428 244.98 105.08C244.306 103.731 243.969 102.155 243.969 100.352C243.969 98.5417 244.306 96.9583 244.98 95.6023C245.654 94.2462 246.601 93.1932 247.821 92.4432C249.041 91.6932 250.469 91.3182 252.105 91.3182C253.741 91.3182 255.17 91.6932 256.389 92.4432C257.609 93.1932 258.556 94.2462 259.23 95.6023C259.904 96.9583 260.241 98.5417 260.241 100.352C260.241 102.155 259.904 103.731 259.23 105.08C258.556 106.428 257.609 107.477 256.389 108.227C255.17 108.977 253.741 109.352 252.105 109.352ZM252.116 106.5C253.177 106.5 254.056 106.22 254.753 105.659C255.45 105.098 255.965 104.352 256.298 103.42C256.639 102.489 256.81 101.462 256.81 100.341C256.81 99.2273 256.639 98.2045 256.298 97.2727C255.965 96.3333 255.45 95.5795 254.753 95.0114C254.056 94.4432 253.177 94.1591 252.116 94.1591C251.048 94.1591 250.162 94.4432 249.457 95.0114C248.76 95.5795 248.241 96.3333 247.901 97.2727C247.567 98.2045 247.401 99.2273 247.401 100.341C247.401 101.462 247.567 102.489 247.901 103.42C248.241 104.352 248.76 105.098 249.457 105.659C250.162 106.22 251.048 106.5 252.116 106.5ZM267.432 85.7273V109H264.034V85.7273H267.432ZM278.537 109.341C277.128 109.341 275.87 108.981 274.764 108.261C273.666 107.534 272.802 106.5 272.173 105.159C271.552 103.811 271.241 102.193 271.241 100.307C271.241 98.4205 271.556 96.8068 272.185 95.4659C272.821 94.125 273.692 93.0985 274.798 92.3864C275.904 91.6742 277.158 91.3182 278.56 91.3182C279.643 91.3182 280.514 91.5 281.173 91.8636C281.84 92.2197 282.355 92.6364 282.719 93.1136C283.09 93.5909 283.378 94.0114 283.582 94.375H283.787V85.7273H287.185V109H283.866V106.284H283.582C283.378 106.655 283.082 107.08 282.696 107.557C282.317 108.034 281.795 108.451 281.128 108.807C280.461 109.163 279.598 109.341 278.537 109.341ZM279.287 106.443C280.264 106.443 281.09 106.186 281.764 105.67C282.446 105.148 282.961 104.424 283.31 103.5C283.666 102.576 283.844 101.5 283.844 100.273C283.844 99.0606 283.67 98 283.321 97.0909C282.973 96.1818 282.461 95.4735 281.787 94.9659C281.113 94.4583 280.279 94.2045 279.287 94.2045C278.264 94.2045 277.412 94.4697 276.73 95C276.048 95.5303 275.533 96.2538 275.185 97.1705C274.844 98.0871 274.673 99.1212 274.673 100.273C274.673 101.439 274.848 102.489 275.196 103.42C275.545 104.352 276.06 105.091 276.741 105.636C277.431 106.174 278.279 106.443 279.287 106.443ZM299.557 109.352C297.837 109.352 296.356 108.985 295.114 108.25C293.879 107.508 292.924 106.466 292.25 105.125C291.583 103.777 291.25 102.197 291.25 100.386C291.25 98.5985 291.583 97.0227 292.25 95.6591C292.924 94.2955 293.864 93.2311 295.068 92.4659C296.28 91.7008 297.697 91.3182 299.318 91.3182C300.303 91.3182 301.258 91.4811 302.182 91.8068C303.106 92.1326 303.936 92.6439 304.67 93.3409C305.405 94.0379 305.985 94.9432 306.409 96.0568C306.833 97.1629 307.045 98.5076 307.045 100.091V101.295H293.17V98.75H303.716C303.716 97.8561 303.534 97.0644 303.17 96.375C302.807 95.678 302.295 95.1288 301.636 94.7273C300.985 94.3258 300.22 94.125 299.341 94.125C298.386 94.125 297.553 94.3598 296.841 94.8295C296.136 95.2917 295.591 95.8977 295.205 96.6477C294.826 97.3902 294.636 98.197 294.636 99.0682V101.057C294.636 102.223 294.841 103.216 295.25 104.034C295.667 104.852 296.246 105.477 296.989 105.909C297.731 106.333 298.598 106.545 299.591 106.545C300.235 106.545 300.822 106.455 301.352 106.273C301.883 106.083 302.341 105.803 302.727 105.432C303.114 105.061 303.409 104.602 303.614 104.057L306.83 104.636C306.572 105.583 306.11 106.413 305.443 107.125C304.784 107.83 303.955 108.379 302.955 108.773C301.962 109.159 300.83 109.352 299.557 109.352ZM310.815 109V91.5455H314.099V94.3182H314.281C314.599 93.3788 315.16 92.6402 315.963 92.1023C316.774 91.5568 317.69 91.2841 318.713 91.2841C318.925 91.2841 319.175 91.2917 319.463 91.3068C319.759 91.322 319.99 91.3409 320.156 91.3636V94.6136C320.02 94.5758 319.777 94.5341 319.429 94.4886C319.08 94.4356 318.732 94.4091 318.384 94.4091C317.58 94.4091 316.865 94.5795 316.236 94.9205C315.615 95.2538 315.122 95.7197 314.759 96.3182C314.395 96.9091 314.213 97.5833 314.213 98.3409V109H310.815ZM336.176 95.8068L333.097 96.3523C332.968 95.9583 332.763 95.5833 332.483 95.2273C332.21 94.8712 331.839 94.5795 331.369 94.3523C330.9 94.125 330.313 94.0114 329.608 94.0114C328.646 94.0114 327.843 94.2273 327.199 94.6591C326.555 95.0833 326.233 95.6326 326.233 96.3068C326.233 96.8902 326.449 97.3598 326.881 97.7159C327.313 98.072 328.009 98.3636 328.972 98.5909L331.744 99.2273C333.35 99.5985 334.547 100.17 335.335 100.943C336.123 101.716 336.517 102.72 336.517 103.955C336.517 105 336.214 105.932 335.608 106.75C335.009 107.561 334.172 108.197 333.097 108.659C332.028 109.121 330.79 109.352 329.381 109.352C327.426 109.352 325.831 108.936 324.597 108.102C323.362 107.261 322.604 106.068 322.324 104.523L325.608 104.023C325.813 104.879 326.233 105.527 326.869 105.966C327.506 106.398 328.335 106.614 329.358 106.614C330.472 106.614 331.362 106.383 332.028 105.92C332.695 105.451 333.028 104.879 333.028 104.205C333.028 103.659 332.824 103.201 332.415 102.83C332.013 102.458 331.396 102.178 330.562 101.989L327.608 101.341C325.979 100.97 324.775 100.379 323.994 99.5682C323.222 98.7576 322.835 97.7311 322.835 96.4886C322.835 95.4583 323.123 94.5568 323.699 93.7841C324.275 93.0114 325.07 92.4091 326.085 91.9773C327.1 91.5379 328.263 91.3182 329.574 91.3182C331.46 91.3182 332.945 91.7273 334.028 92.5455C335.112 93.3561 335.828 94.4432 336.176 95.8068ZM93.0085 143.727C92.0919 143.727 91.2547 143.504 90.4972 143.057C89.7396 142.602 89.1335 141.996 88.679 141.239C88.232 140.481 88.0085 139.644 88.0085 138.727C88.0085 137.803 88.232 136.966 88.679 136.216C89.1335 135.458 89.7396 134.856 90.4972 134.409C91.2547 133.955 92.0919 133.727 93.0085 133.727C93.9328 133.727 94.7699 133.955 95.5199 134.409C96.2775 134.856 96.8797 135.458 97.3267 136.216C97.7813 136.966 98.0085 137.803 98.0085 138.727C98.0085 139.644 97.7813 140.481 97.3267 141.239C96.8797 141.996 96.2775 142.602 95.5199 143.057C94.7699 143.504 93.9328 143.727 93.0085 143.727ZM119.557 148V124.727H123.068V134.841H134.67V124.727H138.193V148H134.67V137.852H123.068V148H119.557ZM154.091 140.761V130.545H157.5V148H154.159V144.977H153.977C153.576 145.909 152.932 146.686 152.045 147.307C151.167 147.92 150.072 148.227 148.761 148.227C147.64 148.227 146.648 147.981 145.784 147.489C144.928 146.989 144.254 146.25 143.761 145.273C143.277 144.295 143.034 143.087 143.034 141.648V130.545H146.432V141.239C146.432 142.428 146.761 143.375 147.42 144.08C148.08 144.784 148.936 145.136 149.989 145.136C150.625 145.136 151.258 144.977 151.886 144.659C152.523 144.341 153.049 143.86 153.466 143.216C153.89 142.572 154.098 141.754 154.091 140.761ZM169.384 154.909C167.997 154.909 166.804 154.727 165.804 154.364C164.812 154 164.001 153.519 163.372 152.92C162.743 152.322 162.274 151.667 161.963 150.955L164.884 149.75C165.088 150.083 165.361 150.436 165.702 150.807C166.05 151.186 166.52 151.508 167.111 151.773C167.709 152.038 168.478 152.17 169.418 152.17C170.705 152.17 171.77 151.856 172.611 151.227C173.452 150.606 173.872 149.614 173.872 148.25V144.818H173.656C173.452 145.189 173.156 145.602 172.77 146.057C172.391 146.511 171.868 146.905 171.202 147.239C170.535 147.572 169.668 147.739 168.599 147.739C167.221 147.739 165.978 147.417 164.872 146.773C163.774 146.121 162.902 145.163 162.259 143.898C161.622 142.625 161.304 141.061 161.304 139.205C161.304 137.348 161.618 135.758 162.247 134.432C162.884 133.106 163.755 132.091 164.861 131.386C165.967 130.674 167.221 130.318 168.622 130.318C169.705 130.318 170.58 130.5 171.247 130.864C171.914 131.22 172.433 131.636 172.804 132.114C173.183 132.591 173.474 133.011 173.679 133.375H173.929V130.545H177.259V148.386C177.259 149.886 176.91 151.117 176.213 152.08C175.516 153.042 174.573 153.754 173.384 154.216C172.202 154.678 170.868 154.909 169.384 154.909ZM169.349 144.92C170.327 144.92 171.152 144.693 171.827 144.239C172.509 143.777 173.024 143.117 173.372 142.261C173.728 141.398 173.906 140.364 173.906 139.159C173.906 137.985 173.732 136.951 173.384 136.057C173.035 135.163 172.524 134.466 171.849 133.966C171.175 133.458 170.342 133.205 169.349 133.205C168.327 133.205 167.474 133.47 166.793 134C166.111 134.523 165.596 135.235 165.247 136.136C164.906 137.038 164.736 138.045 164.736 139.159C164.736 140.303 164.91 141.307 165.259 142.17C165.607 143.034 166.122 143.708 166.804 144.193C167.493 144.678 168.342 144.92 169.349 144.92ZM189.338 148.352C187.618 148.352 186.137 147.985 184.895 147.25C183.66 146.508 182.705 145.466 182.031 144.125C181.365 142.777 181.031 141.197 181.031 139.386C181.031 137.598 181.365 136.023 182.031 134.659C182.705 133.295 183.645 132.231 184.849 131.466C186.062 130.701 187.478 130.318 189.099 130.318C190.084 130.318 191.039 130.481 191.963 130.807C192.887 131.133 193.717 131.644 194.452 132.341C195.187 133.038 195.766 133.943 196.19 135.057C196.615 136.163 196.827 137.508 196.827 139.091V140.295H182.952V137.75H193.497C193.497 136.856 193.315 136.064 192.952 135.375C192.588 134.678 192.077 134.129 191.418 133.727C190.766 133.326 190.001 133.125 189.122 133.125C188.168 133.125 187.334 133.36 186.622 133.83C185.918 134.292 185.372 134.898 184.986 135.648C184.607 136.39 184.418 137.197 184.418 138.068V140.057C184.418 141.223 184.622 142.216 185.031 143.034C185.448 143.852 186.027 144.477 186.77 144.909C187.512 145.333 188.38 145.545 189.372 145.545C190.016 145.545 190.603 145.455 191.134 145.273C191.664 145.083 192.122 144.803 192.509 144.432C192.895 144.061 193.19 143.602 193.395 143.057L196.611 143.636C196.353 144.583 195.891 145.413 195.224 146.125C194.565 146.83 193.736 147.379 192.736 147.773C191.743 148.159 190.611 148.352 189.338 148.352ZM209.338 124.727H213.599L221.009 142.818H221.281L228.69 124.727H232.952V148H229.611V131.159H229.395L222.531 147.966H219.759L212.895 131.148H212.679V148H209.338V124.727ZM242.864 148.386C241.758 148.386 240.758 148.182 239.864 147.773C238.97 147.356 238.261 146.754 237.739 145.966C237.223 145.178 236.966 144.212 236.966 143.068C236.966 142.083 237.155 141.273 237.534 140.636C237.913 140 238.424 139.496 239.068 139.125C239.712 138.754 240.432 138.473 241.227 138.284C242.023 138.095 242.833 137.951 243.659 137.852C244.705 137.731 245.553 137.633 246.205 137.557C246.856 137.473 247.33 137.341 247.625 137.159C247.92 136.977 248.068 136.682 248.068 136.273V136.193C248.068 135.201 247.788 134.432 247.227 133.886C246.674 133.341 245.848 133.068 244.75 133.068C243.606 133.068 242.705 133.322 242.045 133.83C241.394 134.33 240.943 134.886 240.693 135.5L237.5 134.773C237.879 133.712 238.432 132.856 239.159 132.205C239.894 131.545 240.739 131.068 241.693 130.773C242.648 130.47 243.652 130.318 244.705 130.318C245.402 130.318 246.14 130.402 246.92 130.568C247.708 130.727 248.443 131.023 249.125 131.455C249.814 131.886 250.379 132.504 250.818 133.307C251.258 134.102 251.477 135.136 251.477 136.409V148H248.159V145.614H248.023C247.803 146.053 247.473 146.485 247.034 146.909C246.595 147.333 246.03 147.686 245.341 147.966C244.652 148.246 243.826 148.386 242.864 148.386ZM243.602 145.659C244.542 145.659 245.345 145.473 246.011 145.102C246.686 144.731 247.197 144.246 247.545 143.648C247.902 143.042 248.08 142.394 248.08 141.705V139.455C247.958 139.576 247.723 139.689 247.375 139.795C247.034 139.894 246.644 139.981 246.205 140.057C245.765 140.125 245.337 140.189 244.92 140.25C244.504 140.303 244.155 140.348 243.875 140.386C243.216 140.47 242.614 140.61 242.068 140.807C241.53 141.004 241.098 141.288 240.773 141.659C240.455 142.023 240.295 142.508 240.295 143.114C240.295 143.955 240.606 144.591 241.227 145.023C241.848 145.447 242.64 145.659 243.602 145.659ZM256.003 148V130.545H259.287V133.318H259.469C259.787 132.379 260.348 131.64 261.151 131.102C261.961 130.557 262.878 130.284 263.901 130.284C264.113 130.284 264.363 130.292 264.651 130.307C264.946 130.322 265.177 130.341 265.344 130.364V133.614C265.207 133.576 264.965 133.534 264.616 133.489C264.268 133.436 263.92 133.409 263.571 133.409C262.768 133.409 262.052 133.58 261.423 133.92C260.802 134.254 260.31 134.72 259.946 135.318C259.582 135.909 259.401 136.583 259.401 137.341V148H256.003ZM271.409 142.08L271.386 137.932H271.977L278.932 130.545H283L275.068 138.955H274.534L271.409 142.08ZM268.284 148V124.727H271.682V148H268.284ZM279.307 148L273.057 139.705L275.398 137.33L283.477 148H279.307ZM292.901 148.352C291.181 148.352 289.7 147.985 288.457 147.25C287.223 146.508 286.268 145.466 285.594 144.125C284.927 142.777 284.594 141.197 284.594 139.386C284.594 137.598 284.927 136.023 285.594 134.659C286.268 133.295 287.207 132.231 288.412 131.466C289.624 130.701 291.041 130.318 292.662 130.318C293.647 130.318 294.601 130.481 295.526 130.807C296.45 131.133 297.279 131.644 298.014 132.341C298.749 133.038 299.329 133.943 299.753 135.057C300.177 136.163 300.389 137.508 300.389 139.091V140.295H286.514V137.75H297.06C297.06 136.856 296.878 136.064 296.514 135.375C296.151 134.678 295.639 134.129 294.98 133.727C294.329 133.326 293.563 133.125 292.685 133.125C291.73 133.125 290.897 133.36 290.185 133.83C289.48 134.292 288.935 134.898 288.548 135.648C288.17 136.39 287.98 137.197 287.98 138.068V140.057C287.98 141.223 288.185 142.216 288.594 143.034C289.01 143.852 289.59 144.477 290.332 144.909C291.075 145.333 291.942 145.545 292.935 145.545C293.579 145.545 294.166 145.455 294.696 145.273C295.226 145.083 295.685 144.803 296.071 144.432C296.457 144.061 296.753 143.602 296.957 143.057L300.173 143.636C299.916 144.583 299.454 145.413 298.787 146.125C298.128 146.83 297.298 147.379 296.298 147.773C295.306 148.159 294.173 148.352 292.901 148.352ZM312.307 130.545V133.273H302.773V130.545H312.307ZM305.33 126.364H308.727V142.875C308.727 143.534 308.826 144.03 309.023 144.364C309.22 144.689 309.473 144.913 309.784 145.034C310.102 145.148 310.447 145.205 310.818 145.205C311.091 145.205 311.33 145.186 311.534 145.148C311.739 145.11 311.898 145.08 312.011 145.057L312.625 147.864C312.428 147.939 312.148 148.015 311.784 148.091C311.42 148.174 310.966 148.22 310.42 148.227C309.527 148.242 308.693 148.083 307.92 147.75C307.148 147.417 306.523 146.902 306.045 146.205C305.568 145.508 305.33 144.633 305.33 143.58V126.364ZM316.065 148V130.545H319.463V148H316.065ZM317.781 127.852C317.19 127.852 316.683 127.655 316.259 127.261C315.842 126.86 315.634 126.383 315.634 125.83C315.634 125.269 315.842 124.792 316.259 124.398C316.683 123.996 317.19 123.795 317.781 123.795C318.372 123.795 318.876 123.996 319.293 124.398C319.717 124.792 319.929 125.269 319.929 125.83C319.929 126.383 319.717 126.86 319.293 127.261C318.876 127.655 318.372 127.852 317.781 127.852ZM327.432 137.636V148H324.034V130.545H327.295V133.386H327.511C327.913 132.462 328.542 131.72 329.398 131.159C330.261 130.598 331.348 130.318 332.659 130.318C333.848 130.318 334.89 130.568 335.784 131.068C336.678 131.561 337.371 132.295 337.864 133.273C338.356 134.25 338.602 135.458 338.602 136.898V148H335.205V137.307C335.205 136.042 334.875 135.053 334.216 134.341C333.557 133.621 332.652 133.261 331.5 133.261C330.712 133.261 330.011 133.432 329.398 133.773C328.792 134.114 328.311 134.614 327.955 135.273C327.606 135.924 327.432 136.712 327.432 137.636ZM350.477 154.909C349.091 154.909 347.898 154.727 346.898 154.364C345.905 154 345.095 153.519 344.466 152.92C343.837 152.322 343.367 151.667 343.057 150.955L345.977 149.75C346.182 150.083 346.455 150.436 346.795 150.807C347.144 151.186 347.614 151.508 348.205 151.773C348.803 152.038 349.572 152.17 350.511 152.17C351.799 152.17 352.864 151.856 353.705 151.227C354.545 150.606 354.966 149.614 354.966 148.25V144.818H354.75C354.545 145.189 354.25 145.602 353.864 146.057C353.485 146.511 352.962 146.905 352.295 147.239C351.629 147.572 350.761 147.739 349.693 147.739C348.314 147.739 347.072 147.417 345.966 146.773C344.867 146.121 343.996 145.163 343.352 143.898C342.716 142.625 342.398 141.061 342.398 139.205C342.398 137.348 342.712 135.758 343.341 134.432C343.977 133.106 344.848 132.091 345.955 131.386C347.061 130.674 348.314 130.318 349.716 130.318C350.799 130.318 351.674 130.5 352.341 130.864C353.008 131.22 353.527 131.636 353.898 132.114C354.277 132.591 354.568 133.011 354.773 133.375H355.023V130.545H358.352V148.386C358.352 149.886 358.004 151.117 357.307 152.08C356.61 153.042 355.667 153.754 354.477 154.216C353.295 154.678 351.962 154.909 350.477 154.909ZM350.443 144.92C351.42 144.92 352.246 144.693 352.92 144.239C353.602 143.777 354.117 143.117 354.466 142.261C354.822 141.398 355 140.364 355 139.159C355 137.985 354.826 136.951 354.477 136.057C354.129 135.163 353.617 134.466 352.943 133.966C352.269 133.458 351.436 133.205 350.443 133.205C349.42 133.205 348.568 133.47 347.886 134C347.205 134.523 346.689 135.235 346.341 136.136C346 137.038 345.83 138.045 345.83 139.159C345.83 140.303 346.004 141.307 346.352 142.17C346.701 143.034 347.216 143.708 347.898 144.193C348.587 144.678 349.436 144.92 350.443 144.92ZM378.73 148.352C377.041 148.352 375.586 147.97 374.366 147.205C373.154 146.432 372.223 145.367 371.571 144.011C370.92 142.655 370.594 141.102 370.594 139.352C370.594 137.58 370.927 136.015 371.594 134.659C372.26 133.295 373.2 132.231 374.412 131.466C375.624 130.701 377.052 130.318 378.696 130.318C380.022 130.318 381.204 130.564 382.241 131.057C383.279 131.542 384.116 132.223 384.753 133.102C385.397 133.981 385.779 135.008 385.901 136.182H382.594C382.412 135.364 381.995 134.659 381.344 134.068C380.7 133.477 379.836 133.182 378.753 133.182C377.806 133.182 376.976 133.432 376.264 133.932C375.56 134.424 375.01 135.129 374.616 136.045C374.223 136.955 374.026 138.03 374.026 139.273C374.026 140.545 374.219 141.644 374.605 142.568C374.991 143.492 375.537 144.208 376.241 144.716C376.954 145.223 377.791 145.477 378.753 145.477C379.397 145.477 379.98 145.36 380.503 145.125C381.033 144.883 381.476 144.538 381.832 144.091C382.196 143.644 382.45 143.106 382.594 142.477H385.901C385.779 143.606 385.412 144.614 384.798 145.5C384.185 146.386 383.363 147.083 382.332 147.591C381.31 148.098 380.109 148.352 378.73 148.352ZM394.614 148.386C393.508 148.386 392.508 148.182 391.614 147.773C390.72 147.356 390.011 146.754 389.489 145.966C388.973 145.178 388.716 144.212 388.716 143.068C388.716 142.083 388.905 141.273 389.284 140.636C389.663 140 390.174 139.496 390.818 139.125C391.462 138.754 392.182 138.473 392.977 138.284C393.773 138.095 394.583 137.951 395.409 137.852C396.455 137.731 397.303 137.633 397.955 137.557C398.606 137.473 399.08 137.341 399.375 137.159C399.67 136.977 399.818 136.682 399.818 136.273V136.193C399.818 135.201 399.538 134.432 398.977 133.886C398.424 133.341 397.598 133.068 396.5 133.068C395.356 133.068 394.455 133.322 393.795 133.83C393.144 134.33 392.693 134.886 392.443 135.5L389.25 134.773C389.629 133.712 390.182 132.856 390.909 132.205C391.644 131.545 392.489 131.068 393.443 130.773C394.398 130.47 395.402 130.318 396.455 130.318C397.152 130.318 397.89 130.402 398.67 130.568C399.458 130.727 400.193 131.023 400.875 131.455C401.564 131.886 402.129 132.504 402.568 133.307C403.008 134.102 403.227 135.136 403.227 136.409V148H399.909V145.614H399.773C399.553 146.053 399.223 146.485 398.784 146.909C398.345 147.333 397.78 147.686 397.091 147.966C396.402 148.246 395.576 148.386 394.614 148.386ZM395.352 145.659C396.292 145.659 397.095 145.473 397.761 145.102C398.436 144.731 398.947 144.246 399.295 143.648C399.652 143.042 399.83 142.394 399.83 141.705V139.455C399.708 139.576 399.473 139.689 399.125 139.795C398.784 139.894 398.394 139.981 397.955 140.057C397.515 140.125 397.087 140.189 396.67 140.25C396.254 140.303 395.905 140.348 395.625 140.386C394.966 140.47 394.364 140.61 393.818 140.807C393.28 141.004 392.848 141.288 392.523 141.659C392.205 142.023 392.045 142.508 392.045 143.114C392.045 143.955 392.356 144.591 392.977 145.023C393.598 145.447 394.39 145.659 395.352 145.659ZM407.753 148V130.545H411.014V133.386H411.23C411.594 132.424 412.188 131.674 413.014 131.136C413.84 130.591 414.829 130.318 415.98 130.318C417.147 130.318 418.124 130.591 418.912 131.136C419.707 131.682 420.295 132.432 420.673 133.386H420.855C421.272 132.455 421.935 131.712 422.844 131.159C423.753 130.598 424.836 130.318 426.094 130.318C427.677 130.318 428.969 130.814 429.969 131.807C430.976 132.799 431.48 134.295 431.48 136.295V148H428.082V136.614C428.082 135.432 427.76 134.576 427.116 134.045C426.473 133.515 425.704 133.25 424.81 133.25C423.704 133.25 422.844 133.591 422.23 134.273C421.616 134.947 421.31 135.814 421.31 136.875V148H417.923V136.398C417.923 135.451 417.628 134.689 417.037 134.114C416.446 133.538 415.677 133.25 414.73 133.25C414.086 133.25 413.491 133.42 412.946 133.761C412.408 134.095 411.973 134.561 411.639 135.159C411.313 135.758 411.151 136.451 411.151 137.239V148H407.753ZM436.034 154.545V130.545H439.352V133.375H439.636C439.833 133.011 440.117 132.591 440.489 132.114C440.86 131.636 441.375 131.22 442.034 130.864C442.693 130.5 443.564 130.318 444.648 130.318C446.057 130.318 447.314 130.674 448.42 131.386C449.527 132.098 450.394 133.125 451.023 134.466C451.659 135.807 451.977 137.42 451.977 139.307C451.977 141.193 451.663 142.811 451.034 144.159C450.405 145.5 449.542 146.534 448.443 147.261C447.345 147.981 446.091 148.341 444.682 148.341C443.621 148.341 442.754 148.163 442.08 147.807C441.413 147.451 440.89 147.034 440.511 146.557C440.133 146.08 439.841 145.655 439.636 145.284H439.432V154.545H436.034ZM439.364 139.273C439.364 140.5 439.542 141.576 439.898 142.5C440.254 143.424 440.769 144.148 441.443 144.67C442.117 145.186 442.943 145.443 443.92 145.443C444.936 145.443 445.784 145.174 446.466 144.636C447.148 144.091 447.663 143.352 448.011 142.42C448.367 141.489 448.545 140.439 448.545 139.273C448.545 138.121 448.371 137.087 448.023 136.17C447.682 135.254 447.167 134.53 446.477 134C445.795 133.47 444.943 133.205 443.92 133.205C442.936 133.205 442.102 133.458 441.42 133.966C440.746 134.473 440.235 135.182 439.886 136.091C439.538 137 439.364 138.061 439.364 139.273ZM460.864 148.386C459.758 148.386 458.758 148.182 457.864 147.773C456.97 147.356 456.261 146.754 455.739 145.966C455.223 145.178 454.966 144.212 454.966 143.068C454.966 142.083 455.155 141.273 455.534 140.636C455.913 140 456.424 139.496 457.068 139.125C457.712 138.754 458.432 138.473 459.227 138.284C460.023 138.095 460.833 137.951 461.659 137.852C462.705 137.731 463.553 137.633 464.205 137.557C464.856 137.473 465.33 137.341 465.625 137.159C465.92 136.977 466.068 136.682 466.068 136.273V136.193C466.068 135.201 465.788 134.432 465.227 133.886C464.674 133.341 463.848 133.068 462.75 133.068C461.606 133.068 460.705 133.322 460.045 133.83C459.394 134.33 458.943 134.886 458.693 135.5L455.5 134.773C455.879 133.712 456.432 132.856 457.159 132.205C457.894 131.545 458.739 131.068 459.693 130.773C460.648 130.47 461.652 130.318 462.705 130.318C463.402 130.318 464.14 130.402 464.92 130.568C465.708 130.727 466.443 131.023 467.125 131.455C467.814 131.886 468.379 132.504 468.818 133.307C469.258 134.102 469.477 135.136 469.477 136.409V148H466.159V145.614H466.023C465.803 146.053 465.473 146.485 465.034 146.909C464.595 147.333 464.03 147.686 463.341 147.966C462.652 148.246 461.826 148.386 460.864 148.386ZM461.602 145.659C462.542 145.659 463.345 145.473 464.011 145.102C464.686 144.731 465.197 144.246 465.545 143.648C465.902 143.042 466.08 142.394 466.08 141.705V139.455C465.958 139.576 465.723 139.689 465.375 139.795C465.034 139.894 464.644 139.981 464.205 140.057C463.765 140.125 463.337 140.189 462.92 140.25C462.504 140.303 462.155 140.348 461.875 140.386C461.216 140.47 460.614 140.61 460.068 140.807C459.53 141.004 459.098 141.288 458.773 141.659C458.455 142.023 458.295 142.508 458.295 143.114C458.295 143.955 458.606 144.591 459.227 145.023C459.848 145.447 460.64 145.659 461.602 145.659ZM474.003 148V130.545H477.401V148H474.003ZM475.719 127.852C475.128 127.852 474.62 127.655 474.196 127.261C473.779 126.86 473.571 126.383 473.571 125.83C473.571 125.269 473.779 124.792 474.196 124.398C474.62 123.996 475.128 123.795 475.719 123.795C476.31 123.795 476.813 123.996 477.23 124.398C477.654 124.792 477.866 125.269 477.866 125.83C477.866 126.383 477.654 126.86 477.23 127.261C476.813 127.655 476.31 127.852 475.719 127.852ZM489.29 154.909C487.903 154.909 486.71 154.727 485.71 154.364C484.718 154 483.907 153.519 483.278 152.92C482.65 152.322 482.18 151.667 481.869 150.955L484.79 149.75C484.994 150.083 485.267 150.436 485.608 150.807C485.956 151.186 486.426 151.508 487.017 151.773C487.616 152.038 488.384 152.17 489.324 152.17C490.612 152.17 491.676 151.856 492.517 151.227C493.358 150.606 493.778 149.614 493.778 148.25V144.818H493.562C493.358 145.189 493.063 145.602 492.676 146.057C492.297 146.511 491.775 146.905 491.108 147.239C490.441 147.572 489.574 147.739 488.506 147.739C487.127 147.739 485.884 147.417 484.778 146.773C483.68 146.121 482.809 145.163 482.165 143.898C481.528 142.625 481.21 141.061 481.21 139.205C481.21 137.348 481.525 135.758 482.153 134.432C482.79 133.106 483.661 132.091 484.767 131.386C485.873 130.674 487.127 130.318 488.528 130.318C489.612 130.318 490.487 130.5 491.153 130.864C491.82 131.22 492.339 131.636 492.71 132.114C493.089 132.591 493.381 133.011 493.585 133.375H493.835V130.545H497.165V148.386C497.165 149.886 496.816 151.117 496.119 152.08C495.422 153.042 494.479 153.754 493.29 154.216C492.108 154.678 490.775 154.909 489.29 154.909ZM489.256 144.92C490.233 144.92 491.059 144.693 491.733 144.239C492.415 143.777 492.93 143.117 493.278 142.261C493.634 141.398 493.812 140.364 493.812 139.159C493.812 137.985 493.638 136.951 493.29 136.057C492.941 135.163 492.43 134.466 491.756 133.966C491.081 133.458 490.248 133.205 489.256 133.205C488.233 133.205 487.381 133.47 486.699 134C486.017 134.523 485.502 135.235 485.153 136.136C484.813 137.038 484.642 138.045 484.642 139.159C484.642 140.303 484.816 141.307 485.165 142.17C485.513 143.034 486.028 143.708 486.71 144.193C487.4 144.678 488.248 144.92 489.256 144.92ZM505.119 137.636V148H501.722V130.545H504.983V133.386H505.199C505.6 132.462 506.229 131.72 507.085 131.159C507.949 130.598 509.036 130.318 510.347 130.318C511.536 130.318 512.578 130.568 513.472 131.068C514.366 131.561 515.059 132.295 515.551 133.273C516.044 134.25 516.29 135.458 516.29 136.898V148H512.892V137.307C512.892 136.042 512.563 135.053 511.903 134.341C511.244 133.621 510.339 133.261 509.188 133.261C508.4 133.261 507.699 133.432 507.085 133.773C506.479 134.114 505.998 134.614 505.642 135.273C505.294 135.924 505.119 136.712 505.119 137.636Z" fill="#BA1E71"/>
<line x1="93.5" y1="19" x2="93.5" y2="364" stroke="#BA1E71"/>
</svg>
