<svg xmlns="http://www.w3.org/2000/svg" width="73" height="69.783" viewBox="0 0 73 69.783"><defs><style>.a,.b,.f{fill:none;}.a{stroke:#024;opacity:0.3;}.b{stroke:#7ad8ff;stroke-linecap:round;}.c{fill:#024;}.d{fill:#0c9eda;}.e,.g{stroke:none;}.g{fill:#0c9eda;}</style></defs><g transform="translate(-923 -2468.5)"><g class="a" transform="translate(990 2479)"><circle class="e" cx="3" cy="3" r="3"/><circle class="f" cx="3" cy="3" r="2.5"/></g><g class="a" transform="translate(923 2497)"><circle class="e" cx="2.5" cy="2.5" r="2.5"/><circle class="f" cx="2.5" cy="2.5" r="2"/></g><g transform="translate(481.652 -14.134)"><path class="b" d="M392.783,2449.325v5.655" transform="translate(69.239 33.808)"/><path class="b" d="M0,0V5.655" transform="translate(464.85 2485.961) rotate(90)"/></g><g transform="translate(757.363 2425.993)"><path class="c" d="M236.917,67.928a22.484,22.484,0,0,0-30.4-16.55c-7.237,2.889-11.761,8.331-13.605,15.937a.776.776,0,0,1-.667.65c-.583.148-1.171.289-1.748.46a4.674,4.674,0,0,1,.624,1.723q.647-.195,1.321-.35c-.554,7.094,1.476,13.272,6.5,18.307s11.231,7.079,18.349,6.529c-.083.332-.187.649-.285.971a3.669,3.669,0,0,1,1.859.142c.08-.3.173-.591.243-.9a.8.8,0,0,1,.694-.694,22.507,22.507,0,0,0,17.114-26.228Zm-5.2-7.658c.445.741.93,1.534,1.391,2.341.058.1-.007.285-.045.422-.019.068-.108.118-.165.176L217.233,78.871c-.071.071-.148.137-.262.241l-1.6-2.5Zm-3.279-3.688,1.968,1.979L214.113,74.853l-1.972-1.974Zm-1.687-1.257L210.41,71.667l-2.438-1.545,16.3-16.3Zm-7.162-3.2c.868.284,1.755.51,2.743.791-.2.214-.323.359-.458.493q-7.7,7.7-15.389,15.408a.736.736,0,0,1-.943.205c-.84-.346-1.708-.619-2.625-.943.165-.179.292-.329.431-.466q7.59-7.591,15.176-15.189A.918.918,0,0,1,219.588,52.129Zm-6.556-.473c1.169.026,2.339.008,3.623.008-.217.234-.346.384-.485.524q-7.525,7.527-15.046,15.058a1.063,1.063,0,0,1-.961.362c-1.111-.12-2.227-.19-3.341-.28l-.126-.161a4.157,4.157,0,0,0,.54-.392q7.273-7.261,14.531-14.536A1.632,1.632,0,0,1,213.032,51.656Zm-4.181,1L195.1,66.326C196.993,59.457,203.055,53.988,208.851,52.659Zm-14.5,17.194c.008-.182.449-.481.7-.491,1.275-.05,2.554-.024,3.839-.024l-4.569,4.57C194.322,72.582,194.295,71.215,194.354,69.853Zm.317,6.761a.676.676,0,0,1,.208-.513q3.078-3.106,6.184-6.184a.675.675,0,0,1,.514-.2c1,.253,1.986.548,2.977.829l.1.214-9.13,8.934C195.218,78.6,194.923,77.614,194.671,76.615Zm3.257,7.511c-.42-.7-.83-1.429-1.283-2.128a.588.588,0,0,1,.121-.88c2.405-2.379,4.791-4.777,7.183-7.169.735-.735,1.461-1.479,2.214-2.2.127-.122.426-.232.548-.166.818.442,1.609.933,2.371,1.385Zm1.208,1.672,11.613-11.613,2.015,2.078L201.222,87.793Zm3.77,3.31,11.152-11.154,1.487,2.408L205.324,90.583Zm7.476,3.284c-1.017-.268-2.025-.573-3.015-.861l9.119-9.12c.288.99.592,2,.861,3.014a.612.612,0,0,1-.195.457q-3.145,3.167-6.314,6.313A.608.608,0,0,1,210.382,92.392ZM217.71,92a1.065,1.065,0,0,1-.717.75c-1.328.077-2.663.036-3.945.036l4.7-4.7C217.744,89.368,217.787,90.688,217.71,92Zm1.261-7.951c-.367-1-.732-1.941-1.039-2.9a.783.783,0,0,1,.245-.6c1.717-1.742,3.451-3.465,5.18-5.195q5.08-5.078,10.154-10.161a3.084,3.084,0,0,0,.364-.568l.277.144c.283.971.587,1.938.831,2.919a.821.821,0,0,1-.251.612c-.994,1.024-2.01,2.025-3.018,3.033L219.481,83.566C219.327,83.72,219.165,83.867,218.971,84.05Zm1.555,7.98,14-14.056A20.071,20.071,0,0,1,220.526,92.029Zm14.851-17.611a.793.793,0,0,1-.269.449q-7.54,7.556-15.091,15.1c-.067.067-.145.122-.258.216-.117-1.3-.235-2.524-.329-3.755a.631.631,0,0,1,.2-.41q7.8-7.81,15.62-15.609c.012-.012.036-.012.135-.044C235.389,71.74,235.4,73.079,235.377,74.419Z" transform="translate(-3.588 0)"/><g transform="translate(171.5 67.374)"><g class="d" transform="translate(-171.5 -71.5)"><path class="e" d="M 193.8076019287109 116.2651901245117 C 181.4244537353516 116.2651901245117 171.3500213623047 106.1907577514648 171.3500213623047 93.80759429931641 C 171.3500213623047 81.4244384765625 181.4244537353516 71.34999847412109 193.8076019287109 71.34999847412109 C 206.1907501220703 71.34999847412109 216.2651824951172 81.4244384765625 216.2651824951172 93.80759429931641 C 216.2651824951172 106.1907577514648 206.1907501220703 116.2651901245117 193.8076019287109 116.2651901245117 Z M 193.8076019287109 73.27237701416016 C 182.4844512939453 73.27237701416016 173.2723693847656 82.48443603515625 173.2723693847656 93.80759429931641 C 173.2723693847656 105.130744934082 182.4844512939453 114.3428039550781 193.8076019287109 114.3428039550781 C 205.1307525634766 114.3428039550781 214.3428192138672 105.130744934082 214.3428192138672 93.80759429931641 C 214.3428192138672 82.48443603515625 205.1307525634766 73.27237701416016 193.8076019287109 73.27237701416016 Z"/><path class="g" d="M 193.8076019287109 116.1151885986328 C 206.1083984375 116.1151885986328 216.1151733398438 106.1084060668945 216.1151733398438 93.80759429931641 C 216.1151733398438 81.50679016113281 206.1083984375 71.5 193.8076019287109 71.5 C 181.5067901611328 71.5 171.5000152587891 81.50679016113281 171.5000152587891 93.80759429931641 C 171.5000152587891 106.1084060668945 181.5067901611328 116.1151885986328 193.8076019287109 116.1151885986328 M 193.8076019287109 73.12237548828125 C 205.2136688232422 73.12237548828125 214.4928131103516 82.40151977539062 214.4928131103516 93.80759429931641 C 214.4928131103516 105.2136688232422 205.2136688232422 114.492805480957 193.8076019287109 114.492805480957 C 182.4015197753906 114.492805480957 173.1223754882812 105.2136688232422 173.1223754882812 93.80759429931641 C 173.1223754882812 82.40151977539062 182.4015197753906 73.12237548828125 193.8076019287109 73.12237548828125 M 193.8076019287109 116.4151840209961 C 181.3417358398438 116.4151840209961 171.2000122070312 106.2734680175781 171.2000122070312 93.80759429931641 C 171.2000122070312 81.34172821044922 181.3417358398438 71.19999694824219 193.8076019287109 71.19999694824219 C 206.2734680175781 71.19999694824219 216.4151763916016 81.34172821044922 216.4151763916016 93.80759429931641 C 216.4151763916016 106.2734680175781 206.2734680175781 116.4151840209961 193.8076019287109 116.4151840209961 Z M 193.8076019287109 73.42237854003906 C 182.5671539306641 73.42237854003906 173.4223785400391 82.56714630126953 173.4223785400391 93.80759429931641 C 173.4223785400391 105.0480346679688 182.5671539306641 114.1928100585938 193.8076019287109 114.1928100585938 C 205.0480499267578 114.1928100585938 214.1928100585938 105.0480346679688 214.1928100585938 93.80759429931641 C 214.1928100585938 82.56714630126953 205.0480499267578 73.42237854003906 193.8076019287109 73.42237854003906 Z"/></g></g></g></g></svg>