<svg xmlns="http://www.w3.org/2000/svg" width="73" height="54.41" viewBox="0 0 73 54.41"><defs><style>.a,.b,.e{fill:none;}.a{stroke:#024;opacity:0.3;}.b{stroke:#7ad8ff;stroke-linecap:round;}.c{fill:#0c9eda;}.d{stroke:none;}</style></defs><g transform="translate(-434 -2852.5)"><g transform="translate(-489 384)"><g class="a" transform="translate(990 2479)"><circle class="d" cx="3" cy="3" r="3"/><circle class="e" cx="3" cy="3" r="2.5"/></g><g class="a" transform="translate(923 2497)"><circle class="d" cx="2.5" cy="2.5" r="2.5"/><circle class="e" cx="2.5" cy="2.5" r="2"/></g><g transform="translate(481.652 -14.134)"><path class="b" d="M392.783,2449.325v5.655" transform="translate(69.239 33.808)"/><path class="b" d="M0,0V5.655" transform="translate(464.85 2485.961) rotate(90)"/></g></g><g transform="translate(-209.09 2781.028)"><path class="c" d="M700.594,82.837a13.516,13.516,0,0,0-3.777-6.82,13.824,13.824,0,0,0-19.546,0,13.255,13.255,0,0,0-4.105,9.75A13.853,13.853,0,0,0,678.716,97l1.164.935-1.37.593-.148.066c-.124.057-.232.1-.342.142a27.178,27.178,0,0,0-11.455,7.683,26.291,26.291,0,0,0-5.167,8.594c-.365,1.013-.655,2.094-.936,3.138-.122.454-.245.907-.372,1.359v1.359c.065.2.125.4.185.6a8.09,8.09,0,0,0,.5,1.363,5.414,5.414,0,0,0,4.1,2.968,1.318,1.318,0,0,1,.282.085h8.618l.059-.029a3.564,3.564,0,0,0,.4-.217,1.271,1.271,0,0,0-.8-2.3q-1.282-.005-2.565-.005H667.9q-.93,0-1.859,0a3.369,3.369,0,0,1-2.716-1.191,3.406,3.406,0,0,1-.539-2.947,24.951,24.951,0,0,1,17.823-18.563,23.733,23.733,0,0,1,6.329-.886,21.871,21.871,0,0,1,3.534.288,41.413,41.413,0,0,1,4.294,1.025l.847.233a2.287,2.287,0,0,0,.6.085,1.179,1.179,0,0,0,1.216-.843,1.278,1.278,0,0,0-.955-1.655l-.563-.211-.319-.121-1.52-.572,1.29-.985a13.867,13.867,0,0,0,5.235-14.147ZM687.25,97.208h-.026a11.151,11.151,0,1,1,.026,0Z" transform="translate(0)"/><path d="M714.143,126.79a17.339,17.339,0,0,0,1.6-6.427,16.411,16.411,0,0,0-1.311-6.987,5.051,5.051,0,0,0-5.279-3.555h-5.929a4.925,4.925,0,0,0-5.164,3.621,1.588,1.588,0,0,1-1.631,1.179c-2.647-.013-5.28-.013-7.914-.013q-2.74,0-5.48,0a1.6,1.6,0,0,0-1.266.463q-.614.636-1.232,1.267c-.8.822-1.6,1.644-2.391,2.479a1.223,1.223,0,0,0-.009,1.836c.923.968,1.883,1.939,2.81,2.878l.909.921a1.407,1.407,0,0,0,1.063.44h.536l1.516,0,1.514,0c1.111,0,2.222,0,3.333-.022a1.815,1.815,0,0,0,.832-.256,1.182,1.182,0,0,0,.458-1.35,1.227,1.227,0,0,0-1.245-.923c-.813-.007-1.627-.008-2.441-.008h-1.116q-1.077,0-2.153-.005a1.873,1.873,0,0,1-1.159-.39c-.4-.339-.775-.689-1.207-1.094-.167-.157-.344-.323-.534-.5l-.737-.682.759-.658c.175-.151.342-.292.5-.427.343-.289.639-.538.9-.8a1.981,1.981,0,0,1,1.483-.621q4.124.009,8.235.008l6.077,0a1.308,1.308,0,0,0,1.429-1.067l.115-.38c.156-.514.316-1.045.5-1.568a2.37,2.37,0,0,1,2.47-1.767q1.406-.005,2.813,0h3.719a2.506,2.506,0,0,1,2.42,1.615,13.952,13.952,0,0,1-.006,11.522,2.488,2.488,0,0,1-2.426,1.612l-1.529,0h-2.592q-1.207,0-2.414,0a2.443,2.443,0,0,1-2.493-1.757c-.143-.4-.265-.81-.383-1.2-.094-.311-.187-.624-.291-.931a1.25,1.25,0,0,0-1.182-.885,1.336,1.336,0,0,0-.359.051,1.235,1.235,0,0,0-.893,1.512c.094.414.211.858.362,1.357a5.6,5.6,0,0,0,2.145,3.415,9.4,9.4,0,0,0,1.665.728c.239.087.478.175.713.268h7.957a2.886,2.886,0,0,1,.322-.087A4.729,4.729,0,0,0,714.143,126.79Z" transform="translate(-1.767 -3.79)"/><path d="M709.789,120.646a1.272,1.272,0,1,0,2.545-.009,1.293,1.293,0,0,0-1.273-1.26h-.02A1.278,1.278,0,0,0,709.789,120.646Z" transform="translate(-4.977 -4.748)"/></g></g></svg>