<svg xmlns="http://www.w3.org/2000/svg" width="73" height="66.687" viewBox="0 0 73 66.687"><defs><style>.a{fill:#024;}.b{fill:#0c9eda;}.c,.d,.f{fill:none;}.c{stroke:#024;opacity:0.3;}.d{stroke:#7ad8ff;stroke-linecap:round;}.e{stroke:none;}</style></defs><g transform="translate(-459 -2468.5)"><g transform="translate(397.493 2426.721)"><g transform="translate(71.498 51.717)"><path class="a" d="M86.2,79.035c0-.677-.013-1.353,0-2.029a1.989,1.989,0,0,1,2.142-2.095c.191,0,.382,0,.572,0,1.233,0,1.226,0,1.714-1.145a.472.472,0,0,0-.114-.632c-.409-.374-.8-.774-1.179-1.176a1.939,1.939,0,0,1,0-2.8q1.5-1.548,3.055-3.052a1.94,1.94,0,0,1,2.8.011c.377.359.757.717,1.1,1.106.251.284.46.239.8.147a1.024,1.024,0,0,0,.845-1.316,6.737,6.737,0,0,1,0-1.143,1.85,1.85,0,0,1,1.681-1.874c1.625-.077,3.258-.079,4.883,0a1.856,1.856,0,0,1,1.714,1.9c.02.537.029,1.076,0,1.612-.021.355.129.488.426.655a1.045,1.045,0,0,0,1.573-.32,5.414,5.414,0,0,1,.843-.847,1.92,1.92,0,0,1,2.646.021q1.616,1.547,3.166,3.161a1.918,1.918,0,0,1,0,2.685c-.385.422-.793.825-1.213,1.214a.5.5,0,0,0-.126.674c.41.912.4.917,1.409.917.365,0,.729-.012,1.093,0a1.85,1.85,0,0,1,1.86,1.7c.073,1.625.073,3.258,0,4.883a1.855,1.855,0,0,1-1.913,1.7c-.537.018-1.076.02-1.613,0a.535.535,0,0,0-.619.395c-.351.925-.366.919.357,1.639.258.257.525.506.768.777a1.927,1.927,0,0,1-.008,2.686q-1.53,1.6-3.125,3.129a1.938,1.938,0,0,1-2.764-.018c-.4-.379-.8-.771-1.174-1.18a.472.472,0,0,0-.63-.123c-.946.4-.95.394-.95,1.435,0,.295,0,.589,0,.884a1.961,1.961,0,0,1-1.976,2.1c-1.438.049-2.88.046-4.317,0a1.962,1.962,0,0,1-1.993-2.133c0-.5-.016-1.007.006-1.509a.478.478,0,0,0-.363-.534c-.946-.38-.942-.391-1.682.348-.245.246-.484.5-.739.733a1.931,1.931,0,0,1-2.724.008Q90.834,90.094,89.3,88.5a1.93,1.93,0,0,1,0-2.724c.377-.406.773-.8,1.176-1.179.211-.2.33-.387.143-.666-.2-.3-.141-.811-.748-.746a13.086,13.086,0,0,1-1.559.01,2,2,0,0,1-2.111-2.08C86.18,80.423,86.2,79.729,86.2,79.035Zm1.627-.011c0,.641.011,1.283,0,1.925-.01.439.164.631.616.619.762-.021,1.526,0,2.289-.011a.958.958,0,0,1,1.007.722,15.844,15.844,0,0,0,.685,1.626.936.936,0,0,1-.173,1.222c-.533.522-1.046,1.063-1.585,1.578a.514.514,0,0,0-.008.872q1.359,1.325,2.684,2.687c.339.35.6.309.909-.022.513-.542,1.051-1.058,1.576-1.588a.9.9,0,0,1,1.134-.183c.612.284,1.233.554,1.868.779a.982.982,0,0,1,.75,1.041c-.013.746.008,1.491-.006,2.237-.008.4.157.575.552.572q1.951-.013,3.9-.012c.394,0,.563-.173.555-.571-.015-.746.009-1.492-.008-2.237a.951.951,0,0,1,.71-1.014c.633-.232,1.263-.481,1.87-.773a.948.948,0,0,1,1.221.193c.51.519,1.05,1.011,1.548,1.54.322.344.575.351.906.01q1.284-1.326,2.611-2.611c.351-.339.385-.6.012-.945-.534-.494-1.033-1.027-1.551-1.538a.932.932,0,0,1-.209-1.176c.293-.627.562-1.267.805-1.914a.964.964,0,0,1,1.024-.7c.728.013,1.457-.015,2.185,0,.41.008.616-.134.613-.566-.008-1.3,0-2.6,0-3.9,0-.365-.161-.536-.538-.532-.745.008-1.491-.017-2.236,0a.984.984,0,0,1-1.056-.729c-.23-.634-.5-1.255-.787-1.865a.929.929,0,0,1,.187-1.18c.531-.524,1.045-1.065,1.585-1.578.318-.3.345-.549.017-.868q-1.36-1.324-2.686-2.684c-.32-.328-.566-.3-.869.018-.491.514-1.019.992-1.512,1.5a.987.987,0,0,1-1.3.227,16.6,16.6,0,0,0-1.821-.753.945.945,0,0,1-.726-1c.016-.746-.009-1.492.008-2.237.011-.429-.178-.59-.591-.589-1.266,0-2.532,0-3.8-.018-.481-.008-.641.2-.626.662.023.727,0,1.456.008,2.185a.962.962,0,0,1-.728,1c-.634.23-1.259.49-1.868.777a.924.924,0,0,1-1.176-.2c-.522-.532-1.061-1.048-1.576-1.587a.513.513,0,0,0-.87-.01q-1.325,1.36-2.687,2.684c-.35.339-.31.594.023.908.529.5,1.029,1.031,1.549,1.54a.953.953,0,0,1,.193,1.222,20.379,20.379,0,0,0-.813,2.021.971.971,0,0,1-1.039.748c-.728-.014-1.457,0-2.185-.009-.4-.008-.572.165-.567.558C87.829,77.741,87.823,78.383,87.823,79.024Z" transform="translate(-70.815 -50.48)"/><path class="b" d="M76.765,77.553c.31-.352.6-.721.933-1.05a.966.966,0,1,1,1.359,1.347q-1.39,1.416-2.807,2.806a.964.964,0,0,1-1.564,0q-1.417-1.388-2.807-2.806A.965.965,0,1,1,73.232,76.5c.408.407.775.854,1.16,1.284l.175-.089c.133-.879.246-1.762.4-2.637a28.37,28.37,0,0,1,55.5-1.615c.094.38.177.764.251,1.148a.98.98,0,0,1-.769,1.213,1,1,0,0,1-1.119-.835,39.261,39.261,0,0,0-1.17-4.1c-3.608-9.039-10.15-14.788-19.7-16.7A26.242,26.242,0,0,0,77.544,72.559c-.477,1.569-.731,3.206-1.088,4.812Z" transform="translate(-71.498 -51.717)"/><path class="b" d="M131.539,87.739a27.137,27.137,0,0,1-1.593,7.187c-3.771,9.72-10.7,15.93-20.895,18.148A28.29,28.29,0,0,1,75.657,91.954c-.092-.381-.177-.764-.248-1.15a.969.969,0,0,1,.742-1.174.95.95,0,0,1,1.125.731c.147.536.229,1.092.386,1.625,3.117,10.608,10.1,17.2,20.9,19.349,13.845,2.757,27.616-6.56,30.522-20.349.207-.983.352-1.98.525-2.971l-.152-.086c-.33.324-.655.651-.99.97a.993.993,0,0,1-1.476.132.98.98,0,0,1,.108-1.474q1.392-1.415,2.808-2.805a.949.949,0,0,1,1.519-.01q1.444,1.4,2.851,2.849a.964.964,0,1,1-1.35,1.36c-.423-.393-.833-.8-1.251-1.2C131.669,87.741,131.642,87.747,131.539,87.739Z" transform="translate(-72.124 -56.969)"/><path class="a" d="M105.543,89.909a7.568,7.568,0,1,1,7.592-7.517A7.6,7.6,0,0,1,105.543,89.909Zm.054-13.5a5.938,5.938,0,1,0,5.909,5.952A5.979,5.979,0,0,0,105.6,76.4Z" transform="translate(-74.31 -53.971)"/></g></g><g class="c" transform="translate(526 2479)"><circle class="e" cx="3" cy="3" r="3"/><circle class="f" cx="3" cy="3" r="2.5"/></g><g class="c" transform="translate(459 2497)"><circle class="e" cx="2.5" cy="2.5" r="2.5"/><circle class="f" cx="2.5" cy="2.5" r="2"/></g><g transform="translate(17.652 -14.134)"><path class="d" d="M392.783,2449.325v5.655" transform="translate(69.239 33.808)"/><path class="d" d="M0,0V5.655" transform="translate(464.85 2485.961) rotate(90)"/></g></g></svg>