<svg xmlns="http://www.w3.org/2000/svg" width="73" height="64.005" viewBox="0 0 73 64.005"><defs><style>.a,.b,.f{fill:none;}.a{stroke:#024;opacity:0.3;}.b{stroke:#7ad8ff;stroke-linecap:round;}.c{fill:#0c9eda;}.d{fill:#024;}.e{stroke:none;}</style></defs><g transform="translate(-1380 -2468.5)"><g class="a" transform="translate(1447 2479)"><circle class="e" cx="3" cy="3" r="3"/><circle class="f" cx="3" cy="3" r="2.5"/></g><g class="a" transform="translate(1380 2497)"><circle class="e" cx="2.5" cy="2.5" r="2.5"/><circle class="f" cx="2.5" cy="2.5" r="2"/></g><g transform="translate(938.652 -14.134)"><path class="b" d="M392.783,2449.325v5.655" transform="translate(69.239 33.808)"/><path class="b" d="M0,0V5.655" transform="translate(464.85 2485.961) rotate(90)"/></g><g transform="translate(1122.378 2419.74)"><path class="c" d="M299.521,111.789a33.311,33.311,0,0,0,21.416-31.22q.008-6.889,0-13.776V60.581h-2.907c-1.2,0-2.384,0-3.57.01h0a1.735,1.735,0,0,1-1.331-.557c-.968-1-1.835-1.866-2.652-2.645a.518.518,0,0,0-.272-.121q-6.776-.011-13.552-.011-6.809,0-13.618.011a.525.525,0,0,0-.27.125c-.445.425-.879.86-1.315,1.3-.466.467-.933.934-1.411,1.39a1.859,1.859,0,0,1-1.192.49c-1.164.013-2.329.016-3.494.016h-1.5l-1.5,0h-.05v6.014q0,6.961,0,13.921a33.227,33.227,0,0,0,20.719,30.976c.795.327,1.63.619,2.438.9.351.123.7.245,1.052.371h.224c.276-.1.552-.189.828-.283C298.211,112.263,298.881,112.037,299.521,111.789Zm-2.883-1.305a2.055,2.055,0,0,1-.683-.112c-11.743-4.162-18.879-12.521-21.209-24.844a26.792,26.792,0,0,1-.375-4.747c-.03-4.109-.026-8.287-.021-12.326q0-2.322,0-4.644v-1.18h.639l1.41,0,1.357,0c.816,0,1.623,0,2.43.011l.006.319h.006v-.319a.455.455,0,0,0,.389-.174c1.013-1.043,1.867-1.894,2.688-2.677a1.767,1.767,0,0,1,1.152-.472Q290.5,59.3,296.57,59.3q6.129,0,12.258.012a1.764,1.764,0,0,1,1.149.48c.45.431.891.871,1.331,1.312.461.461.921.922,1.393,1.371a.612.612,0,0,0,.33.137c.871.014,1.741.017,2.619.017l1.272,0h1.911l.03.608.01.184c.008.141.016.272.016.4q0,2.5,0,5c0,3.906.009,7.945-.007,11.917a31.349,31.349,0,0,1-21.633,29.656A2.1,2.1,0,0,1,296.638,110.484Z" transform="translate(0)"/><path class="d" d="M292.3,79.02h-3.327l0,2.736c0,2.718,0,5.528.012,8.291a12.377,12.377,0,0,0,.208,2.092,10.994,10.994,0,0,0,10.758,8.89,10.251,10.251,0,0,0,1.922-.181,10.972,10.972,0,0,0,9.116-11.018q.006-3.751,0-7.5V79h-3.327v-.639l0-1.425c0-1.183.006-2.3-.01-3.437a9.3,9.3,0,0,0-.154-1.748,7.718,7.718,0,0,0-7.456-6.184c-.239,0-.481.012-.72.035a7.673,7.673,0,0,0-7.021,7.723c0,1.027,0,2.054,0,3.082V79.02Zm2.113-.68V72.525a.932.932,0,0,1,.031-.228,5.642,5.642,0,0,1,5.549-4.666c.134,0,.27,0,.406.014a5.64,5.64,0,0,1,5.2,5.5c.019,1.187.014,2.4.01,3.568q0,.806,0,1.622v.639H294.409ZM308.3,81.063h.639v3.568q0,2.657,0,5.315a8.958,8.958,0,0,1-9.042,9.021c-.087,0-.176,0-.264,0a8.9,8.9,0,0,1-8.586-8.5c-.053-1.993-.041-4.016-.028-5.973,0-.861.01-1.722.01-2.583a1.029,1.029,0,0,1,.042-.276l.017-.065.111-.5h17.1Z" transform="translate(-3.354 -1.673)"/><rect class="d" width="1.983" height="8.634" transform="translate(295.626 84.029)"/></g></g></svg>