<svg xmlns="http://www.w3.org/2000/svg" width="73" height="64.681" viewBox="0 0 73 64.681"><defs><style>.a,.b,.f{fill:none;}.a{stroke:#024;opacity:0.3;}.b{stroke:#7ad8ff;stroke-linecap:round;}.c{fill:#024;}.d{fill:#0c9eda;}.e{stroke:none;}</style></defs><g transform="translate(-1384 -2852.5)"><g transform="translate(461 384)"><g class="a" transform="translate(990 2479)"><circle class="e" cx="3" cy="3" r="3"/><circle class="f" cx="3" cy="3" r="2.5"/></g><g class="a" transform="translate(923 2497)"><circle class="e" cx="2.5" cy="2.5" r="2.5"/><circle class="f" cx="2.5" cy="2.5" r="2"/></g><g transform="translate(481.652 -14.134)"><path class="b" d="M392.783,2449.325v5.655" transform="translate(69.239 33.808)"/><path class="b" d="M0,0V5.655" transform="translate(464.85 2485.961) rotate(90)"/></g></g><g transform="translate(829.3 2783.018)"><path class="c" d="M588.991,129.092c.123.155.172.224.229.285,1.574,1.646,1.574,1.713-.008,3.3q-2.448,2.448-4.9,4.894c-.85.845-1.366.848-2.216,0q-8.483-8.474-16.958-16.957c-.854-.856-.852-1.367-.01-2.214q2.68-2.693,5.373-5.375c.937-.936,1.414-.943,2.332-.015.335.339.625.723.982,1.14,2.059-2.068,4-4.021,5.947-5.973,1.112-1.116,2.234-2.224,3.341-3.346a5.184,5.184,0,0,1,3.863-1.591q7.219.014,14.44,0c3.7,0,5.905,1.908,6.422,5.65.221-.19.411-.334.579-.5,1.239-1.229,2.447-2.491,3.714-3.69a10.949,10.949,0,0,1,14.816-.136c.994.912,1.014,1.432.063,2.384q-7.758,7.765-15.518,15.531a6.823,6.823,0,0,1-5.148,2.1c-3.827-.034-7.656.008-11.484-.023a2.729,2.729,0,0,0-2.171.88C591.5,126.671,590.25,127.85,588.991,129.092Zm35.764-23.279c-.353-.228-.6-.407-.869-.56a8.445,8.445,0,0,0-10.147,1.188c-2.575,2.478-5.08,5.027-7.588,7.572a2.487,2.487,0,0,1-1.932.82c-3.094-.03-6.19-.01-9.286-.016a3.4,3.4,0,0,1-.917-.093.953.953,0,0,1-.775-1.207,2.378,2.378,0,0,1,.935-1.011c.19-.136.546-.049.827-.049,2.279,0,4.559.037,6.837-.02a3.469,3.469,0,0,0,3.57-3.492,3.411,3.411,0,0,0-3.683-3.344c-4.867-.006-9.736.007-14.6-.009a3.278,3.278,0,0,0-2.481,1.033c-2.829,2.861-5.685,5.7-8.528,8.544-.17.171-.319.363-.441.5,3.933,3.911,7.817,7.772,11.756,11.691,1.194-1.2,2.466-2.426,3.681-3.708a4.556,4.556,0,0,1,3.537-1.469c3.854.028,7.71-.019,11.564.024a4.91,4.91,0,0,0,3.758-1.557c4.692-4.74,9.42-9.442,14.135-14.158C624.3,106.3,624.49,106.093,624.756,105.813Zm-57.24,13.7,15.625,15.629,4.15-4.16-15.631-15.614Z" transform="translate(0 -4.039)"/><path class="d" d="M587.59,82.594a11.541,11.541,0,1,1,11.747,11.5A11.553,11.553,0,0,1,587.59,82.594Zm20.718-.109a9.176,9.176,0,1,0-9.018,9.248A9.182,9.182,0,0,0,608.307,82.484Z" transform="translate(-3.032)"/><path class="d" d="M601.514,88.633c-.107,1.335-.457,1.854-1.214,1.865s-1.095-.473-1.281-1.83a8.015,8.015,0,0,1-.979-.007,1.109,1.109,0,0,1-1.082-1.178,1.088,1.088,0,0,1,1.105-1.152c.841-.046,1.686-.023,2.53-.016.675.006,1.2-.214,1.213-.967s-.526-.982-1.186-1c-.365-.01-.731.006-1.1-.016a3.315,3.315,0,0,1-1.039-6.4c.414-.162.639-.294.638-.8a1.162,1.162,0,0,1,1.168-1.268c.659,0,1.107.489,1.176,1.28.012.139.015.28.028.55.3,0,.6,0,.89,0a1.151,1.151,0,0,1,1.238,1.121,1.172,1.172,0,0,1-1.219,1.229c-.814.036-1.631.021-2.445.009-.676-.01-1.2.2-1.213.958s.522.981,1.188.988c.366,0,.732-.01,1.1.017a3.33,3.33,0,0,1,1,6.447C601.875,88.519,601.715,88.565,601.514,88.633Z" transform="translate(-4.185 -0.64)"/></g></g></svg>