<svg xmlns="http://www.w3.org/2000/svg" width="73" height="56.868" viewBox="0 0 73 56.868"><defs><style>.a,.b,.f{fill:none;}.a{stroke:#024;opacity:0.3;}.b{stroke:#7ad8ff;stroke-linecap:round;}.c{fill:#0c9eda;}.d{fill:#024;}.e{stroke:none;}</style></defs><g transform="translate(-923 -2852.5)"><g transform="translate(0 384)"><g class="a" transform="translate(990 2479)"><circle class="e" cx="3" cy="3" r="3"/><circle class="f" cx="3" cy="3" r="2.5"/></g><g class="a" transform="translate(923 2497)"><circle class="e" cx="2.5" cy="2.5" r="2.5"/><circle class="f" cx="2.5" cy="2.5" r="2"/></g><g transform="translate(481.652 -14.134)"><path class="b" d="M392.783,2449.325v5.655" transform="translate(69.239 33.808)"/><path class="b" d="M0,0V5.655" transform="translate(464.85 2485.961) rotate(90)"/></g></g><g transform="translate(471.426 2800.241)"><path class="c" d="M508.989,91.148l-2.6-4.5-2.763-4.785q-4.952-8.579-9.907-17.158a5.683,5.683,0,0,0-5.049-3.138,6.7,6.7,0,0,0-1.283.129,5.7,5.7,0,0,0-3.938,3.011q-4.712,8.176-9.433,16.349-3.356,5.814-6.712,11.629-.548.951-1.1,1.9c-1.2,2.077-2.451,4.226-3.617,6.369a5.09,5.09,0,0,0-.037,4.816,5.649,5.649,0,0,0,5.481,3.348q4.427-.006,8.83-.005h21.7q1.421,0,2.844.005t2.842.005c2.22,0,3.92-.014,5.512-.046a5.278,5.278,0,0,0,4.71-3,5.612,5.612,0,0,0-.2-5.787Q511.627,95.725,508.989,91.148Zm3.24,13.506a2.97,2.97,0,0,1-2.4,1.784,5.147,5.147,0,0,1-.7.037h-.217l-14.072,0H468.077a3.052,3.052,0,0,1-3.224-2.071,3.273,3.273,0,0,1,.415-2.906q3.416-5.907,6.824-11.817l3.071-5.322,3.187-5.518q3.7-6.4,7.388-12.8a3.146,3.146,0,0,1,2.834-1.818c.114,0,.231.005.351.017a3.18,3.18,0,0,1,2.517,1.792q3.542,6.146,7.091,12.287l2.279,3.946,2.555,4.426q4.286,7.423,8.573,14.843A3.169,3.169,0,0,1,512.229,104.654Z" transform="translate(0)"/><rect class="d" width="2.561" height="15.697" transform="translate(487.307 76.595)"/><path class="d" d="M493.154,102.318a1.866,1.866,0,0,0-1.833,1.833,1.841,1.841,0,1,0,3.681,0,1.858,1.858,0,0,0-1.817-1.836l-.015-.125-.016,0h0Z" transform="translate(-4.57 -6.325)"/></g></g></svg>