<?xml version="1.0" encoding="UTF-8"?> <svg xmlns="http://www.w3.org/2000/svg" xmlns:xlink="http://www.w3.org/1999/xlink" width="64" height="64" viewBox="0 0 64 64"><defs><clipPath id="clip-Stellar_core"><rect width="64" height="64"></rect></clipPath></defs><g id="Stellar_core" data-name="Stellar core" clip-path="url(#clip-Stellar_core)"><rect width="64" height="64" fill="#fff"></rect><path id="Path_79" data-name="Path 79" d="M45.578,9.533,9.6,27.863,6.449,29.436,0,32.738v3.95l6.419-3.271,5.493-2.808L38.449,17.093A15.782,15.782,0,0,1,24.872,34.806a15.618,15.618,0,0,1-2.1.154,15.839,15.839,0,0,1-7.715-2.037l-.185.123-3.394,1.7A19.286,19.286,0,0,0,42.091,19.161a11.892,11.892,0,0,0-.062-1.481,3.534,3.534,0,0,1,1.913-3.394l1.635-.864Zm-6.419-4.6L33.666,7.712,7.159,21.228A15.781,15.781,0,0,1,30.519,5.4l3.148-1.6.463-.247A19.286,19.286,0,0,0,3.518,19.161c0,.494,0,.987.031,1.481a3.486,3.486,0,0,1-1.882,3.394L0,24.869v3.95l4.876-2.5,1.574-.8,1.574-.771L35.95,10.489l3.148-1.6,6.48-3.3V1.633Z" transform="translate(9 13.13)"></path></g></svg> 