<svg width="646" height="386" viewBox="0 0 646 386" fill="none" xmlns="http://www.w3.org/2000/svg">
<path d="M368 335L314 379.167V290.833L368 335Z" fill="#4CC9F0"/>
<path fill-rule="evenodd" clip-rule="evenodd" d="M0.204543 379L54 335L0.204543 291H314V379H0.204543ZM0 379L1.51992e-06 291H0V379Z" fill="#4CC9F0"/>
<path d="M128.011 349V346.443L137.614 335.932C138.741 334.701 139.669 333.631 140.398 332.722C141.127 331.803 141.667 330.941 142.017 330.136C142.377 329.322 142.557 328.47 142.557 327.58C142.557 326.557 142.311 325.671 141.818 324.923C141.335 324.175 140.672 323.598 139.83 323.19C138.987 322.783 138.04 322.58 136.989 322.58C135.871 322.58 134.896 322.812 134.062 323.276C133.239 323.73 132.599 324.369 132.145 325.193C131.7 326.017 131.477 326.983 131.477 328.091H128.125C128.125 326.386 128.518 324.89 129.304 323.602C130.09 322.314 131.16 321.311 132.514 320.591C133.878 319.871 135.407 319.511 137.102 319.511C138.807 319.511 140.317 319.871 141.634 320.591C142.95 321.311 143.982 322.281 144.73 323.503C145.478 324.724 145.852 326.083 145.852 327.58C145.852 328.65 145.658 329.696 145.27 330.719C144.891 331.732 144.228 332.864 143.281 334.114C142.344 335.354 141.042 336.869 139.375 338.659L132.841 345.648V345.875H146.364V349H128.011ZM161.719 349.398C159.579 349.398 157.756 348.815 156.25 347.651C154.744 346.476 153.594 344.777 152.798 342.551C152.003 340.316 151.605 337.617 151.605 334.455C151.605 331.311 152.003 328.626 152.798 326.401C153.603 324.166 154.759 322.461 156.264 321.287C157.779 320.103 159.598 319.511 161.719 319.511C163.84 319.511 165.653 320.103 167.159 321.287C168.674 322.461 169.83 324.166 170.625 326.401C171.43 328.626 171.832 331.311 171.832 334.455C171.832 337.617 171.435 340.316 170.639 342.551C169.844 344.777 168.693 346.476 167.188 347.651C165.682 348.815 163.859 349.398 161.719 349.398ZM161.719 346.273C163.84 346.273 165.488 345.25 166.662 343.205C167.836 341.159 168.423 338.242 168.423 334.455C168.423 331.936 168.153 329.791 167.614 328.02C167.083 326.249 166.316 324.9 165.312 323.972C164.318 323.044 163.12 322.58 161.719 322.58C159.616 322.58 157.973 323.616 156.79 325.69C155.606 327.755 155.014 330.676 155.014 334.455C155.014 336.973 155.279 339.114 155.81 340.875C156.34 342.636 157.102 343.976 158.097 344.895C159.1 345.813 160.308 346.273 161.719 346.273ZM177.23 349V346.443L186.832 335.932C187.959 334.701 188.887 333.631 189.616 332.722C190.346 331.803 190.885 330.941 191.236 330.136C191.596 329.322 191.776 328.47 191.776 327.58C191.776 326.557 191.529 325.671 191.037 324.923C190.554 324.175 189.891 323.598 189.048 323.19C188.205 322.783 187.259 322.58 186.207 322.58C185.09 322.58 184.115 322.812 183.281 323.276C182.457 323.73 181.818 324.369 181.364 325.193C180.919 326.017 180.696 326.983 180.696 328.091H177.344C177.344 326.386 177.737 324.89 178.523 323.602C179.309 322.314 180.379 321.311 181.733 320.591C183.097 319.871 184.626 319.511 186.321 319.511C188.026 319.511 189.536 319.871 190.852 320.591C192.169 321.311 193.201 322.281 193.949 323.503C194.697 324.724 195.071 326.083 195.071 327.58C195.071 328.65 194.877 329.696 194.489 330.719C194.11 331.732 193.447 332.864 192.5 334.114C191.562 335.354 190.26 336.869 188.594 338.659L182.06 345.648V345.875H195.582V349H177.23ZM200.142 343.034V340.136L212.926 319.909H215.028V324.398H213.608L203.949 339.682V339.909H221.165V343.034H200.142ZM213.835 349V342.153V340.804V319.909H217.188V349H213.835ZM248.817 339.909H252.681L255.92 344.17L256.772 345.307L261.602 351.727H257.738L254.556 347.466L253.761 346.386L248.817 339.909ZM262.795 334.455C262.795 337.523 262.241 340.174 261.133 342.409C260.025 344.644 258.505 346.367 256.573 347.58C254.641 348.792 252.435 349.398 249.954 349.398C247.473 349.398 245.266 348.792 243.335 347.58C241.403 346.367 239.883 344.644 238.775 342.409C237.667 340.174 237.113 337.523 237.113 334.455C237.113 331.386 237.667 328.735 238.775 326.5C239.883 324.265 241.403 322.542 243.335 321.33C245.266 320.117 247.473 319.511 249.954 319.511C252.435 319.511 254.641 320.117 256.573 321.33C258.505 322.542 260.025 324.265 261.133 326.5C262.241 328.735 262.795 331.386 262.795 334.455ZM259.386 334.455C259.386 331.936 258.964 329.81 258.121 328.077C257.288 326.344 256.156 325.032 254.727 324.142C253.306 323.252 251.715 322.807 249.954 322.807C248.192 322.807 246.597 323.252 245.167 324.142C243.746 325.032 242.615 326.344 241.772 328.077C240.939 329.81 240.522 331.936 240.522 334.455C240.522 336.973 240.939 339.099 241.772 340.832C242.615 342.565 243.746 343.877 245.167 344.767C246.597 345.657 248.192 346.102 249.954 346.102C251.715 346.102 253.306 345.657 254.727 344.767C256.156 343.877 257.288 342.565 258.121 340.832C258.964 339.099 259.386 336.973 259.386 334.455ZM278.434 319.909V349H274.911V323.602H274.741L267.638 328.318V324.739L274.911 319.909H278.434Z" fill="black"/>
<circle cx="93.5" cy="335.5" r="8.5" fill="#D9D9D9"/>
<path d="M93.2131 26.7273C92.2964 26.7273 91.4593 26.5038 90.7017 26.0568C89.9441 25.6023 89.3381 24.9962 88.8835 24.2386C88.4365 23.4811 88.2131 22.6439 88.2131 21.7273C88.2131 20.803 88.4365 19.9659 88.8835 19.2159C89.3381 18.4583 89.9441 17.8561 90.7017 17.4091C91.4593 16.9545 92.2964 16.7273 93.2131 16.7273C94.1373 16.7273 94.9744 16.9545 95.7244 17.4091C96.482 17.8561 97.0843 18.4583 97.5312 19.2159C97.9858 19.9659 98.2131 20.803 98.2131 21.7273C98.2131 22.6439 97.9858 23.4811 97.5312 24.2386C97.0843 24.9962 96.482 25.6023 95.7244 26.0568C94.9744 26.5038 94.1373 26.7273 93.2131 26.7273ZM124.318 31L117.864 7.72727H121.557L126.091 25.75H126.307L131.023 7.72727H134.682L139.398 25.7614H139.614L144.136 7.72727H147.841L141.375 31H137.841L132.943 13.5682H132.761L127.864 31H124.318ZM154.168 20.6364V31H150.77V7.72727H154.122V16.3864H154.338C154.747 15.447 155.372 14.7008 156.213 14.1477C157.054 13.5947 158.152 13.3182 159.509 13.3182C160.705 13.3182 161.751 13.5644 162.645 14.0568C163.546 14.5492 164.243 15.2841 164.736 16.2614C165.236 17.2311 165.486 18.4432 165.486 19.8977V31H162.088V20.3068C162.088 19.0265 161.759 18.0341 161.099 17.3295C160.44 16.6174 159.524 16.2614 158.349 16.2614C157.546 16.2614 156.827 16.4318 156.19 16.7727C155.562 17.1136 155.065 17.6136 154.702 18.2727C154.346 18.9242 154.168 19.7121 154.168 20.6364ZM170.02 31V13.5455H173.418V31H170.02ZM171.736 10.8523C171.145 10.8523 170.637 10.6553 170.213 10.2614C169.796 9.85985 169.588 9.38257 169.588 8.82954C169.588 8.26894 169.796 7.79167 170.213 7.39773C170.637 6.99621 171.145 6.79545 171.736 6.79545C172.327 6.79545 172.83 6.99621 173.247 7.39773C173.671 7.79167 173.884 8.26894 173.884 8.82954C173.884 9.38257 173.671 9.85985 173.247 10.2614C172.83 10.6553 172.327 10.8523 171.736 10.8523ZM186.136 13.5455V16.2727H176.602V13.5455H186.136ZM179.159 9.36364H182.557V25.875C182.557 26.5341 182.655 27.0303 182.852 27.3636C183.049 27.6894 183.303 27.9129 183.614 28.0341C183.932 28.1477 184.276 28.2045 184.648 28.2045C184.92 28.2045 185.159 28.1856 185.364 28.1477C185.568 28.1098 185.727 28.0795 185.841 28.0568L186.455 30.8636C186.258 30.9394 185.977 31.0152 185.614 31.0909C185.25 31.1742 184.795 31.2197 184.25 31.2273C183.356 31.2424 182.523 31.0833 181.75 30.75C180.977 30.4167 180.352 29.9015 179.875 29.2045C179.398 28.5076 179.159 27.6326 179.159 26.5795V9.36364ZM197.23 31.3523C195.51 31.3523 194.029 30.9848 192.787 30.25C191.552 29.5076 190.598 28.4659 189.923 27.125C189.257 25.7765 188.923 24.197 188.923 22.3864C188.923 20.5985 189.257 19.0227 189.923 17.6591C190.598 16.2955 191.537 15.2311 192.741 14.4659C193.954 13.7008 195.37 13.3182 196.991 13.3182C197.976 13.3182 198.931 13.4811 199.855 13.8068C200.779 14.1326 201.609 14.6439 202.344 15.3409C203.079 16.0379 203.658 16.9432 204.082 18.0568C204.507 19.1629 204.719 20.5076 204.719 22.0909V23.2955H190.844V20.75H201.389C201.389 19.8561 201.207 19.0644 200.844 18.375C200.48 17.678 199.969 17.1288 199.31 16.7273C198.658 16.3258 197.893 16.125 197.014 16.125C196.06 16.125 195.226 16.3598 194.514 16.8295C193.81 17.2917 193.264 17.8977 192.878 18.6477C192.499 19.3902 192.31 20.197 192.31 21.0682V23.0568C192.31 24.2235 192.514 25.2159 192.923 26.0341C193.34 26.8523 193.919 27.4773 194.662 27.9091C195.404 28.3333 196.272 28.5455 197.264 28.5455C197.908 28.5455 198.495 28.4545 199.026 28.2727C199.556 28.0833 200.014 27.803 200.401 27.4318C200.787 27.0606 201.082 26.6023 201.287 26.0568L204.503 26.6364C204.245 27.5833 203.783 28.4129 203.116 29.125C202.457 29.8295 201.628 30.3788 200.628 30.7727C199.635 31.1591 198.503 31.3523 197.23 31.3523ZM208.489 37.5455V13.5455H211.807V16.375H212.091C212.288 16.0114 212.572 15.5909 212.943 15.1136C213.314 14.6364 213.83 14.2197 214.489 13.8636C215.148 13.5 216.019 13.3182 217.102 13.3182C218.511 13.3182 219.769 13.6742 220.875 14.3864C221.981 15.0985 222.848 16.125 223.477 17.4659C224.114 18.8068 224.432 20.4205 224.432 22.3068C224.432 24.1932 224.117 25.8106 223.489 27.1591C222.86 28.5 221.996 29.5341 220.898 30.2614C219.799 30.9811 218.545 31.3409 217.136 31.3409C216.076 31.3409 215.208 31.1629 214.534 30.8068C213.867 30.4508 213.345 30.0341 212.966 29.5568C212.587 29.0795 212.295 28.6553 212.091 28.2841H211.886V37.5455H208.489ZM211.818 22.2727C211.818 23.5 211.996 24.5758 212.352 25.5C212.708 26.4242 213.223 27.1477 213.898 27.6705C214.572 28.1856 215.398 28.4432 216.375 28.4432C217.39 28.4432 218.239 28.1742 218.92 27.6364C219.602 27.0909 220.117 26.3523 220.466 25.4205C220.822 24.4886 221 23.4394 221 22.2727C221 21.1212 220.826 20.0871 220.477 19.1705C220.136 18.2538 219.621 17.5303 218.932 17C218.25 16.4697 217.398 16.2045 216.375 16.2045C215.39 16.2045 214.557 16.4583 213.875 16.9659C213.201 17.4735 212.689 18.1818 212.341 19.0909C211.992 20 211.818 21.0606 211.818 22.2727ZM233.318 31.3864C232.212 31.3864 231.212 31.1818 230.318 30.7727C229.424 30.3561 228.716 29.7538 228.193 28.9659C227.678 28.178 227.42 27.2121 227.42 26.0682C227.42 25.0833 227.61 24.2727 227.989 23.6364C228.367 23 228.879 22.4962 229.523 22.125C230.167 21.7538 230.886 21.4735 231.682 21.2841C232.477 21.0947 233.288 20.9508 234.114 20.8523C235.159 20.7311 236.008 20.6326 236.659 20.5568C237.311 20.4735 237.784 20.3409 238.08 20.1591C238.375 19.9773 238.523 19.6818 238.523 19.2727V19.1932C238.523 18.2008 238.242 17.4318 237.682 16.8864C237.129 16.3409 236.303 16.0682 235.205 16.0682C234.061 16.0682 233.159 16.322 232.5 16.8295C231.848 17.3295 231.398 17.8864 231.148 18.5L227.955 17.7727C228.333 16.7121 228.886 15.8561 229.614 15.2045C230.348 14.5455 231.193 14.0682 232.148 13.7727C233.102 13.4697 234.106 13.3182 235.159 13.3182C235.856 13.3182 236.595 13.4015 237.375 13.5682C238.163 13.7273 238.898 14.0227 239.58 14.4545C240.269 14.8864 240.833 15.5038 241.273 16.3068C241.712 17.1023 241.932 18.1364 241.932 19.4091V31H238.614V28.6136H238.477C238.258 29.053 237.928 29.4848 237.489 29.9091C237.049 30.3333 236.485 30.6856 235.795 30.9659C235.106 31.2462 234.28 31.3864 233.318 31.3864ZM234.057 28.6591C234.996 28.6591 235.799 28.4735 236.466 28.1023C237.14 27.7311 237.651 27.2462 238 26.6477C238.356 26.0417 238.534 25.3939 238.534 24.7045V22.4545C238.413 22.5758 238.178 22.6894 237.83 22.7955C237.489 22.8939 237.098 22.9811 236.659 23.0568C236.22 23.125 235.792 23.1894 235.375 23.25C234.958 23.303 234.61 23.3485 234.33 23.3864C233.67 23.4697 233.068 23.6098 232.523 23.8068C231.985 24.0038 231.553 24.2879 231.227 24.6591C230.909 25.0227 230.75 25.5076 230.75 26.1136C230.75 26.9545 231.061 27.5909 231.682 28.0227C232.303 28.447 233.095 28.6591 234.057 28.6591ZM246.457 37.5455V13.5455H249.776V16.375H250.06C250.257 16.0114 250.541 15.5909 250.912 15.1136C251.283 14.6364 251.798 14.2197 252.457 13.8636C253.116 13.5 253.988 13.3182 255.071 13.3182C256.48 13.3182 257.738 13.6742 258.844 14.3864C259.95 15.0985 260.817 16.125 261.446 17.4659C262.082 18.8068 262.401 20.4205 262.401 22.3068C262.401 24.1932 262.086 25.8106 261.457 27.1591C260.829 28.5 259.965 29.5341 258.866 30.2614C257.768 30.9811 256.514 31.3409 255.105 31.3409C254.044 31.3409 253.177 31.1629 252.503 30.8068C251.836 30.4508 251.313 30.0341 250.935 29.5568C250.556 29.0795 250.264 28.6553 250.06 28.2841H249.855V37.5455H246.457ZM249.787 22.2727C249.787 23.5 249.965 24.5758 250.321 25.5C250.677 26.4242 251.192 27.1477 251.866 27.6705C252.541 28.1856 253.366 28.4432 254.344 28.4432C255.359 28.4432 256.207 28.1742 256.889 27.6364C257.571 27.0909 258.086 26.3523 258.435 25.4205C258.791 24.4886 258.969 23.4394 258.969 22.2727C258.969 21.1212 258.794 20.0871 258.446 19.1705C258.105 18.2538 257.59 17.5303 256.901 17C256.219 16.4697 255.366 16.2045 254.344 16.2045C253.359 16.2045 252.526 16.4583 251.844 16.9659C251.169 17.4735 250.658 18.1818 250.31 19.0909C249.961 20 249.787 21.0606 249.787 22.2727ZM273.73 31.3523C272.01 31.3523 270.529 30.9848 269.287 30.25C268.052 29.5076 267.098 28.4659 266.423 27.125C265.757 25.7765 265.423 24.197 265.423 22.3864C265.423 20.5985 265.757 19.0227 266.423 17.6591C267.098 16.2955 268.037 15.2311 269.241 14.4659C270.454 13.7008 271.87 13.3182 273.491 13.3182C274.476 13.3182 275.431 13.4811 276.355 13.8068C277.279 14.1326 278.109 14.6439 278.844 15.3409C279.579 16.0379 280.158 16.9432 280.582 18.0568C281.007 19.1629 281.219 20.5076 281.219 22.0909V23.2955H267.344V20.75H277.889C277.889 19.8561 277.707 19.0644 277.344 18.375C276.98 17.678 276.469 17.1288 275.81 16.7273C275.158 16.3258 274.393 16.125 273.514 16.125C272.56 16.125 271.726 16.3598 271.014 16.8295C270.31 17.2917 269.764 17.8977 269.378 18.6477C268.999 19.3902 268.81 20.197 268.81 21.0682V23.0568C268.81 24.2235 269.014 25.2159 269.423 26.0341C269.84 26.8523 270.419 27.4773 271.162 27.9091C271.904 28.3333 272.772 28.5455 273.764 28.5455C274.408 28.5455 274.995 28.4545 275.526 28.2727C276.056 28.0833 276.514 27.803 276.901 27.4318C277.287 27.0606 277.582 26.6023 277.787 26.0568L281.003 26.6364C280.745 27.5833 280.283 28.4129 279.616 29.125C278.957 29.8295 278.128 30.3788 277.128 30.7727C276.135 31.1591 275.003 31.3523 273.73 31.3523ZM284.989 31V13.5455H288.273V16.3182H288.455C288.773 15.3788 289.333 14.6402 290.136 14.1023C290.947 13.5568 291.864 13.2841 292.886 13.2841C293.098 13.2841 293.348 13.2917 293.636 13.3068C293.932 13.322 294.163 13.3409 294.33 13.3636V16.6136C294.193 16.5758 293.951 16.5341 293.602 16.4886C293.254 16.4356 292.905 16.4091 292.557 16.4091C291.754 16.4091 291.038 16.5795 290.409 16.9205C289.788 17.2538 289.295 17.7197 288.932 18.3182C288.568 18.9091 288.386 19.5833 288.386 20.3409V31H284.989ZM320.67 13.5455L314.341 31H310.705L304.364 13.5455H308.011L312.432 26.9773H312.614L317.023 13.5455H320.67ZM323.818 31V28.4545L331.693 20.2955C332.534 19.4091 333.227 18.6326 333.773 17.9659C334.326 17.2917 334.739 16.6515 335.011 16.0455C335.284 15.4394 335.42 14.7955 335.42 14.1136C335.42 13.3409 335.239 12.6742 334.875 12.1136C334.511 11.5455 334.015 11.1098 333.386 10.8068C332.758 10.4962 332.049 10.3409 331.261 10.3409C330.428 10.3409 329.701 10.5114 329.08 10.8523C328.458 11.1932 327.981 11.6742 327.648 12.2955C327.314 12.9167 327.148 13.6439 327.148 14.4773H323.795C323.795 13.0606 324.121 11.822 324.773 10.7614C325.424 9.70076 326.318 8.87879 327.455 8.29545C328.591 7.70454 329.883 7.40909 331.33 7.40909C332.792 7.40909 334.08 7.70076 335.193 8.28409C336.314 8.85985 337.189 9.64773 337.818 10.6477C338.447 11.6402 338.761 12.7614 338.761 14.0114C338.761 14.875 338.598 15.7197 338.273 16.5455C337.955 17.3712 337.398 18.2917 336.602 19.3068C335.807 20.3144 334.701 21.5379 333.284 22.9773L328.659 27.8182V27.9886H339.136V31H323.818ZM93.2131 65.7273C92.2964 65.7273 91.4593 65.5038 90.7017 65.0568C89.9441 64.6023 89.3381 63.9962 88.8835 63.2386C88.4365 62.4811 88.2131 61.6439 88.2131 60.7273C88.2131 59.803 88.4365 58.9659 88.8835 58.2159C89.3381 57.4583 89.9441 56.8561 90.7017 56.4091C91.4593 55.9545 92.2964 55.7273 93.2131 55.7273C94.1373 55.7273 94.9744 55.9545 95.7244 56.4091C96.482 56.8561 97.0843 57.4583 97.5312 58.2159C97.9858 58.9659 98.2131 59.803 98.2131 60.7273C98.2131 61.6439 97.9858 62.4811 97.5312 63.2386C97.0843 63.9962 96.482 64.6023 95.7244 65.0568C94.9744 65.5038 94.1373 65.7273 93.2131 65.7273ZM139.091 54.2955H135.545C135.409 53.5379 135.155 52.8712 134.784 52.2955C134.413 51.7197 133.958 51.2311 133.42 50.8295C132.883 50.428 132.28 50.125 131.614 49.9205C130.955 49.7159 130.254 49.6136 129.511 49.6136C128.17 49.6136 126.97 49.9508 125.909 50.625C124.856 51.2992 124.023 52.2879 123.409 53.5909C122.803 54.8939 122.5 56.4848 122.5 58.3636C122.5 60.2576 122.803 61.8561 123.409 63.1591C124.023 64.4621 124.86 65.447 125.92 66.1136C126.981 66.7803 128.174 67.1136 129.5 67.1136C130.235 67.1136 130.932 67.0152 131.591 66.8182C132.258 66.6136 132.86 66.3144 133.398 65.9205C133.936 65.5265 134.39 65.0455 134.761 64.4773C135.14 63.9015 135.401 63.2424 135.545 62.5L139.091 62.5114C138.901 63.6553 138.534 64.7083 137.989 65.6705C137.451 66.625 136.758 67.4508 135.909 68.1477C135.068 68.8371 134.106 69.3712 133.023 69.75C131.939 70.1288 130.758 70.3182 129.477 70.3182C127.462 70.3182 125.667 69.8409 124.091 68.8864C122.515 67.9242 121.273 66.5492 120.364 64.7614C119.462 62.9735 119.011 60.8409 119.011 58.3636C119.011 55.8788 119.466 53.7462 120.375 51.9659C121.284 50.178 122.526 48.8068 124.102 47.8523C125.678 46.8902 127.47 46.4091 129.477 46.4091C130.712 46.4091 131.864 46.5871 132.932 46.9432C134.008 47.2917 134.973 47.8068 135.83 48.4886C136.686 49.1629 137.394 49.9886 137.955 50.9659C138.515 51.9356 138.894 53.0455 139.091 54.2955ZM150.372 70.3523C148.736 70.3523 147.308 69.9773 146.088 69.2273C144.868 68.4773 143.921 67.428 143.247 66.0795C142.573 64.7311 142.236 63.1553 142.236 61.3523C142.236 59.5417 142.573 57.9583 143.247 56.6023C143.921 55.2462 144.868 54.1932 146.088 53.4432C147.308 52.6932 148.736 52.3182 150.372 52.3182C152.009 52.3182 153.437 52.6932 154.656 53.4432C155.876 54.1932 156.823 55.2462 157.497 56.6023C158.171 57.9583 158.509 59.5417 158.509 61.3523C158.509 63.1553 158.171 64.7311 157.497 66.0795C156.823 67.428 155.876 68.4773 154.656 69.2273C153.437 69.9773 152.009 70.3523 150.372 70.3523ZM150.384 67.5C151.444 67.5 152.323 67.2197 153.02 66.6591C153.717 66.0985 154.232 65.3523 154.565 64.4205C154.906 63.4886 155.077 62.4621 155.077 61.3409C155.077 60.2273 154.906 59.2045 154.565 58.2727C154.232 57.3333 153.717 56.5795 153.02 56.0114C152.323 55.4432 151.444 55.1591 150.384 55.1591C149.315 55.1591 148.429 55.4432 147.724 56.0114C147.027 56.5795 146.509 57.3333 146.168 58.2727C145.834 59.2045 145.668 60.2273 145.668 61.3409C145.668 62.4621 145.834 63.4886 146.168 64.4205C146.509 65.3523 147.027 66.0985 147.724 66.6591C148.429 67.2197 149.315 67.5 150.384 67.5ZM165.699 59.6364V70H162.301V52.5455H165.562V55.3864H165.778C166.18 54.4621 166.809 53.7197 167.665 53.1591C168.528 52.5985 169.616 52.3182 170.926 52.3182C172.116 52.3182 173.157 52.5682 174.051 53.0682C174.945 53.5606 175.638 54.2955 176.131 55.2727C176.623 56.25 176.869 57.4583 176.869 58.8977V70H173.472V59.3068C173.472 58.0417 173.142 57.053 172.483 56.3409C171.824 55.6212 170.919 55.2614 169.767 55.2614C168.979 55.2614 168.278 55.4318 167.665 55.7727C167.059 56.1136 166.578 56.6136 166.222 57.2727C165.873 57.9242 165.699 58.7121 165.699 59.6364ZM188.778 70.3523C187.089 70.3523 185.634 69.9697 184.415 69.2045C183.203 68.4318 182.271 67.3674 181.619 66.0114C180.968 64.6553 180.642 63.1023 180.642 61.3523C180.642 59.5795 180.975 58.0152 181.642 56.6591C182.309 55.2955 183.248 54.2311 184.46 53.4659C185.672 52.7008 187.1 52.3182 188.744 52.3182C190.07 52.3182 191.252 52.5644 192.29 53.0568C193.328 53.5417 194.165 54.2235 194.801 55.1023C195.445 55.9811 195.828 57.0076 195.949 58.1818H192.642C192.46 57.3636 192.044 56.6591 191.392 56.0682C190.748 55.4773 189.884 55.1818 188.801 55.1818C187.854 55.1818 187.025 55.4318 186.312 55.9318C185.608 56.4242 185.059 57.1288 184.665 58.0455C184.271 58.9545 184.074 60.0303 184.074 61.2727C184.074 62.5455 184.267 63.6439 184.653 64.5682C185.04 65.4924 185.585 66.2083 186.29 66.7159C187.002 67.2235 187.839 67.4773 188.801 67.4773C189.445 67.4773 190.028 67.3598 190.551 67.125C191.081 66.8826 191.525 66.5379 191.881 66.0909C192.244 65.6439 192.498 65.1061 192.642 64.4773H195.949C195.828 65.6061 195.46 66.6136 194.847 67.5C194.233 68.3864 193.411 69.0833 192.381 69.5909C191.358 70.0985 190.157 70.3523 188.778 70.3523ZM207.105 70.3523C205.385 70.3523 203.904 69.9848 202.662 69.25C201.427 68.5076 200.473 67.4659 199.798 66.125C199.132 64.7765 198.798 63.197 198.798 61.3864C198.798 59.5985 199.132 58.0227 199.798 56.6591C200.473 55.2955 201.412 54.2311 202.616 53.4659C203.829 52.7008 205.245 52.3182 206.866 52.3182C207.851 52.3182 208.806 52.4811 209.73 52.8068C210.654 53.1326 211.484 53.6439 212.219 54.3409C212.954 55.0379 213.533 55.9432 213.957 57.0568C214.382 58.1629 214.594 59.5076 214.594 61.0909V62.2955H200.719V59.75H211.264C211.264 58.8561 211.082 58.0644 210.719 57.375C210.355 56.678 209.844 56.1288 209.185 55.7273C208.533 55.3258 207.768 55.125 206.889 55.125C205.935 55.125 205.101 55.3598 204.389 55.8295C203.685 56.2917 203.139 56.8977 202.753 57.6477C202.374 58.3902 202.185 59.197 202.185 60.0682V62.0568C202.185 63.2235 202.389 64.2159 202.798 65.0341C203.215 65.8523 203.794 66.4773 204.537 66.9091C205.279 67.3333 206.147 67.5455 207.139 67.5455C207.783 67.5455 208.37 67.4545 208.901 67.2727C209.431 67.0833 209.889 66.803 210.276 66.4318C210.662 66.0606 210.957 65.6023 211.162 65.0568L214.378 65.6364C214.12 66.5833 213.658 67.4129 212.991 68.125C212.332 68.8295 211.503 69.3788 210.503 69.7727C209.51 70.1591 208.378 70.3523 207.105 70.3523ZM221.761 59.6364V70H218.364V52.5455H221.625V55.3864H221.841C222.242 54.4621 222.871 53.7197 223.727 53.1591C224.591 52.5985 225.678 52.3182 226.989 52.3182C228.178 52.3182 229.22 52.5682 230.114 53.0682C231.008 53.5606 231.701 54.2955 232.193 55.2727C232.686 56.25 232.932 57.4583 232.932 58.8977V70H229.534V59.3068C229.534 58.0417 229.205 57.053 228.545 56.3409C227.886 55.6212 226.981 55.2614 225.83 55.2614C225.042 55.2614 224.341 55.4318 223.727 55.7727C223.121 56.1136 222.64 56.6136 222.284 57.2727C221.936 57.9242 221.761 58.7121 221.761 59.6364ZM245.636 52.5455V55.2727H236.102V52.5455H245.636ZM238.659 48.3636H242.057V64.875C242.057 65.5341 242.155 66.0303 242.352 66.3636C242.549 66.6894 242.803 66.9129 243.114 67.0341C243.432 67.1477 243.776 67.2045 244.148 67.2045C244.42 67.2045 244.659 67.1856 244.864 67.1477C245.068 67.1098 245.227 67.0795 245.341 67.0568L245.955 69.8636C245.758 69.9394 245.477 70.0152 245.114 70.0909C244.75 70.1742 244.295 70.2197 243.75 70.2273C242.856 70.2424 242.023 70.0833 241.25 69.75C240.477 69.4167 239.852 68.9015 239.375 68.2045C238.898 67.5076 238.659 66.6326 238.659 65.5795V48.3636ZM249.395 70V52.5455H252.679V55.3182H252.861C253.179 54.3788 253.74 53.6402 254.543 53.1023C255.353 52.5568 256.27 52.2841 257.293 52.2841C257.505 52.2841 257.755 52.2917 258.043 52.3068C258.338 52.322 258.569 52.3409 258.736 52.3636V55.6136C258.599 55.5758 258.357 55.5341 258.009 55.4886C257.66 55.4356 257.312 55.4091 256.963 55.4091C256.16 55.4091 255.444 55.5795 254.815 55.9205C254.194 56.2538 253.702 56.7197 253.338 57.3182C252.974 57.9091 252.793 58.5833 252.793 59.3409V70H249.395ZM266.599 70.3864C265.493 70.3864 264.493 70.1818 263.599 69.7727C262.705 69.3561 261.997 68.7538 261.474 67.9659C260.959 67.178 260.702 66.2121 260.702 65.0682C260.702 64.0833 260.891 63.2727 261.27 62.6364C261.649 62 262.16 61.4962 262.804 61.125C263.448 60.7538 264.168 60.4735 264.963 60.2841C265.759 60.0947 266.569 59.9508 267.395 59.8523C268.44 59.7311 269.289 59.6326 269.94 59.5568C270.592 59.4735 271.065 59.3409 271.361 59.1591C271.656 58.9773 271.804 58.6818 271.804 58.2727V58.1932C271.804 57.2008 271.524 56.4318 270.963 55.8864C270.41 55.3409 269.584 55.0682 268.486 55.0682C267.342 55.0682 266.44 55.322 265.781 55.8295C265.13 56.3295 264.679 56.8864 264.429 57.5L261.236 56.7727C261.615 55.7121 262.168 54.8561 262.895 54.2045C263.63 53.5455 264.474 53.0682 265.429 52.7727C266.384 52.4697 267.387 52.3182 268.44 52.3182C269.137 52.3182 269.876 52.4015 270.656 52.5682C271.444 52.7273 272.179 53.0227 272.861 53.4545C273.55 53.8864 274.115 54.5038 274.554 55.3068C274.993 56.1023 275.213 57.1364 275.213 58.4091V70H271.895V67.6136H271.759C271.539 68.053 271.209 68.4848 270.77 68.9091C270.33 69.3333 269.766 69.6856 269.077 69.9659C268.387 70.2462 267.562 70.3864 266.599 70.3864ZM267.338 67.6591C268.277 67.6591 269.08 67.4735 269.747 67.1023C270.421 66.7311 270.933 66.2462 271.281 65.6477C271.637 65.0417 271.815 64.3939 271.815 63.7045V61.4545C271.694 61.5758 271.459 61.6894 271.111 61.7955C270.77 61.8939 270.38 61.9811 269.94 62.0568C269.501 62.125 269.073 62.1894 268.656 62.25C268.24 62.303 267.891 62.3485 267.611 62.3864C266.952 62.4697 266.349 62.6098 265.804 62.8068C265.266 63.0038 264.834 63.2879 264.509 63.6591C264.19 64.0227 264.031 64.5076 264.031 65.1136C264.031 65.9545 264.342 66.5909 264.963 67.0227C265.584 67.447 266.376 67.6591 267.338 67.6591ZM287.886 52.5455V55.2727H278.352V52.5455H287.886ZM280.909 48.3636H284.307V64.875C284.307 65.5341 284.405 66.0303 284.602 66.3636C284.799 66.6894 285.053 66.9129 285.364 67.0341C285.682 67.1477 286.026 67.2045 286.398 67.2045C286.67 67.2045 286.909 67.1856 287.114 67.1477C287.318 67.1098 287.477 67.0795 287.591 67.0568L288.205 69.8636C288.008 69.9394 287.727 70.0152 287.364 70.0909C287 70.1742 286.545 70.2197 286 70.2273C285.106 70.2424 284.273 70.0833 283.5 69.75C282.727 69.4167 282.102 68.9015 281.625 68.2045C281.148 67.5076 280.909 66.6326 280.909 65.5795V48.3636ZM298.98 70.3523C297.26 70.3523 295.779 69.9848 294.537 69.25C293.302 68.5076 292.348 67.4659 291.673 66.125C291.007 64.7765 290.673 63.197 290.673 61.3864C290.673 59.5985 291.007 58.0227 291.673 56.6591C292.348 55.2955 293.287 54.2311 294.491 53.4659C295.704 52.7008 297.12 52.3182 298.741 52.3182C299.726 52.3182 300.681 52.4811 301.605 52.8068C302.529 53.1326 303.359 53.6439 304.094 54.3409C304.829 55.0379 305.408 55.9432 305.832 57.0568C306.257 58.1629 306.469 59.5076 306.469 61.0909V62.2955H292.594V59.75H303.139C303.139 58.8561 302.957 58.0644 302.594 57.375C302.23 56.678 301.719 56.1288 301.06 55.7273C300.408 55.3258 299.643 55.125 298.764 55.125C297.81 55.125 296.976 55.3598 296.264 55.8295C295.56 56.2917 295.014 56.8977 294.628 57.6477C294.249 58.3902 294.06 59.197 294.06 60.0682V62.0568C294.06 63.2235 294.264 64.2159 294.673 65.0341C295.09 65.8523 295.669 66.4773 296.412 66.9091C297.154 67.3333 298.022 67.5455 299.014 67.5455C299.658 67.5455 300.245 67.4545 300.776 67.2727C301.306 67.0833 301.764 66.803 302.151 66.4318C302.537 66.0606 302.832 65.6023 303.037 65.0568L306.253 65.6364C305.995 66.5833 305.533 67.4129 304.866 68.125C304.207 68.8295 303.378 69.3788 302.378 69.7727C301.385 70.1591 300.253 70.3523 298.98 70.3523ZM316.773 70.3409C315.364 70.3409 314.106 69.9811 313 69.2614C311.901 68.5341 311.038 67.5 310.409 66.1591C309.788 64.8106 309.477 63.1932 309.477 61.3068C309.477 59.4205 309.792 57.8068 310.42 56.4659C311.057 55.125 311.928 54.0985 313.034 53.3864C314.14 52.6742 315.394 52.3182 316.795 52.3182C317.879 52.3182 318.75 52.5 319.409 52.8636C320.076 53.2197 320.591 53.6364 320.955 54.1136C321.326 54.5909 321.614 55.0114 321.818 55.375H322.023V46.7273H325.42V70H322.102V67.2841H321.818C321.614 67.6553 321.318 68.0795 320.932 68.5568C320.553 69.0341 320.03 69.4508 319.364 69.8068C318.697 70.1629 317.833 70.3409 316.773 70.3409ZM317.523 67.4432C318.5 67.4432 319.326 67.1856 320 66.6705C320.682 66.1477 321.197 65.4242 321.545 64.5C321.901 63.5758 322.08 62.5 322.08 61.2727C322.08 60.0606 321.905 59 321.557 58.0909C321.208 57.1818 320.697 56.4735 320.023 55.9659C319.348 55.4583 318.515 55.2045 317.523 55.2045C316.5 55.2045 315.648 55.4697 314.966 56C314.284 56.5303 313.769 57.2538 313.42 58.1705C313.08 59.0871 312.909 60.1212 312.909 61.2727C312.909 62.4394 313.083 63.4886 313.432 64.4205C313.78 65.3523 314.295 66.0909 314.977 66.6364C315.667 67.1742 316.515 67.4432 317.523 67.4432ZM339.011 70V46.7273H342.523V66.9773H353.068V70H339.011ZM356.801 70V52.5455H360.199V70H356.801ZM358.517 49.8523C357.926 49.8523 357.419 49.6553 356.994 49.2614C356.578 48.8598 356.369 48.3826 356.369 47.8295C356.369 47.2689 356.578 46.7917 356.994 46.3977C357.419 45.9962 357.926 45.7955 358.517 45.7955C359.108 45.7955 359.612 45.9962 360.028 46.3977C360.453 46.7917 360.665 47.2689 360.665 47.8295C360.665 48.3826 360.453 48.8598 360.028 49.2614C359.612 49.6553 359.108 49.8523 358.517 49.8523ZM376.554 76.5455V67.2841H376.349C376.145 67.6553 375.849 68.0795 375.463 68.5568C375.084 69.0341 374.562 69.4508 373.895 69.8068C373.228 70.1629 372.365 70.3409 371.304 70.3409C369.895 70.3409 368.637 69.9811 367.531 69.2614C366.433 68.5341 365.569 67.5 364.94 66.1591C364.319 64.8106 364.009 63.1932 364.009 61.3068C364.009 59.4205 364.323 57.8068 364.952 56.4659C365.588 55.125 366.459 54.0985 367.565 53.3864C368.671 52.6742 369.925 52.3182 371.327 52.3182C372.41 52.3182 373.281 52.5 373.94 52.8636C374.607 53.2197 375.122 53.6364 375.486 54.1136C375.857 54.5909 376.145 55.0114 376.349 55.375H376.634V52.5455H379.952V76.5455H376.554ZM372.054 67.4432C373.031 67.4432 373.857 67.1856 374.531 66.6705C375.213 66.1477 375.728 65.4242 376.077 64.5C376.433 63.5758 376.611 62.5 376.611 61.2727C376.611 60.0606 376.437 59 376.088 58.0909C375.74 57.1818 375.228 56.4735 374.554 55.9659C373.88 55.4583 373.046 55.2045 372.054 55.2045C371.031 55.2045 370.179 55.4697 369.497 56C368.815 56.5303 368.3 57.2538 367.952 58.1705C367.611 59.0871 367.44 60.1212 367.44 61.2727C367.44 62.4394 367.615 63.4886 367.963 64.4205C368.312 65.3523 368.827 66.0909 369.509 66.6364C370.198 67.1742 371.046 67.4432 372.054 67.4432ZM395.577 62.7614V52.5455H398.986V70H395.645V66.9773H395.463C395.062 67.9091 394.418 68.6856 393.531 69.3068C392.652 69.9205 391.558 70.2273 390.247 70.2273C389.126 70.2273 388.134 69.9811 387.27 69.4886C386.414 68.9886 385.74 68.25 385.247 67.2727C384.762 66.2955 384.52 65.0871 384.52 63.6477V52.5455H387.918V63.2386C387.918 64.428 388.247 65.375 388.906 66.0795C389.565 66.7841 390.421 67.1364 391.474 67.1364C392.111 67.1364 392.743 66.9773 393.372 66.6591C394.009 66.3409 394.535 65.8598 394.952 65.2159C395.376 64.572 395.584 63.7538 395.577 62.7614ZM403.551 70V52.5455H406.949V70H403.551ZM405.267 49.8523C404.676 49.8523 404.169 49.6553 403.744 49.2614C403.328 48.8598 403.119 48.3826 403.119 47.8295C403.119 47.2689 403.328 46.7917 403.744 46.3977C404.169 45.9962 404.676 45.7955 405.267 45.7955C405.858 45.7955 406.362 45.9962 406.778 46.3977C407.203 46.7917 407.415 47.2689 407.415 47.8295C407.415 48.3826 407.203 48.8598 406.778 49.2614C406.362 49.6553 405.858 49.8523 405.267 49.8523ZM418.054 70.3409C416.645 70.3409 415.387 69.9811 414.281 69.2614C413.183 68.5341 412.319 67.5 411.69 66.1591C411.069 64.8106 410.759 63.1932 410.759 61.3068C410.759 59.4205 411.073 57.8068 411.702 56.4659C412.338 55.125 413.209 54.0985 414.315 53.3864C415.421 52.6742 416.675 52.3182 418.077 52.3182C419.16 52.3182 420.031 52.5 420.69 52.8636C421.357 53.2197 421.872 53.6364 422.236 54.1136C422.607 54.5909 422.895 55.0114 423.099 55.375H423.304V46.7273H426.702V70H423.384V67.2841H423.099C422.895 67.6553 422.599 68.0795 422.213 68.5568C421.834 69.0341 421.312 69.4508 420.645 69.8068C419.978 70.1629 419.115 70.3409 418.054 70.3409ZM418.804 67.4432C419.781 67.4432 420.607 67.1856 421.281 66.6705C421.963 66.1477 422.478 65.4242 422.827 64.5C423.183 63.5758 423.361 62.5 423.361 61.2727C423.361 60.0606 423.187 59 422.838 58.0909C422.49 57.1818 421.978 56.4735 421.304 55.9659C420.63 55.4583 419.796 55.2045 418.804 55.2045C417.781 55.2045 416.929 55.4697 416.247 56C415.565 56.5303 415.05 57.2538 414.702 58.1705C414.361 59.0871 414.19 60.1212 414.19 61.2727C414.19 62.4394 414.365 63.4886 414.713 64.4205C415.062 65.3523 415.577 66.0909 416.259 66.6364C416.948 67.1742 417.796 67.4432 418.804 67.4432ZM431.551 70V52.5455H434.949V70H431.551ZM433.267 49.8523C432.676 49.8523 432.169 49.6553 431.744 49.2614C431.328 48.8598 431.119 48.3826 431.119 47.8295C431.119 47.2689 431.328 46.7917 431.744 46.3977C432.169 45.9962 432.676 45.7955 433.267 45.7955C433.858 45.7955 434.362 45.9962 434.778 46.3977C435.203 46.7917 435.415 47.2689 435.415 47.8295C435.415 48.3826 435.203 48.8598 434.778 49.2614C434.362 49.6553 433.858 49.8523 433.267 49.8523ZM447.668 52.5455V55.2727H438.134V52.5455H447.668ZM440.69 48.3636H444.088V64.875C444.088 65.5341 444.187 66.0303 444.384 66.3636C444.58 66.6894 444.834 66.9129 445.145 67.0341C445.463 67.1477 445.808 67.2045 446.179 67.2045C446.452 67.2045 446.69 67.1856 446.895 67.1477C447.099 67.1098 447.259 67.0795 447.372 67.0568L447.986 69.8636C447.789 69.9394 447.509 70.0152 447.145 70.0909C446.781 70.1742 446.327 70.2197 445.781 70.2273C444.887 70.2424 444.054 70.0833 443.281 69.75C442.509 69.4167 441.884 68.9015 441.406 68.2045C440.929 67.5076 440.69 66.6326 440.69 65.5795V48.3636ZM453.574 76.5455C453.066 76.5455 452.604 76.5038 452.187 76.4205C451.771 76.3447 451.46 76.2614 451.256 76.1705L452.074 73.3864C452.695 73.553 453.248 73.625 453.733 73.6023C454.218 73.5795 454.646 73.3977 455.017 73.0568C455.396 72.7159 455.729 72.1591 456.017 71.3864L456.437 70.2273L450.051 52.5455H453.687L458.108 66.0909H458.29L462.71 52.5455H466.358L459.165 72.3295C458.831 73.2386 458.407 74.0076 457.892 74.6364C457.377 75.2727 456.763 75.75 456.051 76.0682C455.339 76.3864 454.513 76.5455 453.574 76.5455ZM93.2131 104.727C92.2964 104.727 91.4593 104.504 90.7017 104.057C89.9441 103.602 89.3381 102.996 88.8835 102.239C88.4365 101.481 88.2131 100.644 88.2131 99.7273C88.2131 98.803 88.4365 97.9659 88.8835 97.2159C89.3381 96.4583 89.9441 95.8561 90.7017 95.4091C91.4593 94.9545 92.2964 94.7273 93.2131 94.7273C94.1373 94.7273 94.9744 94.9545 95.7244 95.4091C96.482 95.8561 97.0843 96.4583 97.5312 97.2159C97.9858 97.9659 98.2131 98.803 98.2131 99.7273C98.2131 100.644 97.9858 101.481 97.5312 102.239C97.0843 102.996 96.482 103.602 95.7244 104.057C94.9744 104.504 94.1373 104.727 93.2131 104.727ZM119.761 109V85.7273H128.057C129.867 85.7273 131.367 86.0568 132.557 86.7159C133.746 87.375 134.636 88.2765 135.227 89.4205C135.818 90.5568 136.114 91.8371 136.114 93.2614C136.114 94.6932 135.814 95.9811 135.216 97.125C134.625 98.2614 133.731 99.1629 132.534 99.8295C131.345 100.489 129.848 100.818 128.045 100.818H122.341V97.8409H127.727C128.871 97.8409 129.799 97.6439 130.511 97.25C131.223 96.8485 131.746 96.303 132.08 95.6136C132.413 94.9242 132.58 94.1402 132.58 93.2614C132.58 92.3826 132.413 91.6023 132.08 90.9205C131.746 90.2386 131.22 89.7045 130.5 89.3182C129.788 88.9318 128.848 88.7386 127.682 88.7386H123.273V109H119.761ZM151.014 101.761V91.5455H154.423V109H151.082V105.977H150.901C150.499 106.909 149.855 107.686 148.969 108.307C148.09 108.92 146.995 109.227 145.685 109.227C144.563 109.227 143.571 108.981 142.707 108.489C141.851 107.989 141.177 107.25 140.685 106.273C140.2 105.295 139.957 104.087 139.957 102.648V91.5455H143.355V102.239C143.355 103.428 143.685 104.375 144.344 105.08C145.003 105.784 145.859 106.136 146.912 106.136C147.548 106.136 148.181 105.977 148.81 105.659C149.446 105.341 149.973 104.86 150.389 104.216C150.813 103.572 151.022 102.754 151.014 101.761ZM159.261 109V85.7273H162.659V94.375H162.864C163.061 94.0114 163.345 93.5909 163.716 93.1136C164.087 92.6364 164.602 92.2197 165.261 91.8636C165.92 91.5 166.792 91.3182 167.875 91.3182C169.284 91.3182 170.542 91.6742 171.648 92.3864C172.754 93.0985 173.621 94.125 174.25 95.4659C174.886 96.8068 175.205 98.4205 175.205 100.307C175.205 102.193 174.89 103.811 174.261 105.159C173.633 106.5 172.769 107.534 171.67 108.261C170.572 108.981 169.318 109.341 167.909 109.341C166.848 109.341 165.981 109.163 165.307 108.807C164.64 108.451 164.117 108.034 163.739 107.557C163.36 107.08 163.068 106.655 162.864 106.284H162.58V109H159.261ZM162.591 100.273C162.591 101.5 162.769 102.576 163.125 103.5C163.481 104.424 163.996 105.148 164.67 105.67C165.345 106.186 166.17 106.443 167.148 106.443C168.163 106.443 169.011 106.174 169.693 105.636C170.375 105.091 170.89 104.352 171.239 103.42C171.595 102.489 171.773 101.439 171.773 100.273C171.773 99.1212 171.598 98.0871 171.25 97.1705C170.909 96.2538 170.394 95.5303 169.705 95C169.023 94.4697 168.17 94.2045 167.148 94.2045C166.163 94.2045 165.33 94.4583 164.648 94.9659C163.973 95.4735 163.462 96.1818 163.114 97.0909C162.765 98 162.591 99.0606 162.591 100.273ZM182.418 85.7273V109H179.02V85.7273H182.418ZM186.989 109V91.5455H190.386V109H186.989ZM188.705 88.8523C188.114 88.8523 187.606 88.6553 187.182 88.2614C186.765 87.8598 186.557 87.3826 186.557 86.8295C186.557 86.2689 186.765 85.7917 187.182 85.3977C187.606 84.9962 188.114 84.7955 188.705 84.7955C189.295 84.7955 189.799 84.9962 190.216 85.3977C190.64 85.7917 190.852 86.2689 190.852 86.8295C190.852 87.3826 190.64 87.8598 190.216 88.2614C189.799 88.6553 189.295 88.8523 188.705 88.8523ZM202.31 109.352C200.62 109.352 199.166 108.97 197.946 108.205C196.734 107.432 195.802 106.367 195.151 105.011C194.499 103.655 194.173 102.102 194.173 100.352C194.173 98.5795 194.507 97.0152 195.173 95.6591C195.84 94.2955 196.779 93.2311 197.991 92.4659C199.204 91.7008 200.632 91.3182 202.276 91.3182C203.601 91.3182 204.783 91.5644 205.821 92.0568C206.859 92.5417 207.696 93.2235 208.332 94.1023C208.976 94.9811 209.359 96.0076 209.48 97.1818H206.173C205.991 96.3636 205.575 95.6591 204.923 95.0682C204.279 94.4773 203.416 94.1818 202.332 94.1818C201.385 94.1818 200.556 94.4318 199.844 94.9318C199.139 95.4242 198.59 96.1288 198.196 97.0455C197.802 97.9545 197.605 99.0303 197.605 100.273C197.605 101.545 197.798 102.644 198.185 103.568C198.571 104.492 199.116 105.208 199.821 105.716C200.533 106.223 201.37 106.477 202.332 106.477C202.976 106.477 203.56 106.36 204.082 106.125C204.613 105.883 205.056 105.538 205.412 105.091C205.776 104.644 206.029 104.106 206.173 103.477H209.48C209.359 104.606 208.991 105.614 208.378 106.5C207.764 107.386 206.942 108.083 205.912 108.591C204.889 109.098 203.688 109.352 202.31 109.352ZM234.548 91.8409C234.427 90.7652 233.927 89.9318 233.048 89.3409C232.169 88.7424 231.063 88.4432 229.73 88.4432C228.776 88.4432 227.95 88.5947 227.253 88.8977C226.556 89.1932 226.014 89.6023 225.628 90.125C225.249 90.6402 225.06 91.2273 225.06 91.8864C225.06 92.4394 225.188 92.9167 225.446 93.3182C225.711 93.7197 226.056 94.0568 226.48 94.3295C226.912 94.5947 227.374 94.8182 227.866 95C228.359 95.1742 228.832 95.3182 229.287 95.4318L231.56 96.0227C232.302 96.2045 233.063 96.4508 233.844 96.7614C234.624 97.072 235.348 97.4811 236.014 97.9886C236.681 98.4962 237.219 99.125 237.628 99.875C238.044 100.625 238.253 101.523 238.253 102.568C238.253 103.886 237.912 105.057 237.23 106.08C236.556 107.102 235.575 107.909 234.287 108.5C233.007 109.091 231.457 109.386 229.639 109.386C227.897 109.386 226.389 109.11 225.116 108.557C223.844 108.004 222.848 107.22 222.128 106.205C221.408 105.182 221.01 103.97 220.935 102.568H224.457C224.526 103.409 224.798 104.11 225.276 104.67C225.76 105.223 226.378 105.636 227.128 105.909C227.885 106.174 228.715 106.307 229.616 106.307C230.609 106.307 231.491 106.152 232.264 105.841C233.044 105.523 233.658 105.083 234.105 104.523C234.552 103.955 234.776 103.292 234.776 102.534C234.776 101.845 234.579 101.28 234.185 100.841C233.798 100.402 233.272 100.038 232.605 99.75C231.946 99.4621 231.2 99.2083 230.366 98.9886L227.616 98.2386C225.753 97.7311 224.276 96.9848 223.185 96C222.101 95.0152 221.56 93.7121 221.56 92.0909C221.56 90.75 221.923 89.5795 222.651 88.5795C223.378 87.5795 224.363 86.803 225.605 86.25C226.848 85.6894 228.249 85.4091 229.81 85.4091C231.385 85.4091 232.776 85.6856 233.98 86.2386C235.192 86.7917 236.147 87.553 236.844 88.5227C237.541 89.4848 237.904 90.5909 237.935 91.8409H234.548ZM247.256 109.386C246.15 109.386 245.15 109.182 244.256 108.773C243.362 108.356 242.653 107.754 242.131 106.966C241.616 106.178 241.358 105.212 241.358 104.068C241.358 103.083 241.547 102.273 241.926 101.636C242.305 101 242.816 100.496 243.46 100.125C244.104 99.7538 244.824 99.4735 245.619 99.2841C246.415 99.0947 247.225 98.9508 248.051 98.8523C249.097 98.7311 249.945 98.6326 250.597 98.5568C251.248 98.4735 251.722 98.3409 252.017 98.1591C252.312 97.9773 252.46 97.6818 252.46 97.2727V97.1932C252.46 96.2008 252.18 95.4318 251.619 94.8864C251.066 94.3409 250.241 94.0682 249.142 94.0682C247.998 94.0682 247.097 94.322 246.437 94.8295C245.786 95.3295 245.335 95.8864 245.085 96.5L241.892 95.7727C242.271 94.7121 242.824 93.8561 243.551 93.2045C244.286 92.5455 245.131 92.0682 246.085 91.7727C247.04 91.4697 248.044 91.3182 249.097 91.3182C249.794 91.3182 250.532 91.4015 251.312 91.5682C252.1 91.7273 252.835 92.0227 253.517 92.4545C254.206 92.8864 254.771 93.5038 255.21 94.3068C255.65 95.1023 255.869 96.1364 255.869 97.4091V109H252.551V106.614H252.415C252.195 107.053 251.866 107.485 251.426 107.909C250.987 108.333 250.422 108.686 249.733 108.966C249.044 109.246 248.218 109.386 247.256 109.386ZM247.994 106.659C248.934 106.659 249.737 106.473 250.403 106.102C251.078 105.731 251.589 105.246 251.937 104.648C252.294 104.042 252.472 103.394 252.472 102.705V100.455C252.35 100.576 252.116 100.689 251.767 100.795C251.426 100.894 251.036 100.981 250.597 101.057C250.157 101.125 249.729 101.189 249.312 101.25C248.896 101.303 248.547 101.348 248.267 101.386C247.608 101.47 247.006 101.61 246.46 101.807C245.922 102.004 245.491 102.288 245.165 102.659C244.847 103.023 244.687 103.508 244.687 104.114C244.687 104.955 244.998 105.591 245.619 106.023C246.241 106.447 247.032 106.659 247.994 106.659ZM263.793 85.7273V109H260.395V85.7273H263.793ZM275.886 109.352C274.167 109.352 272.686 108.985 271.443 108.25C270.208 107.508 269.254 106.466 268.58 105.125C267.913 103.777 267.58 102.197 267.58 100.386C267.58 98.5985 267.913 97.0227 268.58 95.6591C269.254 94.2955 270.193 93.2311 271.398 92.4659C272.61 91.7008 274.026 91.3182 275.648 91.3182C276.633 91.3182 277.587 91.4811 278.511 91.8068C279.436 92.1326 280.265 92.6439 281 93.3409C281.735 94.0379 282.314 94.9432 282.739 96.0568C283.163 97.1629 283.375 98.5076 283.375 100.091V101.295H269.5V98.75H280.045C280.045 97.8561 279.864 97.0644 279.5 96.375C279.136 95.678 278.625 95.1288 277.966 94.7273C277.314 94.3258 276.549 94.125 275.67 94.125C274.716 94.125 273.883 94.3598 273.17 94.8295C272.466 95.2917 271.92 95.8977 271.534 96.6477C271.155 97.3902 270.966 98.197 270.966 99.0682V101.057C270.966 102.223 271.17 103.216 271.58 104.034C271.996 104.852 272.576 105.477 273.318 105.909C274.061 106.333 274.928 106.545 275.92 106.545C276.564 106.545 277.151 106.455 277.682 106.273C278.212 106.083 278.67 105.803 279.057 105.432C279.443 105.061 279.739 104.602 279.943 104.057L283.159 104.636C282.901 105.583 282.439 106.413 281.773 107.125C281.114 107.83 280.284 108.379 279.284 108.773C278.292 109.159 277.159 109.352 275.886 109.352ZM93.2131 143.727C92.2964 143.727 91.4593 143.504 90.7017 143.057C89.9441 142.602 89.3381 141.996 88.8835 141.239C88.4365 140.481 88.2131 139.644 88.2131 138.727C88.2131 137.803 88.4365 136.966 88.8835 136.216C89.3381 135.458 89.9441 134.856 90.7017 134.409C91.4593 133.955 92.2964 133.727 93.2131 133.727C94.1373 133.727 94.9744 133.955 95.7244 134.409C96.482 134.856 97.0843 135.458 97.5312 136.216C97.9858 136.966 98.2131 137.803 98.2131 138.727C98.2131 139.644 97.9858 140.481 97.5312 141.239C97.0843 141.996 96.482 142.602 95.7244 143.057C94.9744 143.504 94.1373 143.727 93.2131 143.727ZM118.614 127.75V124.727H136.625V127.75H129.364V148H125.864V127.75H118.614ZM155.355 132.08C155.135 131.39 154.84 130.773 154.469 130.227C154.105 129.674 153.669 129.205 153.162 128.818C152.654 128.424 152.075 128.125 151.423 127.92C150.779 127.716 150.071 127.614 149.298 127.614C147.988 127.614 146.806 127.951 145.753 128.625C144.7 129.299 143.866 130.288 143.253 131.591C142.647 132.886 142.344 134.473 142.344 136.352C142.344 138.239 142.651 139.833 143.264 141.136C143.878 142.439 144.719 143.428 145.787 144.102C146.855 144.777 148.071 145.114 149.435 145.114C150.7 145.114 151.802 144.856 152.741 144.341C153.688 143.826 154.419 143.098 154.935 142.159C155.457 141.212 155.719 140.098 155.719 138.818L156.628 138.989H149.969V136.091H159.116V138.739C159.116 140.693 158.7 142.39 157.866 143.83C157.041 145.261 155.897 146.367 154.435 147.148C152.98 147.928 151.313 148.318 149.435 148.318C147.329 148.318 145.48 147.833 143.889 146.864C142.306 145.894 141.071 144.519 140.185 142.739C139.298 140.951 138.855 138.83 138.855 136.375C138.855 134.519 139.113 132.852 139.628 131.375C140.143 129.898 140.866 128.644 141.798 127.614C142.738 126.576 143.84 125.784 145.105 125.239C146.378 124.686 147.768 124.409 149.276 124.409C150.533 124.409 151.704 124.595 152.787 124.966C153.878 125.337 154.848 125.864 155.696 126.545C156.552 127.227 157.26 128.038 157.821 128.977C158.382 129.909 158.76 130.943 158.957 132.08H155.355ZM163.574 148V124.727H178.165V127.75H167.085V134.841H177.403V137.852H167.085V144.977H178.301V148H163.574Z" fill="#4CC9F0"/>
<line x1="93.7045" y1="20" x2="93.7045" y2="335" stroke="#0FA9D9"/>
</svg>
