<svg width="646" height="627" viewBox="0 0 646 627" fill="none" xmlns="http://www.w3.org/2000/svg">
<path d="M367.795 335L313.795 379.167V290.833L367.795 335Z" fill="#4CC9F0"/>
<path fill-rule="evenodd" clip-rule="evenodd" d="M0 379L53.7955 335L0 291H313.795V379H0Z" fill="#4CC9F0"/>
<path d="M133.011 349V346.443L142.614 335.932C143.741 334.701 144.669 333.631 145.398 332.722C146.127 331.803 146.667 330.941 147.017 330.136C147.377 329.322 147.557 328.47 147.557 327.58C147.557 326.557 147.311 325.671 146.818 324.923C146.335 324.175 145.672 323.598 144.83 323.19C143.987 322.783 143.04 322.58 141.989 322.58C140.871 322.58 139.896 322.812 139.062 323.276C138.239 323.73 137.599 324.369 137.145 325.193C136.7 326.017 136.477 326.983 136.477 328.091H133.125C133.125 326.386 133.518 324.89 134.304 323.602C135.09 322.314 136.16 321.311 137.514 320.591C138.878 319.871 140.407 319.511 142.102 319.511C143.807 319.511 145.317 319.871 146.634 320.591C147.95 321.311 148.982 322.281 149.73 323.503C150.478 324.724 150.852 326.083 150.852 327.58C150.852 328.65 150.658 329.696 150.27 330.719C149.891 331.732 149.228 332.864 148.281 334.114C147.344 335.354 146.042 336.869 144.375 338.659L137.841 345.648V345.875H151.364V349H133.011ZM166.719 349.398C164.579 349.398 162.756 348.815 161.25 347.651C159.744 346.476 158.594 344.777 157.798 342.551C157.003 340.316 156.605 337.617 156.605 334.455C156.605 331.311 157.003 328.626 157.798 326.401C158.603 324.166 159.759 322.461 161.264 321.287C162.779 320.103 164.598 319.511 166.719 319.511C168.84 319.511 170.653 320.103 172.159 321.287C173.674 322.461 174.83 324.166 175.625 326.401C176.43 328.626 176.832 331.311 176.832 334.455C176.832 337.617 176.435 340.316 175.639 342.551C174.844 344.777 173.693 346.476 172.188 347.651C170.682 348.815 168.859 349.398 166.719 349.398ZM166.719 346.273C168.84 346.273 170.488 345.25 171.662 343.205C172.836 341.159 173.423 338.242 173.423 334.455C173.423 331.936 173.153 329.791 172.614 328.02C172.083 326.249 171.316 324.9 170.312 323.972C169.318 323.044 168.12 322.58 166.719 322.58C164.616 322.58 162.973 323.616 161.79 325.69C160.606 327.755 160.014 330.676 160.014 334.455C160.014 336.973 160.279 339.114 160.81 340.875C161.34 342.636 162.102 343.976 163.097 344.895C164.1 345.813 165.308 346.273 166.719 346.273ZM182.23 349V346.443L191.832 335.932C192.959 334.701 193.887 333.631 194.616 332.722C195.346 331.803 195.885 330.941 196.236 330.136C196.596 329.322 196.776 328.47 196.776 327.58C196.776 326.557 196.529 325.671 196.037 324.923C195.554 324.175 194.891 323.598 194.048 323.19C193.205 322.783 192.259 322.58 191.207 322.58C190.09 322.58 189.115 322.812 188.281 323.276C187.457 323.73 186.818 324.369 186.364 325.193C185.919 326.017 185.696 326.983 185.696 328.091H182.344C182.344 326.386 182.737 324.89 183.523 323.602C184.309 322.314 185.379 321.311 186.733 320.591C188.097 319.871 189.626 319.511 191.321 319.511C193.026 319.511 194.536 319.871 195.852 320.591C197.169 321.311 198.201 322.281 198.949 323.503C199.697 324.724 200.071 326.083 200.071 327.58C200.071 328.65 199.877 329.696 199.489 330.719C199.11 331.732 198.447 332.864 197.5 334.114C196.562 335.354 195.26 336.869 193.594 338.659L187.06 345.648V345.875H200.582V349H182.23ZM216.278 349.398C214.403 349.398 212.732 349.076 211.264 348.432C209.806 347.788 208.646 346.893 207.784 345.747C206.932 344.592 206.468 343.252 206.392 341.727H209.972C210.047 342.665 210.369 343.474 210.938 344.156C211.506 344.829 212.249 345.349 213.168 345.719C214.086 346.088 215.104 346.273 216.222 346.273C217.472 346.273 218.58 346.055 219.545 345.619C220.511 345.184 221.269 344.578 221.818 343.801C222.367 343.025 222.642 342.125 222.642 341.102C222.642 340.032 222.377 339.09 221.847 338.276C221.316 337.452 220.54 336.808 219.517 336.344C218.494 335.88 217.244 335.648 215.767 335.648H213.438V332.523H215.767C216.922 332.523 217.936 332.314 218.807 331.898C219.688 331.481 220.374 330.894 220.866 330.136C221.368 329.379 221.619 328.489 221.619 327.466C221.619 326.481 221.402 325.624 220.966 324.895C220.53 324.166 219.915 323.598 219.119 323.19C218.333 322.783 217.405 322.58 216.335 322.58C215.331 322.58 214.384 322.764 213.494 323.134C212.614 323.493 211.894 324.019 211.335 324.71C210.777 325.392 210.473 326.216 210.426 327.182H207.017C207.074 325.657 207.533 324.322 208.395 323.176C209.257 322.021 210.384 321.121 211.776 320.477C213.177 319.833 214.716 319.511 216.392 319.511C218.191 319.511 219.735 319.876 221.023 320.605C222.311 321.325 223.3 322.277 223.991 323.46C224.683 324.644 225.028 325.922 225.028 327.295C225.028 328.934 224.598 330.33 223.736 331.486C222.884 332.641 221.723 333.441 220.256 333.886V334.114C222.093 334.417 223.527 335.198 224.56 336.457C225.592 337.707 226.108 339.256 226.108 341.102C226.108 342.684 225.677 344.104 224.815 345.364C223.963 346.614 222.798 347.598 221.321 348.318C219.844 349.038 218.163 349.398 216.278 349.398ZM254.247 339.909H258.111L261.349 344.17L262.202 345.307L267.031 351.727H263.168L259.986 347.466L259.19 346.386L254.247 339.909ZM268.224 334.455C268.224 337.523 267.67 340.174 266.562 342.409C265.455 344.644 263.935 346.367 262.003 347.58C260.071 348.792 257.865 349.398 255.384 349.398C252.902 349.398 250.696 348.792 248.764 347.58C246.832 346.367 245.313 344.644 244.205 342.409C243.097 340.174 242.543 337.523 242.543 334.455C242.543 331.386 243.097 328.735 244.205 326.5C245.313 324.265 246.832 322.542 248.764 321.33C250.696 320.117 252.902 319.511 255.384 319.511C257.865 319.511 260.071 320.117 262.003 321.33C263.935 322.542 265.455 324.265 266.562 326.5C267.67 328.735 268.224 331.386 268.224 334.455ZM264.815 334.455C264.815 331.936 264.394 329.81 263.551 328.077C262.718 326.344 261.586 325.032 260.156 324.142C258.736 323.252 257.145 322.807 255.384 322.807C253.622 322.807 252.027 323.252 250.597 324.142C249.176 325.032 248.045 326.344 247.202 328.077C246.368 329.81 245.952 331.936 245.952 334.455C245.952 336.973 246.368 339.099 247.202 340.832C248.045 342.565 249.176 343.877 250.597 344.767C252.027 345.657 253.622 346.102 255.384 346.102C257.145 346.102 258.736 345.657 260.156 344.767C261.586 343.877 262.718 342.565 263.551 340.832C264.394 339.099 264.815 336.973 264.815 334.455ZM283.466 349.398C281.591 349.398 279.92 349.076 278.452 348.432C276.993 347.788 275.833 346.893 274.972 345.747C274.119 344.592 273.655 343.252 273.58 341.727H277.159C277.235 342.665 277.557 343.474 278.125 344.156C278.693 344.829 279.437 345.349 280.355 345.719C281.274 346.088 282.292 346.273 283.409 346.273C284.659 346.273 285.767 346.055 286.733 345.619C287.699 345.184 288.456 344.578 289.006 343.801C289.555 343.025 289.83 342.125 289.83 341.102C289.83 340.032 289.564 339.09 289.034 338.276C288.504 337.452 287.727 336.808 286.705 336.344C285.682 335.88 284.432 335.648 282.955 335.648H280.625V332.523H282.955C284.11 332.523 285.123 332.314 285.994 331.898C286.875 331.481 287.562 330.894 288.054 330.136C288.556 329.379 288.807 328.489 288.807 327.466C288.807 326.481 288.589 325.624 288.153 324.895C287.718 324.166 287.102 323.598 286.307 323.19C285.521 322.783 284.593 322.58 283.523 322.58C282.519 322.58 281.572 322.764 280.682 323.134C279.801 323.493 279.081 324.019 278.523 324.71C277.964 325.392 277.661 326.216 277.614 327.182H274.205C274.261 325.657 274.721 324.322 275.582 323.176C276.444 322.021 277.571 321.121 278.963 320.477C280.365 319.833 281.903 319.511 283.58 319.511C285.379 319.511 286.922 319.876 288.21 320.605C289.498 321.325 290.488 322.277 291.179 323.46C291.87 324.644 292.216 325.922 292.216 327.295C292.216 328.934 291.785 330.33 290.923 331.486C290.071 332.641 288.911 333.441 287.443 333.886V334.114C289.28 334.417 290.715 335.198 291.747 336.457C292.779 337.707 293.295 339.256 293.295 341.102C293.295 342.684 292.865 344.104 292.003 345.364C291.151 346.614 289.986 347.598 288.509 348.318C287.031 349.038 285.35 349.398 283.466 349.398Z" fill="black"/>
<circle cx="92.5" cy="334.5" r="8.5" fill="#D9D9D9"/>
<path d="M93.2158 29.152C92.1705 29.152 91.1998 28.9067 90.3038 28.416C89.4078 27.904 88.6932 27.2107 88.1598 26.336C87.6265 25.4613 87.3598 24.4907 87.3598 23.424C87.3598 22.4427 87.6052 21.5147 88.0958 20.64C88.6078 19.7653 89.3012 19.0613 90.1758 18.528C91.0718 17.9733 92.0852 17.696 93.2158 17.696C94.2612 17.696 95.2212 17.952 96.0958 18.464C96.9705 18.9547 97.6745 19.6267 98.2078 20.48C98.7625 21.3333 99.0398 22.3147 99.0398 23.424C99.0398 24.4693 98.7732 25.4293 98.2398 26.304C97.7278 27.1787 97.0238 27.872 96.1278 28.384C95.2532 28.896 94.2825 29.152 93.2158 29.152ZM119.957 32V9.44H129.141C131.573 9.44 133.439 9.952 134.741 10.976C136.042 12 136.693 13.44 136.693 15.296C136.693 16.704 136.266 17.8773 135.413 18.816C134.581 19.7547 133.439 20.384 131.989 20.704V20.224C133.653 20.416 134.943 20.992 135.861 21.952C136.799 22.912 137.269 24.1813 137.269 25.76C137.269 27.7653 136.597 29.312 135.253 30.4C133.909 31.4667 132.01 32 129.557 32H119.957ZM122.837 29.632H129.269C130.847 29.632 132.085 29.3333 132.981 28.736C133.898 28.1173 134.357 27.104 134.357 25.696C134.357 24.2667 133.898 23.2533 132.981 22.656C132.085 22.0587 130.847 21.76 129.269 21.76H122.837V29.632ZM122.837 19.392H128.725C130.41 19.392 131.669 19.072 132.501 18.432C133.333 17.7707 133.749 16.8213 133.749 15.584C133.749 14.3467 133.333 13.408 132.501 12.768C131.669 12.1067 130.41 11.776 128.725 11.776H122.837V19.392ZM148.808 32.288C146.248 32.288 144.222 31.552 142.728 30.08C141.256 28.608 140.52 26.5813 140.52 24C140.52 22.2933 140.84 20.8213 141.48 19.584C142.142 18.3253 143.048 17.3547 144.2 16.672C145.352 15.968 146.696 15.616 148.232 15.616C149.704 15.616 150.952 15.936 151.976 16.576C153 17.1947 153.779 18.08 154.312 19.232C154.846 20.384 155.112 21.7493 155.112 23.328V24.288H142.792V22.56H153.128L152.584 22.976C152.584 21.312 152.211 20.0213 151.464 19.104C150.739 18.1867 149.662 17.728 148.232 17.728C146.675 17.728 145.47 18.272 144.616 19.36C143.763 20.4267 143.336 21.888 143.336 23.744V24.032C143.336 25.9947 143.816 27.4773 144.776 28.48C145.758 29.4827 147.112 29.984 148.84 29.984C149.8 29.984 150.696 29.8453 151.528 29.568C152.36 29.2907 153.16 28.832 153.928 28.192L154.888 30.208C154.163 30.8693 153.256 31.3813 152.168 31.744C151.102 32.1067 149.982 32.288 148.808 32.288ZM164.903 32.288C163.217 32.288 161.937 31.8293 161.063 30.912C160.209 29.9733 159.783 28.5653 159.783 26.688V18.144H156.647V15.904H159.783V11.584L162.695 10.784V15.904H167.239V18.144H162.695V26.432C162.695 27.6693 162.908 28.5547 163.335 29.088C163.783 29.6 164.423 29.856 165.255 29.856C165.681 29.856 166.044 29.824 166.343 29.76C166.663 29.6747 166.951 29.5787 167.207 29.472V31.872C166.887 32 166.513 32.096 166.087 32.16C165.681 32.2453 165.287 32.288 164.903 32.288ZM176.437 32.288C175.029 32.288 173.792 31.9573 172.725 31.296C171.658 30.6347 170.826 29.6747 170.229 28.416C169.632 27.1573 169.333 25.664 169.333 23.936C169.333 22.208 169.632 20.7253 170.229 19.488C170.826 18.2293 171.658 17.2693 172.725 16.608C173.792 15.9467 175.029 15.616 176.437 15.616C177.866 15.616 179.104 15.9787 180.149 16.704C181.216 17.408 181.92 18.3787 182.261 19.616H181.877L182.229 15.904H185.045C184.981 16.544 184.917 17.184 184.853 17.824C184.81 18.464 184.789 19.0933 184.789 19.712V32H181.877V28.32H182.229C181.888 29.536 181.184 30.5067 180.117 31.232C179.072 31.936 177.845 32.288 176.437 32.288ZM177.109 29.984C178.56 29.984 179.722 29.472 180.597 28.448C181.472 27.424 181.909 25.92 181.909 23.936C181.909 21.952 181.472 20.4587 180.597 19.456C179.722 18.4533 178.56 17.952 177.109 17.952C175.658 17.952 174.485 18.4533 173.589 19.456C172.714 20.4587 172.277 21.952 172.277 23.936C172.277 25.92 172.714 27.424 173.589 28.448C174.464 29.472 175.637 29.984 177.109 29.984ZM198.425 32V9.44H200.729L214.873 28.128H214.105V9.44H216.889V32H214.617L200.473 13.312H201.209V32H198.425ZM222.363 32V9.44H236.635V11.872H225.339V19.424H235.899V21.856H225.339V32H222.363ZM245.958 32V11.968H238.15V9.44H256.806V11.968H248.966V32H245.958ZM268.425 32V9.44H271.049L279.945 29.472H278.985L287.881 9.44H290.473V32H287.753V13.408H288.745L280.393 32H278.505L270.153 13.408H271.145V32H268.425ZM301.812 32.288C300.404 32.288 299.167 31.9573 298.1 31.296C297.033 30.6347 296.201 29.6747 295.604 28.416C295.007 27.1573 294.708 25.664 294.708 23.936C294.708 22.208 295.007 20.7253 295.604 19.488C296.201 18.2293 297.033 17.2693 298.1 16.608C299.167 15.9467 300.404 15.616 301.812 15.616C303.241 15.616 304.479 15.9787 305.524 16.704C306.591 17.408 307.295 18.3787 307.636 19.616H307.252L307.604 15.904H310.42C310.356 16.544 310.292 17.184 310.228 17.824C310.185 18.464 310.164 19.0933 310.164 19.712V32H307.252V28.32H307.604C307.263 29.536 306.559 30.5067 305.492 31.232C304.447 31.936 303.22 32.288 301.812 32.288ZM302.484 29.984C303.935 29.984 305.097 29.472 305.972 28.448C306.847 27.424 307.284 25.92 307.284 23.936C307.284 21.952 306.847 20.4587 305.972 19.456C305.097 18.4533 303.935 17.952 302.484 17.952C301.033 17.952 299.86 18.4533 298.964 19.456C298.089 20.4587 297.652 21.952 297.652 23.936C297.652 25.92 298.089 27.424 298.964 28.448C299.839 29.472 301.012 29.984 302.484 29.984ZM315.011 32V19.84C315.011 19.2 314.99 18.5493 314.947 17.888C314.926 17.2053 314.872 16.544 314.787 15.904H317.603L317.955 19.936L317.475 19.968C317.688 18.9867 318.051 18.176 318.563 17.536C319.096 16.8747 319.726 16.3947 320.451 16.096C321.198 15.776 321.966 15.616 322.755 15.616C323.096 15.616 323.384 15.6267 323.619 15.648C323.854 15.6693 324.088 15.7227 324.323 15.808L324.259 18.4C323.939 18.272 323.64 18.1973 323.363 18.176C323.107 18.1333 322.787 18.112 322.403 18.112C321.464 18.112 320.654 18.3253 319.971 18.752C319.31 19.1787 318.798 19.744 318.435 20.448C318.094 21.152 317.923 21.9093 317.923 22.72V32H315.011ZM326.887 32V8.448H329.799V23.008H329.863L337.127 15.904H340.743L332.103 24.352L332.135 22.976L341.511 32H337.799L329.863 24.512H329.799V32H326.887ZM350.59 32.288C348.03 32.288 346.003 31.552 344.51 30.08C343.038 28.608 342.302 26.5813 342.302 24C342.302 22.2933 342.622 20.8213 343.262 19.584C343.923 18.3253 344.83 17.3547 345.982 16.672C347.134 15.968 348.478 15.616 350.014 15.616C351.486 15.616 352.734 15.936 353.758 16.576C354.782 17.1947 355.56 18.08 356.094 19.232C356.627 20.384 356.894 21.7493 356.894 23.328V24.288H344.574V22.56H354.91L354.366 22.976C354.366 21.312 353.992 20.0213 353.246 19.104C352.52 18.1867 351.443 17.728 350.014 17.728C348.456 17.728 347.251 18.272 346.398 19.36C345.544 20.4267 345.118 21.888 345.118 23.744V24.032C345.118 25.9947 345.598 27.4773 346.558 28.48C347.539 29.4827 348.894 29.984 350.622 29.984C351.582 29.984 352.478 29.8453 353.31 29.568C354.142 29.2907 354.942 28.832 355.71 28.192L356.67 30.208C355.944 30.8693 355.038 31.3813 353.95 31.744C352.883 32.1067 351.763 32.288 350.59 32.288ZM366.684 32.288C364.999 32.288 363.719 31.8293 362.844 30.912C361.991 29.9733 361.564 28.5653 361.564 26.688V18.144H358.428V15.904H361.564V11.584L364.476 10.784V15.904H369.02V18.144H364.476V26.432C364.476 27.6693 364.689 28.5547 365.116 29.088C365.564 29.6 366.204 29.856 367.036 29.856C367.463 29.856 367.825 29.824 368.124 29.76C368.444 29.6747 368.732 29.5787 368.988 29.472V31.872C368.668 32 368.295 32.096 367.868 32.16C367.463 32.2453 367.068 32.288 366.684 32.288ZM372.074 38.912V19.712C372.074 19.0933 372.053 18.464 372.01 17.824C371.967 17.184 371.903 16.544 371.818 15.904H374.634L374.986 19.616H374.634C374.954 18.3787 375.637 17.408 376.682 16.704C377.727 15.9787 378.975 15.616 380.426 15.616C381.855 15.616 383.103 15.9467 384.17 16.608C385.237 17.2693 386.058 18.2293 386.634 19.488C387.231 20.7253 387.53 22.208 387.53 23.936C387.53 25.664 387.231 27.1573 386.634 28.416C386.058 29.6747 385.237 30.6347 384.17 31.296C383.103 31.9573 381.855 32.288 380.426 32.288C378.997 32.288 377.759 31.936 376.714 31.232C375.69 30.5067 374.997 29.536 374.634 28.32H374.986V38.912H372.074ZM379.754 29.984C381.226 29.984 382.399 29.472 383.274 28.448C384.149 27.424 384.586 25.92 384.586 23.936C384.586 21.952 384.149 20.4587 383.274 19.456C382.399 18.4533 381.226 17.952 379.754 17.952C378.282 17.952 377.109 18.4533 376.234 19.456C375.381 20.4587 374.954 21.952 374.954 23.936C374.954 25.92 375.381 27.424 376.234 28.448C377.109 29.472 378.282 29.984 379.754 29.984ZM391.449 32V8.448H394.361V32H391.449ZM405.374 32.288C403.966 32.288 402.729 31.9573 401.662 31.296C400.596 30.6347 399.764 29.6747 399.166 28.416C398.569 27.1573 398.27 25.664 398.27 23.936C398.27 22.208 398.569 20.7253 399.166 19.488C399.764 18.2293 400.596 17.2693 401.662 16.608C402.729 15.9467 403.966 15.616 405.374 15.616C406.804 15.616 408.041 15.9787 409.086 16.704C410.153 17.408 410.857 18.3787 411.198 19.616H410.814L411.166 15.904H413.982C413.918 16.544 413.854 17.184 413.79 17.824C413.748 18.464 413.726 19.0933 413.726 19.712V32H410.814V28.32H411.166C410.825 29.536 410.121 30.5067 409.054 31.232C408.009 31.936 406.782 32.288 405.374 32.288ZM406.046 29.984C407.497 29.984 408.66 29.472 409.534 28.448C410.409 27.424 410.846 25.92 410.846 23.936C410.846 21.952 410.409 20.4587 409.534 19.456C408.66 18.4533 407.497 17.952 406.046 17.952C404.596 17.952 403.422 18.4533 402.526 19.456C401.652 20.4587 401.214 21.952 401.214 23.936C401.214 25.92 401.652 27.424 402.526 28.448C403.401 29.472 404.574 29.984 406.046 29.984ZM425.517 32.288C423.917 32.288 422.531 31.9573 421.357 31.296C420.184 30.6133 419.267 29.6427 418.605 28.384C417.965 27.104 417.645 25.5893 417.645 23.84C417.645 22.112 417.976 20.64 418.637 19.424C419.299 18.1867 420.216 17.248 421.389 16.608C422.563 15.9467 423.939 15.616 425.517 15.616C426.563 15.616 427.576 15.7973 428.557 16.16C429.539 16.5013 430.339 17.0027 430.957 17.664L429.965 19.712C429.347 19.1147 428.664 18.6773 427.917 18.4C427.171 18.1013 426.435 17.952 425.709 17.952C424.131 17.952 422.893 18.464 421.997 19.488C421.101 20.4907 420.653 21.952 420.653 23.872C420.653 25.8133 421.101 27.3067 421.997 28.352C422.893 29.3973 424.131 29.92 425.709 29.92C426.413 29.92 427.139 29.7813 427.885 29.504C428.632 29.2267 429.325 28.7893 429.965 28.192L430.957 30.208C430.317 30.8907 429.496 31.4133 428.493 31.776C427.512 32.1173 426.52 32.288 425.517 32.288ZM441.527 32.288C438.967 32.288 436.94 31.552 435.447 30.08C433.975 28.608 433.239 26.5813 433.239 24C433.239 22.2933 433.559 20.8213 434.199 19.584C434.86 18.3253 435.767 17.3547 436.919 16.672C438.071 15.968 439.415 15.616 440.951 15.616C442.423 15.616 443.671 15.936 444.695 16.576C445.719 17.1947 446.498 18.08 447.031 19.232C447.564 20.384 447.831 21.7493 447.831 23.328V24.288H435.511V22.56H445.847L445.303 22.976C445.303 21.312 444.93 20.0213 444.183 19.104C443.458 18.1867 442.38 17.728 440.951 17.728C439.394 17.728 438.188 18.272 437.335 19.36C436.482 20.4267 436.055 21.888 436.055 23.744V24.032C436.055 25.9947 436.535 27.4773 437.495 28.48C438.476 29.4827 439.831 29.984 441.559 29.984C442.519 29.984 443.415 29.8453 444.247 29.568C445.079 29.2907 445.879 28.832 446.647 28.192L447.607 30.208C446.882 30.8693 445.975 31.3813 444.887 31.744C443.82 32.1067 442.7 32.288 441.527 32.288ZM460.394 32V9.44H463.018L471.914 29.472H470.954L479.85 9.44H482.442V32H479.722V13.408H480.714L472.362 32H470.474L462.122 13.408H463.114V32H460.394ZM493.781 32.288C492.373 32.288 491.135 31.9573 490.069 31.296C489.002 30.6347 488.17 29.6747 487.573 28.416C486.975 27.1573 486.677 25.664 486.677 23.936C486.677 22.208 486.975 20.7253 487.573 19.488C488.17 18.2293 489.002 17.2693 490.069 16.608C491.135 15.9467 492.373 15.616 493.781 15.616C495.21 15.616 496.447 15.9787 497.493 16.704C498.559 17.408 499.263 18.3787 499.605 19.616H499.221L499.573 15.904H502.389C502.325 16.544 502.261 17.184 502.197 17.824C502.154 18.464 502.133 19.0933 502.133 19.712V32H499.221V28.32H499.573C499.231 29.536 498.527 30.5067 497.461 31.232C496.415 31.936 495.189 32.288 493.781 32.288ZM494.453 29.984C495.903 29.984 497.066 29.472 497.941 28.448C498.815 27.424 499.253 25.92 499.253 23.936C499.253 21.952 498.815 20.4587 497.941 19.456C497.066 18.4533 495.903 17.952 494.453 17.952C493.002 17.952 491.829 18.4533 490.933 19.456C490.058 20.4587 489.621 21.952 489.621 23.936C489.621 25.92 490.058 27.424 490.933 28.448C491.807 29.472 492.981 29.984 494.453 29.984ZM507.012 32V15.904H509.924V32H507.012ZM506.756 12.384V9.248H510.212V12.384H506.756ZM514.793 32V19.712C514.793 19.0933 514.772 18.464 514.729 17.824C514.686 17.184 514.622 16.544 514.537 15.904H517.353L517.673 19.36H517.289C517.78 18.144 518.537 17.216 519.561 16.576C520.585 15.936 521.78 15.616 523.145 15.616C525.044 15.616 526.473 16.1387 527.433 17.184C528.393 18.208 528.873 19.808 528.873 21.984V32H525.961V22.144C525.961 20.672 525.673 19.616 525.097 18.976C524.521 18.3147 523.625 17.984 522.409 17.984C520.958 17.984 519.806 18.4213 518.953 19.296C518.121 20.1707 517.705 21.3547 517.705 22.848V32H514.793ZM533.637 32V19.712C533.637 19.0933 533.615 18.464 533.573 17.824C533.53 17.184 533.466 16.544 533.381 15.904H536.197L536.517 19.36H536.133C536.623 18.144 537.381 17.216 538.405 16.576C539.429 15.936 540.623 15.616 541.989 15.616C543.887 15.616 545.317 16.1387 546.277 17.184C547.237 18.208 547.717 19.808 547.717 21.984V32H544.805V22.144C544.805 20.672 544.517 19.616 543.941 18.976C543.365 18.3147 542.469 17.984 541.253 17.984C539.802 17.984 538.65 18.4213 537.797 19.296C536.965 20.1707 536.549 21.3547 536.549 22.848V32H533.637ZM559.808 32.288C557.248 32.288 555.222 31.552 553.728 30.08C552.256 28.608 551.52 26.5813 551.52 24C551.52 22.2933 551.84 20.8213 552.48 19.584C553.142 18.3253 554.048 17.3547 555.2 16.672C556.352 15.968 557.696 15.616 559.232 15.616C560.704 15.616 561.952 15.936 562.976 16.576C564 17.1947 564.779 18.08 565.312 19.232C565.846 20.384 566.112 21.7493 566.112 23.328V24.288H553.792V22.56H564.128L563.584 22.976C563.584 21.312 563.211 20.0213 562.464 19.104C561.739 18.1867 560.662 17.728 559.232 17.728C557.675 17.728 556.47 18.272 555.616 19.36C554.763 20.4267 554.336 21.888 554.336 23.744V24.032C554.336 25.9947 554.816 27.4773 555.776 28.48C556.758 29.4827 558.112 29.984 559.84 29.984C560.8 29.984 561.696 29.8453 562.528 29.568C563.36 29.2907 564.16 28.832 564.928 28.192L565.888 30.208C565.163 30.8693 564.256 31.3813 563.168 31.744C562.102 32.1067 560.982 32.288 559.808 32.288ZM575.903 32.288C574.217 32.288 572.937 31.8293 572.063 30.912C571.209 29.9733 570.783 28.5653 570.783 26.688V18.144H567.647V15.904H570.783V11.584L573.695 10.784V15.904H578.239V18.144H573.695V26.432C573.695 27.6693 573.908 28.5547 574.335 29.088C574.783 29.6 575.423 29.856 576.255 29.856C576.681 29.856 577.044 29.824 577.343 29.76C577.663 29.6747 577.951 29.5787 578.207 29.472V31.872C577.887 32 577.513 32.096 577.087 32.16C576.681 32.2453 576.287 32.288 575.903 32.288ZM93.2158 69.152C92.1705 69.152 91.1998 68.9067 90.3038 68.416C89.4078 67.904 88.6932 67.2107 88.1598 66.336C87.6265 65.4613 87.3598 64.4907 87.3598 63.424C87.3598 62.4427 87.6052 61.5147 88.0958 60.64C88.6078 59.7653 89.3012 59.0613 90.1758 58.528C91.0718 57.9733 92.0852 57.696 93.2158 57.696C94.2612 57.696 95.2212 57.952 96.0958 58.464C96.9705 58.9547 97.6745 59.6267 98.2078 60.48C98.7625 61.3333 99.0398 62.3147 99.0398 63.424C99.0398 64.4693 98.7732 65.4293 98.2398 66.304C97.7278 67.1787 97.0238 67.872 96.1278 68.384C95.2532 68.896 94.2825 69.152 93.2158 69.152ZM119.957 72V49.44H122.261L136.405 68.128H135.637V49.44H138.421V72H136.149L122.005 53.312H122.741V72H119.957ZM149.718 72.288C148.31 72.288 147.073 71.9573 146.006 71.296C144.939 70.6347 144.107 69.6747 143.51 68.416C142.913 67.1573 142.614 65.664 142.614 63.936C142.614 62.208 142.913 60.7253 143.51 59.488C144.107 58.2293 144.939 57.2693 146.006 56.608C147.073 55.9467 148.31 55.616 149.718 55.616C151.147 55.616 152.385 55.9787 153.43 56.704C154.497 57.408 155.201 58.3787 155.542 59.616H155.158L155.51 55.904H158.326C158.262 56.544 158.198 57.184 158.134 57.824C158.091 58.464 158.07 59.0933 158.07 59.712V72H155.158V68.32H155.51C155.169 69.536 154.465 70.5067 153.398 71.232C152.353 71.936 151.126 72.288 149.718 72.288ZM150.39 69.984C151.841 69.984 153.003 69.472 153.878 68.448C154.753 67.424 155.19 65.92 155.19 63.936C155.19 61.952 154.753 60.4587 153.878 59.456C153.003 58.4533 151.841 57.952 150.39 57.952C148.939 57.952 147.766 58.4533 146.87 59.456C145.995 60.4587 145.558 61.952 145.558 63.936C145.558 65.92 145.995 67.424 146.87 68.448C147.745 69.472 148.918 69.984 150.39 69.984ZM168.965 72.288C167.28 72.288 166 71.8293 165.125 70.912C164.272 69.9733 163.845 68.5653 163.845 66.688V58.144H160.709V55.904H163.845V51.584L166.757 50.784V55.904H171.301V58.144H166.757V66.432C166.757 67.6693 166.97 68.5547 167.397 69.088C167.845 69.6 168.485 69.856 169.317 69.856C169.744 69.856 170.106 69.824 170.405 69.76C170.725 69.6747 171.013 69.5787 171.269 69.472V71.872C170.949 72 170.576 72.096 170.149 72.16C169.744 72.2453 169.349 72.288 168.965 72.288ZM174.355 72V55.904H177.267V72H174.355ZM174.099 52.384V49.248H177.555V52.384H174.099ZM186.873 72L179.993 55.904H183.129L188.729 69.728H187.833L193.529 55.904H196.505L189.593 72H186.873ZM206.308 72.288C203.748 72.288 201.722 71.552 200.228 70.08C198.756 68.608 198.02 66.5813 198.02 64C198.02 62.2933 198.34 60.8213 198.98 59.584C199.642 58.3253 200.548 57.3547 201.7 56.672C202.852 55.968 204.196 55.616 205.732 55.616C207.204 55.616 208.452 55.936 209.476 56.576C210.5 57.1947 211.279 58.08 211.812 59.232C212.346 60.384 212.612 61.7493 212.612 63.328V64.288H200.292V62.56H210.628L210.084 62.976C210.084 61.312 209.711 60.0213 208.964 59.104C208.239 58.1867 207.162 57.728 205.732 57.728C204.175 57.728 202.97 58.272 202.116 59.36C201.263 60.4267 200.836 61.888 200.836 63.744V64.032C200.836 65.9947 201.316 67.4773 202.276 68.48C203.258 69.4827 204.612 69.984 206.34 69.984C207.3 69.984 208.196 69.8453 209.028 69.568C209.86 69.2907 210.66 68.832 211.428 68.192L212.388 70.208C211.663 70.8693 210.756 71.3813 209.668 71.744C208.602 72.1067 207.482 72.288 206.308 72.288ZM235.127 72.288C232.866 72.288 230.925 71.8187 229.303 70.88C227.703 69.9413 226.477 68.608 225.623 66.88C224.77 65.1307 224.343 63.072 224.343 60.704C224.343 58.336 224.77 56.288 225.623 54.56C226.477 52.832 227.703 51.4987 229.303 50.56C230.925 49.6213 232.866 49.152 235.127 49.152C236.749 49.152 238.189 49.3973 239.447 49.888C240.706 50.3573 241.805 51.0507 242.743 51.968L241.655 54.368C240.631 53.472 239.618 52.832 238.615 52.448C237.634 52.0427 236.493 51.84 235.191 51.84C232.695 51.84 230.786 52.608 229.463 54.144C228.141 55.68 227.479 57.8667 227.479 60.704C227.479 63.5413 228.141 65.7387 229.463 67.296C230.786 68.832 232.695 69.6 235.191 69.6C236.493 69.6 237.634 69.408 238.615 69.024C239.618 68.6187 240.631 67.968 241.655 67.072L242.743 69.44C241.805 70.3573 240.695 71.0613 239.415 71.552C238.157 72.0427 236.727 72.288 235.127 72.288ZM246.73 72V59.84C246.73 59.2 246.708 58.5493 246.666 57.888C246.644 57.2053 246.591 56.544 246.506 55.904H249.322L249.674 59.936L249.194 59.968C249.407 58.9867 249.77 58.176 250.282 57.536C250.815 56.8747 251.444 56.3947 252.17 56.096C252.916 55.776 253.684 55.616 254.474 55.616C254.815 55.616 255.103 55.6267 255.338 55.648C255.572 55.6693 255.807 55.7227 256.042 55.808L255.978 58.4C255.658 58.272 255.359 58.1973 255.082 58.176C254.826 58.1333 254.506 58.112 254.122 58.112C253.183 58.112 252.372 58.3253 251.69 58.752C251.028 59.1787 250.516 59.744 250.154 60.448C249.812 61.152 249.642 61.9093 249.642 62.72V72H246.73ZM258.605 72V55.904H261.517V72H258.605ZM258.349 52.384V49.248H261.805V52.384H258.349ZM273.299 72.288C271.699 72.288 270.312 71.9573 269.139 71.296C267.965 70.6133 267.048 69.6427 266.387 68.384C265.747 67.104 265.427 65.5893 265.427 63.84C265.427 62.112 265.757 60.64 266.419 59.424C267.08 58.1867 267.997 57.248 269.171 56.608C270.344 55.9467 271.72 55.616 273.299 55.616C274.344 55.616 275.357 55.7973 276.339 56.16C277.32 56.5013 278.12 57.0027 278.739 57.664L277.747 59.712C277.128 59.1147 276.445 58.6773 275.699 58.4C274.952 58.1013 274.216 57.952 273.491 57.952C271.912 57.952 270.675 58.464 269.779 59.488C268.883 60.4907 268.435 61.952 268.435 63.872C268.435 65.8133 268.883 67.3067 269.779 68.352C270.675 69.3973 271.912 69.92 273.491 69.92C274.195 69.92 274.92 69.7813 275.667 69.504C276.413 69.2267 277.107 68.7893 277.747 68.192L278.739 70.208C278.099 70.8907 277.277 71.4133 276.275 71.776C275.293 72.1173 274.301 72.288 273.299 72.288ZM282.293 72V48.448H285.205V63.008H285.269L292.533 55.904H296.149L287.509 64.352L287.541 62.976L296.917 72H293.205L285.269 64.512H285.205V72H282.293ZM305.996 72.288C303.436 72.288 301.409 71.552 299.916 70.08C298.444 68.608 297.708 66.5813 297.708 64C297.708 62.2933 298.028 60.8213 298.668 59.584C299.329 58.3253 300.236 57.3547 301.388 56.672C302.54 55.968 303.884 55.616 305.42 55.616C306.892 55.616 308.14 55.936 309.164 56.576C310.188 57.1947 310.967 58.08 311.5 59.232C312.033 60.384 312.3 61.7493 312.3 63.328V64.288H299.98V62.56H310.316L309.772 62.976C309.772 61.312 309.399 60.0213 308.652 59.104C307.927 58.1867 306.849 57.728 305.42 57.728C303.863 57.728 302.657 58.272 301.804 59.36C300.951 60.4267 300.524 61.888 300.524 63.744V64.032C300.524 65.9947 301.004 67.4773 301.964 68.48C302.945 69.4827 304.3 69.984 306.028 69.984C306.988 69.984 307.884 69.8453 308.716 69.568C309.548 69.2907 310.348 68.832 311.116 68.192L312.076 70.208C311.351 70.8693 310.444 71.3813 309.356 71.744C308.289 72.1067 307.169 72.288 305.996 72.288ZM322.09 72.288C320.405 72.288 319.125 71.8293 318.25 70.912C317.397 69.9733 316.97 68.5653 316.97 66.688V58.144H313.834V55.904H316.97V51.584L319.882 50.784V55.904H324.426V58.144H319.882V66.432C319.882 67.6693 320.095 68.5547 320.522 69.088C320.97 69.6 321.61 69.856 322.442 69.856C322.869 69.856 323.231 69.824 323.53 69.76C323.85 69.6747 324.138 69.5787 324.394 69.472V71.872C324.074 72 323.701 72.096 323.274 72.16C322.869 72.2453 322.474 72.288 322.09 72.288ZM336.238 72V49.44H338.542L352.686 68.128H351.918V49.44H354.702V72H352.43L338.286 53.312H339.022V72H336.238ZM360.175 72V49.44H374.447V51.872H363.151V59.424H373.711V61.856H363.151V72H360.175ZM383.771 72V51.968H375.963V49.44H394.619V51.968H386.779V72H383.771ZM412.062 72.288C410.654 72.288 409.417 71.9573 408.35 71.296C407.283 70.6347 406.451 69.6747 405.854 68.416C405.257 67.1573 404.958 65.664 404.958 63.936C404.958 62.208 405.257 60.7253 405.854 59.488C406.451 58.2293 407.283 57.2693 408.35 56.608C409.417 55.9467 410.654 55.616 412.062 55.616C413.47 55.616 414.697 55.968 415.742 56.672C416.809 57.376 417.523 58.3467 417.886 59.584H417.502V48.448H420.414V72H417.534V68.256H417.886C417.545 69.5147 416.841 70.5067 415.774 71.232C414.729 71.936 413.491 72.288 412.062 72.288ZM412.734 69.984C414.185 69.984 415.347 69.472 416.222 68.448C417.118 67.424 417.566 65.92 417.566 63.936C417.566 61.952 417.118 60.4587 416.222 59.456C415.347 58.4533 414.185 57.952 412.734 57.952C411.283 57.952 410.11 58.4533 409.214 59.456C408.339 60.4587 407.902 61.952 407.902 63.936C407.902 65.92 408.339 67.424 409.214 68.448C410.11 69.472 411.283 69.984 412.734 69.984ZM425.261 72V59.84C425.261 59.2 425.24 58.5493 425.197 57.888C425.176 57.2053 425.122 56.544 425.037 55.904H427.853L428.205 59.936L427.725 59.968C427.938 58.9867 428.301 58.176 428.813 57.536C429.346 56.8747 429.976 56.3947 430.701 56.096C431.448 55.776 432.216 55.616 433.005 55.616C433.346 55.616 433.634 55.6267 433.869 55.648C434.104 55.6693 434.338 55.7227 434.573 55.808L434.509 58.4C434.189 58.272 433.89 58.1973 433.613 58.176C433.357 58.1333 433.037 58.112 432.653 58.112C431.714 58.112 430.904 58.3253 430.221 58.752C429.56 59.1787 429.048 59.744 428.685 60.448C428.344 61.152 428.173 61.9093 428.173 62.72V72H425.261ZM443.702 72.288C442.123 72.288 440.758 71.9573 439.606 71.296C438.454 70.6133 437.558 69.6533 436.918 68.416C436.278 67.1573 435.958 65.664 435.958 63.936C435.958 62.2293 436.278 60.7573 436.918 59.52C437.558 58.2613 438.454 57.3013 439.606 56.64C440.758 55.9573 442.123 55.616 443.702 55.616C445.281 55.616 446.646 55.9573 447.798 56.64C448.971 57.3013 449.867 58.2613 450.486 59.52C451.126 60.7573 451.446 62.2293 451.446 63.936C451.446 65.664 451.126 67.1573 450.486 68.416C449.867 69.6533 448.971 70.6133 447.798 71.296C446.646 71.9573 445.281 72.288 443.702 72.288ZM443.702 69.984C445.153 69.984 446.315 69.472 447.19 68.448C448.065 67.424 448.502 65.92 448.502 63.936C448.502 61.952 448.065 60.4587 447.19 59.456C446.315 58.4533 445.153 57.952 443.702 57.952C442.23 57.952 441.057 58.4533 440.182 59.456C439.329 60.4587 438.902 61.952 438.902 63.936C438.902 65.92 439.329 67.424 440.182 68.448C441.057 69.472 442.23 69.984 443.702 69.984ZM455.355 78.912V59.712C455.355 59.0933 455.334 58.464 455.291 57.824C455.249 57.184 455.185 56.544 455.099 55.904H457.915L458.267 59.616H457.915C458.235 58.3787 458.918 57.408 459.963 56.704C461.009 55.9787 462.257 55.616 463.707 55.616C465.137 55.616 466.385 55.9467 467.451 56.608C468.518 57.2693 469.339 58.2293 469.915 59.488C470.513 60.7253 470.811 62.208 470.811 63.936C470.811 65.664 470.513 67.1573 469.915 68.416C469.339 69.6747 468.518 70.6347 467.451 71.296C466.385 71.9573 465.137 72.288 463.707 72.288C462.278 72.288 461.041 71.936 459.995 71.232C458.971 70.5067 458.278 69.536 457.915 68.32H458.267V78.912H455.355ZM463.035 69.984C464.507 69.984 465.681 69.472 466.555 68.448C467.43 67.424 467.867 65.92 467.867 63.936C467.867 61.952 467.43 60.4587 466.555 59.456C465.681 58.4533 464.507 57.952 463.035 57.952C461.563 57.952 460.39 58.4533 459.515 59.456C458.662 60.4587 458.235 61.952 458.235 63.936C458.235 65.92 458.662 67.424 459.515 68.448C460.39 69.472 461.563 69.984 463.035 69.984ZM93.2158 109.152C92.1705 109.152 91.1998 108.907 90.3038 108.416C89.4078 107.904 88.6932 107.211 88.1598 106.336C87.6265 105.461 87.3598 104.491 87.3598 103.424C87.3598 102.443 87.6052 101.515 88.0958 100.64C88.6078 99.7653 89.3012 99.0613 90.1758 98.528C91.0718 97.9733 92.0852 97.696 93.2158 97.696C94.2612 97.696 95.2212 97.952 96.0958 98.464C96.9705 98.9547 97.6745 99.6267 98.2078 100.48C98.7625 101.333 99.0398 102.315 99.0398 103.424C99.0398 104.469 98.7732 105.429 98.2398 106.304C97.7278 107.179 97.0238 107.872 96.1278 108.384C95.2532 108.896 94.2825 109.152 93.2158 109.152ZM119.957 112V89.44H122.261L136.405 108.128H135.637V89.44H138.421V112H136.149L122.005 93.312H122.741V112H119.957ZM143.894 112V89.44H158.166V91.872H146.87V99.424H157.43V101.856H146.87V112H143.894ZM167.49 112V91.968H159.682V89.44H178.338V91.968H170.498V112H167.49ZM189.957 112V89.44H192.581L201.477 109.472H200.517L209.413 89.44H212.005V112H209.285V93.408H210.277L201.925 112H200.037L191.685 93.408H192.677V112H189.957ZM223.343 112.288C221.935 112.288 220.698 111.957 219.631 111.296C218.564 110.635 217.732 109.675 217.135 108.416C216.538 107.157 216.239 105.664 216.239 103.936C216.239 102.208 216.538 100.725 217.135 99.488C217.732 98.2293 218.564 97.2693 219.631 96.608C220.698 95.9467 221.935 95.616 223.343 95.616C224.772 95.616 226.01 95.9787 227.055 96.704C228.122 97.408 228.826 98.3787 229.167 99.616H228.783L229.135 95.904H231.951C231.887 96.544 231.823 97.184 231.759 97.824C231.716 98.464 231.695 99.0933 231.695 99.712V112H228.783V108.32H229.135C228.794 109.536 228.09 110.507 227.023 111.232C225.978 111.936 224.751 112.288 223.343 112.288ZM224.015 109.984C225.466 109.984 226.628 109.472 227.503 108.448C228.378 107.424 228.815 105.92 228.815 103.936C228.815 101.952 228.378 100.459 227.503 99.456C226.628 98.4533 225.466 97.952 224.015 97.952C222.564 97.952 221.391 98.4533 220.495 99.456C219.62 100.459 219.183 101.952 219.183 103.936C219.183 105.92 219.62 107.424 220.495 108.448C221.37 109.472 222.543 109.984 224.015 109.984ZM236.574 112V95.904H239.486V112H236.574ZM236.318 92.384V89.248H239.774V92.384H236.318ZM244.355 112V99.712C244.355 99.0933 244.334 98.464 244.291 97.824C244.249 97.184 244.185 96.544 244.099 95.904H246.915L247.235 99.36H246.851C247.342 98.144 248.099 97.216 249.123 96.576C250.147 95.936 251.342 95.616 252.707 95.616C254.606 95.616 256.035 96.1387 256.995 97.184C257.955 98.208 258.435 99.808 258.435 101.984V112H255.523V102.144C255.523 100.672 255.235 99.616 254.659 98.976C254.083 98.3147 253.187 97.984 251.971 97.984C250.521 97.984 249.369 98.4213 248.515 99.296C247.683 100.171 247.267 101.355 247.267 102.848V112H244.355ZM263.199 112V99.712C263.199 99.0933 263.178 98.464 263.135 97.824C263.092 97.184 263.028 96.544 262.943 95.904H265.759L266.079 99.36H265.695C266.186 98.144 266.943 97.216 267.967 96.576C268.991 95.936 270.186 95.616 271.551 95.616C273.45 95.616 274.879 96.1387 275.839 97.184C276.799 98.208 277.279 99.808 277.279 101.984V112H274.367V102.144C274.367 100.672 274.079 99.616 273.503 98.976C272.927 98.3147 272.031 97.984 270.815 97.984C269.364 97.984 268.212 98.4213 267.359 99.296C266.527 100.171 266.111 101.355 266.111 102.848V112H263.199ZM289.371 112.288C286.811 112.288 284.784 111.552 283.291 110.08C281.819 108.608 281.083 106.581 281.083 104C281.083 102.293 281.403 100.821 282.043 99.584C282.704 98.3253 283.611 97.3547 284.763 96.672C285.915 95.968 287.259 95.616 288.795 95.616C290.267 95.616 291.515 95.936 292.539 96.576C293.563 97.1947 294.342 98.08 294.875 99.232C295.408 100.384 295.675 101.749 295.675 103.328V104.288H283.355V102.56H293.691L293.147 102.976C293.147 101.312 292.774 100.021 292.027 99.104C291.302 98.1867 290.224 97.728 288.795 97.728C287.238 97.728 286.032 98.272 285.179 99.36C284.326 100.427 283.899 101.888 283.899 103.744V104.032C283.899 105.995 284.379 107.477 285.339 108.48C286.32 109.483 287.675 109.984 289.403 109.984C290.363 109.984 291.259 109.845 292.091 109.568C292.923 109.291 293.723 108.832 294.491 108.192L295.451 110.208C294.726 110.869 293.819 111.381 292.731 111.744C291.664 112.107 290.544 112.288 289.371 112.288ZM305.465 112.288C303.78 112.288 302.5 111.829 301.625 110.912C300.772 109.973 300.345 108.565 300.345 106.688V98.144H297.209V95.904H300.345V91.584L303.257 90.784V95.904H307.801V98.144H303.257V106.432C303.257 107.669 303.47 108.555 303.897 109.088C304.345 109.6 304.985 109.856 305.817 109.856C306.244 109.856 306.606 109.824 306.905 109.76C307.225 109.675 307.513 109.579 307.769 109.472V111.872C307.449 112 307.076 112.096 306.649 112.16C306.244 112.245 305.849 112.288 305.465 112.288ZM325.437 112.288C324.029 112.288 322.792 111.957 321.725 111.296C320.658 110.635 319.826 109.675 319.229 108.416C318.632 107.157 318.333 105.664 318.333 103.936C318.333 102.208 318.632 100.725 319.229 99.488C319.826 98.2293 320.658 97.2693 321.725 96.608C322.792 95.9467 324.029 95.616 325.437 95.616C326.866 95.616 328.104 95.9787 329.149 96.704C330.216 97.408 330.92 98.3787 331.261 99.616H330.877L331.229 95.904H334.045C333.981 96.544 333.917 97.184 333.853 97.824C333.81 98.464 333.789 99.0933 333.789 99.712V112H330.877V108.32H331.229C330.888 109.536 330.184 110.507 329.117 111.232C328.072 111.936 326.845 112.288 325.437 112.288ZM326.109 109.984C327.56 109.984 328.722 109.472 329.597 108.448C330.472 107.424 330.909 105.92 330.909 103.936C330.909 101.952 330.472 100.459 329.597 99.456C328.722 98.4533 327.56 97.952 326.109 97.952C324.658 97.952 323.485 98.4533 322.589 99.456C321.714 100.459 321.277 101.952 321.277 103.936C321.277 105.92 321.714 107.424 322.589 108.448C323.464 109.472 324.637 109.984 326.109 109.984ZM338.668 112V99.712C338.668 99.0933 338.647 98.464 338.604 97.824C338.561 97.184 338.497 96.544 338.412 95.904H341.228L341.548 99.36H341.164C341.655 98.144 342.412 97.216 343.436 96.576C344.46 95.936 345.655 95.616 347.02 95.616C348.919 95.616 350.348 96.1387 351.308 97.184C352.268 98.208 352.748 99.808 352.748 101.984V112H349.836V102.144C349.836 100.672 349.548 99.616 348.972 98.976C348.396 98.3147 347.5 97.984 346.284 97.984C344.833 97.984 343.681 98.4213 342.828 99.296C341.996 100.171 341.58 101.355 341.58 102.848V112H338.668ZM363.656 112.288C362.248 112.288 361.01 111.957 359.944 111.296C358.877 110.635 358.045 109.675 357.448 108.416C356.85 107.157 356.552 105.664 356.552 103.936C356.552 102.208 356.85 100.725 357.448 99.488C358.045 98.2293 358.877 97.2693 359.944 96.608C361.01 95.9467 362.248 95.616 363.656 95.616C365.085 95.616 366.322 95.9787 367.368 96.704C368.434 97.408 369.138 98.3787 369.48 99.616H369.096L369.448 95.904H372.264C372.2 96.544 372.136 97.184 372.072 97.824C372.029 98.464 372.008 99.0933 372.008 99.712V112H369.096V108.32H369.448C369.106 109.536 368.402 110.507 367.336 111.232C366.29 111.936 365.064 112.288 363.656 112.288ZM364.328 109.984C365.778 109.984 366.941 109.472 367.816 108.448C368.69 107.424 369.128 105.92 369.128 103.936C369.128 101.952 368.69 100.459 367.816 99.456C366.941 98.4533 365.778 97.952 364.328 97.952C362.877 97.952 361.704 98.4533 360.808 99.456C359.933 100.459 359.496 101.952 359.496 103.936C359.496 105.92 359.933 107.424 360.808 108.448C361.682 109.472 362.856 109.984 364.328 109.984ZM376.887 112V88.448H379.799V112H376.887ZM384.124 119.264L383.452 116.896C384.455 116.661 385.287 116.384 385.948 116.064C386.609 115.765 387.164 115.371 387.612 114.88C388.06 114.389 388.455 113.771 388.796 113.024L389.596 111.104L389.532 112.32L382.524 95.904H385.66L391.26 109.696H390.428L396.028 95.904H399.036L391.644 113.248C391.196 114.293 390.705 115.168 390.172 115.872C389.66 116.576 389.095 117.152 388.476 117.6C387.879 118.048 387.217 118.4 386.492 118.656C385.767 118.912 384.977 119.115 384.124 119.264ZM408.09 112.288C406.405 112.288 405.125 111.829 404.25 110.912C403.397 109.973 402.97 108.565 402.97 106.688V98.144H399.834V95.904H402.97V91.584L405.882 90.784V95.904H410.426V98.144H405.882V106.432C405.882 107.669 406.095 108.555 406.522 109.088C406.97 109.6 407.61 109.856 408.442 109.856C408.869 109.856 409.231 109.824 409.53 109.76C409.85 109.675 410.138 109.579 410.394 109.472V111.872C410.074 112 409.701 112.096 409.274 112.16C408.869 112.245 408.474 112.288 408.09 112.288ZM413.48 112V95.904H416.392V112H413.48ZM413.224 92.384V89.248H416.68V92.384H413.224ZM428.174 112.288C426.574 112.288 425.187 111.957 424.014 111.296C422.84 110.613 421.923 109.643 421.262 108.384C420.622 107.104 420.302 105.589 420.302 103.84C420.302 102.112 420.632 100.64 421.294 99.424C421.955 98.1867 422.872 97.248 424.046 96.608C425.219 95.9467 426.595 95.616 428.174 95.616C429.219 95.616 430.232 95.7973 431.214 96.16C432.195 96.5013 432.995 97.0027 433.614 97.664L432.622 99.712C432.003 99.1147 431.32 98.6773 430.574 98.4C429.827 98.1013 429.091 97.952 428.366 97.952C426.787 97.952 425.55 98.464 424.654 99.488C423.758 100.491 423.31 101.952 423.31 103.872C423.31 105.813 423.758 107.307 424.654 108.352C425.55 109.397 426.787 109.92 428.366 109.92C429.07 109.92 429.795 109.781 430.542 109.504C431.288 109.227 431.982 108.789 432.622 108.192L433.614 110.208C432.974 110.891 432.152 111.413 431.15 111.776C430.168 112.117 429.176 112.288 428.174 112.288ZM442.608 112.288C441.307 112.288 440.091 112.117 438.96 111.776C437.851 111.435 436.933 110.944 436.208 110.304L437.136 108.288C437.925 108.885 438.789 109.344 439.728 109.664C440.688 109.963 441.669 110.112 442.672 110.112C443.888 110.112 444.805 109.888 445.424 109.44C446.064 108.992 446.384 108.395 446.384 107.648C446.384 107.051 446.181 106.571 445.776 106.208C445.371 105.845 444.731 105.579 443.856 105.408L440.816 104.8C439.451 104.48 438.416 103.968 437.712 103.264C437.029 102.539 436.688 101.611 436.688 100.48C436.688 99.5413 436.944 98.7093 437.456 97.984C437.968 97.2373 438.693 96.6613 439.632 96.256C440.592 95.8293 441.712 95.616 442.992 95.616C444.165 95.616 445.253 95.7867 446.256 96.128C447.28 96.4693 448.123 96.9707 448.784 97.632L447.824 99.584C447.163 99.008 446.416 98.5707 445.584 98.272C444.773 97.952 443.941 97.792 443.088 97.792C441.851 97.792 440.933 98.0373 440.336 98.528C439.739 98.9973 439.44 99.616 439.44 100.384C439.44 100.96 439.621 101.44 439.984 101.824C440.347 102.187 440.933 102.464 441.744 102.656L444.784 103.264C446.213 103.563 447.291 104.053 448.016 104.736C448.741 105.419 449.104 106.325 449.104 107.456C449.104 108.459 448.827 109.323 448.272 110.048C447.739 110.773 446.981 111.328 446 111.712C445.04 112.096 443.909 112.288 442.608 112.288ZM93.2158 149.152C92.1705 149.152 91.1998 148.907 90.3038 148.416C89.4078 147.904 88.6932 147.211 88.1598 146.336C87.6265 145.461 87.3598 144.491 87.3598 143.424C87.3598 142.443 87.6052 141.515 88.0958 140.64C88.6078 139.765 89.3012 139.061 90.1758 138.528C91.0718 137.973 92.0852 137.696 93.2158 137.696C94.2612 137.696 95.2212 137.952 96.0958 138.464C96.9705 138.955 97.6745 139.627 98.2078 140.48C98.7625 141.333 99.0398 142.315 99.0398 143.424C99.0398 144.469 98.7732 145.429 98.2398 146.304C97.7278 147.179 97.0238 147.872 96.1278 148.384C95.2532 148.896 94.2825 149.152 93.2158 149.152ZM119.957 152V129.44H122.261L136.405 148.128H135.637V129.44H138.421V152H136.149L122.005 133.312H122.741V152H119.957ZM143.894 152V129.44H158.166V131.872H146.87V139.424H157.43V141.856H146.87V152H143.894ZM167.49 152V131.968H159.682V129.44H178.338V131.968H170.498V152H167.49ZM189.957 152V129.44H192.261L206.405 148.128H205.637V129.44H208.421V152H206.149L192.005 133.312H192.741V152H189.957ZM219.718 152.288C218.31 152.288 217.073 151.957 216.006 151.296C214.939 150.635 214.107 149.675 213.51 148.416C212.913 147.157 212.614 145.664 212.614 143.936C212.614 142.208 212.913 140.725 213.51 139.488C214.107 138.229 214.939 137.269 216.006 136.608C217.073 135.947 218.31 135.616 219.718 135.616C221.147 135.616 222.385 135.979 223.43 136.704C224.497 137.408 225.201 138.379 225.542 139.616H225.158L225.51 135.904H228.326C228.262 136.544 228.198 137.184 228.134 137.824C228.091 138.464 228.07 139.093 228.07 139.712V152H225.158V148.32H225.51C225.169 149.536 224.465 150.507 223.398 151.232C222.353 151.936 221.126 152.288 219.718 152.288ZM220.39 149.984C221.841 149.984 223.003 149.472 223.878 148.448C224.753 147.424 225.19 145.92 225.19 143.936C225.19 141.952 224.753 140.459 223.878 139.456C223.003 138.453 221.841 137.952 220.39 137.952C218.939 137.952 217.766 138.453 216.87 139.456C215.995 140.459 215.558 141.952 215.558 143.936C215.558 145.92 215.995 147.424 216.87 148.448C217.745 149.472 218.918 149.984 220.39 149.984ZM238.965 152.288C237.28 152.288 236 151.829 235.125 150.912C234.272 149.973 233.845 148.565 233.845 146.688V138.144H230.709V135.904H233.845V131.584L236.757 130.784V135.904H241.301V138.144H236.757V146.432C236.757 147.669 236.97 148.555 237.397 149.088C237.845 149.6 238.485 149.856 239.317 149.856C239.744 149.856 240.106 149.824 240.405 149.76C240.725 149.675 241.013 149.579 241.269 149.472V151.872C240.949 152 240.576 152.096 240.149 152.16C239.744 152.245 239.349 152.288 238.965 152.288ZM244.355 152V135.904H247.267V152H244.355ZM244.099 132.384V129.248H247.555V132.384H244.099ZM256.873 152L249.993 135.904H253.129L258.729 149.728H257.833L263.529 135.904H266.505L259.593 152H256.873ZM276.308 152.288C273.748 152.288 271.722 151.552 270.228 150.08C268.756 148.608 268.02 146.581 268.02 144C268.02 142.293 268.34 140.821 268.98 139.584C269.642 138.325 270.548 137.355 271.7 136.672C272.852 135.968 274.196 135.616 275.732 135.616C277.204 135.616 278.452 135.936 279.476 136.576C280.5 137.195 281.279 138.08 281.812 139.232C282.346 140.384 282.612 141.749 282.612 143.328V144.288H270.292V142.56H280.628L280.084 142.976C280.084 141.312 279.711 140.021 278.964 139.104C278.239 138.187 277.162 137.728 275.732 137.728C274.175 137.728 272.97 138.272 272.116 139.36C271.263 140.427 270.836 141.888 270.836 143.744V144.032C270.836 145.995 271.316 147.477 272.276 148.48C273.258 149.483 274.612 149.984 276.34 149.984C277.3 149.984 278.196 149.845 279.028 149.568C279.86 149.291 280.66 148.832 281.428 148.192L282.388 150.208C281.663 150.869 280.756 151.381 279.668 151.744C278.602 152.107 277.482 152.288 276.308 152.288ZM302.631 152.288C300.818 152.288 299.186 152.053 297.735 151.584C296.285 151.115 295.026 150.453 293.959 149.6L294.983 147.232C295.73 147.787 296.487 148.256 297.255 148.64C298.023 149.003 298.845 149.28 299.719 149.472C300.615 149.643 301.586 149.728 302.631 149.728C304.487 149.728 305.853 149.397 306.727 148.736C307.623 148.053 308.071 147.157 308.071 146.048C308.071 145.088 307.762 144.352 307.143 143.84C306.525 143.328 305.447 142.923 303.911 142.624L300.487 141.92C298.418 141.493 296.871 140.8 295.847 139.84C294.845 138.859 294.343 137.536 294.343 135.872C294.343 134.528 294.695 133.355 295.399 132.352C296.125 131.328 297.117 130.539 298.375 129.984C299.655 129.429 301.149 129.152 302.855 129.152C304.434 129.152 305.895 129.387 307.239 129.856C308.583 130.325 309.714 131.019 310.631 131.936L309.607 134.208C308.647 133.333 307.613 132.704 306.503 132.32C305.415 131.915 304.178 131.712 302.791 131.712C301.106 131.712 299.773 132.075 298.791 132.8C297.81 133.525 297.319 134.507 297.319 135.744C297.319 136.725 297.629 137.504 298.247 138.08C298.866 138.635 299.89 139.061 301.319 139.36L304.743 140.032C306.919 140.459 308.509 141.131 309.511 142.048C310.535 142.965 311.047 144.235 311.047 145.856C311.047 147.136 310.706 148.267 310.023 149.248C309.341 150.208 308.37 150.955 307.111 151.488C305.853 152.021 304.359 152.288 302.631 152.288ZM314.949 158.912V139.712C314.949 139.093 314.928 138.464 314.885 137.824C314.842 137.184 314.778 136.544 314.693 135.904H317.509L317.861 139.616H317.509C317.829 138.379 318.512 137.408 319.557 136.704C320.602 135.979 321.85 135.616 323.301 135.616C324.73 135.616 325.978 135.947 327.045 136.608C328.112 137.269 328.933 138.229 329.509 139.488C330.106 140.725 330.405 142.208 330.405 143.936C330.405 145.664 330.106 147.157 329.509 148.416C328.933 149.675 328.112 150.635 327.045 151.296C325.978 151.957 324.73 152.288 323.301 152.288C321.872 152.288 320.634 151.936 319.589 151.232C318.565 150.507 317.872 149.536 317.509 148.32H317.861V158.912H314.949ZM322.629 149.984C324.101 149.984 325.274 149.472 326.149 148.448C327.024 147.424 327.461 145.92 327.461 143.936C327.461 141.952 327.024 140.459 326.149 139.456C325.274 138.453 324.101 137.952 322.629 137.952C321.157 137.952 319.984 138.453 319.109 139.456C318.256 140.459 317.829 141.952 317.829 143.936C317.829 145.92 318.256 147.424 319.109 148.448C319.984 149.472 321.157 149.984 322.629 149.984ZM341.108 152.288C339.529 152.288 338.164 151.957 337.012 151.296C335.86 150.613 334.964 149.653 334.324 148.416C333.684 147.157 333.364 145.664 333.364 143.936C333.364 142.229 333.684 140.757 334.324 139.52C334.964 138.261 335.86 137.301 337.012 136.64C338.164 135.957 339.529 135.616 341.108 135.616C342.687 135.616 344.052 135.957 345.204 136.64C346.377 137.301 347.273 138.261 347.892 139.52C348.532 140.757 348.852 142.229 348.852 143.936C348.852 145.664 348.532 147.157 347.892 148.416C347.273 149.653 346.377 150.613 345.204 151.296C344.052 151.957 342.687 152.288 341.108 152.288ZM341.108 149.984C342.559 149.984 343.721 149.472 344.596 148.448C345.471 147.424 345.908 145.92 345.908 143.936C345.908 141.952 345.471 140.459 344.596 139.456C343.721 138.453 342.559 137.952 341.108 137.952C339.636 137.952 338.463 138.453 337.588 139.456C336.735 140.459 336.308 141.952 336.308 143.936C336.308 145.92 336.735 147.424 337.588 148.448C338.463 149.472 339.636 149.984 341.108 149.984ZM352.73 152V139.84C352.73 139.2 352.708 138.549 352.666 137.888C352.644 137.205 352.591 136.544 352.506 135.904H355.322L355.674 139.936L355.194 139.968C355.407 138.987 355.77 138.176 356.282 137.536C356.815 136.875 357.444 136.395 358.17 136.096C358.916 135.776 359.684 135.616 360.474 135.616C360.815 135.616 361.103 135.627 361.338 135.648C361.572 135.669 361.807 135.723 362.042 135.808L361.978 138.4C361.658 138.272 361.359 138.197 361.082 138.176C360.826 138.133 360.506 138.112 360.122 138.112C359.183 138.112 358.372 138.325 357.69 138.752C357.028 139.179 356.516 139.744 356.154 140.448C355.812 141.152 355.642 141.909 355.642 142.72V152H352.73ZM371.496 152.288C369.811 152.288 368.531 151.829 367.656 150.912C366.803 149.973 366.376 148.565 366.376 146.688V138.144H363.24V135.904H366.376V131.584L369.288 130.784V135.904H373.832V138.144H369.288V146.432C369.288 147.669 369.502 148.555 369.928 149.088C370.376 149.6 371.016 149.856 371.848 149.856C372.275 149.856 372.638 149.824 372.936 149.76C373.256 149.675 373.544 149.579 373.8 149.472V151.872C373.48 152 373.107 152.096 372.68 152.16C372.275 152.245 371.88 152.288 371.496 152.288ZM382.327 152.288C381.025 152.288 379.809 152.117 378.679 151.776C377.569 151.435 376.652 150.944 375.927 150.304L376.855 148.288C377.644 148.885 378.508 149.344 379.447 149.664C380.407 149.963 381.388 150.112 382.391 150.112C383.607 150.112 384.524 149.888 385.143 149.44C385.783 148.992 386.103 148.395 386.103 147.648C386.103 147.051 385.9 146.571 385.495 146.208C385.089 145.845 384.449 145.579 383.575 145.408L380.535 144.8C379.169 144.48 378.135 143.968 377.431 143.264C376.748 142.539 376.407 141.611 376.407 140.48C376.407 139.541 376.663 138.709 377.175 137.984C377.687 137.237 378.412 136.661 379.351 136.256C380.311 135.829 381.431 135.616 382.711 135.616C383.884 135.616 384.972 135.787 385.975 136.128C386.999 136.469 387.841 136.971 388.503 137.632L387.543 139.584C386.881 139.008 386.135 138.571 385.303 138.272C384.492 137.952 383.66 137.792 382.807 137.792C381.569 137.792 380.652 138.037 380.055 138.528C379.457 138.997 379.159 139.616 379.159 140.384C379.159 140.96 379.34 141.44 379.703 141.824C380.065 142.187 380.652 142.464 381.463 142.656L384.503 143.264C385.932 143.563 387.009 144.053 387.735 144.736C388.46 145.419 388.823 146.325 388.823 147.456C388.823 148.459 388.545 149.323 387.991 150.048C387.457 150.773 386.7 151.328 385.719 151.712C384.759 152.096 383.628 152.288 382.327 152.288ZM407.374 152.288C405.966 152.288 404.729 151.957 403.662 151.296C402.596 150.635 401.764 149.675 401.166 148.416C400.569 147.157 400.27 145.664 400.27 143.936C400.27 142.208 400.569 140.725 401.166 139.488C401.764 138.229 402.596 137.269 403.662 136.608C404.729 135.947 405.966 135.616 407.374 135.616C408.804 135.616 410.041 135.979 411.086 136.704C412.153 137.408 412.857 138.379 413.198 139.616H412.814L413.166 135.904H415.982C415.918 136.544 415.854 137.184 415.79 137.824C415.748 138.464 415.726 139.093 415.726 139.712V152H412.814V148.32H413.166C412.825 149.536 412.121 150.507 411.054 151.232C410.009 151.936 408.782 152.288 407.374 152.288ZM408.046 149.984C409.497 149.984 410.66 149.472 411.534 148.448C412.409 147.424 412.846 145.92 412.846 143.936C412.846 141.952 412.409 140.459 411.534 139.456C410.66 138.453 409.497 137.952 408.046 137.952C406.596 137.952 405.422 138.453 404.526 139.456C403.652 140.459 403.214 141.952 403.214 143.936C403.214 145.92 403.652 147.424 404.526 148.448C405.401 149.472 406.574 149.984 408.046 149.984ZM420.605 152V139.712C420.605 139.093 420.584 138.464 420.541 137.824C420.499 137.184 420.435 136.544 420.349 135.904H423.165L423.485 139.36H423.101C423.592 138.144 424.349 137.216 425.373 136.576C426.397 135.936 427.592 135.616 428.957 135.616C430.856 135.616 432.285 136.139 433.245 137.184C434.205 138.208 434.685 139.808 434.685 141.984V152H431.773V142.144C431.773 140.672 431.485 139.616 430.909 138.976C430.333 138.315 429.437 137.984 428.221 137.984C426.771 137.984 425.619 138.421 424.765 139.296C423.933 140.171 423.517 141.355 423.517 142.848V152H420.605ZM445.593 152.288C444.185 152.288 442.948 151.957 441.881 151.296C440.814 150.635 439.982 149.675 439.385 148.416C438.788 147.157 438.489 145.664 438.489 143.936C438.489 142.208 438.788 140.725 439.385 139.488C439.982 138.229 440.814 137.269 441.881 136.608C442.948 135.947 444.185 135.616 445.593 135.616C447.022 135.616 448.26 135.979 449.305 136.704C450.372 137.408 451.076 138.379 451.417 139.616H451.033L451.385 135.904H454.201C454.137 136.544 454.073 137.184 454.009 137.824C453.966 138.464 453.945 139.093 453.945 139.712V152H451.033V148.32H451.385C451.044 149.536 450.34 150.507 449.273 151.232C448.228 151.936 447.001 152.288 445.593 152.288ZM446.265 149.984C447.716 149.984 448.878 149.472 449.753 148.448C450.628 147.424 451.065 145.92 451.065 143.936C451.065 141.952 450.628 140.459 449.753 139.456C448.878 138.453 447.716 137.952 446.265 137.952C444.814 137.952 443.641 138.453 442.745 139.456C441.87 140.459 441.433 141.952 441.433 143.936C441.433 145.92 441.87 147.424 442.745 148.448C443.62 149.472 444.793 149.984 446.265 149.984ZM458.824 152V128.448H461.736V152H458.824ZM466.061 159.264L465.389 156.896C466.392 156.661 467.224 156.384 467.885 156.064C468.547 155.765 469.101 155.371 469.549 154.88C469.997 154.389 470.392 153.771 470.733 153.024L471.533 151.104L471.469 152.32L464.461 135.904H467.597L473.197 149.696H472.365L477.965 135.904H480.973L473.581 153.248C473.133 154.293 472.643 155.168 472.109 155.872C471.597 156.576 471.032 157.152 470.413 157.6C469.816 158.048 469.155 158.4 468.429 158.656C467.704 158.912 466.915 159.115 466.061 159.264ZM490.028 152.288C488.342 152.288 487.062 151.829 486.188 150.912C485.334 149.973 484.908 148.565 484.908 146.688V138.144H481.772V135.904H484.908V131.584L487.82 130.784V135.904H492.364V138.144H487.82V146.432C487.82 147.669 488.033 148.555 488.46 149.088C488.908 149.6 489.548 149.856 490.38 149.856C490.806 149.856 491.169 149.824 491.468 149.76C491.788 149.675 492.076 149.579 492.332 149.472V151.872C492.012 152 491.638 152.096 491.212 152.16C490.806 152.245 490.412 152.288 490.028 152.288ZM495.418 152V135.904H498.33V152H495.418ZM495.162 132.384V129.248H498.618V132.384H495.162ZM510.111 152.288C508.511 152.288 507.124 151.957 505.951 151.296C504.778 150.613 503.86 149.643 503.199 148.384C502.559 147.104 502.239 145.589 502.239 143.84C502.239 142.112 502.57 140.64 503.231 139.424C503.892 138.187 504.81 137.248 505.983 136.608C507.156 135.947 508.532 135.616 510.111 135.616C511.156 135.616 512.17 135.797 513.151 136.16C514.132 136.501 514.932 137.003 515.551 137.664L514.559 139.712C513.94 139.115 513.258 138.677 512.511 138.4C511.764 138.101 511.028 137.952 510.303 137.952C508.724 137.952 507.487 138.464 506.591 139.488C505.695 140.491 505.247 141.952 505.247 143.872C505.247 145.813 505.695 147.307 506.591 148.352C507.487 149.397 508.724 149.92 510.303 149.92C511.007 149.92 511.732 149.781 512.479 149.504C513.226 149.227 513.919 148.789 514.559 148.192L515.551 150.208C514.911 150.891 514.09 151.413 513.087 151.776C512.106 152.117 511.114 152.288 510.111 152.288ZM524.545 152.288C523.244 152.288 522.028 152.117 520.897 151.776C519.788 151.435 518.871 150.944 518.145 150.304L519.073 148.288C519.863 148.885 520.727 149.344 521.665 149.664C522.625 149.963 523.607 150.112 524.609 150.112C525.825 150.112 526.743 149.888 527.361 149.44C528.001 148.992 528.321 148.395 528.321 147.648C528.321 147.051 528.119 146.571 527.713 146.208C527.308 145.845 526.668 145.579 525.793 145.408L522.753 144.8C521.388 144.48 520.353 143.968 519.649 143.264C518.967 142.539 518.625 141.611 518.625 140.48C518.625 139.541 518.881 138.709 519.393 137.984C519.905 137.237 520.631 136.661 521.569 136.256C522.529 135.829 523.649 135.616 524.929 135.616C526.103 135.616 527.191 135.787 528.193 136.128C529.217 136.469 530.06 136.971 530.721 137.632L529.761 139.584C529.1 139.008 528.353 138.571 527.521 138.272C526.711 137.952 525.879 137.792 525.025 137.792C523.788 137.792 522.871 138.037 522.273 138.528C521.676 138.997 521.377 139.616 521.377 140.384C521.377 140.96 521.559 141.44 521.921 141.824C522.284 142.187 522.871 142.464 523.681 142.656L526.721 143.264C528.151 143.563 529.228 144.053 529.953 144.736C530.679 145.419 531.041 146.325 531.041 147.456C531.041 148.459 530.764 149.323 530.209 150.048C529.676 150.773 528.919 151.328 527.937 151.712C526.977 152.096 525.847 152.288 524.545 152.288ZM93.2158 189.152C92.1705 189.152 91.1998 188.907 90.3038 188.416C89.4078 187.904 88.6932 187.211 88.1598 186.336C87.6265 185.461 87.3598 184.491 87.3598 183.424C87.3598 182.443 87.6052 181.515 88.0958 180.64C88.6078 179.765 89.3012 179.061 90.1758 178.528C91.0718 177.973 92.0852 177.696 93.2158 177.696C94.2612 177.696 95.2212 177.952 96.0958 178.464C96.9705 178.955 97.6745 179.627 98.2078 180.48C98.7625 181.333 99.0398 182.315 99.0398 183.424C99.0398 184.469 98.7732 185.429 98.2398 186.304C97.7278 187.179 97.0238 187.872 96.1278 188.384C95.2532 188.896 94.2825 189.152 93.2158 189.152ZM126.133 192L118.229 169.44H121.365L128.053 189.344H126.901L134.005 169.44H136.341L142.997 189.344H141.973L148.885 169.44H151.829L143.861 192H141.269L134.773 172.96H135.445L128.693 192H126.133ZM155.293 192V168.448H158.205V179.392H157.789C158.258 178.155 159.016 177.216 160.061 176.576C161.106 175.936 162.312 175.616 163.677 175.616C165.618 175.616 167.048 176.139 167.965 177.184C168.904 178.229 169.373 179.808 169.373 181.92V192H166.461V182.08C166.461 180.651 166.184 179.616 165.629 178.976C165.074 178.315 164.168 177.984 162.909 177.984C161.501 177.984 160.36 178.421 159.485 179.296C158.632 180.171 158.205 181.333 158.205 182.784V192H155.293ZM174.137 192V175.904H177.049V192H174.137ZM173.881 172.384V169.248H177.337V172.384H173.881ZM187.934 192.288C186.249 192.288 184.969 191.829 184.094 190.912C183.241 189.973 182.814 188.565 182.814 186.688V178.144H179.678V175.904H182.814V171.584L185.726 170.784V175.904H190.27V178.144H185.726V186.432C185.726 187.669 185.939 188.555 186.366 189.088C186.814 189.6 187.454 189.856 188.286 189.856C188.713 189.856 189.075 189.824 189.374 189.76C189.694 189.675 189.982 189.579 190.238 189.472V191.872C189.918 192 189.545 192.096 189.118 192.16C188.713 192.245 188.318 192.288 187.934 192.288ZM200.496 192.288C197.936 192.288 195.909 191.552 194.416 190.08C192.944 188.608 192.208 186.581 192.208 184C192.208 182.293 192.528 180.821 193.168 179.584C193.829 178.325 194.736 177.355 195.888 176.672C197.04 175.968 198.384 175.616 199.92 175.616C201.392 175.616 202.64 175.936 203.664 176.576C204.688 177.195 205.467 178.08 206 179.232C206.533 180.384 206.8 181.749 206.8 183.328V184.288H194.48V182.56H204.816L204.272 182.976C204.272 181.312 203.899 180.021 203.152 179.104C202.427 178.187 201.349 177.728 199.92 177.728C198.363 177.728 197.157 178.272 196.304 179.36C195.451 180.427 195.024 181.888 195.024 183.744V184.032C195.024 185.995 195.504 187.477 196.464 188.48C197.445 189.483 198.8 189.984 200.528 189.984C201.488 189.984 202.384 189.845 203.216 189.568C204.048 189.291 204.848 188.832 205.616 188.192L206.576 190.208C205.851 190.869 204.944 191.381 203.856 191.744C202.789 192.107 201.669 192.288 200.496 192.288ZM210.605 198.912V179.712C210.605 179.093 210.584 178.464 210.541 177.824C210.499 177.184 210.435 176.544 210.349 175.904H213.165L213.517 179.616H213.165C213.485 178.379 214.168 177.408 215.213 176.704C216.259 175.979 217.507 175.616 218.957 175.616C220.387 175.616 221.635 175.947 222.701 176.608C223.768 177.269 224.589 178.229 225.165 179.488C225.763 180.725 226.061 182.208 226.061 183.936C226.061 185.664 225.763 187.157 225.165 188.416C224.589 189.675 223.768 190.635 222.701 191.296C221.635 191.957 220.387 192.288 218.957 192.288C217.528 192.288 216.291 191.936 215.245 191.232C214.221 190.507 213.528 189.536 213.165 188.32H213.517V198.912H210.605ZM218.285 189.984C219.757 189.984 220.931 189.472 221.805 188.448C222.68 187.424 223.117 185.92 223.117 183.936C223.117 181.952 222.68 180.459 221.805 179.456C220.931 178.453 219.757 177.952 218.285 177.952C216.813 177.952 215.64 178.453 214.765 179.456C213.912 180.459 213.485 181.952 213.485 183.936C213.485 185.92 213.912 187.424 214.765 188.448C215.64 189.472 216.813 189.984 218.285 189.984ZM236.124 192.288C234.716 192.288 233.479 191.957 232.412 191.296C231.346 190.635 230.514 189.675 229.916 188.416C229.319 187.157 229.02 185.664 229.02 183.936C229.02 182.208 229.319 180.725 229.916 179.488C230.514 178.229 231.346 177.269 232.412 176.608C233.479 175.947 234.716 175.616 236.124 175.616C237.554 175.616 238.791 175.979 239.836 176.704C240.903 177.408 241.607 178.379 241.948 179.616H241.564L241.916 175.904H244.732C244.668 176.544 244.604 177.184 244.54 177.824C244.498 178.464 244.476 179.093 244.476 179.712V192H241.564V188.32H241.916C241.575 189.536 240.871 190.507 239.804 191.232C238.759 191.936 237.532 192.288 236.124 192.288ZM236.796 189.984C238.247 189.984 239.41 189.472 240.284 188.448C241.159 187.424 241.596 185.92 241.596 183.936C241.596 181.952 241.159 180.459 240.284 179.456C239.41 178.453 238.247 177.952 236.796 177.952C235.346 177.952 234.172 178.453 233.276 179.456C232.402 180.459 231.964 181.952 231.964 183.936C231.964 185.92 232.402 187.424 233.276 188.448C234.151 189.472 235.324 189.984 236.796 189.984ZM249.355 198.912V179.712C249.355 179.093 249.334 178.464 249.291 177.824C249.249 177.184 249.185 176.544 249.099 175.904H251.915L252.267 179.616H251.915C252.235 178.379 252.918 177.408 253.963 176.704C255.009 175.979 256.257 175.616 257.707 175.616C259.137 175.616 260.385 175.947 261.451 176.608C262.518 177.269 263.339 178.229 263.915 179.488C264.513 180.725 264.811 182.208 264.811 183.936C264.811 185.664 264.513 187.157 263.915 188.416C263.339 189.675 262.518 190.635 261.451 191.296C260.385 191.957 259.137 192.288 257.707 192.288C256.278 192.288 255.041 191.936 253.995 191.232C252.971 190.507 252.278 189.536 251.915 188.32H252.267V198.912H249.355ZM257.035 189.984C258.507 189.984 259.681 189.472 260.555 188.448C261.43 187.424 261.867 185.92 261.867 183.936C261.867 181.952 261.43 180.459 260.555 179.456C259.681 178.453 258.507 177.952 257.035 177.952C255.563 177.952 254.39 178.453 253.515 179.456C252.662 180.459 252.235 181.952 252.235 183.936C252.235 185.92 252.662 187.424 253.515 188.448C254.39 189.472 255.563 189.984 257.035 189.984ZM276.058 192.288C273.498 192.288 271.472 191.552 269.978 190.08C268.506 188.608 267.77 186.581 267.77 184C267.77 182.293 268.09 180.821 268.73 179.584C269.392 178.325 270.298 177.355 271.45 176.672C272.602 175.968 273.946 175.616 275.482 175.616C276.954 175.616 278.202 175.936 279.226 176.576C280.25 177.195 281.029 178.08 281.562 179.232C282.096 180.384 282.362 181.749 282.362 183.328V184.288H270.042V182.56H280.378L279.834 182.976C279.834 181.312 279.461 180.021 278.714 179.104C277.989 178.187 276.912 177.728 275.482 177.728C273.925 177.728 272.72 178.272 271.866 179.36C271.013 180.427 270.586 181.888 270.586 183.744V184.032C270.586 185.995 271.066 187.477 272.026 188.48C273.008 189.483 274.362 189.984 276.09 189.984C277.05 189.984 277.946 189.845 278.778 189.568C279.61 189.291 280.41 188.832 281.178 188.192L282.138 190.208C281.413 190.869 280.506 191.381 279.418 191.744C278.352 192.107 277.232 192.288 276.058 192.288ZM286.136 192V179.84C286.136 179.2 286.115 178.549 286.072 177.888C286.051 177.205 285.997 176.544 285.912 175.904H288.728L289.08 179.936L288.6 179.968C288.813 178.987 289.176 178.176 289.688 177.536C290.221 176.875 290.851 176.395 291.576 176.096C292.323 175.776 293.091 175.616 293.88 175.616C294.221 175.616 294.509 175.627 294.744 175.648C294.979 175.669 295.213 175.723 295.448 175.808L295.384 178.4C295.064 178.272 294.765 178.197 294.488 178.176C294.232 178.133 293.912 178.112 293.528 178.112C292.589 178.112 291.779 178.325 291.096 178.752C290.435 179.179 289.923 179.744 289.56 180.448C289.219 181.152 289.048 181.909 289.048 182.72V192H286.136ZM311.185 192L304.305 175.904H307.441L313.041 189.728H312.145L317.841 175.904H320.817L313.905 192H311.185ZM325.079 192V189.472H330.359V171.968H331.863L325.559 175.872V172.96L331.191 169.44H333.335V189.472H338.295V192H325.079ZM93.2158 229.152C92.1705 229.152 91.1998 228.907 90.3038 228.416C89.4078 227.904 88.6932 227.211 88.1598 226.336C87.6265 225.461 87.3598 224.491 87.3598 223.424C87.3598 222.443 87.6052 221.515 88.0958 220.64C88.6078 219.765 89.3012 219.061 90.1758 218.528C91.0718 217.973 92.0852 217.696 93.2158 217.696C94.2612 217.696 95.2212 217.952 96.0958 218.464C96.9705 218.955 97.6745 219.627 98.2078 220.48C98.7625 221.333 99.0398 222.315 99.0398 223.424C99.0398 224.469 98.7732 225.429 98.2398 226.304C97.7278 227.179 97.0238 227.872 96.1278 228.384C95.2532 228.896 94.2825 229.152 93.2158 229.152ZM119.957 232V209.44H127.605C130.122 209.44 132.245 209.877 133.973 210.752C135.722 211.627 137.045 212.907 137.941 214.592C138.837 216.256 139.285 218.293 139.285 220.704C139.285 223.115 138.837 225.163 137.941 226.848C137.045 228.533 135.722 229.813 133.973 230.688C132.245 231.563 130.122 232 127.605 232H119.957ZM122.933 229.472H127.381C130.389 229.472 132.618 228.747 134.069 227.296C135.519 225.845 136.245 223.648 136.245 220.704C136.245 217.76 135.519 215.573 134.069 214.144C132.618 212.693 130.389 211.968 127.381 211.968H122.933V229.472ZM150.965 232.288C148.405 232.288 146.378 231.552 144.885 230.08C143.413 228.608 142.677 226.581 142.677 224C142.677 222.293 142.997 220.821 143.637 219.584C144.298 218.325 145.205 217.355 146.357 216.672C147.509 215.968 148.853 215.616 150.389 215.616C151.861 215.616 153.109 215.936 154.133 216.576C155.157 217.195 155.935 218.08 156.469 219.232C157.002 220.384 157.269 221.749 157.269 223.328V224.288H144.949V222.56H155.285L154.741 222.976C154.741 221.312 154.367 220.021 153.621 219.104C152.895 218.187 151.818 217.728 150.389 217.728C148.831 217.728 147.626 218.272 146.773 219.36C145.919 220.427 145.493 221.888 145.493 223.744V224.032C145.493 225.995 145.973 227.477 146.933 228.48C147.914 229.483 149.269 229.984 150.997 229.984C151.957 229.984 152.853 229.845 153.685 229.568C154.517 229.291 155.317 228.832 156.085 228.192L157.045 230.208C156.319 230.869 155.413 231.381 154.325 231.744C153.258 232.107 152.138 232.288 150.965 232.288ZM158.709 232L166.005 222.976V224.416L159.125 215.904H162.613L167.637 222.336H166.581L171.605 215.904H175.061L168.277 224.352V223.04L175.477 232H171.957L166.581 225.12H167.637L162.197 232H158.709ZM195.917 232.288C192.824 232.288 190.52 231.509 189.005 229.952C187.512 228.373 186.765 226.059 186.765 223.008V209.44H189.773V222.912C189.773 225.152 190.264 226.837 191.245 227.968C192.227 229.099 193.784 229.664 195.917 229.664C197.965 229.664 199.501 229.099 200.525 227.968C201.571 226.837 202.093 225.152 202.093 222.912V209.44H205.037V223.008C205.037 226.059 204.269 228.373 202.733 229.952C201.197 231.509 198.925 232.288 195.917 232.288ZM215.514 232.288C214.213 232.288 212.997 232.117 211.866 231.776C210.757 231.435 209.839 230.944 209.114 230.304L210.042 228.288C210.831 228.885 211.695 229.344 212.634 229.664C213.594 229.963 214.575 230.112 215.578 230.112C216.794 230.112 217.711 229.888 218.33 229.44C218.97 228.992 219.29 228.395 219.29 227.648C219.29 227.051 219.087 226.571 218.682 226.208C218.277 225.845 217.637 225.579 216.762 225.408L213.722 224.8C212.357 224.48 211.322 223.968 210.618 223.264C209.935 222.539 209.594 221.611 209.594 220.48C209.594 219.541 209.85 218.709 210.362 217.984C210.874 217.237 211.599 216.661 212.538 216.256C213.498 215.829 214.618 215.616 215.898 215.616C217.071 215.616 218.159 215.787 219.162 216.128C220.186 216.469 221.029 216.971 221.69 217.632L220.73 219.584C220.069 219.008 219.322 218.571 218.49 218.272C217.679 217.952 216.847 217.792 215.994 217.792C214.757 217.792 213.839 218.037 213.242 218.528C212.645 218.997 212.346 219.616 212.346 220.384C212.346 220.96 212.527 221.44 212.89 221.824C213.253 222.187 213.839 222.464 214.65 222.656L217.69 223.264C219.119 223.563 220.197 224.053 220.922 224.736C221.647 225.419 222.01 226.325 222.01 227.456C222.01 228.459 221.733 229.323 221.178 230.048C220.645 230.773 219.887 231.328 218.906 231.712C217.946 232.096 216.815 232.288 215.514 232.288ZM233.308 232.288C230.748 232.288 228.722 231.552 227.228 230.08C225.756 228.608 225.02 226.581 225.02 224C225.02 222.293 225.34 220.821 225.98 219.584C226.642 218.325 227.548 217.355 228.7 216.672C229.852 215.968 231.196 215.616 232.732 215.616C234.204 215.616 235.452 215.936 236.476 216.576C237.5 217.195 238.279 218.08 238.812 219.232C239.346 220.384 239.612 221.749 239.612 223.328V224.288H227.292V222.56H237.628L237.084 222.976C237.084 221.312 236.711 220.021 235.964 219.104C235.239 218.187 234.162 217.728 232.732 217.728C231.175 217.728 229.97 218.272 229.116 219.36C228.263 220.427 227.836 221.888 227.836 223.744V224.032C227.836 225.995 228.316 227.477 229.276 228.48C230.258 229.483 231.612 229.984 233.34 229.984C234.3 229.984 235.196 229.845 236.028 229.568C236.86 229.291 237.66 228.832 238.428 228.192L239.388 230.208C238.663 230.869 237.756 231.381 236.668 231.744C235.602 232.107 234.482 232.288 233.308 232.288ZM243.386 232V219.84C243.386 219.2 243.365 218.549 243.322 217.888C243.301 217.205 243.247 216.544 243.162 215.904H245.978L246.33 219.936L245.85 219.968C246.063 218.987 246.426 218.176 246.938 217.536C247.471 216.875 248.101 216.395 248.826 216.096C249.573 215.776 250.341 215.616 251.13 215.616C251.471 215.616 251.759 215.627 251.994 215.648C252.229 215.669 252.463 215.723 252.698 215.808L252.634 218.4C252.314 218.272 252.015 218.197 251.738 218.176C251.482 218.133 251.162 218.112 250.778 218.112C249.839 218.112 249.029 218.325 248.346 218.752C247.685 219.179 247.173 219.744 246.81 220.448C246.469 221.152 246.298 221.909 246.298 222.72V232H243.386ZM269.843 232.288C268.435 232.288 267.198 231.957 266.131 231.296C265.064 230.635 264.232 229.675 263.635 228.416C263.038 227.157 262.739 225.664 262.739 223.936C262.739 222.208 263.038 220.725 263.635 219.488C264.232 218.229 265.064 217.269 266.131 216.608C267.198 215.947 268.435 215.616 269.843 215.616C271.272 215.616 272.51 215.979 273.555 216.704C274.622 217.408 275.326 218.379 275.667 219.616H275.283L275.635 215.904H278.451C278.387 216.544 278.323 217.184 278.259 217.824C278.216 218.464 278.195 219.093 278.195 219.712V232H275.283V228.32H275.635C275.294 229.536 274.59 230.507 273.523 231.232C272.478 231.936 271.251 232.288 269.843 232.288ZM270.515 229.984C271.966 229.984 273.128 229.472 274.003 228.448C274.878 227.424 275.315 225.92 275.315 223.936C275.315 221.952 274.878 220.459 274.003 219.456C273.128 218.453 271.966 217.952 270.515 217.952C269.064 217.952 267.891 218.453 266.995 219.456C266.12 220.459 265.683 221.952 265.683 223.936C265.683 225.92 266.12 227.424 266.995 228.448C267.87 229.472 269.043 229.984 270.515 229.984ZM283.074 232V219.712C283.074 219.093 283.053 218.464 283.01 217.824C282.967 217.184 282.903 216.544 282.818 215.904H285.634L285.954 219.36H285.57C286.061 218.144 286.818 217.216 287.842 216.576C288.866 215.936 290.061 215.616 291.426 215.616C293.325 215.616 294.754 216.139 295.714 217.184C296.674 218.208 297.154 219.808 297.154 221.984V232H294.242V222.144C294.242 220.672 293.954 219.616 293.378 218.976C292.802 218.315 291.906 217.984 290.69 217.984C289.239 217.984 288.087 218.421 287.234 219.296C286.402 220.171 285.986 221.355 285.986 222.848V232H283.074ZM308.062 232.288C306.654 232.288 305.417 231.957 304.35 231.296C303.283 230.635 302.451 229.675 301.854 228.416C301.257 227.157 300.958 225.664 300.958 223.936C300.958 222.208 301.257 220.725 301.854 219.488C302.451 218.229 303.283 217.269 304.35 216.608C305.417 215.947 306.654 215.616 308.062 215.616C309.491 215.616 310.729 215.979 311.774 216.704C312.841 217.408 313.545 218.379 313.886 219.616H313.502L313.854 215.904H316.67C316.606 216.544 316.542 217.184 316.478 217.824C316.435 218.464 316.414 219.093 316.414 219.712V232H313.502V228.32H313.854C313.513 229.536 312.809 230.507 311.742 231.232C310.697 231.936 309.47 232.288 308.062 232.288ZM308.734 229.984C310.185 229.984 311.347 229.472 312.222 228.448C313.097 227.424 313.534 225.92 313.534 223.936C313.534 221.952 313.097 220.459 312.222 219.456C311.347 218.453 310.185 217.952 308.734 217.952C307.283 217.952 306.11 218.453 305.214 219.456C304.339 220.459 303.902 221.952 303.902 223.936C303.902 225.92 304.339 227.424 305.214 228.448C306.089 229.472 307.262 229.984 308.734 229.984ZM321.293 232V208.448H324.205V232H321.293ZM328.53 239.264L327.858 236.896C328.861 236.661 329.693 236.384 330.354 236.064C331.015 235.765 331.57 235.371 332.018 234.88C332.466 234.389 332.861 233.771 333.202 233.024L334.002 231.104L333.938 232.32L326.93 215.904H330.066L335.666 229.696H334.834L340.434 215.904H343.442L336.05 233.248C335.602 234.293 335.111 235.168 334.578 235.872C334.066 236.576 333.501 237.152 332.882 237.6C332.285 238.048 331.623 238.4 330.898 238.656C330.173 238.912 329.383 239.115 328.53 239.264ZM352.496 232.288C350.811 232.288 349.531 231.829 348.656 230.912C347.803 229.973 347.376 228.565 347.376 226.688V218.144H344.24V215.904H347.376V211.584L350.288 210.784V215.904H354.832V218.144H350.288V226.432C350.288 227.669 350.502 228.555 350.928 229.088C351.376 229.6 352.016 229.856 352.848 229.856C353.275 229.856 353.638 229.824 353.936 229.76C354.256 229.675 354.544 229.579 354.8 229.472V231.872C354.48 232 354.107 232.096 353.68 232.16C353.275 232.245 352.88 232.288 352.496 232.288ZM357.887 232V215.904H360.799V232H357.887ZM357.631 212.384V209.248H361.087V212.384H357.631ZM372.58 232.288C370.98 232.288 369.593 231.957 368.42 231.296C367.247 230.613 366.329 229.643 365.668 228.384C365.028 227.104 364.708 225.589 364.708 223.84C364.708 222.112 365.039 220.64 365.7 219.424C366.361 218.187 367.279 217.248 368.452 216.608C369.625 215.947 371.001 215.616 372.58 215.616C373.625 215.616 374.639 215.797 375.62 216.16C376.601 216.501 377.401 217.003 378.02 217.664L377.028 219.712C376.409 219.115 375.727 218.677 374.98 218.4C374.233 218.101 373.497 217.952 372.772 217.952C371.193 217.952 369.956 218.464 369.06 219.488C368.164 220.491 367.716 221.952 367.716 223.872C367.716 225.813 368.164 227.307 369.06 228.352C369.956 229.397 371.193 229.92 372.772 229.92C373.476 229.92 374.201 229.781 374.948 229.504C375.695 229.227 376.388 228.789 377.028 228.192L378.02 230.208C377.38 230.891 376.559 231.413 375.556 231.776C374.575 232.117 373.583 232.288 372.58 232.288ZM387.014 232.288C385.713 232.288 384.497 232.117 383.366 231.776C382.257 231.435 381.339 230.944 380.614 230.304L381.542 228.288C382.331 228.885 383.195 229.344 384.134 229.664C385.094 229.963 386.075 230.112 387.078 230.112C388.294 230.112 389.211 229.888 389.83 229.44C390.47 228.992 390.79 228.395 390.79 227.648C390.79 227.051 390.587 226.571 390.182 226.208C389.777 225.845 389.137 225.579 388.262 225.408L385.222 224.8C383.857 224.48 382.822 223.968 382.118 223.264C381.435 222.539 381.094 221.611 381.094 220.48C381.094 219.541 381.35 218.709 381.862 217.984C382.374 217.237 383.099 216.661 384.038 216.256C384.998 215.829 386.118 215.616 387.398 215.616C388.571 215.616 389.659 215.787 390.662 216.128C391.686 216.469 392.529 216.971 393.19 217.632L392.23 219.584C391.569 219.008 390.822 218.571 389.99 218.272C389.179 217.952 388.347 217.792 387.494 217.792C386.257 217.792 385.339 218.037 384.742 218.528C384.145 218.997 383.846 219.616 383.846 220.384C383.846 220.96 384.027 221.44 384.39 221.824C384.753 222.187 385.339 222.464 386.15 222.656L389.19 223.264C390.619 223.563 391.697 224.053 392.422 224.736C393.147 225.419 393.51 226.325 393.51 227.456C393.51 228.459 393.233 229.323 392.678 230.048C392.145 230.773 391.387 231.328 390.406 231.712C389.446 232.096 388.315 232.288 387.014 232.288Z" fill="#4CC9F0"/>
<line x1="93.7046" y1="20" x2="93.7046" y2="335" stroke="#0FA9D9"/>
</svg>
