<svg width="646" height="386" viewBox="0 0 646 386" fill="none" xmlns="http://www.w3.org/2000/svg">
<path d="M368 335L314 379.167V290.833L368 335Z" fill="#BA1E71"/>
<path fill-rule="evenodd" clip-rule="evenodd" d="M0.204542 379L54 335L0.204542 291H314V379H0.204542Z" fill="#BA1E71"/>
<path d="M128.011 349V346.443L137.614 335.932C138.741 334.701 139.669 333.631 140.398 332.722C141.127 331.803 141.667 330.941 142.017 330.136C142.377 329.322 142.557 328.47 142.557 327.58C142.557 326.557 142.311 325.671 141.818 324.923C141.335 324.175 140.672 323.598 139.83 323.19C138.987 322.783 138.04 322.58 136.989 322.58C135.871 322.58 134.896 322.812 134.062 323.276C133.239 323.73 132.599 324.369 132.145 325.193C131.7 326.017 131.477 326.983 131.477 328.091H128.125C128.125 326.386 128.518 324.89 129.304 323.602C130.09 322.314 131.16 321.311 132.514 320.591C133.878 319.871 135.407 319.511 137.102 319.511C138.807 319.511 140.317 319.871 141.634 320.591C142.95 321.311 143.982 322.281 144.73 323.503C145.478 324.724 145.852 326.083 145.852 327.58C145.852 328.65 145.658 329.696 145.27 330.719C144.891 331.732 144.228 332.864 143.281 334.114C142.344 335.354 141.042 336.869 139.375 338.659L132.841 345.648V345.875H146.364V349H128.011ZM161.719 349.398C159.579 349.398 157.756 348.815 156.25 347.651C154.744 346.476 153.594 344.777 152.798 342.551C152.003 340.316 151.605 337.617 151.605 334.455C151.605 331.311 152.003 328.626 152.798 326.401C153.603 324.166 154.759 322.461 156.264 321.287C157.779 320.103 159.598 319.511 161.719 319.511C163.84 319.511 165.653 320.103 167.159 321.287C168.674 322.461 169.83 324.166 170.625 326.401C171.43 328.626 171.832 331.311 171.832 334.455C171.832 337.617 171.435 340.316 170.639 342.551C169.844 344.777 168.693 346.476 167.188 347.651C165.682 348.815 163.859 349.398 161.719 349.398ZM161.719 346.273C163.84 346.273 165.488 345.25 166.662 343.205C167.836 341.159 168.423 338.242 168.423 334.455C168.423 331.936 168.153 329.791 167.614 328.02C167.083 326.249 166.316 324.9 165.312 323.972C164.318 323.044 163.12 322.58 161.719 322.58C159.616 322.58 157.973 323.616 156.79 325.69C155.606 327.755 155.014 330.676 155.014 334.455C155.014 336.973 155.279 339.114 155.81 340.875C156.34 342.636 157.102 343.976 158.097 344.895C159.1 345.813 160.308 346.273 161.719 346.273ZM177.23 349V346.443L186.832 335.932C187.959 334.701 188.887 333.631 189.616 332.722C190.346 331.803 190.885 330.941 191.236 330.136C191.596 329.322 191.776 328.47 191.776 327.58C191.776 326.557 191.529 325.671 191.037 324.923C190.554 324.175 189.891 323.598 189.048 323.19C188.205 322.783 187.259 322.58 186.207 322.58C185.09 322.58 184.115 322.812 183.281 323.276C182.457 323.73 181.818 324.369 181.364 325.193C180.919 326.017 180.696 326.983 180.696 328.091H177.344C177.344 326.386 177.737 324.89 178.523 323.602C179.309 322.314 180.379 321.311 181.733 320.591C183.097 319.871 184.626 319.511 186.321 319.511C188.026 319.511 189.536 319.871 190.852 320.591C192.169 321.311 193.201 322.281 193.949 323.503C194.697 324.724 195.071 326.083 195.071 327.58C195.071 328.65 194.877 329.696 194.489 330.719C194.11 331.732 193.447 332.864 192.5 334.114C191.562 335.354 190.26 336.869 188.594 338.659L182.06 345.648V345.875H195.582V349H177.23ZM200.142 343.034V340.136L212.926 319.909H215.028V324.398H213.608L203.949 339.682V339.909H221.165V343.034H200.142ZM213.835 349V342.153V340.804V319.909H217.188V349H213.835ZM248.817 339.909H252.681L255.92 344.17L256.772 345.307L261.602 351.727H257.738L254.556 347.466L253.761 346.386L248.817 339.909ZM262.795 334.455C262.795 337.523 262.241 340.174 261.133 342.409C260.025 344.644 258.505 346.367 256.573 347.58C254.641 348.792 252.435 349.398 249.954 349.398C247.473 349.398 245.266 348.792 243.335 347.58C241.403 346.367 239.883 344.644 238.775 342.409C237.667 340.174 237.113 337.523 237.113 334.455C237.113 331.386 237.667 328.735 238.775 326.5C239.883 324.265 241.403 322.542 243.335 321.33C245.266 320.117 247.473 319.511 249.954 319.511C252.435 319.511 254.641 320.117 256.573 321.33C258.505 322.542 260.025 324.265 261.133 326.5C262.241 328.735 262.795 331.386 262.795 334.455ZM259.386 334.455C259.386 331.936 258.964 329.81 258.121 328.077C257.288 326.344 256.156 325.032 254.727 324.142C253.306 323.252 251.715 322.807 249.954 322.807C248.192 322.807 246.597 323.252 245.167 324.142C243.746 325.032 242.615 326.344 241.772 328.077C240.939 329.81 240.522 331.936 240.522 334.455C240.522 336.973 240.939 339.099 241.772 340.832C242.615 342.565 243.746 343.877 245.167 344.767C246.597 345.657 248.192 346.102 249.954 346.102C251.715 346.102 253.306 345.657 254.727 344.767C256.156 343.877 257.288 342.565 258.121 340.832C258.964 339.099 259.386 336.973 259.386 334.455ZM268.207 349V346.443L277.809 335.932C278.936 334.701 279.864 333.631 280.593 332.722C281.322 331.803 281.862 330.941 282.212 330.136C282.572 329.322 282.752 328.47 282.752 327.58C282.752 326.557 282.506 325.671 282.013 324.923C281.531 324.175 280.868 323.598 280.025 323.19C279.182 322.783 278.235 322.58 277.184 322.58C276.067 322.58 275.091 322.812 274.258 323.276C273.434 323.73 272.795 324.369 272.34 325.193C271.895 326.017 271.673 326.983 271.673 328.091H268.32C268.32 326.386 268.713 324.89 269.499 323.602C270.285 322.314 271.355 321.311 272.71 320.591C274.073 319.871 275.603 319.511 277.298 319.511C279.002 319.511 280.513 319.871 281.829 320.591C283.145 321.311 284.177 322.281 284.925 323.503C285.674 324.724 286.048 326.083 286.048 327.58C286.048 328.65 285.853 329.696 285.465 330.719C285.086 331.732 284.424 332.864 283.477 334.114C282.539 335.354 281.237 336.869 279.57 338.659L273.036 345.648V345.875H286.559V349H268.207Z" fill="black"/>
<circle cx="93.5" cy="335.5" r="8.5" fill="#D9D9D9"/>
<path d="M93.2131 26.7273C92.2964 26.7273 91.4593 26.5038 90.7017 26.0568C89.9442 25.6023 89.3381 24.9962 88.8836 24.2386C88.4366 23.4811 88.2131 22.6439 88.2131 21.7273C88.2131 20.803 88.4366 19.9659 88.8836 19.2159C89.3381 18.4583 89.9442 17.8561 90.7017 17.4091C91.4593 16.9545 92.2964 16.7273 93.2131 16.7273C94.1374 16.7273 94.9745 16.9545 95.7245 17.4091C96.4821 17.8561 97.0843 18.4583 97.5313 19.2159C97.9858 19.9659 98.2131 20.803 98.2131 21.7273C98.2131 22.6439 97.9858 23.4811 97.5313 24.2386C97.0843 24.9962 96.4821 25.6023 95.7245 26.0568C94.9745 26.5038 94.1374 26.7273 93.2131 26.7273ZM139.091 15.2955H135.545C135.409 14.5379 135.155 13.8712 134.784 13.2955C134.413 12.7197 133.958 12.2311 133.42 11.8295C132.883 11.428 132.28 11.125 131.614 10.9205C130.955 10.7159 130.254 10.6136 129.511 10.6136C128.17 10.6136 126.97 10.9508 125.909 11.625C124.856 12.2992 124.023 13.2879 123.409 14.5909C122.803 15.8939 122.5 17.4848 122.5 19.3636C122.5 21.2576 122.803 22.8561 123.409 24.1591C124.023 25.4621 124.86 26.447 125.92 27.1136C126.981 27.7803 128.174 28.1136 129.5 28.1136C130.235 28.1136 130.932 28.0152 131.591 27.8182C132.258 27.6136 132.86 27.3144 133.398 26.9205C133.936 26.5265 134.39 26.0455 134.761 25.4773C135.14 24.9015 135.402 24.2424 135.545 23.5L139.091 23.5114C138.902 24.6553 138.534 25.7083 137.989 26.6705C137.451 27.625 136.758 28.4508 135.909 29.1477C135.068 29.8371 134.106 30.3712 133.023 30.75C131.939 31.1288 130.758 31.3182 129.477 31.3182C127.462 31.3182 125.667 30.8409 124.091 29.8864C122.515 28.9242 121.273 27.5492 120.364 25.7614C119.462 23.9735 119.011 21.8409 119.011 19.3636C119.011 16.8788 119.466 14.7462 120.375 12.9659C121.284 11.178 122.527 9.80682 124.102 8.85227C125.678 7.89015 127.47 7.40909 129.477 7.40909C130.712 7.40909 131.864 7.58712 132.932 7.94318C134.008 8.29167 134.974 8.80682 135.83 9.48864C136.686 10.1629 137.394 10.9886 137.955 11.9659C138.515 12.9356 138.894 14.0455 139.091 15.2955ZM143.02 31V13.5455H146.304V16.3182H146.486C146.804 15.3788 147.365 14.6402 148.168 14.1023C148.978 13.5568 149.895 13.2841 150.918 13.2841C151.13 13.2841 151.38 13.2917 151.668 13.3068C151.963 13.322 152.194 13.3409 152.361 13.3636V16.6136C152.224 16.5758 151.982 16.5341 151.634 16.4886C151.285 16.4356 150.937 16.4091 150.588 16.4091C149.785 16.4091 149.069 16.5795 148.44 16.9205C147.819 17.2538 147.327 17.7197 146.963 18.3182C146.599 18.9091 146.418 19.5833 146.418 20.3409V31H143.02ZM162.028 31.3523C160.392 31.3523 158.964 30.9773 157.744 30.2273C156.525 29.4773 155.578 28.428 154.903 27.0795C154.229 25.7311 153.892 24.1553 153.892 22.3523C153.892 20.5417 154.229 18.9583 154.903 17.6023C155.578 16.2462 156.525 15.1932 157.744 14.4432C158.964 13.6932 160.392 13.3182 162.028 13.3182C163.665 13.3182 165.093 13.6932 166.313 14.4432C167.532 15.1932 168.479 16.2462 169.153 17.6023C169.828 18.9583 170.165 20.5417 170.165 22.3523C170.165 24.1553 169.828 25.7311 169.153 27.0795C168.479 28.428 167.532 29.4773 166.313 30.2273C165.093 30.9773 163.665 31.3523 162.028 31.3523ZM162.04 28.5C163.1 28.5 163.979 28.2197 164.676 27.6591C165.373 27.0985 165.888 26.3523 166.222 25.4205C166.563 24.4886 166.733 23.4621 166.733 22.3409C166.733 21.2273 166.563 20.2045 166.222 19.2727C165.888 18.3333 165.373 17.5795 164.676 17.0114C163.979 16.4432 163.1 16.1591 162.04 16.1591C160.972 16.1591 160.085 16.4432 159.381 17.0114C158.684 17.5795 158.165 18.3333 157.824 19.2727C157.491 20.2045 157.324 21.2273 157.324 22.3409C157.324 23.4621 157.491 24.4886 157.824 25.4205C158.165 26.3523 158.684 27.0985 159.381 27.6591C160.085 28.2197 160.972 28.5 162.04 28.5ZM187.037 17.8068L183.957 18.3523C183.829 17.9583 183.624 17.5833 183.344 17.2273C183.071 16.8712 182.7 16.5795 182.23 16.3523C181.76 16.125 181.173 16.0114 180.469 16.0114C179.507 16.0114 178.704 16.2273 178.06 16.6591C177.416 17.0833 177.094 17.6326 177.094 18.3068C177.094 18.8902 177.31 19.3598 177.742 19.7159C178.173 20.072 178.87 20.3636 179.832 20.5909L182.605 21.2273C184.211 21.5985 185.408 22.1705 186.196 22.9432C186.984 23.7159 187.378 24.7197 187.378 25.9545C187.378 27 187.075 27.9318 186.469 28.75C185.87 29.5606 185.033 30.197 183.957 30.6591C182.889 31.1212 181.651 31.3523 180.242 31.3523C178.287 31.3523 176.692 30.9356 175.457 30.1023C174.223 29.2614 173.465 28.0682 173.185 26.5227L176.469 26.0227C176.673 26.8788 177.094 27.5265 177.73 27.9659C178.367 28.3977 179.196 28.6136 180.219 28.6136C181.332 28.6136 182.223 28.3826 182.889 27.9205C183.556 27.4508 183.889 26.8788 183.889 26.2045C183.889 25.6591 183.685 25.2008 183.276 24.8295C182.874 24.4583 182.257 24.178 181.423 23.9886L178.469 23.3409C176.84 22.9697 175.635 22.3788 174.855 21.5682C174.082 20.7576 173.696 19.7311 173.696 18.4886C173.696 17.4583 173.984 16.5568 174.56 15.7841C175.135 15.0114 175.931 14.4091 176.946 13.9773C177.961 13.5379 179.124 13.3182 180.435 13.3182C182.321 13.3182 183.806 13.7273 184.889 14.5455C185.973 15.3561 186.688 16.4432 187.037 17.8068ZM204.193 17.8068L201.114 18.3523C200.985 17.9583 200.78 17.5833 200.5 17.2273C200.227 16.8712 199.856 16.5795 199.386 16.3523C198.917 16.125 198.33 16.0114 197.625 16.0114C196.663 16.0114 195.86 16.2273 195.216 16.6591C194.572 17.0833 194.25 17.6326 194.25 18.3068C194.25 18.8902 194.466 19.3598 194.898 19.7159C195.33 20.072 196.027 20.3636 196.989 20.5909L199.761 21.2273C201.367 21.5985 202.564 22.1705 203.352 22.9432C204.14 23.7159 204.534 24.7197 204.534 25.9545C204.534 27 204.231 27.9318 203.625 28.75C203.027 29.5606 202.189 30.197 201.114 30.6591C200.045 31.1212 198.807 31.3523 197.398 31.3523C195.443 31.3523 193.849 30.9356 192.614 30.1023C191.379 29.2614 190.621 28.0682 190.341 26.5227L193.625 26.0227C193.83 26.8788 194.25 27.5265 194.886 27.9659C195.523 28.3977 196.352 28.6136 197.375 28.6136C198.489 28.6136 199.379 28.3826 200.045 27.9205C200.712 27.4508 201.045 26.8788 201.045 26.2045C201.045 25.6591 200.841 25.2008 200.432 24.8295C200.03 24.4583 199.413 24.178 198.58 23.9886L195.625 23.3409C193.996 22.9697 192.792 22.3788 192.011 21.5682C191.239 20.7576 190.852 19.7311 190.852 18.4886C190.852 17.4583 191.14 16.5568 191.716 15.7841C192.292 15.0114 193.087 14.4091 194.102 13.9773C195.117 13.5379 196.28 13.3182 197.591 13.3182C199.477 13.3182 200.962 13.7273 202.045 14.5455C203.129 15.3561 203.845 16.4432 204.193 17.8068ZM215.622 31.3523C213.933 31.3523 212.478 30.9697 211.259 30.2045C210.046 29.4318 209.115 28.3674 208.463 27.0114C207.812 25.6553 207.486 24.1023 207.486 22.3523C207.486 20.5795 207.819 19.0152 208.486 17.6591C209.153 16.2955 210.092 15.2311 211.304 14.4659C212.516 13.7008 213.944 13.3182 215.588 13.3182C216.914 13.3182 218.096 13.5644 219.134 14.0568C220.171 14.5417 221.009 15.2235 221.645 16.1023C222.289 16.9811 222.671 18.0076 222.793 19.1818H219.486C219.304 18.3636 218.887 17.6591 218.236 17.0682C217.592 16.4773 216.728 16.1818 215.645 16.1818C214.698 16.1818 213.868 16.4318 213.156 16.9318C212.452 17.4242 211.903 18.1288 211.509 19.0455C211.115 19.9545 210.918 21.0303 210.918 22.2727C210.918 23.5455 211.111 24.6439 211.497 25.5682C211.884 26.4924 212.429 27.2083 213.134 27.7159C213.846 28.2235 214.683 28.4773 215.645 28.4773C216.289 28.4773 216.872 28.3598 217.395 28.125C217.925 27.8826 218.368 27.5379 218.724 27.0909C219.088 26.6439 219.342 26.1061 219.486 25.4773H222.793C222.671 26.6061 222.304 27.6136 221.69 28.5C221.077 29.3864 220.255 30.0833 219.224 30.5909C218.202 31.0985 217.001 31.3523 215.622 31.3523ZM229.824 20.6364V31H226.426V7.72727H229.778V16.3864H229.994C230.403 15.447 231.028 14.7008 231.869 14.1477C232.71 13.5947 233.809 13.3182 235.165 13.3182C236.362 13.3182 237.407 13.5644 238.301 14.0568C239.203 14.5492 239.9 15.2841 240.392 16.2614C240.892 17.2311 241.142 18.4432 241.142 19.8977V31H237.744V20.3068C237.744 19.0265 237.415 18.0341 236.756 17.3295C236.097 16.6174 235.18 16.2614 234.006 16.2614C233.203 16.2614 232.483 16.4318 231.847 16.7727C231.218 17.1136 230.722 17.6136 230.358 18.2727C230.002 18.9242 229.824 19.7121 229.824 20.6364ZM250.756 31.3864C249.65 31.3864 248.65 31.1818 247.756 30.7727C246.862 30.3561 246.153 29.7538 245.631 28.9659C245.116 28.178 244.858 27.2121 244.858 26.0682C244.858 25.0833 245.047 24.2727 245.426 23.6364C245.805 23 246.316 22.4962 246.96 22.125C247.604 21.7538 248.324 21.4735 249.119 21.2841C249.915 21.0947 250.725 20.9508 251.551 20.8523C252.597 20.7311 253.445 20.6326 254.097 20.5568C254.748 20.4735 255.222 20.3409 255.517 20.1591C255.813 19.9773 255.96 19.6818 255.96 19.2727V19.1932C255.96 18.2008 255.68 17.4318 255.119 16.8864C254.566 16.3409 253.741 16.0682 252.642 16.0682C251.498 16.0682 250.597 16.322 249.938 16.8295C249.286 17.3295 248.835 17.8864 248.585 18.5L245.392 17.7727C245.771 16.7121 246.324 15.8561 247.051 15.2045C247.786 14.5455 248.631 14.0682 249.585 13.7727C250.54 13.4697 251.544 13.3182 252.597 13.3182C253.294 13.3182 254.032 13.4015 254.813 13.5682C255.6 13.7273 256.335 14.0227 257.017 14.4545C257.706 14.8864 258.271 15.5038 258.71 16.3068C259.15 17.1023 259.369 18.1364 259.369 19.4091V31H256.051V28.6136H255.915C255.695 29.053 255.366 29.4848 254.926 29.9091C254.487 30.3333 253.922 30.6856 253.233 30.9659C252.544 31.2462 251.718 31.3864 250.756 31.3864ZM251.494 28.6591C252.434 28.6591 253.237 28.4735 253.903 28.1023C254.578 27.7311 255.089 27.2462 255.438 26.6477C255.794 26.0417 255.972 25.3939 255.972 24.7045V22.4545C255.85 22.5758 255.616 22.6894 255.267 22.7955C254.926 22.8939 254.536 22.9811 254.097 23.0568C253.657 23.125 253.229 23.1894 252.813 23.25C252.396 23.303 252.047 23.3485 251.767 23.3864C251.108 23.4697 250.506 23.6098 249.96 23.8068C249.422 24.0038 248.991 24.2879 248.665 24.6591C248.347 25.0227 248.188 25.5076 248.188 26.1136C248.188 26.9545 248.498 27.5909 249.119 28.0227C249.741 28.447 250.532 28.6591 251.494 28.6591ZM263.895 31V13.5455H267.293V31H263.895ZM265.611 10.8523C265.02 10.8523 264.512 10.6553 264.088 10.2614C263.671 9.85985 263.463 9.38257 263.463 8.82954C263.463 8.26894 263.671 7.79167 264.088 7.39773C264.512 6.99621 265.02 6.79545 265.611 6.79545C266.202 6.79545 266.706 6.99621 267.122 7.39773C267.546 7.79167 267.759 8.26894 267.759 8.82954C267.759 9.38257 267.546 9.85985 267.122 10.2614C266.706 10.6553 266.202 10.8523 265.611 10.8523ZM275.261 20.6364V31H271.864V13.5455H275.125V16.3864H275.341C275.742 15.4621 276.371 14.7197 277.227 14.1591C278.091 13.5985 279.178 13.3182 280.489 13.3182C281.678 13.3182 282.72 13.5682 283.614 14.0682C284.508 14.5606 285.201 15.2955 285.693 16.2727C286.186 17.25 286.432 18.4583 286.432 19.8977V31H283.034V20.3068C283.034 19.0417 282.705 18.053 282.045 17.3409C281.386 16.6212 280.481 16.2614 279.33 16.2614C278.542 16.2614 277.841 16.4318 277.227 16.7727C276.621 17.1136 276.14 17.6136 275.784 18.2727C275.436 18.9242 275.261 19.7121 275.261 20.6364ZM303.242 7.72727V31H299.73V7.72727H303.242ZM308.082 31V13.5455H311.344V16.3864H311.56C311.923 15.4242 312.518 14.6742 313.344 14.1364C314.17 13.5909 315.158 13.3182 316.31 13.3182C317.476 13.3182 318.454 13.5909 319.242 14.1364C320.037 14.6818 320.624 15.4318 321.003 16.3864H321.185C321.601 15.4545 322.264 14.7121 323.173 14.1591C324.082 13.5985 325.166 13.3182 326.423 13.3182C328.007 13.3182 329.298 13.8144 330.298 14.8068C331.306 15.7992 331.81 17.2955 331.81 19.2955V31H328.412V19.6136C328.412 18.4318 328.09 17.5758 327.446 17.0455C326.802 16.5152 326.033 16.25 325.139 16.25C324.033 16.25 323.173 16.5909 322.56 17.2727C321.946 17.947 321.639 18.8144 321.639 19.875V31H318.253V19.3977C318.253 18.4508 317.957 17.6894 317.367 17.1136C316.776 16.5379 316.007 16.25 315.06 16.25C314.416 16.25 313.821 16.4205 313.276 16.7614C312.738 17.0947 312.302 17.5606 311.969 18.1591C311.643 18.7576 311.48 19.4508 311.48 20.2386V31H308.082ZM336.364 37.5455V13.5455H339.682V16.375H339.966C340.163 16.0114 340.447 15.5909 340.818 15.1136C341.189 14.6364 341.705 14.2197 342.364 13.8636C343.023 13.5 343.894 13.3182 344.977 13.3182C346.386 13.3182 347.644 13.6742 348.75 14.3864C349.856 15.0985 350.724 16.125 351.352 17.4659C351.989 18.8068 352.307 20.4205 352.307 22.3068C352.307 24.1932 351.992 25.8106 351.364 27.1591C350.735 28.5 349.871 29.5341 348.773 30.2614C347.674 30.9811 346.42 31.3409 345.011 31.3409C343.951 31.3409 343.083 31.1629 342.409 30.8068C341.742 30.4508 341.22 30.0341 340.841 29.5568C340.462 29.0795 340.17 28.6553 339.966 28.2841H339.761V37.5455H336.364ZM339.693 22.2727C339.693 23.5 339.871 24.5758 340.227 25.5C340.583 26.4242 341.099 27.1477 341.773 27.6705C342.447 28.1856 343.273 28.4432 344.25 28.4432C345.265 28.4432 346.114 28.1742 346.795 27.6364C347.477 27.0909 347.992 26.3523 348.341 25.4205C348.697 24.4886 348.875 23.4394 348.875 22.2727C348.875 21.1212 348.701 20.0871 348.352 19.1705C348.011 18.2538 347.496 17.5303 346.807 17C346.125 16.4697 345.273 16.2045 344.25 16.2045C343.265 16.2045 342.432 16.4583 341.75 16.9659C341.076 17.4735 340.564 18.1818 340.216 19.0909C339.867 20 339.693 21.0606 339.693 22.2727ZM359.511 7.72727V31H356.114V7.72727H359.511ZM371.605 31.3523C369.885 31.3523 368.404 30.9848 367.162 30.25C365.927 29.5076 364.973 28.4659 364.298 27.125C363.632 25.7765 363.298 24.197 363.298 22.3864C363.298 20.5985 363.632 19.0227 364.298 17.6591C364.973 16.2955 365.912 15.2311 367.117 14.4659C368.329 13.7008 369.745 13.3182 371.367 13.3182C372.351 13.3182 373.306 13.4811 374.23 13.8068C375.154 14.1326 375.984 14.6439 376.719 15.3409C377.454 16.0379 378.033 16.9432 378.457 18.0568C378.882 19.1629 379.094 20.5076 379.094 22.0909V23.2955H365.219V20.75H375.764C375.764 19.8561 375.582 19.0644 375.219 18.375C374.855 17.678 374.344 17.1288 373.685 16.7273C373.033 16.3258 372.268 16.125 371.389 16.125C370.435 16.125 369.601 16.3598 368.889 16.8295C368.185 17.2917 367.639 17.8977 367.253 18.6477C366.874 19.3902 366.685 20.197 366.685 21.0682V23.0568C366.685 24.2235 366.889 25.2159 367.298 26.0341C367.715 26.8523 368.295 27.4773 369.037 27.9091C369.779 28.3333 370.647 28.5455 371.639 28.5455C372.283 28.5455 372.87 28.4545 373.401 28.2727C373.931 28.0833 374.389 27.803 374.776 27.4318C375.162 27.0606 375.457 26.6023 375.662 26.0568L378.878 26.6364C378.62 27.5833 378.158 28.4129 377.492 29.125C376.832 29.8295 376.003 30.3788 375.003 30.7727C374.01 31.1591 372.878 31.3523 371.605 31.3523ZM382.864 31V13.5455H386.125V16.3864H386.341C386.705 15.4242 387.299 14.6742 388.125 14.1364C388.951 13.5909 389.939 13.3182 391.091 13.3182C392.258 13.3182 393.235 13.5909 394.023 14.1364C394.818 14.6818 395.405 15.4318 395.784 16.3864H395.966C396.383 15.4545 397.045 14.7121 397.955 14.1591C398.864 13.5985 399.947 13.3182 401.205 13.3182C402.788 13.3182 404.08 13.8144 405.08 14.8068C406.087 15.7992 406.591 17.2955 406.591 19.2955V31H403.193V19.6136C403.193 18.4318 402.871 17.5758 402.227 17.0455C401.583 16.5152 400.814 16.25 399.92 16.25C398.814 16.25 397.955 16.5909 397.341 17.2727C396.727 17.947 396.42 18.8144 396.42 19.875V31H393.034V19.3977C393.034 18.4508 392.739 17.6894 392.148 17.1136C391.557 16.5379 390.788 16.25 389.841 16.25C389.197 16.25 388.602 16.4205 388.057 16.7614C387.519 17.0947 387.083 17.5606 386.75 18.1591C386.424 18.7576 386.261 19.4508 386.261 20.2386V31H382.864ZM418.668 31.3523C416.948 31.3523 415.467 30.9848 414.224 30.25C412.99 29.5076 412.035 28.4659 411.361 27.125C410.694 25.7765 410.361 24.197 410.361 22.3864C410.361 20.5985 410.694 19.0227 411.361 17.6591C412.035 16.2955 412.974 15.2311 414.179 14.4659C415.391 13.7008 416.808 13.3182 418.429 13.3182C419.414 13.3182 420.368 13.4811 421.293 13.8068C422.217 14.1326 423.046 14.6439 423.781 15.3409C424.516 16.0379 425.096 16.9432 425.52 18.0568C425.944 19.1629 426.156 20.5076 426.156 22.0909V23.2955H412.281V20.75H422.827C422.827 19.8561 422.645 19.0644 422.281 18.375C421.918 17.678 421.406 17.1288 420.747 16.7273C420.096 16.3258 419.331 16.125 418.452 16.125C417.497 16.125 416.664 16.3598 415.952 16.8295C415.247 17.2917 414.702 17.8977 414.315 18.6477C413.937 19.3902 413.747 20.197 413.747 21.0682V23.0568C413.747 24.2235 413.952 25.2159 414.361 26.0341C414.778 26.8523 415.357 27.4773 416.099 27.9091C416.842 28.3333 417.709 28.5455 418.702 28.5455C419.346 28.5455 419.933 28.4545 420.463 28.2727C420.993 28.0833 421.452 27.803 421.838 27.4318C422.224 27.0606 422.52 26.6023 422.724 26.0568L425.94 26.6364C425.683 27.5833 425.221 28.4129 424.554 29.125C423.895 29.8295 423.065 30.3788 422.065 30.7727C421.073 31.1591 419.94 31.3523 418.668 31.3523ZM433.324 20.6364V31H429.926V13.5455H433.188V16.3864H433.403C433.805 15.4621 434.434 14.7197 435.29 14.1591C436.153 13.5985 437.241 13.3182 438.551 13.3182C439.741 13.3182 440.782 13.5682 441.676 14.0682C442.57 14.5606 443.263 15.2955 443.756 16.2727C444.248 17.25 444.494 18.4583 444.494 19.8977V31H441.097V20.3068C441.097 19.0417 440.767 18.053 440.108 17.3409C439.449 16.6212 438.544 16.2614 437.392 16.2614C436.604 16.2614 435.903 16.4318 435.29 16.7727C434.684 17.1136 434.203 17.6136 433.847 18.2727C433.498 18.9242 433.324 19.7121 433.324 20.6364ZM457.199 13.5455V16.2727H447.665V13.5455H457.199ZM450.222 9.36364H453.619V25.875C453.619 26.5341 453.718 27.0303 453.915 27.3636C454.112 27.6894 454.366 27.9129 454.676 28.0341C454.994 28.1477 455.339 28.2045 455.71 28.2045C455.983 28.2045 456.222 28.1856 456.426 28.1477C456.631 28.1098 456.79 28.0795 456.903 28.0568L457.517 30.8636C457.32 30.9394 457.04 31.0152 456.676 31.0909C456.313 31.1742 455.858 31.2197 455.313 31.2273C454.419 31.2424 453.585 31.0833 452.813 30.75C452.04 30.4167 451.415 29.9015 450.938 29.2045C450.46 28.5076 450.222 27.6326 450.222 26.5795V9.36364ZM466.037 31.3864C464.931 31.3864 463.931 31.1818 463.037 30.7727C462.143 30.3561 461.435 29.7538 460.912 28.9659C460.397 28.178 460.139 27.2121 460.139 26.0682C460.139 25.0833 460.329 24.2727 460.707 23.6364C461.086 23 461.598 22.4962 462.242 22.125C462.885 21.7538 463.605 21.4735 464.401 21.2841C465.196 21.0947 466.007 20.9508 466.832 20.8523C467.878 20.7311 468.726 20.6326 469.378 20.5568C470.029 20.4735 470.503 20.3409 470.798 20.1591C471.094 19.9773 471.242 19.6818 471.242 19.2727V19.1932C471.242 18.2008 470.961 17.4318 470.401 16.8864C469.848 16.3409 469.022 16.0682 467.923 16.0682C466.779 16.0682 465.878 16.322 465.219 16.8295C464.567 17.3295 464.117 17.8864 463.867 18.5L460.673 17.7727C461.052 16.7121 461.605 15.8561 462.332 15.2045C463.067 14.5455 463.912 14.0682 464.867 13.7727C465.821 13.4697 466.825 13.3182 467.878 13.3182C468.575 13.3182 469.313 13.4015 470.094 13.5682C470.882 13.7273 471.617 14.0227 472.298 14.4545C472.988 14.8864 473.552 15.5038 473.992 16.3068C474.431 17.1023 474.651 18.1364 474.651 19.4091V31H471.332V28.6136H471.196C470.976 29.053 470.647 29.4848 470.207 29.9091C469.768 30.3333 469.204 30.6856 468.514 30.9659C467.825 31.2462 466.999 31.3864 466.037 31.3864ZM466.776 28.6591C467.715 28.6591 468.518 28.4735 469.185 28.1023C469.859 27.7311 470.37 27.2462 470.719 26.6477C471.075 26.0417 471.253 25.3939 471.253 24.7045V22.4545C471.132 22.5758 470.897 22.6894 470.548 22.7955C470.207 22.8939 469.817 22.9811 469.378 23.0568C468.938 23.125 468.51 23.1894 468.094 23.25C467.677 23.303 467.329 23.3485 467.048 23.3864C466.389 23.4697 465.787 23.6098 465.242 23.8068C464.704 24.0038 464.272 24.2879 463.946 24.6591C463.628 25.0227 463.469 25.5076 463.469 26.1136C463.469 26.9545 463.779 27.5909 464.401 28.0227C465.022 28.447 465.813 28.6591 466.776 28.6591ZM487.324 13.5455V16.2727H477.79V13.5455H487.324ZM480.347 9.36364H483.744V25.875C483.744 26.5341 483.843 27.0303 484.04 27.3636C484.237 27.6894 484.491 27.9129 484.801 28.0341C485.119 28.1477 485.464 28.2045 485.835 28.2045C486.108 28.2045 486.347 28.1856 486.551 28.1477C486.756 28.1098 486.915 28.0795 487.028 28.0568L487.642 30.8636C487.445 30.9394 487.165 31.0152 486.801 31.0909C486.438 31.1742 485.983 31.2197 485.438 31.2273C484.544 31.2424 483.71 31.0833 482.938 30.75C482.165 30.4167 481.54 29.9015 481.063 29.2045C480.585 28.5076 480.347 27.6326 480.347 26.5795V9.36364ZM491.082 31V13.5455H494.48V31H491.082ZM492.798 10.8523C492.207 10.8523 491.7 10.6553 491.276 10.2614C490.859 9.85985 490.651 9.38257 490.651 8.82954C490.651 8.26894 490.859 7.79167 491.276 7.39773C491.7 6.99621 492.207 6.79545 492.798 6.79545C493.389 6.79545 493.893 6.99621 494.31 7.39773C494.734 7.79167 494.946 8.26894 494.946 8.82954C494.946 9.38257 494.734 9.85985 494.31 10.2614C493.893 10.6553 493.389 10.8523 492.798 10.8523ZM506.403 31.3523C504.767 31.3523 503.339 30.9773 502.119 30.2273C500.9 29.4773 499.953 28.428 499.278 27.0795C498.604 25.7311 498.267 24.1553 498.267 22.3523C498.267 20.5417 498.604 18.9583 499.278 17.6023C499.953 16.2462 500.9 15.1932 502.119 14.4432C503.339 13.6932 504.767 13.3182 506.403 13.3182C508.04 13.3182 509.468 13.6932 510.688 14.4432C511.907 15.1932 512.854 16.2462 513.528 17.6023C514.203 18.9583 514.54 20.5417 514.54 22.3523C514.54 24.1553 514.203 25.7311 513.528 27.0795C512.854 28.428 511.907 29.4773 510.688 30.2273C509.468 30.9773 508.04 31.3523 506.403 31.3523ZM506.415 28.5C507.475 28.5 508.354 28.2197 509.051 27.6591C509.748 27.0985 510.263 26.3523 510.597 25.4205C510.938 24.4886 511.108 23.4621 511.108 22.3409C511.108 21.2273 510.938 20.2045 510.597 19.2727C510.263 18.3333 509.748 17.5795 509.051 17.0114C508.354 16.4432 507.475 16.1591 506.415 16.1591C505.347 16.1591 504.46 16.4432 503.756 17.0114C503.059 17.5795 502.54 18.3333 502.199 19.2727C501.866 20.2045 501.699 21.2273 501.699 22.3409C501.699 23.4621 501.866 24.4886 502.199 25.4205C502.54 26.3523 503.059 27.0985 503.756 27.6591C504.46 28.2197 505.347 28.5 506.415 28.5ZM521.73 20.6364V31H518.332V13.5455H521.594V16.3864H521.81C522.211 15.4621 522.84 14.7197 523.696 14.1591C524.56 13.5985 525.647 13.3182 526.957 13.3182C528.147 13.3182 529.188 13.5682 530.082 14.0682C530.976 14.5606 531.67 15.2955 532.162 16.2727C532.654 17.25 532.901 18.4583 532.901 19.8977V31H529.503V20.3068C529.503 19.0417 529.173 18.053 528.514 17.3409C527.855 16.6212 526.95 16.2614 525.798 16.2614C525.01 16.2614 524.31 16.4318 523.696 16.7727C523.09 17.1136 522.609 17.6136 522.253 18.2727C521.904 18.9242 521.73 19.7121 521.73 20.6364ZM549.71 31L544.574 13.5455H548.085L551.506 26.3636H551.676L555.108 13.5455H558.619L562.028 26.3068H562.199L565.597 13.5455H569.108L563.983 31H560.517L556.972 18.3977H556.71L553.165 31H549.71ZM572.332 31V13.5455H575.73V31H572.332ZM574.048 10.8523C573.457 10.8523 572.95 10.6553 572.526 10.2614C572.109 9.85985 571.901 9.38257 571.901 8.82954C571.901 8.26894 572.109 7.79167 572.526 7.39773C572.95 6.99621 573.457 6.79545 574.048 6.79545C574.639 6.79545 575.143 6.99621 575.56 7.39773C575.984 7.79167 576.196 8.26894 576.196 8.82954C576.196 9.38257 575.984 9.85985 575.56 10.2614C575.143 10.6553 574.639 10.8523 574.048 10.8523ZM588.449 13.5455V16.2727H578.915V13.5455H588.449ZM581.472 9.36364H584.869V25.875C584.869 26.5341 584.968 27.0303 585.165 27.3636C585.362 27.6894 585.616 27.9129 585.926 28.0341C586.244 28.1477 586.589 28.2045 586.96 28.2045C587.233 28.2045 587.472 28.1856 587.676 28.1477C587.881 28.1098 588.04 28.0795 588.153 28.0568L588.767 30.8636C588.57 30.9394 588.29 31.0152 587.926 31.0909C587.563 31.1742 587.108 31.2197 586.563 31.2273C585.669 31.2424 584.835 31.0833 584.063 30.75C583.29 30.4167 582.665 29.9015 582.188 29.2045C581.71 28.5076 581.472 27.6326 581.472 26.5795V9.36364ZM595.98 20.6364V31H592.582V7.72727H595.935V16.3864H596.151C596.56 15.447 597.185 14.7008 598.026 14.1477C598.867 13.5947 599.965 13.3182 601.321 13.3182C602.518 13.3182 603.563 13.5644 604.457 14.0568C605.359 14.5492 606.056 15.2841 606.548 16.2614C607.048 17.2311 607.298 18.4432 607.298 19.8977V31H603.901V20.3068C603.901 19.0265 603.571 18.0341 602.912 17.3295C602.253 16.6174 601.336 16.2614 600.162 16.2614C599.359 16.2614 598.639 16.4318 598.003 16.7727C597.374 17.1136 596.878 17.6136 596.514 18.2727C596.158 18.9242 595.98 19.7121 595.98 20.6364ZM119.761 70V46.7273H134.352V49.75H123.273V56.8409H133.591V59.8523H123.273V66.9773H134.489V70H119.761ZM143.849 70.3864C142.743 70.3864 141.743 70.1818 140.849 69.7727C139.956 69.3561 139.247 68.7538 138.724 67.9659C138.209 67.178 137.952 66.2121 137.952 65.0682C137.952 64.0833 138.141 63.2727 138.52 62.6364C138.899 62 139.41 61.4962 140.054 61.125C140.698 60.7538 141.418 60.4735 142.213 60.2841C143.009 60.0947 143.819 59.9508 144.645 59.8523C145.69 59.7311 146.539 59.6326 147.19 59.5568C147.842 59.4735 148.315 59.3409 148.611 59.1591C148.906 58.9773 149.054 58.6818 149.054 58.2727V58.1932C149.054 57.2008 148.774 56.4318 148.213 55.8864C147.66 55.3409 146.834 55.0682 145.736 55.0682C144.592 55.0682 143.69 55.322 143.031 55.8295C142.38 56.3295 141.929 56.8864 141.679 57.5L138.486 56.7727C138.865 55.7121 139.418 54.8561 140.145 54.2045C140.88 53.5455 141.724 53.0682 142.679 52.7727C143.634 52.4697 144.637 52.3182 145.69 52.3182C146.387 52.3182 147.126 52.4015 147.906 52.5682C148.694 52.7273 149.429 53.0227 150.111 53.4545C150.8 53.8864 151.365 54.5038 151.804 55.3068C152.243 56.1023 152.463 57.1364 152.463 58.4091V70H149.145V67.6136H149.009C148.789 68.053 148.459 68.4848 148.02 68.9091C147.581 69.3333 147.016 69.6856 146.327 69.9659C145.637 70.2462 144.812 70.3864 143.849 70.3864ZM144.588 67.6591C145.528 67.6591 146.331 67.4735 146.997 67.1023C147.671 66.7311 148.183 66.2462 148.531 65.6477C148.887 65.0417 149.065 64.3939 149.065 63.7045V61.4545C148.944 61.5758 148.709 61.6894 148.361 61.7955C148.02 61.8939 147.63 61.9811 147.19 62.0568C146.751 62.125 146.323 62.1894 145.906 62.25C145.49 62.303 145.141 62.3485 144.861 62.3864C144.202 62.4697 143.599 62.6098 143.054 62.8068C142.516 63.0038 142.084 63.2879 141.759 63.6591C141.44 64.0227 141.281 64.5076 141.281 65.1136C141.281 65.9545 141.592 66.5909 142.213 67.0227C142.834 67.447 143.626 67.6591 144.588 67.6591ZM165.136 52.5455V55.2727H155.602V52.5455H165.136ZM158.159 48.3636H161.557V64.875C161.557 65.5341 161.655 66.0303 161.852 66.3636C162.049 66.6894 162.303 66.9129 162.614 67.0341C162.932 67.1477 163.277 67.2045 163.648 67.2045C163.92 67.2045 164.159 67.1856 164.364 67.1477C164.568 67.1098 164.727 67.0795 164.841 67.0568L165.455 69.8636C165.258 69.9394 164.977 70.0152 164.614 70.0909C164.25 70.1742 163.795 70.2197 163.25 70.2273C162.356 70.2424 161.523 70.0833 160.75 69.75C159.977 69.4167 159.352 68.9015 158.875 68.2045C158.398 67.5076 158.159 66.6326 158.159 65.5795V48.3636ZM172.668 59.6364V70H169.27V46.7273H172.622V55.3864H172.838C173.247 54.447 173.872 53.7008 174.713 53.1477C175.554 52.5947 176.653 52.3182 178.009 52.3182C179.206 52.3182 180.251 52.5644 181.145 53.0568C182.046 53.5492 182.743 54.2841 183.236 55.2614C183.736 56.2311 183.986 57.4432 183.986 58.8977V70H180.588V59.3068C180.588 58.0265 180.259 57.0341 179.599 56.3295C178.94 55.6174 178.024 55.2614 176.849 55.2614C176.046 55.2614 175.327 55.4318 174.69 55.7727C174.062 56.1136 173.565 56.6136 173.202 57.2727C172.846 57.9242 172.668 58.7121 172.668 59.6364ZM188.52 70V52.5455H191.918V70H188.52ZM190.236 49.8523C189.645 49.8523 189.137 49.6553 188.713 49.2614C188.296 48.8598 188.088 48.3826 188.088 47.8295C188.088 47.2689 188.296 46.7917 188.713 46.3977C189.137 45.9962 189.645 45.7955 190.236 45.7955C190.827 45.7955 191.331 45.9962 191.747 46.3977C192.171 46.7917 192.384 47.2689 192.384 47.8295C192.384 48.3826 192.171 48.8598 191.747 49.2614C191.331 49.6553 190.827 49.8523 190.236 49.8523ZM196.489 70V52.5455H199.773V55.3182H199.955C200.273 54.3788 200.833 53.6402 201.636 53.1023C202.447 52.5568 203.364 52.2841 204.386 52.2841C204.599 52.2841 204.849 52.2917 205.136 52.3068C205.432 52.322 205.663 52.3409 205.83 52.3636V55.6136C205.693 55.5758 205.451 55.5341 205.102 55.4886C204.754 55.4356 204.405 55.4091 204.057 55.4091C203.254 55.4091 202.538 55.5795 201.909 55.9205C201.288 56.2538 200.795 56.7197 200.432 57.3182C200.068 57.9091 199.886 58.5833 199.886 59.3409V70H196.489ZM208.77 70V52.5455H212.168V70H208.77ZM210.486 49.8523C209.895 49.8523 209.387 49.6553 208.963 49.2614C208.546 48.8598 208.338 48.3826 208.338 47.8295C208.338 47.2689 208.546 46.7917 208.963 46.3977C209.387 45.9962 209.895 45.7955 210.486 45.7955C211.077 45.7955 211.581 45.9962 211.997 46.3977C212.421 46.7917 212.634 47.2689 212.634 47.8295C212.634 48.3826 212.421 48.8598 211.997 49.2614C211.581 49.6553 211.077 49.8523 210.486 49.8523ZM227.795 62.7614V52.5455H231.205V70H227.864V66.9773H227.682C227.28 67.9091 226.636 68.6856 225.75 69.3068C224.871 69.9205 223.777 70.2273 222.466 70.2273C221.345 70.2273 220.352 69.9811 219.489 69.4886C218.633 68.9886 217.958 68.25 217.466 67.2727C216.981 66.2955 216.739 65.0871 216.739 63.6477V52.5455H220.136V63.2386C220.136 64.428 220.466 65.375 221.125 66.0795C221.784 66.7841 222.64 67.1364 223.693 67.1364C224.33 67.1364 224.962 66.9773 225.591 66.6591C226.227 66.3409 226.754 65.8598 227.17 65.2159C227.595 64.572 227.803 63.7538 227.795 62.7614ZM235.77 70V52.5455H239.031V55.3864H239.247C239.611 54.4242 240.206 53.6742 241.031 53.1364C241.857 52.5909 242.846 52.3182 243.997 52.3182C245.164 52.3182 246.141 52.5909 246.929 53.1364C247.724 53.6818 248.312 54.4318 248.69 55.3864H248.872C249.289 54.4545 249.952 53.7121 250.861 53.1591C251.77 52.5985 252.853 52.3182 254.111 52.3182C255.694 52.3182 256.986 52.8144 257.986 53.8068C258.993 54.7992 259.497 56.2955 259.497 58.2955V70H256.099V58.6136C256.099 57.4318 255.778 56.5758 255.134 56.0455C254.49 55.5152 253.721 55.25 252.827 55.25C251.721 55.25 250.861 55.5909 250.247 56.2727C249.634 56.947 249.327 57.8144 249.327 58.875V70H245.94V58.3977C245.94 57.4508 245.645 56.6894 245.054 56.1136C244.463 55.5379 243.694 55.25 242.747 55.25C242.103 55.25 241.509 55.4205 240.963 55.7614C240.425 56.0947 239.99 56.5606 239.656 57.1591C239.331 57.7576 239.168 58.4508 239.168 59.2386V70H235.77ZM93.2131 104.727C92.2964 104.727 91.4593 104.504 90.7017 104.057C89.9442 103.602 89.3381 102.996 88.8836 102.239C88.4366 101.481 88.2131 100.644 88.2131 99.7273C88.2131 98.803 88.4366 97.9659 88.8836 97.2159C89.3381 96.4583 89.9442 95.8561 90.7017 95.4091C91.4593 94.9545 92.2964 94.7273 93.2131 94.7273C94.1374 94.7273 94.9745 94.9545 95.7245 95.4091C96.4821 95.8561 97.0843 96.4583 97.5313 97.2159C97.9858 97.9659 98.2131 98.803 98.2131 99.7273C98.2131 100.644 97.9858 101.481 97.5313 102.239C97.0843 102.996 96.4821 103.602 95.7245 104.057C94.9745 104.504 94.1374 104.727 93.2131 104.727ZM119.761 85.7273H124.023L131.432 103.818H131.705L139.114 85.7273H143.375V109H140.034V92.1591H139.818L132.955 108.966H130.182L123.318 92.1477H123.102V109H119.761V85.7273ZM159.264 101.761V91.5455H162.673V109H159.332V105.977H159.151C158.749 106.909 158.105 107.686 157.219 108.307C156.34 108.92 155.245 109.227 153.935 109.227C152.813 109.227 151.821 108.981 150.957 108.489C150.101 107.989 149.427 107.25 148.935 106.273C148.45 105.295 148.207 104.087 148.207 102.648V91.5455H151.605V102.239C151.605 103.428 151.935 104.375 152.594 105.08C153.253 105.784 154.109 106.136 155.162 106.136C155.798 106.136 156.431 105.977 157.06 105.659C157.696 105.341 158.223 104.86 158.639 104.216C159.063 103.572 159.272 102.754 159.264 101.761ZM180.318 95.8068L177.239 96.3523C177.11 95.9583 176.905 95.5833 176.625 95.2273C176.352 94.8712 175.981 94.5795 175.511 94.3523C175.042 94.125 174.455 94.0114 173.75 94.0114C172.788 94.0114 171.985 94.2273 171.341 94.6591C170.697 95.0833 170.375 95.6326 170.375 96.3068C170.375 96.8902 170.591 97.3598 171.023 97.7159C171.455 98.072 172.152 98.3636 173.114 98.5909L175.886 99.2273C177.492 99.5985 178.689 100.17 179.477 100.943C180.265 101.716 180.659 102.72 180.659 103.955C180.659 105 180.356 105.932 179.75 106.75C179.152 107.561 178.314 108.197 177.239 108.659C176.17 109.121 174.932 109.352 173.523 109.352C171.568 109.352 169.974 108.936 168.739 108.102C167.504 107.261 166.746 106.068 166.466 104.523L169.75 104.023C169.955 104.879 170.375 105.527 171.011 105.966C171.648 106.398 172.477 106.614 173.5 106.614C174.614 106.614 175.504 106.383 176.17 105.92C176.837 105.451 177.17 104.879 177.17 104.205C177.17 103.659 176.966 103.201 176.557 102.83C176.155 102.458 175.538 102.178 174.705 101.989L171.75 101.341C170.121 100.97 168.917 100.379 168.136 99.5682C167.364 98.7576 166.977 97.7311 166.977 96.4886C166.977 95.4583 167.265 94.5568 167.841 93.7841C168.417 93.0114 169.212 92.4091 170.227 91.9773C171.242 91.5379 172.405 91.3182 173.716 91.3182C175.602 91.3182 177.087 91.7273 178.17 92.5455C179.254 93.3561 179.97 94.4432 180.318 95.8068ZM184.395 109V91.5455H187.793V109H184.395ZM186.111 88.8523C185.52 88.8523 185.012 88.6553 184.588 88.2614C184.171 87.8598 183.963 87.3826 183.963 86.8295C183.963 86.2689 184.171 85.7917 184.588 85.3977C185.012 84.9962 185.52 84.7955 186.111 84.7955C186.702 84.7955 187.206 84.9962 187.622 85.3977C188.046 85.7917 188.259 86.2689 188.259 86.8295C188.259 87.3826 188.046 87.8598 187.622 88.2614C187.206 88.6553 186.702 88.8523 186.111 88.8523ZM199.716 109.352C198.027 109.352 196.572 108.97 195.352 108.205C194.14 107.432 193.208 106.367 192.557 105.011C191.905 103.655 191.58 102.102 191.58 100.352C191.58 98.5795 191.913 97.0152 192.58 95.6591C193.246 94.2955 194.186 93.2311 195.398 92.4659C196.61 91.7008 198.038 91.3182 199.682 91.3182C201.008 91.3182 202.189 91.5644 203.227 92.0568C204.265 92.5417 205.102 93.2235 205.739 94.1023C206.383 94.9811 206.765 96.0076 206.886 97.1818H203.58C203.398 96.3636 202.981 95.6591 202.33 95.0682C201.686 94.4773 200.822 94.1818 199.739 94.1818C198.792 94.1818 197.962 94.4318 197.25 94.9318C196.545 95.4242 195.996 96.1288 195.602 97.0455C195.208 97.9545 195.011 99.0303 195.011 100.273C195.011 101.545 195.205 102.644 195.591 103.568C195.977 104.492 196.523 105.208 197.227 105.716C197.939 106.223 198.777 106.477 199.739 106.477C200.383 106.477 200.966 106.36 201.489 106.125C202.019 105.883 202.462 105.538 202.818 105.091C203.182 104.644 203.436 104.106 203.58 103.477H206.886C206.765 104.606 206.398 105.614 205.784 106.5C205.17 107.386 204.349 108.083 203.318 108.591C202.295 109.098 201.095 109.352 199.716 109.352ZM238.045 85.7273V109H234.818L222.989 91.9318H222.773V109H219.261V85.7273H222.511L234.352 102.818H234.568V85.7273H238.045ZM243.168 109V85.7273H257.599V88.75H246.679V95.8409H256.565V98.8523H246.679V109H243.168ZM260.77 88.75V85.7273H278.781V88.75H271.52V109H268.02V88.75H260.77ZM291.23 109V85.7273H294.742V105.977H305.287V109H291.23ZM314.099 109.386C312.993 109.386 311.993 109.182 311.099 108.773C310.206 108.356 309.497 107.754 308.974 106.966C308.459 106.178 308.202 105.212 308.202 104.068C308.202 103.083 308.391 102.273 308.77 101.636C309.149 101 309.66 100.496 310.304 100.125C310.948 99.7538 311.668 99.4735 312.463 99.2841C313.259 99.0947 314.069 98.9508 314.895 98.8523C315.94 98.7311 316.789 98.6326 317.44 98.5568C318.092 98.4735 318.565 98.3409 318.861 98.1591C319.156 97.9773 319.304 97.6818 319.304 97.2727V97.1932C319.304 96.2008 319.024 95.4318 318.463 94.8864C317.91 94.3409 317.084 94.0682 315.986 94.0682C314.842 94.0682 313.94 94.322 313.281 94.8295C312.63 95.3295 312.179 95.8864 311.929 96.5L308.736 95.7727C309.115 94.7121 309.668 93.8561 310.395 93.2045C311.13 92.5455 311.974 92.0682 312.929 91.7727C313.884 91.4697 314.887 91.3182 315.94 91.3182C316.637 91.3182 317.376 91.4015 318.156 91.5682C318.944 91.7273 319.679 92.0227 320.361 92.4545C321.05 92.8864 321.615 93.5038 322.054 94.3068C322.493 95.1023 322.713 96.1364 322.713 97.4091V109H319.395V106.614H319.259C319.039 107.053 318.709 107.485 318.27 107.909C317.831 108.333 317.266 108.686 316.577 108.966C315.887 109.246 315.062 109.386 314.099 109.386ZM314.838 106.659C315.778 106.659 316.581 106.473 317.247 106.102C317.921 105.731 318.433 105.246 318.781 104.648C319.137 104.042 319.315 103.394 319.315 102.705V100.455C319.194 100.576 318.959 100.689 318.611 100.795C318.27 100.894 317.88 100.981 317.44 101.057C317.001 101.125 316.573 101.189 316.156 101.25C315.74 101.303 315.391 101.348 315.111 101.386C314.452 101.47 313.849 101.61 313.304 101.807C312.766 102.004 312.334 102.288 312.009 102.659C311.69 103.023 311.531 103.508 311.531 104.114C311.531 104.955 311.842 105.591 312.463 106.023C313.084 106.447 313.876 106.659 314.838 106.659ZM338.295 101.761V91.5455H341.705V109H338.364V105.977H338.182C337.78 106.909 337.136 107.686 336.25 108.307C335.371 108.92 334.277 109.227 332.966 109.227C331.845 109.227 330.852 108.981 329.989 108.489C329.133 107.989 328.458 107.25 327.966 106.273C327.481 105.295 327.239 104.087 327.239 102.648V91.5455H330.636V102.239C330.636 103.428 330.966 104.375 331.625 105.08C332.284 105.784 333.14 106.136 334.193 106.136C334.83 106.136 335.462 105.977 336.091 105.659C336.727 105.341 337.254 104.86 337.67 104.216C338.095 103.572 338.303 102.754 338.295 101.761ZM349.668 98.6364V109H346.27V91.5455H349.531V94.3864H349.747C350.149 93.4621 350.778 92.7197 351.634 92.1591C352.497 91.5985 353.584 91.3182 354.895 91.3182C356.084 91.3182 357.126 91.5682 358.02 92.0682C358.914 92.5606 359.607 93.2955 360.099 94.2727C360.592 95.25 360.838 96.4583 360.838 97.8977V109H357.44V98.3068C357.44 97.0417 357.111 96.053 356.452 95.3409C355.793 94.6212 354.887 94.2614 353.736 94.2614C352.948 94.2614 352.247 94.4318 351.634 94.7727C351.028 95.1136 350.546 95.6136 350.19 96.2727C349.842 96.9242 349.668 97.7121 349.668 98.6364ZM372.747 109.352C371.058 109.352 369.603 108.97 368.384 108.205C367.171 107.432 366.24 106.367 365.588 105.011C364.937 103.655 364.611 102.102 364.611 100.352C364.611 98.5795 364.944 97.0152 365.611 95.6591C366.278 94.2955 367.217 93.2311 368.429 92.4659C369.641 91.7008 371.069 91.3182 372.713 91.3182C374.039 91.3182 375.221 91.5644 376.259 92.0568C377.296 92.5417 378.134 93.2235 378.77 94.1023C379.414 94.9811 379.796 96.0076 379.918 97.1818H376.611C376.429 96.3636 376.012 95.6591 375.361 95.0682C374.717 94.4773 373.853 94.1818 372.77 94.1818C371.823 94.1818 370.993 94.4318 370.281 94.9318C369.577 95.4242 369.028 96.1288 368.634 97.0455C368.24 97.9545 368.043 99.0303 368.043 100.273C368.043 101.545 368.236 102.644 368.622 103.568C369.009 104.492 369.554 105.208 370.259 105.716C370.971 106.223 371.808 106.477 372.77 106.477C373.414 106.477 373.997 106.36 374.52 106.125C375.05 105.883 375.493 105.538 375.849 105.091C376.213 104.644 376.467 104.106 376.611 103.477H379.918C379.796 104.606 379.429 105.614 378.815 106.5C378.202 107.386 377.38 108.083 376.349 108.591C375.327 109.098 374.126 109.352 372.747 109.352ZM386.949 98.6364V109H383.551V85.7273H386.903V94.3864H387.119C387.528 93.447 388.153 92.7008 388.994 92.1477C389.835 91.5947 390.934 91.3182 392.29 91.3182C393.487 91.3182 394.532 91.5644 395.426 92.0568C396.328 92.5492 397.025 93.2841 397.517 94.2614C398.017 95.2311 398.267 96.4432 398.267 97.8977V109H394.869V98.3068C394.869 97.0265 394.54 96.0341 393.881 95.3295C393.222 94.6174 392.305 94.2614 391.131 94.2614C390.328 94.2614 389.608 94.4318 388.972 94.7727C388.343 95.1136 387.847 95.6136 387.483 96.2727C387.127 96.9242 386.949 97.7121 386.949 98.6364ZM402.801 115.545V91.5455H406.119V94.375H406.403C406.6 94.0114 406.885 93.5909 407.256 93.1136C407.627 92.6364 408.142 92.2197 408.801 91.8636C409.46 91.5 410.331 91.3182 411.415 91.3182C412.824 91.3182 414.081 91.6742 415.188 92.3864C416.294 93.0985 417.161 94.125 417.79 95.4659C418.426 96.8068 418.744 98.4205 418.744 100.307C418.744 102.193 418.43 103.811 417.801 105.159C417.172 106.5 416.309 107.534 415.21 108.261C414.112 108.981 412.858 109.341 411.449 109.341C410.388 109.341 409.521 109.163 408.847 108.807C408.18 108.451 407.657 108.034 407.278 107.557C406.9 107.08 406.608 106.655 406.403 106.284H406.199V115.545H402.801ZM406.131 100.273C406.131 101.5 406.309 102.576 406.665 103.5C407.021 104.424 407.536 105.148 408.21 105.67C408.885 106.186 409.71 106.443 410.688 106.443C411.703 106.443 412.551 106.174 413.233 105.636C413.915 105.091 414.43 104.352 414.778 103.42C415.135 102.489 415.313 101.439 415.313 100.273C415.313 99.1212 415.138 98.0871 414.79 97.1705C414.449 96.2538 413.934 95.5303 413.244 95C412.563 94.4697 411.71 94.2045 410.688 94.2045C409.703 94.2045 408.869 94.4583 408.188 94.9659C407.513 95.4735 407.002 96.1818 406.653 97.0909C406.305 98 406.131 99.0606 406.131 100.273ZM427.631 109.386C426.525 109.386 425.525 109.182 424.631 108.773C423.737 108.356 423.028 107.754 422.506 106.966C421.991 106.178 421.733 105.212 421.733 104.068C421.733 103.083 421.922 102.273 422.301 101.636C422.68 101 423.191 100.496 423.835 100.125C424.479 99.7538 425.199 99.4735 425.994 99.2841C426.79 99.0947 427.6 98.9508 428.426 98.8523C429.472 98.7311 430.32 98.6326 430.972 98.5568C431.623 98.4735 432.097 98.3409 432.392 98.1591C432.688 97.9773 432.835 97.6818 432.835 97.2727V97.1932C432.835 96.2008 432.555 95.4318 431.994 94.8864C431.441 94.3409 430.616 94.0682 429.517 94.0682C428.373 94.0682 427.472 94.322 426.813 94.8295C426.161 95.3295 425.71 95.8864 425.46 96.5L422.267 95.7727C422.646 94.7121 423.199 93.8561 423.926 93.2045C424.661 92.5455 425.506 92.0682 426.46 91.7727C427.415 91.4697 428.419 91.3182 429.472 91.3182C430.169 91.3182 430.907 91.4015 431.688 91.5682C432.475 91.7273 433.21 92.0227 433.892 92.4545C434.581 92.8864 435.146 93.5038 435.585 94.3068C436.025 95.1023 436.244 96.1364 436.244 97.4091V109H432.926V106.614H432.79C432.57 107.053 432.241 107.485 431.801 107.909C431.362 108.333 430.797 108.686 430.108 108.966C429.419 109.246 428.593 109.386 427.631 109.386ZM428.369 106.659C429.309 106.659 430.112 106.473 430.778 106.102C431.453 105.731 431.964 105.246 432.313 104.648C432.669 104.042 432.847 103.394 432.847 102.705V100.455C432.725 100.576 432.491 100.689 432.142 100.795C431.801 100.894 431.411 100.981 430.972 101.057C430.532 101.125 430.104 101.189 429.688 101.25C429.271 101.303 428.922 101.348 428.642 101.386C427.983 101.47 427.381 101.61 426.835 101.807C426.297 102.004 425.866 102.288 425.54 102.659C425.222 103.023 425.063 103.508 425.063 104.114C425.063 104.955 425.373 105.591 425.994 106.023C426.616 106.447 427.407 106.659 428.369 106.659ZM447.304 109.341C445.895 109.341 444.637 108.981 443.531 108.261C442.433 107.534 441.569 106.5 440.94 105.159C440.319 103.811 440.009 102.193 440.009 100.307C440.009 98.4205 440.323 96.8068 440.952 95.4659C441.588 94.125 442.459 93.0985 443.565 92.3864C444.671 91.6742 445.925 91.3182 447.327 91.3182C448.41 91.3182 449.281 91.5 449.94 91.8636C450.607 92.2197 451.122 92.6364 451.486 93.1136C451.857 93.5909 452.145 94.0114 452.349 94.375H452.554V85.7273H455.952V109H452.634V106.284H452.349C452.145 106.655 451.849 107.08 451.463 107.557C451.084 108.034 450.562 108.451 449.895 108.807C449.228 109.163 448.365 109.341 447.304 109.341ZM448.054 106.443C449.031 106.443 449.857 106.186 450.531 105.67C451.213 105.148 451.728 104.424 452.077 103.5C452.433 102.576 452.611 101.5 452.611 100.273C452.611 99.0606 452.437 98 452.088 97.0909C451.74 96.1818 451.228 95.4735 450.554 94.9659C449.88 94.4583 449.046 94.2045 448.054 94.2045C447.031 94.2045 446.179 94.4697 445.497 95C444.815 95.5303 444.3 96.2538 443.952 97.1705C443.611 98.0871 443.44 99.1212 443.44 100.273C443.44 101.439 443.615 102.489 443.963 103.42C444.312 104.352 444.827 105.091 445.509 105.636C446.198 106.174 447.046 106.443 448.054 106.443ZM93.2131 143.727C92.2964 143.727 91.4593 143.504 90.7017 143.057C89.9442 142.602 89.3381 141.996 88.8836 141.239C88.4366 140.481 88.2131 139.644 88.2131 138.727C88.2131 137.803 88.4366 136.966 88.8836 136.216C89.3381 135.458 89.9442 134.856 90.7017 134.409C91.4593 133.955 92.2964 133.727 93.2131 133.727C94.1374 133.727 94.9745 133.955 95.7245 134.409C96.4821 134.856 97.0843 135.458 97.5313 136.216C97.9858 136.966 98.2131 137.803 98.2131 138.727C98.2131 139.644 97.9858 140.481 97.5313 141.239C97.0843 141.996 96.4821 142.602 95.7245 143.057C94.9745 143.504 94.1374 143.727 93.2131 143.727ZM138.545 124.727V148H135.318L123.489 130.932H123.273V148H119.761V124.727H123.011L134.852 141.818H135.068V124.727H138.545ZM143.668 148V124.727H158.099V127.75H147.179V134.841H157.065V137.852H147.179V148H143.668ZM161.27 127.75V124.727H179.281V127.75H172.02V148H168.52V127.75H161.27ZM191.73 148V124.727H195.242V144.977H205.787V148H191.73ZM214.599 148.386C213.493 148.386 212.493 148.182 211.599 147.773C210.706 147.356 209.997 146.754 209.474 145.966C208.959 145.178 208.702 144.212 208.702 143.068C208.702 142.083 208.891 141.273 209.27 140.636C209.649 140 210.16 139.496 210.804 139.125C211.448 138.754 212.168 138.473 212.963 138.284C213.759 138.095 214.569 137.951 215.395 137.852C216.44 137.731 217.289 137.633 217.94 137.557C218.592 137.473 219.065 137.341 219.361 137.159C219.656 136.977 219.804 136.682 219.804 136.273V136.193C219.804 135.201 219.524 134.432 218.963 133.886C218.41 133.341 217.584 133.068 216.486 133.068C215.342 133.068 214.44 133.322 213.781 133.83C213.13 134.33 212.679 134.886 212.429 135.5L209.236 134.773C209.615 133.712 210.168 132.856 210.895 132.205C211.63 131.545 212.474 131.068 213.429 130.773C214.384 130.47 215.387 130.318 216.44 130.318C217.137 130.318 217.876 130.402 218.656 130.568C219.444 130.727 220.179 131.023 220.861 131.455C221.55 131.886 222.115 132.504 222.554 133.307C222.993 134.102 223.213 135.136 223.213 136.409V148H219.895V145.614H219.759C219.539 146.053 219.209 146.485 218.77 146.909C218.331 147.333 217.766 147.686 217.077 147.966C216.387 148.246 215.562 148.386 214.599 148.386ZM215.338 145.659C216.278 145.659 217.081 145.473 217.747 145.102C218.421 144.731 218.933 144.246 219.281 143.648C219.637 143.042 219.815 142.394 219.815 141.705V139.455C219.694 139.576 219.459 139.689 219.111 139.795C218.77 139.894 218.38 139.981 217.94 140.057C217.501 140.125 217.073 140.189 216.656 140.25C216.24 140.303 215.891 140.348 215.611 140.386C214.952 140.47 214.349 140.61 213.804 140.807C213.266 141.004 212.834 141.288 212.509 141.659C212.19 142.023 212.031 142.508 212.031 143.114C212.031 143.955 212.342 144.591 212.963 145.023C213.584 145.447 214.376 145.659 215.338 145.659ZM231.136 137.636V148H227.739V130.545H231V133.386H231.216C231.617 132.462 232.246 131.72 233.102 131.159C233.966 130.598 235.053 130.318 236.364 130.318C237.553 130.318 238.595 130.568 239.489 131.068C240.383 131.561 241.076 132.295 241.568 133.273C242.061 134.25 242.307 135.458 242.307 136.898V148H238.909V137.307C238.909 136.042 238.58 135.053 237.92 134.341C237.261 133.621 236.356 133.261 235.205 133.261C234.417 133.261 233.716 133.432 233.102 133.773C232.496 134.114 232.015 134.614 231.659 135.273C231.311 135.924 231.136 136.712 231.136 137.636ZM253.398 148.341C251.989 148.341 250.731 147.981 249.625 147.261C248.527 146.534 247.663 145.5 247.034 144.159C246.413 142.811 246.102 141.193 246.102 139.307C246.102 137.42 246.417 135.807 247.045 134.466C247.682 133.125 248.553 132.098 249.659 131.386C250.765 130.674 252.019 130.318 253.42 130.318C254.504 130.318 255.375 130.5 256.034 130.864C256.701 131.22 257.216 131.636 257.58 132.114C257.951 132.591 258.239 133.011 258.443 133.375H258.648V124.727H262.045V148H258.727V145.284H258.443C258.239 145.655 257.943 146.08 257.557 146.557C257.178 147.034 256.655 147.451 255.989 147.807C255.322 148.163 254.458 148.341 253.398 148.341ZM254.148 145.443C255.125 145.443 255.951 145.186 256.625 144.67C257.307 144.148 257.822 143.424 258.17 142.5C258.527 141.576 258.705 140.5 258.705 139.273C258.705 138.061 258.53 137 258.182 136.091C257.833 135.182 257.322 134.473 256.648 133.966C255.974 133.458 255.14 133.205 254.148 133.205C253.125 133.205 252.273 133.47 251.591 134C250.909 134.53 250.394 135.254 250.045 136.17C249.705 137.087 249.534 138.121 249.534 139.273C249.534 140.439 249.708 141.489 250.057 142.42C250.405 143.352 250.92 144.091 251.602 144.636C252.292 145.174 253.14 145.443 254.148 145.443ZM266.895 148V130.545H270.293V148H266.895ZM268.611 127.852C268.02 127.852 267.512 127.655 267.088 127.261C266.671 126.86 266.463 126.383 266.463 125.83C266.463 125.269 266.671 124.792 267.088 124.398C267.512 123.996 268.02 123.795 268.611 123.795C269.202 123.795 269.706 123.996 270.122 124.398C270.546 124.792 270.759 125.269 270.759 125.83C270.759 126.383 270.546 126.86 270.122 127.261C269.706 127.655 269.202 127.852 268.611 127.852ZM278.261 137.636V148H274.864V130.545H278.125V133.386H278.341C278.742 132.462 279.371 131.72 280.227 131.159C281.091 130.598 282.178 130.318 283.489 130.318C284.678 130.318 285.72 130.568 286.614 131.068C287.508 131.561 288.201 132.295 288.693 133.273C289.186 134.25 289.432 135.458 289.432 136.898V148H286.034V137.307C286.034 136.042 285.705 135.053 285.045 134.341C284.386 133.621 283.481 133.261 282.33 133.261C281.542 133.261 280.841 133.432 280.227 133.773C279.621 134.114 279.14 134.614 278.784 135.273C278.436 135.924 278.261 136.712 278.261 137.636ZM301.307 154.909C299.92 154.909 298.727 154.727 297.727 154.364C296.735 154 295.924 153.519 295.295 152.92C294.667 152.322 294.197 151.667 293.886 150.955L296.807 149.75C297.011 150.083 297.284 150.436 297.625 150.807C297.974 151.186 298.443 151.508 299.034 151.773C299.633 152.038 300.402 152.17 301.341 152.17C302.629 152.17 303.693 151.856 304.534 151.227C305.375 150.606 305.795 149.614 305.795 148.25V144.818H305.58C305.375 145.189 305.08 145.602 304.693 146.057C304.314 146.511 303.792 146.905 303.125 147.239C302.458 147.572 301.591 147.739 300.523 147.739C299.144 147.739 297.902 147.417 296.795 146.773C295.697 146.121 294.826 145.163 294.182 143.898C293.545 142.625 293.227 141.061 293.227 139.205C293.227 137.348 293.542 135.758 294.17 134.432C294.807 133.106 295.678 132.091 296.784 131.386C297.89 130.674 299.144 130.318 300.545 130.318C301.629 130.318 302.504 130.5 303.17 130.864C303.837 131.22 304.356 131.636 304.727 132.114C305.106 132.591 305.398 133.011 305.602 133.375H305.852V130.545H309.182V148.386C309.182 149.886 308.833 151.117 308.136 152.08C307.439 153.042 306.496 153.754 305.307 154.216C304.125 154.678 302.792 154.909 301.307 154.909ZM301.273 144.92C302.25 144.92 303.076 144.693 303.75 144.239C304.432 143.777 304.947 143.117 305.295 142.261C305.652 141.398 305.83 140.364 305.83 139.159C305.83 137.985 305.655 136.951 305.307 136.057C304.958 135.163 304.447 134.466 303.773 133.966C303.099 133.458 302.265 133.205 301.273 133.205C300.25 133.205 299.398 133.47 298.716 134C298.034 134.523 297.519 135.235 297.17 136.136C296.83 137.038 296.659 138.045 296.659 139.159C296.659 140.303 296.833 141.307 297.182 142.17C297.53 143.034 298.045 143.708 298.727 144.193C299.417 144.678 300.265 144.92 301.273 144.92ZM322.48 148V124.727H331.003C332.654 124.727 334.022 125 335.105 125.545C336.188 126.083 336.999 126.814 337.537 127.739C338.075 128.655 338.344 129.689 338.344 130.841C338.344 131.811 338.166 132.629 337.81 133.295C337.454 133.955 336.976 134.485 336.378 134.886C335.787 135.28 335.135 135.568 334.423 135.75V135.977C335.196 136.015 335.95 136.265 336.685 136.727C337.427 137.182 338.041 137.83 338.526 138.67C339.01 139.511 339.253 140.534 339.253 141.739C339.253 142.928 338.973 143.996 338.412 144.943C337.859 145.883 337.003 146.629 335.844 147.182C334.685 147.727 333.204 148 331.401 148H322.48ZM325.992 144.989H331.06C332.742 144.989 333.946 144.663 334.673 144.011C335.401 143.36 335.764 142.545 335.764 141.568C335.764 140.833 335.579 140.159 335.207 139.545C334.836 138.932 334.306 138.443 333.617 138.08C332.935 137.716 332.124 137.534 331.185 137.534H325.992V144.989ZM325.992 134.795H330.696C331.484 134.795 332.192 134.644 332.821 134.341C333.457 134.038 333.961 133.614 334.332 133.068C334.711 132.515 334.901 131.864 334.901 131.114C334.901 130.152 334.563 129.345 333.889 128.693C333.215 128.042 332.181 127.716 330.787 127.716H325.992V134.795ZM350.497 148.352C348.861 148.352 347.433 147.977 346.213 147.227C344.993 146.477 344.046 145.428 343.372 144.08C342.698 142.731 342.361 141.155 342.361 139.352C342.361 137.542 342.698 135.958 343.372 134.602C344.046 133.246 344.993 132.193 346.213 131.443C347.433 130.693 348.861 130.318 350.497 130.318C352.134 130.318 353.562 130.693 354.781 131.443C356.001 132.193 356.948 133.246 357.622 134.602C358.296 135.958 358.634 137.542 358.634 139.352C358.634 141.155 358.296 142.731 357.622 144.08C356.948 145.428 356.001 146.477 354.781 147.227C353.562 147.977 352.134 148.352 350.497 148.352ZM350.509 145.5C351.569 145.5 352.448 145.22 353.145 144.659C353.842 144.098 354.357 143.352 354.69 142.42C355.031 141.489 355.202 140.462 355.202 139.341C355.202 138.227 355.031 137.205 354.69 136.273C354.357 135.333 353.842 134.58 353.145 134.011C352.448 133.443 351.569 133.159 350.509 133.159C349.44 133.159 348.554 133.443 347.849 134.011C347.153 134.58 346.634 135.333 346.293 136.273C345.959 137.205 345.793 138.227 345.793 139.341C345.793 140.462 345.959 141.489 346.293 142.42C346.634 143.352 347.153 144.098 347.849 144.659C348.554 145.22 349.44 145.5 350.509 145.5ZM362.426 148V130.545H365.71V133.318H365.892C366.21 132.379 366.771 131.64 367.574 131.102C368.385 130.557 369.301 130.284 370.324 130.284C370.536 130.284 370.786 130.292 371.074 130.307C371.369 130.322 371.6 130.341 371.767 130.364V133.614C371.631 133.576 371.388 133.534 371.04 133.489C370.691 133.436 370.343 133.409 369.994 133.409C369.191 133.409 368.475 133.58 367.847 133.92C367.225 134.254 366.733 134.72 366.369 135.318C366.006 135.909 365.824 136.583 365.824 137.341V148H362.426ZM374.707 148V130.545H377.992V133.318H378.173C378.492 132.379 379.052 131.64 379.855 131.102C380.666 130.557 381.582 130.284 382.605 130.284C382.817 130.284 383.067 130.292 383.355 130.307C383.651 130.322 383.882 130.341 384.048 130.364V133.614C383.912 133.576 383.67 133.534 383.321 133.489C382.973 133.436 382.624 133.409 382.276 133.409C381.473 133.409 380.757 133.58 380.128 133.92C379.507 134.254 379.014 134.72 378.651 135.318C378.287 135.909 378.105 136.583 378.105 137.341V148H374.707ZM393.716 148.352C392.08 148.352 390.652 147.977 389.432 147.227C388.212 146.477 387.265 145.428 386.591 144.08C385.917 142.731 385.58 141.155 385.58 139.352C385.58 137.542 385.917 135.958 386.591 134.602C387.265 133.246 388.212 132.193 389.432 131.443C390.652 130.693 392.08 130.318 393.716 130.318C395.352 130.318 396.78 130.693 398 131.443C399.22 132.193 400.167 133.246 400.841 134.602C401.515 135.958 401.852 137.542 401.852 139.352C401.852 141.155 401.515 142.731 400.841 144.08C400.167 145.428 399.22 146.477 398 147.227C396.78 147.977 395.352 148.352 393.716 148.352ZM393.727 145.5C394.788 145.5 395.667 145.22 396.364 144.659C397.061 144.098 397.576 143.352 397.909 142.42C398.25 141.489 398.42 140.462 398.42 139.341C398.42 138.227 398.25 137.205 397.909 136.273C397.576 135.333 397.061 134.58 396.364 134.011C395.667 133.443 394.788 133.159 393.727 133.159C392.659 133.159 391.773 133.443 391.068 134.011C390.371 134.58 389.852 135.333 389.511 136.273C389.178 137.205 389.011 138.227 389.011 139.341C389.011 140.462 389.178 141.489 389.511 142.42C389.852 143.352 390.371 144.098 391.068 144.659C391.773 145.22 392.659 145.5 393.727 145.5ZM408.898 148L403.761 130.545H407.273L410.693 143.364H410.864L414.295 130.545H417.807L421.216 143.307H421.386L424.784 130.545H428.295L423.17 148H419.705L416.159 135.398H415.898L412.352 148H408.898ZM431.52 148V130.545H434.918V148H431.52ZM433.236 127.852C432.645 127.852 432.137 127.655 431.713 127.261C431.296 126.86 431.088 126.383 431.088 125.83C431.088 125.269 431.296 124.792 431.713 124.398C432.137 123.996 432.645 123.795 433.236 123.795C433.827 123.795 434.331 123.996 434.747 124.398C435.171 124.792 435.384 125.269 435.384 125.83C435.384 126.383 435.171 126.86 434.747 127.261C434.331 127.655 433.827 127.852 433.236 127.852ZM442.886 137.636V148H439.489V130.545H442.75V133.386H442.966C443.367 132.462 443.996 131.72 444.852 131.159C445.716 130.598 446.803 130.318 448.114 130.318C449.303 130.318 450.345 130.568 451.239 131.068C452.133 131.561 452.826 132.295 453.318 133.273C453.811 134.25 454.057 135.458 454.057 136.898V148H450.659V137.307C450.659 136.042 450.33 135.053 449.67 134.341C449.011 133.621 448.106 133.261 446.955 133.261C446.167 133.261 445.466 133.432 444.852 133.773C444.246 134.114 443.765 134.614 443.409 135.273C443.061 135.924 442.886 136.712 442.886 137.636ZM465.932 154.909C464.545 154.909 463.352 154.727 462.352 154.364C461.36 154 460.549 153.519 459.92 152.92C459.292 152.322 458.822 151.667 458.511 150.955L461.432 149.75C461.636 150.083 461.909 150.436 462.25 150.807C462.599 151.186 463.068 151.508 463.659 151.773C464.258 152.038 465.027 152.17 465.966 152.17C467.254 152.17 468.318 151.856 469.159 151.227C470 150.606 470.42 149.614 470.42 148.25V144.818H470.205C470 145.189 469.705 145.602 469.318 146.057C468.939 146.511 468.417 146.905 467.75 147.239C467.083 147.572 466.216 147.739 465.148 147.739C463.769 147.739 462.527 147.417 461.42 146.773C460.322 146.121 459.451 145.163 458.807 143.898C458.17 142.625 457.852 141.061 457.852 139.205C457.852 137.348 458.167 135.758 458.795 134.432C459.432 133.106 460.303 132.091 461.409 131.386C462.515 130.674 463.769 130.318 465.17 130.318C466.254 130.318 467.129 130.5 467.795 130.864C468.462 131.22 468.981 131.636 469.352 132.114C469.731 132.591 470.023 133.011 470.227 133.375H470.477V130.545H473.807V148.386C473.807 149.886 473.458 151.117 472.761 152.08C472.064 153.042 471.121 153.754 469.932 154.216C468.75 154.678 467.417 154.909 465.932 154.909ZM465.898 144.92C466.875 144.92 467.701 144.693 468.375 144.239C469.057 143.777 469.572 143.117 469.92 142.261C470.277 141.398 470.455 140.364 470.455 139.159C470.455 137.985 470.28 136.951 469.932 136.057C469.583 135.163 469.072 134.466 468.398 133.966C467.724 133.458 466.89 133.205 465.898 133.205C464.875 133.205 464.023 133.47 463.341 134C462.659 134.523 462.144 135.235 461.795 136.136C461.455 137.038 461.284 138.045 461.284 139.159C461.284 140.303 461.458 141.307 461.807 142.17C462.155 143.034 462.67 143.708 463.352 144.193C464.042 144.678 464.89 144.92 465.898 144.92Z" fill="#BA1E71"/>
<line x1="93.7046" y1="20" x2="93.7046" y2="335" stroke="#BA1E71"/>
</svg>
