<svg width="646" height="386" viewBox="0 0 646 386" fill="none" xmlns="http://www.w3.org/2000/svg">
<path d="M368 335L314 379.167V290.833L368 335Z" fill="#BA1E71"/>
<path fill-rule="evenodd" clip-rule="evenodd" d="M0.20459 379L54 335L0.20459 291H314V379H0.20459Z" fill="#BA1E71"/>
<path d="M128.011 349V346.443L137.614 335.932C138.741 334.701 139.669 333.631 140.398 332.722C141.127 331.803 141.667 330.941 142.017 330.136C142.377 329.322 142.557 328.47 142.557 327.58C142.557 326.557 142.311 325.671 141.818 324.923C141.335 324.175 140.672 323.598 139.83 323.19C138.987 322.783 138.04 322.58 136.989 322.58C135.871 322.58 134.896 322.812 134.062 323.276C133.239 323.73 132.599 324.369 132.145 325.193C131.7 326.017 131.477 326.983 131.477 328.091H128.125C128.125 326.386 128.518 324.89 129.304 323.602C130.09 322.314 131.16 321.311 132.514 320.591C133.878 319.871 135.407 319.511 137.102 319.511C138.807 319.511 140.317 319.871 141.634 320.591C142.95 321.311 143.982 322.281 144.73 323.503C145.478 324.724 145.852 326.083 145.852 327.58C145.852 328.65 145.658 329.696 145.27 330.719C144.891 331.732 144.228 332.864 143.281 334.114C142.344 335.354 141.042 336.869 139.375 338.659L132.841 345.648V345.875H146.364V349H128.011ZM161.719 349.398C159.579 349.398 157.756 348.815 156.25 347.651C154.744 346.476 153.594 344.777 152.798 342.551C152.003 340.316 151.605 337.617 151.605 334.455C151.605 331.311 152.003 328.626 152.798 326.401C153.603 324.166 154.759 322.461 156.264 321.287C157.779 320.103 159.598 319.511 161.719 319.511C163.84 319.511 165.653 320.103 167.159 321.287C168.674 322.461 169.83 324.166 170.625 326.401C171.43 328.626 171.832 331.311 171.832 334.455C171.832 337.617 171.435 340.316 170.639 342.551C169.844 344.777 168.693 346.476 167.188 347.651C165.682 348.815 163.859 349.398 161.719 349.398ZM161.719 346.273C163.84 346.273 165.488 345.25 166.662 343.205C167.836 341.159 168.423 338.242 168.423 334.455C168.423 331.936 168.153 329.791 167.614 328.02C167.083 326.249 166.316 324.9 165.312 323.972C164.318 323.044 163.12 322.58 161.719 322.58C159.616 322.58 157.973 323.616 156.79 325.69C155.606 327.755 155.014 330.676 155.014 334.455C155.014 336.973 155.279 339.114 155.81 340.875C156.34 342.636 157.102 343.976 158.097 344.895C159.1 345.813 160.308 346.273 161.719 346.273ZM177.23 349V346.443L186.832 335.932C187.959 334.701 188.887 333.631 189.616 332.722C190.346 331.803 190.885 330.941 191.236 330.136C191.596 329.322 191.776 328.47 191.776 327.58C191.776 326.557 191.529 325.671 191.037 324.923C190.554 324.175 189.891 323.598 189.048 323.19C188.205 322.783 187.259 322.58 186.207 322.58C185.09 322.58 184.115 322.812 183.281 323.276C182.457 323.73 181.818 324.369 181.364 325.193C180.919 326.017 180.696 326.983 180.696 328.091H177.344C177.344 326.386 177.737 324.89 178.523 323.602C179.309 322.314 180.379 321.311 181.733 320.591C183.097 319.871 184.626 319.511 186.321 319.511C188.026 319.511 189.536 319.871 190.852 320.591C192.169 321.311 193.201 322.281 193.949 323.503C194.697 324.724 195.071 326.083 195.071 327.58C195.071 328.65 194.877 329.696 194.489 330.719C194.11 331.732 193.447 332.864 192.5 334.114C191.562 335.354 190.26 336.869 188.594 338.659L182.06 345.648V345.875H195.582V349H177.23ZM211.278 349.398C209.403 349.398 207.732 349.076 206.264 348.432C204.806 347.788 203.646 346.893 202.784 345.747C201.932 344.592 201.468 343.252 201.392 341.727H204.972C205.047 342.665 205.369 343.474 205.938 344.156C206.506 344.829 207.249 345.349 208.168 345.719C209.086 346.088 210.104 346.273 211.222 346.273C212.472 346.273 213.58 346.055 214.545 345.619C215.511 345.184 216.269 344.578 216.818 343.801C217.367 343.025 217.642 342.125 217.642 341.102C217.642 340.032 217.377 339.09 216.847 338.276C216.316 337.452 215.54 336.808 214.517 336.344C213.494 335.88 212.244 335.648 210.767 335.648H208.438V332.523H210.767C211.922 332.523 212.936 332.314 213.807 331.898C214.688 331.481 215.374 330.894 215.866 330.136C216.368 329.379 216.619 328.489 216.619 327.466C216.619 326.481 216.402 325.624 215.966 324.895C215.53 324.166 214.915 323.598 214.119 323.19C213.333 322.783 212.405 322.58 211.335 322.58C210.331 322.58 209.384 322.764 208.494 323.134C207.614 323.493 206.894 324.019 206.335 324.71C205.777 325.392 205.473 326.216 205.426 327.182H202.017C202.074 325.657 202.533 324.322 203.395 323.176C204.257 322.021 205.384 321.121 206.776 320.477C208.177 319.833 209.716 319.511 211.392 319.511C213.191 319.511 214.735 319.876 216.023 320.605C217.311 321.325 218.3 322.277 218.991 323.46C219.683 324.644 220.028 325.922 220.028 327.295C220.028 328.934 219.598 330.33 218.736 331.486C217.884 332.641 216.723 333.441 215.256 333.886V334.114C217.093 334.417 218.527 335.198 219.56 336.457C220.592 337.707 221.108 339.256 221.108 341.102C221.108 342.684 220.677 344.104 219.815 345.364C218.963 346.614 217.798 347.598 216.321 348.318C214.844 349.038 213.163 349.398 211.278 349.398ZM249.247 339.909H253.111L256.349 344.17L257.202 345.307L262.031 351.727H258.168L254.986 347.466L254.19 346.386L249.247 339.909ZM263.224 334.455C263.224 337.523 262.67 340.174 261.562 342.409C260.455 344.644 258.935 346.367 257.003 347.58C255.071 348.792 252.865 349.398 250.384 349.398C247.902 349.398 245.696 348.792 243.764 347.58C241.832 346.367 240.313 344.644 239.205 342.409C238.097 340.174 237.543 337.523 237.543 334.455C237.543 331.386 238.097 328.735 239.205 326.5C240.313 324.265 241.832 322.542 243.764 321.33C245.696 320.117 247.902 319.511 250.384 319.511C252.865 319.511 255.071 320.117 257.003 321.33C258.935 322.542 260.455 324.265 261.562 326.5C262.67 328.735 263.224 331.386 263.224 334.455ZM259.815 334.455C259.815 331.936 259.394 329.81 258.551 328.077C257.718 326.344 256.586 325.032 255.156 324.142C253.736 323.252 252.145 322.807 250.384 322.807C248.622 322.807 247.027 323.252 245.597 324.142C244.176 325.032 243.045 326.344 242.202 328.077C241.368 329.81 240.952 331.936 240.952 334.455C240.952 336.973 241.368 339.099 242.202 340.832C243.045 342.565 244.176 343.877 245.597 344.767C247.027 345.657 248.622 346.102 250.384 346.102C252.145 346.102 253.736 345.657 255.156 344.767C256.586 343.877 257.718 342.565 258.551 340.832C259.394 339.099 259.815 336.973 259.815 334.455ZM268.636 349V346.443L278.239 335.932C279.366 334.701 280.294 333.631 281.023 332.722C281.752 331.803 282.292 330.941 282.642 330.136C283.002 329.322 283.182 328.47 283.182 327.58C283.182 326.557 282.936 325.671 282.443 324.923C281.96 324.175 281.297 323.598 280.455 323.19C279.612 322.783 278.665 322.58 277.614 322.58C276.496 322.58 275.521 322.812 274.688 323.276C273.864 323.73 273.224 324.369 272.77 325.193C272.325 326.017 272.102 326.983 272.102 328.091H268.75C268.75 326.386 269.143 324.89 269.929 323.602C270.715 322.314 271.785 321.311 273.139 320.591C274.503 319.871 276.032 319.511 277.727 319.511C279.432 319.511 280.942 319.871 282.259 320.591C283.575 321.311 284.607 322.281 285.355 323.503C286.103 324.724 286.477 326.083 286.477 327.58C286.477 328.65 286.283 329.696 285.895 330.719C285.516 331.732 284.853 332.864 283.906 334.114C282.969 335.354 281.667 336.869 280 338.659L273.466 345.648V345.875H286.989V349H268.636Z" fill="black"/>
<circle cx="93.5" cy="335.5" r="8.5" fill="#D9D9D9"/>
<path d="M93.2131 26.7273C92.2964 26.7273 91.4593 26.5038 90.7017 26.0568C89.9442 25.6023 89.3381 24.9962 88.8836 24.2386C88.4366 23.4811 88.2131 22.6439 88.2131 21.7273C88.2131 20.803 88.4366 19.9659 88.8836 19.2159C89.3381 18.4583 89.9442 17.8561 90.7017 17.4091C91.4593 16.9545 92.2964 16.7273 93.2131 16.7273C94.1374 16.7273 94.9745 16.9545 95.7245 17.4091C96.4821 17.8561 97.0843 18.4583 97.5313 19.2159C97.9858 19.9659 98.2131 20.803 98.2131 21.7273C98.2131 22.6439 97.9858 23.4811 97.5313 24.2386C97.0843 24.9962 96.4821 25.6023 95.7245 26.0568C94.9745 26.5038 94.1374 26.7273 93.2131 26.7273ZM127.295 31H119.761V7.72727H127.534C129.814 7.72727 131.773 8.19318 133.409 9.125C135.045 10.0492 136.299 11.3788 137.17 13.1136C138.049 14.8409 138.489 16.9129 138.489 19.3295C138.489 21.7538 138.045 23.8371 137.159 25.5795C136.28 27.322 135.008 28.6629 133.341 29.6023C131.674 30.5341 129.659 31 127.295 31ZM123.273 27.9318H127.102C128.875 27.9318 130.349 27.5985 131.523 26.9318C132.697 26.2576 133.576 25.2841 134.159 24.0114C134.742 22.7311 135.034 21.1705 135.034 19.3295C135.034 17.5038 134.742 15.9545 134.159 14.6818C133.583 13.4091 132.724 12.4432 131.58 11.7841C130.436 11.125 129.015 10.7955 127.318 10.7955H123.273V27.9318ZM142.582 31V13.5455H145.867V16.3182H146.048C146.367 15.3788 146.927 14.6402 147.73 14.1023C148.541 13.5568 149.457 13.2841 150.48 13.2841C150.692 13.2841 150.942 13.2917 151.23 13.3068C151.526 13.322 151.757 13.3409 151.923 13.3636V16.6136C151.787 16.5758 151.545 16.5341 151.196 16.4886C150.848 16.4356 150.499 16.4091 150.151 16.4091C149.348 16.4091 148.632 16.5795 148.003 16.9205C147.382 17.2538 146.889 17.7197 146.526 18.3182C146.162 18.9091 145.98 19.5833 145.98 20.3409V31H142.582ZM159.787 31.3864C158.681 31.3864 157.681 31.1818 156.787 30.7727C155.893 30.3561 155.185 29.7538 154.662 28.9659C154.147 28.178 153.889 27.2121 153.889 26.0682C153.889 25.0833 154.079 24.2727 154.457 23.6364C154.836 23 155.348 22.4962 155.992 22.125C156.635 21.7538 157.355 21.4735 158.151 21.2841C158.946 21.0947 159.757 20.9508 160.582 20.8523C161.628 20.7311 162.476 20.6326 163.128 20.5568C163.779 20.4735 164.253 20.3409 164.548 20.1591C164.844 19.9773 164.992 19.6818 164.992 19.2727V19.1932C164.992 18.2008 164.711 17.4318 164.151 16.8864C163.598 16.3409 162.772 16.0682 161.673 16.0682C160.529 16.0682 159.628 16.322 158.969 16.8295C158.317 17.3295 157.867 17.8864 157.617 18.5L154.423 17.7727C154.802 16.7121 155.355 15.8561 156.082 15.2045C156.817 14.5455 157.662 14.0682 158.617 13.7727C159.571 13.4697 160.575 13.3182 161.628 13.3182C162.325 13.3182 163.063 13.4015 163.844 13.5682C164.632 13.7273 165.367 14.0227 166.048 14.4545C166.738 14.8864 167.302 15.5038 167.742 16.3068C168.181 17.1023 168.401 18.1364 168.401 19.4091V31H165.082V28.6136H164.946C164.726 29.053 164.397 29.4848 163.957 29.9091C163.518 30.3333 162.954 30.6856 162.264 30.9659C161.575 31.2462 160.749 31.3864 159.787 31.3864ZM160.526 28.6591C161.465 28.6591 162.268 28.4735 162.935 28.1023C163.609 27.7311 164.12 27.2462 164.469 26.6477C164.825 26.0417 165.003 25.3939 165.003 24.7045V22.4545C164.882 22.5758 164.647 22.6894 164.298 22.7955C163.957 22.8939 163.567 22.9811 163.128 23.0568C162.688 23.125 162.26 23.1894 161.844 23.25C161.427 23.303 161.079 23.3485 160.798 23.3864C160.139 23.4697 159.537 23.6098 158.992 23.8068C158.454 24.0038 158.022 24.2879 157.696 24.6591C157.378 25.0227 157.219 25.5076 157.219 26.1136C157.219 26.9545 157.529 27.5909 158.151 28.0227C158.772 28.447 159.563 28.6591 160.526 28.6591ZM181.233 13.5455V16.2727H171.369V13.5455H181.233ZM174.074 31V11.5227C174.074 10.4318 174.313 9.52651 174.79 8.80682C175.267 8.07954 175.9 7.53788 176.688 7.18182C177.475 6.81818 178.331 6.63636 179.256 6.63636C179.938 6.63636 180.521 6.69318 181.006 6.80682C181.491 6.91288 181.85 7.01136 182.085 7.10227L181.29 9.85227C181.131 9.80682 180.926 9.75379 180.676 9.69318C180.426 9.625 180.123 9.59091 179.767 9.59091C178.941 9.59091 178.35 9.79545 177.994 10.2045C177.646 10.6136 177.472 11.2045 177.472 11.9773V31H174.074ZM192.886 13.5455V16.2727H183.352V13.5455H192.886ZM185.909 9.36364H189.307V25.875C189.307 26.5341 189.405 27.0303 189.602 27.3636C189.799 27.6894 190.053 27.9129 190.364 28.0341C190.682 28.1477 191.027 28.2045 191.398 28.2045C191.67 28.2045 191.909 28.1856 192.114 28.1477C192.318 28.1098 192.477 28.0795 192.591 28.0568L193.205 30.8636C193.008 30.9394 192.727 31.0152 192.364 31.0909C192 31.1742 191.545 31.2197 191 31.2273C190.106 31.2424 189.273 31.0833 188.5 30.75C187.727 30.4167 187.102 29.9015 186.625 29.2045C186.148 28.5076 185.909 27.6326 185.909 26.5795V9.36364ZM209.943 31L203.489 7.72727H207.182L211.716 25.75H211.932L216.648 7.72727H220.307L225.023 25.7614H225.239L229.761 7.72727H233.466L227 31H223.466L218.568 13.5682H218.386L213.489 31H209.943ZM239.793 20.6364V31H236.395V7.72727H239.747V16.3864H239.963C240.372 15.447 240.997 14.7008 241.838 14.1477C242.679 13.5947 243.778 13.3182 245.134 13.3182C246.331 13.3182 247.376 13.5644 248.27 14.0568C249.171 14.5492 249.868 15.2841 250.361 16.2614C250.861 17.2311 251.111 18.4432 251.111 19.8977V31H247.713V20.3068C247.713 19.0265 247.384 18.0341 246.724 17.3295C246.065 16.6174 245.149 16.2614 243.974 16.2614C243.171 16.2614 242.452 16.4318 241.815 16.7727C241.187 17.1136 240.69 17.6136 240.327 18.2727C239.971 18.9242 239.793 19.7121 239.793 20.6364ZM255.645 31V13.5455H259.043V31H255.645ZM257.361 10.8523C256.77 10.8523 256.262 10.6553 255.838 10.2614C255.421 9.85985 255.213 9.38257 255.213 8.82954C255.213 8.26894 255.421 7.79167 255.838 7.39773C256.262 6.99621 256.77 6.79545 257.361 6.79545C257.952 6.79545 258.456 6.99621 258.872 7.39773C259.296 7.79167 259.509 8.26894 259.509 8.82954C259.509 9.38257 259.296 9.85985 258.872 10.2614C258.456 10.6553 257.952 10.8523 257.361 10.8523ZM271.761 13.5455V16.2727H262.227V13.5455H271.761ZM264.784 9.36364H268.182V25.875C268.182 26.5341 268.28 27.0303 268.477 27.3636C268.674 27.6894 268.928 27.9129 269.239 28.0341C269.557 28.1477 269.902 28.2045 270.273 28.2045C270.545 28.2045 270.784 28.1856 270.989 28.1477C271.193 28.1098 271.352 28.0795 271.466 28.0568L272.08 30.8636C271.883 30.9394 271.602 31.0152 271.239 31.0909C270.875 31.1742 270.42 31.2197 269.875 31.2273C268.981 31.2424 268.148 31.0833 267.375 30.75C266.602 30.4167 265.977 29.9015 265.5 29.2045C265.023 28.5076 264.784 27.6326 264.784 26.5795V9.36364ZM282.855 31.3523C281.135 31.3523 279.654 30.9848 278.412 30.25C277.177 29.5076 276.223 28.4659 275.548 27.125C274.882 25.7765 274.548 24.197 274.548 22.3864C274.548 20.5985 274.882 19.0227 275.548 17.6591C276.223 16.2955 277.162 15.2311 278.367 14.4659C279.579 13.7008 280.995 13.3182 282.617 13.3182C283.601 13.3182 284.556 13.4811 285.48 13.8068C286.404 14.1326 287.234 14.6439 287.969 15.3409C288.704 16.0379 289.283 16.9432 289.707 18.0568C290.132 19.1629 290.344 20.5076 290.344 22.0909V23.2955H276.469V20.75H287.014C287.014 19.8561 286.832 19.0644 286.469 18.375C286.105 17.678 285.594 17.1288 284.935 16.7273C284.283 16.3258 283.518 16.125 282.639 16.125C281.685 16.125 280.851 16.3598 280.139 16.8295C279.435 17.2917 278.889 17.8977 278.503 18.6477C278.124 19.3902 277.935 20.197 277.935 21.0682V23.0568C277.935 24.2235 278.139 25.2159 278.548 26.0341C278.965 26.8523 279.545 27.4773 280.287 27.9091C281.029 28.3333 281.897 28.5455 282.889 28.5455C283.533 28.5455 284.12 28.4545 284.651 28.2727C285.181 28.0833 285.639 27.803 286.026 27.4318C286.412 27.0606 286.707 26.6023 286.912 26.0568L290.128 26.6364C289.87 27.5833 289.408 28.4129 288.742 29.125C288.082 29.8295 287.253 30.3788 286.253 30.7727C285.26 31.1591 284.128 31.3523 282.855 31.3523ZM294.114 37.5455V13.5455H297.432V16.375H297.716C297.913 16.0114 298.197 15.5909 298.568 15.1136C298.939 14.6364 299.455 14.2197 300.114 13.8636C300.773 13.5 301.644 13.3182 302.727 13.3182C304.136 13.3182 305.394 13.6742 306.5 14.3864C307.606 15.0985 308.474 16.125 309.102 17.4659C309.739 18.8068 310.057 20.4205 310.057 22.3068C310.057 24.1932 309.742 25.8106 309.114 27.1591C308.485 28.5 307.621 29.5341 306.523 30.2614C305.424 30.9811 304.17 31.3409 302.761 31.3409C301.701 31.3409 300.833 31.1629 300.159 30.8068C299.492 30.4508 298.97 30.0341 298.591 29.5568C298.212 29.0795 297.92 28.6553 297.716 28.2841H297.511V37.5455H294.114ZM297.443 22.2727C297.443 23.5 297.621 24.5758 297.977 25.5C298.333 26.4242 298.849 27.1477 299.523 27.6705C300.197 28.1856 301.023 28.4432 302 28.4432C303.015 28.4432 303.864 28.1742 304.545 27.6364C305.227 27.0909 305.742 26.3523 306.091 25.4205C306.447 24.4886 306.625 23.4394 306.625 22.2727C306.625 21.1212 306.451 20.0871 306.102 19.1705C305.761 18.2538 305.246 17.5303 304.557 17C303.875 16.4697 303.023 16.2045 302 16.2045C301.015 16.2045 300.182 16.4583 299.5 16.9659C298.826 17.4735 298.314 18.1818 297.966 19.0909C297.617 20 297.443 21.0606 297.443 22.2727ZM318.943 31.3864C317.837 31.3864 316.837 31.1818 315.943 30.7727C315.049 30.3561 314.341 29.7538 313.818 28.9659C313.303 28.178 313.045 27.2121 313.045 26.0682C313.045 25.0833 313.235 24.2727 313.614 23.6364C313.992 23 314.504 22.4962 315.148 22.125C315.792 21.7538 316.511 21.4735 317.307 21.2841C318.102 21.0947 318.913 20.9508 319.739 20.8523C320.784 20.7311 321.633 20.6326 322.284 20.5568C322.936 20.4735 323.409 20.3409 323.705 20.1591C324 19.9773 324.148 19.6818 324.148 19.2727V19.1932C324.148 18.2008 323.867 17.4318 323.307 16.8864C322.754 16.3409 321.928 16.0682 320.83 16.0682C319.686 16.0682 318.784 16.322 318.125 16.8295C317.474 17.3295 317.023 17.8864 316.773 18.5L313.58 17.7727C313.958 16.7121 314.511 15.8561 315.239 15.2045C315.974 14.5455 316.818 14.0682 317.773 13.7727C318.727 13.4697 319.731 13.3182 320.784 13.3182C321.481 13.3182 322.22 13.4015 323 13.5682C323.788 13.7273 324.523 14.0227 325.205 14.4545C325.894 14.8864 326.458 15.5038 326.898 16.3068C327.337 17.1023 327.557 18.1364 327.557 19.4091V31H324.239V28.6136H324.102C323.883 29.053 323.553 29.4848 323.114 29.9091C322.674 30.3333 322.11 30.6856 321.42 30.9659C320.731 31.2462 319.905 31.3864 318.943 31.3864ZM319.682 28.6591C320.621 28.6591 321.424 28.4735 322.091 28.1023C322.765 27.7311 323.277 27.2462 323.625 26.6477C323.981 26.0417 324.159 25.3939 324.159 24.7045V22.4545C324.038 22.5758 323.803 22.6894 323.455 22.7955C323.114 22.8939 322.724 22.9811 322.284 23.0568C321.845 23.125 321.417 23.1894 321 23.25C320.583 23.303 320.235 23.3485 319.955 23.3864C319.295 23.4697 318.693 23.6098 318.148 23.8068C317.61 24.0038 317.178 24.2879 316.852 24.6591C316.534 25.0227 316.375 25.5076 316.375 26.1136C316.375 26.9545 316.686 27.5909 317.307 28.0227C317.928 28.447 318.72 28.6591 319.682 28.6591ZM332.082 37.5455V13.5455H335.401V16.375H335.685C335.882 16.0114 336.166 15.5909 336.537 15.1136C336.908 14.6364 337.423 14.2197 338.082 13.8636C338.742 13.5 339.613 13.3182 340.696 13.3182C342.105 13.3182 343.363 13.6742 344.469 14.3864C345.575 15.0985 346.442 16.125 347.071 17.4659C347.707 18.8068 348.026 20.4205 348.026 22.3068C348.026 24.1932 347.711 25.8106 347.082 27.1591C346.454 28.5 345.59 29.5341 344.492 30.2614C343.393 30.9811 342.139 31.3409 340.73 31.3409C339.67 31.3409 338.802 31.1629 338.128 30.8068C337.461 30.4508 336.938 30.0341 336.56 29.5568C336.181 29.0795 335.889 28.6553 335.685 28.2841H335.48V37.5455H332.082ZM335.412 22.2727C335.412 23.5 335.59 24.5758 335.946 25.5C336.302 26.4242 336.817 27.1477 337.492 27.6705C338.166 28.1856 338.992 28.4432 339.969 28.4432C340.984 28.4432 341.832 28.1742 342.514 27.6364C343.196 27.0909 343.711 26.3523 344.06 25.4205C344.416 24.4886 344.594 23.4394 344.594 22.2727C344.594 21.1212 344.42 20.0871 344.071 19.1705C343.73 18.2538 343.215 17.5303 342.526 17C341.844 16.4697 340.992 16.2045 339.969 16.2045C338.984 16.2045 338.151 16.4583 337.469 16.9659C336.795 17.4735 336.283 18.1818 335.935 19.0909C335.586 20 335.412 21.0606 335.412 22.2727ZM359.355 31.3523C357.635 31.3523 356.154 30.9848 354.912 30.25C353.677 29.5076 352.723 28.4659 352.048 27.125C351.382 25.7765 351.048 24.197 351.048 22.3864C351.048 20.5985 351.382 19.0227 352.048 17.6591C352.723 16.2955 353.662 15.2311 354.867 14.4659C356.079 13.7008 357.495 13.3182 359.117 13.3182C360.101 13.3182 361.056 13.4811 361.98 13.8068C362.904 14.1326 363.734 14.6439 364.469 15.3409C365.204 16.0379 365.783 16.9432 366.207 18.0568C366.632 19.1629 366.844 20.5076 366.844 22.0909V23.2955H352.969V20.75H363.514C363.514 19.8561 363.332 19.0644 362.969 18.375C362.605 17.678 362.094 17.1288 361.435 16.7273C360.783 16.3258 360.018 16.125 359.139 16.125C358.185 16.125 357.351 16.3598 356.639 16.8295C355.935 17.2917 355.389 17.8977 355.003 18.6477C354.624 19.3902 354.435 20.197 354.435 21.0682V23.0568C354.435 24.2235 354.639 25.2159 355.048 26.0341C355.465 26.8523 356.045 27.4773 356.787 27.9091C357.529 28.3333 358.397 28.5455 359.389 28.5455C360.033 28.5455 360.62 28.4545 361.151 28.2727C361.681 28.0833 362.139 27.803 362.526 27.4318C362.912 27.0606 363.207 26.6023 363.412 26.0568L366.628 26.6364C366.37 27.5833 365.908 28.4129 365.242 29.125C364.582 29.8295 363.753 30.3788 362.753 30.7727C361.76 31.1591 360.628 31.3523 359.355 31.3523ZM370.614 31V13.5455H373.898V16.3182H374.08C374.398 15.3788 374.958 14.6402 375.761 14.1023C376.572 13.5568 377.489 13.2841 378.511 13.2841C378.724 13.2841 378.974 13.2917 379.261 13.3068C379.557 13.322 379.788 13.3409 379.955 13.3636V16.6136C379.818 16.5758 379.576 16.5341 379.227 16.4886C378.879 16.4356 378.53 16.4091 378.182 16.4091C377.379 16.4091 376.663 16.5795 376.034 16.9205C375.413 17.2538 374.92 17.7197 374.557 18.3182C374.193 18.9091 374.011 19.5833 374.011 20.3409V31H370.614ZM93.2131 65.7273C92.2964 65.7273 91.4593 65.5038 90.7017 65.0568C89.9442 64.6023 89.3381 63.9962 88.8836 63.2386C88.4366 62.4811 88.2131 61.6439 88.2131 60.7273C88.2131 59.803 88.4366 58.9659 88.8836 58.2159C89.3381 57.4583 89.9442 56.8561 90.7017 56.4091C91.4593 55.9545 92.2964 55.7273 93.2131 55.7273C94.1374 55.7273 94.9745 55.9545 95.7245 56.4091C96.4821 56.8561 97.0843 57.4583 97.5313 58.2159C97.9858 58.9659 98.2131 59.803 98.2131 60.7273C98.2131 61.6439 97.9858 62.4811 97.5313 63.2386C97.0843 63.9962 96.4821 64.6023 95.7245 65.0568C94.9745 65.5038 94.1374 65.7273 93.2131 65.7273ZM138.545 46.7273V70H135.318L123.489 52.9318H123.273V70H119.761V46.7273H123.011L134.852 63.8182H135.068V46.7273H138.545ZM143.668 70V46.7273H158.099V49.75H147.179V56.8409H157.065V59.8523H147.179V70H143.668ZM161.27 49.75V46.7273H179.281V49.75H172.02V70H168.52V49.75H161.27ZM191.73 70V46.7273H195.242V66.9773H205.787V70H191.73ZM214.599 70.3864C213.493 70.3864 212.493 70.1818 211.599 69.7727C210.706 69.3561 209.997 68.7538 209.474 67.9659C208.959 67.178 208.702 66.2121 208.702 65.0682C208.702 64.0833 208.891 63.2727 209.27 62.6364C209.649 62 210.16 61.4962 210.804 61.125C211.448 60.7538 212.168 60.4735 212.963 60.2841C213.759 60.0947 214.569 59.9508 215.395 59.8523C216.44 59.7311 217.289 59.6326 217.94 59.5568C218.592 59.4735 219.065 59.3409 219.361 59.1591C219.656 58.9773 219.804 58.6818 219.804 58.2727V58.1932C219.804 57.2008 219.524 56.4318 218.963 55.8864C218.41 55.3409 217.584 55.0682 216.486 55.0682C215.342 55.0682 214.44 55.322 213.781 55.8295C213.13 56.3295 212.679 56.8864 212.429 57.5L209.236 56.7727C209.615 55.7121 210.168 54.8561 210.895 54.2045C211.63 53.5455 212.474 53.0682 213.429 52.7727C214.384 52.4697 215.387 52.3182 216.44 52.3182C217.137 52.3182 217.876 52.4015 218.656 52.5682C219.444 52.7273 220.179 53.0227 220.861 53.4545C221.55 53.8864 222.115 54.5038 222.554 55.3068C222.993 56.1023 223.213 57.1364 223.213 58.4091V70H219.895V67.6136H219.759C219.539 68.053 219.209 68.4848 218.77 68.9091C218.331 69.3333 217.766 69.6856 217.077 69.9659C216.387 70.2462 215.562 70.3864 214.599 70.3864ZM215.338 67.6591C216.278 67.6591 217.081 67.4735 217.747 67.1023C218.421 66.7311 218.933 66.2462 219.281 65.6477C219.637 65.0417 219.815 64.3939 219.815 63.7045V61.4545C219.694 61.5758 219.459 61.6894 219.111 61.7955C218.77 61.8939 218.38 61.9811 217.94 62.0568C217.501 62.125 217.073 62.1894 216.656 62.25C216.24 62.303 215.891 62.3485 215.611 62.3864C214.952 62.4697 214.349 62.6098 213.804 62.8068C213.266 63.0038 212.834 63.2879 212.509 63.6591C212.19 64.0227 212.031 64.5076 212.031 65.1136C212.031 65.9545 212.342 66.5909 212.963 67.0227C213.584 67.447 214.376 67.6591 215.338 67.6591ZM238.795 62.7614V52.5455H242.205V70H238.864V66.9773H238.682C238.28 67.9091 237.636 68.6856 236.75 69.3068C235.871 69.9205 234.777 70.2273 233.466 70.2273C232.345 70.2273 231.352 69.9811 230.489 69.4886C229.633 68.9886 228.958 68.25 228.466 67.2727C227.981 66.2955 227.739 65.0871 227.739 63.6477V52.5455H231.136V63.2386C231.136 64.428 231.466 65.375 232.125 66.0795C232.784 66.7841 233.64 67.1364 234.693 67.1364C235.33 67.1364 235.962 66.9773 236.591 66.6591C237.227 66.3409 237.754 65.8598 238.17 65.2159C238.595 64.572 238.803 63.7538 238.795 62.7614ZM250.168 59.6364V70H246.77V52.5455H250.031V55.3864H250.247C250.649 54.4621 251.278 53.7197 252.134 53.1591C252.997 52.5985 254.084 52.3182 255.395 52.3182C256.584 52.3182 257.626 52.5682 258.52 53.0682C259.414 53.5606 260.107 54.2955 260.599 55.2727C261.092 56.25 261.338 57.4583 261.338 58.8977V70H257.94V59.3068C257.94 58.0417 257.611 57.053 256.952 56.3409C256.293 55.6212 255.387 55.2614 254.236 55.2614C253.448 55.2614 252.747 55.4318 252.134 55.7727C251.528 56.1136 251.046 56.6136 250.69 57.2727C250.342 57.9242 250.168 58.7121 250.168 59.6364ZM273.247 70.3523C271.558 70.3523 270.103 69.9697 268.884 69.2045C267.671 68.4318 266.74 67.3674 266.088 66.0114C265.437 64.6553 265.111 63.1023 265.111 61.3523C265.111 59.5795 265.444 58.0152 266.111 56.6591C266.778 55.2955 267.717 54.2311 268.929 53.4659C270.141 52.7008 271.569 52.3182 273.213 52.3182C274.539 52.3182 275.721 52.5644 276.759 53.0568C277.796 53.5417 278.634 54.2235 279.27 55.1023C279.914 55.9811 280.296 57.0076 280.418 58.1818H277.111C276.929 57.3636 276.512 56.6591 275.861 56.0682C275.217 55.4773 274.353 55.1818 273.27 55.1818C272.323 55.1818 271.493 55.4318 270.781 55.9318C270.077 56.4242 269.528 57.1288 269.134 58.0455C268.74 58.9545 268.543 60.0303 268.543 61.2727C268.543 62.5455 268.736 63.6439 269.122 64.5682C269.509 65.4924 270.054 66.2083 270.759 66.7159C271.471 67.2235 272.308 67.4773 273.27 67.4773C273.914 67.4773 274.497 67.3598 275.02 67.125C275.55 66.8826 275.993 66.5379 276.349 66.0909C276.713 65.6439 276.967 65.1061 277.111 64.4773H280.418C280.296 65.6061 279.929 66.6136 279.315 67.5C278.702 68.3864 277.88 69.0833 276.849 69.5909C275.827 70.0985 274.626 70.3523 273.247 70.3523ZM287.449 59.6364V70H284.051V46.7273H287.403V55.3864H287.619C288.028 54.447 288.653 53.7008 289.494 53.1477C290.335 52.5947 291.434 52.3182 292.79 52.3182C293.987 52.3182 295.032 52.5644 295.926 53.0568C296.828 53.5492 297.525 54.2841 298.017 55.2614C298.517 56.2311 298.767 57.4432 298.767 58.8977V70H295.369V59.3068C295.369 58.0265 295.04 57.0341 294.381 56.3295C293.722 55.6174 292.805 55.2614 291.631 55.2614C290.828 55.2614 290.108 55.4318 289.472 55.7727C288.843 56.1136 288.347 56.6136 287.983 57.2727C287.627 57.9242 287.449 58.7121 287.449 59.6364ZM319.122 70.3523C317.486 70.3523 316.058 69.9773 314.838 69.2273C313.618 68.4773 312.671 67.428 311.997 66.0795C311.323 64.7311 310.986 63.1553 310.986 61.3523C310.986 59.5417 311.323 57.9583 311.997 56.6023C312.671 55.2462 313.618 54.1932 314.838 53.4432C316.058 52.6932 317.486 52.3182 319.122 52.3182C320.759 52.3182 322.187 52.6932 323.406 53.4432C324.626 54.1932 325.573 55.2462 326.247 56.6023C326.921 57.9583 327.259 59.5417 327.259 61.3523C327.259 63.1553 326.921 64.7311 326.247 66.0795C325.573 67.428 324.626 68.4773 323.406 69.2273C322.187 69.9773 320.759 70.3523 319.122 70.3523ZM319.134 67.5C320.194 67.5 321.073 67.2197 321.77 66.6591C322.467 66.0985 322.982 65.3523 323.315 64.4205C323.656 63.4886 323.827 62.4621 323.827 61.3409C323.827 60.2273 323.656 59.2045 323.315 58.2727C322.982 57.3333 322.467 56.5795 321.77 56.0114C321.073 55.4432 320.194 55.1591 319.134 55.1591C318.065 55.1591 317.179 55.4432 316.474 56.0114C315.778 56.5795 315.259 57.3333 314.918 58.2727C314.584 59.2045 314.418 60.2273 314.418 61.3409C314.418 62.4621 314.584 63.4886 314.918 64.4205C315.259 65.3523 315.778 66.0985 316.474 66.6591C317.179 67.2197 318.065 67.5 319.134 67.5ZM334.449 59.6364V70H331.051V52.5455H334.313V55.3864H334.528C334.93 54.4621 335.559 53.7197 336.415 53.1591C337.278 52.5985 338.366 52.3182 339.676 52.3182C340.866 52.3182 341.907 52.5682 342.801 53.0682C343.695 53.5606 344.388 54.2955 344.881 55.2727C345.373 56.25 345.619 57.4583 345.619 58.8977V70H342.222V59.3068C342.222 58.0417 341.892 57.053 341.233 56.3409C340.574 55.6212 339.669 55.2614 338.517 55.2614C337.729 55.2614 337.028 55.4318 336.415 55.7727C335.809 56.1136 335.328 56.6136 334.972 57.2727C334.623 57.9242 334.449 58.7121 334.449 59.6364ZM357.77 49.75V46.7273H375.781V49.75H368.52V70H365.02V49.75H357.77ZM384.48 70.3523C382.76 70.3523 381.279 69.9848 380.037 69.25C378.802 68.5076 377.848 67.4659 377.173 66.125C376.507 64.7765 376.173 63.197 376.173 61.3864C376.173 59.5985 376.507 58.0227 377.173 56.6591C377.848 55.2955 378.787 54.2311 379.992 53.4659C381.204 52.7008 382.62 52.3182 384.242 52.3182C385.226 52.3182 386.181 52.4811 387.105 52.8068C388.029 53.1326 388.859 53.6439 389.594 54.3409C390.329 55.0379 390.908 55.9432 391.332 57.0568C391.757 58.1629 391.969 59.5076 391.969 61.0909V62.2955H378.094V59.75H388.639C388.639 58.8561 388.457 58.0644 388.094 57.375C387.73 56.678 387.219 56.1288 386.56 55.7273C385.908 55.3258 385.143 55.125 384.264 55.125C383.31 55.125 382.476 55.3598 381.764 55.8295C381.06 56.2917 380.514 56.8977 380.128 57.6477C379.749 58.3902 379.56 59.197 379.56 60.0682V62.0568C379.56 63.2235 379.764 64.2159 380.173 65.0341C380.59 65.8523 381.17 66.4773 381.912 66.9091C382.654 67.3333 383.522 67.5455 384.514 67.5455C385.158 67.5455 385.745 67.4545 386.276 67.2727C386.806 67.0833 387.264 66.803 387.651 66.4318C388.037 66.0606 388.332 65.6023 388.537 65.0568L391.753 65.6364C391.495 66.5833 391.033 67.4129 390.367 68.125C389.707 68.8295 388.878 69.3788 387.878 69.7727C386.885 70.1591 385.753 70.3523 384.48 70.3523ZM408.818 56.8068L405.739 57.3523C405.61 56.9583 405.405 56.5833 405.125 56.2273C404.852 55.8712 404.481 55.5795 404.011 55.3523C403.542 55.125 402.955 55.0114 402.25 55.0114C401.288 55.0114 400.485 55.2273 399.841 55.6591C399.197 56.0833 398.875 56.6326 398.875 57.3068C398.875 57.8902 399.091 58.3598 399.523 58.7159C399.955 59.072 400.652 59.3636 401.614 59.5909L404.386 60.2273C405.992 60.5985 407.189 61.1705 407.977 61.9432C408.765 62.7159 409.159 63.7197 409.159 64.9545C409.159 66 408.856 66.9318 408.25 67.75C407.652 68.5606 406.814 69.197 405.739 69.6591C404.67 70.1212 403.432 70.3523 402.023 70.3523C400.068 70.3523 398.474 69.9356 397.239 69.1023C396.004 68.2614 395.246 67.0682 394.966 65.5227L398.25 65.0227C398.455 65.8788 398.875 66.5265 399.511 66.9659C400.148 67.3977 400.977 67.6136 402 67.6136C403.114 67.6136 404.004 67.3826 404.67 66.9205C405.337 66.4508 405.67 65.8788 405.67 65.2045C405.67 64.6591 405.466 64.2008 405.057 63.8295C404.655 63.4583 404.038 63.178 403.205 62.9886L400.25 62.3409C398.621 61.9697 397.417 61.3788 396.636 60.5682C395.864 59.7576 395.477 58.7311 395.477 57.4886C395.477 56.4583 395.765 55.5568 396.341 54.7841C396.917 54.0114 397.712 53.4091 398.727 52.9773C399.742 52.5379 400.905 52.3182 402.216 52.3182C404.102 52.3182 405.587 52.7273 406.67 53.5455C407.754 54.3561 408.47 55.4432 408.818 56.8068ZM421.043 52.5455V55.2727H411.509V52.5455H421.043ZM414.065 48.3636H417.463V64.875C417.463 65.5341 417.562 66.0303 417.759 66.3636C417.956 66.6894 418.209 66.9129 418.52 67.0341C418.838 67.1477 419.183 67.2045 419.554 67.2045C419.827 67.2045 420.065 67.1856 420.27 67.1477C420.474 67.1098 420.634 67.0795 420.747 67.0568L421.361 69.8636C421.164 69.9394 420.884 70.0152 420.52 70.0909C420.156 70.1742 419.702 70.2197 419.156 70.2273C418.262 70.2424 417.429 70.0833 416.656 69.75C415.884 69.4167 415.259 68.9015 414.781 68.2045C414.304 67.5076 414.065 66.6326 414.065 65.5795V48.3636ZM428.199 59.6364V70H424.801V52.5455H428.063V55.3864H428.278C428.68 54.4621 429.309 53.7197 430.165 53.1591C431.028 52.5985 432.116 52.3182 433.426 52.3182C434.616 52.3182 435.657 52.5682 436.551 53.0682C437.445 53.5606 438.138 54.2955 438.631 55.2727C439.123 56.25 439.369 57.4583 439.369 58.8977V70H435.972V59.3068C435.972 58.0417 435.642 57.053 434.983 56.3409C434.324 55.6212 433.419 55.2614 432.267 55.2614C431.479 55.2614 430.778 55.4318 430.165 55.7727C429.559 56.1136 429.078 56.6136 428.722 57.2727C428.373 57.9242 428.199 58.7121 428.199 59.6364ZM451.449 70.3523C449.729 70.3523 448.248 69.9848 447.006 69.25C445.771 68.5076 444.816 67.4659 444.142 66.125C443.475 64.7765 443.142 63.197 443.142 61.3864C443.142 59.5985 443.475 58.0227 444.142 56.6591C444.816 55.2955 445.756 54.2311 446.96 53.4659C448.172 52.7008 449.589 52.3182 451.21 52.3182C452.195 52.3182 453.15 52.4811 454.074 52.8068C454.998 53.1326 455.828 53.6439 456.563 54.3409C457.297 55.0379 457.877 55.9432 458.301 57.0568C458.725 58.1629 458.938 59.5076 458.938 61.0909V62.2955H445.063V59.75H455.608C455.608 58.8561 455.426 58.0644 455.063 57.375C454.699 56.678 454.188 56.1288 453.528 55.7273C452.877 55.3258 452.112 55.125 451.233 55.125C450.278 55.125 449.445 55.3598 448.733 55.8295C448.028 56.2917 447.483 56.8977 447.097 57.6477C446.718 58.3902 446.528 59.197 446.528 60.0682V62.0568C446.528 63.2235 446.733 64.2159 447.142 65.0341C447.559 65.8523 448.138 66.4773 448.881 66.9091C449.623 67.3333 450.491 67.5455 451.483 67.5455C452.127 67.5455 452.714 67.4545 453.244 67.2727C453.775 67.0833 454.233 66.803 454.619 66.4318C455.006 66.0606 455.301 65.6023 455.506 65.0568L458.722 65.6364C458.464 66.5833 458.002 67.4129 457.335 68.125C456.676 68.8295 455.847 69.3788 454.847 69.7727C453.854 70.1591 452.722 70.3523 451.449 70.3523ZM470.855 52.5455V55.2727H461.321V52.5455H470.855ZM463.878 48.3636H467.276V64.875C467.276 65.5341 467.374 66.0303 467.571 66.3636C467.768 66.6894 468.022 66.9129 468.332 67.0341C468.651 67.1477 468.995 67.2045 469.367 67.2045C469.639 67.2045 469.878 67.1856 470.082 67.1477C470.287 67.1098 470.446 67.0795 470.56 67.0568L471.173 69.8636C470.976 69.9394 470.696 70.0152 470.332 70.0909C469.969 70.1742 469.514 70.2197 468.969 70.2273C468.075 70.2424 467.242 70.0833 466.469 69.75C465.696 69.4167 465.071 68.9015 464.594 68.2045C464.117 67.5076 463.878 66.6326 463.878 65.5795V48.3636ZM93.2131 104.727C92.2964 104.727 91.4593 104.504 90.7017 104.057C89.9442 103.602 89.3381 102.996 88.8836 102.239C88.4366 101.481 88.2131 100.644 88.2131 99.7273C88.2131 98.803 88.4366 97.9659 88.8836 97.2159C89.3381 96.4583 89.9442 95.8561 90.7017 95.4091C91.4593 94.9545 92.2964 94.7273 93.2131 94.7273C94.1374 94.7273 94.9745 94.9545 95.7245 95.4091C96.4821 95.8561 97.0843 96.4583 97.5313 97.2159C97.9858 97.9659 98.2131 98.803 98.2131 99.7273C98.2131 100.644 97.9858 101.481 97.5313 102.239C97.0843 102.996 96.4821 103.602 95.7245 104.057C94.9745 104.504 94.1374 104.727 93.2131 104.727ZM121.727 109H118L126.375 85.7273H130.432L138.807 109H135.08L128.5 89.9545H128.318L121.727 109ZM122.352 99.8864H134.443V102.841H122.352V99.8864ZM145.293 85.7273V109H141.895V85.7273H145.293ZM149.864 115.545V91.5455H153.182V94.375H153.466C153.663 94.0114 153.947 93.5909 154.318 93.1136C154.689 92.6364 155.205 92.2197 155.864 91.8636C156.523 91.5 157.394 91.3182 158.477 91.3182C159.886 91.3182 161.144 91.6742 162.25 92.3864C163.356 93.0985 164.224 94.125 164.852 95.4659C165.489 96.8068 165.807 98.4205 165.807 100.307C165.807 102.193 165.492 103.811 164.864 105.159C164.235 106.5 163.371 107.534 162.273 108.261C161.174 108.981 159.92 109.341 158.511 109.341C157.451 109.341 156.583 109.163 155.909 108.807C155.242 108.451 154.72 108.034 154.341 107.557C153.962 107.08 153.67 106.655 153.466 106.284H153.261V115.545H149.864ZM153.193 100.273C153.193 101.5 153.371 102.576 153.727 103.5C154.083 104.424 154.599 105.148 155.273 105.67C155.947 106.186 156.773 106.443 157.75 106.443C158.765 106.443 159.614 106.174 160.295 105.636C160.977 105.091 161.492 104.352 161.841 103.42C162.197 102.489 162.375 101.439 162.375 100.273C162.375 99.1212 162.201 98.0871 161.852 97.1705C161.511 96.2538 160.996 95.5303 160.307 95C159.625 94.4697 158.773 94.2045 157.75 94.2045C156.765 94.2045 155.932 94.4583 155.25 94.9659C154.576 95.4735 154.064 96.1818 153.716 97.0909C153.367 98 153.193 99.0606 153.193 100.273ZM173.011 98.6364V109H169.614V85.7273H172.966V94.3864H173.182C173.591 93.447 174.216 92.7008 175.057 92.1477C175.898 91.5947 176.996 91.3182 178.352 91.3182C179.549 91.3182 180.595 91.5644 181.489 92.0568C182.39 92.5492 183.087 93.2841 183.58 94.2614C184.08 95.2311 184.33 96.4432 184.33 97.8977V109H180.932V98.3068C180.932 97.0265 180.602 96.0341 179.943 95.3295C179.284 94.6174 178.367 94.2614 177.193 94.2614C176.39 94.2614 175.67 94.4318 175.034 94.7727C174.405 95.1136 173.909 95.6136 173.545 96.2727C173.189 96.9242 173.011 97.7121 173.011 98.6364ZM193.943 109.386C192.837 109.386 191.837 109.182 190.943 108.773C190.049 108.356 189.341 107.754 188.818 106.966C188.303 106.178 188.045 105.212 188.045 104.068C188.045 103.083 188.235 102.273 188.614 101.636C188.992 101 189.504 100.496 190.148 100.125C190.792 99.7538 191.511 99.4735 192.307 99.2841C193.102 99.0947 193.913 98.9508 194.739 98.8523C195.784 98.7311 196.633 98.6326 197.284 98.5568C197.936 98.4735 198.409 98.3409 198.705 98.1591C199 97.9773 199.148 97.6818 199.148 97.2727V97.1932C199.148 96.2008 198.867 95.4318 198.307 94.8864C197.754 94.3409 196.928 94.0682 195.83 94.0682C194.686 94.0682 193.784 94.322 193.125 94.8295C192.474 95.3295 192.023 95.8864 191.773 96.5L188.58 95.7727C188.958 94.7121 189.511 93.8561 190.239 93.2045C190.974 92.5455 191.818 92.0682 192.773 91.7727C193.727 91.4697 194.731 91.3182 195.784 91.3182C196.481 91.3182 197.22 91.4015 198 91.5682C198.788 91.7273 199.523 92.0227 200.205 92.4545C200.894 92.8864 201.458 93.5038 201.898 94.3068C202.337 95.1023 202.557 96.1364 202.557 97.4091V109H199.239V106.614H199.102C198.883 107.053 198.553 107.485 198.114 107.909C197.674 108.333 197.11 108.686 196.42 108.966C195.731 109.246 194.905 109.386 193.943 109.386ZM194.682 106.659C195.621 106.659 196.424 106.473 197.091 106.102C197.765 105.731 198.277 105.246 198.625 104.648C198.981 104.042 199.159 103.394 199.159 102.705V100.455C199.038 100.576 198.803 100.689 198.455 100.795C198.114 100.894 197.724 100.981 197.284 101.057C196.845 101.125 196.417 101.189 196 101.25C195.583 101.303 195.235 101.348 194.955 101.386C194.295 101.47 193.693 101.61 193.148 101.807C192.61 102.004 192.178 102.288 191.852 102.659C191.534 103.023 191.375 103.508 191.375 104.114C191.375 104.955 191.686 105.591 192.307 106.023C192.928 106.447 193.72 106.659 194.682 106.659ZM234.608 85.7273V109H231.381L219.551 91.9318H219.335V109H215.824V85.7273H219.074L230.915 102.818H231.131V85.7273H234.608ZM239.73 109V85.7273H254.162V88.75H243.242V95.8409H253.128V98.8523H243.242V109H239.73ZM257.332 88.75V85.7273H275.344V88.75H268.082V109H264.582V88.75H257.332ZM287.793 85.7273H292.054L299.463 103.818H299.736L307.145 85.7273H311.406V109H308.065V92.1591H307.849L300.986 108.966H298.213L291.349 92.1477H291.134V109H287.793V85.7273ZM321.318 109.386C320.212 109.386 319.212 109.182 318.318 108.773C317.424 108.356 316.716 107.754 316.193 106.966C315.678 106.178 315.42 105.212 315.42 104.068C315.42 103.083 315.61 102.273 315.989 101.636C316.367 101 316.879 100.496 317.523 100.125C318.167 99.7538 318.886 99.4735 319.682 99.2841C320.477 99.0947 321.288 98.9508 322.114 98.8523C323.159 98.7311 324.008 98.6326 324.659 98.5568C325.311 98.4735 325.784 98.3409 326.08 98.1591C326.375 97.9773 326.523 97.6818 326.523 97.2727V97.1932C326.523 96.2008 326.242 95.4318 325.682 94.8864C325.129 94.3409 324.303 94.0682 323.205 94.0682C322.061 94.0682 321.159 94.322 320.5 94.8295C319.849 95.3295 319.398 95.8864 319.148 96.5L315.955 95.7727C316.333 94.7121 316.886 93.8561 317.614 93.2045C318.349 92.5455 319.193 92.0682 320.148 91.7727C321.102 91.4697 322.106 91.3182 323.159 91.3182C323.856 91.3182 324.595 91.4015 325.375 91.5682C326.163 91.7273 326.898 92.0227 327.58 92.4545C328.269 92.8864 328.833 93.5038 329.273 94.3068C329.712 95.1023 329.932 96.1364 329.932 97.4091V109H326.614V106.614H326.477C326.258 107.053 325.928 107.485 325.489 107.909C325.049 108.333 324.485 108.686 323.795 108.966C323.106 109.246 322.28 109.386 321.318 109.386ZM322.057 106.659C322.996 106.659 323.799 106.473 324.466 106.102C325.14 105.731 325.652 105.246 326 104.648C326.356 104.042 326.534 103.394 326.534 102.705V100.455C326.413 100.576 326.178 100.689 325.83 100.795C325.489 100.894 325.099 100.981 324.659 101.057C324.22 101.125 323.792 101.189 323.375 101.25C322.958 101.303 322.61 101.348 322.33 101.386C321.67 101.47 321.068 101.61 320.523 101.807C319.985 102.004 319.553 102.288 319.227 102.659C318.909 103.023 318.75 103.508 318.75 104.114C318.75 104.955 319.061 105.591 319.682 106.023C320.303 106.447 321.095 106.659 322.057 106.659ZM334.457 109V91.5455H337.742V94.3182H337.923C338.242 93.3788 338.802 92.6402 339.605 92.1023C340.416 91.5568 341.332 91.2841 342.355 91.2841C342.567 91.2841 342.817 91.2917 343.105 91.3068C343.401 91.322 343.632 91.3409 343.798 91.3636V94.6136C343.662 94.5758 343.42 94.5341 343.071 94.4886C342.723 94.4356 342.374 94.4091 342.026 94.4091C341.223 94.4091 340.507 94.5795 339.878 94.9205C339.257 95.2538 338.764 95.7197 338.401 96.3182C338.037 96.9091 337.855 97.5833 337.855 98.3409V109H334.457ZM349.864 103.08L349.841 98.9318H350.432L357.386 91.5455H361.455L353.523 99.9545H352.989L349.864 103.08ZM346.739 109V85.7273H350.136V109H346.739ZM357.761 109L351.511 100.705L353.852 98.3295L361.932 109H357.761ZM371.355 109.352C369.635 109.352 368.154 108.985 366.912 108.25C365.677 107.508 364.723 106.466 364.048 105.125C363.382 103.777 363.048 102.197 363.048 100.386C363.048 98.5985 363.382 97.0227 364.048 95.6591C364.723 94.2955 365.662 93.2311 366.867 92.4659C368.079 91.7008 369.495 91.3182 371.117 91.3182C372.101 91.3182 373.056 91.4811 373.98 91.8068C374.904 92.1326 375.734 92.6439 376.469 93.3409C377.204 94.0379 377.783 94.9432 378.207 96.0568C378.632 97.1629 378.844 98.5076 378.844 100.091V101.295H364.969V98.75H375.514C375.514 97.8561 375.332 97.0644 374.969 96.375C374.605 95.678 374.094 95.1288 373.435 94.7273C372.783 94.3258 372.018 94.125 371.139 94.125C370.185 94.125 369.351 94.3598 368.639 94.8295C367.935 95.2917 367.389 95.8977 367.003 96.6477C366.624 97.3902 366.435 98.197 366.435 99.0682V101.057C366.435 102.223 366.639 103.216 367.048 104.034C367.465 104.852 368.045 105.477 368.787 105.909C369.529 106.333 370.397 106.545 371.389 106.545C372.033 106.545 372.62 106.455 373.151 106.273C373.681 106.083 374.139 105.803 374.526 105.432C374.912 105.061 375.207 104.602 375.412 104.057L378.628 104.636C378.37 105.583 377.908 106.413 377.242 107.125C376.582 107.83 375.753 108.379 374.753 108.773C373.76 109.159 372.628 109.352 371.355 109.352ZM390.761 91.5455V94.2727H381.227V91.5455H390.761ZM383.784 87.3636H387.182V103.875C387.182 104.534 387.28 105.03 387.477 105.364C387.674 105.689 387.928 105.913 388.239 106.034C388.557 106.148 388.902 106.205 389.273 106.205C389.545 106.205 389.784 106.186 389.989 106.148C390.193 106.11 390.352 106.08 390.466 106.057L391.08 108.864C390.883 108.939 390.602 109.015 390.239 109.091C389.875 109.174 389.42 109.22 388.875 109.227C387.981 109.242 387.148 109.083 386.375 108.75C385.602 108.417 384.977 107.902 384.5 107.205C384.023 106.508 383.784 105.633 383.784 104.58V87.3636ZM394.52 115.545V91.5455H397.838V94.375H398.122C398.319 94.0114 398.603 93.5909 398.974 93.1136C399.346 92.6364 399.861 92.2197 400.52 91.8636C401.179 91.5 402.05 91.3182 403.134 91.3182C404.543 91.3182 405.8 91.6742 406.906 92.3864C408.012 93.0985 408.88 94.125 409.509 95.4659C410.145 96.8068 410.463 98.4205 410.463 100.307C410.463 102.193 410.149 103.811 409.52 105.159C408.891 106.5 408.028 107.534 406.929 108.261C405.831 108.981 404.577 109.341 403.168 109.341C402.107 109.341 401.24 109.163 400.565 108.807C399.899 108.451 399.376 108.034 398.997 107.557C398.618 107.08 398.327 106.655 398.122 106.284H397.918V115.545H394.52ZM397.849 100.273C397.849 101.5 398.028 102.576 398.384 103.5C398.74 104.424 399.255 105.148 399.929 105.67C400.603 106.186 401.429 106.443 402.406 106.443C403.421 106.443 404.27 106.174 404.952 105.636C405.634 105.091 406.149 104.352 406.497 103.42C406.853 102.489 407.031 101.439 407.031 100.273C407.031 99.1212 406.857 98.0871 406.509 97.1705C406.168 96.2538 405.653 95.5303 404.963 95C404.281 94.4697 403.429 94.2045 402.406 94.2045C401.421 94.2045 400.588 94.4583 399.906 94.9659C399.232 95.4735 398.721 96.1818 398.372 97.0909C398.024 98 397.849 99.0606 397.849 100.273ZM417.668 85.7273V109H414.27V85.7273H417.668ZM427.318 109.386C426.212 109.386 425.212 109.182 424.318 108.773C423.424 108.356 422.716 107.754 422.193 106.966C421.678 106.178 421.42 105.212 421.42 104.068C421.42 103.083 421.61 102.273 421.989 101.636C422.367 101 422.879 100.496 423.523 100.125C424.167 99.7538 424.886 99.4735 425.682 99.2841C426.477 99.0947 427.288 98.9508 428.114 98.8523C429.159 98.7311 430.008 98.6326 430.659 98.5568C431.311 98.4735 431.784 98.3409 432.08 98.1591C432.375 97.9773 432.523 97.6818 432.523 97.2727V97.1932C432.523 96.2008 432.242 95.4318 431.682 94.8864C431.129 94.3409 430.303 94.0682 429.205 94.0682C428.061 94.0682 427.159 94.322 426.5 94.8295C425.849 95.3295 425.398 95.8864 425.148 96.5L421.955 95.7727C422.333 94.7121 422.886 93.8561 423.614 93.2045C424.349 92.5455 425.193 92.0682 426.148 91.7727C427.102 91.4697 428.106 91.3182 429.159 91.3182C429.856 91.3182 430.595 91.4015 431.375 91.5682C432.163 91.7273 432.898 92.0227 433.58 92.4545C434.269 92.8864 434.833 93.5038 435.273 94.3068C435.712 95.1023 435.932 96.1364 435.932 97.4091V109H432.614V106.614H432.477C432.258 107.053 431.928 107.485 431.489 107.909C431.049 108.333 430.485 108.686 429.795 108.966C429.106 109.246 428.28 109.386 427.318 109.386ZM428.057 106.659C428.996 106.659 429.799 106.473 430.466 106.102C431.14 105.731 431.652 105.246 432 104.648C432.356 104.042 432.534 103.394 432.534 102.705V100.455C432.413 100.576 432.178 100.689 431.83 100.795C431.489 100.894 431.099 100.981 430.659 101.057C430.22 101.125 429.792 101.189 429.375 101.25C428.958 101.303 428.61 101.348 428.33 101.386C427.67 101.47 427.068 101.61 426.523 101.807C425.985 102.004 425.553 102.288 425.227 102.659C424.909 103.023 424.75 103.508 424.75 104.114C424.75 104.955 425.061 105.591 425.682 106.023C426.303 106.447 427.095 106.659 428.057 106.659ZM447.81 109.352C446.12 109.352 444.666 108.97 443.446 108.205C442.234 107.432 441.302 106.367 440.651 105.011C439.999 103.655 439.673 102.102 439.673 100.352C439.673 98.5795 440.007 97.0152 440.673 95.6591C441.34 94.2955 442.279 93.2311 443.492 92.4659C444.704 91.7008 446.132 91.3182 447.776 91.3182C449.101 91.3182 450.283 91.5644 451.321 92.0568C452.359 92.5417 453.196 93.2235 453.832 94.1023C454.476 94.9811 454.859 96.0076 454.98 97.1818H451.673C451.492 96.3636 451.075 95.6591 450.423 95.0682C449.779 94.4773 448.916 94.1818 447.832 94.1818C446.885 94.1818 446.056 94.4318 445.344 94.9318C444.639 95.4242 444.09 96.1288 443.696 97.0455C443.302 97.9545 443.105 99.0303 443.105 100.273C443.105 101.545 443.298 102.644 443.685 103.568C444.071 104.492 444.617 105.208 445.321 105.716C446.033 106.223 446.87 106.477 447.832 106.477C448.476 106.477 449.06 106.36 449.582 106.125C450.113 105.883 450.556 105.538 450.912 105.091C451.276 104.644 451.529 104.106 451.673 103.477H454.98C454.859 104.606 454.492 105.614 453.878 106.5C453.264 107.386 452.442 108.083 451.412 108.591C450.389 109.098 449.188 109.352 447.81 109.352ZM466.136 109.352C464.417 109.352 462.936 108.985 461.693 108.25C460.458 107.508 459.504 106.466 458.83 105.125C458.163 103.777 457.83 102.197 457.83 100.386C457.83 98.5985 458.163 97.0227 458.83 95.6591C459.504 94.2955 460.443 93.2311 461.648 92.4659C462.86 91.7008 464.277 91.3182 465.898 91.3182C466.883 91.3182 467.837 91.4811 468.761 91.8068C469.686 92.1326 470.515 92.6439 471.25 93.3409C471.985 94.0379 472.564 94.9432 472.989 96.0568C473.413 97.1629 473.625 98.5076 473.625 100.091V101.295H459.75V98.75H470.295C470.295 97.8561 470.114 97.0644 469.75 96.375C469.386 95.678 468.875 95.1288 468.216 94.7273C467.564 94.3258 466.799 94.125 465.92 94.125C464.966 94.125 464.133 94.3598 463.42 94.8295C462.716 95.2917 462.17 95.8977 461.784 96.6477C461.405 97.3902 461.216 98.197 461.216 99.0682V101.057C461.216 102.223 461.42 103.216 461.83 104.034C462.246 104.852 462.826 105.477 463.568 105.909C464.311 106.333 465.178 106.545 466.17 106.545C466.814 106.545 467.402 106.455 467.932 106.273C468.462 106.083 468.92 105.803 469.307 105.432C469.693 105.061 469.989 104.602 470.193 104.057L473.409 104.636C473.152 105.583 472.689 106.413 472.023 107.125C471.364 107.83 470.534 108.379 469.534 108.773C468.542 109.159 467.409 109.352 466.136 109.352ZM484.989 88.75V85.7273H503V88.75H495.739V109H492.239V88.75H484.989ZM511.699 109.352C509.979 109.352 508.498 108.985 507.256 108.25C506.021 107.508 505.066 106.466 504.392 105.125C503.725 103.777 503.392 102.197 503.392 100.386C503.392 98.5985 503.725 97.0227 504.392 95.6591C505.066 94.2955 506.006 93.2311 507.21 92.4659C508.422 91.7008 509.839 91.3182 511.46 91.3182C512.445 91.3182 513.4 91.4811 514.324 91.8068C515.248 92.1326 516.078 92.6439 516.813 93.3409C517.547 94.0379 518.127 94.9432 518.551 96.0568C518.975 97.1629 519.188 98.5076 519.188 100.091V101.295H505.313V98.75H515.858C515.858 97.8561 515.676 97.0644 515.313 96.375C514.949 95.678 514.438 95.1288 513.778 94.7273C513.127 94.3258 512.362 94.125 511.483 94.125C510.528 94.125 509.695 94.3598 508.983 94.8295C508.278 95.2917 507.733 95.8977 507.347 96.6477C506.968 97.3902 506.778 98.197 506.778 99.0682V101.057C506.778 102.223 506.983 103.216 507.392 104.034C507.809 104.852 508.388 105.477 509.131 105.909C509.873 106.333 510.741 106.545 511.733 106.545C512.377 106.545 512.964 106.455 513.494 106.273C514.025 106.083 514.483 105.803 514.869 105.432C515.256 105.061 515.551 104.602 515.756 104.057L518.972 104.636C518.714 105.583 518.252 106.413 517.585 107.125C516.926 107.83 516.097 108.379 515.097 108.773C514.104 109.159 512.972 109.352 511.699 109.352ZM536.037 95.8068L532.957 96.3523C532.829 95.9583 532.624 95.5833 532.344 95.2273C532.071 94.8712 531.7 94.5795 531.23 94.3523C530.76 94.125 530.173 94.0114 529.469 94.0114C528.507 94.0114 527.704 94.2273 527.06 94.6591C526.416 95.0833 526.094 95.6326 526.094 96.3068C526.094 96.8902 526.31 97.3598 526.742 97.7159C527.173 98.072 527.87 98.3636 528.832 98.5909L531.605 99.2273C533.211 99.5985 534.408 100.17 535.196 100.943C535.984 101.716 536.378 102.72 536.378 103.955C536.378 105 536.075 105.932 535.469 106.75C534.87 107.561 534.033 108.197 532.957 108.659C531.889 109.121 530.651 109.352 529.242 109.352C527.287 109.352 525.692 108.936 524.457 108.102C523.223 107.261 522.465 106.068 522.185 104.523L525.469 104.023C525.673 104.879 526.094 105.527 526.73 105.966C527.367 106.398 528.196 106.614 529.219 106.614C530.332 106.614 531.223 106.383 531.889 105.92C532.556 105.451 532.889 104.879 532.889 104.205C532.889 103.659 532.685 103.201 532.276 102.83C531.874 102.458 531.257 102.178 530.423 101.989L527.469 101.341C525.84 100.97 524.635 100.379 523.855 99.5682C523.082 98.7576 522.696 97.7311 522.696 96.4886C522.696 95.4583 522.984 94.5568 523.56 93.7841C524.135 93.0114 524.931 92.4091 525.946 91.9773C526.961 91.5379 528.124 91.3182 529.435 91.3182C531.321 91.3182 532.806 91.7273 533.889 92.5455C534.973 93.3561 535.688 94.4432 536.037 95.8068ZM548.261 91.5455V94.2727H538.727V91.5455H548.261ZM541.284 87.3636H544.682V103.875C544.682 104.534 544.78 105.03 544.977 105.364C545.174 105.689 545.428 105.913 545.739 106.034C546.057 106.148 546.402 106.205 546.773 106.205C547.045 106.205 547.284 106.186 547.489 106.148C547.693 106.11 547.852 106.08 547.966 106.057L548.58 108.864C548.383 108.939 548.102 109.015 547.739 109.091C547.375 109.174 546.92 109.22 546.375 109.227C545.481 109.242 544.648 109.083 543.875 108.75C543.102 108.417 542.477 107.902 542 107.205C541.523 106.508 541.284 105.633 541.284 104.58V87.3636ZM555.418 98.6364V109H552.02V91.5455H555.281V94.3864H555.497C555.899 93.4621 556.528 92.7197 557.384 92.1591C558.247 91.5985 559.334 91.3182 560.645 91.3182C561.834 91.3182 562.876 91.5682 563.77 92.0682C564.664 92.5606 565.357 93.2955 565.849 94.2727C566.342 95.25 566.588 96.4583 566.588 97.8977V109H563.19V98.3068C563.19 97.0417 562.861 96.053 562.202 95.3409C561.543 94.6212 560.637 94.2614 559.486 94.2614C558.698 94.2614 557.997 94.4318 557.384 94.7727C556.778 95.1136 556.296 95.6136 555.94 96.2727C555.592 96.9242 555.418 97.7121 555.418 98.6364ZM578.668 109.352C576.948 109.352 575.467 108.985 574.224 108.25C572.99 107.508 572.035 106.466 571.361 105.125C570.694 103.777 570.361 102.197 570.361 100.386C570.361 98.5985 570.694 97.0227 571.361 95.6591C572.035 94.2955 572.974 93.2311 574.179 92.4659C575.391 91.7008 576.808 91.3182 578.429 91.3182C579.414 91.3182 580.368 91.4811 581.293 91.8068C582.217 92.1326 583.046 92.6439 583.781 93.3409C584.516 94.0379 585.096 94.9432 585.52 96.0568C585.944 97.1629 586.156 98.5076 586.156 100.091V101.295H572.281V98.75H582.827C582.827 97.8561 582.645 97.0644 582.281 96.375C581.918 95.678 581.406 95.1288 580.747 94.7273C580.096 94.3258 579.331 94.125 578.452 94.125C577.497 94.125 576.664 94.3598 575.952 94.8295C575.247 95.2917 574.702 95.8977 574.315 96.6477C573.937 97.3902 573.747 98.197 573.747 99.0682V101.057C573.747 102.223 573.952 103.216 574.361 104.034C574.778 104.852 575.357 105.477 576.099 105.909C576.842 106.333 577.709 106.545 578.702 106.545C579.346 106.545 579.933 106.455 580.463 106.273C580.993 106.083 581.452 105.803 581.838 105.432C582.224 105.061 582.52 104.602 582.724 104.057L585.94 104.636C585.683 105.583 585.221 106.413 584.554 107.125C583.895 107.83 583.065 108.379 582.065 108.773C581.073 109.159 579.94 109.352 578.668 109.352ZM598.074 91.5455V94.2727H588.54V91.5455H598.074ZM591.097 87.3636H594.494V103.875C594.494 104.534 594.593 105.03 594.79 105.364C594.987 105.689 595.241 105.913 595.551 106.034C595.869 106.148 596.214 106.205 596.585 106.205C596.858 106.205 597.097 106.186 597.301 106.148C597.506 106.11 597.665 106.08 597.778 106.057L598.392 108.864C598.195 108.939 597.915 109.015 597.551 109.091C597.188 109.174 596.733 109.22 596.188 109.227C595.294 109.242 594.46 109.083 593.688 108.75C592.915 108.417 592.29 107.902 591.813 107.205C591.335 106.508 591.097 105.633 591.097 104.58V87.3636ZM93.2131 143.727C92.2964 143.727 91.4593 143.504 90.7017 143.057C89.9442 142.602 89.3381 141.996 88.8836 141.239C88.4366 140.481 88.2131 139.644 88.2131 138.727C88.2131 137.803 88.4366 136.966 88.8836 136.216C89.3381 135.458 89.9442 134.856 90.7017 134.409C91.4593 133.955 92.2964 133.727 93.2131 133.727C94.1374 133.727 94.9745 133.955 95.7245 134.409C96.4821 134.856 97.0843 135.458 97.5313 136.216C97.9858 136.966 98.2131 137.803 98.2131 138.727C98.2131 139.644 97.9858 140.481 97.5313 141.239C97.0843 141.996 96.4821 142.602 95.7245 143.057C94.9745 143.504 94.1374 143.727 93.2131 143.727ZM138.545 124.727V148H135.318L123.489 130.932H123.273V148H119.761V124.727H123.011L134.852 141.818H135.068V124.727H138.545ZM148.474 148.386C147.368 148.386 146.368 148.182 145.474 147.773C144.581 147.356 143.872 146.754 143.349 145.966C142.834 145.178 142.577 144.212 142.577 143.068C142.577 142.083 142.766 141.273 143.145 140.636C143.524 140 144.035 139.496 144.679 139.125C145.323 138.754 146.043 138.473 146.838 138.284C147.634 138.095 148.444 137.951 149.27 137.852C150.315 137.731 151.164 137.633 151.815 137.557C152.467 137.473 152.94 137.341 153.236 137.159C153.531 136.977 153.679 136.682 153.679 136.273V136.193C153.679 135.201 153.399 134.432 152.838 133.886C152.285 133.341 151.459 133.068 150.361 133.068C149.217 133.068 148.315 133.322 147.656 133.83C147.005 134.33 146.554 134.886 146.304 135.5L143.111 134.773C143.49 133.712 144.043 132.856 144.77 132.205C145.505 131.545 146.349 131.068 147.304 130.773C148.259 130.47 149.262 130.318 150.315 130.318C151.012 130.318 151.751 130.402 152.531 130.568C153.319 130.727 154.054 131.023 154.736 131.455C155.425 131.886 155.99 132.504 156.429 133.307C156.868 134.102 157.088 135.136 157.088 136.409V148H153.77V145.614H153.634C153.414 146.053 153.084 146.485 152.645 146.909C152.206 147.333 151.641 147.686 150.952 147.966C150.262 148.246 149.437 148.386 148.474 148.386ZM149.213 145.659C150.153 145.659 150.956 145.473 151.622 145.102C152.296 144.731 152.808 144.246 153.156 143.648C153.512 143.042 153.69 142.394 153.69 141.705V139.455C153.569 139.576 153.334 139.689 152.986 139.795C152.645 139.894 152.255 139.981 151.815 140.057C151.376 140.125 150.948 140.189 150.531 140.25C150.115 140.303 149.766 140.348 149.486 140.386C148.827 140.47 148.224 140.61 147.679 140.807C147.141 141.004 146.709 141.288 146.384 141.659C146.065 142.023 145.906 142.508 145.906 143.114C145.906 143.955 146.217 144.591 146.838 145.023C147.459 145.447 148.251 145.659 149.213 145.659ZM169.761 130.545V133.273H160.227V130.545H169.761ZM162.784 126.364H166.182V142.875C166.182 143.534 166.28 144.03 166.477 144.364C166.674 144.689 166.928 144.913 167.239 145.034C167.557 145.148 167.902 145.205 168.273 145.205C168.545 145.205 168.784 145.186 168.989 145.148C169.193 145.11 169.352 145.08 169.466 145.057L170.08 147.864C169.883 147.939 169.602 148.015 169.239 148.091C168.875 148.174 168.42 148.22 167.875 148.227C166.981 148.242 166.148 148.083 165.375 147.75C164.602 147.417 163.977 146.902 163.5 146.205C163.023 145.508 162.784 144.633 162.784 143.58V126.364ZM173.52 148V130.545H176.918V148H173.52ZM175.236 127.852C174.645 127.852 174.137 127.655 173.713 127.261C173.296 126.86 173.088 126.383 173.088 125.83C173.088 125.269 173.296 124.792 173.713 124.398C174.137 123.996 174.645 123.795 175.236 123.795C175.827 123.795 176.331 123.996 176.747 124.398C177.171 124.792 177.384 125.269 177.384 125.83C177.384 126.383 177.171 126.86 176.747 127.261C176.331 127.655 175.827 127.852 175.236 127.852ZM196.42 130.545L190.091 148H186.455L180.114 130.545H183.761L188.182 143.977H188.364L192.773 130.545H196.42ZM206.543 148.352C204.823 148.352 203.342 147.985 202.099 147.25C200.865 146.508 199.91 145.466 199.236 144.125C198.569 142.777 198.236 141.197 198.236 139.386C198.236 137.598 198.569 136.023 199.236 134.659C199.91 133.295 200.849 132.231 202.054 131.466C203.266 130.701 204.683 130.318 206.304 130.318C207.289 130.318 208.243 130.481 209.168 130.807C210.092 131.133 210.921 131.644 211.656 132.341C212.391 133.038 212.971 133.943 213.395 135.057C213.819 136.163 214.031 137.508 214.031 139.091V140.295H200.156V137.75H210.702C210.702 136.856 210.52 136.064 210.156 135.375C209.793 134.678 209.281 134.129 208.622 133.727C207.971 133.326 207.206 133.125 206.327 133.125C205.372 133.125 204.539 133.36 203.827 133.83C203.122 134.292 202.577 134.898 202.19 135.648C201.812 136.39 201.622 137.197 201.622 138.068V140.057C201.622 141.223 201.827 142.216 202.236 143.034C202.653 143.852 203.232 144.477 203.974 144.909C204.717 145.333 205.584 145.545 206.577 145.545C207.221 145.545 207.808 145.455 208.338 145.273C208.868 145.083 209.327 144.803 209.713 144.432C210.099 144.061 210.395 143.602 210.599 143.057L213.815 143.636C213.558 144.583 213.096 145.413 212.429 146.125C211.77 146.83 210.94 147.379 209.94 147.773C208.948 148.159 207.815 148.352 206.543 148.352ZM245.872 132.295H242.327C242.19 131.538 241.937 130.871 241.565 130.295C241.194 129.72 240.74 129.231 240.202 128.83C239.664 128.428 239.062 128.125 238.395 127.92C237.736 127.716 237.035 127.614 236.293 127.614C234.952 127.614 233.751 127.951 232.69 128.625C231.637 129.299 230.804 130.288 230.19 131.591C229.584 132.894 229.281 134.485 229.281 136.364C229.281 138.258 229.584 139.856 230.19 141.159C230.804 142.462 231.641 143.447 232.702 144.114C233.762 144.78 234.956 145.114 236.281 145.114C237.016 145.114 237.713 145.015 238.372 144.818C239.039 144.614 239.641 144.314 240.179 143.92C240.717 143.527 241.171 143.045 241.543 142.477C241.921 141.902 242.183 141.242 242.327 140.5L245.872 140.511C245.683 141.655 245.315 142.708 244.77 143.67C244.232 144.625 243.539 145.451 242.69 146.148C241.849 146.837 240.887 147.371 239.804 147.75C238.721 148.129 237.539 148.318 236.259 148.318C234.243 148.318 232.448 147.841 230.872 146.886C229.296 145.924 228.054 144.549 227.145 142.761C226.243 140.973 225.793 138.841 225.793 136.364C225.793 133.879 226.247 131.746 227.156 129.966C228.065 128.178 229.308 126.807 230.884 125.852C232.459 124.89 234.251 124.409 236.259 124.409C237.493 124.409 238.645 124.587 239.713 124.943C240.789 125.292 241.755 125.807 242.611 126.489C243.467 127.163 244.175 127.989 244.736 128.966C245.296 129.936 245.675 131.045 245.872 132.295ZM249.801 148V130.545H253.085V133.318H253.267C253.585 132.379 254.146 131.64 254.949 131.102C255.76 130.557 256.676 130.284 257.699 130.284C257.911 130.284 258.161 130.292 258.449 130.307C258.744 130.322 258.975 130.341 259.142 130.364V133.614C259.006 133.576 258.763 133.534 258.415 133.489C258.066 133.436 257.718 133.409 257.369 133.409C256.566 133.409 255.85 133.58 255.222 133.92C254.6 134.254 254.108 134.72 253.744 135.318C253.381 135.909 253.199 136.583 253.199 137.341V148H249.801ZM262.082 148V130.545H265.48V148H262.082ZM263.798 127.852C263.207 127.852 262.7 127.655 262.276 127.261C261.859 126.86 261.651 126.383 261.651 125.83C261.651 125.269 261.859 124.792 262.276 124.398C262.7 123.996 263.207 123.795 263.798 123.795C264.389 123.795 264.893 123.996 265.31 124.398C265.734 124.792 265.946 125.269 265.946 125.83C265.946 126.383 265.734 126.86 265.31 127.261C264.893 127.655 264.389 127.852 263.798 127.852ZM277.403 148.352C275.714 148.352 274.26 147.97 273.04 147.205C271.828 146.432 270.896 145.367 270.244 144.011C269.593 142.655 269.267 141.102 269.267 139.352C269.267 137.58 269.6 136.015 270.267 134.659C270.934 133.295 271.873 132.231 273.085 131.466C274.297 130.701 275.725 130.318 277.369 130.318C278.695 130.318 279.877 130.564 280.915 131.057C281.953 131.542 282.79 132.223 283.426 133.102C284.07 133.981 284.453 135.008 284.574 136.182H281.267C281.085 135.364 280.669 134.659 280.017 134.068C279.373 133.477 278.51 133.182 277.426 133.182C276.479 133.182 275.65 133.432 274.938 133.932C274.233 134.424 273.684 135.129 273.29 136.045C272.896 136.955 272.699 138.03 272.699 139.273C272.699 140.545 272.892 141.644 273.278 142.568C273.665 143.492 274.21 144.208 274.915 144.716C275.627 145.223 276.464 145.477 277.426 145.477C278.07 145.477 278.653 145.36 279.176 145.125C279.706 144.883 280.15 144.538 280.506 144.091C280.869 143.644 281.123 143.106 281.267 142.477H284.574C284.453 143.606 284.085 144.614 283.472 145.5C282.858 146.386 282.036 147.083 281.006 147.591C279.983 148.098 278.782 148.352 277.403 148.352ZM291.332 142.08L291.31 137.932H291.901L298.855 130.545H302.923L294.992 138.955H294.457L291.332 142.08ZM288.207 148V124.727H291.605V148H288.207ZM299.23 148L292.98 139.705L295.321 137.33L303.401 148H299.23ZM312.824 148.352C311.104 148.352 309.623 147.985 308.381 147.25C307.146 146.508 306.191 145.466 305.517 144.125C304.85 142.777 304.517 141.197 304.517 139.386C304.517 137.598 304.85 136.023 305.517 134.659C306.191 133.295 307.131 132.231 308.335 131.466C309.547 130.701 310.964 130.318 312.585 130.318C313.57 130.318 314.525 130.481 315.449 130.807C316.373 131.133 317.203 131.644 317.938 132.341C318.672 133.038 319.252 133.943 319.676 135.057C320.1 136.163 320.313 137.508 320.313 139.091V140.295H306.438V137.75H316.983C316.983 136.856 316.801 136.064 316.438 135.375C316.074 134.678 315.563 134.129 314.903 133.727C314.252 133.326 313.487 133.125 312.608 133.125C311.653 133.125 310.82 133.36 310.108 133.83C309.403 134.292 308.858 134.898 308.472 135.648C308.093 136.39 307.903 137.197 307.903 138.068V140.057C307.903 141.223 308.108 142.216 308.517 143.034C308.934 143.852 309.513 144.477 310.256 144.909C310.998 145.333 311.866 145.545 312.858 145.545C313.502 145.545 314.089 145.455 314.619 145.273C315.15 145.083 315.608 144.803 315.994 144.432C316.381 144.061 316.676 143.602 316.881 143.057L320.097 143.636C319.839 144.583 319.377 145.413 318.71 146.125C318.051 146.83 317.222 147.379 316.222 147.773C315.229 148.159 314.097 148.352 312.824 148.352ZM332.23 130.545V133.273H322.696V130.545H332.23ZM325.253 126.364H328.651V142.875C328.651 143.534 328.749 144.03 328.946 144.364C329.143 144.689 329.397 144.913 329.707 145.034C330.026 145.148 330.37 145.205 330.742 145.205C331.014 145.205 331.253 145.186 331.457 145.148C331.662 145.11 331.821 145.08 331.935 145.057L332.548 147.864C332.351 147.939 332.071 148.015 331.707 148.091C331.344 148.174 330.889 148.22 330.344 148.227C329.45 148.242 328.617 148.083 327.844 147.75C327.071 147.417 326.446 146.902 325.969 146.205C325.492 145.508 325.253 144.633 325.253 143.58V126.364ZM363.514 124.727V148H360.287L348.457 130.932H348.242V148H344.73V124.727H347.98L359.821 141.818H360.037V124.727H363.514ZM368.636 148V124.727H383.068V127.75H372.148V134.841H382.034V137.852H372.148V148H368.636ZM386.239 127.75V124.727H404.25V127.75H396.989V148H393.489V127.75H386.239ZM429.392 130.841C429.271 129.765 428.771 128.932 427.892 128.341C427.013 127.742 425.907 127.443 424.574 127.443C423.619 127.443 422.794 127.595 422.097 127.898C421.4 128.193 420.858 128.602 420.472 129.125C420.093 129.64 419.903 130.227 419.903 130.886C419.903 131.439 420.032 131.917 420.29 132.318C420.555 132.72 420.9 133.057 421.324 133.33C421.756 133.595 422.218 133.818 422.71 134C423.203 134.174 423.676 134.318 424.131 134.432L426.403 135.023C427.146 135.205 427.907 135.451 428.688 135.761C429.468 136.072 430.191 136.481 430.858 136.989C431.525 137.496 432.063 138.125 432.472 138.875C432.888 139.625 433.097 140.523 433.097 141.568C433.097 142.886 432.756 144.057 432.074 145.08C431.4 146.102 430.419 146.909 429.131 147.5C427.85 148.091 426.301 148.386 424.483 148.386C422.741 148.386 421.233 148.11 419.96 147.557C418.688 147.004 417.691 146.22 416.972 145.205C416.252 144.182 415.854 142.97 415.778 141.568H419.301C419.369 142.409 419.642 143.11 420.119 143.67C420.604 144.223 421.222 144.636 421.972 144.909C422.729 145.174 423.559 145.307 424.46 145.307C425.453 145.307 426.335 145.152 427.108 144.841C427.888 144.523 428.502 144.083 428.949 143.523C429.396 142.955 429.619 142.292 429.619 141.534C429.619 140.845 429.422 140.28 429.028 139.841C428.642 139.402 428.116 139.038 427.449 138.75C426.79 138.462 426.044 138.208 425.21 137.989L422.46 137.239C420.597 136.731 419.119 135.985 418.028 135C416.945 134.015 416.403 132.712 416.403 131.091C416.403 129.75 416.767 128.58 417.494 127.58C418.222 126.58 419.206 125.803 420.449 125.25C421.691 124.689 423.093 124.409 424.653 124.409C426.229 124.409 427.619 124.686 428.824 125.239C430.036 125.792 430.991 126.553 431.688 127.523C432.385 128.485 432.748 129.591 432.778 130.841H429.392ZM456.077 124.727V148H452.849L441.02 130.932H440.804V148H437.293V124.727H440.543L452.384 141.818H452.599V124.727H456.077ZM461.199 148V124.727H475.79V127.75H464.71V134.841H475.028V137.852H464.71V144.977H475.926V148H461.199ZM480.48 148V124.727H495.071V127.75H483.992V134.841H494.31V137.852H483.992V144.977H495.207V148H480.48ZM499.761 148V124.727H503.273V135.841H503.557L513.318 124.727H517.739L508.352 135.205L517.773 148H513.545L506.023 137.602L503.273 140.761V148H499.761ZM529.48 148V124.727H537.776C539.586 124.727 541.086 125.057 542.276 125.716C543.465 126.375 544.355 127.277 544.946 128.42C545.537 129.557 545.832 130.837 545.832 132.261C545.832 133.693 545.533 134.981 544.935 136.125C544.344 137.261 543.45 138.163 542.253 138.83C541.063 139.489 539.567 139.818 537.764 139.818H532.06V136.841H537.446C538.59 136.841 539.518 136.644 540.23 136.25C540.942 135.848 541.465 135.303 541.798 134.614C542.132 133.924 542.298 133.14 542.298 132.261C542.298 131.383 542.132 130.602 541.798 129.92C541.465 129.239 540.938 128.705 540.219 128.318C539.507 127.932 538.567 127.739 537.401 127.739H532.992V148H529.48ZM549.949 148V124.727H564.54V127.75H553.46V134.841H563.778V137.852H553.46V144.977H564.676V148H549.949ZM571.196 148H567.469L575.844 124.727H579.901L588.276 148H584.548L577.969 128.955H577.787L571.196 148ZM571.821 138.886H583.912V141.841H571.821V138.886ZM591.636 148V124.727H595.148V135.841H595.432L605.193 124.727H609.614L600.227 135.205L609.648 148H605.42L597.898 137.602L595.148 140.761V148H591.636ZM93.2131 182.727C92.2964 182.727 91.4593 182.504 90.7017 182.057C89.9442 181.602 89.3381 180.996 88.8836 180.239C88.4366 179.481 88.2131 178.644 88.2131 177.727C88.2131 176.803 88.4366 175.966 88.8836 175.216C89.3381 174.458 89.9442 173.856 90.7017 173.409C91.4593 172.955 92.2964 172.727 93.2131 172.727C94.1374 172.727 94.9745 172.955 95.7245 173.409C96.4821 173.856 97.0843 174.458 97.5313 175.216C97.9858 175.966 98.2131 176.803 98.2131 177.727C98.2131 178.644 97.9858 179.481 97.5313 180.239C97.0843 180.996 96.4821 181.602 95.7245 182.057C94.9745 182.504 94.1374 182.727 93.2131 182.727ZM119.761 187V163.727H128.284C129.936 163.727 131.303 164 132.386 164.545C133.47 165.083 134.28 165.814 134.818 166.739C135.356 167.655 135.625 168.689 135.625 169.841C135.625 170.811 135.447 171.629 135.091 172.295C134.735 172.955 134.258 173.485 133.659 173.886C133.068 174.28 132.417 174.568 131.705 174.75V174.977C132.477 175.015 133.231 175.265 133.966 175.727C134.708 176.182 135.322 176.83 135.807 177.67C136.292 178.511 136.534 179.534 136.534 180.739C136.534 181.928 136.254 182.996 135.693 183.943C135.14 184.883 134.284 185.629 133.125 186.182C131.966 186.727 130.485 187 128.682 187H119.761ZM123.273 183.989H128.341C130.023 183.989 131.227 183.663 131.955 183.011C132.682 182.36 133.045 181.545 133.045 180.568C133.045 179.833 132.86 179.159 132.489 178.545C132.117 177.932 131.587 177.443 130.898 177.08C130.216 176.716 129.405 176.534 128.466 176.534H123.273V183.989ZM123.273 173.795H127.977C128.765 173.795 129.474 173.644 130.102 173.341C130.739 173.038 131.242 172.614 131.614 172.068C131.992 171.515 132.182 170.864 132.182 170.114C132.182 169.152 131.845 168.345 131.17 167.693C130.496 167.042 129.462 166.716 128.068 166.716H123.273V173.795ZM147.949 187.352C146.229 187.352 144.748 186.985 143.506 186.25C142.271 185.508 141.316 184.466 140.642 183.125C139.975 181.777 139.642 180.197 139.642 178.386C139.642 176.598 139.975 175.023 140.642 173.659C141.316 172.295 142.256 171.231 143.46 170.466C144.672 169.701 146.089 169.318 147.71 169.318C148.695 169.318 149.65 169.481 150.574 169.807C151.498 170.133 152.328 170.644 153.063 171.341C153.797 172.038 154.377 172.943 154.801 174.057C155.225 175.163 155.438 176.508 155.438 178.091V179.295H141.563V176.75H152.108C152.108 175.856 151.926 175.064 151.563 174.375C151.199 173.678 150.688 173.129 150.028 172.727C149.377 172.326 148.612 172.125 147.733 172.125C146.778 172.125 145.945 172.36 145.233 172.83C144.528 173.292 143.983 173.898 143.597 174.648C143.218 175.39 143.028 176.197 143.028 177.068V179.057C143.028 180.223 143.233 181.216 143.642 182.034C144.059 182.852 144.638 183.477 145.381 183.909C146.123 184.333 146.991 184.545 147.983 184.545C148.627 184.545 149.214 184.455 149.744 184.273C150.275 184.083 150.733 183.803 151.119 183.432C151.506 183.061 151.801 182.602 152.006 182.057L155.222 182.636C154.964 183.583 154.502 184.413 153.835 185.125C153.176 185.83 152.347 186.379 151.347 186.773C150.354 187.159 149.222 187.352 147.949 187.352ZM167.355 169.545V172.273H157.821V169.545H167.355ZM160.378 165.364H163.776V181.875C163.776 182.534 163.874 183.03 164.071 183.364C164.268 183.689 164.522 183.913 164.832 184.034C165.151 184.148 165.495 184.205 165.867 184.205C166.139 184.205 166.378 184.186 166.582 184.148C166.787 184.11 166.946 184.08 167.06 184.057L167.673 186.864C167.476 186.939 167.196 187.015 166.832 187.091C166.469 187.174 166.014 187.22 165.469 187.227C164.575 187.242 163.742 187.083 162.969 186.75C162.196 186.417 161.571 185.902 161.094 185.205C160.617 184.508 160.378 183.633 160.378 182.58V165.364ZM176.193 187.386C175.087 187.386 174.087 187.182 173.193 186.773C172.299 186.356 171.591 185.754 171.068 184.966C170.553 184.178 170.295 183.212 170.295 182.068C170.295 181.083 170.485 180.273 170.864 179.636C171.242 179 171.754 178.496 172.398 178.125C173.042 177.754 173.761 177.473 174.557 177.284C175.352 177.095 176.163 176.951 176.989 176.852C178.034 176.731 178.883 176.633 179.534 176.557C180.186 176.473 180.659 176.341 180.955 176.159C181.25 175.977 181.398 175.682 181.398 175.273V175.193C181.398 174.201 181.117 173.432 180.557 172.886C180.004 172.341 179.178 172.068 178.08 172.068C176.936 172.068 176.034 172.322 175.375 172.83C174.724 173.33 174.273 173.886 174.023 174.5L170.83 173.773C171.208 172.712 171.761 171.856 172.489 171.205C173.224 170.545 174.068 170.068 175.023 169.773C175.977 169.47 176.981 169.318 178.034 169.318C178.731 169.318 179.47 169.402 180.25 169.568C181.038 169.727 181.773 170.023 182.455 170.455C183.144 170.886 183.708 171.504 184.148 172.307C184.587 173.102 184.807 174.136 184.807 175.409V187H181.489V184.614H181.352C181.133 185.053 180.803 185.485 180.364 185.909C179.924 186.333 179.36 186.686 178.67 186.966C177.981 187.246 177.155 187.386 176.193 187.386ZM176.932 184.659C177.871 184.659 178.674 184.473 179.341 184.102C180.015 183.731 180.527 183.246 180.875 182.648C181.231 182.042 181.409 181.394 181.409 180.705V178.455C181.288 178.576 181.053 178.689 180.705 178.795C180.364 178.894 179.974 178.981 179.534 179.057C179.095 179.125 178.667 179.189 178.25 179.25C177.833 179.303 177.485 179.348 177.205 179.386C176.545 179.47 175.943 179.61 175.398 179.807C174.86 180.004 174.428 180.288 174.102 180.659C173.784 181.023 173.625 181.508 173.625 182.114C173.625 182.955 173.936 183.591 174.557 184.023C175.178 184.447 175.97 184.659 176.932 184.659ZM205.608 187H198.074V163.727H205.847C208.127 163.727 210.085 164.193 211.722 165.125C213.358 166.049 214.612 167.379 215.483 169.114C216.362 170.841 216.801 172.913 216.801 175.33C216.801 177.754 216.358 179.837 215.472 181.58C214.593 183.322 213.32 184.663 211.653 185.602C209.987 186.534 207.972 187 205.608 187ZM201.585 183.932H205.415C207.188 183.932 208.661 183.598 209.835 182.932C211.01 182.258 211.888 181.284 212.472 180.011C213.055 178.731 213.347 177.17 213.347 175.33C213.347 173.504 213.055 171.955 212.472 170.682C211.896 169.409 211.036 168.443 209.892 167.784C208.748 167.125 207.328 166.795 205.631 166.795H201.585V183.932ZM221.168 187V163.727H235.759V166.75H224.679V173.841H234.997V176.852H224.679V183.977H235.895V187H221.168ZM242.892 163.727L248.46 172.83H248.642L254.21 163.727H258.278L251.028 175.364L258.324 187H254.233L248.642 178.023H248.46L242.869 187H238.778L246.199 175.364L238.824 163.727H242.892ZM270.23 187V163.727H273.742V183.977H284.287V187H270.23ZM293.099 187.386C291.993 187.386 290.993 187.182 290.099 186.773C289.206 186.356 288.497 185.754 287.974 184.966C287.459 184.178 287.202 183.212 287.202 182.068C287.202 181.083 287.391 180.273 287.77 179.636C288.149 179 288.66 178.496 289.304 178.125C289.948 177.754 290.668 177.473 291.463 177.284C292.259 177.095 293.069 176.951 293.895 176.852C294.94 176.731 295.789 176.633 296.44 176.557C297.092 176.473 297.565 176.341 297.861 176.159C298.156 175.977 298.304 175.682 298.304 175.273V175.193C298.304 174.201 298.024 173.432 297.463 172.886C296.91 172.341 296.084 172.068 294.986 172.068C293.842 172.068 292.94 172.322 292.281 172.83C291.63 173.33 291.179 173.886 290.929 174.5L287.736 173.773C288.115 172.712 288.668 171.856 289.395 171.205C290.13 170.545 290.974 170.068 291.929 169.773C292.884 169.47 293.887 169.318 294.94 169.318C295.637 169.318 296.376 169.402 297.156 169.568C297.944 169.727 298.679 170.023 299.361 170.455C300.05 170.886 300.615 171.504 301.054 172.307C301.493 173.102 301.713 174.136 301.713 175.409V187H298.395V184.614H298.259C298.039 185.053 297.709 185.485 297.27 185.909C296.831 186.333 296.266 186.686 295.577 186.966C294.887 187.246 294.062 187.386 293.099 187.386ZM293.838 184.659C294.778 184.659 295.581 184.473 296.247 184.102C296.921 183.731 297.433 183.246 297.781 182.648C298.137 182.042 298.315 181.394 298.315 180.705V178.455C298.194 178.576 297.959 178.689 297.611 178.795C297.27 178.894 296.88 178.981 296.44 179.057C296.001 179.125 295.573 179.189 295.156 179.25C294.74 179.303 294.391 179.348 294.111 179.386C293.452 179.47 292.849 179.61 292.304 179.807C291.766 180.004 291.334 180.288 291.009 180.659C290.69 181.023 290.531 181.508 290.531 182.114C290.531 182.955 290.842 183.591 291.463 184.023C292.084 184.447 292.876 184.659 293.838 184.659ZM317.295 179.761V169.545H320.705V187H317.364V183.977H317.182C316.78 184.909 316.136 185.686 315.25 186.307C314.371 186.92 313.277 187.227 311.966 187.227C310.845 187.227 309.852 186.981 308.989 186.489C308.133 185.989 307.458 185.25 306.966 184.273C306.481 183.295 306.239 182.087 306.239 180.648V169.545H309.636V180.239C309.636 181.428 309.966 182.375 310.625 183.08C311.284 183.784 312.14 184.136 313.193 184.136C313.83 184.136 314.462 183.977 315.091 183.659C315.727 183.341 316.254 182.86 316.67 182.216C317.095 181.572 317.303 180.754 317.295 179.761ZM328.668 176.636V187H325.27V169.545H328.531V172.386H328.747C329.149 171.462 329.778 170.72 330.634 170.159C331.497 169.598 332.584 169.318 333.895 169.318C335.084 169.318 336.126 169.568 337.02 170.068C337.914 170.561 338.607 171.295 339.099 172.273C339.592 173.25 339.838 174.458 339.838 175.898V187H336.44V176.307C336.44 175.042 336.111 174.053 335.452 173.341C334.793 172.621 333.887 172.261 332.736 172.261C331.948 172.261 331.247 172.432 330.634 172.773C330.028 173.114 329.546 173.614 329.19 174.273C328.842 174.924 328.668 175.712 328.668 176.636ZM351.747 187.352C350.058 187.352 348.603 186.97 347.384 186.205C346.171 185.432 345.24 184.367 344.588 183.011C343.937 181.655 343.611 180.102 343.611 178.352C343.611 176.58 343.944 175.015 344.611 173.659C345.278 172.295 346.217 171.231 347.429 170.466C348.641 169.701 350.069 169.318 351.713 169.318C353.039 169.318 354.221 169.564 355.259 170.057C356.296 170.542 357.134 171.223 357.77 172.102C358.414 172.981 358.796 174.008 358.918 175.182H355.611C355.429 174.364 355.012 173.659 354.361 173.068C353.717 172.477 352.853 172.182 351.77 172.182C350.823 172.182 349.993 172.432 349.281 172.932C348.577 173.424 348.028 174.129 347.634 175.045C347.24 175.955 347.043 177.03 347.043 178.273C347.043 179.545 347.236 180.644 347.622 181.568C348.009 182.492 348.554 183.208 349.259 183.716C349.971 184.223 350.808 184.477 351.77 184.477C352.414 184.477 352.997 184.36 353.52 184.125C354.05 183.883 354.493 183.538 354.849 183.091C355.213 182.644 355.467 182.106 355.611 181.477H358.918C358.796 182.606 358.429 183.614 357.815 184.5C357.202 185.386 356.38 186.083 355.349 186.591C354.327 187.098 353.126 187.352 351.747 187.352ZM365.949 176.636V187H362.551V163.727H365.903V172.386H366.119C366.528 171.447 367.153 170.701 367.994 170.148C368.835 169.595 369.934 169.318 371.29 169.318C372.487 169.318 373.532 169.564 374.426 170.057C375.328 170.549 376.025 171.284 376.517 172.261C377.017 173.231 377.267 174.443 377.267 175.898V187H373.869V176.307C373.869 175.027 373.54 174.034 372.881 173.33C372.222 172.617 371.305 172.261 370.131 172.261C369.328 172.261 368.608 172.432 367.972 172.773C367.343 173.114 366.847 173.614 366.483 174.273C366.127 174.924 365.949 175.712 365.949 176.636ZM93.2131 221.727C92.2964 221.727 91.4593 221.504 90.7017 221.057C89.9442 220.602 89.3381 219.996 88.8836 219.239C88.4366 218.481 88.2131 217.644 88.2131 216.727C88.2131 215.803 88.4366 214.966 88.8836 214.216C89.3381 213.458 89.9442 212.856 90.7017 212.409C91.4593 211.955 92.2964 211.727 93.2131 211.727C94.1374 211.727 94.9745 211.955 95.7245 212.409C96.4821 212.856 97.0843 213.458 97.5313 214.216C97.9858 214.966 98.2131 215.803 98.2131 216.727C98.2131 217.644 97.9858 218.481 97.5313 219.239C97.0843 219.996 96.4821 220.602 95.7245 221.057C94.9745 221.504 94.1374 221.727 93.2131 221.727ZM127.295 226H119.761V202.727H127.534C129.814 202.727 131.773 203.193 133.409 204.125C135.045 205.049 136.299 206.379 137.17 208.114C138.049 209.841 138.489 211.913 138.489 214.33C138.489 216.754 138.045 218.837 137.159 220.58C136.28 222.322 135.008 223.663 133.341 224.602C131.674 225.534 129.659 226 127.295 226ZM123.273 222.932H127.102C128.875 222.932 130.349 222.598 131.523 221.932C132.697 221.258 133.576 220.284 134.159 219.011C134.742 217.731 135.034 216.17 135.034 214.33C135.034 212.504 134.742 210.955 134.159 209.682C133.583 208.409 132.724 207.443 131.58 206.784C130.436 206.125 129.015 205.795 127.318 205.795H123.273V222.932ZM142.855 226V202.727H157.446V205.75H146.367V212.841H156.685V215.852H146.367V222.977H157.582V226H142.855ZM164.58 202.727L170.148 211.83H170.33L175.898 202.727H179.966L172.716 214.364L180.011 226H175.92L170.33 217.023H170.148L164.557 226H160.466L167.886 214.364L160.511 202.727H164.58ZM193.884 226H190.156L198.531 202.727H202.588L210.963 226H207.236L200.656 206.955H200.474L193.884 226ZM194.509 216.886H206.599V219.841H194.509V216.886ZM217.449 215.636V226H214.051V208.545H217.313V211.386H217.528C217.93 210.462 218.559 209.72 219.415 209.159C220.278 208.598 221.366 208.318 222.676 208.318C223.866 208.318 224.907 208.568 225.801 209.068C226.695 209.561 227.388 210.295 227.881 211.273C228.373 212.25 228.619 213.458 228.619 214.898V226H225.222V215.307C225.222 214.042 224.892 213.053 224.233 212.341C223.574 211.621 222.669 211.261 221.517 211.261C220.729 211.261 220.028 211.432 219.415 211.773C218.809 212.114 218.328 212.614 217.972 213.273C217.623 213.924 217.449 214.712 217.449 215.636ZM238.256 226.386C237.15 226.386 236.15 226.182 235.256 225.773C234.362 225.356 233.653 224.754 233.131 223.966C232.616 223.178 232.358 222.212 232.358 221.068C232.358 220.083 232.547 219.273 232.926 218.636C233.305 218 233.816 217.496 234.46 217.125C235.104 216.754 235.824 216.473 236.619 216.284C237.415 216.095 238.225 215.951 239.051 215.852C240.097 215.731 240.945 215.633 241.597 215.557C242.248 215.473 242.722 215.341 243.017 215.159C243.313 214.977 243.46 214.682 243.46 214.273V214.193C243.46 213.201 243.18 212.432 242.619 211.886C242.066 211.341 241.241 211.068 240.142 211.068C238.998 211.068 238.097 211.322 237.438 211.83C236.786 212.33 236.335 212.886 236.085 213.5L232.892 212.773C233.271 211.712 233.824 210.856 234.551 210.205C235.286 209.545 236.131 209.068 237.085 208.773C238.04 208.47 239.044 208.318 240.097 208.318C240.794 208.318 241.532 208.402 242.313 208.568C243.1 208.727 243.835 209.023 244.517 209.455C245.206 209.886 245.771 210.504 246.21 211.307C246.65 212.102 246.869 213.136 246.869 214.409V226H243.551V223.614H243.415C243.195 224.053 242.866 224.485 242.426 224.909C241.987 225.333 241.422 225.686 240.733 225.966C240.044 226.246 239.218 226.386 238.256 226.386ZM238.994 223.659C239.934 223.659 240.737 223.473 241.403 223.102C242.078 222.731 242.589 222.246 242.938 221.648C243.294 221.042 243.472 220.394 243.472 219.705V217.455C243.35 217.576 243.116 217.689 242.767 217.795C242.426 217.894 242.036 217.981 241.597 218.057C241.157 218.125 240.729 218.189 240.313 218.25C239.896 218.303 239.547 218.348 239.267 218.386C238.608 218.47 238.006 218.61 237.46 218.807C236.922 219.004 236.491 219.288 236.165 219.659C235.847 220.023 235.688 220.508 235.688 221.114C235.688 221.955 235.998 222.591 236.619 223.023C237.241 223.447 238.032 223.659 238.994 223.659ZM254.793 202.727V226H251.395V202.727H254.793ZM261.511 232.545C261.004 232.545 260.542 232.504 260.125 232.42C259.708 232.345 259.398 232.261 259.193 232.17L260.011 229.386C260.633 229.553 261.186 229.625 261.67 229.602C262.155 229.58 262.583 229.398 262.955 229.057C263.333 228.716 263.667 228.159 263.955 227.386L264.375 226.227L257.989 208.545H261.625L266.045 222.091H266.227L270.648 208.545H274.295L267.102 228.33C266.769 229.239 266.345 230.008 265.83 230.636C265.314 231.273 264.701 231.75 263.989 232.068C263.277 232.386 262.451 232.545 261.511 232.545ZM285.636 208.545V211.273H276.102V208.545H285.636ZM278.659 204.364H282.057V220.875C282.057 221.534 282.155 222.03 282.352 222.364C282.549 222.689 282.803 222.913 283.114 223.034C283.432 223.148 283.777 223.205 284.148 223.205C284.42 223.205 284.659 223.186 284.864 223.148C285.068 223.11 285.227 223.08 285.341 223.057L285.955 225.864C285.758 225.939 285.477 226.015 285.114 226.091C284.75 226.174 284.295 226.22 283.75 226.227C282.856 226.242 282.023 226.083 281.25 225.75C280.477 225.417 279.852 224.902 279.375 224.205C278.898 223.508 278.659 222.633 278.659 221.58V204.364ZM289.395 226V208.545H292.793V226H289.395ZM291.111 205.852C290.52 205.852 290.012 205.655 289.588 205.261C289.171 204.86 288.963 204.383 288.963 203.83C288.963 203.269 289.171 202.792 289.588 202.398C290.012 201.996 290.52 201.795 291.111 201.795C291.702 201.795 292.206 201.996 292.622 202.398C293.046 202.792 293.259 203.269 293.259 203.83C293.259 204.383 293.046 204.86 292.622 205.261C292.206 205.655 291.702 205.852 291.111 205.852ZM304.716 226.352C303.027 226.352 301.572 225.97 300.352 225.205C299.14 224.432 298.208 223.367 297.557 222.011C296.905 220.655 296.58 219.102 296.58 217.352C296.58 215.58 296.913 214.015 297.58 212.659C298.246 211.295 299.186 210.231 300.398 209.466C301.61 208.701 303.038 208.318 304.682 208.318C306.008 208.318 307.189 208.564 308.227 209.057C309.265 209.542 310.102 210.223 310.739 211.102C311.383 211.981 311.765 213.008 311.886 214.182H308.58C308.398 213.364 307.981 212.659 307.33 212.068C306.686 211.477 305.822 211.182 304.739 211.182C303.792 211.182 302.962 211.432 302.25 211.932C301.545 212.424 300.996 213.129 300.602 214.045C300.208 214.955 300.011 216.03 300.011 217.273C300.011 218.545 300.205 219.644 300.591 220.568C300.977 221.492 301.523 222.208 302.227 222.716C302.939 223.223 303.777 223.477 304.739 223.477C305.383 223.477 305.966 223.36 306.489 223.125C307.019 222.883 307.462 222.538 307.818 222.091C308.182 221.644 308.436 221.106 308.58 220.477H311.886C311.765 221.606 311.398 222.614 310.784 223.5C310.17 224.386 309.349 225.083 308.318 225.591C307.295 226.098 306.095 226.352 304.716 226.352ZM328.599 212.807L325.52 213.352C325.391 212.958 325.187 212.583 324.906 212.227C324.634 211.871 324.262 211.58 323.793 211.352C323.323 211.125 322.736 211.011 322.031 211.011C321.069 211.011 320.266 211.227 319.622 211.659C318.978 212.083 318.656 212.633 318.656 213.307C318.656 213.89 318.872 214.36 319.304 214.716C319.736 215.072 320.433 215.364 321.395 215.591L324.168 216.227C325.774 216.598 326.971 217.17 327.759 217.943C328.546 218.716 328.94 219.72 328.94 220.955C328.94 222 328.637 222.932 328.031 223.75C327.433 224.561 326.596 225.197 325.52 225.659C324.452 226.121 323.213 226.352 321.804 226.352C319.849 226.352 318.255 225.936 317.02 225.102C315.785 224.261 315.028 223.068 314.747 221.523L318.031 221.023C318.236 221.879 318.656 222.527 319.293 222.966C319.929 223.398 320.759 223.614 321.781 223.614C322.895 223.614 323.785 223.383 324.452 222.92C325.118 222.451 325.452 221.879 325.452 221.205C325.452 220.659 325.247 220.201 324.838 219.83C324.437 219.458 323.819 219.178 322.986 218.989L320.031 218.341C318.403 217.97 317.198 217.379 316.418 216.568C315.645 215.758 315.259 214.731 315.259 213.489C315.259 212.458 315.546 211.557 316.122 210.784C316.698 210.011 317.493 209.409 318.509 208.977C319.524 208.538 320.687 208.318 321.997 208.318C323.884 208.318 325.368 208.727 326.452 209.545C327.535 210.356 328.251 211.443 328.599 212.807Z" fill="#BA1E71"/>
<line x1="93.7046" y1="20" x2="93.7046" y2="335" stroke="#BA1E71"/>
</svg>
