<svg width="645" height="386" viewBox="0 0 645 386" fill="none" xmlns="http://www.w3.org/2000/svg">
<path d="M367.795 335L313.795 379.167V290.833L367.795 335Z" fill="#4CC9F0"/>
<path fill-rule="evenodd" clip-rule="evenodd" d="M0 379L53.7955 335L0 291H313.795V379H0Z" fill="#4CC9F0"/>
<path d="M128.011 349V346.443L137.614 335.932C138.741 334.701 139.669 333.631 140.398 332.722C141.127 331.803 141.667 330.941 142.017 330.136C142.377 329.322 142.557 328.47 142.557 327.58C142.557 326.557 142.311 325.671 141.818 324.923C141.335 324.175 140.672 323.598 139.83 323.19C138.987 322.783 138.04 322.58 136.989 322.58C135.871 322.58 134.896 322.812 134.062 323.276C133.239 323.73 132.599 324.369 132.145 325.193C131.7 326.017 131.477 326.983 131.477 328.091H128.125C128.125 326.386 128.518 324.89 129.304 323.602C130.09 322.314 131.16 321.311 132.514 320.591C133.878 319.871 135.407 319.511 137.102 319.511C138.807 319.511 140.317 319.871 141.634 320.591C142.95 321.311 143.982 322.281 144.73 323.503C145.478 324.724 145.852 326.083 145.852 327.58C145.852 328.65 145.658 329.696 145.27 330.719C144.891 331.732 144.228 332.864 143.281 334.114C142.344 335.354 141.042 336.869 139.375 338.659L132.841 345.648V345.875H146.364V349H128.011ZM161.719 349.398C159.579 349.398 157.756 348.815 156.25 347.651C154.744 346.476 153.594 344.777 152.798 342.551C152.003 340.316 151.605 337.617 151.605 334.455C151.605 331.311 152.003 328.626 152.798 326.401C153.603 324.166 154.759 322.461 156.264 321.287C157.779 320.103 159.598 319.511 161.719 319.511C163.84 319.511 165.653 320.103 167.159 321.287C168.674 322.461 169.83 324.166 170.625 326.401C171.43 328.626 171.832 331.311 171.832 334.455C171.832 337.617 171.435 340.316 170.639 342.551C169.844 344.777 168.693 346.476 167.188 347.651C165.682 348.815 163.859 349.398 161.719 349.398ZM161.719 346.273C163.84 346.273 165.488 345.25 166.662 343.205C167.836 341.159 168.423 338.242 168.423 334.455C168.423 331.936 168.153 329.791 167.614 328.02C167.083 326.249 166.316 324.9 165.312 323.972C164.318 323.044 163.12 322.58 161.719 322.58C159.616 322.58 157.973 323.616 156.79 325.69C155.606 327.755 155.014 330.676 155.014 334.455C155.014 336.973 155.279 339.114 155.81 340.875C156.34 342.636 157.102 343.976 158.097 344.895C159.1 345.813 160.308 346.273 161.719 346.273ZM177.23 349V346.443L186.832 335.932C187.959 334.701 188.887 333.631 189.616 332.722C190.346 331.803 190.885 330.941 191.236 330.136C191.596 329.322 191.776 328.47 191.776 327.58C191.776 326.557 191.529 325.671 191.037 324.923C190.554 324.175 189.891 323.598 189.048 323.19C188.205 322.783 187.259 322.58 186.207 322.58C185.09 322.58 184.115 322.812 183.281 323.276C182.457 323.73 181.818 324.369 181.364 325.193C180.919 326.017 180.696 326.983 180.696 328.091H177.344C177.344 326.386 177.737 324.89 178.523 323.602C179.309 322.314 180.379 321.311 181.733 320.591C183.097 319.871 184.626 319.511 186.321 319.511C188.026 319.511 189.536 319.871 190.852 320.591C192.169 321.311 193.201 322.281 193.949 323.503C194.697 324.724 195.071 326.083 195.071 327.58C195.071 328.65 194.877 329.696 194.489 330.719C194.11 331.732 193.447 332.864 192.5 334.114C191.562 335.354 190.26 336.869 188.594 338.659L182.06 345.648V345.875H195.582V349H177.23ZM210.54 349.398C208.873 349.398 207.372 349.066 206.037 348.403C204.702 347.741 203.632 346.831 202.827 345.676C202.022 344.521 201.581 343.205 201.506 341.727H204.915C205.047 343.044 205.644 344.133 206.705 344.994C207.775 345.847 209.053 346.273 210.54 346.273C211.733 346.273 212.794 345.993 213.722 345.435C214.659 344.876 215.393 344.109 215.923 343.134C216.463 342.149 216.733 341.036 216.733 339.795C216.733 338.527 216.454 337.395 215.895 336.401C215.346 335.397 214.588 334.606 213.622 334.028C212.656 333.451 211.553 333.157 210.312 333.148C209.422 333.138 208.509 333.276 207.571 333.56C206.634 333.834 205.862 334.189 205.256 334.625L201.96 334.227L203.722 319.909H218.835V323.034H206.676L205.653 331.614H205.824C206.42 331.14 207.169 330.747 208.068 330.435C208.968 330.122 209.905 329.966 210.881 329.966C212.661 329.966 214.247 330.392 215.639 331.244C217.041 332.087 218.139 333.242 218.935 334.71C219.74 336.178 220.142 337.854 220.142 339.739C220.142 341.595 219.725 343.252 218.892 344.71C218.068 346.159 216.932 347.305 215.483 348.148C214.034 348.981 212.386 349.398 210.54 349.398ZM248.114 339.909H251.978L255.217 344.17L256.069 345.307L260.898 351.727H257.035L253.853 347.466L253.058 346.386L248.114 339.909ZM262.092 334.455C262.092 337.523 261.538 340.174 260.43 342.409C259.322 344.644 257.802 346.367 255.87 347.58C253.938 348.792 251.732 349.398 249.251 349.398C246.77 349.398 244.563 348.792 242.631 347.58C240.7 346.367 239.18 344.644 238.072 342.409C236.964 340.174 236.41 337.523 236.41 334.455C236.41 331.386 236.964 328.735 238.072 326.5C239.18 324.265 240.7 322.542 242.631 321.33C244.563 320.117 246.77 319.511 249.251 319.511C251.732 319.511 253.938 320.117 255.87 321.33C257.802 322.542 259.322 324.265 260.43 326.5C261.538 328.735 262.092 331.386 262.092 334.455ZM258.683 334.455C258.683 331.936 258.261 329.81 257.418 328.077C256.585 326.344 255.453 325.032 254.023 324.142C252.603 323.252 251.012 322.807 249.251 322.807C247.489 322.807 245.894 323.252 244.464 324.142C243.043 325.032 241.912 326.344 241.069 328.077C240.236 329.81 239.819 331.936 239.819 334.455C239.819 336.973 240.236 339.099 241.069 340.832C241.912 342.565 243.043 343.877 244.464 344.767C245.894 345.657 247.489 346.102 249.251 346.102C251.012 346.102 252.603 345.657 254.023 344.767C255.453 343.877 256.585 342.565 257.418 340.832C258.261 339.099 258.683 336.973 258.683 334.455ZM277.731 319.909V349H274.208V323.602H274.038L266.935 328.318V324.739L274.208 319.909H277.731Z" fill="black"/>
<circle cx="93.2954" cy="335.5" r="8.5" fill="#D9D9D9"/>
<path d="M93.0085 26.7273C92.0919 26.7273 91.2547 26.5038 90.4972 26.0568C89.7396 25.6023 89.1335 24.9962 88.679 24.2386C88.232 23.4811 88.0085 22.6439 88.0085 21.7273C88.0085 20.803 88.232 19.9659 88.679 19.2159C89.1335 18.4583 89.7396 17.8561 90.4972 17.4091C91.2547 16.9545 92.0919 16.7273 93.0085 16.7273C93.9328 16.7273 94.7699 16.9545 95.5199 17.4091C96.2775 17.8561 96.8797 18.4583 97.3267 19.2159C97.7813 19.9659 98.0085 20.803 98.0085 21.7273C98.0085 22.6439 97.7813 23.4811 97.3267 24.2386C96.8797 24.9962 96.2775 25.6023 95.5199 26.0568C94.7699 26.5038 93.9328 26.7273 93.0085 26.7273ZM119.557 31V7.72727H133.989V10.75H123.068V17.8409H132.955V20.8523H123.068V31H119.557ZM147.997 23.7614V13.5455H151.406V31H148.065V27.9773H147.884C147.482 28.9091 146.838 29.6856 145.952 30.3068C145.073 30.9205 143.978 31.2273 142.668 31.2273C141.546 31.2273 140.554 30.9811 139.69 30.4886C138.834 29.9886 138.16 29.25 137.668 28.2727C137.183 27.2955 136.94 26.0871 136.94 24.6477V13.5455H140.338V24.2386C140.338 25.428 140.668 26.375 141.327 27.0795C141.986 27.7841 142.842 28.1364 143.895 28.1364C144.531 28.1364 145.164 27.9773 145.793 27.6591C146.429 27.3409 146.955 26.8598 147.372 26.2159C147.796 25.572 148.005 24.7538 147.997 23.7614ZM164.119 13.5455V16.2727H154.585V13.5455H164.119ZM157.142 9.36364H160.54V25.875C160.54 26.5341 160.638 27.0303 160.835 27.3636C161.032 27.6894 161.286 27.9129 161.597 28.0341C161.915 28.1477 162.259 28.2045 162.631 28.2045C162.903 28.2045 163.142 28.1856 163.347 28.1477C163.551 28.1098 163.71 28.0795 163.824 28.0568L164.438 30.8636C164.241 30.9394 163.96 31.0152 163.597 31.0909C163.233 31.1742 162.778 31.2197 162.233 31.2273C161.339 31.2424 160.506 31.0833 159.733 30.75C158.96 30.4167 158.335 29.9015 157.858 29.2045C157.381 28.5076 157.142 27.6326 157.142 26.5795V9.36364ZM178.935 23.7614V13.5455H182.344V31H179.003V27.9773H178.821C178.42 28.9091 177.776 29.6856 176.889 30.3068C176.01 30.9205 174.916 31.2273 173.605 31.2273C172.484 31.2273 171.491 30.9811 170.628 30.4886C169.772 29.9886 169.098 29.25 168.605 28.2727C168.12 27.2955 167.878 26.0871 167.878 24.6477V13.5455H171.276V24.2386C171.276 25.428 171.605 26.375 172.264 27.0795C172.923 27.7841 173.779 28.1364 174.832 28.1364C175.469 28.1364 176.101 27.9773 176.73 27.6591C177.366 27.3409 177.893 26.8598 178.31 26.2159C178.734 25.572 178.942 24.7538 178.935 23.7614ZM186.909 31V13.5455H190.193V16.3182H190.375C190.693 15.3788 191.254 14.6402 192.057 14.1023C192.867 13.5568 193.784 13.2841 194.807 13.2841C195.019 13.2841 195.269 13.2917 195.557 13.3068C195.852 13.322 196.083 13.3409 196.25 13.3636V16.6136C196.114 16.5758 195.871 16.5341 195.523 16.4886C195.174 16.4356 194.826 16.4091 194.477 16.4091C193.674 16.4091 192.958 16.5795 192.33 16.9205C191.708 17.2538 191.216 17.7197 190.852 18.3182C190.489 18.9091 190.307 19.5833 190.307 20.3409V31H186.909ZM206.088 31.3523C204.368 31.3523 202.887 30.9848 201.645 30.25C200.41 29.5076 199.455 28.4659 198.781 27.125C198.115 25.7765 197.781 24.197 197.781 22.3864C197.781 20.5985 198.115 19.0227 198.781 17.6591C199.455 16.2955 200.395 15.2311 201.599 14.4659C202.812 13.7008 204.228 13.3182 205.849 13.3182C206.834 13.3182 207.789 13.4811 208.713 13.8068C209.637 14.1326 210.467 14.6439 211.202 15.3409C211.937 16.0379 212.516 16.9432 212.94 18.0568C213.365 19.1629 213.577 20.5076 213.577 22.0909V23.2955H199.702V20.75H210.247C210.247 19.8561 210.065 19.0644 209.702 18.375C209.338 17.678 208.827 17.1288 208.168 16.7273C207.516 16.3258 206.751 16.125 205.872 16.125C204.918 16.125 204.084 16.3598 203.372 16.8295C202.668 17.2917 202.122 17.8977 201.736 18.6477C201.357 19.3902 201.168 20.197 201.168 21.0682V23.0568C201.168 24.2235 201.372 25.2159 201.781 26.0341C202.198 26.8523 202.777 27.4773 203.52 27.9091C204.262 28.3333 205.13 28.5455 206.122 28.5455C206.766 28.5455 207.353 28.4545 207.884 28.2727C208.414 28.0833 208.872 27.803 209.259 27.4318C209.645 27.0606 209.94 26.6023 210.145 26.0568L213.361 26.6364C213.103 27.5833 212.641 28.4129 211.974 29.125C211.315 29.8295 210.486 30.3788 209.486 30.7727C208.493 31.1591 207.361 31.3523 206.088 31.3523ZM233.622 31H226.088V7.72727H233.861C236.141 7.72727 238.099 8.19318 239.736 9.125C241.372 10.0492 242.626 11.3788 243.497 13.1136C244.376 14.8409 244.815 16.9129 244.815 19.3295C244.815 21.7538 244.372 23.8371 243.486 25.5795C242.607 27.322 241.334 28.6629 239.668 29.6023C238.001 30.5341 235.986 31 233.622 31ZM229.599 27.9318H233.429C235.202 27.9318 236.675 27.5985 237.849 26.9318C239.024 26.2576 239.902 25.2841 240.486 24.0114C241.069 22.7311 241.361 21.1705 241.361 19.3295C241.361 17.5038 241.069 15.9545 240.486 14.6818C239.91 13.4091 239.05 12.4432 237.906 11.7841C236.762 11.125 235.342 10.7955 233.645 10.7955H229.599V27.9318ZM249.182 31V7.72727H263.773V10.75H252.693V17.8409H263.011V20.8523H252.693V27.9773H263.909V31H249.182ZM270.906 7.72727L276.474 16.8295H276.656L282.224 7.72727H286.293L279.043 19.3636L286.338 31H282.247L276.656 22.0227H276.474L270.884 31H266.793L274.213 19.3636L266.838 7.72727H270.906ZM297.097 10.75V7.72727H315.108V10.75H307.847V31H304.347V10.75H297.097ZM323.807 31.3523C322.087 31.3523 320.606 30.9848 319.364 30.25C318.129 29.5076 317.174 28.4659 316.5 27.125C315.833 25.7765 315.5 24.197 315.5 22.3864C315.5 20.5985 315.833 19.0227 316.5 17.6591C317.174 16.2955 318.114 15.2311 319.318 14.4659C320.53 13.7008 321.947 13.3182 323.568 13.3182C324.553 13.3182 325.508 13.4811 326.432 13.8068C327.356 14.1326 328.186 14.6439 328.92 15.3409C329.655 16.0379 330.235 16.9432 330.659 18.0568C331.083 19.1629 331.295 20.5076 331.295 22.0909V23.2955H317.42V20.75H327.966C327.966 19.8561 327.784 19.0644 327.42 18.375C327.057 17.678 326.545 17.1288 325.886 16.7273C325.235 16.3258 324.47 16.125 323.591 16.125C322.636 16.125 321.803 16.3598 321.091 16.8295C320.386 17.2917 319.841 17.8977 319.455 18.6477C319.076 19.3902 318.886 20.197 318.886 21.0682V23.0568C318.886 24.2235 319.091 25.2159 319.5 26.0341C319.917 26.8523 320.496 27.4773 321.239 27.9091C321.981 28.3333 322.848 28.5455 323.841 28.5455C324.485 28.5455 325.072 28.4545 325.602 28.2727C326.133 28.0833 326.591 27.803 326.977 27.4318C327.364 27.0606 327.659 26.6023 327.864 26.0568L331.08 26.6364C330.822 27.5833 330.36 28.4129 329.693 29.125C329.034 29.8295 328.205 30.3788 327.205 30.7727C326.212 31.1591 325.08 31.3523 323.807 31.3523ZM348.145 17.8068L345.065 18.3523C344.937 17.9583 344.732 17.5833 344.452 17.2273C344.179 16.8712 343.808 16.5795 343.338 16.3523C342.868 16.125 342.281 16.0114 341.577 16.0114C340.615 16.0114 339.812 16.2273 339.168 16.6591C338.524 17.0833 338.202 17.6326 338.202 18.3068C338.202 18.8902 338.418 19.3598 338.849 19.7159C339.281 20.072 339.978 20.3636 340.94 20.5909L343.713 21.2273C345.319 21.5985 346.516 22.1705 347.304 22.9432C348.092 23.7159 348.486 24.7197 348.486 25.9545C348.486 27 348.183 27.9318 347.577 28.75C346.978 29.5606 346.141 30.197 345.065 30.6591C343.997 31.1212 342.759 31.3523 341.349 31.3523C339.395 31.3523 337.8 30.9356 336.565 30.1023C335.33 29.2614 334.573 28.0682 334.293 26.5227L337.577 26.0227C337.781 26.8788 338.202 27.5265 338.838 27.9659C339.474 28.3977 340.304 28.6136 341.327 28.6136C342.44 28.6136 343.33 28.3826 343.997 27.9205C344.664 27.4508 344.997 26.8788 344.997 26.2045C344.997 25.6591 344.793 25.2008 344.384 24.8295C343.982 24.4583 343.365 24.178 342.531 23.9886L339.577 23.3409C337.948 22.9697 336.743 22.3788 335.963 21.5682C335.19 20.7576 334.804 19.7311 334.804 18.4886C334.804 17.4583 335.092 16.5568 335.668 15.7841C336.243 15.0114 337.039 14.4091 338.054 13.9773C339.069 13.5379 340.232 13.3182 341.543 13.3182C343.429 13.3182 344.914 13.7273 345.997 14.5455C347.08 15.3561 347.796 16.4432 348.145 17.8068ZM360.369 13.5455V16.2727H350.835V13.5455H360.369ZM353.392 9.36364H356.79V25.875C356.79 26.5341 356.888 27.0303 357.085 27.3636C357.282 27.6894 357.536 27.9129 357.847 28.0341C358.165 28.1477 358.509 28.2045 358.881 28.2045C359.153 28.2045 359.392 28.1856 359.597 28.1477C359.801 28.1098 359.96 28.0795 360.074 28.0568L360.688 30.8636C360.491 30.9394 360.21 31.0152 359.847 31.0909C359.483 31.1742 359.028 31.2197 358.483 31.2273C357.589 31.2424 356.756 31.0833 355.983 30.75C355.21 30.4167 354.585 29.9015 354.108 29.2045C353.631 28.5076 353.392 27.6326 353.392 26.5795V9.36364ZM367.526 20.6364V31H364.128V13.5455H367.389V16.3864H367.605C368.007 15.4621 368.635 14.7197 369.491 14.1591C370.355 13.5985 371.442 13.3182 372.753 13.3182C373.942 13.3182 374.984 13.5682 375.878 14.0682C376.772 14.5606 377.465 15.2955 377.957 16.2727C378.45 17.25 378.696 18.4583 378.696 19.8977V31H375.298V20.3068C375.298 19.0417 374.969 18.053 374.31 17.3409C373.651 16.6212 372.745 16.2614 371.594 16.2614C370.806 16.2614 370.105 16.4318 369.491 16.7727C368.885 17.1136 368.404 17.6136 368.048 18.2727C367.7 18.9242 367.526 19.7121 367.526 20.6364ZM390.776 31.3523C389.056 31.3523 387.575 30.9848 386.332 30.25C385.098 29.5076 384.143 28.4659 383.469 27.125C382.802 25.7765 382.469 24.197 382.469 22.3864C382.469 20.5985 382.802 19.0227 383.469 17.6591C384.143 16.2955 385.082 15.2311 386.287 14.4659C387.499 13.7008 388.916 13.3182 390.537 13.3182C391.522 13.3182 392.476 13.4811 393.401 13.8068C394.325 14.1326 395.154 14.6439 395.889 15.3409C396.624 16.0379 397.204 16.9432 397.628 18.0568C398.052 19.1629 398.264 20.5076 398.264 22.0909V23.2955H384.389V20.75H394.935C394.935 19.8561 394.753 19.0644 394.389 18.375C394.026 17.678 393.514 17.1288 392.855 16.7273C392.204 16.3258 391.438 16.125 390.56 16.125C389.605 16.125 388.772 16.3598 388.06 16.8295C387.355 17.2917 386.81 17.8977 386.423 18.6477C386.045 19.3902 385.855 20.197 385.855 21.0682V23.0568C385.855 24.2235 386.06 25.2159 386.469 26.0341C386.885 26.8523 387.465 27.4773 388.207 27.9091C388.95 28.3333 389.817 28.5455 390.81 28.5455C391.454 28.5455 392.041 28.4545 392.571 28.2727C393.101 28.0833 393.56 27.803 393.946 27.4318C394.332 27.0606 394.628 26.6023 394.832 26.0568L398.048 26.6364C397.791 27.5833 397.329 28.4129 396.662 29.125C396.003 29.8295 395.173 30.3788 394.173 30.7727C393.181 31.1591 392.048 31.3523 390.776 31.3523ZM410.182 13.5455V16.2727H400.648V13.5455H410.182ZM403.205 9.36364H406.602V25.875C406.602 26.5341 406.701 27.0303 406.898 27.3636C407.095 27.6894 407.348 27.9129 407.659 28.0341C407.977 28.1477 408.322 28.2045 408.693 28.2045C408.966 28.2045 409.205 28.1856 409.409 28.1477C409.614 28.1098 409.773 28.0795 409.886 28.0568L410.5 30.8636C410.303 30.9394 410.023 31.0152 409.659 31.0909C409.295 31.1742 408.841 31.2197 408.295 31.2273C407.402 31.2424 406.568 31.0833 405.795 30.75C405.023 30.4167 404.398 29.9015 403.92 29.2045C403.443 28.5076 403.205 27.6326 403.205 26.5795V9.36364ZM93.0085 65.7273C92.0919 65.7273 91.2547 65.5038 90.4972 65.0568C89.7396 64.6023 89.1335 63.9962 88.679 63.2386C88.232 62.4811 88.0085 61.6439 88.0085 60.7273C88.0085 59.803 88.232 58.9659 88.679 58.2159C89.1335 57.4583 89.7396 56.8561 90.4972 56.4091C91.2547 55.9545 92.0919 55.7273 93.0085 55.7273C93.9328 55.7273 94.7699 55.9545 95.5199 56.4091C96.2775 56.8561 96.8797 57.4583 97.3267 58.2159C97.7813 58.9659 98.0085 59.803 98.0085 60.7273C98.0085 61.6439 97.7813 62.4811 97.3267 63.2386C96.8797 63.9962 96.2775 64.6023 95.5199 65.0568C94.7699 65.5038 93.9328 65.7273 93.0085 65.7273ZM139.773 58.3636C139.773 60.8485 139.318 62.9848 138.409 64.7727C137.5 66.553 136.254 67.9242 134.67 68.8864C133.095 69.8409 131.303 70.3182 129.295 70.3182C127.28 70.3182 125.481 69.8409 123.898 68.8864C122.322 67.9242 121.08 66.5492 120.17 64.7614C119.261 62.9735 118.807 60.8409 118.807 58.3636C118.807 55.8788 119.261 53.7462 120.17 51.9659C121.08 50.178 122.322 48.8068 123.898 47.8523C125.481 46.8902 127.28 46.4091 129.295 46.4091C131.303 46.4091 133.095 46.8902 134.67 47.8523C136.254 48.8068 137.5 50.178 138.409 51.9659C139.318 53.7462 139.773 55.8788 139.773 58.3636ZM136.295 58.3636C136.295 56.4697 135.989 54.875 135.375 53.5795C134.769 52.2765 133.936 51.2917 132.875 50.625C131.822 49.9508 130.629 49.6136 129.295 49.6136C127.955 49.6136 126.758 49.9508 125.705 50.625C124.652 51.2917 123.818 52.2765 123.205 53.5795C122.598 54.875 122.295 56.4697 122.295 58.3636C122.295 60.2576 122.598 61.8561 123.205 63.1591C123.818 64.4545 124.652 65.4394 125.705 66.1136C126.758 66.7803 127.955 67.1136 129.295 67.1136C130.629 67.1136 131.822 66.7803 132.875 66.1136C133.936 65.4394 134.769 64.4545 135.375 63.1591C135.989 61.8561 136.295 60.2576 136.295 58.3636ZM143.878 76.5455V52.5455H147.196V55.375H147.48C147.677 55.0114 147.961 54.5909 148.332 54.1136C148.704 53.6364 149.219 53.2197 149.878 52.8636C150.537 52.5 151.408 52.3182 152.491 52.3182C153.901 52.3182 155.158 52.6742 156.264 53.3864C157.37 54.0985 158.238 55.125 158.866 56.4659C159.503 57.8068 159.821 59.4205 159.821 61.3068C159.821 63.1932 159.507 64.8106 158.878 66.1591C158.249 67.5 157.385 68.5341 156.287 69.2614C155.188 69.9811 153.935 70.3409 152.526 70.3409C151.465 70.3409 150.598 70.1629 149.923 69.8068C149.257 69.4508 148.734 69.0341 148.355 68.5568C147.976 68.0795 147.685 67.6553 147.48 67.2841H147.276V76.5455H143.878ZM147.207 61.2727C147.207 62.5 147.385 63.5758 147.741 64.5C148.098 65.4242 148.613 66.1477 149.287 66.6705C149.961 67.1856 150.787 67.4432 151.764 67.4432C152.779 67.4432 153.628 67.1742 154.31 66.6364C154.991 66.0909 155.507 65.3523 155.855 64.4205C156.211 63.4886 156.389 62.4394 156.389 61.2727C156.389 60.1212 156.215 59.0871 155.866 58.1705C155.526 57.2538 155.01 56.5303 154.321 56C153.639 55.4697 152.787 55.2045 151.764 55.2045C150.779 55.2045 149.946 55.4583 149.264 55.9659C148.59 56.4735 148.079 57.1818 147.73 58.0909C147.382 59 147.207 60.0606 147.207 61.2727ZM171.776 52.5455V55.2727H162.241V52.5455H171.776ZM164.798 48.3636H168.196V64.875C168.196 65.5341 168.295 66.0303 168.491 66.3636C168.688 66.6894 168.942 66.9129 169.253 67.0341C169.571 67.1477 169.916 67.2045 170.287 67.2045C170.56 67.2045 170.798 67.1856 171.003 67.1477C171.207 67.1098 171.366 67.0795 171.48 67.0568L172.094 69.8636C171.897 69.9394 171.616 70.0152 171.253 70.0909C170.889 70.1742 170.435 70.2197 169.889 70.2273C168.995 70.2424 168.162 70.0833 167.389 69.75C166.616 69.4167 165.991 68.9015 165.514 68.2045C165.037 67.5076 164.798 66.6326 164.798 65.5795V48.3636ZM175.534 70V52.5455H178.932V70H175.534ZM177.25 49.8523C176.659 49.8523 176.152 49.6553 175.727 49.2614C175.311 48.8598 175.102 48.3826 175.102 47.8295C175.102 47.2689 175.311 46.7917 175.727 46.3977C176.152 45.9962 176.659 45.7955 177.25 45.7955C177.841 45.7955 178.345 45.9962 178.761 46.3977C179.186 46.7917 179.398 47.2689 179.398 47.8295C179.398 48.3826 179.186 48.8598 178.761 49.2614C178.345 49.6553 177.841 49.8523 177.25 49.8523ZM190.855 70.3523C189.219 70.3523 187.791 69.9773 186.571 69.2273C185.351 68.4773 184.404 67.428 183.73 66.0795C183.056 64.7311 182.719 63.1553 182.719 61.3523C182.719 59.5417 183.056 57.9583 183.73 56.6023C184.404 55.2462 185.351 54.1932 186.571 53.4432C187.791 52.6932 189.219 52.3182 190.855 52.3182C192.491 52.3182 193.92 52.6932 195.139 53.4432C196.359 54.1932 197.306 55.2462 197.98 56.6023C198.654 57.9583 198.991 59.5417 198.991 61.3523C198.991 63.1553 198.654 64.7311 197.98 66.0795C197.306 67.428 196.359 68.4773 195.139 69.2273C193.92 69.9773 192.491 70.3523 190.855 70.3523ZM190.866 67.5C191.927 67.5 192.806 67.2197 193.503 66.6591C194.2 66.0985 194.715 65.3523 195.048 64.4205C195.389 63.4886 195.56 62.4621 195.56 61.3409C195.56 60.2273 195.389 59.2045 195.048 58.2727C194.715 57.3333 194.2 56.5795 193.503 56.0114C192.806 55.4432 191.927 55.1591 190.866 55.1591C189.798 55.1591 188.912 55.4432 188.207 56.0114C187.51 56.5795 186.991 57.3333 186.651 58.2727C186.317 59.2045 186.151 60.2273 186.151 61.3409C186.151 62.4621 186.317 63.4886 186.651 64.4205C186.991 65.3523 187.51 66.0985 188.207 66.6591C188.912 67.2197 189.798 67.5 190.866 67.5ZM206.182 59.6364V70H202.784V52.5455H206.045V55.3864H206.261C206.663 54.4621 207.292 53.7197 208.148 53.1591C209.011 52.5985 210.098 52.3182 211.409 52.3182C212.598 52.3182 213.64 52.5682 214.534 53.0682C215.428 53.5606 216.121 54.2955 216.614 55.2727C217.106 56.25 217.352 57.4583 217.352 58.8977V70H213.955V59.3068C213.955 58.0417 213.625 57.053 212.966 56.3409C212.307 55.6212 211.402 55.2614 210.25 55.2614C209.462 55.2614 208.761 55.4318 208.148 55.7727C207.542 56.1136 207.061 56.6136 206.705 57.2727C206.356 57.9242 206.182 58.7121 206.182 59.6364ZM234.989 56.8068L231.909 57.3523C231.78 56.9583 231.576 56.5833 231.295 56.2273C231.023 55.8712 230.652 55.5795 230.182 55.3523C229.712 55.125 229.125 55.0114 228.42 55.0114C227.458 55.0114 226.655 55.2273 226.011 55.6591C225.367 56.0833 225.045 56.6326 225.045 57.3068C225.045 57.8902 225.261 58.3598 225.693 58.7159C226.125 59.072 226.822 59.3636 227.784 59.5909L230.557 60.2273C232.163 60.5985 233.36 61.1705 234.148 61.9432C234.936 62.7159 235.33 63.7197 235.33 64.9545C235.33 66 235.027 66.9318 234.42 67.75C233.822 68.5606 232.985 69.197 231.909 69.6591C230.841 70.1212 229.602 70.3523 228.193 70.3523C226.239 70.3523 224.644 69.9356 223.409 69.1023C222.174 68.2614 221.417 67.0682 221.136 65.5227L224.42 65.0227C224.625 65.8788 225.045 66.5265 225.682 66.9659C226.318 67.3977 227.148 67.6136 228.17 67.6136C229.284 67.6136 230.174 67.3826 230.841 66.9205C231.508 66.4508 231.841 65.8788 231.841 65.2045C231.841 64.6591 231.636 64.2008 231.227 63.8295C230.826 63.4583 230.208 63.178 229.375 62.9886L226.42 62.3409C224.792 61.9697 223.587 61.3788 222.807 60.5682C222.034 59.7576 221.648 58.7311 221.648 57.4886C221.648 56.4583 221.936 55.5568 222.511 54.7841C223.087 54.0114 223.883 53.4091 224.898 52.9773C225.913 52.5379 227.076 52.3182 228.386 52.3182C230.273 52.3182 231.758 52.7273 232.841 53.5455C233.924 54.3561 234.64 55.4432 234.989 56.8068ZM255.341 70H247.807V46.7273H255.58C257.86 46.7273 259.818 47.1932 261.455 48.125C263.091 49.0492 264.345 50.3788 265.216 52.1136C266.095 53.8409 266.534 55.9129 266.534 58.3295C266.534 60.7538 266.091 62.8371 265.205 64.5795C264.326 66.322 263.053 67.6629 261.386 68.6023C259.72 69.5341 257.705 70 255.341 70ZM251.318 66.9318H255.148C256.92 66.9318 258.394 66.5985 259.568 65.9318C260.742 65.2576 261.621 64.2841 262.205 63.0114C262.788 61.7311 263.08 60.1705 263.08 58.3295C263.08 56.5038 262.788 54.9545 262.205 53.6818C261.629 52.4091 260.769 51.4432 259.625 50.7841C258.481 50.125 257.061 49.7955 255.364 49.7955H251.318V66.9318ZM278.151 70.3523C276.431 70.3523 274.95 69.9848 273.707 69.25C272.473 68.5076 271.518 67.4659 270.844 66.125C270.177 64.7765 269.844 63.197 269.844 61.3864C269.844 59.5985 270.177 58.0227 270.844 56.6591C271.518 55.2955 272.457 54.2311 273.662 53.4659C274.874 52.7008 276.291 52.3182 277.912 52.3182C278.897 52.3182 279.851 52.4811 280.776 52.8068C281.7 53.1326 282.529 53.6439 283.264 54.3409C283.999 55.0379 284.579 55.9432 285.003 57.0568C285.427 58.1629 285.639 59.5076 285.639 61.0909V62.2955H271.764V59.75H282.31C282.31 58.8561 282.128 58.0644 281.764 57.375C281.401 56.678 280.889 56.1288 280.23 55.7273C279.579 55.3258 278.813 55.125 277.935 55.125C276.98 55.125 276.147 55.3598 275.435 55.8295C274.73 56.2917 274.185 56.8977 273.798 57.6477C273.42 58.3902 273.23 59.197 273.23 60.0682V62.0568C273.23 63.2235 273.435 64.2159 273.844 65.0341C274.26 65.8523 274.84 66.4773 275.582 66.9091C276.325 67.3333 277.192 67.5455 278.185 67.5455C278.829 67.5455 279.416 67.4545 279.946 67.2727C280.476 67.0833 280.935 66.803 281.321 66.4318C281.707 66.0606 282.003 65.6023 282.207 65.0568L285.423 65.6364C285.166 66.5833 284.704 67.4129 284.037 68.125C283.378 68.8295 282.548 69.3788 281.548 69.7727C280.556 70.1591 279.423 70.3523 278.151 70.3523ZM291.685 52.5455L295.537 59.3409L299.423 52.5455H303.139L297.696 61.2727L303.185 70H299.469L295.537 63.4773L291.616 70H287.889L293.321 61.2727L287.957 52.5455H291.685ZM314.222 49.75V46.7273H332.233V49.75H324.972V70H321.472V49.75H314.222ZM340.932 70.3523C339.212 70.3523 337.731 69.9848 336.489 69.25C335.254 68.5076 334.299 67.4659 333.625 66.125C332.958 64.7765 332.625 63.197 332.625 61.3864C332.625 59.5985 332.958 58.0227 333.625 56.6591C334.299 55.2955 335.239 54.2311 336.443 53.4659C337.655 52.7008 339.072 52.3182 340.693 52.3182C341.678 52.3182 342.633 52.4811 343.557 52.8068C344.481 53.1326 345.311 53.6439 346.045 54.3409C346.78 55.0379 347.36 55.9432 347.784 57.0568C348.208 58.1629 348.42 59.5076 348.42 61.0909V62.2955H334.545V59.75H345.091C345.091 58.8561 344.909 58.0644 344.545 57.375C344.182 56.678 343.67 56.1288 343.011 55.7273C342.36 55.3258 341.595 55.125 340.716 55.125C339.761 55.125 338.928 55.3598 338.216 55.8295C337.511 56.2917 336.966 56.8977 336.58 57.6477C336.201 58.3902 336.011 59.197 336.011 60.0682V62.0568C336.011 63.2235 336.216 64.2159 336.625 65.0341C337.042 65.8523 337.621 66.4773 338.364 66.9091C339.106 67.3333 339.973 67.5455 340.966 67.5455C341.61 67.5455 342.197 67.4545 342.727 67.2727C343.258 67.0833 343.716 66.803 344.102 66.4318C344.489 66.0606 344.784 65.6023 344.989 65.0568L348.205 65.6364C347.947 66.5833 347.485 67.4129 346.818 68.125C346.159 68.8295 345.33 69.3788 344.33 69.7727C343.337 70.1591 342.205 70.3523 340.932 70.3523ZM365.27 56.8068L362.19 57.3523C362.062 56.9583 361.857 56.5833 361.577 56.2273C361.304 55.8712 360.933 55.5795 360.463 55.3523C359.993 55.125 359.406 55.0114 358.702 55.0114C357.74 55.0114 356.937 55.2273 356.293 55.6591C355.649 56.0833 355.327 56.6326 355.327 57.3068C355.327 57.8902 355.543 58.3598 355.974 58.7159C356.406 59.072 357.103 59.3636 358.065 59.5909L360.838 60.2273C362.444 60.5985 363.641 61.1705 364.429 61.9432C365.217 62.7159 365.611 63.7197 365.611 64.9545C365.611 66 365.308 66.9318 364.702 67.75C364.103 68.5606 363.266 69.197 362.19 69.6591C361.122 70.1212 359.884 70.3523 358.474 70.3523C356.52 70.3523 354.925 69.9356 353.69 69.1023C352.455 68.2614 351.698 67.0682 351.418 65.5227L354.702 65.0227C354.906 65.8788 355.327 66.5265 355.963 66.9659C356.599 67.3977 357.429 67.6136 358.452 67.6136C359.565 67.6136 360.455 67.3826 361.122 66.9205C361.789 66.4508 362.122 65.8788 362.122 65.2045C362.122 64.6591 361.918 64.2008 361.509 63.8295C361.107 63.4583 360.49 63.178 359.656 62.9886L356.702 62.3409C355.073 61.9697 353.868 61.3788 353.088 60.5682C352.315 59.7576 351.929 58.7311 351.929 57.4886C351.929 56.4583 352.217 55.5568 352.793 54.7841C353.368 54.0114 354.164 53.4091 355.179 52.9773C356.194 52.5379 357.357 52.3182 358.668 52.3182C360.554 52.3182 362.039 52.7273 363.122 53.5455C364.205 54.3561 364.921 55.4432 365.27 56.8068ZM377.494 52.5455V55.2727H367.96V52.5455H377.494ZM370.517 48.3636H373.915V64.875C373.915 65.5341 374.013 66.0303 374.21 66.3636C374.407 66.6894 374.661 66.9129 374.972 67.0341C375.29 67.1477 375.634 67.2045 376.006 67.2045C376.278 67.2045 376.517 67.1856 376.722 67.1477C376.926 67.1098 377.085 67.0795 377.199 67.0568L377.812 69.8636C377.616 69.9394 377.335 70.0152 376.972 70.0909C376.608 70.1742 376.153 70.2197 375.608 70.2273C374.714 70.2424 373.881 70.0833 373.108 69.75C372.335 69.4167 371.71 68.9015 371.233 68.2045C370.756 67.5076 370.517 66.6326 370.517 65.5795V48.3636ZM384.651 59.6364V70H381.253V52.5455H384.514V55.3864H384.73C385.132 54.4621 385.76 53.7197 386.616 53.1591C387.48 52.5985 388.567 52.3182 389.878 52.3182C391.067 52.3182 392.109 52.5682 393.003 53.0682C393.897 53.5606 394.59 54.2955 395.082 55.2727C395.575 56.25 395.821 57.4583 395.821 58.8977V70H392.423V59.3068C392.423 58.0417 392.094 57.053 391.435 56.3409C390.776 55.6212 389.87 55.2614 388.719 55.2614C387.931 55.2614 387.23 55.4318 386.616 55.7727C386.01 56.1136 385.529 56.6136 385.173 57.2727C384.825 57.9242 384.651 58.7121 384.651 59.6364ZM407.901 70.3523C406.181 70.3523 404.7 69.9848 403.457 69.25C402.223 68.5076 401.268 67.4659 400.594 66.125C399.927 64.7765 399.594 63.197 399.594 61.3864C399.594 59.5985 399.927 58.0227 400.594 56.6591C401.268 55.2955 402.207 54.2311 403.412 53.4659C404.624 52.7008 406.041 52.3182 407.662 52.3182C408.647 52.3182 409.601 52.4811 410.526 52.8068C411.45 53.1326 412.279 53.6439 413.014 54.3409C413.749 55.0379 414.329 55.9432 414.753 57.0568C415.177 58.1629 415.389 59.5076 415.389 61.0909V62.2955H401.514V59.75H412.06C412.06 58.8561 411.878 58.0644 411.514 57.375C411.151 56.678 410.639 56.1288 409.98 55.7273C409.329 55.3258 408.563 55.125 407.685 55.125C406.73 55.125 405.897 55.3598 405.185 55.8295C404.48 56.2917 403.935 56.8977 403.548 57.6477C403.17 58.3902 402.98 59.197 402.98 60.0682V62.0568C402.98 63.2235 403.185 64.2159 403.594 65.0341C404.01 65.8523 404.59 66.4773 405.332 66.9091C406.075 67.3333 406.942 67.5455 407.935 67.5455C408.579 67.5455 409.166 67.4545 409.696 67.2727C410.226 67.0833 410.685 66.803 411.071 66.4318C411.457 66.0606 411.753 65.6023 411.957 65.0568L415.173 65.6364C414.916 66.5833 414.454 67.4129 413.787 68.125C413.128 68.8295 412.298 69.3788 411.298 69.7727C410.306 70.1591 409.173 70.3523 407.901 70.3523ZM427.307 52.5455V55.2727H417.773V52.5455H427.307ZM420.33 48.3636H423.727V64.875C423.727 65.5341 423.826 66.0303 424.023 66.3636C424.22 66.6894 424.473 66.9129 424.784 67.0341C425.102 67.1477 425.447 67.2045 425.818 67.2045C426.091 67.2045 426.33 67.1856 426.534 67.1477C426.739 67.1098 426.898 67.0795 427.011 67.0568L427.625 69.8636C427.428 69.9394 427.148 70.0152 426.784 70.0909C426.42 70.1742 425.966 70.2197 425.42 70.2273C424.527 70.2424 423.693 70.0833 422.92 69.75C422.148 69.4167 421.523 68.9015 421.045 68.2045C420.568 67.5076 420.33 66.6326 420.33 65.5795V48.3636ZM93.0085 104.727C92.0919 104.727 91.2547 104.504 90.4972 104.057C89.7396 103.602 89.1335 102.996 88.679 102.239C88.232 101.481 88.0085 100.644 88.0085 99.7273C88.0085 98.803 88.232 97.9659 88.679 97.2159C89.1335 96.4583 89.7396 95.8561 90.4972 95.4091C91.2547 94.9545 92.0919 94.7273 93.0085 94.7273C93.9328 94.7273 94.7699 94.9545 95.5199 95.4091C96.2775 95.8561 96.8797 96.4583 97.3267 97.2159C97.7813 97.9659 98.0085 98.803 98.0085 99.7273C98.0085 100.644 97.7813 101.481 97.3267 102.239C96.8797 102.996 96.2775 103.602 95.5199 104.057C94.7699 104.504 93.9328 104.727 93.0085 104.727ZM119.557 109V85.7273H123.068V105.977H133.614V109H119.557ZM142.426 109.386C141.32 109.386 140.32 109.182 139.426 108.773C138.532 108.356 137.824 107.754 137.301 106.966C136.786 106.178 136.528 105.212 136.528 104.068C136.528 103.083 136.718 102.273 137.097 101.636C137.475 101 137.987 100.496 138.631 100.125C139.275 99.7538 139.994 99.4735 140.79 99.2841C141.585 99.0947 142.396 98.9508 143.222 98.8523C144.267 98.7311 145.116 98.6326 145.767 98.5568C146.419 98.4735 146.892 98.3409 147.188 98.1591C147.483 97.9773 147.631 97.6818 147.631 97.2727V97.1932C147.631 96.2008 147.35 95.4318 146.79 94.8864C146.237 94.3409 145.411 94.0682 144.312 94.0682C143.169 94.0682 142.267 94.322 141.608 94.8295C140.956 95.3295 140.506 95.8864 140.256 96.5L137.062 95.7727C137.441 94.7121 137.994 93.8561 138.722 93.2045C139.456 92.5455 140.301 92.0682 141.256 91.7727C142.21 91.4697 143.214 91.3182 144.267 91.3182C144.964 91.3182 145.703 91.4015 146.483 91.5682C147.271 91.7273 148.006 92.0227 148.688 92.4545C149.377 92.8864 149.941 93.5038 150.381 94.3068C150.82 95.1023 151.04 96.1364 151.04 97.4091V109H147.722V106.614H147.585C147.366 107.053 147.036 107.485 146.597 107.909C146.157 108.333 145.593 108.686 144.903 108.966C144.214 109.246 143.388 109.386 142.426 109.386ZM143.165 106.659C144.104 106.659 144.907 106.473 145.574 106.102C146.248 105.731 146.759 105.246 147.108 104.648C147.464 104.042 147.642 103.394 147.642 102.705V100.455C147.521 100.576 147.286 100.689 146.938 100.795C146.597 100.894 146.206 100.981 145.767 101.057C145.328 101.125 144.9 101.189 144.483 101.25C144.066 101.303 143.718 101.348 143.438 101.386C142.778 101.47 142.176 101.61 141.631 101.807C141.093 102.004 140.661 102.288 140.335 102.659C140.017 103.023 139.858 103.508 139.858 104.114C139.858 104.955 140.169 105.591 140.79 106.023C141.411 106.447 142.203 106.659 143.165 106.659ZM157.088 115.545C156.58 115.545 156.118 115.504 155.702 115.42C155.285 115.345 154.974 115.261 154.77 115.17L155.588 112.386C156.209 112.553 156.762 112.625 157.247 112.602C157.732 112.58 158.16 112.398 158.531 112.057C158.91 111.716 159.243 111.159 159.531 110.386L159.952 109.227L153.565 91.5455H157.202L161.622 105.091H161.804L166.224 91.5455H169.872L162.679 111.33C162.346 112.239 161.921 113.008 161.406 113.636C160.891 114.273 160.277 114.75 159.565 115.068C158.853 115.386 158.027 115.545 157.088 115.545ZM179.994 109.352C178.275 109.352 176.794 108.985 175.551 108.25C174.316 107.508 173.362 106.466 172.688 105.125C172.021 103.777 171.688 102.197 171.688 100.386C171.688 98.5985 172.021 97.0227 172.688 95.6591C173.362 94.2955 174.301 93.2311 175.506 92.4659C176.718 91.7008 178.134 91.3182 179.756 91.3182C180.741 91.3182 181.695 91.4811 182.619 91.8068C183.544 92.1326 184.373 92.6439 185.108 93.3409C185.843 94.0379 186.422 94.9432 186.847 96.0568C187.271 97.1629 187.483 98.5076 187.483 100.091V101.295H173.608V98.75H184.153C184.153 97.8561 183.972 97.0644 183.608 96.375C183.244 95.678 182.733 95.1288 182.074 94.7273C181.422 94.3258 180.657 94.125 179.778 94.125C178.824 94.125 177.991 94.3598 177.278 94.8295C176.574 95.2917 176.028 95.8977 175.642 96.6477C175.263 97.3902 175.074 98.197 175.074 99.0682V101.057C175.074 102.223 175.278 103.216 175.688 104.034C176.104 104.852 176.684 105.477 177.426 105.909C178.169 106.333 179.036 106.545 180.028 106.545C180.672 106.545 181.259 106.455 181.79 106.273C182.32 106.083 182.778 105.803 183.165 105.432C183.551 105.061 183.847 104.602 184.051 104.057L187.267 104.636C187.009 105.583 186.547 106.413 185.881 107.125C185.222 107.83 184.392 108.379 183.392 108.773C182.4 109.159 181.267 109.352 179.994 109.352ZM191.253 109V91.5455H194.537V94.3182H194.719C195.037 93.3788 195.598 92.6402 196.401 92.1023C197.211 91.5568 198.128 91.2841 199.151 91.2841C199.363 91.2841 199.613 91.2917 199.901 91.3068C200.196 91.322 200.427 91.3409 200.594 91.3636V94.6136C200.457 94.5758 200.215 94.5341 199.866 94.4886C199.518 94.4356 199.17 94.4091 198.821 94.4091C198.018 94.4091 197.302 94.5795 196.673 94.9205C196.052 95.2538 195.56 95.7197 195.196 96.3182C194.832 96.9091 194.651 97.5833 194.651 98.3409V109H191.253ZM220.787 85.7273V109H217.264V89.25H217.128L211.56 92.8864V89.5227L217.366 85.7273H220.787ZM234.722 88.75V85.7273H252.733V88.75H245.472V109H241.972V88.75H234.722ZM261.432 109.352C259.712 109.352 258.231 108.985 256.989 108.25C255.754 107.508 254.799 106.466 254.125 105.125C253.458 103.777 253.125 102.197 253.125 100.386C253.125 98.5985 253.458 97.0227 254.125 95.6591C254.799 94.2955 255.739 93.2311 256.943 92.4659C258.155 91.7008 259.572 91.3182 261.193 91.3182C262.178 91.3182 263.133 91.4811 264.057 91.8068C264.981 92.1326 265.811 92.6439 266.545 93.3409C267.28 94.0379 267.86 94.9432 268.284 96.0568C268.708 97.1629 268.92 98.5076 268.92 100.091V101.295H255.045V98.75H265.591C265.591 97.8561 265.409 97.0644 265.045 96.375C264.682 95.678 264.17 95.1288 263.511 94.7273C262.86 94.3258 262.095 94.125 261.216 94.125C260.261 94.125 259.428 94.3598 258.716 94.8295C258.011 95.2917 257.466 95.8977 257.08 96.6477C256.701 97.3902 256.511 98.197 256.511 99.0682V101.057C256.511 102.223 256.716 103.216 257.125 104.034C257.542 104.852 258.121 105.477 258.864 105.909C259.606 106.333 260.473 106.545 261.466 106.545C262.11 106.545 262.697 106.455 263.227 106.273C263.758 106.083 264.216 105.803 264.602 105.432C264.989 105.061 265.284 104.602 265.489 104.057L268.705 104.636C268.447 105.583 267.985 106.413 267.318 107.125C266.659 107.83 265.83 108.379 264.83 108.773C263.837 109.159 262.705 109.352 261.432 109.352ZM285.77 95.8068L282.69 96.3523C282.562 95.9583 282.357 95.5833 282.077 95.2273C281.804 94.8712 281.433 94.5795 280.963 94.3523C280.493 94.125 279.906 94.0114 279.202 94.0114C278.24 94.0114 277.437 94.2273 276.793 94.6591C276.149 95.0833 275.827 95.6326 275.827 96.3068C275.827 96.8902 276.043 97.3598 276.474 97.7159C276.906 98.072 277.603 98.3636 278.565 98.5909L281.338 99.2273C282.944 99.5985 284.141 100.17 284.929 100.943C285.717 101.716 286.111 102.72 286.111 103.955C286.111 105 285.808 105.932 285.202 106.75C284.603 107.561 283.766 108.197 282.69 108.659C281.622 109.121 280.384 109.352 278.974 109.352C277.02 109.352 275.425 108.936 274.19 108.102C272.955 107.261 272.198 106.068 271.918 104.523L275.202 104.023C275.406 104.879 275.827 105.527 276.463 105.966C277.099 106.398 277.929 106.614 278.952 106.614C280.065 106.614 280.955 106.383 281.622 105.92C282.289 105.451 282.622 104.879 282.622 104.205C282.622 103.659 282.418 103.201 282.009 102.83C281.607 102.458 280.99 102.178 280.156 101.989L277.202 101.341C275.573 100.97 274.368 100.379 273.588 99.5682C272.815 98.7576 272.429 97.7311 272.429 96.4886C272.429 95.4583 272.717 94.5568 273.293 93.7841C273.868 93.0114 274.664 92.4091 275.679 91.9773C276.694 91.5379 277.857 91.3182 279.168 91.3182C281.054 91.3182 282.539 91.7273 283.622 92.5455C284.705 93.3561 285.421 94.4432 285.77 95.8068ZM297.994 91.5455V94.2727H288.46V91.5455H297.994ZM291.017 87.3636H294.415V103.875C294.415 104.534 294.513 105.03 294.71 105.364C294.907 105.689 295.161 105.913 295.472 106.034C295.79 106.148 296.134 106.205 296.506 106.205C296.778 106.205 297.017 106.186 297.222 106.148C297.426 106.11 297.585 106.08 297.699 106.057L298.312 108.864C298.116 108.939 297.835 109.015 297.472 109.091C297.108 109.174 296.653 109.22 296.108 109.227C295.214 109.242 294.381 109.083 293.608 108.75C292.835 108.417 292.21 107.902 291.733 107.205C291.256 106.508 291.017 105.633 291.017 104.58V87.3636ZM305.151 98.6364V109H301.753V91.5455H305.014V94.3864H305.23C305.632 93.4621 306.26 92.7197 307.116 92.1591C307.98 91.5985 309.067 91.3182 310.378 91.3182C311.567 91.3182 312.609 91.5682 313.503 92.0682C314.397 92.5606 315.09 93.2955 315.582 94.2727C316.075 95.25 316.321 96.4583 316.321 97.8977V109H312.923V98.3068C312.923 97.0417 312.594 96.053 311.935 95.3409C311.276 94.6212 310.37 94.2614 309.219 94.2614C308.431 94.2614 307.73 94.4318 307.116 94.7727C306.51 95.1136 306.029 95.6136 305.673 96.2727C305.325 96.9242 305.151 97.7121 305.151 98.6364ZM328.401 109.352C326.681 109.352 325.2 108.985 323.957 108.25C322.723 107.508 321.768 106.466 321.094 105.125C320.427 103.777 320.094 102.197 320.094 100.386C320.094 98.5985 320.427 97.0227 321.094 95.6591C321.768 94.2955 322.707 93.2311 323.912 92.4659C325.124 91.7008 326.541 91.3182 328.162 91.3182C329.147 91.3182 330.101 91.4811 331.026 91.8068C331.95 92.1326 332.779 92.6439 333.514 93.3409C334.249 94.0379 334.829 94.9432 335.253 96.0568C335.677 97.1629 335.889 98.5076 335.889 100.091V101.295H322.014V98.75H332.56C332.56 97.8561 332.378 97.0644 332.014 96.375C331.651 95.678 331.139 95.1288 330.48 94.7273C329.829 94.3258 329.063 94.125 328.185 94.125C327.23 94.125 326.397 94.3598 325.685 94.8295C324.98 95.2917 324.435 95.8977 324.048 96.6477C323.67 97.3902 323.48 98.197 323.48 99.0682V101.057C323.48 102.223 323.685 103.216 324.094 104.034C324.51 104.852 325.09 105.477 325.832 105.909C326.575 106.333 327.442 106.545 328.435 106.545C329.079 106.545 329.666 106.455 330.196 106.273C330.726 106.083 331.185 105.803 331.571 105.432C331.957 105.061 332.253 104.602 332.457 104.057L335.673 104.636C335.416 105.583 334.954 106.413 334.287 107.125C333.628 107.83 332.798 108.379 331.798 108.773C330.806 109.159 329.673 109.352 328.401 109.352ZM347.807 91.5455V94.2727H338.273V91.5455H347.807ZM340.83 87.3636H344.227V103.875C344.227 104.534 344.326 105.03 344.523 105.364C344.72 105.689 344.973 105.913 345.284 106.034C345.602 106.148 345.947 106.205 346.318 106.205C346.591 106.205 346.83 106.186 347.034 106.148C347.239 106.11 347.398 106.08 347.511 106.057L348.125 108.864C347.928 108.939 347.648 109.015 347.284 109.091C346.92 109.174 346.466 109.22 345.92 109.227C345.027 109.242 344.193 109.083 343.42 108.75C342.648 108.417 342.023 107.902 341.545 107.205C341.068 106.508 340.83 105.633 340.83 104.58V87.3636ZM363.818 85.7273V109H360.307V85.7273H363.818ZM368.659 109V91.5455H371.92V94.3864H372.136C372.5 93.4242 373.095 92.6742 373.92 92.1364C374.746 91.5909 375.735 91.3182 376.886 91.3182C378.053 91.3182 379.03 91.5909 379.818 92.1364C380.614 92.6818 381.201 93.4318 381.58 94.3864H381.761C382.178 93.4545 382.841 92.7121 383.75 92.1591C384.659 91.5985 385.742 91.3182 387 91.3182C388.583 91.3182 389.875 91.8144 390.875 92.8068C391.883 93.7992 392.386 95.2955 392.386 97.2955V109H388.989V97.6136C388.989 96.4318 388.667 95.5758 388.023 95.0455C387.379 94.5152 386.61 94.25 385.716 94.25C384.61 94.25 383.75 94.5909 383.136 95.2727C382.523 95.947 382.216 96.8144 382.216 97.875V109H378.83V97.3977C378.83 96.4508 378.534 95.6894 377.943 95.1136C377.352 94.5379 376.583 94.25 375.636 94.25C374.992 94.25 374.398 94.4205 373.852 94.7614C373.314 95.0947 372.879 95.5606 372.545 96.1591C372.22 96.7576 372.057 97.4508 372.057 98.2386V109H368.659ZM396.94 115.545V91.5455H400.259V94.375H400.543C400.74 94.0114 401.024 93.5909 401.395 93.1136C401.766 92.6364 402.281 92.2197 402.94 91.8636C403.599 91.5 404.471 91.3182 405.554 91.3182C406.963 91.3182 408.221 91.6742 409.327 92.3864C410.433 93.0985 411.3 94.125 411.929 95.4659C412.565 96.8068 412.884 98.4205 412.884 100.307C412.884 102.193 412.569 103.811 411.94 105.159C411.312 106.5 410.448 107.534 409.349 108.261C408.251 108.981 406.997 109.341 405.588 109.341C404.527 109.341 403.66 109.163 402.986 108.807C402.319 108.451 401.796 108.034 401.418 107.557C401.039 107.08 400.747 106.655 400.543 106.284H400.338V115.545H396.94ZM400.27 100.273C400.27 101.5 400.448 102.576 400.804 103.5C401.16 104.424 401.675 105.148 402.349 105.67C403.024 106.186 403.849 106.443 404.827 106.443C405.842 106.443 406.69 106.174 407.372 105.636C408.054 105.091 408.569 104.352 408.918 103.42C409.274 102.489 409.452 101.439 409.452 100.273C409.452 99.1212 409.277 98.0871 408.929 97.1705C408.588 96.2538 408.073 95.5303 407.384 95C406.702 94.4697 405.849 94.2045 404.827 94.2045C403.842 94.2045 403.009 94.4583 402.327 94.9659C401.652 95.4735 401.141 96.1818 400.793 97.0909C400.444 98 400.27 99.0606 400.27 100.273ZM420.088 85.7273V109H416.69V85.7273H420.088ZM432.182 109.352C430.462 109.352 428.981 108.985 427.739 108.25C426.504 107.508 425.549 106.466 424.875 105.125C424.208 103.777 423.875 102.197 423.875 100.386C423.875 98.5985 424.208 97.0227 424.875 95.6591C425.549 94.2955 426.489 93.2311 427.693 92.4659C428.905 91.7008 430.322 91.3182 431.943 91.3182C432.928 91.3182 433.883 91.4811 434.807 91.8068C435.731 92.1326 436.561 92.6439 437.295 93.3409C438.03 94.0379 438.61 94.9432 439.034 96.0568C439.458 97.1629 439.67 98.5076 439.67 100.091V101.295H425.795V98.75H436.341C436.341 97.8561 436.159 97.0644 435.795 96.375C435.432 95.678 434.92 95.1288 434.261 94.7273C433.61 94.3258 432.845 94.125 431.966 94.125C431.011 94.125 430.178 94.3598 429.466 94.8295C428.761 95.2917 428.216 95.8977 427.83 96.6477C427.451 97.3902 427.261 98.197 427.261 99.0682V101.057C427.261 102.223 427.466 103.216 427.875 104.034C428.292 104.852 428.871 105.477 429.614 105.909C430.356 106.333 431.223 106.545 432.216 106.545C432.86 106.545 433.447 106.455 433.977 106.273C434.508 106.083 434.966 105.803 435.352 105.432C435.739 105.061 436.034 104.602 436.239 104.057L439.455 104.636C439.197 105.583 438.735 106.413 438.068 107.125C437.409 107.83 436.58 108.379 435.58 108.773C434.587 109.159 433.455 109.352 432.182 109.352ZM443.44 109V91.5455H446.702V94.3864H446.918C447.281 93.4242 447.876 92.6742 448.702 92.1364C449.527 91.5909 450.516 91.3182 451.668 91.3182C452.834 91.3182 453.812 91.5909 454.599 92.1364C455.395 92.6818 455.982 93.4318 456.361 94.3864H456.543C456.959 93.4545 457.622 92.7121 458.531 92.1591C459.44 91.5985 460.524 91.3182 461.781 91.3182C463.365 91.3182 464.656 91.8144 465.656 92.8068C466.664 93.7992 467.168 95.2955 467.168 97.2955V109H463.77V97.6136C463.77 96.4318 463.448 95.5758 462.804 95.0455C462.16 94.5152 461.391 94.25 460.497 94.25C459.391 94.25 458.531 94.5909 457.918 95.2727C457.304 95.947 456.997 96.8144 456.997 97.875V109H453.611V97.3977C453.611 96.4508 453.315 95.6894 452.724 95.1136C452.134 94.5379 451.365 94.25 450.418 94.25C449.774 94.25 449.179 94.4205 448.634 94.7614C448.096 95.0947 447.66 95.5606 447.327 96.1591C447.001 96.7576 446.838 97.4508 446.838 98.2386V109H443.44ZM476.801 109.386C475.695 109.386 474.695 109.182 473.801 108.773C472.907 108.356 472.199 107.754 471.676 106.966C471.161 106.178 470.903 105.212 470.903 104.068C470.903 103.083 471.093 102.273 471.472 101.636C471.85 101 472.362 100.496 473.006 100.125C473.65 99.7538 474.369 99.4735 475.165 99.2841C475.96 99.0947 476.771 98.9508 477.597 98.8523C478.642 98.7311 479.491 98.6326 480.142 98.5568C480.794 98.4735 481.267 98.3409 481.562 98.1591C481.858 97.9773 482.006 97.6818 482.006 97.2727V97.1932C482.006 96.2008 481.725 95.4318 481.165 94.8864C480.612 94.3409 479.786 94.0682 478.688 94.0682C477.544 94.0682 476.642 94.322 475.983 94.8295C475.331 95.3295 474.881 95.8864 474.631 96.5L471.438 95.7727C471.816 94.7121 472.369 93.8561 473.097 93.2045C473.831 92.5455 474.676 92.0682 475.631 91.7727C476.585 91.4697 477.589 91.3182 478.642 91.3182C479.339 91.3182 480.078 91.4015 480.858 91.5682C481.646 91.7273 482.381 92.0227 483.062 92.4545C483.752 92.8864 484.316 93.5038 484.756 94.3068C485.195 95.1023 485.415 96.1364 485.415 97.4091V109H482.097V106.614H481.96C481.741 107.053 481.411 107.485 480.972 107.909C480.532 108.333 479.968 108.686 479.278 108.966C478.589 109.246 477.763 109.386 476.801 109.386ZM477.54 106.659C478.479 106.659 479.282 106.473 479.949 106.102C480.623 105.731 481.134 105.246 481.483 104.648C481.839 104.042 482.017 103.394 482.017 102.705V100.455C481.896 100.576 481.661 100.689 481.312 100.795C480.972 100.894 480.581 100.981 480.142 101.057C479.703 101.125 479.275 101.189 478.858 101.25C478.441 101.303 478.093 101.348 477.812 101.386C477.153 101.47 476.551 101.61 476.006 101.807C475.468 102.004 475.036 102.288 474.71 102.659C474.392 103.023 474.233 103.508 474.233 104.114C474.233 104.955 474.544 105.591 475.165 106.023C475.786 106.447 476.578 106.659 477.54 106.659ZM493.338 98.6364V109H489.94V91.5455H493.202V94.3864H493.418C493.819 93.4621 494.448 92.7197 495.304 92.1591C496.168 91.5985 497.255 91.3182 498.565 91.3182C499.755 91.3182 500.796 91.5682 501.69 92.0682C502.584 92.5606 503.277 93.2955 503.77 94.2727C504.262 95.25 504.509 96.4583 504.509 97.8977V109H501.111V98.3068C501.111 97.0417 500.781 96.053 500.122 95.3409C499.463 94.6212 498.558 94.2614 497.406 94.2614C496.618 94.2614 495.918 94.4318 495.304 94.7727C494.698 95.1136 494.217 95.6136 493.861 96.2727C493.512 96.9242 493.338 97.7121 493.338 98.6364ZM517.213 91.5455V94.2727H507.679V91.5455H517.213ZM510.236 87.3636H513.634V103.875C513.634 104.534 513.732 105.03 513.929 105.364C514.126 105.689 514.38 105.913 514.69 106.034C515.009 106.148 515.353 106.205 515.724 106.205C515.997 106.205 516.236 106.186 516.44 106.148C516.645 106.11 516.804 106.08 516.918 106.057L517.531 108.864C517.334 108.939 517.054 109.015 516.69 109.091C516.327 109.174 515.872 109.22 515.327 109.227C514.433 109.242 513.599 109.083 512.827 108.75C512.054 108.417 511.429 107.902 510.952 107.205C510.474 106.508 510.236 105.633 510.236 104.58V87.3636ZM526.051 109.386C524.945 109.386 523.945 109.182 523.051 108.773C522.157 108.356 521.449 107.754 520.926 106.966C520.411 106.178 520.153 105.212 520.153 104.068C520.153 103.083 520.343 102.273 520.722 101.636C521.1 101 521.612 100.496 522.256 100.125C522.9 99.7538 523.619 99.4735 524.415 99.2841C525.21 99.0947 526.021 98.9508 526.847 98.8523C527.892 98.7311 528.741 98.6326 529.392 98.5568C530.044 98.4735 530.517 98.3409 530.812 98.1591C531.108 97.9773 531.256 97.6818 531.256 97.2727V97.1932C531.256 96.2008 530.975 95.4318 530.415 94.8864C529.862 94.3409 529.036 94.0682 527.938 94.0682C526.794 94.0682 525.892 94.322 525.233 94.8295C524.581 95.3295 524.131 95.8864 523.881 96.5L520.688 95.7727C521.066 94.7121 521.619 93.8561 522.347 93.2045C523.081 92.5455 523.926 92.0682 524.881 91.7727C525.835 91.4697 526.839 91.3182 527.892 91.3182C528.589 91.3182 529.328 91.4015 530.108 91.5682C530.896 91.7273 531.631 92.0227 532.312 92.4545C533.002 92.8864 533.566 93.5038 534.006 94.3068C534.445 95.1023 534.665 96.1364 534.665 97.4091V109H531.347V106.614H531.21C530.991 107.053 530.661 107.485 530.222 107.909C529.782 108.333 529.218 108.686 528.528 108.966C527.839 109.246 527.013 109.386 526.051 109.386ZM526.79 106.659C527.729 106.659 528.532 106.473 529.199 106.102C529.873 105.731 530.384 105.246 530.733 104.648C531.089 104.042 531.267 103.394 531.267 102.705V100.455C531.146 100.576 530.911 100.689 530.562 100.795C530.222 100.894 529.831 100.981 529.392 101.057C528.953 101.125 528.525 101.189 528.108 101.25C527.691 101.303 527.343 101.348 527.062 101.386C526.403 101.47 525.801 101.61 525.256 101.807C524.718 102.004 524.286 102.288 523.96 102.659C523.642 103.023 523.483 103.508 523.483 104.114C523.483 104.955 523.794 105.591 524.415 106.023C525.036 106.447 525.828 106.659 526.79 106.659ZM547.338 91.5455V94.2727H537.804V91.5455H547.338ZM540.361 87.3636H543.759V103.875C543.759 104.534 543.857 105.03 544.054 105.364C544.251 105.689 544.505 105.913 544.815 106.034C545.134 106.148 545.478 106.205 545.849 106.205C546.122 106.205 546.361 106.186 546.565 106.148C546.77 106.11 546.929 106.08 547.043 106.057L547.656 108.864C547.459 108.939 547.179 109.015 546.815 109.091C546.452 109.174 545.997 109.22 545.452 109.227C544.558 109.242 543.724 109.083 542.952 108.75C542.179 108.417 541.554 107.902 541.077 107.205C540.599 106.508 540.361 105.633 540.361 104.58V87.3636ZM551.097 109V91.5455H554.494V109H551.097ZM552.812 88.8523C552.222 88.8523 551.714 88.6553 551.29 88.2614C550.873 87.8598 550.665 87.3826 550.665 86.8295C550.665 86.2689 550.873 85.7917 551.29 85.3977C551.714 84.9962 552.222 84.7955 552.812 84.7955C553.403 84.7955 553.907 84.9962 554.324 85.3977C554.748 85.7917 554.96 86.2689 554.96 86.8295C554.96 87.3826 554.748 87.8598 554.324 88.2614C553.907 88.6553 553.403 88.8523 552.812 88.8523ZM566.418 109.352C564.781 109.352 563.353 108.977 562.134 108.227C560.914 107.477 559.967 106.428 559.293 105.08C558.618 103.731 558.281 102.155 558.281 100.352C558.281 98.5417 558.618 96.9583 559.293 95.6023C559.967 94.2462 560.914 93.1932 562.134 92.4432C563.353 91.6932 564.781 91.3182 566.418 91.3182C568.054 91.3182 569.482 91.6932 570.702 92.4432C571.921 93.1932 572.868 94.2462 573.543 95.6023C574.217 96.9583 574.554 98.5417 574.554 100.352C574.554 102.155 574.217 103.731 573.543 105.08C572.868 106.428 571.921 107.477 570.702 108.227C569.482 108.977 568.054 109.352 566.418 109.352ZM566.429 106.5C567.49 106.5 568.368 106.22 569.065 105.659C569.762 105.098 570.277 104.352 570.611 103.42C570.952 102.489 571.122 101.462 571.122 100.341C571.122 99.2273 570.952 98.2045 570.611 97.2727C570.277 96.3333 569.762 95.5795 569.065 95.0114C568.368 94.4432 567.49 94.1591 566.429 94.1591C565.361 94.1591 564.474 94.4432 563.77 95.0114C563.073 95.5795 562.554 96.3333 562.213 97.2727C561.88 98.2045 561.713 99.2273 561.713 100.341C561.713 101.462 561.88 102.489 562.213 103.42C562.554 104.352 563.073 105.098 563.77 105.659C564.474 106.22 565.361 106.5 566.429 106.5ZM581.744 98.6364V109H578.347V91.5455H581.608V94.3864H581.824C582.225 93.4621 582.854 92.7197 583.71 92.1591C584.574 91.5985 585.661 91.3182 586.972 91.3182C588.161 91.3182 589.203 91.5682 590.097 92.0682C590.991 92.5606 591.684 93.2955 592.176 94.2727C592.669 95.25 592.915 96.4583 592.915 97.8977V109H589.517V98.3068C589.517 97.0417 589.188 96.053 588.528 95.3409C587.869 94.6212 586.964 94.2614 585.812 94.2614C585.025 94.2614 584.324 94.4318 583.71 94.7727C583.104 95.1136 582.623 95.6136 582.267 96.2727C581.919 96.9242 581.744 97.7121 581.744 98.6364Z" fill="#4CC9F0"/>
<line x1="93.5" y1="20" x2="93.5" y2="335" stroke="#0FA9D9"/>
</svg>
