<svg width="645" height="640" viewBox="0 0 645 640" fill="none" xmlns="http://www.w3.org/2000/svg">
<path d="M368 335L313.97 379.167V290.833L368 335Z" fill="#BA1E71"/>
<path fill-rule="evenodd" clip-rule="evenodd" d="M9.60835e-05 379L53.8254 335L9.3759e-05 291H313.97V379H9.60835e-05Z" fill="#BA1E71"/>
<path d="M133.011 349V346.443L142.614 335.932C143.741 334.701 144.669 333.631 145.398 332.722C146.127 331.803 146.667 330.941 147.017 330.136C147.377 329.322 147.557 328.47 147.557 327.58C147.557 326.557 147.311 325.671 146.818 324.923C146.335 324.175 145.672 323.598 144.83 323.19C143.987 322.783 143.04 322.58 141.989 322.58C140.871 322.58 139.896 322.812 139.062 323.276C138.239 323.73 137.599 324.369 137.145 325.193C136.7 326.017 136.477 326.983 136.477 328.091H133.125C133.125 326.386 133.518 324.89 134.304 323.602C135.09 322.314 136.16 321.311 137.514 320.591C138.878 319.871 140.407 319.511 142.102 319.511C143.807 319.511 145.317 319.871 146.634 320.591C147.95 321.311 148.982 322.281 149.73 323.503C150.478 324.724 150.852 326.083 150.852 327.58C150.852 328.65 150.658 329.696 150.27 330.719C149.891 331.732 149.228 332.864 148.281 334.114C147.344 335.354 146.042 336.869 144.375 338.659L137.841 345.648V345.875H151.364V349H133.011ZM166.719 349.398C164.579 349.398 162.756 348.815 161.25 347.651C159.744 346.476 158.594 344.777 157.798 342.551C157.003 340.316 156.605 337.617 156.605 334.455C156.605 331.311 157.003 328.626 157.798 326.401C158.603 324.166 159.759 322.461 161.264 321.287C162.779 320.103 164.598 319.511 166.719 319.511C168.84 319.511 170.653 320.103 172.159 321.287C173.674 322.461 174.83 324.166 175.625 326.401C176.43 328.626 176.832 331.311 176.832 334.455C176.832 337.617 176.435 340.316 175.639 342.551C174.844 344.777 173.693 346.476 172.188 347.651C170.682 348.815 168.859 349.398 166.719 349.398ZM166.719 346.273C168.84 346.273 170.488 345.25 171.662 343.205C172.836 341.159 173.423 338.242 173.423 334.455C173.423 331.936 173.153 329.791 172.614 328.02C172.083 326.249 171.316 324.9 170.312 323.972C169.318 323.044 168.12 322.58 166.719 322.58C164.616 322.58 162.973 323.616 161.79 325.69C160.606 327.755 160.014 330.676 160.014 334.455C160.014 336.973 160.279 339.114 160.81 340.875C161.34 342.636 162.102 343.976 163.097 344.895C164.1 345.813 165.308 346.273 166.719 346.273ZM182.23 349V346.443L191.832 335.932C192.959 334.701 193.887 333.631 194.616 332.722C195.346 331.803 195.885 330.941 196.236 330.136C196.596 329.322 196.776 328.47 196.776 327.58C196.776 326.557 196.529 325.671 196.037 324.923C195.554 324.175 194.891 323.598 194.048 323.19C193.205 322.783 192.259 322.58 191.207 322.58C190.09 322.58 189.115 322.812 188.281 323.276C187.457 323.73 186.818 324.369 186.364 325.193C185.919 326.017 185.696 326.983 185.696 328.091H182.344C182.344 326.386 182.737 324.89 183.523 323.602C184.309 322.314 185.379 321.311 186.733 320.591C188.097 319.871 189.626 319.511 191.321 319.511C193.026 319.511 194.536 319.871 195.852 320.591C197.169 321.311 198.201 322.281 198.949 323.503C199.697 324.724 200.071 326.083 200.071 327.58C200.071 328.65 199.877 329.696 199.489 330.719C199.11 331.732 198.447 332.864 197.5 334.114C196.562 335.354 195.26 336.869 193.594 338.659L187.06 345.648V345.875H200.582V349H182.23ZM216.278 349.398C214.403 349.398 212.732 349.076 211.264 348.432C209.806 347.788 208.646 346.893 207.784 345.747C206.932 344.592 206.468 343.252 206.392 341.727H209.972C210.047 342.665 210.369 343.474 210.938 344.156C211.506 344.829 212.249 345.349 213.168 345.719C214.086 346.088 215.104 346.273 216.222 346.273C217.472 346.273 218.58 346.055 219.545 345.619C220.511 345.184 221.269 344.578 221.818 343.801C222.367 343.025 222.642 342.125 222.642 341.102C222.642 340.032 222.377 339.09 221.847 338.276C221.316 337.452 220.54 336.808 219.517 336.344C218.494 335.88 217.244 335.648 215.767 335.648H213.438V332.523H215.767C216.922 332.523 217.936 332.314 218.807 331.898C219.688 331.481 220.374 330.894 220.866 330.136C221.368 329.379 221.619 328.489 221.619 327.466C221.619 326.481 221.402 325.624 220.966 324.895C220.53 324.166 219.915 323.598 219.119 323.19C218.333 322.783 217.405 322.58 216.335 322.58C215.331 322.58 214.384 322.764 213.494 323.134C212.614 323.493 211.894 324.019 211.335 324.71C210.777 325.392 210.473 326.216 210.426 327.182H207.017C207.074 325.657 207.533 324.322 208.395 323.176C209.257 322.021 210.384 321.121 211.776 320.477C213.177 319.833 214.716 319.511 216.392 319.511C218.191 319.511 219.735 319.876 221.023 320.605C222.311 321.325 223.3 322.277 223.991 323.46C224.683 324.644 225.028 325.922 225.028 327.295C225.028 328.934 224.598 330.33 223.736 331.486C222.884 332.641 221.723 333.441 220.256 333.886V334.114C222.093 334.417 223.527 335.198 224.56 336.457C225.592 337.707 226.108 339.256 226.108 341.102C226.108 342.684 225.677 344.104 224.815 345.364C223.963 346.614 222.798 347.598 221.321 348.318C219.844 349.038 218.163 349.398 216.278 349.398ZM254.247 339.909H258.111L261.349 344.17L262.202 345.307L267.031 351.727H263.168L259.986 347.466L259.19 346.386L254.247 339.909ZM268.224 334.455C268.224 337.523 267.67 340.174 266.562 342.409C265.455 344.644 263.935 346.367 262.003 347.58C260.071 348.792 257.865 349.398 255.384 349.398C252.902 349.398 250.696 348.792 248.764 347.58C246.832 346.367 245.313 344.644 244.205 342.409C243.097 340.174 242.543 337.523 242.543 334.455C242.543 331.386 243.097 328.735 244.205 326.5C245.313 324.265 246.832 322.542 248.764 321.33C250.696 320.117 252.902 319.511 255.384 319.511C257.865 319.511 260.071 320.117 262.003 321.33C263.935 322.542 265.455 324.265 266.562 326.5C267.67 328.735 268.224 331.386 268.224 334.455ZM264.815 334.455C264.815 331.936 264.394 329.81 263.551 328.077C262.718 326.344 261.586 325.032 260.156 324.142C258.736 323.252 257.145 322.807 255.384 322.807C253.622 322.807 252.027 323.252 250.597 324.142C249.176 325.032 248.045 326.344 247.202 328.077C246.368 329.81 245.952 331.936 245.952 334.455C245.952 336.973 246.368 339.099 247.202 340.832C248.045 342.565 249.176 343.877 250.597 344.767C252.027 345.657 253.622 346.102 255.384 346.102C257.145 346.102 258.736 345.657 260.156 344.767C261.586 343.877 262.718 342.565 263.551 340.832C264.394 339.099 264.815 336.973 264.815 334.455ZM272.955 343.034V340.136L285.739 319.909H287.841V324.398H286.42L276.761 339.682V339.909H293.977V343.034H272.955ZM286.648 349V342.153V340.804V319.909H290V349H286.648Z" fill="black"/>
<path d="M94.9314 335.224C94.9314 339.767 90.6935 343.449 85.4657 343.449C80.2379 343.449 76 339.767 76 335.224C76 330.682 80.2379 327 85.4657 327C90.6935 327 94.9314 330.682 94.9314 335.224Z" fill="#D9D9D9"/>
<path d="M83.3708 427.896C82.3255 427.892 81.3561 427.643 80.4627 427.148C79.5695 426.633 78.8585 425.937 78.3298 425.06C77.8011 424.183 77.5396 423.211 77.5453 422.145C77.5505 421.163 77.8008 420.236 78.2961 419.364C78.8127 418.491 79.5098 417.79 80.3873 417.26C81.2862 416.709 82.301 416.436 83.4317 416.44C84.477 416.444 85.4356 416.704 86.3076 417.22C87.1796 417.714 87.8801 418.389 88.4089 419.244C88.959 420.1 89.2311 421.082 89.2252 422.192C89.2196 423.237 88.9479 424.196 88.4099 425.068C87.8933 425.941 87.1856 426.631 86.2869 427.14C85.4095 427.648 84.4375 427.9 83.3708 427.896ZM110.096 430.851L110.216 408.292L119.4 408.328C121.832 408.338 123.696 408.858 124.992 409.887C126.288 410.916 126.931 412.359 126.921 414.215C126.913 415.623 126.48 416.794 125.622 417.73C124.785 418.665 123.64 419.29 122.188 419.604L122.191 419.124C123.854 419.322 125.141 419.904 126.053 420.867C126.987 421.831 127.45 423.102 127.441 424.681C127.431 426.686 126.75 428.23 125.401 429.313C124.051 430.374 122.149 430.9 119.696 430.89L110.096 430.851ZM112.989 428.495L119.421 428.521C120.999 428.527 122.238 428.233 123.137 427.64C124.058 427.025 124.522 426.013 124.53 424.605C124.537 423.176 124.084 422.161 123.17 421.56C122.277 420.959 121.041 420.655 119.463 420.649L113.031 420.623L112.989 428.495ZM113.043 418.255L118.931 418.279C120.616 418.285 121.877 417.97 122.712 417.334C123.548 416.676 123.969 415.728 123.975 414.491C123.982 413.254 123.571 412.313 122.742 411.67C121.914 411.005 120.657 410.67 118.972 410.663L113.084 410.639L113.043 418.255ZM138.946 431.255C136.386 431.245 134.363 430.501 132.878 429.023C131.414 427.545 130.689 425.515 130.702 422.934C130.711 421.227 131.039 419.757 131.686 418.522C132.354 417.266 133.266 416.299 134.421 415.621C135.577 414.921 136.923 414.575 138.459 414.581C139.931 414.587 141.177 414.912 142.198 415.556C143.218 416.179 143.992 417.067 144.52 418.221C145.047 419.375 145.306 420.742 145.298 422.32L145.293 423.28L132.973 423.231L132.982 421.503L143.318 421.545L142.772 421.958C142.78 420.294 142.414 419.002 141.672 418.082C140.952 417.162 139.877 416.699 138.448 416.693C136.89 416.687 135.682 417.226 134.823 418.31C133.964 419.374 133.53 420.833 133.52 422.689L133.518 422.977C133.508 424.94 133.98 426.424 134.934 427.431C135.91 428.438 137.262 428.944 138.99 428.951C139.95 428.955 140.847 428.82 141.681 428.546C142.514 428.272 143.317 427.817 144.088 427.18L145.037 429.199C144.308 429.858 143.399 430.366 142.309 430.725C141.24 431.083 140.12 431.26 138.946 431.255ZM155.04 431.32C153.355 431.313 152.077 430.849 151.208 429.928C150.359 428.986 149.94 427.576 149.95 425.699L149.996 417.155L146.86 417.143L146.871 414.903L150.007 414.915L150.03 410.595L152.947 409.807L152.919 414.927L157.463 414.945L157.451 417.185L152.907 417.167L152.863 425.455C152.857 426.692 153.066 427.578 153.489 428.113C153.935 428.627 154.573 428.886 155.405 428.889C155.832 428.891 156.195 428.86 156.494 428.797C156.814 428.713 157.103 428.619 157.359 428.513L157.347 430.913C157.026 431.04 156.652 431.134 156.225 431.196C155.819 431.28 155.424 431.321 155.04 431.32ZM166.574 431.366C165.166 431.36 163.931 431.025 162.868 430.359C161.805 429.693 160.978 428.73 160.387 427.469C159.796 426.208 159.506 424.713 159.515 422.985C159.524 421.258 159.831 419.776 160.435 418.541C161.039 417.285 161.876 416.328 162.946 415.671C164.016 415.014 165.255 414.688 166.663 414.694C168.092 414.7 169.328 415.067 170.369 415.797C171.432 416.505 172.131 417.479 172.466 418.717L172.082 418.716L172.453 415.005L175.269 415.017C175.202 415.656 175.135 416.296 175.067 416.936C175.021 417.576 174.997 418.205 174.993 418.824L174.928 431.111L172.016 431.1L172.036 427.42L172.388 427.421C172.04 428.636 171.331 429.604 170.26 430.325C169.211 431.024 167.982 431.372 166.574 431.366ZM167.259 429.065C168.709 429.07 169.875 428.563 170.755 427.543C171.635 426.522 172.08 425.02 172.091 423.036C172.101 421.052 171.672 419.557 170.803 418.551C169.933 417.545 168.773 417.039 167.323 417.033C165.872 417.027 164.696 417.524 163.795 418.523C162.915 419.522 162.469 421.013 162.459 422.997C162.448 424.981 162.878 426.487 163.747 427.515C164.616 428.542 165.787 429.059 167.259 429.065ZM188.564 431.166L188.684 408.606L190.988 408.616L205.033 427.36L204.265 427.357L204.364 408.669L207.148 408.68L207.028 431.24L204.756 431.231L190.712 412.487L191.448 412.49L191.348 431.177L188.564 431.166ZM212.502 431.262L212.622 408.702L226.893 408.76L226.88 411.192L215.585 411.146L215.544 418.698L226.104 418.741L226.091 421.173L215.532 421.13L215.478 431.274L212.502 431.262ZM236.097 431.357L236.203 411.325L228.395 411.294L228.409 408.766L247.065 408.841L247.051 411.369L239.211 411.337L239.105 431.369L236.097 431.357ZM258.564 431.447L258.684 408.887L261.308 408.898L270.097 428.965L269.137 428.961L278.139 408.965L280.731 408.976L280.612 431.535L277.892 431.524L277.99 412.933L278.982 412.937L270.532 431.495L268.644 431.487L260.391 412.862L261.383 412.866L261.284 431.458L258.564 431.447ZM291.948 431.869C290.54 431.863 289.305 431.528 288.242 430.862C287.179 430.196 286.352 429.233 285.761 427.972C285.17 426.711 284.88 425.216 284.889 423.488C284.898 421.76 285.205 420.279 285.809 419.044C286.413 417.788 287.25 416.831 288.32 416.174C289.39 415.517 290.629 415.191 292.037 415.197C293.466 415.203 294.702 415.57 295.743 416.3C296.806 417.008 297.505 417.982 297.84 419.22L297.456 419.219L297.827 415.508L300.643 415.52C300.576 416.159 300.509 416.799 300.441 417.439C300.395 418.079 300.371 418.708 300.367 419.326L300.302 431.614L297.39 431.603L297.41 427.923L297.762 427.924C297.414 429.139 296.705 430.107 295.634 430.828C294.585 431.527 293.356 431.874 291.948 431.869ZM292.633 429.568C294.083 429.573 295.249 429.066 296.129 428.046C297.009 427.025 297.454 425.523 297.465 423.539C297.475 421.555 297.046 420.06 296.177 419.054C295.307 418.047 294.147 417.541 292.697 417.536C291.246 417.53 290.07 418.026 289.169 419.026C288.289 420.025 287.843 421.516 287.833 423.5C287.822 425.484 288.252 426.99 289.121 428.017C289.99 429.045 291.161 429.562 292.633 429.568ZM305.149 431.634L305.214 419.474C305.217 418.834 305.199 418.183 305.16 417.522C305.142 416.839 305.092 416.177 305.01 415.537L307.826 415.548L308.157 419.582L307.677 419.612C307.895 418.631 308.262 417.822 308.778 417.184C309.315 416.525 309.946 416.048 310.673 415.752C311.422 415.435 312.191 415.278 312.98 415.281C313.321 415.282 313.609 415.294 313.844 415.316C314.078 415.339 314.313 415.393 314.547 415.479L314.469 418.071C314.15 417.942 313.851 417.866 313.574 417.843C313.319 417.8 312.999 417.777 312.615 417.776C311.676 417.772 310.864 417.982 310.179 418.406C309.516 418.83 309.001 419.393 308.634 420.096C308.289 420.798 308.114 421.555 308.11 422.366L308.061 431.645L305.149 431.634ZM317.025 431.681L317.15 408.13L320.062 408.141L319.984 422.701L320.048 422.701L327.35 415.627L330.966 415.641L322.281 424.054L322.32 422.679L331.648 431.74L327.936 431.725L320.04 424.205L319.976 424.205L319.937 431.693L317.025 431.681ZM340.726 432.064C338.166 432.054 336.143 431.31 334.658 429.832C333.193 428.354 332.468 426.325 332.482 423.743C332.491 422.037 332.819 420.566 333.465 419.331C334.133 418.075 335.045 417.108 336.201 416.43C337.357 415.731 338.702 415.384 340.238 415.39C341.71 415.396 342.957 415.721 343.977 416.365C344.998 416.988 345.772 417.877 346.299 419.031C346.826 420.185 347.086 421.551 347.077 423.13L347.072 424.09L334.752 424.04L334.762 422.312L345.097 422.354L344.551 422.768C344.56 421.104 344.194 419.812 343.452 418.891C342.731 417.971 341.657 417.508 340.227 417.502C338.67 417.496 337.462 418.035 336.603 419.12C335.744 420.183 335.309 421.643 335.299 423.499L335.298 423.787C335.287 425.749 335.759 427.234 336.714 428.24C337.69 429.247 339.042 429.754 340.77 429.761C341.73 429.764 342.627 429.629 343.46 429.355C344.294 429.081 345.096 428.626 345.868 427.989L346.817 430.009C346.088 430.667 345.179 431.176 344.089 431.534C343.02 431.892 341.899 432.069 340.726 432.064ZM356.82 432.129C355.135 432.122 353.857 431.658 352.987 430.738C352.139 429.796 351.72 428.386 351.73 426.509L351.775 417.965L348.639 417.952L348.651 415.712L351.787 415.725L351.81 411.405L354.726 410.616L354.699 415.736L359.243 415.755L359.231 417.995L354.687 417.976L354.643 426.264C354.637 427.502 354.845 428.388 355.269 428.923C355.714 429.437 356.353 429.695 357.185 429.698C357.612 429.7 357.974 429.67 358.273 429.607C358.594 429.523 358.882 429.428 359.139 429.322L359.126 431.722C358.805 431.849 358.432 431.943 358.005 432.006C357.599 432.089 357.204 432.131 356.82 432.129ZM362.175 438.775L362.277 419.575C362.28 418.956 362.262 418.327 362.223 417.687C362.184 417.046 362.123 416.406 362.041 415.766L364.857 415.777L365.189 419.49L364.837 419.489C365.164 418.253 365.852 417.285 366.901 416.585C367.95 415.864 369.2 415.507 370.651 415.512C372.08 415.518 373.326 415.854 374.389 416.519C375.453 417.185 376.269 418.148 376.838 419.409C377.429 420.649 377.72 422.133 377.71 423.861C377.701 425.589 377.395 427.081 376.791 428.337C376.208 429.593 375.382 430.55 374.311 431.207C373.241 431.864 371.991 432.19 370.562 432.184C369.133 432.178 367.897 431.821 366.856 431.113C365.836 430.384 365.147 429.41 364.791 428.193L365.143 428.194L365.087 438.786L362.175 438.775ZM369.902 429.877C371.374 429.883 372.55 429.376 373.43 428.356C374.311 427.335 374.756 425.833 374.766 423.849C374.777 421.865 374.348 420.37 373.478 419.364C372.609 418.358 371.438 417.852 369.966 417.846C368.494 417.84 367.318 418.336 366.438 419.335C365.58 420.335 365.145 421.826 365.135 423.81C365.124 425.794 365.543 427.3 366.391 428.327C367.26 429.355 368.43 429.872 369.902 429.877ZM381.587 431.94L381.712 408.389L384.624 408.4L384.499 431.952L381.587 431.94ZM395.51 432.284C394.102 432.279 392.867 431.943 391.803 431.277C390.74 430.612 389.913 429.648 389.323 428.387C388.732 427.126 388.441 425.632 388.451 423.904C388.46 422.176 388.766 420.694 389.37 419.459C389.974 418.203 390.811 417.247 391.881 416.59C392.952 415.932 394.191 415.607 395.599 415.612C397.028 415.618 398.263 415.986 399.305 416.715C400.368 417.424 401.067 418.397 401.401 419.636L401.017 419.634L401.389 415.924L404.205 415.935C404.138 416.575 404.07 417.214 404.003 417.854C403.957 418.494 403.932 419.123 403.929 419.742L403.864 432.03L400.952 432.018L400.971 428.338L401.323 428.339C400.975 429.554 400.266 430.522 399.196 431.243C398.147 431.943 396.918 432.29 395.51 432.284ZM396.194 429.983C397.645 429.989 398.81 429.481 399.691 428.461C400.571 427.44 401.016 425.938 401.026 423.954C401.037 421.97 400.608 420.475 399.738 419.469C398.869 418.463 397.709 417.957 396.258 417.951C394.808 417.945 393.632 418.442 392.73 419.441C391.85 420.44 391.405 421.932 391.395 423.916C391.384 425.9 391.813 427.405 392.683 428.433C393.552 429.46 394.722 429.977 396.194 429.983ZM415.653 432.365C414.053 432.359 412.668 432.022 411.498 431.356C410.329 430.669 409.416 429.695 408.762 428.433C408.129 427.151 407.817 425.635 407.826 423.886C407.835 422.158 408.174 420.687 408.841 419.474C409.509 418.239 410.432 417.304 411.608 416.669C412.785 416.012 414.163 415.687 415.742 415.693C416.787 415.697 417.799 415.883 418.779 416.249C419.758 416.595 420.555 417.099 421.171 417.763L420.168 419.807C419.552 419.207 418.872 418.767 418.127 418.487C417.382 418.185 416.646 418.033 415.921 418.03C414.342 418.024 413.102 418.531 412.201 419.551C411.3 420.55 410.844 422.01 410.834 423.93C410.823 425.871 411.263 427.366 412.154 428.415C413.044 429.464 414.279 429.991 415.858 429.998C416.562 430.001 417.288 429.865 418.036 429.591C418.784 429.316 419.48 428.882 420.123 428.287L421.104 430.307C420.46 430.987 419.636 431.506 418.632 431.865C417.649 432.202 416.656 432.369 415.653 432.365ZM431.663 432.429C429.103 432.419 427.08 431.675 425.594 430.197C424.13 428.719 423.405 426.689 423.419 424.108C423.428 422.401 423.756 420.931 424.402 419.696C425.07 418.44 425.982 417.473 427.138 416.795C428.293 416.096 429.639 415.749 431.175 415.755C432.647 415.761 433.893 416.086 434.914 416.73C435.935 417.353 436.709 418.241 437.236 419.395C437.763 420.55 438.023 421.916 438.014 423.495L438.009 424.455L425.689 424.405L425.698 422.677L436.034 422.719L435.488 423.132C435.497 421.469 435.13 420.176 434.389 419.256C433.668 418.336 432.593 417.873 431.164 417.867C429.607 417.861 428.398 418.4 427.539 419.485C426.68 420.548 426.246 422.007 426.236 423.863L426.235 424.151C426.224 426.114 426.696 427.599 427.651 428.605C428.627 429.612 429.979 430.118 431.707 430.125C432.667 430.129 433.564 429.994 434.397 429.72C435.23 429.446 436.033 428.991 436.804 428.354L437.754 430.374C437.025 431.032 436.115 431.54 435.025 431.899C433.957 432.257 432.836 432.434 431.663 432.429ZM450.531 432.217L450.651 409.657L453.275 409.668L462.064 429.735L461.104 429.731L470.107 409.735L472.699 409.746L472.579 432.305L469.859 432.294L469.958 413.703L470.95 413.707L462.499 432.265L460.611 432.257L452.358 413.632L453.35 413.636L453.251 432.228L450.531 432.217ZM483.916 432.639C482.508 432.633 481.272 432.298 480.209 431.632C479.146 430.966 478.319 430.003 477.728 428.742C477.138 427.481 476.847 425.986 476.856 424.258C476.865 422.53 477.172 421.049 477.776 419.814C478.38 418.558 479.217 417.601 480.287 416.944C481.357 416.287 482.596 415.961 484.004 415.967C485.434 415.973 486.669 416.34 487.71 417.07C488.773 417.778 489.472 418.752 489.807 419.99L489.423 419.989L489.795 416.278L492.611 416.29C492.543 416.929 492.476 417.569 492.408 418.209C492.362 418.849 492.338 419.478 492.334 420.096L492.269 432.384L489.357 432.373L489.377 428.693L489.729 428.694C489.381 429.909 488.672 430.877 487.601 431.598C486.552 432.297 485.324 432.644 483.916 432.639ZM484.6 430.338C486.051 430.343 487.216 429.836 488.096 428.816C488.976 427.795 489.421 426.293 489.432 424.309C489.443 422.325 489.013 420.83 488.144 419.824C487.274 418.818 486.114 418.312 484.664 418.306C483.213 418.3 482.037 418.797 481.136 419.796C480.256 420.795 479.811 422.286 479.8 424.27C479.79 426.254 480.219 427.76 481.088 428.787C481.957 429.815 483.128 430.332 484.6 430.338ZM497.148 432.404L497.234 416.308L500.146 416.32L500.06 432.416L497.148 432.404ZM496.996 412.787L497.013 409.651L500.469 409.665L500.452 412.801L496.996 412.787ZM504.929 432.435L504.995 420.147C504.998 419.529 504.98 418.899 504.941 418.259C504.901 417.619 504.841 416.979 504.759 416.338L507.575 416.35L507.876 419.807L507.492 419.805C507.99 418.591 508.752 417.666 509.779 417.03C510.807 416.395 512.003 416.079 513.368 416.085C515.267 416.092 516.693 416.621 517.648 417.67C518.602 418.698 519.074 420.3 519.062 422.476L519.009 432.492L516.097 432.48L516.15 422.624C516.157 421.152 515.875 420.095 515.302 419.453C514.73 418.789 513.836 418.455 512.62 418.45C511.169 418.444 510.015 418.877 509.157 419.748C508.32 420.619 507.898 421.802 507.89 423.295L507.841 432.447L504.929 432.435ZM523.773 432.511L523.838 420.223C523.841 419.604 523.823 418.975 523.784 418.335C523.745 417.694 523.684 417.054 523.602 416.414L526.418 416.425L526.72 419.882L526.336 419.881C526.833 418.667 527.595 417.742 528.623 417.106C529.65 416.47 530.847 416.155 532.212 416.16C534.111 416.168 535.537 416.696 536.492 417.746C537.446 418.773 537.918 420.375 537.906 422.551L537.853 432.567L534.941 432.555L534.993 422.7C535.001 421.228 534.719 420.171 534.146 419.528C533.574 418.865 532.679 418.53 531.463 418.525C530.013 418.52 528.858 418.952 528 419.824C527.164 420.695 526.741 421.877 526.733 423.37L526.685 432.522L523.773 432.511ZM549.943 432.904C547.383 432.893 545.36 432.149 543.875 430.671C542.411 429.193 541.685 427.164 541.699 424.583C541.708 422.876 542.036 421.405 542.682 420.17C543.35 418.914 544.262 417.947 545.418 417.269C546.574 416.57 547.919 416.223 549.455 416.23C550.927 416.235 552.174 416.56 553.194 417.205C554.215 417.827 554.989 418.716 555.516 419.87C556.043 421.024 556.303 422.39 556.294 423.969L556.289 424.929L543.969 424.88L543.979 423.152L554.315 423.193L553.768 423.607C553.777 421.943 553.411 420.651 552.669 419.731C551.948 418.81 550.874 418.347 549.444 418.342C547.887 418.335 546.679 418.874 545.82 419.959C544.961 421.022 544.526 422.482 544.516 424.338L544.515 424.626C544.504 426.588 544.976 428.073 545.931 429.08C546.907 430.086 548.259 430.593 549.987 430.6C550.947 430.604 551.844 430.469 552.677 430.195C553.511 429.921 554.313 429.465 555.085 428.828L556.034 430.848C555.305 431.506 554.396 432.015 553.306 432.373C552.237 432.732 551.116 432.908 549.943 432.904ZM566.037 432.968C564.352 432.961 563.074 432.498 562.204 431.577C561.356 430.635 560.937 429.225 560.947 427.348L560.992 418.804L557.856 418.791L557.868 416.551L561.004 416.564L561.027 412.244L563.943 411.456L563.916 416.576L568.46 416.594L568.448 418.834L563.904 418.816L563.86 427.103C563.854 428.341 564.062 429.227 564.486 429.762C564.931 430.276 565.57 430.534 566.402 430.538C566.829 430.539 567.191 430.509 567.49 430.446C567.811 430.362 568.099 430.267 568.356 430.162L568.343 432.561C568.023 432.688 567.649 432.783 567.222 432.845C566.816 432.929 566.421 432.97 566.037 432.968ZM83.1583 467.896C82.113 467.891 81.1436 467.642 80.2502 467.148C79.3569 466.632 78.646 465.936 78.1173 465.059C77.5886 464.182 77.3271 463.211 77.3328 462.144C77.338 461.163 77.5882 460.236 78.0836 459.363C78.6002 458.491 79.2973 457.789 80.1748 457.259C81.0737 456.708 82.0885 456.435 83.2192 456.44C84.2645 456.444 85.2231 456.704 86.095 457.219C86.9671 457.713 87.6675 458.388 88.1963 459.244C88.7465 460.099 89.0186 461.082 89.0127 462.191C89.0071 463.236 88.7354 464.195 88.1974 465.068C87.6807 465.94 86.9731 466.631 86.0743 467.139C85.197 467.648 84.2249 467.9 83.1583 467.896ZM109.884 470.851L110.004 448.291L112.308 448.3L126.352 467.045L125.584 467.042L125.683 448.354L128.467 448.365L128.348 470.925L126.076 470.916L112.031 452.171L112.767 452.174L112.668 470.862L109.884 470.851ZM139.643 471.258C138.235 471.252 137 470.917 135.937 470.251C134.874 469.586 134.047 468.622 133.456 467.361C132.865 466.1 132.575 464.606 132.584 462.878C132.593 461.15 132.9 459.668 133.503 458.433C134.107 457.177 134.945 456.221 136.015 455.563C137.085 454.906 138.324 454.581 139.732 454.586C141.161 454.592 142.397 454.96 143.438 455.689C144.501 456.398 145.2 457.371 145.535 458.61L145.151 458.608L145.522 454.898L148.338 454.909C148.271 455.549 148.204 456.188 148.136 456.828C148.09 457.468 148.065 458.097 148.062 458.716L147.997 471.004L145.085 470.992L145.104 467.312L145.456 467.313C145.109 468.528 144.4 469.496 143.329 470.217C142.28 470.917 141.051 471.264 139.643 471.258ZM140.328 468.957C141.778 468.963 142.944 468.455 143.824 467.435C144.704 466.414 145.149 464.912 145.16 462.928C145.17 460.944 144.741 459.449 143.872 458.443C143.002 457.437 141.842 456.931 140.392 456.925C138.941 456.919 137.765 457.416 136.864 458.415C135.984 459.414 135.538 460.906 135.528 462.89C135.517 464.874 135.947 466.379 136.816 467.407C137.685 468.434 138.856 468.951 140.328 468.957ZM158.89 471.335C157.205 471.329 155.927 470.865 155.058 469.944C154.209 469.002 153.79 467.592 153.8 465.715L153.845 457.171L150.709 457.158L150.721 454.918L153.857 454.931L153.88 450.611L156.797 449.823L156.769 454.943L161.313 454.961L161.301 457.201L156.757 457.183L156.713 465.471C156.707 466.708 156.915 467.594 157.339 468.129C157.785 468.643 158.423 468.901 159.255 468.905C159.682 468.906 160.045 468.876 160.344 468.813C160.664 468.729 160.953 468.634 161.209 468.529L161.196 470.929C160.876 471.055 160.502 471.15 160.075 471.212C159.669 471.296 159.274 471.337 158.89 471.335ZM164.282 471.069L164.368 454.973L167.279 454.985L167.194 471.081L164.282 471.069ZM164.13 451.452L164.147 448.316L167.603 448.33L167.586 451.466L164.13 451.452ZM176.799 471.119L170.005 454.996L173.141 455.008L178.667 468.855L177.771 468.851L183.541 455.05L186.517 455.062L179.519 471.13L176.799 471.119ZM196.233 471.485C193.673 471.475 191.65 470.731 190.165 469.253C188.701 467.775 187.976 465.745 187.989 463.164C187.998 461.457 188.326 459.987 188.973 458.752C189.641 457.496 190.553 456.529 191.708 455.851C192.864 455.151 194.21 454.805 195.746 454.811C197.218 454.817 198.464 455.142 199.485 455.786C200.505 456.409 201.279 457.297 201.807 458.451C202.334 459.606 202.593 460.972 202.585 462.551L202.58 463.511L190.26 463.461L190.269 461.733L200.605 461.775L200.059 462.188C200.068 460.524 199.701 459.232 198.959 458.312C198.239 457.392 197.164 456.929 195.735 456.923C194.177 456.917 192.969 457.456 192.11 458.54C191.251 459.604 190.817 461.063 190.807 462.919L190.805 463.207C190.795 465.17 191.267 466.655 192.221 467.661C193.197 468.668 194.549 469.174 196.277 469.181C197.237 469.185 198.134 469.05 198.968 468.776C199.801 468.502 200.604 468.047 201.375 467.41L202.324 469.43C201.595 470.088 200.686 470.596 199.596 470.955C198.527 471.313 197.407 471.49 196.233 471.485ZM225.052 471.601C222.791 471.592 220.852 471.115 219.236 470.169C217.641 469.224 216.421 467.886 215.577 466.155C214.733 464.402 214.317 462.342 214.33 459.974C214.342 457.606 214.78 455.559 215.642 453.835C216.505 452.11 217.738 450.782 219.343 449.85C220.97 448.918 222.914 448.456 225.175 448.465C226.796 448.472 228.235 448.723 229.491 449.218C230.747 449.693 231.842 450.39 232.776 451.312L231.675 453.707C230.656 452.807 229.646 452.163 228.645 451.775C227.666 451.366 226.526 451.158 225.225 451.153C222.729 451.143 220.815 451.904 219.484 453.434C218.154 454.965 217.481 457.149 217.466 459.986C217.451 462.824 218.1 465.023 219.415 466.586C220.729 468.127 222.634 468.903 225.13 468.913C226.432 468.918 227.574 468.731 228.557 468.351C229.562 467.949 230.579 467.303 231.608 466.411L232.683 468.783C231.74 469.697 230.626 470.396 229.344 470.882C228.083 471.368 226.652 471.607 225.052 471.601ZM236.656 471.359L236.72 459.199C236.724 458.559 236.706 457.909 236.667 457.247C236.649 456.564 236.599 455.903 236.517 455.263L239.333 455.274L239.664 459.307L239.184 459.337C239.402 458.357 239.769 457.548 240.284 456.91C240.821 456.251 241.453 455.773 242.18 455.477C242.928 455.16 243.697 455.003 244.487 455.007C244.828 455.008 245.116 455.02 245.35 455.042C245.585 455.064 245.819 455.119 246.054 455.205L245.976 457.797C245.657 457.667 245.358 457.591 245.081 457.569C244.825 457.525 244.505 457.503 244.121 457.501C243.183 457.497 242.371 457.707 241.686 458.131C241.022 458.555 240.507 459.119 240.141 459.821C239.796 460.524 239.621 461.28 239.617 462.091L239.568 471.371L236.656 471.359ZM248.531 471.407L248.617 455.311L251.529 455.323L251.443 471.419L248.531 471.407ZM248.38 451.79L248.396 448.654L251.852 448.668L251.836 451.804L248.38 451.79ZM263.223 471.754C261.623 471.747 260.238 471.411 259.068 470.745C257.899 470.058 256.986 469.083 256.332 467.822C255.699 466.54 255.387 465.024 255.396 463.274C255.405 461.546 255.744 460.076 256.411 458.862C257.079 457.628 258.002 456.693 259.178 456.058C260.355 455.401 261.733 455.076 263.312 455.082C264.357 455.086 265.369 455.272 266.349 455.638C267.328 455.984 268.125 456.488 268.741 457.152L267.738 459.196C267.122 458.596 266.442 458.156 265.697 457.876C264.952 457.574 264.216 457.422 263.491 457.419C261.912 457.412 260.672 457.92 259.771 458.94C258.87 459.939 258.414 461.398 258.404 463.318C258.393 465.26 258.833 466.755 259.724 467.804C260.614 468.853 261.849 469.38 263.428 469.387C264.131 469.389 264.858 469.254 265.606 468.979C266.354 468.705 267.049 468.27 267.693 467.676L268.674 469.696C268.03 470.376 267.206 470.895 266.202 471.254C265.218 471.591 264.226 471.758 263.223 471.754ZM272.219 471.502L272.344 447.95L275.256 447.962L275.178 462.522L275.242 462.522L282.544 455.447L286.16 455.462L277.475 463.875L277.515 462.499L286.843 471.561L283.131 471.546L275.234 464.026L275.17 464.026L275.131 471.514L272.219 471.502ZM295.92 471.885C293.36 471.875 291.337 471.131 289.852 469.653C288.388 468.175 287.662 466.145 287.676 463.564C287.685 461.857 288.013 460.387 288.659 459.152C289.327 457.896 290.239 456.929 291.395 456.251C292.551 455.551 293.897 455.205 295.432 455.211C296.904 455.217 298.151 455.542 299.171 456.186C300.192 456.809 300.966 457.697 301.493 458.851C302.02 460.005 302.28 461.372 302.271 462.95L302.266 463.91L289.946 463.861L289.956 462.133L300.292 462.174L299.745 462.588C299.754 460.924 299.388 459.632 298.646 458.712C297.925 457.792 296.851 457.329 295.421 457.323C293.864 457.317 292.656 457.856 291.797 458.94C290.938 460.004 290.503 461.463 290.493 463.319L290.492 463.607C290.481 465.57 290.954 467.054 291.908 468.061C292.884 469.067 294.236 469.574 295.964 469.581C296.924 469.585 297.821 469.45 298.654 469.176C299.488 468.902 300.29 468.447 301.062 467.81L302.011 469.829C301.282 470.488 300.373 470.996 299.283 471.354C298.214 471.713 297.093 471.89 295.92 471.885ZM312.014 471.95C310.329 471.943 309.051 471.479 308.181 470.558C307.333 469.616 306.914 468.206 306.924 466.329L306.969 457.785L303.833 457.773L303.845 455.533L306.981 455.545L307.004 451.225L309.92 450.437L309.893 455.557L314.437 455.575L314.425 457.815L309.881 457.797L309.837 466.085C309.831 467.322 310.039 468.208 310.463 468.743C310.908 469.257 311.547 469.516 312.379 469.519C312.806 469.521 313.168 469.49 313.467 469.427C313.788 469.343 314.076 469.248 314.333 469.143L314.32 471.543C314 471.67 313.626 471.764 313.199 471.826C312.793 471.91 312.398 471.951 312.014 471.95ZM326.163 471.718L326.283 449.159L328.587 449.168L342.632 467.912L341.864 467.909L341.963 449.222L344.747 449.233L344.627 471.792L342.355 471.783L328.31 453.039L329.046 453.042L328.947 471.729L326.163 471.718ZM350.101 471.814L350.22 449.255L364.492 449.312L364.479 451.744L353.183 451.699L353.143 459.25L363.703 459.293L363.69 461.725L353.13 461.682L353.076 471.826L350.101 471.814ZM373.696 471.909L373.802 451.877L365.994 451.846L366.008 449.318L384.664 449.393L384.65 451.921L376.81 451.889L376.704 471.921L373.696 471.909ZM401.985 472.31C400.577 472.305 399.342 471.969 398.278 471.304C397.215 470.638 396.388 469.675 395.798 468.414C395.207 467.153 394.916 465.658 394.925 463.93C394.935 462.202 395.241 460.721 395.845 459.486C396.449 458.229 397.286 457.273 398.356 456.616C399.427 455.959 400.666 455.633 402.074 455.639C403.482 455.644 404.706 456.001 405.748 456.709C406.811 457.418 407.52 458.391 407.877 459.63L407.493 459.628L407.552 448.493L410.464 448.504L410.339 472.056L407.459 472.044L407.478 468.3L407.83 468.302C407.482 469.559 406.773 470.548 405.703 471.269C404.654 471.969 403.414 472.316 401.985 472.31ZM402.669 470.009C404.12 470.015 405.285 469.508 406.165 468.487C407.067 467.467 407.523 465.965 407.533 463.981C407.544 461.997 407.104 460.502 406.213 459.495C405.344 458.489 404.184 457.983 402.733 457.977C401.283 457.972 400.107 458.468 399.205 459.467C398.325 460.466 397.88 461.958 397.869 463.942C397.859 465.926 398.288 467.432 399.157 468.459C400.048 469.487 401.219 470.003 402.669 470.009ZM415.185 472.075L415.25 459.916C415.253 459.276 415.236 458.625 415.196 457.963C415.179 457.281 415.129 456.619 415.047 455.979L417.863 455.99L418.194 460.023L417.713 460.053C417.932 459.073 418.299 458.264 418.814 457.626C419.351 456.967 419.983 456.489 420.71 456.193C421.458 455.876 422.227 455.72 423.016 455.723C423.358 455.724 423.646 455.736 423.88 455.758C424.115 455.78 424.349 455.835 424.583 455.921L424.506 458.513C424.186 458.383 423.888 458.308 423.611 458.285C423.355 458.241 423.035 458.219 422.651 458.217C421.713 458.213 420.901 458.424 420.216 458.847C419.552 459.271 419.037 459.835 418.671 460.537C418.326 461.24 418.151 461.997 418.147 462.807L418.097 472.087L415.185 472.075ZM433.625 472.437C432.046 472.431 430.683 472.095 429.534 471.429C428.386 470.742 427.495 469.778 426.861 468.538C426.228 467.277 425.916 465.782 425.925 464.054C425.934 462.348 426.262 460.877 426.909 459.642C427.555 458.386 428.456 457.43 429.612 456.773C430.768 456.095 432.135 455.759 433.713 455.766C435.292 455.772 436.656 456.119 437.804 456.806C438.974 457.472 439.865 458.436 440.477 459.697C441.11 460.937 441.422 462.41 441.413 464.117C441.404 465.845 441.076 467.337 440.429 468.593C439.804 469.827 438.903 470.784 437.726 471.462C436.571 472.119 435.203 472.444 433.625 472.437ZM433.637 470.133C435.088 470.139 436.253 469.632 437.133 468.611C438.013 467.591 438.459 466.089 438.469 464.105C438.48 462.121 438.05 460.626 437.181 459.62C436.312 458.613 435.152 458.107 433.701 458.102C432.229 458.096 431.053 458.592 430.173 459.591C429.314 460.591 428.88 462.082 428.869 464.066C428.859 466.05 429.277 467.556 430.125 468.583C430.994 469.611 432.165 470.127 433.637 470.133ZM445.243 479.108L445.345 459.908C445.348 459.29 445.33 458.66 445.291 458.02C445.252 457.38 445.191 456.74 445.109 456.099L447.925 456.111L448.258 459.824L447.906 459.823C448.232 458.587 448.92 457.619 449.969 456.919C451.018 456.198 452.268 455.84 453.719 455.846C455.148 455.852 456.394 456.187 457.457 456.853C458.521 457.518 459.337 458.482 459.906 459.743C460.497 460.982 460.788 462.466 460.778 464.194C460.769 465.922 460.463 467.414 459.859 468.671C459.276 469.927 458.45 470.884 457.379 471.541C456.309 472.198 455.059 472.523 453.63 472.518C452.201 472.512 450.965 472.155 449.924 471.447C448.904 470.717 448.215 469.744 447.859 468.526L448.211 468.528L448.155 479.12L445.243 479.108ZM452.97 470.211C454.442 470.217 455.618 469.71 456.499 468.689C457.379 467.669 457.824 466.166 457.834 464.182C457.845 462.198 457.416 460.703 456.546 459.697C455.677 458.691 454.506 458.185 453.034 458.179C451.562 458.173 450.386 458.67 449.506 459.669C448.648 460.668 448.213 462.16 448.203 464.144C448.192 466.128 448.611 467.633 449.459 468.661C450.328 469.688 451.498 470.205 452.97 470.211ZM82.9458 507.895C81.9004 507.891 80.9311 507.642 80.0377 507.147C79.1444 506.632 78.4334 505.936 77.9048 505.059C77.3761 504.182 77.1146 503.21 77.1202 502.144C77.1255 501.162 77.3757 500.235 77.871 499.363C78.3877 498.49 79.0847 497.789 79.9622 497.259C80.8612 496.708 81.876 496.435 83.0066 496.439C84.0519 496.443 85.0106 496.703 85.8825 497.219C86.7546 497.713 87.455 498.388 87.9838 499.243C88.5339 500.099 88.806 501.081 88.8001 502.19C88.7946 503.236 88.5228 504.195 87.9848 505.067C87.4682 505.94 86.7605 506.63 85.8618 507.139C84.9844 507.647 84.0124 507.899 82.9458 507.895ZM109.671 510.85L109.791 488.291L112.095 488.3L126.14 507.044L125.372 507.041L125.471 488.353L128.255 488.365L128.135 510.924L125.863 510.915L111.818 492.171L112.554 492.174L112.455 510.861L109.671 510.85ZM133.608 510.946L133.728 488.387L148 488.444L147.987 490.876L136.691 490.83L136.651 498.382L147.211 498.425L147.198 500.857L136.638 500.814L136.584 510.958L133.608 510.946ZM157.204 511.041L157.31 491.009L149.502 490.978L149.516 488.45L168.172 488.525L168.158 491.053L160.318 491.021L160.212 511.053L157.204 511.041ZM179.671 511.131L179.79 488.571L182.414 488.582L191.204 508.649L190.244 508.645L199.246 488.649L201.838 488.66L201.718 511.219L198.998 511.209L199.097 492.617L200.089 492.621L191.638 511.179L189.751 511.171L181.497 492.546L182.489 492.55L182.391 511.142L179.671 511.131ZM213.055 511.553C211.647 511.547 210.412 511.212 209.349 510.546C208.285 509.88 207.459 508.917 206.868 507.656C206.277 506.395 205.987 504.9 205.996 503.173C206.005 501.445 206.311 499.963 206.915 498.728C207.519 497.472 208.356 496.515 209.427 495.858C210.497 495.201 211.736 494.875 213.144 494.881C214.573 494.887 215.809 495.254 216.85 495.984C217.913 496.692 218.612 497.666 218.947 498.904L218.563 498.903L218.934 495.192L221.75 495.204C221.683 495.843 221.615 496.483 221.548 497.123C221.502 497.763 221.477 498.392 221.474 499.011L221.409 511.298L218.497 511.287L218.516 507.607L218.868 507.608C218.521 508.823 217.811 509.791 216.741 510.512C215.692 511.211 214.463 511.559 213.055 511.553ZM213.74 509.252C215.19 509.257 216.356 508.75 217.236 507.73C218.116 506.709 218.561 505.207 218.572 503.223C218.582 501.239 218.153 499.744 217.283 498.738C216.414 497.732 215.254 497.226 213.803 497.22C212.353 497.214 211.177 497.711 210.275 498.71C209.396 499.709 208.95 501.2 208.94 503.184C208.929 505.168 209.359 506.674 210.228 507.702C211.097 508.729 212.268 509.246 213.74 509.252ZM226.288 511.318L226.373 495.222L229.285 495.234L229.2 511.33L226.288 511.318ZM226.136 491.701L226.153 488.565L229.609 488.579L229.592 491.715L226.136 491.701ZM234.069 511.349L234.134 499.061C234.137 498.443 234.119 497.813 234.08 497.173C234.041 496.533 233.98 495.893 233.898 495.252L236.714 495.264L237.016 498.721L236.632 498.719C237.129 497.505 237.891 496.58 238.919 495.945C239.946 495.309 241.143 494.993 242.508 494.999C244.407 495.007 245.833 495.535 246.788 496.584C247.742 497.612 248.214 499.214 248.202 501.39L248.149 511.406L245.237 511.394L245.289 501.538C245.297 500.066 245.015 499.009 244.442 498.367C243.87 497.703 242.975 497.369 241.759 497.364C240.309 497.358 239.154 497.791 238.296 498.662C237.46 499.533 237.037 500.716 237.03 502.209L236.981 511.361L234.069 511.349ZM252.913 511.425L252.978 499.137C252.981 498.518 252.963 497.889 252.924 497.249C252.885 496.609 252.824 495.968 252.742 495.328L255.558 495.339L255.86 498.796L255.476 498.795C255.973 497.581 256.735 496.656 257.762 496.02C258.79 495.384 259.986 495.069 261.351 495.075C263.25 495.082 264.677 495.611 265.631 496.66C266.586 497.688 267.057 499.289 267.046 501.465L266.992 511.481L264.08 511.47L264.133 501.614C264.141 500.142 263.858 499.085 263.286 498.442C262.713 497.779 261.819 497.444 260.603 497.44C259.152 497.434 257.998 497.866 257.14 498.738C256.303 499.609 255.881 500.791 255.873 502.285L255.824 511.436L252.913 511.425ZM279.083 511.818C276.523 511.807 274.5 511.063 273.014 509.585C271.55 508.108 270.825 506.078 270.839 503.497C270.848 501.79 271.176 500.319 271.822 499.085C272.49 497.829 273.402 496.862 274.558 496.183C275.713 495.484 277.059 495.138 278.595 495.144C280.067 495.15 281.313 495.475 282.334 496.119C283.355 496.741 284.129 497.63 284.656 498.784C285.183 499.938 285.442 501.305 285.434 502.883L285.429 503.843L273.109 503.794L273.118 502.066L283.454 502.107L282.908 502.521C282.917 500.857 282.55 499.565 281.809 498.645C281.088 497.724 280.013 497.261 278.584 497.256C277.027 497.249 275.818 497.789 274.959 498.873C274.1 499.936 273.666 501.396 273.656 503.252L273.654 503.54C273.644 505.503 274.116 506.987 275.071 507.994C276.047 509 277.399 509.507 279.127 509.514C280.087 509.518 280.983 509.383 281.817 509.109C282.65 508.835 283.453 508.379 284.224 507.742L285.174 509.762C284.445 510.421 283.535 510.929 282.445 511.287C281.377 511.646 280.256 511.822 279.083 511.818ZM295.177 511.882C293.491 511.876 292.214 511.412 291.344 510.491C290.496 509.549 290.076 508.139 290.086 506.262L290.132 497.718L286.996 497.705L287.008 495.465L290.144 495.478L290.167 491.158L293.083 490.37L293.056 495.49L297.6 495.508L297.588 497.748L293.044 497.73L293 506.018C292.993 507.255 293.202 508.141 293.626 508.676C294.071 509.19 294.71 509.448 295.542 509.452C295.968 509.453 296.331 509.423 296.63 509.36C296.951 509.276 297.239 509.181 297.496 509.076L297.483 511.476C297.162 511.602 296.788 511.697 296.361 511.759C295.956 511.843 295.561 511.884 295.177 511.882ZM315.148 511.962C313.74 511.957 312.505 511.621 311.442 510.956C310.378 510.29 309.551 509.327 308.961 508.066C308.37 506.805 308.079 505.31 308.089 503.582C308.098 501.854 308.404 500.373 309.008 499.138C309.612 497.881 310.449 496.925 311.52 496.268C312.59 495.611 313.829 495.285 315.237 495.291C316.666 495.296 317.902 495.664 318.943 496.394C320.006 497.102 320.705 498.075 321.04 499.314L320.656 499.312L321.027 495.602L323.843 495.613C323.776 496.253 323.708 496.893 323.641 497.532C323.595 498.172 323.57 498.801 323.567 499.42L323.502 511.708L320.59 511.696L320.609 508.016L320.961 508.018C320.613 509.232 319.904 510.2 318.834 510.921C317.785 511.621 316.556 511.968 315.148 511.962ZM315.832 509.661C317.283 509.667 318.448 509.16 319.329 508.139C320.209 507.119 320.654 505.616 320.665 503.632C320.675 501.649 320.246 500.153 319.376 499.147C318.507 498.141 317.347 497.635 315.896 497.629C314.446 497.623 313.27 498.12 312.368 499.119C311.488 500.118 311.043 501.61 311.033 503.594C311.022 505.578 311.451 507.084 312.321 508.111C313.19 509.139 314.36 509.655 315.832 509.661ZM328.381 511.727L328.446 499.44C328.449 498.821 328.431 498.192 328.392 497.551C328.353 496.911 328.292 496.271 328.21 495.631L331.026 495.642L331.328 499.099L330.944 499.098C331.441 497.884 332.203 496.959 333.231 496.323C334.258 495.687 335.454 495.372 336.82 495.377C338.718 495.385 340.145 495.913 341.099 496.962C342.054 497.99 342.525 499.592 342.514 501.768L342.461 511.784L339.549 511.772L339.601 501.916C339.609 500.444 339.326 499.387 338.754 498.745C338.181 498.081 337.287 497.747 336.071 497.742C334.62 497.736 333.466 498.169 332.608 499.04C331.771 499.912 331.349 501.094 331.341 502.587L331.293 511.739L328.381 511.727ZM353.367 512.116C351.959 512.11 350.723 511.774 349.66 511.109C348.597 510.443 347.77 509.48 347.179 508.219C346.589 506.958 346.298 505.463 346.307 503.735C346.316 502.007 346.623 500.526 347.227 499.291C347.831 498.035 348.668 497.078 349.738 496.421C350.808 495.764 352.047 495.438 353.455 495.444C354.885 495.45 356.12 495.817 357.161 496.547C358.224 497.255 358.923 498.229 359.258 499.467L358.874 499.466L359.246 495.755L362.062 495.766C361.994 496.406 361.927 497.046 361.859 497.686C361.813 498.326 361.789 498.955 361.785 499.573L361.72 511.861L358.808 511.85L358.828 508.17L359.18 508.171C358.832 509.386 358.123 510.353 357.052 511.074C356.003 511.774 354.775 512.121 353.367 512.116ZM354.051 509.814C355.502 509.82 356.667 509.313 357.547 508.292C358.427 507.272 358.872 505.77 358.883 503.786C358.894 501.802 358.464 500.307 357.595 499.301C356.725 498.294 355.565 497.788 354.115 497.783C352.664 497.777 351.488 498.273 350.587 499.272C349.707 500.272 349.262 501.763 349.251 503.747C349.241 505.731 349.67 507.237 350.539 508.264C351.408 509.292 352.579 509.809 354.051 509.814ZM366.599 511.881L366.724 488.329L369.636 488.341L369.511 511.892L366.599 511.881ZM373.798 519.174L373.138 516.803C374.142 516.572 374.976 516.298 375.639 515.981C376.302 515.685 376.858 515.293 377.309 514.804C377.76 514.315 378.158 513.698 378.503 512.953L379.313 511.036L379.243 512.252L372.322 495.808L375.458 495.82L380.984 509.634L380.152 509.631L385.826 495.862L388.834 495.874L381.35 513.188C380.896 514.231 380.401 515.104 379.864 515.806C379.348 516.508 378.78 517.082 378.158 517.527C377.559 517.973 376.896 518.322 376.169 518.575C375.442 518.828 374.652 519.028 373.798 519.174ZM397.801 512.294C396.115 512.287 394.838 511.823 393.968 510.903C393.12 509.96 392.701 508.551 392.711 506.673L392.756 498.13L389.62 498.117L389.632 495.877L392.768 495.89L392.791 491.57L395.707 490.781L395.68 495.901L400.224 495.92L400.212 498.16L395.668 498.141L395.624 506.429C395.617 507.666 395.826 508.553 396.25 509.088C396.695 509.602 397.334 509.86 398.166 509.863C398.592 509.865 398.955 509.835 399.254 509.772C399.575 509.688 399.863 509.593 400.12 509.487L400.107 511.887C399.786 512.014 399.412 512.108 398.985 512.171C398.58 512.254 398.185 512.295 397.801 512.294ZM403.193 512.028L403.278 495.932L406.19 495.943L406.105 512.039L403.193 512.028ZM403.041 492.411L403.057 489.275L406.513 489.289L406.497 492.425L403.041 492.411ZM417.884 512.375C416.284 512.368 414.899 512.032 413.729 511.366C412.56 510.678 411.648 509.704 410.993 508.443C410.36 507.16 410.048 505.644 410.057 503.895C410.066 502.167 410.405 500.696 411.073 499.483C411.74 498.248 412.663 497.313 413.839 496.678C415.016 496.022 416.394 495.696 417.973 495.703C419.018 495.707 420.03 495.892 421.01 496.259C421.989 496.604 422.787 497.109 423.402 497.773L422.399 499.817C421.783 499.217 421.103 498.777 420.358 498.496C419.613 498.195 418.878 498.042 418.152 498.039C416.574 498.033 415.334 498.54 414.432 499.561C413.531 500.56 413.075 502.019 413.065 503.939C413.055 505.88 413.495 507.376 414.385 508.424C415.276 509.473 416.51 510.001 418.089 510.007C418.793 510.01 419.519 509.874 420.267 509.6C421.015 509.326 421.711 508.891 422.354 508.296L423.335 510.316C422.692 510.996 421.867 511.516 420.863 511.874C419.88 512.212 418.887 512.379 417.884 512.375ZM432.318 512.432C431.017 512.427 429.802 512.252 428.673 511.906C427.566 511.56 426.651 511.066 425.929 510.423L426.868 508.411C427.654 509.011 428.515 509.473 429.452 509.797C430.411 510.099 431.391 510.253 432.394 510.257C433.61 510.262 434.528 510.041 435.149 509.596C435.792 509.15 436.115 508.554 436.119 507.808C436.122 507.21 435.922 506.729 435.519 506.365C435.115 506.001 434.477 505.732 433.603 505.558L430.566 504.937C429.202 504.612 428.171 504.096 427.47 503.389C426.791 502.661 426.455 501.731 426.461 500.601C426.466 499.662 426.726 498.831 427.242 498.108C427.758 497.363 428.487 496.79 429.427 496.389C430.39 495.966 431.511 495.757 432.791 495.762C433.964 495.767 435.051 495.942 436.052 496.287C437.074 496.633 437.914 497.137 438.572 497.801L437.602 499.75C436.943 499.171 436.199 498.731 435.369 498.429C434.56 498.105 433.729 497.942 432.875 497.939C431.638 497.934 430.719 498.175 430.119 498.663C429.52 499.13 429.218 499.748 429.214 500.516C429.21 501.092 429.389 501.573 429.75 501.958C430.111 502.322 430.696 502.602 431.505 502.797L434.542 503.417C435.97 503.722 437.045 504.217 437.766 504.902C438.488 505.588 438.846 506.496 438.84 507.627C438.835 508.629 438.553 509.492 437.994 510.215C437.457 510.938 436.697 511.49 435.713 511.87C434.751 512.25 433.62 512.438 432.318 512.432ZM82.7332 547.894C81.6879 547.89 80.7185 547.641 79.8252 547.147C78.9319 546.631 78.2209 545.935 77.6922 545.058C77.1635 544.181 76.902 543.21 76.9077 542.143C76.9129 541.162 77.1632 540.235 77.6585 539.362C78.1751 538.489 78.8722 537.788 79.7497 537.258C80.6486 536.707 81.6634 536.434 82.7941 536.439C83.8394 536.443 84.7981 536.703 85.67 537.218C86.542 537.712 87.2425 538.387 87.7713 539.243C88.3214 540.098 88.5935 541.081 88.5876 542.19C88.5821 543.235 88.3103 544.194 87.7723 545.067C87.2557 545.939 86.548 546.63 85.6493 547.138C84.7719 547.647 83.7999 547.899 82.7332 547.894ZM109.459 550.85L109.578 528.29L111.882 528.299L125.927 547.044L125.159 547.041L125.258 528.353L128.042 528.364L127.922 550.924L125.65 550.915L111.606 532.17L112.342 532.173L112.243 550.861L109.459 550.85ZM133.396 550.946L133.516 528.386L147.788 528.443L147.775 530.875L136.479 530.83L136.439 538.382L146.999 538.424L146.986 540.856L136.426 540.814L136.372 550.958L133.396 550.946ZM156.991 551.04L157.098 531.009L149.29 530.977L149.303 528.449L167.959 528.524L167.946 531.052L160.106 531.021L159.999 551.052L156.991 551.04ZM179.458 551.13L179.578 528.571L181.882 528.58L195.927 547.324L195.159 547.321L195.258 528.634L198.042 528.645L197.922 551.204L195.65 551.195L181.605 532.451L182.341 532.454L182.242 551.142L179.458 551.13ZM209.218 551.538C207.81 551.532 206.574 551.197 205.511 550.531C204.448 549.865 203.621 548.902 203.03 547.641C202.44 546.38 202.149 544.885 202.158 543.157C202.167 541.429 202.474 539.948 203.078 538.713C203.682 537.457 204.519 536.5 205.589 535.843C206.659 535.186 207.898 534.86 209.306 534.866C210.736 534.872 211.971 535.239 213.013 535.969C214.075 536.677 214.774 537.651 215.109 538.889L214.725 538.888L215.097 535.177L217.913 535.189C217.845 535.828 217.778 536.468 217.711 537.108C217.665 537.748 217.64 538.377 217.637 538.995L217.571 551.283L214.659 551.272L214.679 547.592L215.031 547.593C214.683 548.808 213.974 549.776 212.903 550.497C211.854 551.196 210.626 551.543 209.218 551.538ZM209.902 549.237C211.353 549.242 212.518 548.735 213.398 547.715C214.278 546.694 214.724 545.192 214.734 543.208C214.745 541.224 214.315 539.729 213.446 538.723C212.577 537.716 211.417 537.211 209.966 537.205C208.515 537.199 207.339 537.695 206.438 538.695C205.558 539.694 205.113 541.185 205.102 543.169C205.092 545.153 205.521 546.659 206.39 547.686C207.259 548.714 208.43 549.231 209.902 549.237ZM228.465 551.615C226.779 551.608 225.502 551.144 224.632 550.224C223.784 549.282 223.364 547.872 223.374 545.995L223.42 537.451L220.284 537.438L220.296 535.198L223.432 535.211L223.455 530.891L226.371 530.102L226.344 535.222L230.888 535.241L230.876 537.481L226.332 537.462L226.288 545.75C226.281 546.988 226.49 547.874 226.914 548.409C227.359 548.923 227.998 549.181 228.83 549.184C229.256 549.186 229.619 549.156 229.918 549.093C230.239 549.009 230.527 548.914 230.784 548.808L230.771 551.208C230.45 551.335 230.076 551.429 229.649 551.492C229.244 551.575 228.849 551.617 228.465 551.615ZM233.856 551.349L233.942 535.253L236.854 535.265L236.768 551.36L233.856 551.349ZM233.705 531.732L233.721 528.596L237.177 528.61L237.161 531.746L233.705 531.732ZM246.374 551.399L239.579 535.275L242.715 535.288L248.242 549.134L247.346 549.131L253.115 535.33L256.091 535.342L249.094 551.41L246.374 551.399ZM265.808 551.765C263.248 551.755 261.225 551.01 259.739 549.532C258.275 548.055 257.55 546.025 257.564 543.444C257.573 541.737 257.901 540.266 258.547 539.032C259.215 537.776 260.127 536.809 261.283 536.131C262.438 535.431 263.784 535.085 265.32 535.091C266.792 535.097 268.038 535.422 269.059 536.066C270.08 536.688 270.854 537.577 271.381 538.731C271.908 539.885 272.168 541.252 272.159 542.83L272.154 543.79L259.834 543.741L259.843 542.013L270.179 542.054L269.633 542.468C269.642 540.804 269.275 539.512 268.534 538.592C267.813 537.671 266.738 537.208 265.309 537.203C263.752 537.196 262.543 537.736 261.684 538.82C260.825 539.883 260.391 541.343 260.381 543.199L260.38 543.487C260.369 545.45 260.841 546.934 261.796 547.941C262.772 548.947 264.124 549.454 265.852 549.461C266.812 549.465 267.709 549.33 268.542 549.056C269.375 548.782 270.178 548.326 270.949 547.689L271.899 549.709C271.17 550.368 270.26 550.876 269.17 551.234C268.102 551.593 266.981 551.769 265.808 551.765ZM292.13 551.87C290.317 551.863 288.686 551.622 287.238 551.147C285.79 550.672 284.535 550.005 283.473 549.148L284.509 546.784C285.253 547.341 286.008 547.814 286.774 548.201C287.54 548.567 288.36 548.847 289.233 549.043C290.128 549.217 291.099 549.306 292.144 549.31C294 549.318 295.367 548.993 296.245 548.335C297.145 547.656 297.598 546.762 297.603 545.652C297.609 544.692 297.303 543.955 296.687 543.441C296.071 542.926 294.996 542.516 293.462 542.212L290.041 541.494C287.974 541.059 286.431 540.359 285.413 539.395C284.415 538.41 283.921 537.085 283.93 535.421C283.937 534.077 284.295 532.905 285.004 531.906C285.735 530.885 286.731 530.099 287.993 529.55C289.276 529 290.771 528.729 292.477 528.736C294.056 528.742 295.516 528.982 296.858 529.457C298.199 529.932 299.326 530.63 300.238 531.551L299.202 533.819C298.247 532.94 297.216 532.307 296.108 531.918C295.023 531.508 293.786 531.301 292.4 531.295C290.714 531.289 289.379 531.646 288.394 532.367C287.409 533.089 286.913 534.068 286.906 535.305C286.901 536.287 287.206 537.067 287.822 537.645C288.438 538.202 289.459 538.633 290.887 538.937L294.307 539.623C296.481 540.058 298.067 540.737 299.065 541.658C300.084 542.58 300.589 543.851 300.58 545.472C300.574 546.752 300.226 547.881 299.538 548.86C298.851 549.817 297.876 550.56 296.615 551.088C295.353 551.617 293.858 551.877 292.13 551.87ZM304.413 558.544L304.515 539.344C304.518 538.725 304.5 538.096 304.461 537.456C304.422 536.816 304.361 536.175 304.279 535.535L307.095 535.546L307.427 539.26L307.075 539.258C307.402 538.022 308.09 537.054 309.139 536.354C310.188 535.633 311.438 535.276 312.889 535.282C314.318 535.287 315.564 535.623 316.627 536.289C317.69 536.954 318.507 537.917 319.076 539.178C319.667 540.418 319.957 541.902 319.948 543.63C319.939 545.358 319.633 546.85 319.028 548.106C318.446 549.363 317.619 550.319 316.549 550.976C315.479 551.633 314.229 551.959 312.8 551.953C311.371 551.948 310.135 551.591 309.094 550.882C308.073 550.153 307.385 549.18 307.029 547.962L307.381 547.964L307.325 558.555L304.413 558.544ZM312.14 549.647C313.612 549.653 314.788 549.145 315.668 548.125C316.548 547.104 316.994 545.602 317.004 543.618C317.015 541.634 316.585 540.139 315.716 539.133C314.847 538.127 313.676 537.621 312.204 537.615C310.732 537.609 309.556 538.106 308.676 539.105C307.818 540.104 307.383 541.595 307.372 543.579C307.362 545.563 307.781 547.069 308.628 548.097C309.498 549.124 310.668 549.641 312.14 549.647ZM330.607 552.025C329.028 552.018 327.665 551.682 326.516 551.016C325.368 550.329 324.477 549.365 323.843 548.126C323.21 546.864 322.898 545.37 322.907 543.642C322.916 541.935 323.244 540.464 323.891 539.23C324.537 537.974 325.438 537.017 326.594 536.361C327.75 535.682 329.117 535.347 330.695 535.353C332.274 535.359 333.638 535.706 334.786 536.393C335.956 537.059 336.847 538.023 337.459 539.284C338.092 540.524 338.404 541.997 338.395 543.704C338.386 545.432 338.058 546.924 337.411 548.18C336.786 549.415 335.885 550.371 334.708 551.049C333.553 551.706 332.185 552.031 330.607 552.025ZM330.619 549.721C332.07 549.727 333.235 549.219 334.115 548.199C334.995 547.178 335.441 545.676 335.451 543.692C335.462 541.708 335.032 540.213 334.163 539.207C333.294 538.201 332.134 537.695 330.683 537.689C329.211 537.683 328.035 538.18 327.155 539.179C326.296 540.178 325.862 541.67 325.851 543.654C325.841 545.638 326.259 547.143 327.107 548.171C327.976 549.198 329.147 549.715 330.619 549.721ZM342.23 551.783L342.294 539.624C342.298 538.984 342.28 538.333 342.241 537.671C342.223 536.989 342.173 536.327 342.091 535.687L344.907 535.698L345.238 539.731L344.758 539.761C344.976 538.781 345.343 537.972 345.859 537.334C346.395 536.675 347.027 536.197 347.754 535.901C348.503 535.584 349.271 535.427 350.061 535.431C350.402 535.432 350.69 535.444 350.925 535.466C351.159 535.488 351.394 535.543 351.628 535.629L351.55 538.221C351.231 538.091 350.932 538.015 350.655 537.993C350.399 537.949 350.079 537.927 349.695 537.925C348.757 537.921 347.945 538.131 347.26 538.555C346.597 538.979 346.082 539.543 345.715 540.245C345.37 540.948 345.195 541.704 345.191 542.515L345.142 551.795L342.23 551.783ZM360.995 552.147C359.31 552.14 358.032 551.676 357.162 550.755C356.314 549.813 355.895 548.403 355.905 546.526L355.95 537.982L352.814 537.97L352.826 535.73L355.962 535.742L355.985 531.422L358.901 530.634L358.874 535.754L363.418 535.772L363.406 538.012L358.862 537.994L358.818 546.282C358.811 547.519 359.02 548.405 359.444 548.94C359.889 549.454 360.528 549.713 361.36 549.716C361.786 549.718 362.149 549.687 362.448 549.624C362.769 549.54 363.057 549.446 363.314 549.34L363.301 551.74C362.98 551.867 362.606 551.961 362.179 552.023C361.774 552.107 361.379 552.148 360.995 552.147ZM371.825 552.19C370.524 552.185 369.309 552.009 368.18 551.663C367.072 551.318 366.158 550.823 365.436 550.18L366.374 548.168C367.16 548.769 368.022 549.231 368.959 549.555C369.917 549.857 370.898 550.01 371.901 550.014C373.117 550.019 374.035 549.799 374.656 549.353C375.298 548.908 375.622 548.312 375.626 547.565C375.629 546.968 375.429 546.487 375.025 546.123C374.622 545.759 373.983 545.489 373.11 545.315L370.073 544.695C368.709 544.369 367.677 543.853 366.977 543.147C366.298 542.418 365.962 541.489 365.968 540.358C365.973 539.42 366.233 538.589 366.749 537.866C367.265 537.121 367.993 536.548 368.934 536.146C369.896 535.724 371.018 535.515 372.298 535.52C373.471 535.525 374.558 535.7 375.559 536.045C376.581 536.39 377.421 536.895 378.079 537.559L377.108 539.507C376.45 538.929 375.706 538.488 374.875 538.186C374.066 537.863 373.235 537.7 372.382 537.696C371.145 537.691 370.226 537.933 369.626 538.421C369.026 538.888 368.724 539.506 368.72 540.274C368.717 540.85 368.896 541.33 369.257 541.716C369.617 542.08 370.203 542.359 371.012 542.555L374.049 543.175C375.477 543.479 376.551 543.974 377.273 544.66C377.995 545.345 378.353 546.254 378.347 547.384C378.341 548.387 378.059 549.25 377.501 549.973C376.964 550.696 376.203 551.248 375.22 551.628C374.258 552.008 373.126 552.195 371.825 552.19ZM396.873 552.291C395.465 552.285 394.229 551.949 393.166 551.284C392.103 550.618 391.276 549.655 390.685 548.394C390.095 547.133 389.804 545.638 389.813 543.91C389.822 542.182 390.129 540.701 390.733 539.466C391.337 538.21 392.174 537.253 393.244 536.596C394.314 535.939 395.553 535.613 396.961 535.619C398.39 535.624 399.626 535.992 400.667 536.722C401.73 537.43 402.429 538.403 402.764 539.642L402.38 539.641L402.752 535.93L405.568 535.941C405.5 536.581 405.433 537.221 405.365 537.86C405.319 538.5 405.295 539.13 405.291 539.748L405.226 552.036L402.314 552.024L402.334 548.344L402.686 548.346C402.338 549.56 401.629 550.528 400.558 551.249C399.509 551.949 398.281 552.296 396.873 552.291ZM397.557 549.989C399.007 549.995 400.173 549.488 401.053 548.467C401.933 547.447 402.378 545.945 402.389 543.961C402.399 541.977 401.97 540.482 401.101 539.475C400.231 538.469 399.071 537.963 397.621 537.957C396.17 537.952 394.994 538.448 394.093 539.447C393.213 540.446 392.767 541.938 392.757 543.922C392.746 545.906 393.176 547.412 394.045 548.439C394.914 549.467 396.085 549.983 397.557 549.989ZM410.105 552.056L410.17 539.768C410.174 539.149 410.156 538.52 410.116 537.88C410.077 537.239 410.016 536.599 409.934 535.959L412.75 535.97L413.052 539.427L412.668 539.426C413.165 538.212 413.927 537.287 414.955 536.651C415.982 536.015 417.179 535.7 418.544 535.705C420.443 535.713 421.869 536.241 422.824 537.291C423.778 538.318 424.25 539.92 424.238 542.096L424.185 552.112L421.273 552.1L421.325 542.245C421.333 540.773 421.051 539.715 420.478 539.073C419.906 538.409 419.011 538.075 417.795 538.07C416.345 538.065 415.19 538.497 414.332 539.368C413.496 540.24 413.073 541.422 413.066 542.915L413.017 552.067L410.105 552.056ZM435.091 552.444C433.683 552.438 432.447 552.103 431.384 551.437C430.321 550.771 429.494 549.808 428.904 548.547C428.313 547.286 428.022 545.791 428.031 544.063C428.041 542.335 428.347 540.854 428.951 539.619C429.555 538.363 430.392 537.406 431.462 536.749C432.532 536.092 433.772 535.766 435.18 535.772C436.609 535.778 437.844 536.145 438.886 536.875C439.949 537.583 440.648 538.557 440.982 539.795L440.598 539.794L440.97 536.083L443.786 536.095C443.719 536.734 443.651 537.374 443.584 538.014C443.538 538.654 443.513 539.283 443.51 539.902L443.444 552.189L440.532 552.178L440.552 548.498L440.904 548.499C440.556 549.714 439.847 550.682 438.777 551.403C437.727 552.102 436.499 552.449 435.091 552.444ZM435.775 550.143C437.226 550.148 438.391 549.641 439.271 548.621C440.151 547.6 440.597 546.098 440.607 544.114C440.618 542.13 440.188 540.635 439.319 539.629C438.45 538.623 437.29 538.117 435.839 538.111C434.388 538.105 433.213 538.602 432.311 539.601C431.431 540.6 430.986 542.091 430.975 544.075C430.965 546.059 431.394 547.565 432.263 548.592C433.133 549.62 434.303 550.137 435.775 550.143ZM448.323 552.209L448.449 528.657L451.361 528.669L451.235 552.221L448.323 552.209ZM455.522 559.502L454.863 557.131C455.866 556.901 456.7 556.627 457.363 556.309C458.026 556.013 458.583 555.621 459.033 555.132C459.484 554.643 459.882 554.026 460.227 553.281L461.037 551.364L460.967 552.58L454.046 536.136L457.182 536.148L462.709 549.963L461.877 549.959L467.55 536.19L470.558 536.202L463.074 553.516C462.62 554.56 462.125 555.432 461.588 556.134C461.072 556.836 460.504 557.41 459.883 557.855C459.283 558.301 458.62 558.65 457.893 558.903C457.167 559.156 456.376 559.356 455.522 559.502ZM479.525 552.622C477.84 552.615 476.562 552.152 475.692 551.231C474.844 550.289 474.425 548.879 474.435 547.002L474.48 538.458L471.344 538.445L471.356 536.205L474.492 536.218L474.515 531.898L477.431 531.11L477.404 536.229L481.948 536.248L481.936 538.488L477.392 538.469L477.348 546.757C477.342 547.995 477.55 548.881 477.974 549.416C478.419 549.93 479.058 550.188 479.89 550.192C480.317 550.193 480.68 550.163 480.979 550.1C481.299 550.016 481.588 549.921 481.844 549.815L481.831 552.215C481.511 552.342 481.137 552.437 480.71 552.499C480.304 552.583 479.909 552.624 479.525 552.622ZM484.917 552.356L485.002 536.26L487.914 536.272L487.829 552.367L484.917 552.356ZM484.765 532.739L484.782 529.603L488.238 529.617L488.221 532.753L484.765 532.739ZM499.608 552.703C498.008 552.696 496.624 552.36 495.454 551.694C494.284 551.007 493.372 550.032 492.717 548.771C492.084 547.488 491.772 545.972 491.781 544.223C491.791 542.495 492.129 541.025 492.797 539.811C493.465 538.577 494.387 537.642 495.564 537.006C496.741 536.35 498.118 536.025 499.697 536.031C500.742 536.035 501.755 536.22 502.734 536.587C503.714 536.932 504.511 537.437 505.126 538.101L504.123 540.145C503.508 539.545 502.827 539.105 502.082 538.824C501.337 538.523 500.602 538.371 499.877 538.368C498.298 538.361 497.058 538.868 496.156 539.889C495.255 540.888 494.799 542.347 494.789 544.267C494.779 546.209 495.219 547.704 496.109 548.753C497 549.801 498.234 550.329 499.813 550.335C500.517 550.338 501.243 550.202 501.991 549.928C502.739 549.654 503.435 549.219 504.078 548.625L505.059 550.644C504.416 551.325 503.592 551.844 502.587 552.203C501.604 552.54 500.611 552.707 499.608 552.703ZM514.043 552.761C512.741 552.755 511.526 552.58 510.397 552.234C509.29 551.888 508.375 551.394 507.653 550.751L508.592 548.739C509.378 549.339 510.24 549.801 511.177 550.125C512.135 550.428 513.115 550.581 514.118 550.585C515.334 550.59 516.253 550.369 516.874 549.924C517.516 549.478 517.839 548.882 517.843 548.136C517.846 547.538 517.646 547.058 517.243 546.693C516.839 546.329 516.201 546.06 515.327 545.886L512.29 545.265C510.927 544.94 509.895 544.424 509.195 543.717C508.516 542.989 508.179 542.06 508.185 540.929C508.19 539.99 508.451 539.159 508.967 538.436C509.483 537.691 510.211 537.118 511.152 536.717C512.114 536.294 513.235 536.085 514.515 536.09C515.688 536.095 516.776 536.27 517.776 536.615C518.799 536.961 519.639 537.466 520.296 538.13L519.326 540.078C518.668 539.499 517.923 539.059 517.093 538.757C516.284 538.433 515.453 538.27 514.6 538.267C513.362 538.262 512.444 538.503 511.844 538.992C511.244 539.459 510.942 540.076 510.938 540.844C510.935 541.42 511.114 541.901 511.474 542.286C511.835 542.65 512.42 542.93 513.23 543.125L516.267 543.745C517.694 544.05 518.769 544.545 519.491 545.23C520.212 545.916 520.57 546.824 520.564 547.955C520.559 548.957 520.277 549.82 519.718 550.543C519.181 551.266 518.421 551.818 517.438 552.198C516.476 552.578 515.344 552.766 514.043 552.761ZM82.5207 587.894C81.4754 587.89 80.506 587.64 79.6126 587.146C78.7194 586.631 78.0084 585.934 77.4797 585.058C76.951 584.181 76.6895 583.209 76.6952 582.142C76.7004 581.161 76.9507 580.234 77.446 579.361C77.9626 578.489 78.6597 577.788 79.5372 577.258C80.4361 576.707 81.4509 576.433 82.5816 576.438C83.6269 576.442 84.5855 576.702 85.4575 577.218C86.3295 577.712 87.0299 578.387 87.5587 579.242C88.1089 580.098 88.381 581.08 88.3751 582.189C88.3695 583.235 88.0978 584.194 87.5598 585.066C87.0431 585.939 86.3355 586.629 85.4368 587.138C84.5594 587.646 83.5874 587.898 82.5207 587.894ZM115.422 590.874L107.638 568.282L110.774 568.295L117.356 588.226L116.204 588.221L123.414 568.346L125.75 568.355L132.3 588.286L131.276 588.281L138.294 568.405L141.238 568.417L133.15 590.945L130.558 590.935L124.163 571.869L124.835 571.871L117.982 590.884L115.422 590.874ZM144.582 590.991L144.707 567.439L147.619 567.451L147.561 578.395L147.145 578.393C147.621 577.158 148.383 576.222 149.432 575.586C150.481 574.95 151.688 574.635 153.053 574.641C154.994 574.648 156.421 575.177 157.333 576.226C158.266 577.275 158.727 578.855 158.716 580.967L158.662 591.047L155.75 591.036L155.803 581.116C155.81 579.686 155.538 578.651 154.987 578.008C154.436 577.345 153.531 577.011 152.272 577.006C150.864 577 149.721 577.433 148.842 578.304C147.984 579.175 147.551 580.336 147.543 581.787L147.494 591.002L144.582 590.991ZM163.426 591.066L163.511 574.971L166.423 574.982L166.338 591.078L163.426 591.066ZM163.274 571.45L163.291 568.314L166.747 568.328L166.73 571.464L163.274 571.45ZM177.221 591.41C175.536 591.403 174.258 590.939 173.389 590.018C172.54 589.076 172.121 587.667 172.131 585.789L172.176 577.245L169.04 577.233L169.052 574.993L172.188 575.005L172.211 570.685L175.128 569.897L175.1 575.017L179.644 575.035L179.632 577.275L175.088 577.257L175.044 585.545C175.038 586.782 175.246 587.668 175.67 588.203C176.116 588.717 176.754 588.976 177.586 588.979C178.013 588.981 178.376 588.95 178.675 588.888C178.995 588.803 179.284 588.709 179.54 588.603L179.527 591.003C179.207 591.13 178.833 591.224 178.406 591.286C178 591.37 177.605 591.411 177.221 591.41ZM189.783 591.46C187.223 591.45 185.2 590.706 183.715 589.228C182.251 587.75 181.526 585.72 181.539 583.139C181.548 581.432 181.876 579.962 182.523 578.727C183.191 577.471 184.103 576.504 185.258 575.826C186.414 575.126 187.76 574.78 189.296 574.786C190.768 574.792 192.014 575.117 193.035 575.761C194.055 576.384 194.829 577.272 195.356 578.426C195.884 579.581 196.143 580.947 196.135 582.526L196.13 583.486L183.81 583.436L183.819 581.708L194.155 581.75L193.609 582.163C193.617 580.499 193.251 579.207 192.509 578.287C191.789 577.367 190.714 576.904 189.285 576.898C187.727 576.892 186.519 577.431 185.66 578.515C184.801 579.579 184.366 581.038 184.357 582.894L184.355 583.182C184.345 585.145 184.817 586.629 185.771 587.636C186.747 588.643 188.099 589.149 189.827 589.156C190.787 589.16 191.684 589.025 192.518 588.751C193.351 588.477 194.153 588.022 194.925 587.385L195.874 589.405C195.145 590.063 194.236 590.571 193.146 590.93C192.077 591.288 190.956 591.465 189.783 591.46ZM199.857 598.125L199.959 578.925C199.963 578.306 199.945 577.677 199.905 577.037C199.866 576.396 199.806 575.756 199.724 575.116L202.54 575.127L202.872 578.841L202.52 578.839C202.846 577.603 203.534 576.635 204.583 575.935C205.633 575.214 206.882 574.857 208.333 574.862C209.762 574.868 211.009 575.204 212.072 575.869C213.135 576.535 213.951 577.498 214.52 578.759C215.111 579.999 215.402 581.483 215.393 583.211C215.384 584.939 215.077 586.431 214.473 587.687C213.89 588.943 213.064 589.9 211.994 590.557C210.924 591.214 209.674 591.54 208.245 591.534C206.815 591.528 205.58 591.171 204.538 590.463C203.518 589.734 202.83 588.76 202.474 587.543L202.826 587.544L202.769 598.136L199.857 598.125ZM207.585 589.228C209.057 589.233 210.233 588.726 211.113 587.706C211.993 586.685 212.438 585.183 212.449 583.199C212.459 581.215 212.03 579.72 211.161 578.714C210.291 577.708 209.121 577.202 207.649 577.196C206.177 577.19 205.001 577.686 204.121 578.686C203.262 579.685 202.827 581.176 202.817 583.16C202.806 585.144 203.225 586.65 204.073 587.677C204.942 588.705 206.113 589.222 207.585 589.228ZM225.411 591.603C224.003 591.597 222.768 591.262 221.705 590.596C220.642 589.931 219.815 588.967 219.224 587.706C218.633 586.445 218.343 584.951 218.352 583.223C218.361 581.495 218.668 580.013 219.271 578.778C219.875 577.522 220.713 576.565 221.783 575.908C222.853 575.251 224.092 574.926 225.5 574.931C226.929 574.937 228.165 575.305 229.206 576.034C230.269 576.742 230.968 577.716 231.303 578.955L230.919 578.953L231.29 575.242L234.106 575.254C234.039 575.894 233.972 576.533 233.904 577.173C233.858 577.813 233.833 578.442 233.83 579.061L233.765 591.349L230.853 591.337L230.872 587.657L231.224 587.658C230.877 588.873 230.167 589.841 229.097 590.562C228.048 591.262 226.819 591.609 225.411 591.603ZM226.096 589.302C227.546 589.308 228.712 588.8 229.592 587.78C230.472 586.759 230.917 585.257 230.928 583.273C230.938 581.289 230.509 579.794 229.64 578.788C228.77 577.782 227.61 577.276 226.16 577.27C224.709 577.264 223.533 577.761 222.632 578.76C221.752 579.759 221.306 581.25 221.296 583.234C221.285 585.218 221.715 586.724 222.584 587.752C223.453 588.779 224.624 589.296 226.096 589.302ZM238.607 598.28L238.709 579.08C238.712 578.462 238.694 577.832 238.655 577.192C238.616 576.552 238.555 575.912 238.473 575.271L241.289 575.283L241.622 578.996L241.27 578.995C241.596 577.759 242.284 576.791 243.333 576.091C244.382 575.37 245.632 575.012 247.083 575.018C248.512 575.024 249.758 575.359 250.821 576.025C251.885 576.69 252.701 577.654 253.27 578.915C253.861 580.154 254.152 581.638 254.143 583.366C254.133 585.094 253.827 586.586 253.223 587.843C252.64 589.099 251.814 590.056 250.743 590.713C249.673 591.37 248.424 591.695 246.994 591.69C245.565 591.684 244.329 591.327 243.288 590.619C242.268 589.889 241.58 588.916 241.223 587.698L241.575 587.7L241.519 598.292L238.607 598.28ZM246.334 589.383C247.806 589.389 248.982 588.882 249.863 587.861C250.743 586.841 251.188 585.338 251.199 583.354C251.209 581.37 250.78 579.875 249.91 578.869C249.041 577.863 247.87 577.357 246.398 577.351C244.926 577.345 243.75 577.842 242.87 578.841C242.012 579.84 241.577 581.332 241.567 583.316C241.556 585.3 241.975 586.805 242.823 587.833C243.692 588.86 244.862 589.377 246.334 589.383ZM265.345 591.763C262.785 591.753 260.762 591.009 259.277 589.531C257.813 588.053 257.087 586.023 257.101 583.442C257.11 581.735 257.438 580.265 258.085 579.03C258.753 577.774 259.664 576.807 260.82 576.129C261.976 575.43 263.322 575.083 264.858 575.089C266.33 575.095 267.576 575.42 268.597 576.064C269.617 576.687 270.391 577.575 270.918 578.729C271.446 579.884 271.705 581.25 271.697 582.829L271.692 583.789L259.372 583.739L259.381 582.011L269.717 582.053L269.171 582.466C269.179 580.803 268.813 579.51 268.071 578.59C267.351 577.67 266.276 577.207 264.846 577.201C263.289 577.195 262.081 577.734 261.222 578.819C260.363 579.882 259.928 581.341 259.919 583.197L259.917 583.485C259.907 585.448 260.379 586.933 261.333 587.939C262.309 588.946 263.661 589.452 265.389 589.459C266.349 589.463 267.246 589.328 268.079 589.054C268.913 588.78 269.715 588.325 270.487 587.688L271.436 589.708C270.707 590.366 269.798 590.874 268.708 591.233C267.639 591.591 266.518 591.768 265.345 591.763ZM275.424 591.516L275.489 579.356C275.492 578.716 275.474 578.065 275.435 577.404C275.417 576.721 275.367 576.059 275.286 575.419L278.102 575.43L278.432 579.464L277.952 579.494C278.17 578.513 278.537 577.704 279.053 577.066C279.59 576.407 280.222 575.929 280.948 575.634C281.697 575.317 282.466 575.16 283.255 575.163C283.596 575.164 283.884 575.176 284.119 575.198C284.353 575.221 284.588 575.275 284.822 575.361L284.744 577.953C284.425 577.824 284.127 577.748 283.849 577.725C283.594 577.682 283.274 577.659 282.89 577.657C281.951 577.654 281.139 577.864 280.454 578.288C279.791 578.712 279.276 579.275 278.909 579.978C278.564 580.68 278.39 581.437 278.385 582.247L278.336 591.527L275.424 591.516ZM300.473 591.616L293.679 575.493L296.815 575.505L302.341 589.352L301.445 589.348L307.215 575.547L310.191 575.559L303.193 591.627L300.473 591.616ZM314.367 591.672L314.38 589.144L319.66 589.165L319.753 571.661L321.257 571.667L314.932 575.546L314.948 572.634L320.599 569.137L322.743 569.145L322.636 589.177L327.596 589.197L327.583 591.725L314.367 591.672ZM82.3082 627.893C81.2628 627.889 80.2935 627.64 79.4001 627.146C78.5068 626.63 77.7959 625.934 77.2672 625.057C76.7385 624.18 76.477 623.209 76.4826 622.142C76.4879 621.161 76.7381 620.234 77.2334 619.361C77.7501 618.488 78.4471 617.787 79.3246 617.257C80.2236 616.706 81.2384 616.433 82.369 616.437C83.4144 616.442 84.373 616.701 85.2449 617.217C86.117 617.711 86.8174 618.386 87.3462 619.241C87.8963 620.097 88.1685 621.079 88.1626 622.189C88.157 623.234 87.8852 624.193 87.3473 625.065C86.8306 625.938 86.1229 626.629 85.2242 627.137C84.3468 627.645 83.3748 627.898 82.3082 627.893ZM109.034 630.848L109.153 608.289L116.801 608.319C119.319 608.33 121.439 608.775 123.162 609.657C124.907 610.539 126.223 611.824 127.11 613.513C127.997 615.18 128.434 617.22 128.421 619.63C128.409 622.041 127.95 624.087 127.045 625.769C126.14 627.45 124.81 628.725 123.056 629.593C121.324 630.46 119.199 630.889 116.682 630.879L109.034 630.848ZM112.023 628.332L116.471 628.35C119.479 628.362 121.712 627.646 123.17 626.201C124.629 624.756 125.366 622.562 125.381 619.618C125.397 616.674 124.683 614.484 123.24 613.049C121.797 611.593 119.572 610.859 116.564 610.847L112.116 610.829L112.023 628.332ZM140.04 631.261C137.48 631.251 135.457 630.506 133.972 629.029C132.507 627.551 131.782 625.521 131.796 622.94C131.805 621.233 132.133 619.762 132.779 618.528C133.447 617.272 134.359 616.305 135.515 615.627C136.671 614.927 138.016 614.581 139.552 614.587C141.024 614.593 142.271 614.918 143.291 615.562C144.312 616.185 145.086 617.073 145.613 618.227C146.14 619.381 146.4 620.748 146.391 622.326L146.386 623.286L134.066 623.237L134.076 621.509L144.411 621.55L143.865 621.964C143.874 620.3 143.508 619.008 142.766 618.088C142.045 617.167 140.97 616.704 139.541 616.699C137.984 616.693 136.776 617.232 135.917 618.316C135.058 619.379 134.623 620.839 134.613 622.695L134.612 622.983C134.601 624.946 135.073 626.43 136.028 627.437C137.004 628.443 138.356 628.95 140.084 628.957C141.044 628.961 141.941 628.826 142.774 628.552C143.608 628.278 144.41 627.822 145.182 627.185L146.131 629.205C145.402 629.864 144.493 630.372 143.403 630.73C142.334 631.089 141.213 631.266 140.04 631.261ZM147.786 631.004L155.13 622.009L155.122 623.449L148.287 614.91L151.775 614.924L156.765 621.376L155.709 621.372L160.767 614.96L164.223 614.974L157.394 623.394L157.401 622.082L164.554 631.071L161.034 631.057L155.694 624.156L156.75 624.16L151.274 631.018L147.786 631.004ZM184.992 631.441C181.899 631.429 179.599 630.641 178.093 629.077C176.608 627.493 175.873 625.175 175.89 622.125L175.962 608.557L178.97 608.569L178.898 622.041C178.886 624.281 179.368 625.968 180.343 627.103C181.318 628.237 182.873 628.809 185.006 628.817C187.054 628.825 188.593 628.266 189.623 627.14C190.674 626.013 191.206 624.33 191.218 622.09L191.29 608.618L194.234 608.63L194.161 622.198C194.145 625.249 193.365 627.56 191.821 629.133C190.276 630.684 188 631.453 184.992 631.441ZM204.589 631.52C203.287 631.515 202.072 631.339 200.944 630.993C199.836 630.647 198.921 630.153 198.199 629.51L199.138 627.498C199.924 628.098 200.786 628.561 201.723 628.884C202.681 629.187 203.662 629.34 204.664 629.344C205.88 629.349 206.799 629.129 207.42 628.683C208.062 628.238 208.385 627.642 208.389 626.895C208.393 626.298 208.192 625.817 207.789 625.453C207.386 625.088 206.747 624.819 205.873 624.645L202.837 624.025C201.473 623.699 200.441 623.183 199.741 622.476C199.062 621.748 198.726 620.819 198.732 619.688C198.737 618.75 198.997 617.919 199.513 617.195C200.029 616.451 200.757 615.878 201.698 615.476C202.66 615.053 203.781 614.844 205.061 614.85C206.235 614.854 207.322 615.029 208.323 615.375C209.345 615.72 210.185 616.225 210.843 616.889L209.872 618.837C209.214 618.258 208.47 617.818 207.639 617.516C206.83 617.193 205.999 617.029 205.146 617.026C203.908 617.021 202.99 617.263 202.39 617.751C201.79 618.218 201.488 618.835 201.484 619.603C201.481 620.179 201.66 620.66 202.02 621.045C202.381 621.41 202.966 621.689 203.776 621.884L206.813 622.505C208.24 622.809 209.315 623.304 210.037 623.99C210.759 624.675 211.116 625.583 211.11 626.714C211.105 627.717 210.823 628.579 210.265 629.303C209.727 630.026 208.967 630.577 207.984 630.957C207.022 631.338 205.89 631.525 204.589 631.52ZM222.383 631.591C219.823 631.581 217.8 630.837 216.315 629.359C214.85 627.881 214.125 625.851 214.139 623.27C214.148 621.563 214.476 620.093 215.122 618.858C215.79 617.602 216.702 616.635 217.858 615.957C219.014 615.258 220.359 614.911 221.895 614.917C223.367 614.923 224.614 615.248 225.634 615.892C226.655 616.515 227.429 617.403 227.956 618.557C228.483 619.712 228.743 621.078 228.734 622.657L228.729 623.617L216.409 623.567L216.419 621.839L226.755 621.881L226.208 622.294C226.217 620.63 225.851 619.338 225.109 618.418C224.388 617.498 223.314 617.035 221.884 617.029C220.327 617.023 219.119 617.562 218.26 618.647C217.401 619.71 216.966 621.169 216.956 623.025L216.955 623.313C216.944 625.276 217.416 626.761 218.371 627.767C219.347 628.774 220.699 629.28 222.427 629.287C223.387 629.291 224.284 629.156 225.117 628.882C225.951 628.608 226.753 628.153 227.525 627.516L228.474 629.536C227.745 630.194 226.836 630.702 225.746 631.061C224.677 631.419 223.556 631.596 222.383 631.591ZM232.462 631.344L232.526 619.184C232.53 618.544 232.512 617.893 232.473 617.232C232.455 616.549 232.405 615.887 232.323 615.247L235.139 615.258L235.47 619.292L234.99 619.322C235.208 618.341 235.575 617.532 236.091 616.894C236.627 616.235 237.259 615.757 237.986 615.462C238.735 615.145 239.503 614.988 240.293 614.991C240.634 614.992 240.922 615.004 241.157 615.026C241.391 615.049 241.626 615.103 241.86 615.189L241.782 617.781C241.463 617.652 241.164 617.576 240.887 617.553C240.631 617.51 240.312 617.487 239.928 617.485C238.989 617.482 238.177 617.692 237.492 618.116C236.829 618.54 236.314 619.103 235.947 619.805C235.602 620.508 235.427 621.265 235.423 622.075L235.374 631.355L232.462 631.344ZM258.917 631.738C257.509 631.732 256.274 631.396 255.211 630.731C254.147 630.065 253.321 629.102 252.73 627.841C252.139 626.58 251.849 625.085 251.858 623.357C251.867 621.629 252.173 620.148 252.777 618.913C253.381 617.657 254.219 616.7 255.289 616.043C256.359 615.386 257.598 615.06 259.006 615.066C260.435 615.072 261.671 615.439 262.712 616.169C263.775 616.877 264.474 617.851 264.809 619.089L264.425 619.088L264.796 615.377L267.612 615.388C267.545 616.028 267.478 616.668 267.41 617.308C267.364 617.948 267.339 618.577 267.336 619.195L267.271 631.483L264.359 631.472L264.378 627.792L264.73 627.793C264.383 629.008 263.673 629.975 262.603 630.696C261.554 631.396 260.325 631.743 258.917 631.738ZM259.602 629.436C261.052 629.442 262.218 628.935 263.098 627.914C263.978 626.894 264.423 625.392 264.434 623.408C264.444 621.424 264.015 619.929 263.145 618.923C262.276 617.916 261.116 617.41 259.665 617.405C258.215 617.399 257.039 617.895 256.138 618.894C255.258 619.894 254.812 621.385 254.802 623.369C254.791 625.353 255.221 626.859 256.09 627.886C256.959 628.914 258.13 629.431 259.602 629.436ZM272.15 631.503L272.215 619.215C272.218 618.596 272.2 617.967 272.161 617.327C272.122 616.687 272.061 616.046 271.979 615.406L274.795 615.417L275.097 618.875L274.713 618.873C275.21 617.659 275.972 616.734 277 616.098C278.027 615.462 279.223 615.147 280.589 615.153C282.487 615.16 283.914 615.689 284.868 616.738C285.823 617.766 286.294 619.367 286.283 621.543L286.23 631.559L283.318 631.548L283.37 621.692C283.378 620.22 283.095 619.163 282.523 618.52C281.95 617.857 281.056 617.522 279.84 617.518C278.39 617.512 277.235 617.944 276.377 618.816C275.541 619.687 275.118 620.869 275.11 622.363L275.062 631.514L272.15 631.503ZM297.136 631.891C295.728 631.885 294.492 631.55 293.429 630.884C292.366 630.219 291.539 629.255 290.948 627.994C290.358 626.733 290.067 625.239 290.076 623.511C290.085 621.783 290.392 620.301 290.996 619.066C291.6 617.81 292.437 616.853 293.507 616.196C294.577 615.539 295.816 615.214 297.224 615.219C298.654 615.225 299.889 615.593 300.931 616.322C301.993 617.03 302.692 618.004 303.027 619.243L302.643 619.241L303.015 615.53L305.831 615.542C305.763 616.182 305.696 616.821 305.629 617.461C305.582 618.101 305.558 618.73 305.555 619.349L305.489 631.637L302.577 631.625L302.597 627.945L302.949 627.946C302.601 629.161 301.892 630.129 300.821 630.85C299.772 631.55 298.544 631.897 297.136 631.891ZM297.82 629.59C299.271 629.596 300.436 629.088 301.316 628.068C302.196 627.047 302.642 625.545 302.652 623.561C302.663 621.577 302.233 620.082 301.364 619.076C300.495 618.07 299.335 617.564 297.884 617.558C296.433 617.552 295.257 618.049 294.356 619.048C293.476 620.047 293.031 621.538 293.02 623.522C293.01 625.506 293.439 627.012 294.308 628.04C295.177 629.067 296.348 629.584 297.82 629.59ZM310.368 631.656L310.493 608.104L313.405 608.116L313.28 631.668L310.368 631.656ZM317.567 638.949L316.907 636.578C317.911 636.348 318.745 636.074 319.408 635.756C320.071 635.46 320.627 635.068 321.078 634.579C321.529 634.09 321.927 633.473 322.272 632.728L323.082 630.811L323.012 632.027L316.091 615.583L319.227 615.596L324.754 629.41L323.922 629.406L329.595 615.637L332.603 615.649L325.119 632.963C324.665 634.007 324.17 634.879 323.633 635.581C323.117 636.283 322.549 636.857 321.928 637.303C321.328 637.748 320.665 638.097 319.938 638.351C319.211 638.604 318.421 638.803 317.567 638.949ZM341.57 632.069C339.885 632.063 338.607 631.599 337.737 630.678C336.889 629.736 336.47 628.326 336.48 626.449L336.525 617.905L333.389 617.892L333.401 615.652L336.537 615.665L336.56 611.345L339.476 610.557L339.449 615.677L343.993 615.695L343.981 617.935L339.437 617.917L339.393 626.204C339.386 627.442 339.595 628.328 340.019 628.863C340.464 629.377 341.103 629.635 341.935 629.639C342.362 629.64 342.724 629.61 343.023 629.547C343.344 629.463 343.632 629.368 343.889 629.263L343.876 631.663C343.555 631.789 343.182 631.884 342.755 631.946C342.349 632.03 341.954 632.071 341.57 632.069ZM346.962 631.803L347.047 615.707L349.959 615.719L349.874 631.815L346.962 631.803ZM346.81 612.186L346.827 609.05L350.283 609.064L350.266 612.2L346.81 612.186ZM361.653 632.15C360.053 632.143 358.668 631.807 357.499 631.141C356.329 630.454 355.417 629.479 354.762 628.218C354.129 626.936 353.817 625.42 353.826 623.67C353.835 621.942 354.174 620.472 354.842 619.258C355.51 618.024 356.432 617.089 357.609 616.453C358.785 615.797 360.163 615.472 361.742 615.478C362.787 615.482 363.8 615.668 364.779 616.034C365.758 616.38 366.556 616.884 367.171 617.548L366.168 619.592C365.553 618.992 364.872 618.552 364.127 618.272C363.382 617.97 362.647 617.818 361.921 617.815C360.343 617.808 359.103 618.315 358.201 619.336C357.3 620.335 356.844 621.794 356.834 623.714C356.824 625.656 357.264 627.151 358.154 628.2C359.045 629.249 360.279 629.776 361.858 629.783C362.562 629.785 363.288 629.65 364.036 629.375C364.784 629.101 365.48 628.666 366.123 628.072L367.104 630.092C366.461 630.772 365.637 631.291 364.632 631.65C363.649 631.987 362.656 632.154 361.653 632.15ZM376.087 632.208C374.786 632.203 373.571 632.027 372.442 631.681C371.335 631.335 370.42 630.841 369.698 630.198L370.637 628.186C371.423 628.786 372.284 629.248 373.221 629.572C374.18 629.875 375.16 630.028 376.163 630.032C377.379 630.037 378.297 629.817 378.919 629.371C379.561 628.926 379.884 628.33 379.888 627.583C379.891 626.986 379.691 626.505 379.288 626.141C378.884 625.776 378.246 625.507 377.372 625.333L374.335 624.713C372.972 624.387 371.94 623.871 371.239 623.164C370.561 622.436 370.224 621.507 370.23 620.376C370.235 619.437 370.496 618.607 371.011 617.883C371.527 617.139 372.256 616.566 373.197 616.164C374.159 615.741 375.28 615.532 376.56 615.537C377.733 615.542 378.82 615.717 379.821 616.063C380.843 616.408 381.683 616.913 382.341 617.577L381.371 619.525C380.713 618.946 379.968 618.506 379.138 618.204C378.329 617.881 377.498 617.717 376.644 617.714C375.407 617.709 374.488 617.951 373.889 618.439C373.289 618.906 372.987 619.523 372.983 620.291C372.98 620.867 373.158 621.348 373.519 621.733C373.88 622.097 374.465 622.377 375.275 622.572L378.311 623.193C379.739 623.497 380.814 623.992 381.535 624.678C382.257 625.363 382.615 626.271 382.609 627.402C382.604 628.404 382.322 629.267 381.763 629.99C381.226 630.714 380.466 631.265 379.482 631.645C378.52 632.025 377.389 632.213 376.087 632.208Z" fill="#BA1E71"/>
<path d="M84 335L82.7285 621" stroke="#0FA9D9"/>
</svg>
