<svg width="646" height="386" viewBox="0 0 646 386" fill="none" xmlns="http://www.w3.org/2000/svg">
<path d="M368.795 335L314.795 379.167V290.833L368.795 335Z" fill="#BA1E71"/>
<path fill-rule="evenodd" clip-rule="evenodd" d="M1 379L54.7955 335L1 291H314.795V379H1ZM0.795458 379L0.79546 291H0.795458V379Z" fill="#BA1E71"/>
<path d="M128.807 349V346.443L138.409 335.932C139.536 334.701 140.464 333.631 141.193 332.722C141.922 331.803 142.462 330.941 142.812 330.136C143.172 329.322 143.352 328.47 143.352 327.58C143.352 326.557 143.106 325.671 142.614 324.923C142.131 324.175 141.468 323.598 140.625 323.19C139.782 322.783 138.835 322.58 137.784 322.58C136.667 322.58 135.691 322.812 134.858 323.276C134.034 323.73 133.395 324.369 132.94 325.193C132.495 326.017 132.273 326.983 132.273 328.091H128.92C128.92 326.386 129.313 324.89 130.099 323.602C130.885 322.314 131.955 321.311 133.31 320.591C134.673 319.871 136.203 319.511 137.898 319.511C139.602 319.511 141.113 319.871 142.429 320.591C143.745 321.311 144.777 322.281 145.526 323.503C146.274 324.724 146.648 326.083 146.648 327.58C146.648 328.65 146.454 329.696 146.065 330.719C145.687 331.732 145.024 332.864 144.077 334.114C143.139 335.354 141.837 336.869 140.17 338.659L133.636 345.648V345.875H147.159V349H128.807ZM162.514 349.398C160.374 349.398 158.551 348.815 157.045 347.651C155.54 346.476 154.389 344.777 153.594 342.551C152.798 340.316 152.401 337.617 152.401 334.455C152.401 331.311 152.798 328.626 153.594 326.401C154.399 324.166 155.554 322.461 157.06 321.287C158.575 320.103 160.393 319.511 162.514 319.511C164.635 319.511 166.449 320.103 167.955 321.287C169.47 322.461 170.625 324.166 171.42 326.401C172.225 328.626 172.628 331.311 172.628 334.455C172.628 337.617 172.23 340.316 171.435 342.551C170.639 344.777 169.489 346.476 167.983 347.651C166.477 348.815 164.654 349.398 162.514 349.398ZM162.514 346.273C164.635 346.273 166.283 345.25 167.457 343.205C168.632 341.159 169.219 338.242 169.219 334.455C169.219 331.936 168.949 329.791 168.409 328.02C167.879 326.249 167.112 324.9 166.108 323.972C165.114 323.044 163.916 322.58 162.514 322.58C160.412 322.58 158.769 323.616 157.585 325.69C156.401 327.755 155.81 330.676 155.81 334.455C155.81 336.973 156.075 339.114 156.605 340.875C157.135 342.636 157.898 343.976 158.892 344.895C159.896 345.813 161.103 346.273 162.514 346.273ZM178.026 349V346.443L187.628 335.932C188.755 334.701 189.683 333.631 190.412 332.722C191.141 331.803 191.681 330.941 192.031 330.136C192.391 329.322 192.571 328.47 192.571 327.58C192.571 326.557 192.325 325.671 191.832 324.923C191.349 324.175 190.687 323.598 189.844 323.19C189.001 322.783 188.054 322.58 187.003 322.58C185.885 322.58 184.91 322.812 184.077 323.276C183.253 323.73 182.614 324.369 182.159 325.193C181.714 326.017 181.491 326.983 181.491 328.091H178.139C178.139 326.386 178.532 324.89 179.318 323.602C180.104 322.314 181.174 321.311 182.528 320.591C183.892 319.871 185.421 319.511 187.116 319.511C188.821 319.511 190.331 319.871 191.648 320.591C192.964 321.311 193.996 322.281 194.744 323.503C195.492 324.724 195.866 326.083 195.866 327.58C195.866 328.65 195.672 329.696 195.284 330.719C194.905 331.732 194.242 332.864 193.295 334.114C192.358 335.354 191.056 336.869 189.389 338.659L182.855 345.648V345.875H196.378V349H178.026ZM200.937 343.034V340.136L213.722 319.909H215.824V324.398H214.403L204.744 339.682V339.909H221.96V343.034H200.937ZM214.631 349V342.153V340.804V319.909H217.983V349H214.631ZM249.613 339.909H253.477L256.715 344.17L257.567 345.307L262.397 351.727H258.533L255.352 347.466L254.556 346.386L249.613 339.909ZM263.59 334.455C263.59 337.523 263.036 340.174 261.928 342.409C260.82 344.644 259.3 346.367 257.369 347.58C255.437 348.792 253.23 349.398 250.749 349.398C248.268 349.398 246.062 348.792 244.13 347.58C242.198 346.367 240.678 344.644 239.57 342.409C238.462 340.174 237.908 337.523 237.908 334.455C237.908 331.386 238.462 328.735 239.57 326.5C240.678 324.265 242.198 322.542 244.13 321.33C246.062 320.117 248.268 319.511 250.749 319.511C253.23 319.511 255.437 320.117 257.369 321.33C259.3 322.542 260.82 324.265 261.928 326.5C263.036 328.735 263.59 331.386 263.59 334.455ZM260.181 334.455C260.181 331.936 259.76 329.81 258.917 328.077C258.084 326.344 256.952 325.032 255.522 324.142C254.102 323.252 252.511 322.807 250.749 322.807C248.988 322.807 247.392 323.252 245.962 324.142C244.542 325.032 243.41 326.344 242.567 328.077C241.734 329.81 241.317 331.936 241.317 334.455C241.317 336.973 241.734 339.099 242.567 340.832C243.41 342.565 244.542 343.877 245.962 344.767C247.392 345.657 248.988 346.102 250.749 346.102C252.511 346.102 254.102 345.657 255.522 344.767C256.952 343.877 258.084 342.565 258.917 340.832C259.76 339.099 260.181 336.973 260.181 334.455ZM268.32 343.034V340.136L281.104 319.909H283.207V324.398H281.786L272.127 339.682V339.909H289.343V343.034H268.32ZM282.013 349V342.153V340.804V319.909H285.366V349H282.013Z" fill="black"/>
<circle cx="94.2954" cy="335.5" r="8.5" fill="#D9D9D9"/>
<path d="M94.0085 26.7273C93.0919 26.7273 92.2547 26.5038 91.4972 26.0568C90.7396 25.6023 90.1335 24.9962 89.679 24.2386C89.232 23.4811 89.0085 22.6439 89.0085 21.7273C89.0085 20.803 89.232 19.9659 89.679 19.2159C90.1335 18.4583 90.7396 17.8561 91.4972 17.4091C92.2547 16.9545 93.0919 16.7273 94.0085 16.7273C94.9328 16.7273 95.7699 16.9545 96.5199 17.4091C97.2775 17.8561 97.8797 18.4583 98.3267 19.2159C98.7813 19.9659 99.0085 20.803 99.0085 21.7273C99.0085 22.6439 98.7813 23.4811 98.3267 24.2386C97.8797 24.9962 97.2775 25.6023 96.5199 26.0568C95.7699 26.5038 94.9328 26.7273 94.0085 26.7273ZM120.557 7.72727H124.818L132.227 25.8182H132.5L139.909 7.72727H144.17V31H140.83V14.1591H140.614L133.75 30.9659H130.977L124.114 14.1477H123.898V31H120.557V7.72727ZM154.082 31.3864C152.976 31.3864 151.976 31.1818 151.082 30.7727C150.188 30.3561 149.48 29.7538 148.957 28.9659C148.442 28.178 148.185 27.2121 148.185 26.0682C148.185 25.0833 148.374 24.2727 148.753 23.6364C149.132 23 149.643 22.4962 150.287 22.125C150.931 21.7538 151.651 21.4735 152.446 21.2841C153.241 21.0947 154.052 20.9508 154.878 20.8523C155.923 20.7311 156.772 20.6326 157.423 20.5568C158.075 20.4735 158.548 20.3409 158.844 20.1591C159.139 19.9773 159.287 19.6818 159.287 19.2727V19.1932C159.287 18.2008 159.007 17.4318 158.446 16.8864C157.893 16.3409 157.067 16.0682 155.969 16.0682C154.825 16.0682 153.923 16.322 153.264 16.8295C152.613 17.3295 152.162 17.8864 151.912 18.5L148.719 17.7727C149.098 16.7121 149.651 15.8561 150.378 15.2045C151.113 14.5455 151.957 14.0682 152.912 13.7727C153.866 13.4697 154.87 13.3182 155.923 13.3182C156.62 13.3182 157.359 13.4015 158.139 13.5682C158.927 13.7273 159.662 14.0227 160.344 14.4545C161.033 14.8864 161.598 15.5038 162.037 16.3068C162.476 17.1023 162.696 18.1364 162.696 19.4091V31H159.378V28.6136H159.241C159.022 29.053 158.692 29.4848 158.253 29.9091C157.813 30.3333 157.249 30.6856 156.56 30.9659C155.87 31.2462 155.045 31.3864 154.082 31.3864ZM154.821 28.6591C155.76 28.6591 156.563 28.4735 157.23 28.1023C157.904 27.7311 158.416 27.2462 158.764 26.6477C159.12 26.0417 159.298 25.3939 159.298 24.7045V22.4545C159.177 22.5758 158.942 22.6894 158.594 22.7955C158.253 22.8939 157.863 22.9811 157.423 23.0568C156.984 23.125 156.556 23.1894 156.139 23.25C155.723 23.303 155.374 23.3485 155.094 23.3864C154.435 23.4697 153.832 23.6098 153.287 23.8068C152.749 24.0038 152.317 24.2879 151.991 24.6591C151.673 25.0227 151.514 25.5076 151.514 26.1136C151.514 26.9545 151.825 27.5909 152.446 28.0227C153.067 28.447 153.859 28.6591 154.821 28.6591ZM167.222 31V13.5455H170.506V16.3182H170.688C171.006 15.3788 171.566 14.6402 172.369 14.1023C173.18 13.5568 174.097 13.2841 175.119 13.2841C175.331 13.2841 175.581 13.2917 175.869 13.3068C176.165 13.322 176.396 13.3409 176.562 13.3636V16.6136C176.426 16.5758 176.184 16.5341 175.835 16.4886C175.487 16.4356 175.138 16.4091 174.79 16.4091C173.987 16.4091 173.271 16.5795 172.642 16.9205C172.021 17.2538 171.528 17.7197 171.165 18.3182C170.801 18.9091 170.619 19.5833 170.619 20.3409V31H167.222ZM186.196 37.9091C184.81 37.9091 183.616 37.7273 182.616 37.3636C181.624 37 180.813 36.5189 180.185 35.9205C179.556 35.322 179.086 34.6667 178.776 33.9545L181.696 32.75C181.901 33.0833 182.173 33.4356 182.514 33.8068C182.863 34.1856 183.332 34.5076 183.923 34.7727C184.522 35.0379 185.291 35.1705 186.23 35.1705C187.518 35.1705 188.582 34.8561 189.423 34.2273C190.264 33.6061 190.685 32.6136 190.685 31.25V27.8182H190.469C190.264 28.1894 189.969 28.6023 189.582 29.0568C189.204 29.5114 188.681 29.9053 188.014 30.2386C187.348 30.572 186.48 30.7386 185.412 30.7386C184.033 30.7386 182.791 30.4167 181.685 29.7727C180.586 29.1212 179.715 28.1629 179.071 26.8977C178.435 25.625 178.116 24.0606 178.116 22.2045C178.116 20.3485 178.431 18.7576 179.06 17.4318C179.696 16.1061 180.567 15.0909 181.673 14.3864C182.779 13.6742 184.033 13.3182 185.435 13.3182C186.518 13.3182 187.393 13.5 188.06 13.8636C188.726 14.2197 189.245 14.6364 189.616 15.1136C189.995 15.5909 190.287 16.0114 190.491 16.375H190.741V13.5455H194.071V31.3864C194.071 32.8864 193.723 34.1174 193.026 35.0795C192.329 36.0417 191.385 36.7538 190.196 37.2159C189.014 37.678 187.681 37.9091 186.196 37.9091ZM186.162 27.9205C187.139 27.9205 187.965 27.6932 188.639 27.2386C189.321 26.7765 189.836 26.1174 190.185 25.2614C190.541 24.3977 190.719 23.3636 190.719 22.1591C190.719 20.9848 190.545 19.9508 190.196 19.0568C189.848 18.1629 189.336 17.4659 188.662 16.9659C187.988 16.4583 187.154 16.2045 186.162 16.2045C185.139 16.2045 184.287 16.4697 183.605 17C182.923 17.5227 182.408 18.2348 182.06 19.1364C181.719 20.0379 181.548 21.0455 181.548 22.1591C181.548 23.303 181.723 24.3068 182.071 25.1705C182.42 26.0341 182.935 26.7083 183.616 27.1932C184.306 27.678 185.154 27.9205 186.162 27.9205ZM198.628 31V13.5455H202.026V31H198.628ZM200.344 10.8523C199.753 10.8523 199.245 10.6553 198.821 10.2614C198.404 9.85985 198.196 9.38257 198.196 8.82954C198.196 8.26894 198.404 7.79167 198.821 7.39773C199.245 6.99621 199.753 6.79545 200.344 6.79545C200.935 6.79545 201.438 6.99621 201.855 7.39773C202.279 7.79167 202.491 8.26894 202.491 8.82954C202.491 9.38257 202.279 9.85985 201.855 10.2614C201.438 10.6553 200.935 10.8523 200.344 10.8523ZM209.994 20.6364V31H206.597V13.5455H209.858V16.3864H210.074C210.475 15.4621 211.104 14.7197 211.96 14.1591C212.824 13.5985 213.911 13.3182 215.222 13.3182C216.411 13.3182 217.453 13.5682 218.347 14.0682C219.241 14.5606 219.934 15.2955 220.426 16.2727C220.919 17.25 221.165 18.4583 221.165 19.8977V31H217.767V20.3068C217.767 19.0417 217.438 18.053 216.778 17.3409C216.119 16.6212 215.214 16.2614 214.062 16.2614C213.275 16.2614 212.574 16.4318 211.96 16.7727C211.354 17.1136 210.873 17.6136 210.517 18.2727C210.169 18.9242 209.994 19.7121 209.994 20.6364ZM233.315 10.75V7.72727H251.327V10.75H244.065V31H240.565V10.75H233.315ZM253.222 31V13.5455H256.506V16.3182H256.688C257.006 15.3788 257.566 14.6402 258.369 14.1023C259.18 13.5568 260.097 13.2841 261.119 13.2841C261.331 13.2841 261.581 13.2917 261.869 13.3068C262.165 13.322 262.396 13.3409 262.562 13.3636V16.6136C262.426 16.5758 262.184 16.5341 261.835 16.4886C261.487 16.4356 261.138 16.4091 260.79 16.4091C259.987 16.4091 259.271 16.5795 258.642 16.9205C258.021 17.2538 257.528 17.7197 257.165 18.3182C256.801 18.9091 256.619 19.5833 256.619 20.3409V31H253.222ZM270.426 31.3864C269.32 31.3864 268.32 31.1818 267.426 30.7727C266.532 30.3561 265.824 29.7538 265.301 28.9659C264.786 28.178 264.528 27.2121 264.528 26.0682C264.528 25.0833 264.718 24.2727 265.097 23.6364C265.475 23 265.987 22.4962 266.631 22.125C267.275 21.7538 267.994 21.4735 268.79 21.2841C269.585 21.0947 270.396 20.9508 271.222 20.8523C272.267 20.7311 273.116 20.6326 273.767 20.5568C274.419 20.4735 274.892 20.3409 275.188 20.1591C275.483 19.9773 275.631 19.6818 275.631 19.2727V19.1932C275.631 18.2008 275.35 17.4318 274.79 16.8864C274.237 16.3409 273.411 16.0682 272.312 16.0682C271.169 16.0682 270.267 16.322 269.608 16.8295C268.956 17.3295 268.506 17.8864 268.256 18.5L265.062 17.7727C265.441 16.7121 265.994 15.8561 266.722 15.2045C267.456 14.5455 268.301 14.0682 269.256 13.7727C270.21 13.4697 271.214 13.3182 272.267 13.3182C272.964 13.3182 273.703 13.4015 274.483 13.5682C275.271 13.7273 276.006 14.0227 276.688 14.4545C277.377 14.8864 277.941 15.5038 278.381 16.3068C278.82 17.1023 279.04 18.1364 279.04 19.4091V31H275.722V28.6136H275.585C275.366 29.053 275.036 29.4848 274.597 29.9091C274.157 30.3333 273.593 30.6856 272.903 30.9659C272.214 31.2462 271.388 31.3864 270.426 31.3864ZM271.165 28.6591C272.104 28.6591 272.907 28.4735 273.574 28.1023C274.248 27.7311 274.759 27.2462 275.108 26.6477C275.464 26.0417 275.642 25.3939 275.642 24.7045V22.4545C275.521 22.5758 275.286 22.6894 274.938 22.7955C274.597 22.8939 274.206 22.9811 273.767 23.0568C273.328 23.125 272.9 23.1894 272.483 23.25C272.066 23.303 271.718 23.3485 271.438 23.3864C270.778 23.4697 270.176 23.6098 269.631 23.8068C269.093 24.0038 268.661 24.2879 268.335 24.6591C268.017 25.0227 267.858 25.5076 267.858 26.1136C267.858 26.9545 268.169 27.5909 268.79 28.0227C269.411 28.447 270.203 28.6591 271.165 28.6591ZM290.099 31.3409C288.69 31.3409 287.433 30.9811 286.327 30.2614C285.228 29.5341 284.365 28.5 283.736 27.1591C283.115 25.8106 282.804 24.1932 282.804 22.3068C282.804 20.4205 283.118 18.8068 283.747 17.4659C284.384 16.125 285.255 15.0985 286.361 14.3864C287.467 13.6742 288.721 13.3182 290.122 13.3182C291.205 13.3182 292.077 13.5 292.736 13.8636C293.402 14.2197 293.918 14.6364 294.281 15.1136C294.652 15.5909 294.94 16.0114 295.145 16.375H295.349V7.72727H298.747V31H295.429V28.2841H295.145C294.94 28.6553 294.645 29.0795 294.259 29.5568C293.88 30.0341 293.357 30.4508 292.69 30.8068C292.024 31.1629 291.16 31.3409 290.099 31.3409ZM290.849 28.4432C291.827 28.4432 292.652 28.1856 293.327 27.6705C294.009 27.1477 294.524 26.4242 294.872 25.5C295.228 24.5758 295.406 23.5 295.406 22.2727C295.406 21.0606 295.232 20 294.884 19.0909C294.535 18.1818 294.024 17.4735 293.349 16.9659C292.675 16.4583 291.842 16.2045 290.849 16.2045C289.827 16.2045 288.974 16.4697 288.293 17C287.611 17.5303 287.096 18.2538 286.747 19.1705C286.406 20.0871 286.236 21.1212 286.236 22.2727C286.236 23.4394 286.41 24.4886 286.759 25.4205C287.107 26.3523 287.622 27.0909 288.304 27.6364C288.993 28.1742 289.842 28.4432 290.849 28.4432ZM311.119 31.3523C309.4 31.3523 307.919 30.9848 306.676 30.25C305.441 29.5076 304.487 28.4659 303.812 27.125C303.146 25.7765 302.812 24.197 302.812 22.3864C302.812 20.5985 303.146 19.0227 303.812 17.6591C304.487 16.2955 305.426 15.2311 306.631 14.4659C307.843 13.7008 309.259 13.3182 310.881 13.3182C311.866 13.3182 312.82 13.4811 313.744 13.8068C314.669 14.1326 315.498 14.6439 316.233 15.3409C316.968 16.0379 317.547 16.9432 317.972 18.0568C318.396 19.1629 318.608 20.5076 318.608 22.0909V23.2955H304.733V20.75H315.278C315.278 19.8561 315.097 19.0644 314.733 18.375C314.369 17.678 313.858 17.1288 313.199 16.7273C312.547 16.3258 311.782 16.125 310.903 16.125C309.949 16.125 309.116 16.3598 308.403 16.8295C307.699 17.2917 307.153 17.8977 306.767 18.6477C306.388 19.3902 306.199 20.197 306.199 21.0682V23.0568C306.199 24.2235 306.403 25.2159 306.812 26.0341C307.229 26.8523 307.809 27.4773 308.551 27.9091C309.294 28.3333 310.161 28.5455 311.153 28.5455C311.797 28.5455 312.384 28.4545 312.915 28.2727C313.445 28.0833 313.903 27.803 314.29 27.4318C314.676 27.0606 314.972 26.6023 315.176 26.0568L318.392 26.6364C318.134 27.5833 317.672 28.4129 317.006 29.125C316.347 29.8295 315.517 30.3788 314.517 30.7727C313.525 31.1591 312.392 31.3523 311.119 31.3523ZM334.631 31L329.494 13.5455H333.006L336.426 26.3636H336.597L340.028 13.5455H343.54L346.949 26.3068H347.119L350.517 13.5455H354.028L348.903 31H345.438L341.892 18.3977H341.631L338.085 31H334.631ZM357.253 31V13.5455H360.651V31H357.253ZM358.969 10.8523C358.378 10.8523 357.87 10.6553 357.446 10.2614C357.029 9.85985 356.821 9.38257 356.821 8.82954C356.821 8.26894 357.029 7.79167 357.446 7.39773C357.87 6.99621 358.378 6.79545 358.969 6.79545C359.56 6.79545 360.063 6.99621 360.48 7.39773C360.904 7.79167 361.116 8.26894 361.116 8.82954C361.116 9.38257 360.904 9.85985 360.48 10.2614C360.063 10.6553 359.56 10.8523 358.969 10.8523ZM373.369 13.5455V16.2727H363.835V13.5455H373.369ZM366.392 9.36364H369.79V25.875C369.79 26.5341 369.888 27.0303 370.085 27.3636C370.282 27.6894 370.536 27.9129 370.847 28.0341C371.165 28.1477 371.509 28.2045 371.881 28.2045C372.153 28.2045 372.392 28.1856 372.597 28.1477C372.801 28.1098 372.96 28.0795 373.074 28.0568L373.688 30.8636C373.491 30.9394 373.21 31.0152 372.847 31.0909C372.483 31.1742 372.028 31.2197 371.483 31.2273C370.589 31.2424 369.756 31.0833 368.983 30.75C368.21 30.4167 367.585 29.9015 367.108 29.2045C366.631 28.5076 366.392 27.6326 366.392 26.5795V9.36364ZM380.901 20.6364V31H377.503V7.72727H380.855V16.3864H381.071C381.48 15.447 382.105 14.7008 382.946 14.1477C383.787 13.5947 384.885 13.3182 386.241 13.3182C387.438 13.3182 388.484 13.5644 389.378 14.0568C390.279 14.5492 390.976 15.2841 391.469 16.2614C391.969 17.2311 392.219 18.4432 392.219 19.8977V31H388.821V20.3068C388.821 19.0265 388.491 18.0341 387.832 17.3295C387.173 16.6174 386.257 16.2614 385.082 16.2614C384.279 16.2614 383.56 16.4318 382.923 16.7727C382.295 17.1136 381.798 17.6136 381.435 18.2727C381.079 18.9242 380.901 19.7121 380.901 20.6364ZM405.494 31V7.72727H409.006V27.9773H419.551V31H405.494ZM430.636 31.3523C429 31.3523 427.572 30.9773 426.352 30.2273C425.133 29.4773 424.186 28.428 423.511 27.0795C422.837 25.7311 422.5 24.1553 422.5 22.3523C422.5 20.5417 422.837 18.9583 423.511 17.6023C424.186 16.2462 425.133 15.1932 426.352 14.4432C427.572 13.6932 429 13.3182 430.636 13.3182C432.273 13.3182 433.701 13.6932 434.92 14.4432C436.14 15.1932 437.087 16.2462 437.761 17.6023C438.436 18.9583 438.773 20.5417 438.773 22.3523C438.773 24.1553 438.436 25.7311 437.761 27.0795C437.087 28.428 436.14 29.4773 434.92 30.2273C433.701 30.9773 432.273 31.3523 430.636 31.3523ZM430.648 28.5C431.708 28.5 432.587 28.2197 433.284 27.6591C433.981 27.0985 434.496 26.3523 434.83 25.4205C435.17 24.4886 435.341 23.4621 435.341 22.3409C435.341 21.2273 435.17 20.2045 434.83 19.2727C434.496 18.3333 433.981 17.5795 433.284 17.0114C432.587 16.4432 431.708 16.1591 430.648 16.1591C429.58 16.1591 428.693 16.4432 427.989 17.0114C427.292 17.5795 426.773 18.3333 426.432 19.2727C426.098 20.2045 425.932 21.2273 425.932 22.3409C425.932 23.4621 426.098 24.4886 426.432 25.4205C426.773 26.3523 427.292 27.0985 427.989 27.6591C428.693 28.2197 429.58 28.5 430.648 28.5ZM445.963 20.6364V31H442.565V13.5455H445.827V16.3864H446.043C446.444 15.4621 447.073 14.7197 447.929 14.1591C448.793 13.5985 449.88 13.3182 451.19 13.3182C452.38 13.3182 453.421 13.5682 454.315 14.0682C455.209 14.5606 455.902 15.2955 456.395 16.2727C456.887 17.25 457.134 18.4583 457.134 19.8977V31H453.736V20.3068C453.736 19.0417 453.406 18.053 452.747 17.3409C452.088 16.6212 451.183 16.2614 450.031 16.2614C449.243 16.2614 448.543 16.4318 447.929 16.7727C447.323 17.1136 446.842 17.6136 446.486 18.2727C446.137 18.9242 445.963 19.7121 445.963 20.6364ZM469.009 37.9091C467.622 37.9091 466.429 37.7273 465.429 37.3636C464.437 37 463.626 36.5189 462.997 35.9205C462.368 35.322 461.899 34.6667 461.588 33.9545L464.509 32.75C464.713 33.0833 464.986 33.4356 465.327 33.8068C465.675 34.1856 466.145 34.5076 466.736 34.7727C467.334 35.0379 468.103 35.1705 469.043 35.1705C470.33 35.1705 471.395 34.8561 472.236 34.2273C473.077 33.6061 473.497 32.6136 473.497 31.25V27.8182H473.281C473.077 28.1894 472.781 28.6023 472.395 29.0568C472.016 29.5114 471.493 29.9053 470.827 30.2386C470.16 30.572 469.293 30.7386 468.224 30.7386C466.846 30.7386 465.603 30.4167 464.497 29.7727C463.399 29.1212 462.527 28.1629 461.884 26.8977C461.247 25.625 460.929 24.0606 460.929 22.2045C460.929 20.3485 461.243 18.7576 461.872 17.4318C462.509 16.1061 463.38 15.0909 464.486 14.3864C465.592 13.6742 466.846 13.3182 468.247 13.3182C469.33 13.3182 470.205 13.5 470.872 13.8636C471.539 14.2197 472.058 14.6364 472.429 15.1136C472.808 15.5909 473.099 16.0114 473.304 16.375H473.554V13.5455H476.884V31.3864C476.884 32.8864 476.535 34.1174 475.838 35.0795C475.141 36.0417 474.198 36.7538 473.009 37.2159C471.827 37.678 470.493 37.9091 469.009 37.9091ZM468.974 27.9205C469.952 27.9205 470.777 27.6932 471.452 27.2386C472.134 26.7765 472.649 26.1174 472.997 25.2614C473.353 24.3977 473.531 23.3636 473.531 22.1591C473.531 20.9848 473.357 19.9508 473.009 19.0568C472.66 18.1629 472.149 17.4659 471.474 16.9659C470.8 16.4583 469.967 16.2045 468.974 16.2045C467.952 16.2045 467.099 16.4697 466.418 17C465.736 17.5227 465.221 18.2348 464.872 19.1364C464.531 20.0379 464.361 21.0455 464.361 22.1591C464.361 23.303 464.535 24.3068 464.884 25.1705C465.232 26.0341 465.747 26.7083 466.429 27.1932C467.118 27.678 467.967 27.9205 468.974 27.9205ZM494.989 31.3864C493.883 31.3864 492.883 31.1818 491.989 30.7727C491.095 30.3561 490.386 29.7538 489.864 28.9659C489.348 28.178 489.091 27.2121 489.091 26.0682C489.091 25.0833 489.28 24.2727 489.659 23.6364C490.038 23 490.549 22.4962 491.193 22.125C491.837 21.7538 492.557 21.4735 493.352 21.2841C494.148 21.0947 494.958 20.9508 495.784 20.8523C496.83 20.7311 497.678 20.6326 498.33 20.5568C498.981 20.4735 499.455 20.3409 499.75 20.1591C500.045 19.9773 500.193 19.6818 500.193 19.2727V19.1932C500.193 18.2008 499.913 17.4318 499.352 16.8864C498.799 16.3409 497.973 16.0682 496.875 16.0682C495.731 16.0682 494.83 16.322 494.17 16.8295C493.519 17.3295 493.068 17.8864 492.818 18.5L489.625 17.7727C490.004 16.7121 490.557 15.8561 491.284 15.2045C492.019 14.5455 492.864 14.0682 493.818 13.7727C494.773 13.4697 495.777 13.3182 496.83 13.3182C497.527 13.3182 498.265 13.4015 499.045 13.5682C499.833 13.7273 500.568 14.0227 501.25 14.4545C501.939 14.8864 502.504 15.5038 502.943 16.3068C503.383 17.1023 503.602 18.1364 503.602 19.4091V31H500.284V28.6136H500.148C499.928 29.053 499.598 29.4848 499.159 29.9091C498.72 30.3333 498.155 30.6856 497.466 30.9659C496.777 31.2462 495.951 31.3864 494.989 31.3864ZM495.727 28.6591C496.667 28.6591 497.47 28.4735 498.136 28.1023C498.811 27.7311 499.322 27.2462 499.67 26.6477C500.027 26.0417 500.205 25.3939 500.205 24.7045V22.4545C500.083 22.5758 499.848 22.6894 499.5 22.7955C499.159 22.8939 498.769 22.9811 498.33 23.0568C497.89 23.125 497.462 23.1894 497.045 23.25C496.629 23.303 496.28 23.3485 496 23.3864C495.341 23.4697 494.739 23.6098 494.193 23.8068C493.655 24.0038 493.223 24.2879 492.898 24.6591C492.58 25.0227 492.42 25.5076 492.42 26.1136C492.42 26.9545 492.731 27.5909 493.352 28.0227C493.973 28.447 494.765 28.6591 495.727 28.6591ZM511.526 20.6364V31H508.128V13.5455H511.389V16.3864H511.605C512.007 15.4621 512.635 14.7197 513.491 14.1591C514.355 13.5985 515.442 13.3182 516.753 13.3182C517.942 13.3182 518.984 13.5682 519.878 14.0682C520.772 14.5606 521.465 15.2955 521.957 16.2727C522.45 17.25 522.696 18.4583 522.696 19.8977V31H519.298V20.3068C519.298 19.0417 518.969 18.053 518.31 17.3409C517.651 16.6212 516.745 16.2614 515.594 16.2614C514.806 16.2614 514.105 16.4318 513.491 16.7727C512.885 17.1136 512.404 17.6136 512.048 18.2727C511.7 18.9242 511.526 19.7121 511.526 20.6364ZM533.787 31.3409C532.378 31.3409 531.12 30.9811 530.014 30.2614C528.916 29.5341 528.052 28.5 527.423 27.1591C526.802 25.8106 526.491 24.1932 526.491 22.3068C526.491 20.4205 526.806 18.8068 527.435 17.4659C528.071 16.125 528.942 15.0985 530.048 14.3864C531.154 13.6742 532.408 13.3182 533.81 13.3182C534.893 13.3182 535.764 13.5 536.423 13.8636C537.09 14.2197 537.605 14.6364 537.969 15.1136C538.34 15.5909 538.628 16.0114 538.832 16.375H539.037V7.72727H542.435V31H539.116V28.2841H538.832C538.628 28.6553 538.332 29.0795 537.946 29.5568C537.567 30.0341 537.045 30.4508 536.378 30.8068C535.711 31.1629 534.848 31.3409 533.787 31.3409ZM534.537 28.4432C535.514 28.4432 536.34 28.1856 537.014 27.6705C537.696 27.1477 538.211 26.4242 538.56 25.5C538.916 24.5758 539.094 23.5 539.094 22.2727C539.094 21.0606 538.92 20 538.571 19.0909C538.223 18.1818 537.711 17.4735 537.037 16.9659C536.363 16.4583 535.529 16.2045 534.537 16.2045C533.514 16.2045 532.662 16.4697 531.98 17C531.298 17.5303 530.783 18.2538 530.435 19.1705C530.094 20.0871 529.923 21.1212 529.923 22.2727C529.923 23.4394 530.098 24.4886 530.446 25.4205C530.795 26.3523 531.31 27.0909 531.991 27.6364C532.681 28.1742 533.529 28.4432 534.537 28.4432ZM568.719 13.8409C568.598 12.7652 568.098 11.9318 567.219 11.3409C566.34 10.7424 565.234 10.4432 563.901 10.4432C562.946 10.4432 562.12 10.5947 561.423 10.8977C560.726 11.1932 560.185 11.6023 559.798 12.125C559.42 12.6402 559.23 13.2273 559.23 13.8864C559.23 14.4394 559.359 14.9167 559.616 15.3182C559.882 15.7197 560.226 16.0568 560.651 16.3295C561.082 16.5947 561.545 16.8182 562.037 17C562.529 17.1742 563.003 17.3182 563.457 17.4318L565.73 18.0227C566.473 18.2045 567.234 18.4508 568.014 18.7614C568.795 19.072 569.518 19.4811 570.185 19.9886C570.851 20.4962 571.389 21.125 571.798 21.875C572.215 22.625 572.423 23.5227 572.423 24.5682C572.423 25.8864 572.082 27.0568 571.401 28.0795C570.726 29.1023 569.745 29.9091 568.457 30.5C567.177 31.0909 565.628 31.3864 563.81 31.3864C562.067 31.3864 560.56 31.1098 559.287 30.5568C558.014 30.0038 557.018 29.2197 556.298 28.2045C555.579 27.1818 555.181 25.9697 555.105 24.5682H558.628C558.696 25.4091 558.969 26.1098 559.446 26.6705C559.931 27.2235 560.548 27.6364 561.298 27.9091C562.056 28.1742 562.885 28.3068 563.787 28.3068C564.779 28.3068 565.662 28.1515 566.435 27.8409C567.215 27.5227 567.829 27.0833 568.276 26.5227C568.723 25.9545 568.946 25.2917 568.946 24.5341C568.946 23.8447 568.749 23.2803 568.355 22.8409C567.969 22.4015 567.442 22.0379 566.776 21.75C566.116 21.4621 565.37 21.2083 564.537 20.9886L561.787 20.2386C559.923 19.7311 558.446 18.9848 557.355 18C556.272 17.0152 555.73 15.7121 555.73 14.0909C555.73 12.75 556.094 11.5795 556.821 10.5795C557.548 9.57954 558.533 8.80303 559.776 8.25C561.018 7.68939 562.42 7.40909 563.98 7.40909C565.556 7.40909 566.946 7.68561 568.151 8.23864C569.363 8.79167 570.317 9.55303 571.014 10.5227C571.711 11.4848 572.075 12.5909 572.105 13.8409H568.719ZM583.699 31.3523C582.063 31.3523 580.634 30.9773 579.415 30.2273C578.195 29.4773 577.248 28.428 576.574 27.0795C575.9 25.7311 575.562 24.1553 575.562 22.3523C575.562 20.5417 575.9 18.9583 576.574 17.6023C577.248 16.2462 578.195 15.1932 579.415 14.4432C580.634 13.6932 582.063 13.3182 583.699 13.3182C585.335 13.3182 586.763 13.6932 587.983 14.4432C589.203 15.1932 590.15 16.2462 590.824 17.6023C591.498 18.9583 591.835 20.5417 591.835 22.3523C591.835 24.1553 591.498 25.7311 590.824 27.0795C590.15 28.428 589.203 29.4773 587.983 30.2273C586.763 30.9773 585.335 31.3523 583.699 31.3523ZM583.71 28.5C584.771 28.5 585.65 28.2197 586.347 27.6591C587.044 27.0985 587.559 26.3523 587.892 25.4205C588.233 24.4886 588.403 23.4621 588.403 22.3409C588.403 21.2273 588.233 20.2045 587.892 19.2727C587.559 18.3333 587.044 17.5795 586.347 17.0114C585.65 16.4432 584.771 16.1591 583.71 16.1591C582.642 16.1591 581.756 16.4432 581.051 17.0114C580.354 17.5795 579.835 18.3333 579.494 19.2727C579.161 20.2045 578.994 21.2273 578.994 22.3409C578.994 23.4621 579.161 24.4886 579.494 25.4205C579.835 26.3523 580.354 27.0985 581.051 27.6591C581.756 28.2197 582.642 28.5 583.71 28.5ZM595.628 31V13.5455H598.912V16.3182H599.094C599.412 15.3788 599.973 14.6402 600.776 14.1023C601.586 13.5568 602.503 13.2841 603.526 13.2841C603.738 13.2841 603.988 13.2917 604.276 13.3068C604.571 13.322 604.802 13.3409 604.969 13.3636V16.6136C604.832 16.5758 604.59 16.5341 604.241 16.4886C603.893 16.4356 603.545 16.4091 603.196 16.4091C602.393 16.4091 601.677 16.5795 601.048 16.9205C600.427 17.2538 599.935 17.7197 599.571 18.3182C599.207 18.9091 599.026 19.5833 599.026 20.3409V31H595.628ZM617.088 13.5455V16.2727H607.554V13.5455H617.088ZM610.111 9.36364H613.509V25.875C613.509 26.5341 613.607 27.0303 613.804 27.3636C614.001 27.6894 614.255 27.9129 614.565 28.0341C614.884 28.1477 615.228 28.2045 615.599 28.2045C615.872 28.2045 616.111 28.1856 616.315 28.1477C616.52 28.1098 616.679 28.0795 616.793 28.0568L617.406 30.8636C617.209 30.9394 616.929 31.0152 616.565 31.0909C616.202 31.1742 615.747 31.2197 615.202 31.2273C614.308 31.2424 613.474 31.0833 612.702 30.75C611.929 30.4167 611.304 29.9015 610.827 29.2045C610.349 28.5076 610.111 27.6326 610.111 26.5795V9.36364ZM135.523 46.7273H139.045V62.0341C139.045 63.6629 138.663 65.1061 137.898 66.3636C137.133 67.6136 136.057 68.5985 134.67 69.3182C133.284 70.0303 131.659 70.3864 129.795 70.3864C127.939 70.3864 126.318 70.0303 124.932 69.3182C123.545 68.5985 122.47 67.6136 121.705 66.3636C120.939 65.1061 120.557 63.6629 120.557 62.0341V46.7273H124.068V61.75C124.068 62.803 124.299 63.7386 124.761 64.5568C125.231 65.375 125.894 66.0189 126.75 66.4886C127.606 66.9508 128.621 67.1818 129.795 67.1818C130.977 67.1818 131.996 66.9508 132.852 66.4886C133.716 66.0189 134.375 65.375 134.83 64.5568C135.292 63.7386 135.523 62.803 135.523 61.75V46.7273ZM143.878 76.5455V52.5455H147.196V55.375H147.48C147.677 55.0114 147.961 54.5909 148.332 54.1136C148.704 53.6364 149.219 53.2197 149.878 52.8636C150.537 52.5 151.408 52.3182 152.491 52.3182C153.901 52.3182 155.158 52.6742 156.264 53.3864C157.37 54.0985 158.238 55.125 158.866 56.4659C159.503 57.8068 159.821 59.4205 159.821 61.3068C159.821 63.1932 159.507 64.8106 158.878 66.1591C158.249 67.5 157.385 68.5341 156.287 69.2614C155.188 69.9811 153.935 70.3409 152.526 70.3409C151.465 70.3409 150.598 70.1629 149.923 69.8068C149.257 69.4508 148.734 69.0341 148.355 68.5568C147.976 68.0795 147.685 67.6553 147.48 67.2841H147.276V76.5455H143.878ZM147.207 61.2727C147.207 62.5 147.385 63.5758 147.741 64.5C148.098 65.4242 148.613 66.1477 149.287 66.6705C149.961 67.1856 150.787 67.4432 151.764 67.4432C152.779 67.4432 153.628 67.1742 154.31 66.6364C154.991 66.0909 155.507 65.3523 155.855 64.4205C156.211 63.4886 156.389 62.4394 156.389 61.2727C156.389 60.1212 156.215 59.0871 155.866 58.1705C155.526 57.2538 155.01 56.5303 154.321 56C153.639 55.4697 152.787 55.2045 151.764 55.2045C150.779 55.2045 149.946 55.4583 149.264 55.9659C148.59 56.4735 148.079 57.1818 147.73 58.0909C147.382 59 147.207 60.0606 147.207 61.2727ZM171.776 52.5455V55.2727H162.241V52.5455H171.776ZM164.798 48.3636H168.196V64.875C168.196 65.5341 168.295 66.0303 168.491 66.3636C168.688 66.6894 168.942 66.9129 169.253 67.0341C169.571 67.1477 169.916 67.2045 170.287 67.2045C170.56 67.2045 170.798 67.1856 171.003 67.1477C171.207 67.1098 171.366 67.0795 171.48 67.0568L172.094 69.8636C171.897 69.9394 171.616 70.0152 171.253 70.0909C170.889 70.1742 170.435 70.2197 169.889 70.2273C168.995 70.2424 168.162 70.0833 167.389 69.75C166.616 69.4167 165.991 68.9015 165.514 68.2045C165.037 67.5076 164.798 66.6326 164.798 65.5795V48.3636ZM182.699 70.3523C181.063 70.3523 179.634 69.9773 178.415 69.2273C177.195 68.4773 176.248 67.428 175.574 66.0795C174.9 64.7311 174.562 63.1553 174.562 61.3523C174.562 59.5417 174.9 57.9583 175.574 56.6023C176.248 55.2462 177.195 54.1932 178.415 53.4432C179.634 52.6932 181.063 52.3182 182.699 52.3182C184.335 52.3182 185.763 52.6932 186.983 53.4432C188.203 54.1932 189.15 55.2462 189.824 56.6023C190.498 57.9583 190.835 59.5417 190.835 61.3523C190.835 63.1553 190.498 64.7311 189.824 66.0795C189.15 67.428 188.203 68.4773 186.983 69.2273C185.763 69.9773 184.335 70.3523 182.699 70.3523ZM182.71 67.5C183.771 67.5 184.65 67.2197 185.347 66.6591C186.044 66.0985 186.559 65.3523 186.892 64.4205C187.233 63.4886 187.403 62.4621 187.403 61.3409C187.403 60.2273 187.233 59.2045 186.892 58.2727C186.559 57.3333 186.044 56.5795 185.347 56.0114C184.65 55.4432 183.771 55.1591 182.71 55.1591C181.642 55.1591 180.756 55.4432 180.051 56.0114C179.354 56.5795 178.835 57.3333 178.494 58.2727C178.161 59.2045 177.994 60.2273 177.994 61.3409C177.994 62.4621 178.161 63.4886 178.494 64.4205C178.835 65.3523 179.354 66.0985 180.051 66.6591C180.756 67.2197 181.642 67.5 182.71 67.5ZM211.881 46.7273V70H208.358V50.25H208.222L202.653 53.8864V50.5227L208.46 46.7273H211.881ZM226.278 70.3864C224.483 70.3788 222.949 69.9053 221.676 68.9659C220.403 68.0265 219.43 66.6591 218.756 64.8636C218.081 63.0682 217.744 60.9053 217.744 58.375C217.744 55.8523 218.081 53.697 218.756 51.9091C219.438 50.1212 220.415 48.7576 221.688 47.8182C222.968 46.8788 224.498 46.4091 226.278 46.4091C228.059 46.4091 229.585 46.8826 230.858 47.8295C232.131 48.7689 233.104 50.1326 233.778 51.9205C234.46 53.7008 234.801 55.8523 234.801 58.375C234.801 60.9129 234.464 63.0795 233.79 64.875C233.116 66.6629 232.142 68.0303 230.869 68.9773C229.597 69.9167 228.066 70.3864 226.278 70.3864ZM226.278 67.3523C227.854 67.3523 229.085 66.5833 229.972 65.0455C230.866 63.5076 231.312 61.2841 231.312 58.375C231.312 56.4432 231.108 54.8106 230.699 53.4773C230.297 52.1364 229.718 51.1212 228.96 50.4318C228.21 49.7348 227.316 49.3864 226.278 49.3864C224.71 49.3864 223.479 50.1591 222.585 51.7045C221.691 53.25 221.241 55.4735 221.233 58.375C221.233 60.3144 221.434 61.9545 221.835 63.2955C222.244 64.6288 222.824 65.6402 223.574 66.3295C224.324 67.0114 225.225 67.3523 226.278 67.3523ZM241.594 46.7273L247.162 55.8295H247.344L252.912 46.7273H256.98L249.73 58.3636L257.026 70H252.935L247.344 61.0227H247.162L241.571 70H237.48L244.901 58.3636L237.526 46.7273H241.594ZM268.932 70V46.7273H272.443V66.9773H282.989V70H268.932ZM294.244 70.3523C292.525 70.3523 291.044 69.9848 289.801 69.25C288.566 68.5076 287.612 67.4659 286.938 66.125C286.271 64.7765 285.938 63.197 285.938 61.3864C285.938 59.5985 286.271 58.0227 286.938 56.6591C287.612 55.2955 288.551 54.2311 289.756 53.4659C290.968 52.7008 292.384 52.3182 294.006 52.3182C294.991 52.3182 295.945 52.4811 296.869 52.8068C297.794 53.1326 298.623 53.6439 299.358 54.3409C300.093 55.0379 300.672 55.9432 301.097 57.0568C301.521 58.1629 301.733 59.5076 301.733 61.0909V62.2955H287.858V59.75H298.403C298.403 58.8561 298.222 58.0644 297.858 57.375C297.494 56.678 296.983 56.1288 296.324 55.7273C295.672 55.3258 294.907 55.125 294.028 55.125C293.074 55.125 292.241 55.3598 291.528 55.8295C290.824 56.2917 290.278 56.8977 289.892 57.6477C289.513 58.3902 289.324 59.197 289.324 60.0682V62.0568C289.324 63.2235 289.528 64.2159 289.938 65.0341C290.354 65.8523 290.934 66.4773 291.676 66.9091C292.419 67.3333 293.286 67.5455 294.278 67.5455C294.922 67.5455 295.509 67.4545 296.04 67.2727C296.57 67.0833 297.028 66.803 297.415 66.4318C297.801 66.0606 298.097 65.6023 298.301 65.0568L301.517 65.6364C301.259 66.5833 300.797 67.4129 300.131 68.125C299.472 68.8295 298.642 69.3788 297.642 69.7727C296.65 70.1591 295.517 70.3523 294.244 70.3523ZM319.935 52.5455L313.605 70H309.969L303.628 52.5455H307.276L311.696 65.9773H311.878L316.287 52.5455H319.935ZM330.057 70.3523C328.337 70.3523 326.856 69.9848 325.614 69.25C324.379 68.5076 323.424 67.4659 322.75 66.125C322.083 64.7765 321.75 63.197 321.75 61.3864C321.75 59.5985 322.083 58.0227 322.75 56.6591C323.424 55.2955 324.364 54.2311 325.568 53.4659C326.78 52.7008 328.197 52.3182 329.818 52.3182C330.803 52.3182 331.758 52.4811 332.682 52.8068C333.606 53.1326 334.436 53.6439 335.17 54.3409C335.905 55.0379 336.485 55.9432 336.909 57.0568C337.333 58.1629 337.545 59.5076 337.545 61.0909V62.2955H323.67V59.75H334.216C334.216 58.8561 334.034 58.0644 333.67 57.375C333.307 56.678 332.795 56.1288 332.136 55.7273C331.485 55.3258 330.72 55.125 329.841 55.125C328.886 55.125 328.053 55.3598 327.341 55.8295C326.636 56.2917 326.091 56.8977 325.705 57.6477C325.326 58.3902 325.136 59.197 325.136 60.0682V62.0568C325.136 63.2235 325.341 64.2159 325.75 65.0341C326.167 65.8523 326.746 66.4773 327.489 66.9091C328.231 67.3333 329.098 67.5455 330.091 67.5455C330.735 67.5455 331.322 67.4545 331.852 67.2727C332.383 67.0833 332.841 66.803 333.227 66.4318C333.614 66.0606 333.909 65.6023 334.114 65.0568L337.33 65.6364C337.072 66.5833 336.61 67.4129 335.943 68.125C335.284 68.8295 334.455 69.3788 333.455 69.7727C332.462 70.1591 331.33 70.3523 330.057 70.3523ZM341.315 70V52.5455H344.599V55.3182H344.781C345.099 54.3788 345.66 53.6402 346.463 53.1023C347.274 52.5568 348.19 52.2841 349.213 52.2841C349.425 52.2841 349.675 52.2917 349.963 52.3068C350.259 52.322 350.49 52.3409 350.656 52.3636V55.6136C350.52 55.5758 350.277 55.5341 349.929 55.4886C349.58 55.4356 349.232 55.4091 348.884 55.4091C348.08 55.4091 347.365 55.5795 346.736 55.9205C346.115 56.2538 345.622 56.7197 345.259 57.3182C344.895 57.9091 344.713 58.5833 344.713 59.3409V70H341.315ZM358.52 70.3864C357.414 70.3864 356.414 70.1818 355.52 69.7727C354.626 69.3561 353.918 68.7538 353.395 67.9659C352.88 67.178 352.622 66.2121 352.622 65.0682C352.622 64.0833 352.812 63.2727 353.19 62.6364C353.569 62 354.08 61.4962 354.724 61.125C355.368 60.7538 356.088 60.4735 356.884 60.2841C357.679 60.0947 358.49 59.9508 359.315 59.8523C360.361 59.7311 361.209 59.6326 361.861 59.5568C362.512 59.4735 362.986 59.3409 363.281 59.1591C363.577 58.9773 363.724 58.6818 363.724 58.2727V58.1932C363.724 57.2008 363.444 56.4318 362.884 55.8864C362.33 55.3409 361.505 55.0682 360.406 55.0682C359.262 55.0682 358.361 55.322 357.702 55.8295C357.05 56.3295 356.599 56.8864 356.349 57.5L353.156 56.7727C353.535 55.7121 354.088 54.8561 354.815 54.2045C355.55 53.5455 356.395 53.0682 357.349 52.7727C358.304 52.4697 359.308 52.3182 360.361 52.3182C361.058 52.3182 361.796 52.4015 362.577 52.5682C363.365 52.7273 364.099 53.0227 364.781 53.4545C365.471 53.8864 366.035 54.5038 366.474 55.3068C366.914 56.1023 367.134 57.1364 367.134 58.4091V70H363.815V67.6136H363.679C363.459 68.053 363.13 68.4848 362.69 68.9091C362.251 69.3333 361.687 69.6856 360.997 69.9659C360.308 70.2462 359.482 70.3864 358.52 70.3864ZM359.259 67.6591C360.198 67.6591 361.001 67.4735 361.668 67.1023C362.342 66.7311 362.853 66.2462 363.202 65.6477C363.558 65.0417 363.736 64.3939 363.736 63.7045V61.4545C363.615 61.5758 363.38 61.6894 363.031 61.7955C362.69 61.8939 362.3 61.9811 361.861 62.0568C361.421 62.125 360.993 62.1894 360.577 62.25C360.16 62.303 359.812 62.3485 359.531 62.3864C358.872 62.4697 358.27 62.6098 357.724 62.8068C357.187 63.0038 356.755 63.2879 356.429 63.6591C356.111 64.0227 355.952 64.5076 355.952 65.1136C355.952 65.9545 356.262 66.5909 356.884 67.0227C357.505 67.447 358.296 67.6591 359.259 67.6591ZM378.977 76.9091C377.591 76.9091 376.398 76.7273 375.398 76.3636C374.405 76 373.595 75.5189 372.966 74.9205C372.337 74.322 371.867 73.6667 371.557 72.9545L374.477 71.75C374.682 72.0833 374.955 72.4356 375.295 72.8068C375.644 73.1856 376.114 73.5076 376.705 73.7727C377.303 74.0379 378.072 74.1705 379.011 74.1705C380.299 74.1705 381.364 73.8561 382.205 73.2273C383.045 72.6061 383.466 71.6136 383.466 70.25V66.8182H383.25C383.045 67.1894 382.75 67.6023 382.364 68.0568C381.985 68.5114 381.462 68.9053 380.795 69.2386C380.129 69.572 379.261 69.7386 378.193 69.7386C376.814 69.7386 375.572 69.4167 374.466 68.7727C373.367 68.1212 372.496 67.1629 371.852 65.8977C371.216 64.625 370.898 63.0606 370.898 61.2045C370.898 59.3485 371.212 57.7576 371.841 56.4318C372.477 55.1061 373.348 54.0909 374.455 53.3864C375.561 52.6742 376.814 52.3182 378.216 52.3182C379.299 52.3182 380.174 52.5 380.841 52.8636C381.508 53.2197 382.027 53.6364 382.398 54.1136C382.777 54.5909 383.068 55.0114 383.273 55.375H383.523V52.5455H386.852V70.3864C386.852 71.8864 386.504 73.1174 385.807 74.0795C385.11 75.0417 384.167 75.7538 382.977 76.2159C381.795 76.678 380.462 76.9091 378.977 76.9091ZM378.943 66.9205C379.92 66.9205 380.746 66.6932 381.42 66.2386C382.102 65.7765 382.617 65.1174 382.966 64.2614C383.322 63.3977 383.5 62.3636 383.5 61.1591C383.5 59.9848 383.326 58.9508 382.977 58.0568C382.629 57.1629 382.117 56.4659 381.443 55.9659C380.769 55.4583 379.936 55.2045 378.943 55.2045C377.92 55.2045 377.068 55.4697 376.386 56C375.705 56.5227 375.189 57.2348 374.841 58.1364C374.5 59.0379 374.33 60.0455 374.33 61.1591C374.33 62.303 374.504 63.3068 374.852 64.1705C375.201 65.0341 375.716 65.7083 376.398 66.1932C377.087 66.678 377.936 66.9205 378.943 66.9205ZM398.932 70.3523C397.212 70.3523 395.731 69.9848 394.489 69.25C393.254 68.5076 392.299 67.4659 391.625 66.125C390.958 64.7765 390.625 63.197 390.625 61.3864C390.625 59.5985 390.958 58.0227 391.625 56.6591C392.299 55.2955 393.239 54.2311 394.443 53.4659C395.655 52.7008 397.072 52.3182 398.693 52.3182C399.678 52.3182 400.633 52.4811 401.557 52.8068C402.481 53.1326 403.311 53.6439 404.045 54.3409C404.78 55.0379 405.36 55.9432 405.784 57.0568C406.208 58.1629 406.42 59.5076 406.42 61.0909V62.2955H392.545V59.75H403.091C403.091 58.8561 402.909 58.0644 402.545 57.375C402.182 56.678 401.67 56.1288 401.011 55.7273C400.36 55.3258 399.595 55.125 398.716 55.125C397.761 55.125 396.928 55.3598 396.216 55.8295C395.511 56.2917 394.966 56.8977 394.58 57.6477C394.201 58.3902 394.011 59.197 394.011 60.0682V62.0568C394.011 63.2235 394.216 64.2159 394.625 65.0341C395.042 65.8523 395.621 66.4773 396.364 66.9091C397.106 67.3333 397.973 67.5455 398.966 67.5455C399.61 67.5455 400.197 67.4545 400.727 67.2727C401.258 67.0833 401.716 66.803 402.102 66.4318C402.489 66.0606 402.784 65.6023 402.989 65.0568L406.205 65.6364C405.947 66.5833 405.485 67.4129 404.818 68.125C404.159 68.8295 403.33 69.3788 402.33 69.7727C401.337 70.1591 400.205 70.3523 398.932 70.3523ZM419.648 58.3636C419.648 55.5152 420.023 52.8939 420.773 50.5C421.523 48.1061 422.617 45.8977 424.057 43.875H427.17C426.61 44.625 426.087 45.5455 425.602 46.6364C425.117 47.7273 424.693 48.9242 424.33 50.2273C423.966 51.5227 423.682 52.8674 423.477 54.2614C423.273 55.6477 423.17 57.0152 423.17 58.3636C423.17 60.1667 423.348 61.9924 423.705 63.8409C424.061 65.6894 424.542 67.4053 425.148 68.9886C425.754 70.572 426.428 71.8636 427.17 72.8636H424.057C422.617 70.8409 421.523 68.6326 420.773 66.2386C420.023 63.8447 419.648 61.2197 419.648 58.3636ZM431.026 46.7273H435.287L442.696 64.8182H442.969L450.378 46.7273H454.639V70H451.298V53.1591H451.082L444.219 69.9659H441.446L434.582 53.1477H434.366V70H431.026V46.7273ZM464.551 70.3864C463.445 70.3864 462.445 70.1818 461.551 69.7727C460.657 69.3561 459.949 68.7538 459.426 67.9659C458.911 67.178 458.653 66.2121 458.653 65.0682C458.653 64.0833 458.843 63.2727 459.222 62.6364C459.6 62 460.112 61.4962 460.756 61.125C461.4 60.7538 462.119 60.4735 462.915 60.2841C463.71 60.0947 464.521 59.9508 465.347 59.8523C466.392 59.7311 467.241 59.6326 467.892 59.5568C468.544 59.4735 469.017 59.3409 469.312 59.1591C469.608 58.9773 469.756 58.6818 469.756 58.2727V58.1932C469.756 57.2008 469.475 56.4318 468.915 55.8864C468.362 55.3409 467.536 55.0682 466.438 55.0682C465.294 55.0682 464.392 55.322 463.733 55.8295C463.081 56.3295 462.631 56.8864 462.381 57.5L459.188 56.7727C459.566 55.7121 460.119 54.8561 460.847 54.2045C461.581 53.5455 462.426 53.0682 463.381 52.7727C464.335 52.4697 465.339 52.3182 466.392 52.3182C467.089 52.3182 467.828 52.4015 468.608 52.5682C469.396 52.7273 470.131 53.0227 470.812 53.4545C471.502 53.8864 472.066 54.5038 472.506 55.3068C472.945 56.1023 473.165 57.1364 473.165 58.4091V70H469.847V67.6136H469.71C469.491 68.053 469.161 68.4848 468.722 68.9091C468.282 69.3333 467.718 69.6856 467.028 69.9659C466.339 70.2462 465.513 70.3864 464.551 70.3864ZM465.29 67.6591C466.229 67.6591 467.032 67.4735 467.699 67.1023C468.373 66.7311 468.884 66.2462 469.233 65.6477C469.589 65.0417 469.767 64.3939 469.767 63.7045V61.4545C469.646 61.5758 469.411 61.6894 469.062 61.7955C468.722 61.8939 468.331 61.9811 467.892 62.0568C467.453 62.125 467.025 62.1894 466.608 62.25C466.191 62.303 465.843 62.3485 465.562 62.3864C464.903 62.4697 464.301 62.6098 463.756 62.8068C463.218 63.0038 462.786 63.2879 462.46 63.6591C462.142 64.0227 461.983 64.5076 461.983 65.1136C461.983 65.9545 462.294 66.5909 462.915 67.0227C463.536 67.447 464.328 67.6591 465.29 67.6591ZM477.69 70V52.5455H481.088V70H477.69ZM479.406 49.8523C478.815 49.8523 478.308 49.6553 477.884 49.2614C477.467 48.8598 477.259 48.3826 477.259 47.8295C477.259 47.2689 477.467 46.7917 477.884 46.3977C478.308 45.9962 478.815 45.7955 479.406 45.7955C479.997 45.7955 480.501 45.9962 480.918 46.3977C481.342 46.7917 481.554 47.2689 481.554 47.8295C481.554 48.3826 481.342 48.8598 480.918 49.2614C480.501 49.6553 479.997 49.8523 479.406 49.8523ZM489.057 59.6364V70H485.659V52.5455H488.92V55.3864H489.136C489.538 54.4621 490.167 53.7197 491.023 53.1591C491.886 52.5985 492.973 52.3182 494.284 52.3182C495.473 52.3182 496.515 52.5682 497.409 53.0682C498.303 53.5606 498.996 54.2955 499.489 55.2727C499.981 56.25 500.227 57.4583 500.227 58.8977V70H496.83V59.3068C496.83 58.0417 496.5 57.053 495.841 56.3409C495.182 55.6212 494.277 55.2614 493.125 55.2614C492.337 55.2614 491.636 55.4318 491.023 55.7727C490.417 56.1136 489.936 56.6136 489.58 57.2727C489.231 57.9242 489.057 58.7121 489.057 59.6364ZM508.182 59.6364V70H504.784V52.5455H508.045V55.3864H508.261C508.663 54.4621 509.292 53.7197 510.148 53.1591C511.011 52.5985 512.098 52.3182 513.409 52.3182C514.598 52.3182 515.64 52.5682 516.534 53.0682C517.428 53.5606 518.121 54.2955 518.614 55.2727C519.106 56.25 519.352 57.4583 519.352 58.8977V70H515.955V59.3068C515.955 58.0417 515.625 57.053 514.966 56.3409C514.307 55.6212 513.402 55.2614 512.25 55.2614C511.462 55.2614 510.761 55.4318 510.148 55.7727C509.542 56.1136 509.061 56.6136 508.705 57.2727C508.356 57.9242 508.182 58.7121 508.182 59.6364ZM531.432 70.3523C529.712 70.3523 528.231 69.9848 526.989 69.25C525.754 68.5076 524.799 67.4659 524.125 66.125C523.458 64.7765 523.125 63.197 523.125 61.3864C523.125 59.5985 523.458 58.0227 524.125 56.6591C524.799 55.2955 525.739 54.2311 526.943 53.4659C528.155 52.7008 529.572 52.3182 531.193 52.3182C532.178 52.3182 533.133 52.4811 534.057 52.8068C534.981 53.1326 535.811 53.6439 536.545 54.3409C537.28 55.0379 537.86 55.9432 538.284 57.0568C538.708 58.1629 538.92 59.5076 538.92 61.0909V62.2955H525.045V59.75H535.591C535.591 58.8561 535.409 58.0644 535.045 57.375C534.682 56.678 534.17 56.1288 533.511 55.7273C532.86 55.3258 532.095 55.125 531.216 55.125C530.261 55.125 529.428 55.3598 528.716 55.8295C528.011 56.2917 527.466 56.8977 527.08 57.6477C526.701 58.3902 526.511 59.197 526.511 60.0682V62.0568C526.511 63.2235 526.716 64.2159 527.125 65.0341C527.542 65.8523 528.121 66.4773 528.864 66.9091C529.606 67.3333 530.473 67.5455 531.466 67.5455C532.11 67.5455 532.697 67.4545 533.227 67.2727C533.758 67.0833 534.216 66.803 534.602 66.4318C534.989 66.0606 535.284 65.6023 535.489 65.0568L538.705 65.6364C538.447 66.5833 537.985 67.4129 537.318 68.125C536.659 68.8295 535.83 69.3788 534.83 69.7727C533.837 70.1591 532.705 70.3523 531.432 70.3523ZM550.838 52.5455V55.2727H541.304V52.5455H550.838ZM543.861 48.3636H547.259V64.875C547.259 65.5341 547.357 66.0303 547.554 66.3636C547.751 66.6894 548.005 66.9129 548.315 67.0341C548.634 67.1477 548.978 67.2045 549.349 67.2045C549.622 67.2045 549.861 67.1856 550.065 67.1477C550.27 67.1098 550.429 67.0795 550.543 67.0568L551.156 69.8636C550.959 69.9394 550.679 70.0152 550.315 70.0909C549.952 70.1742 549.497 70.2197 548.952 70.2273C548.058 70.2424 547.224 70.0833 546.452 69.75C545.679 69.4167 545.054 68.9015 544.577 68.2045C544.099 67.5076 543.861 66.6326 543.861 65.5795V48.3636ZM561.131 60.3409C561.131 63.197 560.756 65.822 560.006 68.2159C559.256 70.6098 558.161 72.8182 556.722 74.8409H553.608C554.169 74.0909 554.691 73.1705 555.176 72.0795C555.661 70.9886 556.085 69.7955 556.449 68.5C556.813 67.197 557.097 65.8485 557.301 64.4545C557.506 63.0606 557.608 61.6894 557.608 60.3409C557.608 58.5455 557.43 56.7235 557.074 54.875C556.718 53.0265 556.237 51.3106 555.631 49.7273C555.025 48.1439 554.35 46.8523 553.608 45.8523H556.722C558.161 47.875 559.256 50.0833 560.006 52.4773C560.756 54.8712 561.131 57.4924 561.131 60.3409ZM94.0085 104.727C93.0919 104.727 92.2547 104.504 91.4972 104.057C90.7396 103.602 90.1335 102.996 89.679 102.239C89.232 101.481 89.0085 100.644 89.0085 99.7273C89.0085 98.803 89.232 97.9659 89.679 97.2159C90.1335 96.4583 90.7396 95.8561 91.4972 95.4091C92.2547 94.9545 93.0919 94.7273 94.0085 94.7273C94.9328 94.7273 95.7699 94.9545 96.5199 95.4091C97.2775 95.8561 97.8797 96.4583 98.3267 97.2159C98.7813 97.9659 99.0085 98.803 99.0085 99.7273C99.0085 100.644 98.7813 101.481 98.3267 102.239C97.8797 102.996 97.2775 103.602 96.5199 104.057C95.7699 104.504 94.9328 104.727 94.0085 104.727ZM124.068 85.7273V109H120.557V85.7273H124.068ZM141.989 95.8068L138.909 96.3523C138.78 95.9583 138.576 95.5833 138.295 95.2273C138.023 94.8712 137.652 94.5795 137.182 94.3523C136.712 94.125 136.125 94.0114 135.42 94.0114C134.458 94.0114 133.655 94.2273 133.011 94.6591C132.367 95.0833 132.045 95.6326 132.045 96.3068C132.045 96.8902 132.261 97.3598 132.693 97.7159C133.125 98.072 133.822 98.3636 134.784 98.5909L137.557 99.2273C139.163 99.5985 140.36 100.17 141.148 100.943C141.936 101.716 142.33 102.72 142.33 103.955C142.33 105 142.027 105.932 141.42 106.75C140.822 107.561 139.985 108.197 138.909 108.659C137.841 109.121 136.602 109.352 135.193 109.352C133.239 109.352 131.644 108.936 130.409 108.102C129.174 107.261 128.417 106.068 128.136 104.523L131.42 104.023C131.625 104.879 132.045 105.527 132.682 105.966C133.318 106.398 134.148 106.614 135.17 106.614C136.284 106.614 137.174 106.383 137.841 105.92C138.508 105.451 138.841 104.879 138.841 104.205C138.841 103.659 138.636 103.201 138.227 102.83C137.826 102.458 137.208 102.178 136.375 101.989L133.42 101.341C131.792 100.97 130.587 100.379 129.807 99.5682C129.034 98.7576 128.648 97.7311 128.648 96.4886C128.648 95.4583 128.936 94.5568 129.511 93.7841C130.087 93.0114 130.883 92.4091 131.898 91.9773C132.913 91.5379 134.076 91.3182 135.386 91.3182C137.273 91.3182 138.758 91.7273 139.841 92.5455C140.924 93.3561 141.64 94.4432 141.989 95.8068ZM153.418 109.352C151.781 109.352 150.353 108.977 149.134 108.227C147.914 107.477 146.967 106.428 146.293 105.08C145.618 103.731 145.281 102.155 145.281 100.352C145.281 98.5417 145.618 96.9583 146.293 95.6023C146.967 94.2462 147.914 93.1932 149.134 92.4432C150.353 91.6932 151.781 91.3182 153.418 91.3182C155.054 91.3182 156.482 91.6932 157.702 92.4432C158.921 93.1932 159.868 94.2462 160.543 95.6023C161.217 96.9583 161.554 98.5417 161.554 100.352C161.554 102.155 161.217 103.731 160.543 105.08C159.868 106.428 158.921 107.477 157.702 108.227C156.482 108.977 155.054 109.352 153.418 109.352ZM153.429 106.5C154.49 106.5 155.368 106.22 156.065 105.659C156.762 105.098 157.277 104.352 157.611 103.42C157.952 102.489 158.122 101.462 158.122 100.341C158.122 99.2273 157.952 98.2045 157.611 97.2727C157.277 96.3333 156.762 95.5795 156.065 95.0114C155.368 94.4432 154.49 94.1591 153.429 94.1591C152.361 94.1591 151.474 94.4432 150.77 95.0114C150.073 95.5795 149.554 96.3333 149.213 97.2727C148.88 98.2045 148.713 99.2273 148.713 100.341C148.713 101.462 148.88 102.489 149.213 103.42C149.554 104.352 150.073 105.098 150.77 105.659C151.474 106.22 152.361 106.5 153.429 106.5ZM168.744 85.7273V109H165.347V85.7273H168.744ZM178.395 109.386C177.289 109.386 176.289 109.182 175.395 108.773C174.501 108.356 173.793 107.754 173.27 106.966C172.755 106.178 172.497 105.212 172.497 104.068C172.497 103.083 172.687 102.273 173.065 101.636C173.444 101 173.955 100.496 174.599 100.125C175.243 99.7538 175.963 99.4735 176.759 99.2841C177.554 99.0947 178.365 98.9508 179.19 98.8523C180.236 98.7311 181.084 98.6326 181.736 98.5568C182.387 98.4735 182.861 98.3409 183.156 98.1591C183.452 97.9773 183.599 97.6818 183.599 97.2727V97.1932C183.599 96.2008 183.319 95.4318 182.759 94.8864C182.205 94.3409 181.38 94.0682 180.281 94.0682C179.137 94.0682 178.236 94.322 177.577 94.8295C176.925 95.3295 176.474 95.8864 176.224 96.5L173.031 95.7727C173.41 94.7121 173.963 93.8561 174.69 93.2045C175.425 92.5455 176.27 92.0682 177.224 91.7727C178.179 91.4697 179.183 91.3182 180.236 91.3182C180.933 91.3182 181.671 91.4015 182.452 91.5682C183.24 91.7273 183.974 92.0227 184.656 92.4545C185.346 92.8864 185.91 93.5038 186.349 94.3068C186.789 95.1023 187.009 96.1364 187.009 97.4091V109H183.69V106.614H183.554C183.334 107.053 183.005 107.485 182.565 107.909C182.126 108.333 181.562 108.686 180.872 108.966C180.183 109.246 179.357 109.386 178.395 109.386ZM179.134 106.659C180.073 106.659 180.876 106.473 181.543 106.102C182.217 105.731 182.728 105.246 183.077 104.648C183.433 104.042 183.611 103.394 183.611 102.705V100.455C183.49 100.576 183.255 100.689 182.906 100.795C182.565 100.894 182.175 100.981 181.736 101.057C181.296 101.125 180.868 101.189 180.452 101.25C180.035 101.303 179.687 101.348 179.406 101.386C178.747 101.47 178.145 101.61 177.599 101.807C177.062 102.004 176.63 102.288 176.304 102.659C175.986 103.023 175.827 103.508 175.827 104.114C175.827 104.955 176.137 105.591 176.759 106.023C177.38 106.447 178.171 106.659 179.134 106.659ZM199.682 91.5455V94.2727H190.148V91.5455H199.682ZM192.705 87.3636H196.102V103.875C196.102 104.534 196.201 105.03 196.398 105.364C196.595 105.689 196.848 105.913 197.159 106.034C197.477 106.148 197.822 106.205 198.193 106.205C198.466 106.205 198.705 106.186 198.909 106.148C199.114 106.11 199.273 106.08 199.386 106.057L200 108.864C199.803 108.939 199.523 109.015 199.159 109.091C198.795 109.174 198.341 109.22 197.795 109.227C196.902 109.242 196.068 109.083 195.295 108.75C194.523 108.417 193.898 107.902 193.42 107.205C192.943 106.508 192.705 105.633 192.705 104.58V87.3636ZM210.776 109.352C209.056 109.352 207.575 108.985 206.332 108.25C205.098 107.508 204.143 106.466 203.469 105.125C202.802 103.777 202.469 102.197 202.469 100.386C202.469 98.5985 202.802 97.0227 203.469 95.6591C204.143 94.2955 205.082 93.2311 206.287 92.4659C207.499 91.7008 208.916 91.3182 210.537 91.3182C211.522 91.3182 212.476 91.4811 213.401 91.8068C214.325 92.1326 215.154 92.6439 215.889 93.3409C216.624 94.0379 217.204 94.9432 217.628 96.0568C218.052 97.1629 218.264 98.5076 218.264 100.091V101.295H204.389V98.75H214.935C214.935 97.8561 214.753 97.0644 214.389 96.375C214.026 95.678 213.514 95.1288 212.855 94.7273C212.204 94.3258 211.438 94.125 210.56 94.125C209.605 94.125 208.772 94.3598 208.06 94.8295C207.355 95.2917 206.81 95.8977 206.423 96.6477C206.045 97.3902 205.855 98.197 205.855 99.0682V101.057C205.855 102.223 206.06 103.216 206.469 104.034C206.885 104.852 207.465 105.477 208.207 105.909C208.95 106.333 209.817 106.545 210.81 106.545C211.454 106.545 212.041 106.455 212.571 106.273C213.101 106.083 213.56 105.803 213.946 105.432C214.332 105.061 214.628 104.602 214.832 104.057L218.048 104.636C217.791 105.583 217.329 106.413 216.662 107.125C216.003 107.83 215.173 108.379 214.173 108.773C213.181 109.159 212.048 109.352 210.776 109.352ZM228.568 109.341C227.159 109.341 225.902 108.981 224.795 108.261C223.697 107.534 222.833 106.5 222.205 105.159C221.583 103.811 221.273 102.193 221.273 100.307C221.273 98.4205 221.587 96.8068 222.216 95.4659C222.852 94.125 223.723 93.0985 224.83 92.3864C225.936 91.6742 227.189 91.3182 228.591 91.3182C229.674 91.3182 230.545 91.5 231.205 91.8636C231.871 92.2197 232.386 92.6364 232.75 93.1136C233.121 93.5909 233.409 94.0114 233.614 94.375H233.818V85.7273H237.216V109H233.898V106.284H233.614C233.409 106.655 233.114 107.08 232.727 107.557C232.348 108.034 231.826 108.451 231.159 108.807C230.492 109.163 229.629 109.341 228.568 109.341ZM229.318 106.443C230.295 106.443 231.121 106.186 231.795 105.67C232.477 105.148 232.992 104.424 233.341 103.5C233.697 102.576 233.875 101.5 233.875 100.273C233.875 99.0606 233.701 98 233.352 97.0909C233.004 96.1818 232.492 95.4735 231.818 94.9659C231.144 94.4583 230.311 94.2045 229.318 94.2045C228.295 94.2045 227.443 94.4697 226.761 95C226.08 95.5303 225.564 96.2538 225.216 97.1705C224.875 98.0871 224.705 99.1212 224.705 100.273C224.705 101.439 224.879 102.489 225.227 103.42C225.576 104.352 226.091 105.091 226.773 105.636C227.462 106.174 228.311 106.443 229.318 106.443ZM250.807 85.7273H255.068L262.477 103.818H262.75L270.159 85.7273H274.42V109H271.08V92.1591H270.864L264 108.966H261.227L254.364 92.1477H254.148V109H250.807V85.7273ZM284.332 109.386C283.226 109.386 282.226 109.182 281.332 108.773C280.438 108.356 279.73 107.754 279.207 106.966C278.692 106.178 278.435 105.212 278.435 104.068C278.435 103.083 278.624 102.273 279.003 101.636C279.382 101 279.893 100.496 280.537 100.125C281.181 99.7538 281.901 99.4735 282.696 99.2841C283.491 99.0947 284.302 98.9508 285.128 98.8523C286.173 98.7311 287.022 98.6326 287.673 98.5568C288.325 98.4735 288.798 98.3409 289.094 98.1591C289.389 97.9773 289.537 97.6818 289.537 97.2727V97.1932C289.537 96.2008 289.257 95.4318 288.696 94.8864C288.143 94.3409 287.317 94.0682 286.219 94.0682C285.075 94.0682 284.173 94.322 283.514 94.8295C282.863 95.3295 282.412 95.8864 282.162 96.5L278.969 95.7727C279.348 94.7121 279.901 93.8561 280.628 93.2045C281.363 92.5455 282.207 92.0682 283.162 91.7727C284.116 91.4697 285.12 91.3182 286.173 91.3182C286.87 91.3182 287.609 91.4015 288.389 91.5682C289.177 91.7273 289.912 92.0227 290.594 92.4545C291.283 92.8864 291.848 93.5038 292.287 94.3068C292.726 95.1023 292.946 96.1364 292.946 97.4091V109H289.628V106.614H289.491C289.272 107.053 288.942 107.485 288.503 107.909C288.063 108.333 287.499 108.686 286.81 108.966C286.12 109.246 285.295 109.386 284.332 109.386ZM285.071 106.659C286.01 106.659 286.813 106.473 287.48 106.102C288.154 105.731 288.666 105.246 289.014 104.648C289.37 104.042 289.548 103.394 289.548 102.705V100.455C289.427 100.576 289.192 100.689 288.844 100.795C288.503 100.894 288.113 100.981 287.673 101.057C287.234 101.125 286.806 101.189 286.389 101.25C285.973 101.303 285.624 101.348 285.344 101.386C284.685 101.47 284.082 101.61 283.537 101.807C282.999 102.004 282.567 102.288 282.241 102.659C281.923 103.023 281.764 103.508 281.764 104.114C281.764 104.955 282.075 105.591 282.696 106.023C283.317 106.447 284.109 106.659 285.071 106.659ZM297.472 109V91.5455H300.756V94.3182H300.938C301.256 93.3788 301.816 92.6402 302.619 92.1023C303.43 91.5568 304.347 91.2841 305.369 91.2841C305.581 91.2841 305.831 91.2917 306.119 91.3068C306.415 91.322 306.646 91.3409 306.812 91.3636V94.6136C306.676 94.5758 306.434 94.5341 306.085 94.4886C305.737 94.4356 305.388 94.4091 305.04 94.4091C304.237 94.4091 303.521 94.5795 302.892 94.9205C302.271 95.2538 301.778 95.7197 301.415 96.3182C301.051 96.9091 300.869 97.5833 300.869 98.3409V109H297.472ZM316.446 115.909C315.06 115.909 313.866 115.727 312.866 115.364C311.874 115 311.063 114.519 310.435 113.92C309.806 113.322 309.336 112.667 309.026 111.955L311.946 110.75C312.151 111.083 312.423 111.436 312.764 111.807C313.113 112.186 313.582 112.508 314.173 112.773C314.772 113.038 315.541 113.17 316.48 113.17C317.768 113.17 318.832 112.856 319.673 112.227C320.514 111.606 320.935 110.614 320.935 109.25V105.818H320.719C320.514 106.189 320.219 106.602 319.832 107.057C319.454 107.511 318.931 107.905 318.264 108.239C317.598 108.572 316.73 108.739 315.662 108.739C314.283 108.739 313.041 108.417 311.935 107.773C310.836 107.121 309.965 106.163 309.321 104.898C308.685 103.625 308.366 102.061 308.366 100.205C308.366 98.3485 308.681 96.7576 309.31 95.4318C309.946 94.1061 310.817 93.0909 311.923 92.3864C313.029 91.6742 314.283 91.3182 315.685 91.3182C316.768 91.3182 317.643 91.5 318.31 91.8636C318.976 92.2197 319.495 92.6364 319.866 93.1136C320.245 93.5909 320.537 94.0114 320.741 94.375H320.991V91.5455H324.321V109.386C324.321 110.886 323.973 112.117 323.276 113.08C322.579 114.042 321.635 114.754 320.446 115.216C319.264 115.678 317.931 115.909 316.446 115.909ZM316.412 105.92C317.389 105.92 318.215 105.693 318.889 105.239C319.571 104.777 320.086 104.117 320.435 103.261C320.791 102.398 320.969 101.364 320.969 100.159C320.969 98.9848 320.795 97.9508 320.446 97.0568C320.098 96.1629 319.586 95.4659 318.912 94.9659C318.238 94.4583 317.404 94.2045 316.412 94.2045C315.389 94.2045 314.537 94.4697 313.855 95C313.173 95.5227 312.658 96.2348 312.31 97.1364C311.969 98.0379 311.798 99.0455 311.798 100.159C311.798 101.303 311.973 102.307 312.321 103.17C312.67 104.034 313.185 104.708 313.866 105.193C314.556 105.678 315.404 105.92 316.412 105.92ZM328.878 109V91.5455H332.276V109H328.878ZM330.594 88.8523C330.003 88.8523 329.495 88.6553 329.071 88.2614C328.654 87.8598 328.446 87.3826 328.446 86.8295C328.446 86.2689 328.654 85.7917 329.071 85.3977C329.495 84.9962 330.003 84.7955 330.594 84.7955C331.185 84.7955 331.688 84.9962 332.105 85.3977C332.529 85.7917 332.741 86.2689 332.741 86.8295C332.741 87.3826 332.529 87.8598 332.105 88.2614C331.688 88.6553 331.185 88.8523 330.594 88.8523ZM340.244 98.6364V109H336.847V91.5455H340.108V94.3864H340.324C340.725 93.4621 341.354 92.7197 342.21 92.1591C343.074 91.5985 344.161 91.3182 345.472 91.3182C346.661 91.3182 347.703 91.5682 348.597 92.0682C349.491 92.5606 350.184 93.2955 350.676 94.2727C351.169 95.25 351.415 96.4583 351.415 97.8977V109H348.017V98.3068C348.017 97.0417 347.688 96.053 347.028 95.3409C346.369 94.6212 345.464 94.2614 344.312 94.2614C343.525 94.2614 342.824 94.4318 342.21 94.7727C341.604 95.1136 341.123 95.6136 340.767 96.2727C340.419 96.9242 340.244 97.7121 340.244 98.6364ZM363.565 88.75V85.7273H381.577V88.75H374.315V109H370.815V88.75H363.565ZM383.472 109V91.5455H386.756V94.3182H386.938C387.256 93.3788 387.816 92.6402 388.619 92.1023C389.43 91.5568 390.347 91.2841 391.369 91.2841C391.581 91.2841 391.831 91.2917 392.119 91.3068C392.415 91.322 392.646 91.3409 392.812 91.3636V94.6136C392.676 94.5758 392.434 94.5341 392.085 94.4886C391.737 94.4356 391.388 94.4091 391.04 94.4091C390.237 94.4091 389.521 94.5795 388.892 94.9205C388.271 95.2538 387.778 95.7197 387.415 96.3182C387.051 96.9091 386.869 97.5833 386.869 98.3409V109H383.472ZM400.676 109.386C399.57 109.386 398.57 109.182 397.676 108.773C396.782 108.356 396.074 107.754 395.551 106.966C395.036 106.178 394.778 105.212 394.778 104.068C394.778 103.083 394.968 102.273 395.347 101.636C395.725 101 396.237 100.496 396.881 100.125C397.525 99.7538 398.244 99.4735 399.04 99.2841C399.835 99.0947 400.646 98.9508 401.472 98.8523C402.517 98.7311 403.366 98.6326 404.017 98.5568C404.669 98.4735 405.142 98.3409 405.438 98.1591C405.733 97.9773 405.881 97.6818 405.881 97.2727V97.1932C405.881 96.2008 405.6 95.4318 405.04 94.8864C404.487 94.3409 403.661 94.0682 402.562 94.0682C401.419 94.0682 400.517 94.322 399.858 94.8295C399.206 95.3295 398.756 95.8864 398.506 96.5L395.312 95.7727C395.691 94.7121 396.244 93.8561 396.972 93.2045C397.706 92.5455 398.551 92.0682 399.506 91.7727C400.46 91.4697 401.464 91.3182 402.517 91.3182C403.214 91.3182 403.953 91.4015 404.733 91.5682C405.521 91.7273 406.256 92.0227 406.938 92.4545C407.627 92.8864 408.191 93.5038 408.631 94.3068C409.07 95.1023 409.29 96.1364 409.29 97.4091V109H405.972V106.614H405.835C405.616 107.053 405.286 107.485 404.847 107.909C404.407 108.333 403.843 108.686 403.153 108.966C402.464 109.246 401.638 109.386 400.676 109.386ZM401.415 106.659C402.354 106.659 403.157 106.473 403.824 106.102C404.498 105.731 405.009 105.246 405.358 104.648C405.714 104.042 405.892 103.394 405.892 102.705V100.455C405.771 100.576 405.536 100.689 405.188 100.795C404.847 100.894 404.456 100.981 404.017 101.057C403.578 101.125 403.15 101.189 402.733 101.25C402.316 101.303 401.968 101.348 401.688 101.386C401.028 101.47 400.426 101.61 399.881 101.807C399.343 102.004 398.911 102.288 398.585 102.659C398.267 103.023 398.108 103.508 398.108 104.114C398.108 104.955 398.419 105.591 399.04 106.023C399.661 106.447 400.453 106.659 401.415 106.659ZM420.349 109.341C418.94 109.341 417.683 108.981 416.577 108.261C415.478 107.534 414.615 106.5 413.986 105.159C413.365 103.811 413.054 102.193 413.054 100.307C413.054 98.4205 413.368 96.8068 413.997 95.4659C414.634 94.125 415.505 93.0985 416.611 92.3864C417.717 91.6742 418.971 91.3182 420.372 91.3182C421.455 91.3182 422.327 91.5 422.986 91.8636C423.652 92.2197 424.168 92.6364 424.531 93.1136C424.902 93.5909 425.19 94.0114 425.395 94.375H425.599V85.7273H428.997V109H425.679V106.284H425.395C425.19 106.655 424.895 107.08 424.509 107.557C424.13 108.034 423.607 108.451 422.94 108.807C422.274 109.163 421.41 109.341 420.349 109.341ZM421.099 106.443C422.077 106.443 422.902 106.186 423.577 105.67C424.259 105.148 424.774 104.424 425.122 103.5C425.478 102.576 425.656 101.5 425.656 100.273C425.656 99.0606 425.482 98 425.134 97.0909C424.785 96.1818 424.274 95.4735 423.599 94.9659C422.925 94.4583 422.092 94.2045 421.099 94.2045C420.077 94.2045 419.224 94.4697 418.543 95C417.861 95.5303 417.346 96.2538 416.997 97.1705C416.656 98.0871 416.486 99.1212 416.486 100.273C416.486 101.439 416.66 102.489 417.009 103.42C417.357 104.352 417.872 105.091 418.554 105.636C419.243 106.174 420.092 106.443 421.099 106.443ZM441.369 109.352C439.65 109.352 438.169 108.985 436.926 108.25C435.691 107.508 434.737 106.466 434.062 105.125C433.396 103.777 433.062 102.197 433.062 100.386C433.062 98.5985 433.396 97.0227 434.062 95.6591C434.737 94.2955 435.676 93.2311 436.881 92.4659C438.093 91.7008 439.509 91.3182 441.131 91.3182C442.116 91.3182 443.07 91.4811 443.994 91.8068C444.919 92.1326 445.748 92.6439 446.483 93.3409C447.218 94.0379 447.797 94.9432 448.222 96.0568C448.646 97.1629 448.858 98.5076 448.858 100.091V101.295H434.983V98.75H445.528C445.528 97.8561 445.347 97.0644 444.983 96.375C444.619 95.678 444.108 95.1288 443.449 94.7273C442.797 94.3258 442.032 94.125 441.153 94.125C440.199 94.125 439.366 94.3598 438.653 94.8295C437.949 95.2917 437.403 95.8977 437.017 96.6477C436.638 97.3902 436.449 98.197 436.449 99.0682V101.057C436.449 102.223 436.653 103.216 437.062 104.034C437.479 104.852 438.059 105.477 438.801 105.909C439.544 106.333 440.411 106.545 441.403 106.545C442.047 106.545 442.634 106.455 443.165 106.273C443.695 106.083 444.153 105.803 444.54 105.432C444.926 105.061 445.222 104.602 445.426 104.057L448.642 104.636C448.384 105.583 447.922 106.413 447.256 107.125C446.597 107.83 445.767 108.379 444.767 108.773C443.775 109.159 442.642 109.352 441.369 109.352ZM94.0085 143.727C93.0919 143.727 92.2547 143.504 91.4972 143.057C90.7396 142.602 90.1335 141.996 89.679 141.239C89.232 140.481 89.0085 139.644 89.0085 138.727C89.0085 137.803 89.232 136.966 89.679 136.216C90.1335 135.458 90.7396 134.856 91.4972 134.409C92.2547 133.955 93.0919 133.727 94.0085 133.727C94.9328 133.727 95.7699 133.955 96.5199 134.409C97.2775 134.856 97.8797 135.458 98.3267 136.216C98.7813 136.966 99.0085 137.803 99.0085 138.727C99.0085 139.644 98.7813 140.481 98.3267 141.239C97.8797 141.996 97.2775 142.602 96.5199 143.057C95.7699 143.504 94.9328 143.727 94.0085 143.727ZM139.886 132.295H136.341C136.205 131.538 135.951 130.871 135.58 130.295C135.208 129.72 134.754 129.231 134.216 128.83C133.678 128.428 133.076 128.125 132.409 127.92C131.75 127.716 131.049 127.614 130.307 127.614C128.966 127.614 127.765 127.951 126.705 128.625C125.652 129.299 124.818 130.288 124.205 131.591C123.598 132.894 123.295 134.485 123.295 136.364C123.295 138.258 123.598 139.856 124.205 141.159C124.818 142.462 125.655 143.447 126.716 144.114C127.777 144.78 128.97 145.114 130.295 145.114C131.03 145.114 131.727 145.015 132.386 144.818C133.053 144.614 133.655 144.314 134.193 143.92C134.731 143.527 135.186 143.045 135.557 142.477C135.936 141.902 136.197 141.242 136.341 140.5L139.886 140.511C139.697 141.655 139.33 142.708 138.784 143.67C138.246 144.625 137.553 145.451 136.705 146.148C135.864 146.837 134.902 147.371 133.818 147.75C132.735 148.129 131.553 148.318 130.273 148.318C128.258 148.318 126.462 147.841 124.886 146.886C123.311 145.924 122.068 144.549 121.159 142.761C120.258 140.973 119.807 138.841 119.807 136.364C119.807 133.879 120.261 131.746 121.17 129.966C122.08 128.178 123.322 126.807 124.898 125.852C126.473 124.89 128.265 124.409 130.273 124.409C131.508 124.409 132.659 124.587 133.727 124.943C134.803 125.292 135.769 125.807 136.625 126.489C137.481 127.163 138.189 127.989 138.75 128.966C139.311 129.936 139.689 131.045 139.886 132.295ZM143.815 148V130.545H147.099V133.318H147.281C147.599 132.379 148.16 131.64 148.963 131.102C149.774 130.557 150.69 130.284 151.713 130.284C151.925 130.284 152.175 130.292 152.463 130.307C152.759 130.322 152.99 130.341 153.156 130.364V133.614C153.02 133.576 152.777 133.534 152.429 133.489C152.08 133.436 151.732 133.409 151.384 133.409C150.58 133.409 149.865 133.58 149.236 133.92C148.615 134.254 148.122 134.72 147.759 135.318C147.395 135.909 147.213 136.583 147.213 137.341V148H143.815ZM162.824 148.352C161.188 148.352 159.759 147.977 158.54 147.227C157.32 146.477 156.373 145.428 155.699 144.08C155.025 142.731 154.688 141.155 154.688 139.352C154.688 137.542 155.025 135.958 155.699 134.602C156.373 133.246 157.32 132.193 158.54 131.443C159.759 130.693 161.188 130.318 162.824 130.318C164.46 130.318 165.888 130.693 167.108 131.443C168.328 132.193 169.275 133.246 169.949 134.602C170.623 135.958 170.96 137.542 170.96 139.352C170.96 141.155 170.623 142.731 169.949 144.08C169.275 145.428 168.328 146.477 167.108 147.227C165.888 147.977 164.46 148.352 162.824 148.352ZM162.835 145.5C163.896 145.5 164.775 145.22 165.472 144.659C166.169 144.098 166.684 143.352 167.017 142.42C167.358 141.489 167.528 140.462 167.528 139.341C167.528 138.227 167.358 137.205 167.017 136.273C166.684 135.333 166.169 134.58 165.472 134.011C164.775 133.443 163.896 133.159 162.835 133.159C161.767 133.159 160.881 133.443 160.176 134.011C159.479 134.58 158.96 135.333 158.619 136.273C158.286 137.205 158.119 138.227 158.119 139.341C158.119 140.462 158.286 141.489 158.619 142.42C158.96 143.352 159.479 144.098 160.176 144.659C160.881 145.22 161.767 145.5 162.835 145.5ZM187.832 134.807L184.753 135.352C184.624 134.958 184.42 134.583 184.139 134.227C183.866 133.871 183.495 133.58 183.026 133.352C182.556 133.125 181.969 133.011 181.264 133.011C180.302 133.011 179.499 133.227 178.855 133.659C178.211 134.083 177.889 134.633 177.889 135.307C177.889 135.89 178.105 136.36 178.537 136.716C178.969 137.072 179.666 137.364 180.628 137.591L183.401 138.227C185.007 138.598 186.204 139.17 186.991 139.943C187.779 140.716 188.173 141.72 188.173 142.955C188.173 144 187.87 144.932 187.264 145.75C186.666 146.561 185.829 147.197 184.753 147.659C183.685 148.121 182.446 148.352 181.037 148.352C179.082 148.352 177.488 147.936 176.253 147.102C175.018 146.261 174.26 145.068 173.98 143.523L177.264 143.023C177.469 143.879 177.889 144.527 178.526 144.966C179.162 145.398 179.991 145.614 181.014 145.614C182.128 145.614 183.018 145.383 183.685 144.92C184.351 144.451 184.685 143.879 184.685 143.205C184.685 142.659 184.48 142.201 184.071 141.83C183.67 141.458 183.052 141.178 182.219 140.989L179.264 140.341C177.635 139.97 176.431 139.379 175.651 138.568C174.878 137.758 174.491 136.731 174.491 135.489C174.491 134.458 174.779 133.557 175.355 132.784C175.931 132.011 176.726 131.409 177.741 130.977C178.757 130.538 179.92 130.318 181.23 130.318C183.116 130.318 184.601 130.727 185.685 131.545C186.768 132.356 187.484 133.443 187.832 134.807ZM204.989 134.807L201.909 135.352C201.78 134.958 201.576 134.583 201.295 134.227C201.023 133.871 200.652 133.58 200.182 133.352C199.712 133.125 199.125 133.011 198.42 133.011C197.458 133.011 196.655 133.227 196.011 133.659C195.367 134.083 195.045 134.633 195.045 135.307C195.045 135.89 195.261 136.36 195.693 136.716C196.125 137.072 196.822 137.364 197.784 137.591L200.557 138.227C202.163 138.598 203.36 139.17 204.148 139.943C204.936 140.716 205.33 141.72 205.33 142.955C205.33 144 205.027 144.932 204.42 145.75C203.822 146.561 202.985 147.197 201.909 147.659C200.841 148.121 199.602 148.352 198.193 148.352C196.239 148.352 194.644 147.936 193.409 147.102C192.174 146.261 191.417 145.068 191.136 143.523L194.42 143.023C194.625 143.879 195.045 144.527 195.682 144.966C196.318 145.398 197.148 145.614 198.17 145.614C199.284 145.614 200.174 145.383 200.841 144.92C201.508 144.451 201.841 143.879 201.841 143.205C201.841 142.659 201.636 142.201 201.227 141.83C200.826 141.458 200.208 141.178 199.375 140.989L196.42 140.341C194.792 139.97 193.587 139.379 192.807 138.568C192.034 137.758 191.648 136.731 191.648 135.489C191.648 134.458 191.936 133.557 192.511 132.784C193.087 132.011 193.883 131.409 194.898 130.977C195.913 130.538 197.076 130.318 198.386 130.318C200.273 130.318 201.758 130.727 202.841 131.545C203.924 132.356 204.64 133.443 204.989 134.807ZM217.807 124.727H222.068L229.477 142.818H229.75L237.159 124.727H241.42V148H238.08V131.159H237.864L231 147.966H228.227L221.364 131.148H221.148V148H217.807V124.727ZM251.332 148.386C250.226 148.386 249.226 148.182 248.332 147.773C247.438 147.356 246.73 146.754 246.207 145.966C245.692 145.178 245.435 144.212 245.435 143.068C245.435 142.083 245.624 141.273 246.003 140.636C246.382 140 246.893 139.496 247.537 139.125C248.181 138.754 248.901 138.473 249.696 138.284C250.491 138.095 251.302 137.951 252.128 137.852C253.173 137.731 254.022 137.633 254.673 137.557C255.325 137.473 255.798 137.341 256.094 137.159C256.389 136.977 256.537 136.682 256.537 136.273V136.193C256.537 135.201 256.257 134.432 255.696 133.886C255.143 133.341 254.317 133.068 253.219 133.068C252.075 133.068 251.173 133.322 250.514 133.83C249.863 134.33 249.412 134.886 249.162 135.5L245.969 134.773C246.348 133.712 246.901 132.856 247.628 132.205C248.363 131.545 249.207 131.068 250.162 130.773C251.116 130.47 252.12 130.318 253.173 130.318C253.87 130.318 254.609 130.402 255.389 130.568C256.177 130.727 256.912 131.023 257.594 131.455C258.283 131.886 258.848 132.504 259.287 133.307C259.726 134.102 259.946 135.136 259.946 136.409V148H256.628V145.614H256.491C256.272 146.053 255.942 146.485 255.503 146.909C255.063 147.333 254.499 147.686 253.81 147.966C253.12 148.246 252.295 148.386 251.332 148.386ZM252.071 145.659C253.01 145.659 253.813 145.473 254.48 145.102C255.154 144.731 255.666 144.246 256.014 143.648C256.37 143.042 256.548 142.394 256.548 141.705V139.455C256.427 139.576 256.192 139.689 255.844 139.795C255.503 139.894 255.113 139.981 254.673 140.057C254.234 140.125 253.806 140.189 253.389 140.25C252.973 140.303 252.624 140.348 252.344 140.386C251.685 140.47 251.082 140.61 250.537 140.807C249.999 141.004 249.567 141.288 249.241 141.659C248.923 142.023 248.764 142.508 248.764 143.114C248.764 143.955 249.075 144.591 249.696 145.023C250.317 145.447 251.109 145.659 252.071 145.659ZM264.472 148V130.545H267.756V133.318H267.938C268.256 132.379 268.816 131.64 269.619 131.102C270.43 130.557 271.347 130.284 272.369 130.284C272.581 130.284 272.831 130.292 273.119 130.307C273.415 130.322 273.646 130.341 273.812 130.364V133.614C273.676 133.576 273.434 133.534 273.085 133.489C272.737 133.436 272.388 133.409 272.04 133.409C271.237 133.409 270.521 133.58 269.892 133.92C269.271 134.254 268.778 134.72 268.415 135.318C268.051 135.909 267.869 136.583 267.869 137.341V148H264.472ZM283.446 154.909C282.06 154.909 280.866 154.727 279.866 154.364C278.874 154 278.063 153.519 277.435 152.92C276.806 152.322 276.336 151.667 276.026 150.955L278.946 149.75C279.151 150.083 279.423 150.436 279.764 150.807C280.113 151.186 280.582 151.508 281.173 151.773C281.772 152.038 282.541 152.17 283.48 152.17C284.768 152.17 285.832 151.856 286.673 151.227C287.514 150.606 287.935 149.614 287.935 148.25V144.818H287.719C287.514 145.189 287.219 145.602 286.832 146.057C286.454 146.511 285.931 146.905 285.264 147.239C284.598 147.572 283.73 147.739 282.662 147.739C281.283 147.739 280.041 147.417 278.935 146.773C277.836 146.121 276.965 145.163 276.321 143.898C275.685 142.625 275.366 141.061 275.366 139.205C275.366 137.348 275.681 135.758 276.31 134.432C276.946 133.106 277.817 132.091 278.923 131.386C280.029 130.674 281.283 130.318 282.685 130.318C283.768 130.318 284.643 130.5 285.31 130.864C285.976 131.22 286.495 131.636 286.866 132.114C287.245 132.591 287.537 133.011 287.741 133.375H287.991V130.545H291.321V148.386C291.321 149.886 290.973 151.117 290.276 152.08C289.579 153.042 288.635 153.754 287.446 154.216C286.264 154.678 284.931 154.909 283.446 154.909ZM283.412 144.92C284.389 144.92 285.215 144.693 285.889 144.239C286.571 143.777 287.086 143.117 287.435 142.261C287.791 141.398 287.969 140.364 287.969 139.159C287.969 137.985 287.795 136.951 287.446 136.057C287.098 135.163 286.586 134.466 285.912 133.966C285.238 133.458 284.404 133.205 283.412 133.205C282.389 133.205 281.537 133.47 280.855 134C280.173 134.523 279.658 135.235 279.31 136.136C278.969 137.038 278.798 138.045 278.798 139.159C278.798 140.303 278.973 141.307 279.321 142.17C279.67 143.034 280.185 143.708 280.866 144.193C281.556 144.678 282.404 144.92 283.412 144.92ZM295.878 148V130.545H299.276V148H295.878ZM297.594 127.852C297.003 127.852 296.495 127.655 296.071 127.261C295.654 126.86 295.446 126.383 295.446 125.83C295.446 125.269 295.654 124.792 296.071 124.398C296.495 123.996 297.003 123.795 297.594 123.795C298.185 123.795 298.688 123.996 299.105 124.398C299.529 124.792 299.741 125.269 299.741 125.83C299.741 126.383 299.529 126.86 299.105 127.261C298.688 127.655 298.185 127.852 297.594 127.852ZM307.244 137.636V148H303.847V130.545H307.108V133.386H307.324C307.725 132.462 308.354 131.72 309.21 131.159C310.074 130.598 311.161 130.318 312.472 130.318C313.661 130.318 314.703 130.568 315.597 131.068C316.491 131.561 317.184 132.295 317.676 133.273C318.169 134.25 318.415 135.458 318.415 136.898V148H315.017V137.307C315.017 136.042 314.688 135.053 314.028 134.341C313.369 133.621 312.464 133.261 311.312 133.261C310.525 133.261 309.824 133.432 309.21 133.773C308.604 134.114 308.123 134.614 307.767 135.273C307.419 135.924 307.244 136.712 307.244 137.636ZM330.565 127.75V124.727H348.577V127.75H341.315V148H337.815V127.75H330.565ZM350.472 148V130.545H353.756V133.318H353.938C354.256 132.379 354.816 131.64 355.619 131.102C356.43 130.557 357.347 130.284 358.369 130.284C358.581 130.284 358.831 130.292 359.119 130.307C359.415 130.322 359.646 130.341 359.812 130.364V133.614C359.676 133.576 359.434 133.534 359.085 133.489C358.737 133.436 358.388 133.409 358.04 133.409C357.237 133.409 356.521 133.58 355.892 133.92C355.271 134.254 354.778 134.72 354.415 135.318C354.051 135.909 353.869 136.583 353.869 137.341V148H350.472ZM367.676 148.386C366.57 148.386 365.57 148.182 364.676 147.773C363.782 147.356 363.074 146.754 362.551 145.966C362.036 145.178 361.778 144.212 361.778 143.068C361.778 142.083 361.968 141.273 362.347 140.636C362.725 140 363.237 139.496 363.881 139.125C364.525 138.754 365.244 138.473 366.04 138.284C366.835 138.095 367.646 137.951 368.472 137.852C369.517 137.731 370.366 137.633 371.017 137.557C371.669 137.473 372.142 137.341 372.438 137.159C372.733 136.977 372.881 136.682 372.881 136.273V136.193C372.881 135.201 372.6 134.432 372.04 133.886C371.487 133.341 370.661 133.068 369.562 133.068C368.419 133.068 367.517 133.322 366.858 133.83C366.206 134.33 365.756 134.886 365.506 135.5L362.312 134.773C362.691 133.712 363.244 132.856 363.972 132.205C364.706 131.545 365.551 131.068 366.506 130.773C367.46 130.47 368.464 130.318 369.517 130.318C370.214 130.318 370.953 130.402 371.733 130.568C372.521 130.727 373.256 131.023 373.938 131.455C374.627 131.886 375.191 132.504 375.631 133.307C376.07 134.102 376.29 135.136 376.29 136.409V148H372.972V145.614H372.835C372.616 146.053 372.286 146.485 371.847 146.909C371.407 147.333 370.843 147.686 370.153 147.966C369.464 148.246 368.638 148.386 367.676 148.386ZM368.415 145.659C369.354 145.659 370.157 145.473 370.824 145.102C371.498 144.731 372.009 144.246 372.358 143.648C372.714 143.042 372.892 142.394 372.892 141.705V139.455C372.771 139.576 372.536 139.689 372.188 139.795C371.847 139.894 371.456 139.981 371.017 140.057C370.578 140.125 370.15 140.189 369.733 140.25C369.316 140.303 368.968 140.348 368.688 140.386C368.028 140.47 367.426 140.61 366.881 140.807C366.343 141.004 365.911 141.288 365.585 141.659C365.267 142.023 365.108 142.508 365.108 143.114C365.108 143.955 365.419 144.591 366.04 145.023C366.661 145.447 367.453 145.659 368.415 145.659ZM387.349 148.341C385.94 148.341 384.683 147.981 383.577 147.261C382.478 146.534 381.615 145.5 380.986 144.159C380.365 142.811 380.054 141.193 380.054 139.307C380.054 137.42 380.368 135.807 380.997 134.466C381.634 133.125 382.505 132.098 383.611 131.386C384.717 130.674 385.971 130.318 387.372 130.318C388.455 130.318 389.327 130.5 389.986 130.864C390.652 131.22 391.168 131.636 391.531 132.114C391.902 132.591 392.19 133.011 392.395 133.375H392.599V124.727H395.997V148H392.679V145.284H392.395C392.19 145.655 391.895 146.08 391.509 146.557C391.13 147.034 390.607 147.451 389.94 147.807C389.274 148.163 388.41 148.341 387.349 148.341ZM388.099 145.443C389.077 145.443 389.902 145.186 390.577 144.67C391.259 144.148 391.774 143.424 392.122 142.5C392.478 141.576 392.656 140.5 392.656 139.273C392.656 138.061 392.482 137 392.134 136.091C391.785 135.182 391.274 134.473 390.599 133.966C389.925 133.458 389.092 133.205 388.099 133.205C387.077 133.205 386.224 133.47 385.543 134C384.861 134.53 384.346 135.254 383.997 136.17C383.656 137.087 383.486 138.121 383.486 139.273C383.486 140.439 383.66 141.489 384.009 142.42C384.357 143.352 384.872 144.091 385.554 144.636C386.243 145.174 387.092 145.443 388.099 145.443ZM408.369 148.352C406.65 148.352 405.169 147.985 403.926 147.25C402.691 146.508 401.737 145.466 401.062 144.125C400.396 142.777 400.062 141.197 400.062 139.386C400.062 137.598 400.396 136.023 401.062 134.659C401.737 133.295 402.676 132.231 403.881 131.466C405.093 130.701 406.509 130.318 408.131 130.318C409.116 130.318 410.07 130.481 410.994 130.807C411.919 131.133 412.748 131.644 413.483 132.341C414.218 133.038 414.797 133.943 415.222 135.057C415.646 136.163 415.858 137.508 415.858 139.091V140.295H401.983V137.75H412.528C412.528 136.856 412.347 136.064 411.983 135.375C411.619 134.678 411.108 134.129 410.449 133.727C409.797 133.326 409.032 133.125 408.153 133.125C407.199 133.125 406.366 133.36 405.653 133.83C404.949 134.292 404.403 134.898 404.017 135.648C403.638 136.39 403.449 137.197 403.449 138.068V140.057C403.449 141.223 403.653 142.216 404.062 143.034C404.479 143.852 405.059 144.477 405.801 144.909C406.544 145.333 407.411 145.545 408.403 145.545C409.047 145.545 409.634 145.455 410.165 145.273C410.695 145.083 411.153 144.803 411.54 144.432C411.926 144.061 412.222 143.602 412.426 143.057L415.642 143.636C415.384 144.583 414.922 145.413 414.256 146.125C413.597 146.83 412.767 147.379 411.767 147.773C410.775 148.159 409.642 148.352 408.369 148.352Z" fill="#BA1E71"/>
<line x1="94.5" y1="20" x2="94.5" y2="335" stroke="#BA1E71"/>
</svg>
