<svg width="646" height="386" viewBox="0 0 646 386" fill="none" xmlns="http://www.w3.org/2000/svg">
<path d="M368 335L314 379.167V290.833L368 335Z" fill="#BA1E71"/>
<path fill-rule="evenodd" clip-rule="evenodd" d="M0.204542 379L54 335L0.204542 291H314V379H0.204542Z" fill="#BA1E71"/>
<path d="M128.011 349V346.443L137.614 335.932C138.741 334.701 139.669 333.631 140.398 332.722C141.127 331.803 141.667 330.941 142.017 330.136C142.377 329.322 142.557 328.47 142.557 327.58C142.557 326.557 142.311 325.671 141.818 324.923C141.335 324.175 140.672 323.598 139.83 323.19C138.987 322.783 138.04 322.58 136.989 322.58C135.871 322.58 134.896 322.812 134.062 323.276C133.239 323.73 132.599 324.369 132.145 325.193C131.7 326.017 131.477 326.983 131.477 328.091H128.125C128.125 326.386 128.518 324.89 129.304 323.602C130.09 322.314 131.16 321.311 132.514 320.591C133.878 319.871 135.407 319.511 137.102 319.511C138.807 319.511 140.317 319.871 141.634 320.591C142.95 321.311 143.982 322.281 144.73 323.503C145.478 324.724 145.852 326.083 145.852 327.58C145.852 328.65 145.658 329.696 145.27 330.719C144.891 331.732 144.228 332.864 143.281 334.114C142.344 335.354 141.042 336.869 139.375 338.659L132.841 345.648V345.875H146.364V349H128.011ZM161.719 349.398C159.579 349.398 157.756 348.815 156.25 347.651C154.744 346.476 153.594 344.777 152.798 342.551C152.003 340.316 151.605 337.617 151.605 334.455C151.605 331.311 152.003 328.626 152.798 326.401C153.603 324.166 154.759 322.461 156.264 321.287C157.779 320.103 159.598 319.511 161.719 319.511C163.84 319.511 165.653 320.103 167.159 321.287C168.674 322.461 169.83 324.166 170.625 326.401C171.43 328.626 171.832 331.311 171.832 334.455C171.832 337.617 171.435 340.316 170.639 342.551C169.844 344.777 168.693 346.476 167.188 347.651C165.682 348.815 163.859 349.398 161.719 349.398ZM161.719 346.273C163.84 346.273 165.488 345.25 166.662 343.205C167.836 341.159 168.423 338.242 168.423 334.455C168.423 331.936 168.153 329.791 167.614 328.02C167.083 326.249 166.316 324.9 165.312 323.972C164.318 323.044 163.12 322.58 161.719 322.58C159.616 322.58 157.973 323.616 156.79 325.69C155.606 327.755 155.014 330.676 155.014 334.455C155.014 336.973 155.279 339.114 155.81 340.875C156.34 342.636 157.102 343.976 158.097 344.895C159.1 345.813 160.308 346.273 161.719 346.273ZM177.23 349V346.443L186.832 335.932C187.959 334.701 188.887 333.631 189.616 332.722C190.346 331.803 190.885 330.941 191.236 330.136C191.596 329.322 191.776 328.47 191.776 327.58C191.776 326.557 191.529 325.671 191.037 324.923C190.554 324.175 189.891 323.598 189.048 323.19C188.205 322.783 187.259 322.58 186.207 322.58C185.09 322.58 184.115 322.812 183.281 323.276C182.457 323.73 181.818 324.369 181.364 325.193C180.919 326.017 180.696 326.983 180.696 328.091H177.344C177.344 326.386 177.737 324.89 178.523 323.602C179.309 322.314 180.379 321.311 181.733 320.591C183.097 319.871 184.626 319.511 186.321 319.511C188.026 319.511 189.536 319.871 190.852 320.591C192.169 321.311 193.201 322.281 193.949 323.503C194.697 324.724 195.071 326.083 195.071 327.58C195.071 328.65 194.877 329.696 194.489 330.719C194.11 331.732 193.447 332.864 192.5 334.114C191.562 335.354 190.26 336.869 188.594 338.659L182.06 345.648V345.875H195.582V349H177.23ZM210.54 349.398C208.873 349.398 207.372 349.066 206.037 348.403C204.702 347.741 203.632 346.831 202.827 345.676C202.022 344.521 201.581 343.205 201.506 341.727H204.915C205.047 343.044 205.644 344.133 206.705 344.994C207.775 345.847 209.053 346.273 210.54 346.273C211.733 346.273 212.794 345.993 213.722 345.435C214.659 344.876 215.393 344.109 215.923 343.134C216.463 342.149 216.733 341.036 216.733 339.795C216.733 338.527 216.454 337.395 215.895 336.401C215.346 335.397 214.588 334.606 213.622 334.028C212.656 333.451 211.553 333.157 210.312 333.148C209.422 333.138 208.509 333.276 207.571 333.56C206.634 333.834 205.862 334.189 205.256 334.625L201.96 334.227L203.722 319.909H218.835V323.034H206.676L205.653 331.614H205.824C206.42 331.14 207.169 330.747 208.068 330.435C208.968 330.122 209.905 329.966 210.881 329.966C212.661 329.966 214.247 330.392 215.639 331.244C217.041 332.087 218.139 333.242 218.935 334.71C219.74 336.178 220.142 337.854 220.142 339.739C220.142 341.595 219.725 343.252 218.892 344.71C218.068 346.159 216.932 347.305 215.483 348.148C214.034 348.981 212.386 349.398 210.54 349.398ZM248.114 339.909H251.978L255.217 344.17L256.069 345.307L260.898 351.727H257.035L253.853 347.466L253.058 346.386L248.114 339.909ZM262.092 334.455C262.092 337.523 261.538 340.174 260.43 342.409C259.322 344.644 257.802 346.367 255.87 347.58C253.938 348.792 251.732 349.398 249.251 349.398C246.77 349.398 244.563 348.792 242.631 347.58C240.7 346.367 239.18 344.644 238.072 342.409C236.964 340.174 236.41 337.523 236.41 334.455C236.41 331.386 236.964 328.735 238.072 326.5C239.18 324.265 240.7 322.542 242.631 321.33C244.563 320.117 246.77 319.511 249.251 319.511C251.732 319.511 253.938 320.117 255.87 321.33C257.802 322.542 259.322 324.265 260.43 326.5C261.538 328.735 262.092 331.386 262.092 334.455ZM258.683 334.455C258.683 331.936 258.261 329.81 257.418 328.077C256.585 326.344 255.453 325.032 254.023 324.142C252.603 323.252 251.012 322.807 249.251 322.807C247.489 322.807 245.894 323.252 244.464 324.142C243.043 325.032 241.912 326.344 241.069 328.077C240.236 329.81 239.819 331.936 239.819 334.455C239.819 336.973 240.236 339.099 241.069 340.832C241.912 342.565 243.043 343.877 244.464 344.767C245.894 345.657 247.489 346.102 249.251 346.102C251.012 346.102 252.603 345.657 254.023 344.767C255.453 343.877 256.585 342.565 257.418 340.832C258.261 339.099 258.683 336.973 258.683 334.455ZM267.504 349V346.443L277.106 335.932C278.233 334.701 279.161 333.631 279.89 332.722C280.619 331.803 281.159 330.941 281.509 330.136C281.869 329.322 282.049 328.47 282.049 327.58C282.049 326.557 281.803 325.671 281.31 324.923C280.827 324.175 280.165 323.598 279.322 323.19C278.479 322.783 277.532 322.58 276.481 322.58C275.363 322.58 274.388 322.812 273.555 323.276C272.731 323.73 272.092 324.369 271.637 325.193C271.192 326.017 270.969 326.983 270.969 328.091H267.617C267.617 326.386 268.01 324.89 268.796 323.602C269.582 322.314 270.652 321.311 272.006 320.591C273.37 319.871 274.899 319.511 276.594 319.511C278.299 319.511 279.809 319.871 281.126 320.591C282.442 321.311 283.474 322.281 284.222 323.503C284.97 324.724 285.344 326.083 285.344 327.58C285.344 328.65 285.15 329.696 284.762 330.719C284.383 331.732 283.72 332.864 282.773 334.114C281.836 335.354 280.534 336.869 278.867 338.659L272.333 345.648V345.875H285.856V349H267.504Z" fill="black"/>
<circle cx="93.5" cy="335.5" r="8.5" fill="#D9D9D9"/>
<path d="M93.2131 26.7273C92.2964 26.7273 91.4593 26.5038 90.7017 26.0568C89.9442 25.6023 89.3381 24.9962 88.8836 24.2386C88.4366 23.4811 88.2131 22.6439 88.2131 21.7273C88.2131 20.803 88.4366 19.9659 88.8836 19.2159C89.3381 18.4583 89.9442 17.8561 90.7017 17.4091C91.4593 16.9545 92.2964 16.7273 93.2131 16.7273C94.1374 16.7273 94.9745 16.9545 95.7245 17.4091C96.4821 17.8561 97.0843 18.4583 97.5313 19.2159C97.9858 19.9659 98.2131 20.803 98.2131 21.7273C98.2131 22.6439 97.9858 23.4811 97.5313 24.2386C97.0843 24.9962 96.4821 25.6023 95.7245 26.0568C94.9745 26.5038 94.1374 26.7273 93.2131 26.7273ZM119.761 31V7.72727H134.193V10.75H123.273V17.8409H133.159V20.8523H123.273V31H119.761ZM148.202 23.7614V13.5455H151.611V31H148.27V27.9773H148.088C147.687 28.9091 147.043 29.6856 146.156 30.3068C145.278 30.9205 144.183 31.2273 142.872 31.2273C141.751 31.2273 140.759 30.9811 139.895 30.4886C139.039 29.9886 138.365 29.25 137.872 28.2727C137.387 27.2955 137.145 26.0871 137.145 24.6477V13.5455H140.543V24.2386C140.543 25.428 140.872 26.375 141.531 27.0795C142.19 27.7841 143.046 28.1364 144.099 28.1364C144.736 28.1364 145.368 27.9773 145.997 27.6591C146.634 27.3409 147.16 26.8598 147.577 26.2159C148.001 25.572 148.209 24.7538 148.202 23.7614ZM164.324 13.5455V16.2727H154.79V13.5455H164.324ZM157.347 9.36364H160.744V25.875C160.744 26.5341 160.843 27.0303 161.04 27.3636C161.237 27.6894 161.491 27.9129 161.801 28.0341C162.119 28.1477 162.464 28.2045 162.835 28.2045C163.108 28.2045 163.347 28.1856 163.551 28.1477C163.756 28.1098 163.915 28.0795 164.028 28.0568L164.642 30.8636C164.445 30.9394 164.165 31.0152 163.801 31.0909C163.438 31.1742 162.983 31.2197 162.438 31.2273C161.544 31.2424 160.71 31.0833 159.938 30.75C159.165 30.4167 158.54 29.9015 158.063 29.2045C157.585 28.5076 157.347 27.6326 157.347 26.5795V9.36364ZM179.139 23.7614V13.5455H182.548V31H179.207V27.9773H179.026C178.624 28.9091 177.98 29.6856 177.094 30.3068C176.215 30.9205 175.12 31.2273 173.81 31.2273C172.688 31.2273 171.696 30.9811 170.832 30.4886C169.976 29.9886 169.302 29.25 168.81 28.2727C168.325 27.2955 168.082 26.0871 168.082 24.6477V13.5455H171.48V24.2386C171.48 25.428 171.81 26.375 172.469 27.0795C173.128 27.7841 173.984 28.1364 175.037 28.1364C175.673 28.1364 176.306 27.9773 176.935 27.6591C177.571 27.3409 178.098 26.8598 178.514 26.2159C178.938 25.572 179.147 24.7538 179.139 23.7614ZM187.114 31V13.5455H190.398V16.3182H190.58C190.898 15.3788 191.458 14.6402 192.261 14.1023C193.072 13.5568 193.989 13.2841 195.011 13.2841C195.224 13.2841 195.474 13.2917 195.761 13.3068C196.057 13.322 196.288 13.3409 196.455 13.3636V16.6136C196.318 16.5758 196.076 16.5341 195.727 16.4886C195.379 16.4356 195.03 16.4091 194.682 16.4091C193.879 16.4091 193.163 16.5795 192.534 16.9205C191.913 17.2538 191.42 17.7197 191.057 18.3182C190.693 18.9091 190.511 19.5833 190.511 20.3409V31H187.114ZM206.293 31.3523C204.573 31.3523 203.092 30.9848 201.849 30.25C200.615 29.5076 199.66 28.4659 198.986 27.125C198.319 25.7765 197.986 24.197 197.986 22.3864C197.986 20.5985 198.319 19.0227 198.986 17.6591C199.66 16.2955 200.599 15.2311 201.804 14.4659C203.016 13.7008 204.433 13.3182 206.054 13.3182C207.039 13.3182 207.993 13.4811 208.918 13.8068C209.842 14.1326 210.671 14.6439 211.406 15.3409C212.141 16.0379 212.721 16.9432 213.145 18.0568C213.569 19.1629 213.781 20.5076 213.781 22.0909V23.2955H199.906V20.75H210.452C210.452 19.8561 210.27 19.0644 209.906 18.375C209.543 17.678 209.031 17.1288 208.372 16.7273C207.721 16.3258 206.956 16.125 206.077 16.125C205.122 16.125 204.289 16.3598 203.577 16.8295C202.872 17.2917 202.327 17.8977 201.94 18.6477C201.562 19.3902 201.372 20.197 201.372 21.0682V23.0568C201.372 24.2235 201.577 25.2159 201.986 26.0341C202.403 26.8523 202.982 27.4773 203.724 27.9091C204.467 28.3333 205.334 28.5455 206.327 28.5455C206.971 28.5455 207.558 28.4545 208.088 28.2727C208.618 28.0833 209.077 27.803 209.463 27.4318C209.849 27.0606 210.145 26.6023 210.349 26.0568L213.565 26.6364C213.308 27.5833 212.846 28.4129 212.179 29.125C211.52 29.8295 210.69 30.3788 209.69 30.7727C208.698 31.1591 207.565 31.3523 206.293 31.3523ZM233.827 31H226.293V7.72727H234.065C236.346 7.72727 238.304 8.19318 239.94 9.125C241.577 10.0492 242.831 11.3788 243.702 13.1136C244.581 14.8409 245.02 16.9129 245.02 19.3295C245.02 21.7538 244.577 23.8371 243.69 25.5795C242.812 27.322 241.539 28.6629 239.872 29.6023C238.206 30.5341 236.19 31 233.827 31ZM229.804 27.9318H233.634C235.406 27.9318 236.88 27.5985 238.054 26.9318C239.228 26.2576 240.107 25.2841 240.69 24.0114C241.274 22.7311 241.565 21.1705 241.565 19.3295C241.565 17.5038 241.274 15.9545 240.69 14.6818C240.115 13.4091 239.255 12.4432 238.111 11.7841C236.967 11.125 235.546 10.7955 233.849 10.7955H229.804V27.9318ZM249.386 31V7.72727H263.977V10.75H252.898V17.8409H263.216V20.8523H252.898V27.9773H264.114V31H249.386ZM271.111 7.72727L276.679 16.8295H276.861L282.429 7.72727H286.497L279.247 19.3636L286.543 31H282.452L276.861 22.0227H276.679L271.088 31H266.997L274.418 19.3636L267.043 7.72727H271.111ZM298.449 7.72727H302.71L310.119 25.8182H310.392L317.801 7.72727H322.063V31H318.722V14.1591H318.506L311.642 30.9659H308.869L302.006 14.1477H301.79V31H298.449V7.72727ZM331.974 31.3864C330.868 31.3864 329.868 31.1818 328.974 30.7727C328.081 30.3561 327.372 29.7538 326.849 28.9659C326.334 28.178 326.077 27.2121 326.077 26.0682C326.077 25.0833 326.266 24.2727 326.645 23.6364C327.024 23 327.535 22.4962 328.179 22.125C328.823 21.7538 329.543 21.4735 330.338 21.2841C331.134 21.0947 331.944 20.9508 332.77 20.8523C333.815 20.7311 334.664 20.6326 335.315 20.5568C335.967 20.4735 336.44 20.3409 336.736 20.1591C337.031 19.9773 337.179 19.6818 337.179 19.2727V19.1932C337.179 18.2008 336.899 17.4318 336.338 16.8864C335.785 16.3409 334.959 16.0682 333.861 16.0682C332.717 16.0682 331.815 16.322 331.156 16.8295C330.505 17.3295 330.054 17.8864 329.804 18.5L326.611 17.7727C326.99 16.7121 327.543 15.8561 328.27 15.2045C329.005 14.5455 329.849 14.0682 330.804 13.7727C331.759 13.4697 332.762 13.3182 333.815 13.3182C334.512 13.3182 335.251 13.4015 336.031 13.5682C336.819 13.7273 337.554 14.0227 338.236 14.4545C338.925 14.8864 339.49 15.5038 339.929 16.3068C340.368 17.1023 340.588 18.1364 340.588 19.4091V31H337.27V28.6136H337.134C336.914 29.053 336.584 29.4848 336.145 29.9091C335.706 30.3333 335.141 30.6856 334.452 30.9659C333.762 31.2462 332.937 31.3864 331.974 31.3864ZM332.713 28.6591C333.653 28.6591 334.456 28.4735 335.122 28.1023C335.796 27.7311 336.308 27.2462 336.656 26.6477C337.012 26.0417 337.19 25.3939 337.19 24.7045V22.4545C337.069 22.5758 336.834 22.6894 336.486 22.7955C336.145 22.8939 335.755 22.9811 335.315 23.0568C334.876 23.125 334.448 23.1894 334.031 23.25C333.615 23.303 333.266 23.3485 332.986 23.3864C332.327 23.4697 331.724 23.6098 331.179 23.8068C330.641 24.0038 330.209 24.2879 329.884 24.6591C329.565 25.0227 329.406 25.5076 329.406 26.1136C329.406 26.9545 329.717 27.5909 330.338 28.0227C330.959 28.447 331.751 28.6591 332.713 28.6591ZM345.114 31V13.5455H348.511V31H345.114ZM346.83 10.8523C346.239 10.8523 345.731 10.6553 345.307 10.2614C344.89 9.85985 344.682 9.38257 344.682 8.82954C344.682 8.26894 344.89 7.79167 345.307 7.39773C345.731 6.99621 346.239 6.79545 346.83 6.79545C347.42 6.79545 347.924 6.99621 348.341 7.39773C348.765 7.79167 348.977 8.26894 348.977 8.82954C348.977 9.38257 348.765 9.85985 348.341 10.2614C347.924 10.6553 347.42 10.8523 346.83 10.8523ZM356.48 20.6364V31H353.082V13.5455H356.344V16.3864H356.56C356.961 15.4621 357.59 14.7197 358.446 14.1591C359.31 13.5985 360.397 13.3182 361.707 13.3182C362.897 13.3182 363.938 13.5682 364.832 14.0682C365.726 14.5606 366.42 15.2955 366.912 16.2727C367.404 17.25 367.651 18.4583 367.651 19.8977V31H364.253V20.3068C364.253 19.0417 363.923 18.053 363.264 17.3409C362.605 16.6212 361.7 16.2614 360.548 16.2614C359.76 16.2614 359.06 16.4318 358.446 16.7727C357.84 17.1136 357.359 17.6136 357.003 18.2727C356.654 18.9242 356.48 19.7121 356.48 20.6364ZM375.605 20.6364V31H372.207V13.5455H375.469V16.3864H375.685C376.086 15.4621 376.715 14.7197 377.571 14.1591C378.435 13.5985 379.522 13.3182 380.832 13.3182C382.022 13.3182 383.063 13.5682 383.957 14.0682C384.851 14.5606 385.545 15.2955 386.037 16.2727C386.529 17.25 386.776 18.4583 386.776 19.8977V31H383.378V20.3068C383.378 19.0417 383.048 18.053 382.389 17.3409C381.73 16.6212 380.825 16.2614 379.673 16.2614C378.885 16.2614 378.185 16.4318 377.571 16.7727C376.965 17.1136 376.484 17.6136 376.128 18.2727C375.779 18.9242 375.605 19.7121 375.605 20.6364ZM398.855 31.3523C397.135 31.3523 395.654 30.9848 394.412 30.25C393.177 29.5076 392.223 28.4659 391.548 27.125C390.882 25.7765 390.548 24.197 390.548 22.3864C390.548 20.5985 390.882 19.0227 391.548 17.6591C392.223 16.2955 393.162 15.2311 394.367 14.4659C395.579 13.7008 396.995 13.3182 398.617 13.3182C399.601 13.3182 400.556 13.4811 401.48 13.8068C402.404 14.1326 403.234 14.6439 403.969 15.3409C404.704 16.0379 405.283 16.9432 405.707 18.0568C406.132 19.1629 406.344 20.5076 406.344 22.0909V23.2955H392.469V20.75H403.014C403.014 19.8561 402.832 19.0644 402.469 18.375C402.105 17.678 401.594 17.1288 400.935 16.7273C400.283 16.3258 399.518 16.125 398.639 16.125C397.685 16.125 396.851 16.3598 396.139 16.8295C395.435 17.2917 394.889 17.8977 394.503 18.6477C394.124 19.3902 393.935 20.197 393.935 21.0682V23.0568C393.935 24.2235 394.139 25.2159 394.548 26.0341C394.965 26.8523 395.545 27.4773 396.287 27.9091C397.029 28.3333 397.897 28.5455 398.889 28.5455C399.533 28.5455 400.12 28.4545 400.651 28.2727C401.181 28.0833 401.639 27.803 402.026 27.4318C402.412 27.0606 402.707 26.6023 402.912 26.0568L406.128 26.6364C405.87 27.5833 405.408 28.4129 404.742 29.125C404.082 29.8295 403.253 30.3788 402.253 30.7727C401.26 31.1591 400.128 31.3523 398.855 31.3523ZM418.261 13.5455V16.2727H408.727V13.5455H418.261ZM411.284 9.36364H414.682V25.875C414.682 26.5341 414.78 27.0303 414.977 27.3636C415.174 27.6894 415.428 27.9129 415.739 28.0341C416.057 28.1477 416.402 28.2045 416.773 28.2045C417.045 28.2045 417.284 28.1856 417.489 28.1477C417.693 28.1098 417.852 28.0795 417.966 28.0568L418.58 30.8636C418.383 30.9394 418.102 31.0152 417.739 31.0909C417.375 31.1742 416.92 31.2197 416.375 31.2273C415.481 31.2424 414.648 31.0833 413.875 30.75C413.102 30.4167 412.477 29.9015 412 29.2045C411.523 28.5076 411.284 27.6326 411.284 26.5795V9.36364ZM93.2131 65.7273C92.2964 65.7273 91.4593 65.5038 90.7017 65.0568C89.9442 64.6023 89.3381 63.9962 88.8836 63.2386C88.4366 62.4811 88.2131 61.6439 88.2131 60.7273C88.2131 59.803 88.4366 58.9659 88.8836 58.2159C89.3381 57.4583 89.9442 56.8561 90.7017 56.4091C91.4593 55.9545 92.2964 55.7273 93.2131 55.7273C94.1374 55.7273 94.9745 55.9545 95.7245 56.4091C96.4821 56.8561 97.0843 57.4583 97.5313 58.2159C97.9858 58.9659 98.2131 59.803 98.2131 60.7273C98.2131 61.6439 97.9858 62.4811 97.5313 63.2386C97.0843 63.9962 96.4821 64.6023 95.7245 65.0568C94.9745 65.5038 94.1374 65.7273 93.2131 65.7273ZM123.273 46.7273V70H119.761V46.7273H123.273ZM141.193 56.8068L138.114 57.3523C137.985 56.9583 137.78 56.5833 137.5 56.2273C137.227 55.8712 136.856 55.5795 136.386 55.3523C135.917 55.125 135.33 55.0114 134.625 55.0114C133.663 55.0114 132.86 55.2273 132.216 55.6591C131.572 56.0833 131.25 56.6326 131.25 57.3068C131.25 57.8902 131.466 58.3598 131.898 58.7159C132.33 59.072 133.027 59.3636 133.989 59.5909L136.761 60.2273C138.367 60.5985 139.564 61.1705 140.352 61.9432C141.14 62.7159 141.534 63.7197 141.534 64.9545C141.534 66 141.231 66.9318 140.625 67.75C140.027 68.5606 139.189 69.197 138.114 69.6591C137.045 70.1212 135.807 70.3523 134.398 70.3523C132.443 70.3523 130.849 69.9356 129.614 69.1023C128.379 68.2614 127.621 67.0682 127.341 65.5227L130.625 65.0227C130.83 65.8788 131.25 66.5265 131.886 66.9659C132.523 67.3977 133.352 67.6136 134.375 67.6136C135.489 67.6136 136.379 67.3826 137.045 66.9205C137.712 66.4508 138.045 65.8788 138.045 65.2045C138.045 64.6591 137.841 64.2008 137.432 63.8295C137.03 63.4583 136.413 63.178 135.58 62.9886L132.625 62.3409C130.996 61.9697 129.792 61.3788 129.011 60.5682C128.239 59.7576 127.852 58.7311 127.852 57.4886C127.852 56.4583 128.14 55.5568 128.716 54.7841C129.292 54.0114 130.087 53.4091 131.102 52.9773C132.117 52.5379 133.28 52.3182 134.591 52.3182C136.477 52.3182 137.962 52.7273 139.045 53.5455C140.129 54.3561 140.845 55.4432 141.193 56.8068ZM152.622 70.3523C150.986 70.3523 149.558 69.9773 148.338 69.2273C147.118 68.4773 146.171 67.428 145.497 66.0795C144.823 64.7311 144.486 63.1553 144.486 61.3523C144.486 59.5417 144.823 57.9583 145.497 56.6023C146.171 55.2462 147.118 54.1932 148.338 53.4432C149.558 52.6932 150.986 52.3182 152.622 52.3182C154.259 52.3182 155.687 52.6932 156.906 53.4432C158.126 54.1932 159.073 55.2462 159.747 56.6023C160.421 57.9583 160.759 59.5417 160.759 61.3523C160.759 63.1553 160.421 64.7311 159.747 66.0795C159.073 67.428 158.126 68.4773 156.906 69.2273C155.687 69.9773 154.259 70.3523 152.622 70.3523ZM152.634 67.5C153.694 67.5 154.573 67.2197 155.27 66.6591C155.967 66.0985 156.482 65.3523 156.815 64.4205C157.156 63.4886 157.327 62.4621 157.327 61.3409C157.327 60.2273 157.156 59.2045 156.815 58.2727C156.482 57.3333 155.967 56.5795 155.27 56.0114C154.573 55.4432 153.694 55.1591 152.634 55.1591C151.565 55.1591 150.679 55.4432 149.974 56.0114C149.278 56.5795 148.759 57.3333 148.418 58.2727C148.084 59.2045 147.918 60.2273 147.918 61.3409C147.918 62.4621 148.084 63.4886 148.418 64.4205C148.759 65.3523 149.278 66.0985 149.974 66.6591C150.679 67.2197 151.565 67.5 152.634 67.5ZM167.949 46.7273V70H164.551V46.7273H167.949ZM177.599 70.3864C176.493 70.3864 175.493 70.1818 174.599 69.7727C173.706 69.3561 172.997 68.7538 172.474 67.9659C171.959 67.178 171.702 66.2121 171.702 65.0682C171.702 64.0833 171.891 63.2727 172.27 62.6364C172.649 62 173.16 61.4962 173.804 61.125C174.448 60.7538 175.168 60.4735 175.963 60.2841C176.759 60.0947 177.569 59.9508 178.395 59.8523C179.44 59.7311 180.289 59.6326 180.94 59.5568C181.592 59.4735 182.065 59.3409 182.361 59.1591C182.656 58.9773 182.804 58.6818 182.804 58.2727V58.1932C182.804 57.2008 182.524 56.4318 181.963 55.8864C181.41 55.3409 180.584 55.0682 179.486 55.0682C178.342 55.0682 177.44 55.322 176.781 55.8295C176.13 56.3295 175.679 56.8864 175.429 57.5L172.236 56.7727C172.615 55.7121 173.168 54.8561 173.895 54.2045C174.63 53.5455 175.474 53.0682 176.429 52.7727C177.384 52.4697 178.387 52.3182 179.44 52.3182C180.137 52.3182 180.876 52.4015 181.656 52.5682C182.444 52.7273 183.179 53.0227 183.861 53.4545C184.55 53.8864 185.115 54.5038 185.554 55.3068C185.993 56.1023 186.213 57.1364 186.213 58.4091V70H182.895V67.6136H182.759C182.539 68.053 182.209 68.4848 181.77 68.9091C181.331 69.3333 180.766 69.6856 180.077 69.9659C179.387 70.2462 178.562 70.3864 177.599 70.3864ZM178.338 67.6591C179.278 67.6591 180.081 67.4735 180.747 67.1023C181.421 66.7311 181.933 66.2462 182.281 65.6477C182.637 65.0417 182.815 64.3939 182.815 63.7045V61.4545C182.694 61.5758 182.459 61.6894 182.111 61.7955C181.77 61.8939 181.38 61.9811 180.94 62.0568C180.501 62.125 180.073 62.1894 179.656 62.25C179.24 62.303 178.891 62.3485 178.611 62.3864C177.952 62.4697 177.349 62.6098 176.804 62.8068C176.266 63.0038 175.834 63.2879 175.509 63.6591C175.19 64.0227 175.031 64.5076 175.031 65.1136C175.031 65.9545 175.342 66.5909 175.963 67.0227C176.584 67.447 177.376 67.6591 178.338 67.6591ZM198.886 52.5455V55.2727H189.352V52.5455H198.886ZM191.909 48.3636H195.307V64.875C195.307 65.5341 195.405 66.0303 195.602 66.3636C195.799 66.6894 196.053 66.9129 196.364 67.0341C196.682 67.1477 197.027 67.2045 197.398 67.2045C197.67 67.2045 197.909 67.1856 198.114 67.1477C198.318 67.1098 198.477 67.0795 198.591 67.0568L199.205 69.8636C199.008 69.9394 198.727 70.0152 198.364 70.0909C198 70.1742 197.545 70.2197 197 70.2273C196.106 70.2424 195.273 70.0833 194.5 69.75C193.727 69.4167 193.102 68.9015 192.625 68.2045C192.148 67.5076 191.909 66.6326 191.909 65.5795V48.3636ZM209.98 70.3523C208.26 70.3523 206.779 69.9848 205.537 69.25C204.302 68.5076 203.348 67.4659 202.673 66.125C202.007 64.7765 201.673 63.197 201.673 61.3864C201.673 59.5985 202.007 58.0227 202.673 56.6591C203.348 55.2955 204.287 54.2311 205.492 53.4659C206.704 52.7008 208.12 52.3182 209.742 52.3182C210.726 52.3182 211.681 52.4811 212.605 52.8068C213.529 53.1326 214.359 53.6439 215.094 54.3409C215.829 55.0379 216.408 55.9432 216.832 57.0568C217.257 58.1629 217.469 59.5076 217.469 61.0909V62.2955H203.594V59.75H214.139C214.139 58.8561 213.957 58.0644 213.594 57.375C213.23 56.678 212.719 56.1288 212.06 55.7273C211.408 55.3258 210.643 55.125 209.764 55.125C208.81 55.125 207.976 55.3598 207.264 55.8295C206.56 56.2917 206.014 56.8977 205.628 57.6477C205.249 58.3902 205.06 59.197 205.06 60.0682V62.0568C205.06 63.2235 205.264 64.2159 205.673 65.0341C206.09 65.8523 206.67 66.4773 207.412 66.9091C208.154 67.3333 209.022 67.5455 210.014 67.5455C210.658 67.5455 211.245 67.4545 211.776 67.2727C212.306 67.0833 212.764 66.803 213.151 66.4318C213.537 66.0606 213.832 65.6023 214.037 65.0568L217.253 65.6364C216.995 66.5833 216.533 67.4129 215.867 68.125C215.207 68.8295 214.378 69.3788 213.378 69.7727C212.385 70.1591 211.253 70.3523 209.98 70.3523ZM227.773 70.3409C226.364 70.3409 225.106 69.9811 224 69.2614C222.902 68.5341 222.038 67.5 221.409 66.1591C220.788 64.8106 220.477 63.1932 220.477 61.3068C220.477 59.4205 220.792 57.8068 221.42 56.4659C222.057 55.125 222.928 54.0985 224.034 53.3864C225.14 52.6742 226.394 52.3182 227.795 52.3182C228.879 52.3182 229.75 52.5 230.409 52.8636C231.076 53.2197 231.591 53.6364 231.955 54.1136C232.326 54.5909 232.614 55.0114 232.818 55.375H233.023V46.7273H236.42V70H233.102V67.2841H232.818C232.614 67.6553 232.318 68.0795 231.932 68.5568C231.553 69.0341 231.03 69.4508 230.364 69.8068C229.697 70.1629 228.833 70.3409 227.773 70.3409ZM228.523 67.4432C229.5 67.4432 230.326 67.1856 231 66.6705C231.682 66.1477 232.197 65.4242 232.545 64.5C232.902 63.5758 233.08 62.5 233.08 61.2727C233.08 60.0606 232.905 59 232.557 58.0909C232.208 57.1818 231.697 56.4735 231.023 55.9659C230.349 55.4583 229.515 55.2045 228.523 55.2045C227.5 55.2045 226.648 55.4697 225.966 56C225.284 56.5303 224.769 57.2538 224.42 58.1705C224.08 59.0871 223.909 60.1212 223.909 61.2727C223.909 62.4394 224.083 63.4886 224.432 64.4205C224.78 65.3523 225.295 66.0909 225.977 66.6364C226.667 67.1742 227.515 67.4432 228.523 67.4432ZM250.011 70V46.7273H264.443V49.75H253.523V56.8409H263.409V59.8523H253.523V70H250.011ZM278.452 62.7614V52.5455H281.861V70H278.52V66.9773H278.338C277.937 67.9091 277.293 68.6856 276.406 69.3068C275.528 69.9205 274.433 70.2273 273.122 70.2273C272.001 70.2273 271.009 69.9811 270.145 69.4886C269.289 68.9886 268.615 68.25 268.122 67.2727C267.637 66.2955 267.395 65.0871 267.395 63.6477V52.5455H270.793V63.2386C270.793 64.428 271.122 65.375 271.781 66.0795C272.44 66.7841 273.296 67.1364 274.349 67.1364C274.986 67.1364 275.618 66.9773 276.247 66.6591C276.884 66.3409 277.41 65.8598 277.827 65.2159C278.251 64.572 278.459 63.7538 278.452 62.7614ZM294.574 52.5455V55.2727H285.04V52.5455H294.574ZM287.597 48.3636H290.994V64.875C290.994 65.5341 291.093 66.0303 291.29 66.3636C291.487 66.6894 291.741 66.9129 292.051 67.0341C292.369 67.1477 292.714 67.2045 293.085 67.2045C293.358 67.2045 293.597 67.1856 293.801 67.1477C294.006 67.1098 294.165 67.0795 294.278 67.0568L294.892 69.8636C294.695 69.9394 294.415 70.0152 294.051 70.0909C293.688 70.1742 293.233 70.2197 292.688 70.2273C291.794 70.2424 290.96 70.0833 290.188 69.75C289.415 69.4167 288.79 68.9015 288.313 68.2045C287.835 67.5076 287.597 66.6326 287.597 65.5795V48.3636ZM309.389 62.7614V52.5455H312.798V70H309.457V66.9773H309.276C308.874 67.9091 308.23 68.6856 307.344 69.3068C306.465 69.9205 305.37 70.2273 304.06 70.2273C302.938 70.2273 301.946 69.9811 301.082 69.4886C300.226 68.9886 299.552 68.25 299.06 67.2727C298.575 66.2955 298.332 65.0871 298.332 63.6477V52.5455H301.73V63.2386C301.73 64.428 302.06 65.375 302.719 66.0795C303.378 66.7841 304.234 67.1364 305.287 67.1364C305.923 67.1364 306.556 66.9773 307.185 66.6591C307.821 66.3409 308.348 65.8598 308.764 65.2159C309.188 64.572 309.397 63.7538 309.389 62.7614ZM317.364 70V52.5455H320.648V55.3182H320.83C321.148 54.3788 321.708 53.6402 322.511 53.1023C323.322 52.5568 324.239 52.2841 325.261 52.2841C325.474 52.2841 325.724 52.2917 326.011 52.3068C326.307 52.322 326.538 52.3409 326.705 52.3636V55.6136C326.568 55.5758 326.326 55.5341 325.977 55.4886C325.629 55.4356 325.28 55.4091 324.932 55.4091C324.129 55.4091 323.413 55.5795 322.784 55.9205C322.163 56.2538 321.67 56.7197 321.307 57.3182C320.943 57.9091 320.761 58.5833 320.761 59.3409V70H317.364ZM336.543 70.3523C334.823 70.3523 333.342 69.9848 332.099 69.25C330.865 68.5076 329.91 67.4659 329.236 66.125C328.569 64.7765 328.236 63.197 328.236 61.3864C328.236 59.5985 328.569 58.0227 329.236 56.6591C329.91 55.2955 330.849 54.2311 332.054 53.4659C333.266 52.7008 334.683 52.3182 336.304 52.3182C337.289 52.3182 338.243 52.4811 339.168 52.8068C340.092 53.1326 340.921 53.6439 341.656 54.3409C342.391 55.0379 342.971 55.9432 343.395 57.0568C343.819 58.1629 344.031 59.5076 344.031 61.0909V62.2955H330.156V59.75H340.702C340.702 58.8561 340.52 58.0644 340.156 57.375C339.793 56.678 339.281 56.1288 338.622 55.7273C337.971 55.3258 337.206 55.125 336.327 55.125C335.372 55.125 334.539 55.3598 333.827 55.8295C333.122 56.2917 332.577 56.8977 332.19 57.6477C331.812 58.3902 331.622 59.197 331.622 60.0682V62.0568C331.622 63.2235 331.827 64.2159 332.236 65.0341C332.653 65.8523 333.232 66.4773 333.974 66.9091C334.717 67.3333 335.584 67.5455 336.577 67.5455C337.221 67.5455 337.808 67.4545 338.338 67.2727C338.868 67.0833 339.327 66.803 339.713 66.4318C340.099 66.0606 340.395 65.6023 340.599 65.0568L343.815 65.6364C343.558 66.5833 343.096 67.4129 342.429 68.125C341.77 68.8295 340.94 69.3788 339.94 69.7727C338.948 70.1591 337.815 70.3523 336.543 70.3523ZM355.395 49.75V46.7273H373.406V49.75H366.145V70H362.645V49.75H355.395ZM375.301 70V52.5455H378.585V55.3182H378.767C379.085 54.3788 379.646 53.6402 380.449 53.1023C381.26 52.5568 382.176 52.2841 383.199 52.2841C383.411 52.2841 383.661 52.2917 383.949 52.3068C384.244 52.322 384.475 52.3409 384.642 52.3636V55.6136C384.506 55.5758 384.263 55.5341 383.915 55.4886C383.566 55.4356 383.218 55.4091 382.869 55.4091C382.066 55.4091 381.35 55.5795 380.722 55.9205C380.1 56.2538 379.608 56.7197 379.244 57.3182C378.881 57.9091 378.699 58.5833 378.699 59.3409V70H375.301ZM392.506 70.3864C391.4 70.3864 390.4 70.1818 389.506 69.7727C388.612 69.3561 387.903 68.7538 387.381 67.9659C386.866 67.178 386.608 66.2121 386.608 65.0682C386.608 64.0833 386.797 63.2727 387.176 62.6364C387.555 62 388.066 61.4962 388.71 61.125C389.354 60.7538 390.074 60.4735 390.869 60.2841C391.665 60.0947 392.475 59.9508 393.301 59.8523C394.347 59.7311 395.195 59.6326 395.847 59.5568C396.498 59.4735 396.972 59.3409 397.267 59.1591C397.563 58.9773 397.71 58.6818 397.71 58.2727V58.1932C397.71 57.2008 397.43 56.4318 396.869 55.8864C396.316 55.3409 395.491 55.0682 394.392 55.0682C393.248 55.0682 392.347 55.322 391.688 55.8295C391.036 56.3295 390.585 56.8864 390.335 57.5L387.142 56.7727C387.521 55.7121 388.074 54.8561 388.801 54.2045C389.536 53.5455 390.381 53.0682 391.335 52.7727C392.29 52.4697 393.294 52.3182 394.347 52.3182C395.044 52.3182 395.782 52.4015 396.563 52.5682C397.35 52.7273 398.085 53.0227 398.767 53.4545C399.456 53.8864 400.021 54.5038 400.46 55.3068C400.9 56.1023 401.119 57.1364 401.119 58.4091V70H397.801V67.6136H397.665C397.445 68.053 397.116 68.4848 396.676 68.9091C396.237 69.3333 395.672 69.6856 394.983 69.9659C394.294 70.2462 393.468 70.3864 392.506 70.3864ZM393.244 67.6591C394.184 67.6591 394.987 67.4735 395.653 67.1023C396.328 66.7311 396.839 66.2462 397.188 65.6477C397.544 65.0417 397.722 64.3939 397.722 63.7045V61.4545C397.6 61.5758 397.366 61.6894 397.017 61.7955C396.676 61.8939 396.286 61.9811 395.847 62.0568C395.407 62.125 394.979 62.1894 394.563 62.25C394.146 62.303 393.797 62.3485 393.517 62.3864C392.858 62.4697 392.256 62.6098 391.71 62.8068C391.172 63.0038 390.741 63.2879 390.415 63.6591C390.097 64.0227 389.938 64.5076 389.938 65.1136C389.938 65.9545 390.248 66.5909 390.869 67.0227C391.491 67.447 392.282 67.6591 393.244 67.6591ZM412.179 70.3409C410.77 70.3409 409.512 69.9811 408.406 69.2614C407.308 68.5341 406.444 67.5 405.815 66.1591C405.194 64.8106 404.884 63.1932 404.884 61.3068C404.884 59.4205 405.198 57.8068 405.827 56.4659C406.463 55.125 407.334 54.0985 408.44 53.3864C409.546 52.6742 410.8 52.3182 412.202 52.3182C413.285 52.3182 414.156 52.5 414.815 52.8636C415.482 53.2197 415.997 53.6364 416.361 54.1136C416.732 54.5909 417.02 55.0114 417.224 55.375H417.429V46.7273H420.827V70H417.509V67.2841H417.224C417.02 67.6553 416.724 68.0795 416.338 68.5568C415.959 69.0341 415.437 69.4508 414.77 69.8068C414.103 70.1629 413.24 70.3409 412.179 70.3409ZM412.929 67.4432C413.906 67.4432 414.732 67.1856 415.406 66.6705C416.088 66.1477 416.603 65.4242 416.952 64.5C417.308 63.5758 417.486 62.5 417.486 61.2727C417.486 60.0606 417.312 59 416.963 58.0909C416.615 57.1818 416.103 56.4735 415.429 55.9659C414.755 55.4583 413.921 55.2045 412.929 55.2045C411.906 55.2045 411.054 55.4697 410.372 56C409.69 56.5303 409.175 57.2538 408.827 58.1705C408.486 59.0871 408.315 60.1212 408.315 61.2727C408.315 62.4394 408.49 63.4886 408.838 64.4205C409.187 65.3523 409.702 66.0909 410.384 66.6364C411.073 67.1742 411.921 67.4432 412.929 67.4432ZM433.199 70.3523C431.479 70.3523 429.998 69.9848 428.756 69.25C427.521 68.5076 426.566 67.4659 425.892 66.125C425.225 64.7765 424.892 63.197 424.892 61.3864C424.892 59.5985 425.225 58.0227 425.892 56.6591C426.566 55.2955 427.506 54.2311 428.71 53.4659C429.922 52.7008 431.339 52.3182 432.96 52.3182C433.945 52.3182 434.9 52.4811 435.824 52.8068C436.748 53.1326 437.578 53.6439 438.313 54.3409C439.047 55.0379 439.627 55.9432 440.051 57.0568C440.475 58.1629 440.688 59.5076 440.688 61.0909V62.2955H426.813V59.75H437.358C437.358 58.8561 437.176 58.0644 436.813 57.375C436.449 56.678 435.938 56.1288 435.278 55.7273C434.627 55.3258 433.862 55.125 432.983 55.125C432.028 55.125 431.195 55.3598 430.483 55.8295C429.778 56.2917 429.233 56.8977 428.847 57.6477C428.468 58.3902 428.278 59.197 428.278 60.0682V62.0568C428.278 63.2235 428.483 64.2159 428.892 65.0341C429.309 65.8523 429.888 66.4773 430.631 66.9091C431.373 67.3333 432.241 67.5455 433.233 67.5455C433.877 67.5455 434.464 67.4545 434.994 67.2727C435.525 67.0833 435.983 66.803 436.369 66.4318C436.756 66.0606 437.051 65.6023 437.256 65.0568L440.472 65.6364C440.214 66.5833 439.752 67.4129 439.085 68.125C438.426 68.8295 437.597 69.3788 436.597 69.7727C435.604 70.1591 434.472 70.3523 433.199 70.3523ZM93.2131 104.727C92.2964 104.727 91.4593 104.504 90.7017 104.057C89.9442 103.602 89.3381 102.996 88.8836 102.239C88.4366 101.481 88.2131 100.644 88.2131 99.7273C88.2131 98.803 88.4366 97.9659 88.8836 97.2159C89.3381 96.4583 89.9442 95.8561 90.7017 95.4091C91.4593 94.9545 92.2964 94.7273 93.2131 94.7273C94.1374 94.7273 94.9745 94.9545 95.7245 95.4091C96.4821 95.8561 97.0843 96.4583 97.5313 97.2159C97.9858 97.9659 98.2131 98.803 98.2131 99.7273C98.2131 100.644 97.9858 101.481 97.5313 102.239C97.0843 102.996 96.4821 103.602 95.7245 104.057C94.9745 104.504 94.1374 104.727 93.2131 104.727ZM139.091 93.2955H135.545C135.409 92.5379 135.155 91.8712 134.784 91.2955C134.413 90.7197 133.958 90.2311 133.42 89.8295C132.883 89.428 132.28 89.125 131.614 88.9205C130.955 88.7159 130.254 88.6136 129.511 88.6136C128.17 88.6136 126.97 88.9508 125.909 89.625C124.856 90.2992 124.023 91.2879 123.409 92.5909C122.803 93.8939 122.5 95.4848 122.5 97.3636C122.5 99.2576 122.803 100.856 123.409 102.159C124.023 103.462 124.86 104.447 125.92 105.114C126.981 105.78 128.174 106.114 129.5 106.114C130.235 106.114 130.932 106.015 131.591 105.818C132.258 105.614 132.86 105.314 133.398 104.92C133.936 104.527 134.39 104.045 134.761 103.477C135.14 102.902 135.402 102.242 135.545 101.5L139.091 101.511C138.902 102.655 138.534 103.708 137.989 104.67C137.451 105.625 136.758 106.451 135.909 107.148C135.068 107.837 134.106 108.371 133.023 108.75C131.939 109.129 130.758 109.318 129.477 109.318C127.462 109.318 125.667 108.841 124.091 107.886C122.515 106.924 121.273 105.549 120.364 103.761C119.462 101.973 119.011 99.8409 119.011 97.3636C119.011 94.8788 119.466 92.7462 120.375 90.9659C121.284 89.178 122.527 87.8068 124.102 86.8523C125.678 85.8902 127.47 85.4091 129.477 85.4091C130.712 85.4091 131.864 85.5871 132.932 85.9432C134.008 86.2917 134.974 86.8068 135.83 87.4886C136.686 88.1629 137.394 88.9886 137.955 89.9659C138.515 90.9356 138.894 92.0455 139.091 93.2955ZM143.02 109V91.5455H146.304V94.3182H146.486C146.804 93.3788 147.365 92.6402 148.168 92.1023C148.978 91.5568 149.895 91.2841 150.918 91.2841C151.13 91.2841 151.38 91.2917 151.668 91.3068C151.963 91.322 152.194 91.3409 152.361 91.3636V94.6136C152.224 94.5758 151.982 94.5341 151.634 94.4886C151.285 94.4356 150.937 94.4091 150.588 94.4091C149.785 94.4091 149.069 94.5795 148.44 94.9205C147.819 95.2538 147.327 95.7197 146.963 96.3182C146.599 96.9091 146.418 97.5833 146.418 98.3409V109H143.02ZM162.028 109.352C160.392 109.352 158.964 108.977 157.744 108.227C156.525 107.477 155.578 106.428 154.903 105.08C154.229 103.731 153.892 102.155 153.892 100.352C153.892 98.5417 154.229 96.9583 154.903 95.6023C155.578 94.2462 156.525 93.1932 157.744 92.4432C158.964 91.6932 160.392 91.3182 162.028 91.3182C163.665 91.3182 165.093 91.6932 166.313 92.4432C167.532 93.1932 168.479 94.2462 169.153 95.6023C169.828 96.9583 170.165 98.5417 170.165 100.352C170.165 102.155 169.828 103.731 169.153 105.08C168.479 106.428 167.532 107.477 166.313 108.227C165.093 108.977 163.665 109.352 162.028 109.352ZM162.04 106.5C163.1 106.5 163.979 106.22 164.676 105.659C165.373 105.098 165.888 104.352 166.222 103.42C166.563 102.489 166.733 101.462 166.733 100.341C166.733 99.2273 166.563 98.2045 166.222 97.2727C165.888 96.3333 165.373 95.5795 164.676 95.0114C163.979 94.4432 163.1 94.1591 162.04 94.1591C160.972 94.1591 160.085 94.4432 159.381 95.0114C158.684 95.5795 158.165 96.3333 157.824 97.2727C157.491 98.2045 157.324 99.2273 157.324 100.341C157.324 101.462 157.491 102.489 157.824 103.42C158.165 104.352 158.684 105.098 159.381 105.659C160.085 106.22 160.972 106.5 162.04 106.5ZM187.037 95.8068L183.957 96.3523C183.829 95.9583 183.624 95.5833 183.344 95.2273C183.071 94.8712 182.7 94.5795 182.23 94.3523C181.76 94.125 181.173 94.0114 180.469 94.0114C179.507 94.0114 178.704 94.2273 178.06 94.6591C177.416 95.0833 177.094 95.6326 177.094 96.3068C177.094 96.8902 177.31 97.3598 177.742 97.7159C178.173 98.072 178.87 98.3636 179.832 98.5909L182.605 99.2273C184.211 99.5985 185.408 100.17 186.196 100.943C186.984 101.716 187.378 102.72 187.378 103.955C187.378 105 187.075 105.932 186.469 106.75C185.87 107.561 185.033 108.197 183.957 108.659C182.889 109.121 181.651 109.352 180.242 109.352C178.287 109.352 176.692 108.936 175.457 108.102C174.223 107.261 173.465 106.068 173.185 104.523L176.469 104.023C176.673 104.879 177.094 105.527 177.73 105.966C178.367 106.398 179.196 106.614 180.219 106.614C181.332 106.614 182.223 106.383 182.889 105.92C183.556 105.451 183.889 104.879 183.889 104.205C183.889 103.659 183.685 103.201 183.276 102.83C182.874 102.458 182.257 102.178 181.423 101.989L178.469 101.341C176.84 100.97 175.635 100.379 174.855 99.5682C174.082 98.7576 173.696 97.7311 173.696 96.4886C173.696 95.4583 173.984 94.5568 174.56 93.7841C175.135 93.0114 175.931 92.4091 176.946 91.9773C177.961 91.5379 179.124 91.3182 180.435 91.3182C182.321 91.3182 183.806 91.7273 184.889 92.5455C185.973 93.3561 186.688 94.4432 187.037 95.8068ZM204.193 95.8068L201.114 96.3523C200.985 95.9583 200.78 95.5833 200.5 95.2273C200.227 94.8712 199.856 94.5795 199.386 94.3523C198.917 94.125 198.33 94.0114 197.625 94.0114C196.663 94.0114 195.86 94.2273 195.216 94.6591C194.572 95.0833 194.25 95.6326 194.25 96.3068C194.25 96.8902 194.466 97.3598 194.898 97.7159C195.33 98.072 196.027 98.3636 196.989 98.5909L199.761 99.2273C201.367 99.5985 202.564 100.17 203.352 100.943C204.14 101.716 204.534 102.72 204.534 103.955C204.534 105 204.231 105.932 203.625 106.75C203.027 107.561 202.189 108.197 201.114 108.659C200.045 109.121 198.807 109.352 197.398 109.352C195.443 109.352 193.849 108.936 192.614 108.102C191.379 107.261 190.621 106.068 190.341 104.523L193.625 104.023C193.83 104.879 194.25 105.527 194.886 105.966C195.523 106.398 196.352 106.614 197.375 106.614C198.489 106.614 199.379 106.383 200.045 105.92C200.712 105.451 201.045 104.879 201.045 104.205C201.045 103.659 200.841 103.201 200.432 102.83C200.03 102.458 199.413 102.178 198.58 101.989L195.625 101.341C193.996 100.97 192.792 100.379 192.011 99.5682C191.239 98.7576 190.852 97.7311 190.852 96.4886C190.852 95.4583 191.14 94.5568 191.716 93.7841C192.292 93.0114 193.087 92.4091 194.102 91.9773C195.117 91.5379 196.28 91.3182 197.591 91.3182C199.477 91.3182 200.962 91.7273 202.045 92.5455C203.129 93.3561 203.845 94.4432 204.193 95.8068ZM217.011 109V85.7273H231.443V88.75H220.523V95.8409H230.409V98.8523H220.523V109H217.011ZM245.452 101.761V91.5455H248.861V109H245.52V105.977H245.338C244.937 106.909 244.293 107.686 243.406 108.307C242.528 108.92 241.433 109.227 240.122 109.227C239.001 109.227 238.009 108.981 237.145 108.489C236.289 107.989 235.615 107.25 235.122 106.273C234.637 105.295 234.395 104.087 234.395 102.648V91.5455H237.793V102.239C237.793 103.428 238.122 104.375 238.781 105.08C239.44 105.784 240.296 106.136 241.349 106.136C241.986 106.136 242.618 105.977 243.247 105.659C243.884 105.341 244.41 104.86 244.827 104.216C245.251 103.572 245.459 102.754 245.452 101.761ZM261.574 91.5455V94.2727H252.04V91.5455H261.574ZM254.597 87.3636H257.994V103.875C257.994 104.534 258.093 105.03 258.29 105.364C258.487 105.689 258.741 105.913 259.051 106.034C259.369 106.148 259.714 106.205 260.085 106.205C260.358 106.205 260.597 106.186 260.801 106.148C261.006 106.11 261.165 106.08 261.278 106.057L261.892 108.864C261.695 108.939 261.415 109.015 261.051 109.091C260.688 109.174 260.233 109.22 259.688 109.227C258.794 109.242 257.96 109.083 257.188 108.75C256.415 108.417 255.79 107.902 255.313 107.205C254.835 106.508 254.597 105.633 254.597 104.58V87.3636ZM276.389 101.761V91.5455H279.798V109H276.457V105.977H276.276C275.874 106.909 275.23 107.686 274.344 108.307C273.465 108.92 272.37 109.227 271.06 109.227C269.938 109.227 268.946 108.981 268.082 108.489C267.226 107.989 266.552 107.25 266.06 106.273C265.575 105.295 265.332 104.087 265.332 102.648V91.5455H268.73V102.239C268.73 103.428 269.06 104.375 269.719 105.08C270.378 105.784 271.234 106.136 272.287 106.136C272.923 106.136 273.556 105.977 274.185 105.659C274.821 105.341 275.348 104.86 275.764 104.216C276.188 103.572 276.397 102.754 276.389 101.761ZM284.364 109V91.5455H287.648V94.3182H287.83C288.148 93.3788 288.708 92.6402 289.511 92.1023C290.322 91.5568 291.239 91.2841 292.261 91.2841C292.474 91.2841 292.724 91.2917 293.011 91.3068C293.307 91.322 293.538 91.3409 293.705 91.3636V94.6136C293.568 94.5758 293.326 94.5341 292.977 94.4886C292.629 94.4356 292.28 94.4091 291.932 94.4091C291.129 94.4091 290.413 94.5795 289.784 94.9205C289.163 95.2538 288.67 95.7197 288.307 96.3182C287.943 96.9091 287.761 97.5833 287.761 98.3409V109H284.364ZM303.543 109.352C301.823 109.352 300.342 108.985 299.099 108.25C297.865 107.508 296.91 106.466 296.236 105.125C295.569 103.777 295.236 102.197 295.236 100.386C295.236 98.5985 295.569 97.0227 296.236 95.6591C296.91 94.2955 297.849 93.2311 299.054 92.4659C300.266 91.7008 301.683 91.3182 303.304 91.3182C304.289 91.3182 305.243 91.4811 306.168 91.8068C307.092 92.1326 307.921 92.6439 308.656 93.3409C309.391 94.0379 309.971 94.9432 310.395 96.0568C310.819 97.1629 311.031 98.5076 311.031 100.091V101.295H297.156V98.75H307.702C307.702 97.8561 307.52 97.0644 307.156 96.375C306.793 95.678 306.281 95.1288 305.622 94.7273C304.971 94.3258 304.206 94.125 303.327 94.125C302.372 94.125 301.539 94.3598 300.827 94.8295C300.122 95.2917 299.577 95.8977 299.19 96.6477C298.812 97.3902 298.622 98.197 298.622 99.0682V101.057C298.622 102.223 298.827 103.216 299.236 104.034C299.653 104.852 300.232 105.477 300.974 105.909C301.717 106.333 302.584 106.545 303.577 106.545C304.221 106.545 304.808 106.455 305.338 106.273C305.868 106.083 306.327 105.803 306.713 105.432C307.099 105.061 307.395 104.602 307.599 104.057L310.815 104.636C310.558 105.583 310.096 106.413 309.429 107.125C308.77 107.83 307.94 108.379 306.94 108.773C305.948 109.159 304.815 109.352 303.543 109.352ZM322.395 88.75V85.7273H340.406V88.75H333.145V109H329.645V88.75H322.395ZM342.301 109V91.5455H345.585V94.3182H345.767C346.085 93.3788 346.646 92.6402 347.449 92.1023C348.26 91.5568 349.176 91.2841 350.199 91.2841C350.411 91.2841 350.661 91.2917 350.949 91.3068C351.244 91.322 351.475 91.3409 351.642 91.3636V94.6136C351.506 94.5758 351.263 94.5341 350.915 94.4886C350.566 94.4356 350.218 94.4091 349.869 94.4091C349.066 94.4091 348.35 94.5795 347.722 94.9205C347.1 95.2538 346.608 95.7197 346.244 96.3182C345.881 96.9091 345.699 97.5833 345.699 98.3409V109H342.301ZM359.506 109.386C358.4 109.386 357.4 109.182 356.506 108.773C355.612 108.356 354.903 107.754 354.381 106.966C353.866 106.178 353.608 105.212 353.608 104.068C353.608 103.083 353.797 102.273 354.176 101.636C354.555 101 355.066 100.496 355.71 100.125C356.354 99.7538 357.074 99.4735 357.869 99.2841C358.665 99.0947 359.475 98.9508 360.301 98.8523C361.347 98.7311 362.195 98.6326 362.847 98.5568C363.498 98.4735 363.972 98.3409 364.267 98.1591C364.563 97.9773 364.71 97.6818 364.71 97.2727V97.1932C364.71 96.2008 364.43 95.4318 363.869 94.8864C363.316 94.3409 362.491 94.0682 361.392 94.0682C360.248 94.0682 359.347 94.322 358.688 94.8295C358.036 95.3295 357.585 95.8864 357.335 96.5L354.142 95.7727C354.521 94.7121 355.074 93.8561 355.801 93.2045C356.536 92.5455 357.381 92.0682 358.335 91.7727C359.29 91.4697 360.294 91.3182 361.347 91.3182C362.044 91.3182 362.782 91.4015 363.563 91.5682C364.35 91.7273 365.085 92.0227 365.767 92.4545C366.456 92.8864 367.021 93.5038 367.46 94.3068C367.9 95.1023 368.119 96.1364 368.119 97.4091V109H364.801V106.614H364.665C364.445 107.053 364.116 107.485 363.676 107.909C363.237 108.333 362.672 108.686 361.983 108.966C361.294 109.246 360.468 109.386 359.506 109.386ZM360.244 106.659C361.184 106.659 361.987 106.473 362.653 106.102C363.328 105.731 363.839 105.246 364.188 104.648C364.544 104.042 364.722 103.394 364.722 102.705V100.455C364.6 100.576 364.366 100.689 364.017 100.795C363.676 100.894 363.286 100.981 362.847 101.057C362.407 101.125 361.979 101.189 361.563 101.25C361.146 101.303 360.797 101.348 360.517 101.386C359.858 101.47 359.256 101.61 358.71 101.807C358.172 102.004 357.741 102.288 357.415 102.659C357.097 103.023 356.938 103.508 356.938 104.114C356.938 104.955 357.248 105.591 357.869 106.023C358.491 106.447 359.282 106.659 360.244 106.659ZM379.179 109.341C377.77 109.341 376.512 108.981 375.406 108.261C374.308 107.534 373.444 106.5 372.815 105.159C372.194 103.811 371.884 102.193 371.884 100.307C371.884 98.4205 372.198 96.8068 372.827 95.4659C373.463 94.125 374.334 93.0985 375.44 92.3864C376.546 91.6742 377.8 91.3182 379.202 91.3182C380.285 91.3182 381.156 91.5 381.815 91.8636C382.482 92.2197 382.997 92.6364 383.361 93.1136C383.732 93.5909 384.02 94.0114 384.224 94.375H384.429V85.7273H387.827V109H384.509V106.284H384.224C384.02 106.655 383.724 107.08 383.338 107.557C382.959 108.034 382.437 108.451 381.77 108.807C381.103 109.163 380.24 109.341 379.179 109.341ZM379.929 106.443C380.906 106.443 381.732 106.186 382.406 105.67C383.088 105.148 383.603 104.424 383.952 103.5C384.308 102.576 384.486 101.5 384.486 100.273C384.486 99.0606 384.312 98 383.963 97.0909C383.615 96.1818 383.103 95.4735 382.429 94.9659C381.755 94.4583 380.921 94.2045 379.929 94.2045C378.906 94.2045 378.054 94.4697 377.372 95C376.69 95.5303 376.175 96.2538 375.827 97.1705C375.486 98.0871 375.315 99.1212 375.315 100.273C375.315 101.439 375.49 102.489 375.838 103.42C376.187 104.352 376.702 105.091 377.384 105.636C378.073 106.174 378.921 106.443 379.929 106.443ZM400.199 109.352C398.479 109.352 396.998 108.985 395.756 108.25C394.521 107.508 393.566 106.466 392.892 105.125C392.225 103.777 391.892 102.197 391.892 100.386C391.892 98.5985 392.225 97.0227 392.892 95.6591C393.566 94.2955 394.506 93.2311 395.71 92.4659C396.922 91.7008 398.339 91.3182 399.96 91.3182C400.945 91.3182 401.9 91.4811 402.824 91.8068C403.748 92.1326 404.578 92.6439 405.313 93.3409C406.047 94.0379 406.627 94.9432 407.051 96.0568C407.475 97.1629 407.688 98.5076 407.688 100.091V101.295H393.813V98.75H404.358C404.358 97.8561 404.176 97.0644 403.813 96.375C403.449 95.678 402.938 95.1288 402.278 94.7273C401.627 94.3258 400.862 94.125 399.983 94.125C399.028 94.125 398.195 94.3598 397.483 94.8295C396.778 95.2917 396.233 95.8977 395.847 96.6477C395.468 97.3902 395.278 98.197 395.278 99.0682V101.057C395.278 102.223 395.483 103.216 395.892 104.034C396.309 104.852 396.888 105.477 397.631 105.909C398.373 106.333 399.241 106.545 400.233 106.545C400.877 106.545 401.464 106.455 401.994 106.273C402.525 106.083 402.983 105.803 403.369 105.432C403.756 105.061 404.051 104.602 404.256 104.057L407.472 104.636C407.214 105.583 406.752 106.413 406.085 107.125C405.426 107.83 404.597 108.379 403.597 108.773C402.604 109.159 401.472 109.352 400.199 109.352ZM93.2131 143.727C92.2964 143.727 91.4593 143.504 90.7017 143.057C89.9442 142.602 89.3381 141.996 88.8836 141.239C88.4366 140.481 88.2131 139.644 88.2131 138.727C88.2131 137.803 88.4366 136.966 88.8836 136.216C89.3381 135.458 89.9442 134.856 90.7017 134.409C91.4593 133.955 92.2964 133.727 93.2131 133.727C94.1374 133.727 94.9745 133.955 95.7245 134.409C96.4821 134.856 97.0843 135.458 97.5313 136.216C97.9858 136.966 98.2131 137.803 98.2131 138.727C98.2131 139.644 97.9858 140.481 97.5313 141.239C97.0843 141.996 96.4821 142.602 95.7245 143.057C94.9745 143.504 94.1374 143.727 93.2131 143.727ZM139.977 136.364C139.977 138.848 139.523 140.985 138.614 142.773C137.705 144.553 136.458 145.924 134.875 146.886C133.299 147.841 131.508 148.318 129.5 148.318C127.485 148.318 125.686 147.841 124.102 146.886C122.527 145.924 121.284 144.549 120.375 142.761C119.466 140.973 119.011 138.841 119.011 136.364C119.011 133.879 119.466 131.746 120.375 129.966C121.284 128.178 122.527 126.807 124.102 125.852C125.686 124.89 127.485 124.409 129.5 124.409C131.508 124.409 133.299 124.89 134.875 125.852C136.458 126.807 137.705 128.178 138.614 129.966C139.523 131.746 139.977 133.879 139.977 136.364ZM136.5 136.364C136.5 134.47 136.193 132.875 135.58 131.58C134.974 130.277 134.14 129.292 133.08 128.625C132.027 127.951 130.833 127.614 129.5 127.614C128.159 127.614 126.962 127.951 125.909 128.625C124.856 129.292 124.023 130.277 123.409 131.58C122.803 132.875 122.5 134.47 122.5 136.364C122.5 138.258 122.803 139.856 123.409 141.159C124.023 142.455 124.856 143.439 125.909 144.114C126.962 144.78 128.159 145.114 129.5 145.114C130.833 145.114 132.027 144.78 133.08 144.114C134.14 143.439 134.974 142.455 135.58 141.159C136.193 139.856 136.5 138.258 136.5 136.364ZM144.082 154.545V130.545H147.401V133.375H147.685C147.882 133.011 148.166 132.591 148.537 132.114C148.908 131.636 149.423 131.22 150.082 130.864C150.742 130.5 151.613 130.318 152.696 130.318C154.105 130.318 155.363 130.674 156.469 131.386C157.575 132.098 158.442 133.125 159.071 134.466C159.707 135.807 160.026 137.42 160.026 139.307C160.026 141.193 159.711 142.811 159.082 144.159C158.454 145.5 157.59 146.534 156.492 147.261C155.393 147.981 154.139 148.341 152.73 148.341C151.67 148.341 150.802 148.163 150.128 147.807C149.461 147.451 148.938 147.034 148.56 146.557C148.181 146.08 147.889 145.655 147.685 145.284H147.48V154.545H144.082ZM147.412 139.273C147.412 140.5 147.59 141.576 147.946 142.5C148.302 143.424 148.817 144.148 149.492 144.67C150.166 145.186 150.992 145.443 151.969 145.443C152.984 145.443 153.832 145.174 154.514 144.636C155.196 144.091 155.711 143.352 156.06 142.42C156.416 141.489 156.594 140.439 156.594 139.273C156.594 138.121 156.42 137.087 156.071 136.17C155.73 135.254 155.215 134.53 154.526 134C153.844 133.47 152.992 133.205 151.969 133.205C150.984 133.205 150.151 133.458 149.469 133.966C148.795 134.473 148.283 135.182 147.935 136.091C147.586 137 147.412 138.061 147.412 139.273ZM171.98 130.545V133.273H162.446V130.545H171.98ZM165.003 126.364H168.401V142.875C168.401 143.534 168.499 144.03 168.696 144.364C168.893 144.689 169.147 144.913 169.457 145.034C169.776 145.148 170.12 145.205 170.492 145.205C170.764 145.205 171.003 145.186 171.207 145.148C171.412 145.11 171.571 145.08 171.685 145.057L172.298 147.864C172.101 147.939 171.821 148.015 171.457 148.091C171.094 148.174 170.639 148.22 170.094 148.227C169.2 148.242 168.367 148.083 167.594 147.75C166.821 147.417 166.196 146.902 165.719 146.205C165.242 145.508 165.003 144.633 165.003 143.58V126.364ZM175.739 148V130.545H179.136V148H175.739ZM177.455 127.852C176.864 127.852 176.356 127.655 175.932 127.261C175.515 126.86 175.307 126.383 175.307 125.83C175.307 125.269 175.515 124.792 175.932 124.398C176.356 123.996 176.864 123.795 177.455 123.795C178.045 123.795 178.549 123.996 178.966 124.398C179.39 124.792 179.602 125.269 179.602 125.83C179.602 126.383 179.39 126.86 178.966 127.261C178.549 127.655 178.045 127.852 177.455 127.852ZM191.06 148.352C189.423 148.352 187.995 147.977 186.776 147.227C185.556 146.477 184.609 145.428 183.935 144.08C183.26 142.731 182.923 141.155 182.923 139.352C182.923 137.542 183.26 135.958 183.935 134.602C184.609 133.246 185.556 132.193 186.776 131.443C187.995 130.693 189.423 130.318 191.06 130.318C192.696 130.318 194.124 130.693 195.344 131.443C196.563 132.193 197.51 133.246 198.185 134.602C198.859 135.958 199.196 137.542 199.196 139.352C199.196 141.155 198.859 142.731 198.185 144.08C197.51 145.428 196.563 146.477 195.344 147.227C194.124 147.977 192.696 148.352 191.06 148.352ZM191.071 145.5C192.132 145.5 193.01 145.22 193.707 144.659C194.404 144.098 194.92 143.352 195.253 142.42C195.594 141.489 195.764 140.462 195.764 139.341C195.764 138.227 195.594 137.205 195.253 136.273C194.92 135.333 194.404 134.58 193.707 134.011C193.01 133.443 192.132 133.159 191.071 133.159C190.003 133.159 189.117 133.443 188.412 134.011C187.715 134.58 187.196 135.333 186.855 136.273C186.522 137.205 186.355 138.227 186.355 139.341C186.355 140.462 186.522 141.489 186.855 142.42C187.196 143.352 187.715 144.098 188.412 144.659C189.117 145.22 190.003 145.5 191.071 145.5ZM206.386 137.636V148H202.989V130.545H206.25V133.386H206.466C206.867 132.462 207.496 131.72 208.352 131.159C209.216 130.598 210.303 130.318 211.614 130.318C212.803 130.318 213.845 130.568 214.739 131.068C215.633 131.561 216.326 132.295 216.818 133.273C217.311 134.25 217.557 135.458 217.557 136.898V148H214.159V137.307C214.159 136.042 213.83 135.053 213.17 134.341C212.511 133.621 211.606 133.261 210.455 133.261C209.667 133.261 208.966 133.432 208.352 133.773C207.746 134.114 207.265 134.614 206.909 135.273C206.561 135.924 206.386 136.712 206.386 137.636ZM235.193 134.807L232.114 135.352C231.985 134.958 231.78 134.583 231.5 134.227C231.227 133.871 230.856 133.58 230.386 133.352C229.917 133.125 229.33 133.011 228.625 133.011C227.663 133.011 226.86 133.227 226.216 133.659C225.572 134.083 225.25 134.633 225.25 135.307C225.25 135.89 225.466 136.36 225.898 136.716C226.33 137.072 227.027 137.364 227.989 137.591L230.761 138.227C232.367 138.598 233.564 139.17 234.352 139.943C235.14 140.716 235.534 141.72 235.534 142.955C235.534 144 235.231 144.932 234.625 145.75C234.027 146.561 233.189 147.197 232.114 147.659C231.045 148.121 229.807 148.352 228.398 148.352C226.443 148.352 224.849 147.936 223.614 147.102C222.379 146.261 221.621 145.068 221.341 143.523L224.625 143.023C224.83 143.879 225.25 144.527 225.886 144.966C226.523 145.398 227.352 145.614 228.375 145.614C229.489 145.614 230.379 145.383 231.045 144.92C231.712 144.451 232.045 143.879 232.045 143.205C232.045 142.659 231.841 142.201 231.432 141.83C231.03 141.458 230.413 141.178 229.58 140.989L226.625 140.341C224.996 139.97 223.792 139.379 223.011 138.568C222.239 137.758 221.852 136.731 221.852 135.489C221.852 134.458 222.14 133.557 222.716 132.784C223.292 132.011 224.087 131.409 225.102 130.977C226.117 130.538 227.28 130.318 228.591 130.318C230.477 130.318 231.962 130.727 233.045 131.545C234.129 132.356 234.845 133.443 235.193 134.807ZM255.545 148H248.011V124.727H255.784C258.064 124.727 260.023 125.193 261.659 126.125C263.295 127.049 264.549 128.379 265.42 130.114C266.299 131.841 266.739 133.913 266.739 136.33C266.739 138.754 266.295 140.837 265.409 142.58C264.53 144.322 263.258 145.663 261.591 146.602C259.924 147.534 257.909 148 255.545 148ZM251.523 144.932H255.352C257.125 144.932 258.599 144.598 259.773 143.932C260.947 143.258 261.826 142.284 262.409 141.011C262.992 139.731 263.284 138.17 263.284 136.33C263.284 134.504 262.992 132.955 262.409 131.682C261.833 130.409 260.974 129.443 259.83 128.784C258.686 128.125 257.265 127.795 255.568 127.795H251.523V144.932ZM271.105 148V124.727H285.696V127.75H274.617V134.841H284.935V137.852H274.617V144.977H285.832V148H271.105ZM292.83 124.727L298.398 133.83H298.58L304.148 124.727H308.216L300.966 136.364L308.261 148H304.17L298.58 139.023H298.398L292.807 148H288.716L296.136 136.364L288.761 124.727H292.83ZM320.168 124.727H324.429L331.838 142.818H332.111L339.52 124.727H343.781V148H340.44V131.159H340.224L333.361 147.966H330.588L323.724 131.148H323.509V148H320.168V124.727ZM353.693 148.386C352.587 148.386 351.587 148.182 350.693 147.773C349.799 147.356 349.091 146.754 348.568 145.966C348.053 145.178 347.795 144.212 347.795 143.068C347.795 142.083 347.985 141.273 348.364 140.636C348.742 140 349.254 139.496 349.898 139.125C350.542 138.754 351.261 138.473 352.057 138.284C352.852 138.095 353.663 137.951 354.489 137.852C355.534 137.731 356.383 137.633 357.034 137.557C357.686 137.473 358.159 137.341 358.455 137.159C358.75 136.977 358.898 136.682 358.898 136.273V136.193C358.898 135.201 358.617 134.432 358.057 133.886C357.504 133.341 356.678 133.068 355.58 133.068C354.436 133.068 353.534 133.322 352.875 133.83C352.224 134.33 351.773 134.886 351.523 135.5L348.33 134.773C348.708 133.712 349.261 132.856 349.989 132.205C350.724 131.545 351.568 131.068 352.523 130.773C353.477 130.47 354.481 130.318 355.534 130.318C356.231 130.318 356.97 130.402 357.75 130.568C358.538 130.727 359.273 131.023 359.955 131.455C360.644 131.886 361.208 132.504 361.648 133.307C362.087 134.102 362.307 135.136 362.307 136.409V148H358.989V145.614H358.852C358.633 146.053 358.303 146.485 357.864 146.909C357.424 147.333 356.86 147.686 356.17 147.966C355.481 148.246 354.655 148.386 353.693 148.386ZM354.432 145.659C355.371 145.659 356.174 145.473 356.841 145.102C357.515 144.731 358.027 144.246 358.375 143.648C358.731 143.042 358.909 142.394 358.909 141.705V139.455C358.788 139.576 358.553 139.689 358.205 139.795C357.864 139.894 357.474 139.981 357.034 140.057C356.595 140.125 356.167 140.189 355.75 140.25C355.333 140.303 354.985 140.348 354.705 140.386C354.045 140.47 353.443 140.61 352.898 140.807C352.36 141.004 351.928 141.288 351.602 141.659C351.284 142.023 351.125 142.508 351.125 143.114C351.125 143.955 351.436 144.591 352.057 145.023C352.678 145.447 353.47 145.659 354.432 145.659ZM366.832 148V130.545H370.23V148H366.832ZM368.548 127.852C367.957 127.852 367.45 127.655 367.026 127.261C366.609 126.86 366.401 126.383 366.401 125.83C366.401 125.269 366.609 124.792 367.026 124.398C367.45 123.996 367.957 123.795 368.548 123.795C369.139 123.795 369.643 123.996 370.06 124.398C370.484 124.792 370.696 125.269 370.696 125.83C370.696 126.383 370.484 126.86 370.06 127.261C369.643 127.655 369.139 127.852 368.548 127.852ZM378.199 137.636V148H374.801V130.545H378.063V133.386H378.278C378.68 132.462 379.309 131.72 380.165 131.159C381.028 130.598 382.116 130.318 383.426 130.318C384.616 130.318 385.657 130.568 386.551 131.068C387.445 131.561 388.138 132.295 388.631 133.273C389.123 134.25 389.369 135.458 389.369 136.898V148H385.972V137.307C385.972 136.042 385.642 135.053 384.983 134.341C384.324 133.621 383.419 133.261 382.267 133.261C381.479 133.261 380.778 133.432 380.165 133.773C379.559 134.114 379.078 134.614 378.722 135.273C378.373 135.924 378.199 136.712 378.199 137.636ZM397.324 137.636V148H393.926V130.545H397.188V133.386H397.403C397.805 132.462 398.434 131.72 399.29 131.159C400.153 130.598 401.241 130.318 402.551 130.318C403.741 130.318 404.782 130.568 405.676 131.068C406.57 131.561 407.263 132.295 407.756 133.273C408.248 134.25 408.494 135.458 408.494 136.898V148H405.097V137.307C405.097 136.042 404.767 135.053 404.108 134.341C403.449 133.621 402.544 133.261 401.392 133.261C400.604 133.261 399.903 133.432 399.29 133.773C398.684 134.114 398.203 134.614 397.847 135.273C397.498 135.924 397.324 136.712 397.324 137.636ZM420.574 148.352C418.854 148.352 417.373 147.985 416.131 147.25C414.896 146.508 413.941 145.466 413.267 144.125C412.6 142.777 412.267 141.197 412.267 139.386C412.267 137.598 412.6 136.023 413.267 134.659C413.941 133.295 414.881 132.231 416.085 131.466C417.297 130.701 418.714 130.318 420.335 130.318C421.32 130.318 422.275 130.481 423.199 130.807C424.123 131.133 424.953 131.644 425.688 132.341C426.422 133.038 427.002 133.943 427.426 135.057C427.85 136.163 428.063 137.508 428.063 139.091V140.295H414.188V137.75H424.733C424.733 136.856 424.551 136.064 424.188 135.375C423.824 134.678 423.313 134.129 422.653 133.727C422.002 133.326 421.237 133.125 420.358 133.125C419.403 133.125 418.57 133.36 417.858 133.83C417.153 134.292 416.608 134.898 416.222 135.648C415.843 136.39 415.653 137.197 415.653 138.068V140.057C415.653 141.223 415.858 142.216 416.267 143.034C416.684 143.852 417.263 144.477 418.006 144.909C418.748 145.333 419.616 145.545 420.608 145.545C421.252 145.545 421.839 145.455 422.369 145.273C422.9 145.083 423.358 144.803 423.744 144.432C424.131 144.061 424.426 143.602 424.631 143.057L427.847 143.636C427.589 144.583 427.127 145.413 426.46 146.125C425.801 146.83 424.972 147.379 423.972 147.773C422.979 148.159 421.847 148.352 420.574 148.352ZM439.98 130.545V133.273H430.446V130.545H439.98ZM433.003 126.364H436.401V142.875C436.401 143.534 436.499 144.03 436.696 144.364C436.893 144.689 437.147 144.913 437.457 145.034C437.776 145.148 438.12 145.205 438.492 145.205C438.764 145.205 439.003 145.186 439.207 145.148C439.412 145.11 439.571 145.08 439.685 145.057L440.298 147.864C440.101 147.939 439.821 148.015 439.457 148.091C439.094 148.174 438.639 148.22 438.094 148.227C437.2 148.242 436.367 148.083 435.594 147.75C434.821 147.417 434.196 146.902 433.719 146.205C433.242 145.508 433.003 144.633 433.003 143.58V126.364ZM93.2131 182.727C92.2964 182.727 91.4593 182.504 90.7017 182.057C89.9442 181.602 89.3381 180.996 88.8836 180.239C88.4366 179.481 88.2131 178.644 88.2131 177.727C88.2131 176.803 88.4366 175.966 88.8836 175.216C89.3381 174.458 89.9442 173.856 90.7017 173.409C91.4593 172.955 92.2964 172.727 93.2131 172.727C94.1374 172.727 94.9745 172.955 95.7245 173.409C96.4821 173.856 97.0843 174.458 97.5313 175.216C97.9858 175.966 98.2131 176.803 98.2131 177.727C98.2131 178.644 97.9858 179.481 97.5313 180.239C97.0843 180.996 96.4821 181.602 95.7245 182.057C94.9745 182.504 94.1374 182.727 93.2131 182.727ZM117.966 163.727H121.955L128.034 174.307H128.284L134.364 163.727H138.352L129.909 177.864V187H126.409V177.864L117.966 163.727ZM146.043 187.352C144.323 187.352 142.842 186.985 141.599 186.25C140.365 185.508 139.41 184.466 138.736 183.125C138.069 181.777 137.736 180.197 137.736 178.386C137.736 176.598 138.069 175.023 138.736 173.659C139.41 172.295 140.349 171.231 141.554 170.466C142.766 169.701 144.183 169.318 145.804 169.318C146.789 169.318 147.743 169.481 148.668 169.807C149.592 170.133 150.421 170.644 151.156 171.341C151.891 172.038 152.471 172.943 152.895 174.057C153.319 175.163 153.531 176.508 153.531 178.091V179.295H139.656V176.75H150.202C150.202 175.856 150.02 175.064 149.656 174.375C149.293 173.678 148.781 173.129 148.122 172.727C147.471 172.326 146.706 172.125 145.827 172.125C144.872 172.125 144.039 172.36 143.327 172.83C142.622 173.292 142.077 173.898 141.69 174.648C141.312 175.39 141.122 176.197 141.122 177.068V179.057C141.122 180.223 141.327 181.216 141.736 182.034C142.153 182.852 142.732 183.477 143.474 183.909C144.217 184.333 145.084 184.545 146.077 184.545C146.721 184.545 147.308 184.455 147.838 184.273C148.368 184.083 148.827 183.803 149.213 183.432C149.599 183.061 149.895 182.602 150.099 182.057L153.315 182.636C153.058 183.583 152.596 184.413 151.929 185.125C151.27 185.83 150.44 186.379 149.44 186.773C148.448 187.159 147.315 187.352 146.043 187.352ZM160.699 163.727V187H157.301V163.727H160.699ZM168.668 163.727V187H165.27V163.727H168.668ZM180.591 187.352C178.955 187.352 177.527 186.977 176.307 186.227C175.087 185.477 174.14 184.428 173.466 183.08C172.792 181.731 172.455 180.155 172.455 178.352C172.455 176.542 172.792 174.958 173.466 173.602C174.14 172.246 175.087 171.193 176.307 170.443C177.527 169.693 178.955 169.318 180.591 169.318C182.227 169.318 183.655 169.693 184.875 170.443C186.095 171.193 187.042 172.246 187.716 173.602C188.39 174.958 188.727 176.542 188.727 178.352C188.727 180.155 188.39 181.731 187.716 183.08C187.042 184.428 186.095 185.477 184.875 186.227C183.655 186.977 182.227 187.352 180.591 187.352ZM180.602 184.5C181.663 184.5 182.542 184.22 183.239 183.659C183.936 183.098 184.451 182.352 184.784 181.42C185.125 180.489 185.295 179.462 185.295 178.341C185.295 177.227 185.125 176.205 184.784 175.273C184.451 174.333 183.936 173.58 183.239 173.011C182.542 172.443 181.663 172.159 180.602 172.159C179.534 172.159 178.648 172.443 177.943 173.011C177.246 173.58 176.727 174.333 176.386 175.273C176.053 176.205 175.886 177.227 175.886 178.341C175.886 179.462 176.053 180.489 176.386 181.42C176.727 182.352 177.246 183.098 177.943 183.659C178.648 184.22 179.534 184.5 180.602 184.5ZM195.773 187L190.636 169.545H194.148L197.568 182.364H197.739L201.17 169.545H204.682L208.091 182.307H208.261L211.659 169.545H215.17L210.045 187H206.58L203.034 174.398H202.773L199.227 187H195.773ZM218.395 193.545V169.545H221.713V172.375H221.997C222.194 172.011 222.478 171.591 222.849 171.114C223.221 170.636 223.736 170.22 224.395 169.864C225.054 169.5 225.925 169.318 227.009 169.318C228.418 169.318 229.675 169.674 230.781 170.386C231.887 171.098 232.755 172.125 233.384 173.466C234.02 174.807 234.338 176.42 234.338 178.307C234.338 180.193 234.024 181.811 233.395 183.159C232.766 184.5 231.903 185.534 230.804 186.261C229.706 186.981 228.452 187.341 227.043 187.341C225.982 187.341 225.115 187.163 224.44 186.807C223.774 186.451 223.251 186.034 222.872 185.557C222.493 185.08 222.202 184.655 221.997 184.284H221.793V193.545H218.395ZM221.724 178.273C221.724 179.5 221.903 180.576 222.259 181.5C222.615 182.424 223.13 183.148 223.804 183.67C224.478 184.186 225.304 184.443 226.281 184.443C227.296 184.443 228.145 184.174 228.827 183.636C229.509 183.091 230.024 182.352 230.372 181.42C230.728 180.489 230.906 179.439 230.906 178.273C230.906 177.121 230.732 176.087 230.384 175.17C230.043 174.254 229.528 173.53 228.838 173C228.156 172.47 227.304 172.205 226.281 172.205C225.296 172.205 224.463 172.458 223.781 172.966C223.107 173.473 222.596 174.182 222.247 175.091C221.899 176 221.724 177.061 221.724 178.273ZM243.224 187.386C242.118 187.386 241.118 187.182 240.224 186.773C239.331 186.356 238.622 185.754 238.099 184.966C237.584 184.178 237.327 183.212 237.327 182.068C237.327 181.083 237.516 180.273 237.895 179.636C238.274 179 238.785 178.496 239.429 178.125C240.073 177.754 240.793 177.473 241.588 177.284C242.384 177.095 243.194 176.951 244.02 176.852C245.065 176.731 245.914 176.633 246.565 176.557C247.217 176.473 247.69 176.341 247.986 176.159C248.281 175.977 248.429 175.682 248.429 175.273V175.193C248.429 174.201 248.149 173.432 247.588 172.886C247.035 172.341 246.209 172.068 245.111 172.068C243.967 172.068 243.065 172.322 242.406 172.83C241.755 173.33 241.304 173.886 241.054 174.5L237.861 173.773C238.24 172.712 238.793 171.856 239.52 171.205C240.255 170.545 241.099 170.068 242.054 169.773C243.009 169.47 244.012 169.318 245.065 169.318C245.762 169.318 246.501 169.402 247.281 169.568C248.069 169.727 248.804 170.023 249.486 170.455C250.175 170.886 250.74 171.504 251.179 172.307C251.618 173.102 251.838 174.136 251.838 175.409V187H248.52V184.614H248.384C248.164 185.053 247.834 185.485 247.395 185.909C246.956 186.333 246.391 186.686 245.702 186.966C245.012 187.246 244.187 187.386 243.224 187.386ZM243.963 184.659C244.903 184.659 245.706 184.473 246.372 184.102C247.046 183.731 247.558 183.246 247.906 182.648C248.262 182.042 248.44 181.394 248.44 180.705V178.455C248.319 178.576 248.084 178.689 247.736 178.795C247.395 178.894 247.005 178.981 246.565 179.057C246.126 179.125 245.698 179.189 245.281 179.25C244.865 179.303 244.516 179.348 244.236 179.386C243.577 179.47 242.974 179.61 242.429 179.807C241.891 180.004 241.459 180.288 241.134 180.659C240.815 181.023 240.656 181.508 240.656 182.114C240.656 182.955 240.967 183.591 241.588 184.023C242.209 184.447 243.001 184.659 243.963 184.659ZM256.364 193.545V169.545H259.682V172.375H259.966C260.163 172.011 260.447 171.591 260.818 171.114C261.189 170.636 261.705 170.22 262.364 169.864C263.023 169.5 263.894 169.318 264.977 169.318C266.386 169.318 267.644 169.674 268.75 170.386C269.856 171.098 270.724 172.125 271.352 173.466C271.989 174.807 272.307 176.42 272.307 178.307C272.307 180.193 271.992 181.811 271.364 183.159C270.735 184.5 269.871 185.534 268.773 186.261C267.674 186.981 266.42 187.341 265.011 187.341C263.951 187.341 263.083 187.163 262.409 186.807C261.742 186.451 261.22 186.034 260.841 185.557C260.462 185.08 260.17 184.655 259.966 184.284H259.761V193.545H256.364ZM259.693 178.273C259.693 179.5 259.871 180.576 260.227 181.5C260.583 182.424 261.099 183.148 261.773 183.67C262.447 184.186 263.273 184.443 264.25 184.443C265.265 184.443 266.114 184.174 266.795 183.636C267.477 183.091 267.992 182.352 268.341 181.42C268.697 180.489 268.875 179.439 268.875 178.273C268.875 177.121 268.701 176.087 268.352 175.17C268.011 174.254 267.496 173.53 266.807 173C266.125 172.47 265.273 172.205 264.25 172.205C263.265 172.205 262.432 172.458 261.75 172.966C261.076 173.473 260.564 174.182 260.216 175.091C259.867 176 259.693 177.061 259.693 178.273ZM283.636 187.352C281.917 187.352 280.436 186.985 279.193 186.25C277.958 185.508 277.004 184.466 276.33 183.125C275.663 181.777 275.33 180.197 275.33 178.386C275.33 176.598 275.663 175.023 276.33 173.659C277.004 172.295 277.943 171.231 279.148 170.466C280.36 169.701 281.777 169.318 283.398 169.318C284.383 169.318 285.337 169.481 286.261 169.807C287.186 170.133 288.015 170.644 288.75 171.341C289.485 172.038 290.064 172.943 290.489 174.057C290.913 175.163 291.125 176.508 291.125 178.091V179.295H277.25V176.75H287.795C287.795 175.856 287.614 175.064 287.25 174.375C286.886 173.678 286.375 173.129 285.716 172.727C285.064 172.326 284.299 172.125 283.42 172.125C282.466 172.125 281.633 172.36 280.92 172.83C280.216 173.292 279.67 173.898 279.284 174.648C278.905 175.39 278.716 176.197 278.716 177.068V179.057C278.716 180.223 278.92 181.216 279.33 182.034C279.746 182.852 280.326 183.477 281.068 183.909C281.811 184.333 282.678 184.545 283.67 184.545C284.314 184.545 284.902 184.455 285.432 184.273C285.962 184.083 286.42 183.803 286.807 183.432C287.193 183.061 287.489 182.602 287.693 182.057L290.909 182.636C290.652 183.583 290.189 184.413 289.523 185.125C288.864 185.83 288.034 186.379 287.034 186.773C286.042 187.159 284.909 187.352 283.636 187.352ZM294.895 187V169.545H298.179V172.318H298.361C298.679 171.379 299.24 170.64 300.043 170.102C300.853 169.557 301.77 169.284 302.793 169.284C303.005 169.284 303.255 169.292 303.543 169.307C303.838 169.322 304.069 169.341 304.236 169.364V172.614C304.099 172.576 303.857 172.534 303.509 172.489C303.16 172.436 302.812 172.409 302.463 172.409C301.66 172.409 300.944 172.58 300.315 172.92C299.694 173.254 299.202 173.72 298.838 174.318C298.474 174.909 298.293 175.583 298.293 176.341V187H294.895ZM93.2131 221.727C92.2964 221.727 91.4593 221.504 90.7017 221.057C89.9442 220.602 89.3381 219.996 88.8836 219.239C88.4366 218.481 88.2131 217.644 88.2131 216.727C88.2131 215.803 88.4366 214.966 88.8836 214.216C89.3381 213.458 89.9442 212.856 90.7017 212.409C91.4593 211.955 92.2964 211.727 93.2131 211.727C94.1374 211.727 94.9745 211.955 95.7245 212.409C96.4821 212.856 97.0843 213.458 97.5313 214.216C97.9858 214.966 98.2131 215.803 98.2131 216.727C98.2131 217.644 97.9858 218.481 97.5313 219.239C97.0843 219.996 96.4821 220.602 95.7245 221.057C94.9745 221.504 94.1374 221.727 93.2131 221.727ZM121.727 226H118L126.375 202.727H130.432L138.807 226H135.08L128.5 206.955H128.318L121.727 226ZM122.352 216.886H134.443V219.841H122.352V216.886ZM154.849 212.807L151.77 213.352C151.641 212.958 151.437 212.583 151.156 212.227C150.884 211.871 150.512 211.58 150.043 211.352C149.573 211.125 148.986 211.011 148.281 211.011C147.319 211.011 146.516 211.227 145.872 211.659C145.228 212.083 144.906 212.633 144.906 213.307C144.906 213.89 145.122 214.36 145.554 214.716C145.986 215.072 146.683 215.364 147.645 215.591L150.418 216.227C152.024 216.598 153.221 217.17 154.009 217.943C154.796 218.716 155.19 219.72 155.19 220.955C155.19 222 154.887 222.932 154.281 223.75C153.683 224.561 152.846 225.197 151.77 225.659C150.702 226.121 149.463 226.352 148.054 226.352C146.099 226.352 144.505 225.936 143.27 225.102C142.035 224.261 141.278 223.068 140.997 221.523L144.281 221.023C144.486 221.879 144.906 222.527 145.543 222.966C146.179 223.398 147.009 223.614 148.031 223.614C149.145 223.614 150.035 223.383 150.702 222.92C151.368 222.451 151.702 221.879 151.702 221.205C151.702 220.659 151.497 220.201 151.088 219.83C150.687 219.458 150.069 219.178 149.236 218.989L146.281 218.341C144.653 217.97 143.448 217.379 142.668 216.568C141.895 215.758 141.509 214.731 141.509 213.489C141.509 212.458 141.796 211.557 142.372 210.784C142.948 210.011 143.743 209.409 144.759 208.977C145.774 208.538 146.937 208.318 148.247 208.318C150.134 208.318 151.618 208.727 152.702 209.545C153.785 210.356 154.501 211.443 154.849 212.807ZM172.006 212.807L168.926 213.352C168.797 212.958 168.593 212.583 168.313 212.227C168.04 211.871 167.669 211.58 167.199 211.352C166.729 211.125 166.142 211.011 165.438 211.011C164.475 211.011 163.672 211.227 163.028 211.659C162.385 212.083 162.063 212.633 162.063 213.307C162.063 213.89 162.278 214.36 162.71 214.716C163.142 215.072 163.839 215.364 164.801 215.591L167.574 216.227C169.18 216.598 170.377 217.17 171.165 217.943C171.953 218.716 172.347 219.72 172.347 220.955C172.347 222 172.044 222.932 171.438 223.75C170.839 224.561 170.002 225.197 168.926 225.659C167.858 226.121 166.619 226.352 165.21 226.352C163.256 226.352 161.661 225.936 160.426 225.102C159.191 224.261 158.434 223.068 158.153 221.523L161.438 221.023C161.642 221.879 162.063 222.527 162.699 222.966C163.335 223.398 164.165 223.614 165.188 223.614C166.301 223.614 167.191 223.383 167.858 222.92C168.525 222.451 168.858 221.879 168.858 221.205C168.858 220.659 168.653 220.201 168.244 219.83C167.843 219.458 167.225 219.178 166.392 218.989L163.438 218.341C161.809 217.97 160.604 217.379 159.824 216.568C159.051 215.758 158.665 214.731 158.665 213.489C158.665 212.458 158.953 211.557 159.528 210.784C160.104 210.011 160.9 209.409 161.915 208.977C162.93 208.538 164.093 208.318 165.403 208.318C167.29 208.318 168.775 208.727 169.858 209.545C170.941 210.356 171.657 211.443 172.006 212.807ZM183.605 226.352C181.885 226.352 180.404 225.985 179.162 225.25C177.927 224.508 176.973 223.466 176.298 222.125C175.632 220.777 175.298 219.197 175.298 217.386C175.298 215.598 175.632 214.023 176.298 212.659C176.973 211.295 177.912 210.231 179.117 209.466C180.329 208.701 181.745 208.318 183.367 208.318C184.351 208.318 185.306 208.481 186.23 208.807C187.154 209.133 187.984 209.644 188.719 210.341C189.454 211.038 190.033 211.943 190.457 213.057C190.882 214.163 191.094 215.508 191.094 217.091V218.295H177.219V215.75H187.764C187.764 214.856 187.582 214.064 187.219 213.375C186.855 212.678 186.344 212.129 185.685 211.727C185.033 211.326 184.268 211.125 183.389 211.125C182.435 211.125 181.601 211.36 180.889 211.83C180.185 212.292 179.639 212.898 179.253 213.648C178.874 214.39 178.685 215.197 178.685 216.068V218.057C178.685 219.223 178.889 220.216 179.298 221.034C179.715 221.852 180.295 222.477 181.037 222.909C181.779 223.333 182.647 223.545 183.639 223.545C184.283 223.545 184.87 223.455 185.401 223.273C185.931 223.083 186.389 222.803 186.776 222.432C187.162 222.061 187.457 221.602 187.662 221.057L190.878 221.636C190.62 222.583 190.158 223.413 189.492 224.125C188.832 224.83 188.003 225.379 187.003 225.773C186.01 226.159 184.878 226.352 183.605 226.352ZM203.011 208.545V211.273H193.477V208.545H203.011ZM196.034 204.364H199.432V220.875C199.432 221.534 199.53 222.03 199.727 222.364C199.924 222.689 200.178 222.913 200.489 223.034C200.807 223.148 201.152 223.205 201.523 223.205C201.795 223.205 202.034 223.186 202.239 223.148C202.443 223.11 202.602 223.08 202.716 223.057L203.33 225.864C203.133 225.939 202.852 226.015 202.489 226.091C202.125 226.174 201.67 226.22 201.125 226.227C200.231 226.242 199.398 226.083 198.625 225.75C197.852 225.417 197.227 224.902 196.75 224.205C196.273 223.508 196.034 222.633 196.034 221.58V204.364ZM223.386 208.545V211.273H213.852V208.545H223.386ZM216.409 204.364H219.807V220.875C219.807 221.534 219.905 222.03 220.102 222.364C220.299 222.689 220.553 222.913 220.864 223.034C221.182 223.148 221.527 223.205 221.898 223.205C222.17 223.205 222.409 223.186 222.614 223.148C222.818 223.11 222.977 223.08 223.091 223.057L223.705 225.864C223.508 225.939 223.227 226.015 222.864 226.091C222.5 226.174 222.045 226.22 221.5 226.227C220.606 226.242 219.773 226.083 219 225.75C218.227 225.417 217.602 224.902 217.125 224.205C216.648 223.508 216.409 222.633 216.409 221.58V204.364ZM234.31 226.352C232.673 226.352 231.245 225.977 230.026 225.227C228.806 224.477 227.859 223.428 227.185 222.08C226.51 220.731 226.173 219.155 226.173 217.352C226.173 215.542 226.51 213.958 227.185 212.602C227.859 211.246 228.806 210.193 230.026 209.443C231.245 208.693 232.673 208.318 234.31 208.318C235.946 208.318 237.374 208.693 238.594 209.443C239.813 210.193 240.76 211.246 241.435 212.602C242.109 213.958 242.446 215.542 242.446 217.352C242.446 219.155 242.109 220.731 241.435 222.08C240.76 223.428 239.813 224.477 238.594 225.227C237.374 225.977 235.946 226.352 234.31 226.352ZM234.321 223.5C235.382 223.5 236.26 223.22 236.957 222.659C237.654 222.098 238.17 221.352 238.503 220.42C238.844 219.489 239.014 218.462 239.014 217.341C239.014 216.227 238.844 215.205 238.503 214.273C238.17 213.333 237.654 212.58 236.957 212.011C236.26 211.443 235.382 211.159 234.321 211.159C233.253 211.159 232.367 211.443 231.662 212.011C230.965 212.58 230.446 213.333 230.105 214.273C229.772 215.205 229.605 216.227 229.605 217.341C229.605 218.462 229.772 219.489 230.105 220.42C230.446 221.352 230.965 222.098 231.662 222.659C232.367 223.22 233.253 223.5 234.321 223.5ZM249.364 220.08L249.341 215.932H249.932L256.886 208.545H260.955L253.023 216.955H252.489L249.364 220.08ZM246.239 226V202.727H249.636V226H246.239ZM257.261 226L251.011 217.705L253.352 215.33L261.432 226H257.261ZM270.855 226.352C269.135 226.352 267.654 225.985 266.412 225.25C265.177 224.508 264.223 223.466 263.548 222.125C262.882 220.777 262.548 219.197 262.548 217.386C262.548 215.598 262.882 214.023 263.548 212.659C264.223 211.295 265.162 210.231 266.367 209.466C267.579 208.701 268.995 208.318 270.617 208.318C271.601 208.318 272.556 208.481 273.48 208.807C274.404 209.133 275.234 209.644 275.969 210.341C276.704 211.038 277.283 211.943 277.707 213.057C278.132 214.163 278.344 215.508 278.344 217.091V218.295H264.469V215.75H275.014C275.014 214.856 274.832 214.064 274.469 213.375C274.105 212.678 273.594 212.129 272.935 211.727C272.283 211.326 271.518 211.125 270.639 211.125C269.685 211.125 268.851 211.36 268.139 211.83C267.435 212.292 266.889 212.898 266.503 213.648C266.124 214.39 265.935 215.197 265.935 216.068V218.057C265.935 219.223 266.139 220.216 266.548 221.034C266.965 221.852 267.545 222.477 268.287 222.909C269.029 223.333 269.897 223.545 270.889 223.545C271.533 223.545 272.12 223.455 272.651 223.273C273.181 223.083 273.639 222.803 274.026 222.432C274.412 222.061 274.707 221.602 274.912 221.057L278.128 221.636C277.87 222.583 277.408 223.413 276.742 224.125C276.082 224.83 275.253 225.379 274.253 225.773C273.26 226.159 272.128 226.352 270.855 226.352ZM285.511 215.636V226H282.114V208.545H285.375V211.386H285.591C285.992 210.462 286.621 209.72 287.477 209.159C288.341 208.598 289.428 208.318 290.739 208.318C291.928 208.318 292.97 208.568 293.864 209.068C294.758 209.561 295.451 210.295 295.943 211.273C296.436 212.25 296.682 213.458 296.682 214.898V226H293.284V215.307C293.284 214.042 292.955 213.053 292.295 212.341C291.636 211.621 290.731 211.261 289.58 211.261C288.792 211.261 288.091 211.432 287.477 211.773C286.871 212.114 286.39 212.614 286.034 213.273C285.686 213.924 285.511 214.712 285.511 215.636ZM301.239 226V208.545H304.636V226H301.239ZM302.955 205.852C302.364 205.852 301.856 205.655 301.432 205.261C301.015 204.86 300.807 204.383 300.807 203.83C300.807 203.269 301.015 202.792 301.432 202.398C301.856 201.996 302.364 201.795 302.955 201.795C303.545 201.795 304.049 201.996 304.466 202.398C304.89 202.792 305.102 203.269 305.102 203.83C305.102 204.383 304.89 204.86 304.466 205.261C304.049 205.655 303.545 205.852 302.955 205.852ZM322.287 212.807L319.207 213.352C319.079 212.958 318.874 212.583 318.594 212.227C318.321 211.871 317.95 211.58 317.48 211.352C317.01 211.125 316.423 211.011 315.719 211.011C314.757 211.011 313.954 211.227 313.31 211.659C312.666 212.083 312.344 212.633 312.344 213.307C312.344 213.89 312.56 214.36 312.992 214.716C313.423 215.072 314.12 215.364 315.082 215.591L317.855 216.227C319.461 216.598 320.658 217.17 321.446 217.943C322.234 218.716 322.628 219.72 322.628 220.955C322.628 222 322.325 222.932 321.719 223.75C321.12 224.561 320.283 225.197 319.207 225.659C318.139 226.121 316.901 226.352 315.492 226.352C313.537 226.352 311.942 225.936 310.707 225.102C309.473 224.261 308.715 223.068 308.435 221.523L311.719 221.023C311.923 221.879 312.344 222.527 312.98 222.966C313.617 223.398 314.446 223.614 315.469 223.614C316.582 223.614 317.473 223.383 318.139 222.92C318.806 222.451 319.139 221.879 319.139 221.205C319.139 220.659 318.935 220.201 318.526 219.83C318.124 219.458 317.507 219.178 316.673 218.989L313.719 218.341C312.09 217.97 310.885 217.379 310.105 216.568C309.332 215.758 308.946 214.731 308.946 213.489C308.946 212.458 309.234 211.557 309.81 210.784C310.385 210.011 311.181 209.409 312.196 208.977C313.211 208.538 314.374 208.318 315.685 208.318C317.571 208.318 319.056 208.727 320.139 209.545C321.223 210.356 321.938 211.443 322.287 212.807ZM331.443 226.386C330.337 226.386 329.337 226.182 328.443 225.773C327.549 225.356 326.841 224.754 326.318 223.966C325.803 223.178 325.545 222.212 325.545 221.068C325.545 220.083 325.735 219.273 326.114 218.636C326.492 218 327.004 217.496 327.648 217.125C328.292 216.754 329.011 216.473 329.807 216.284C330.602 216.095 331.413 215.951 332.239 215.852C333.284 215.731 334.133 215.633 334.784 215.557C335.436 215.473 335.909 215.341 336.205 215.159C336.5 214.977 336.648 214.682 336.648 214.273V214.193C336.648 213.201 336.367 212.432 335.807 211.886C335.254 211.341 334.428 211.068 333.33 211.068C332.186 211.068 331.284 211.322 330.625 211.83C329.974 212.33 329.523 212.886 329.273 213.5L326.08 212.773C326.458 211.712 327.011 210.856 327.739 210.205C328.474 209.545 329.318 209.068 330.273 208.773C331.227 208.47 332.231 208.318 333.284 208.318C333.981 208.318 334.72 208.402 335.5 208.568C336.288 208.727 337.023 209.023 337.705 209.455C338.394 209.886 338.958 210.504 339.398 211.307C339.837 212.102 340.057 213.136 340.057 214.409V226H336.739V223.614H336.602C336.383 224.053 336.053 224.485 335.614 224.909C335.174 225.333 334.61 225.686 333.92 225.966C333.231 226.246 332.405 226.386 331.443 226.386ZM332.182 223.659C333.121 223.659 333.924 223.473 334.591 223.102C335.265 222.731 335.777 222.246 336.125 221.648C336.481 221.042 336.659 220.394 336.659 219.705V217.455C336.538 217.576 336.303 217.689 335.955 217.795C335.614 217.894 335.224 217.981 334.784 218.057C334.345 218.125 333.917 218.189 333.5 218.25C333.083 218.303 332.735 218.348 332.455 218.386C331.795 218.47 331.193 218.61 330.648 218.807C330.11 219.004 329.678 219.288 329.352 219.659C329.034 220.023 328.875 220.508 328.875 221.114C328.875 221.955 329.186 222.591 329.807 223.023C330.428 223.447 331.22 223.659 332.182 223.659ZM352.73 208.545V211.273H343.196V208.545H352.73ZM345.753 204.364H349.151V220.875C349.151 221.534 349.249 222.03 349.446 222.364C349.643 222.689 349.897 222.913 350.207 223.034C350.526 223.148 350.87 223.205 351.242 223.205C351.514 223.205 351.753 223.186 351.957 223.148C352.162 223.11 352.321 223.08 352.435 223.057L353.048 225.864C352.851 225.939 352.571 226.015 352.207 226.091C351.844 226.174 351.389 226.22 350.844 226.227C349.95 226.242 349.117 226.083 348.344 225.75C347.571 225.417 346.946 224.902 346.469 224.205C345.992 223.508 345.753 222.633 345.753 221.58V204.364ZM356.489 226V208.545H359.886V226H356.489ZM358.205 205.852C357.614 205.852 357.106 205.655 356.682 205.261C356.265 204.86 356.057 204.383 356.057 203.83C356.057 203.269 356.265 202.792 356.682 202.398C357.106 201.996 357.614 201.795 358.205 201.795C358.795 201.795 359.299 201.996 359.716 202.398C360.14 202.792 360.352 203.269 360.352 203.83C360.352 204.383 360.14 204.86 359.716 205.261C359.299 205.655 358.795 205.852 358.205 205.852ZM371.81 226.352C370.173 226.352 368.745 225.977 367.526 225.227C366.306 224.477 365.359 223.428 364.685 222.08C364.01 220.731 363.673 219.155 363.673 217.352C363.673 215.542 364.01 213.958 364.685 212.602C365.359 211.246 366.306 210.193 367.526 209.443C368.745 208.693 370.173 208.318 371.81 208.318C373.446 208.318 374.874 208.693 376.094 209.443C377.313 210.193 378.26 211.246 378.935 212.602C379.609 213.958 379.946 215.542 379.946 217.352C379.946 219.155 379.609 220.731 378.935 222.08C378.26 223.428 377.313 224.477 376.094 225.227C374.874 225.977 373.446 226.352 371.81 226.352ZM371.821 223.5C372.882 223.5 373.76 223.22 374.457 222.659C375.154 222.098 375.67 221.352 376.003 220.42C376.344 219.489 376.514 218.462 376.514 217.341C376.514 216.227 376.344 215.205 376.003 214.273C375.67 213.333 375.154 212.58 374.457 212.011C373.76 211.443 372.882 211.159 371.821 211.159C370.753 211.159 369.867 211.443 369.162 212.011C368.465 212.58 367.946 213.333 367.605 214.273C367.272 215.205 367.105 216.227 367.105 217.341C367.105 218.462 367.272 219.489 367.605 220.42C367.946 221.352 368.465 222.098 369.162 222.659C369.867 223.22 370.753 223.5 371.821 223.5ZM387.136 215.636V226H383.739V208.545H387V211.386H387.216C387.617 210.462 388.246 209.72 389.102 209.159C389.966 208.598 391.053 208.318 392.364 208.318C393.553 208.318 394.595 208.568 395.489 209.068C396.383 209.561 397.076 210.295 397.568 211.273C398.061 212.25 398.307 213.458 398.307 214.898V226H394.909V215.307C394.909 214.042 394.58 213.053 393.92 212.341C393.261 211.621 392.356 211.261 391.205 211.261C390.417 211.261 389.716 211.432 389.102 211.773C388.496 212.114 388.015 212.614 387.659 213.273C387.311 213.924 387.136 214.712 387.136 215.636ZM415.117 226L409.98 208.545H413.492L416.912 221.364H417.082L420.514 208.545H424.026L427.435 221.307H427.605L431.003 208.545H434.514L429.389 226H425.923L422.378 213.398H422.117L418.571 226H415.117ZM437.739 226V208.545H441.136V226H437.739ZM439.455 205.852C438.864 205.852 438.356 205.655 437.932 205.261C437.515 204.86 437.307 204.383 437.307 203.83C437.307 203.269 437.515 202.792 437.932 202.398C438.356 201.996 438.864 201.795 439.455 201.795C440.045 201.795 440.549 201.996 440.966 202.398C441.39 202.792 441.602 203.269 441.602 203.83C441.602 204.383 441.39 204.86 440.966 205.261C440.549 205.655 440.045 205.852 439.455 205.852ZM453.855 208.545V211.273H444.321V208.545H453.855ZM446.878 204.364H450.276V220.875C450.276 221.534 450.374 222.03 450.571 222.364C450.768 222.689 451.022 222.913 451.332 223.034C451.651 223.148 451.995 223.205 452.367 223.205C452.639 223.205 452.878 223.186 453.082 223.148C453.287 223.11 453.446 223.08 453.56 223.057L454.173 225.864C453.976 225.939 453.696 226.015 453.332 226.091C452.969 226.174 452.514 226.22 451.969 226.227C451.075 226.242 450.242 226.083 449.469 225.75C448.696 225.417 448.071 224.902 447.594 224.205C447.117 223.508 446.878 222.633 446.878 221.58V204.364ZM461.386 215.636V226H457.989V202.727H461.341V211.386H461.557C461.966 210.447 462.591 209.701 463.432 209.148C464.273 208.595 465.371 208.318 466.727 208.318C467.924 208.318 468.97 208.564 469.864 209.057C470.765 209.549 471.462 210.284 471.955 211.261C472.455 212.231 472.705 213.443 472.705 214.898V226H469.307V215.307C469.307 214.027 468.977 213.034 468.318 212.33C467.659 211.617 466.742 211.261 465.568 211.261C464.765 211.261 464.045 211.432 463.409 211.773C462.78 212.114 462.284 212.614 461.92 213.273C461.564 213.924 461.386 214.712 461.386 215.636ZM485.707 226V208.545H488.992V211.318H489.173C489.492 210.379 490.052 209.64 490.855 209.102C491.666 208.557 492.582 208.284 493.605 208.284C493.817 208.284 494.067 208.292 494.355 208.307C494.651 208.322 494.882 208.341 495.048 208.364V211.614C494.912 211.576 494.67 211.534 494.321 211.489C493.973 211.436 493.624 211.409 493.276 211.409C492.473 211.409 491.757 211.58 491.128 211.92C490.507 212.254 490.014 212.72 489.651 213.318C489.287 213.909 489.105 214.583 489.105 215.341V226H485.707ZM504.886 226.352C503.167 226.352 501.686 225.985 500.443 225.25C499.208 224.508 498.254 223.466 497.58 222.125C496.913 220.777 496.58 219.197 496.58 217.386C496.58 215.598 496.913 214.023 497.58 212.659C498.254 211.295 499.193 210.231 500.398 209.466C501.61 208.701 503.027 208.318 504.648 208.318C505.633 208.318 506.587 208.481 507.511 208.807C508.436 209.133 509.265 209.644 510 210.341C510.735 211.038 511.314 211.943 511.739 213.057C512.163 214.163 512.375 215.508 512.375 217.091V218.295H498.5V215.75H509.045C509.045 214.856 508.864 214.064 508.5 213.375C508.136 212.678 507.625 212.129 506.966 211.727C506.314 211.326 505.549 211.125 504.67 211.125C503.716 211.125 502.883 211.36 502.17 211.83C501.466 212.292 500.92 212.898 500.534 213.648C500.155 214.39 499.966 215.197 499.966 216.068V218.057C499.966 219.223 500.17 220.216 500.58 221.034C500.996 221.852 501.576 222.477 502.318 222.909C503.061 223.333 503.928 223.545 504.92 223.545C505.564 223.545 506.152 223.455 506.682 223.273C507.212 223.083 507.67 222.803 508.057 222.432C508.443 222.061 508.739 221.602 508.943 221.057L512.159 221.636C511.902 222.583 511.439 223.413 510.773 224.125C510.114 224.83 509.284 225.379 508.284 225.773C507.292 226.159 506.159 226.352 504.886 226.352ZM521.224 226.386C520.118 226.386 519.118 226.182 518.224 225.773C517.331 225.356 516.622 224.754 516.099 223.966C515.584 223.178 515.327 222.212 515.327 221.068C515.327 220.083 515.516 219.273 515.895 218.636C516.274 218 516.785 217.496 517.429 217.125C518.073 216.754 518.793 216.473 519.588 216.284C520.384 216.095 521.194 215.951 522.02 215.852C523.065 215.731 523.914 215.633 524.565 215.557C525.217 215.473 525.69 215.341 525.986 215.159C526.281 214.977 526.429 214.682 526.429 214.273V214.193C526.429 213.201 526.149 212.432 525.588 211.886C525.035 211.341 524.209 211.068 523.111 211.068C521.967 211.068 521.065 211.322 520.406 211.83C519.755 212.33 519.304 212.886 519.054 213.5L515.861 212.773C516.24 211.712 516.793 210.856 517.52 210.205C518.255 209.545 519.099 209.068 520.054 208.773C521.009 208.47 522.012 208.318 523.065 208.318C523.762 208.318 524.501 208.402 525.281 208.568C526.069 208.727 526.804 209.023 527.486 209.455C528.175 209.886 528.74 210.504 529.179 211.307C529.618 212.102 529.838 213.136 529.838 214.409V226H526.52V223.614H526.384C526.164 224.053 525.834 224.485 525.395 224.909C524.956 225.333 524.391 225.686 523.702 225.966C523.012 226.246 522.187 226.386 521.224 226.386ZM521.963 223.659C522.903 223.659 523.706 223.473 524.372 223.102C525.046 222.731 525.558 222.246 525.906 221.648C526.262 221.042 526.44 220.394 526.44 219.705V217.455C526.319 217.576 526.084 217.689 525.736 217.795C525.395 217.894 525.005 217.981 524.565 218.057C524.126 218.125 523.698 218.189 523.281 218.25C522.865 218.303 522.516 218.348 522.236 218.386C521.577 218.47 520.974 218.61 520.429 218.807C519.891 219.004 519.459 219.288 519.134 219.659C518.815 220.023 518.656 220.508 518.656 221.114C518.656 221.955 518.967 222.591 519.588 223.023C520.209 223.447 521.001 223.659 521.963 223.659ZM537.761 202.727V226H534.364V202.727H537.761ZM558.324 226.352C556.604 226.352 555.123 225.985 553.881 225.25C552.646 224.508 551.691 223.466 551.017 222.125C550.35 220.777 550.017 219.197 550.017 217.386C550.017 215.598 550.35 214.023 551.017 212.659C551.691 211.295 552.631 210.231 553.835 209.466C555.047 208.701 556.464 208.318 558.085 208.318C559.07 208.318 560.025 208.481 560.949 208.807C561.873 209.133 562.703 209.644 563.438 210.341C564.172 211.038 564.752 211.943 565.176 213.057C565.6 214.163 565.813 215.508 565.813 217.091V218.295H551.938V215.75H562.483C562.483 214.856 562.301 214.064 561.938 213.375C561.574 212.678 561.063 212.129 560.403 211.727C559.752 211.326 558.987 211.125 558.108 211.125C557.153 211.125 556.32 211.36 555.608 211.83C554.903 212.292 554.358 212.898 553.972 213.648C553.593 214.39 553.403 215.197 553.403 216.068V218.057C553.403 219.223 553.608 220.216 554.017 221.034C554.434 221.852 555.013 222.477 555.756 222.909C556.498 223.333 557.366 223.545 558.358 223.545C559.002 223.545 559.589 223.455 560.119 223.273C560.65 223.083 561.108 222.803 561.494 222.432C561.881 222.061 562.176 221.602 562.381 221.057L565.597 221.636C565.339 222.583 564.877 223.413 564.21 224.125C563.551 224.83 562.722 225.379 561.722 225.773C560.729 226.159 559.597 226.352 558.324 226.352ZM582.662 212.807L579.582 213.352C579.454 212.958 579.249 212.583 578.969 212.227C578.696 211.871 578.325 211.58 577.855 211.352C577.385 211.125 576.798 211.011 576.094 211.011C575.132 211.011 574.329 211.227 573.685 211.659C573.041 212.083 572.719 212.633 572.719 213.307C572.719 213.89 572.935 214.36 573.367 214.716C573.798 215.072 574.495 215.364 575.457 215.591L578.23 216.227C579.836 216.598 581.033 217.17 581.821 217.943C582.609 218.716 583.003 219.72 583.003 220.955C583.003 222 582.7 222.932 582.094 223.75C581.495 224.561 580.658 225.197 579.582 225.659C578.514 226.121 577.276 226.352 575.867 226.352C573.912 226.352 572.317 225.936 571.082 225.102C569.848 224.261 569.09 223.068 568.81 221.523L572.094 221.023C572.298 221.879 572.719 222.527 573.355 222.966C573.992 223.398 574.821 223.614 575.844 223.614C576.957 223.614 577.848 223.383 578.514 222.92C579.181 222.451 579.514 221.879 579.514 221.205C579.514 220.659 579.31 220.201 578.901 219.83C578.499 219.458 577.882 219.178 577.048 218.989L574.094 218.341C572.465 217.97 571.26 217.379 570.48 216.568C569.707 215.758 569.321 214.731 569.321 213.489C569.321 212.458 569.609 211.557 570.185 210.784C570.76 210.011 571.556 209.409 572.571 208.977C573.586 208.538 574.749 208.318 576.06 208.318C577.946 208.318 579.431 208.727 580.514 209.545C581.598 210.356 582.313 211.443 582.662 212.807ZM594.886 208.545V211.273H585.352V208.545H594.886ZM587.909 204.364H591.307V220.875C591.307 221.534 591.405 222.03 591.602 222.364C591.799 222.689 592.053 222.913 592.364 223.034C592.682 223.148 593.027 223.205 593.398 223.205C593.67 223.205 593.909 223.186 594.114 223.148C594.318 223.11 594.477 223.08 594.591 223.057L595.205 225.864C595.008 225.939 594.727 226.015 594.364 226.091C594 226.174 593.545 226.22 593 226.227C592.106 226.242 591.273 226.083 590.5 225.75C589.727 225.417 589.102 224.902 588.625 224.205C588.148 223.508 587.909 222.633 587.909 221.58V204.364ZM603.724 226.386C602.618 226.386 601.618 226.182 600.724 225.773C599.831 225.356 599.122 224.754 598.599 223.966C598.084 223.178 597.827 222.212 597.827 221.068C597.827 220.083 598.016 219.273 598.395 218.636C598.774 218 599.285 217.496 599.929 217.125C600.573 216.754 601.293 216.473 602.088 216.284C602.884 216.095 603.694 215.951 604.52 215.852C605.565 215.731 606.414 215.633 607.065 215.557C607.717 215.473 608.19 215.341 608.486 215.159C608.781 214.977 608.929 214.682 608.929 214.273V214.193C608.929 213.201 608.649 212.432 608.088 211.886C607.535 211.341 606.709 211.068 605.611 211.068C604.467 211.068 603.565 211.322 602.906 211.83C602.255 212.33 601.804 212.886 601.554 213.5L598.361 212.773C598.74 211.712 599.293 210.856 600.02 210.205C600.755 209.545 601.599 209.068 602.554 208.773C603.509 208.47 604.512 208.318 605.565 208.318C606.262 208.318 607.001 208.402 607.781 208.568C608.569 208.727 609.304 209.023 609.986 209.455C610.675 209.886 611.24 210.504 611.679 211.307C612.118 212.102 612.338 213.136 612.338 214.409V226H609.02V223.614H608.884C608.664 224.053 608.334 224.485 607.895 224.909C607.456 225.333 606.891 225.686 606.202 225.966C605.512 226.246 604.687 226.386 603.724 226.386ZM604.463 223.659C605.403 223.659 606.206 223.473 606.872 223.102C607.546 222.731 608.058 222.246 608.406 221.648C608.762 221.042 608.94 220.394 608.94 219.705V217.455C608.819 217.576 608.584 217.689 608.236 217.795C607.895 217.894 607.505 217.981 607.065 218.057C606.626 218.125 606.198 218.189 605.781 218.25C605.365 218.303 605.016 218.348 604.736 218.386C604.077 218.47 603.474 218.61 602.929 218.807C602.391 219.004 601.959 219.288 601.634 219.659C601.315 220.023 601.156 220.508 601.156 221.114C601.156 221.955 601.467 222.591 602.088 223.023C602.709 223.447 603.501 223.659 604.463 223.659ZM625.011 208.545V211.273H615.477V208.545H625.011ZM618.034 204.364H621.432V220.875C621.432 221.534 621.53 222.03 621.727 222.364C621.924 222.689 622.178 222.913 622.489 223.034C622.807 223.148 623.152 223.205 623.523 223.205C623.795 223.205 624.034 223.186 624.239 223.148C624.443 223.11 624.602 223.08 624.716 223.057L625.33 225.864C625.133 225.939 624.852 226.015 624.489 226.091C624.125 226.174 623.67 226.22 623.125 226.227C622.231 226.242 621.398 226.083 620.625 225.75C619.852 225.417 619.227 224.902 618.75 224.205C618.273 223.508 618.034 222.633 618.034 221.58V204.364ZM636.105 226.352C634.385 226.352 632.904 225.985 631.662 225.25C630.427 224.508 629.473 223.466 628.798 222.125C628.132 220.777 627.798 219.197 627.798 217.386C627.798 215.598 628.132 214.023 628.798 212.659C629.473 211.295 630.412 210.231 631.617 209.466C632.829 208.701 634.245 208.318 635.867 208.318C636.851 208.318 637.806 208.481 638.73 208.807C639.654 209.133 640.484 209.644 641.219 210.341C641.954 211.038 642.533 211.943 642.957 213.057C643.382 214.163 643.594 215.508 643.594 217.091V218.295H629.719V215.75H640.264C640.264 214.856 640.082 214.064 639.719 213.375C639.355 212.678 638.844 212.129 638.185 211.727C637.533 211.326 636.768 211.125 635.889 211.125C634.935 211.125 634.101 211.36 633.389 211.83C632.685 212.292 632.139 212.898 631.753 213.648C631.374 214.39 631.185 215.197 631.185 216.068V218.057C631.185 219.223 631.389 220.216 631.798 221.034C632.215 221.852 632.795 222.477 633.537 222.909C634.279 223.333 635.147 223.545 636.139 223.545C636.783 223.545 637.37 223.455 637.901 223.273C638.431 223.083 638.889 222.803 639.276 222.432C639.662 222.061 639.957 221.602 640.162 221.057L643.378 221.636C643.12 222.583 642.658 223.413 641.992 224.125C641.332 224.83 640.503 225.379 639.503 225.773C638.51 226.159 637.378 226.352 636.105 226.352Z" fill="#BA1E71"/>
<line x1="93.7046" y1="20" x2="93.7046" y2="335" stroke="#BA1E71"/>
</svg>
