<svg width="646" height="636" viewBox="0 0 646 636" fill="none" xmlns="http://www.w3.org/2000/svg">
<path d="M367.795 342L313.795 386.167V297.833L367.795 342Z" fill="#BA1E71"/>
<path fill-rule="evenodd" clip-rule="evenodd" d="M1.52724e-06 386L53.7955 342L1.52724e-06 298H313.795V386H1.52724e-06ZM-0.204542 386L-0.20454 298H-0.204542V386Z" fill="#BA1E71"/>
<path d="M134.011 356V353.443L143.614 342.932C144.741 341.701 145.669 340.631 146.398 339.722C147.127 338.803 147.667 337.941 148.017 337.136C148.377 336.322 148.557 335.47 148.557 334.58C148.557 333.557 148.311 332.671 147.818 331.923C147.335 331.175 146.672 330.598 145.83 330.19C144.987 329.783 144.04 329.58 142.989 329.58C141.871 329.58 140.896 329.812 140.062 330.276C139.239 330.73 138.599 331.369 138.145 332.193C137.7 333.017 137.477 333.983 137.477 335.091H134.125C134.125 333.386 134.518 331.89 135.304 330.602C136.09 329.314 137.16 328.311 138.514 327.591C139.878 326.871 141.407 326.511 143.102 326.511C144.807 326.511 146.317 326.871 147.634 327.591C148.95 328.311 149.982 329.281 150.73 330.503C151.478 331.724 151.852 333.083 151.852 334.58C151.852 335.65 151.658 336.696 151.27 337.719C150.891 338.732 150.228 339.864 149.281 341.114C148.344 342.354 147.042 343.869 145.375 345.659L138.841 352.648V352.875H152.364V356H134.011ZM167.719 356.398C165.579 356.398 163.756 355.815 162.25 354.651C160.744 353.476 159.594 351.777 158.798 349.551C158.003 347.316 157.605 344.617 157.605 341.455C157.605 338.311 158.003 335.626 158.798 333.401C159.603 331.166 160.759 329.461 162.264 328.287C163.779 327.103 165.598 326.511 167.719 326.511C169.84 326.511 171.653 327.103 173.159 328.287C174.674 329.461 175.83 331.166 176.625 333.401C177.43 335.626 177.832 338.311 177.832 341.455C177.832 344.617 177.435 347.316 176.639 349.551C175.844 351.777 174.693 353.476 173.188 354.651C171.682 355.815 169.859 356.398 167.719 356.398ZM167.719 353.273C169.84 353.273 171.488 352.25 172.662 350.205C173.836 348.159 174.423 345.242 174.423 341.455C174.423 338.936 174.153 336.791 173.614 335.02C173.083 333.249 172.316 331.9 171.312 330.972C170.318 330.044 169.12 329.58 167.719 329.58C165.616 329.58 163.973 330.616 162.79 332.69C161.606 334.755 161.014 337.676 161.014 341.455C161.014 343.973 161.279 346.114 161.81 347.875C162.34 349.636 163.102 350.976 164.097 351.895C165.1 352.813 166.308 353.273 167.719 353.273ZM183.23 356V353.443L192.832 342.932C193.959 341.701 194.887 340.631 195.616 339.722C196.346 338.803 196.885 337.941 197.236 337.136C197.596 336.322 197.776 335.47 197.776 334.58C197.776 333.557 197.529 332.671 197.037 331.923C196.554 331.175 195.891 330.598 195.048 330.19C194.205 329.783 193.259 329.58 192.207 329.58C191.09 329.58 190.115 329.812 189.281 330.276C188.457 330.73 187.818 331.369 187.364 332.193C186.919 333.017 186.696 333.983 186.696 335.091H183.344C183.344 333.386 183.737 331.89 184.523 330.602C185.309 329.314 186.379 328.311 187.733 327.591C189.097 326.871 190.626 326.511 192.321 326.511C194.026 326.511 195.536 326.871 196.852 327.591C198.169 328.311 199.201 329.281 199.949 330.503C200.697 331.724 201.071 333.083 201.071 334.58C201.071 335.65 200.877 336.696 200.489 337.719C200.11 338.732 199.447 339.864 198.5 341.114C197.562 342.354 196.26 343.869 194.594 345.659L188.06 352.648V352.875H201.582V356H183.23ZM217.278 356.398C215.403 356.398 213.732 356.076 212.264 355.432C210.806 354.788 209.646 353.893 208.784 352.747C207.932 351.592 207.468 350.252 207.392 348.727H210.972C211.047 349.665 211.369 350.474 211.938 351.156C212.506 351.829 213.249 352.349 214.168 352.719C215.086 353.088 216.104 353.273 217.222 353.273C218.472 353.273 219.58 353.055 220.545 352.619C221.511 352.184 222.269 351.578 222.818 350.801C223.367 350.025 223.642 349.125 223.642 348.102C223.642 347.032 223.377 346.09 222.847 345.276C222.316 344.452 221.54 343.808 220.517 343.344C219.494 342.88 218.244 342.648 216.767 342.648H214.438V339.523H216.767C217.922 339.523 218.936 339.314 219.807 338.898C220.688 338.481 221.374 337.894 221.866 337.136C222.368 336.379 222.619 335.489 222.619 334.466C222.619 333.481 222.402 332.624 221.966 331.895C221.53 331.166 220.915 330.598 220.119 330.19C219.333 329.783 218.405 329.58 217.335 329.58C216.331 329.58 215.384 329.764 214.494 330.134C213.614 330.493 212.894 331.019 212.335 331.71C211.777 332.392 211.473 333.216 211.426 334.182H208.017C208.074 332.657 208.533 331.322 209.395 330.176C210.257 329.021 211.384 328.121 212.776 327.477C214.177 326.833 215.716 326.511 217.392 326.511C219.191 326.511 220.735 326.876 222.023 327.605C223.311 328.325 224.3 329.277 224.991 330.46C225.683 331.644 226.028 332.922 226.028 334.295C226.028 335.934 225.598 337.33 224.736 338.486C223.884 339.641 222.723 340.441 221.256 340.886V341.114C223.093 341.417 224.527 342.198 225.56 343.457C226.592 344.707 227.108 346.256 227.108 348.102C227.108 349.684 226.677 351.104 225.815 352.364C224.963 353.614 223.798 354.598 222.321 355.318C220.844 356.038 219.163 356.398 217.278 356.398ZM255.247 346.909H259.111L262.349 351.17L263.202 352.307L268.031 358.727H264.168L260.986 354.466L260.19 353.386L255.247 346.909ZM269.224 341.455C269.224 344.523 268.67 347.174 267.562 349.409C266.455 351.644 264.935 353.367 263.003 354.58C261.071 355.792 258.865 356.398 256.384 356.398C253.902 356.398 251.696 355.792 249.764 354.58C247.832 353.367 246.313 351.644 245.205 349.409C244.097 347.174 243.543 344.523 243.543 341.455C243.543 338.386 244.097 335.735 245.205 333.5C246.313 331.265 247.832 329.542 249.764 328.33C251.696 327.117 253.902 326.511 256.384 326.511C258.865 326.511 261.071 327.117 263.003 328.33C264.935 329.542 266.455 331.265 267.562 333.5C268.67 335.735 269.224 338.386 269.224 341.455ZM265.815 341.455C265.815 338.936 265.394 336.81 264.551 335.077C263.718 333.344 262.586 332.032 261.156 331.142C259.736 330.252 258.145 329.807 256.384 329.807C254.622 329.807 253.027 330.252 251.597 331.142C250.176 332.032 249.045 333.344 248.202 335.077C247.368 336.81 246.952 338.936 246.952 341.455C246.952 343.973 247.368 346.099 248.202 347.832C249.045 349.565 250.176 350.877 251.597 351.767C253.027 352.657 254.622 353.102 256.384 353.102C258.145 353.102 259.736 352.657 261.156 351.767C262.586 350.877 263.718 349.565 264.551 347.832C265.394 346.099 265.815 343.973 265.815 341.455ZM274.636 356V353.443L284.239 342.932C285.366 341.701 286.294 340.631 287.023 339.722C287.752 338.803 288.292 337.941 288.642 337.136C289.002 336.322 289.182 335.47 289.182 334.58C289.182 333.557 288.936 332.671 288.443 331.923C287.96 331.175 287.297 330.598 286.455 330.19C285.612 329.783 284.665 329.58 283.614 329.58C282.496 329.58 281.521 329.812 280.688 330.276C279.864 330.73 279.224 331.369 278.77 332.193C278.325 333.017 278.102 333.983 278.102 335.091H274.75C274.75 333.386 275.143 331.89 275.929 330.602C276.715 329.314 277.785 328.311 279.139 327.591C280.503 326.871 282.032 326.511 283.727 326.511C285.432 326.511 286.942 326.871 288.259 327.591C289.575 328.311 290.607 329.281 291.355 330.503C292.103 331.724 292.477 333.083 292.477 334.58C292.477 335.65 292.283 336.696 291.895 337.719C291.516 338.732 290.853 339.864 289.906 341.114C288.969 342.354 287.667 343.869 286 345.659L279.466 352.648V352.875H292.989V356H274.636Z" fill="black"/>
<circle cx="92.5" cy="341.5" r="8.5" fill="#D9D9D9"/>
<path d="M94.0564 423.248C93.011 423.244 92.0417 422.994 91.1483 422.5C90.255 421.985 89.544 421.288 89.0154 420.412C88.4867 419.535 88.2252 418.563 88.2308 417.496C88.2361 416.515 88.4863 415.588 88.9816 414.715C89.4983 413.843 90.1953 413.142 91.0728 412.612C91.9718 412.061 92.9866 411.788 94.1172 411.792C95.1626 411.796 96.1212 412.056 96.9931 412.572C97.8652 413.066 98.5656 413.741 99.0944 414.596C99.6445 415.452 99.9166 416.434 99.9107 417.543C99.9052 418.589 99.6334 419.548 99.0955 420.42C98.5788 421.293 97.8711 421.983 96.9724 422.492C96.095 423 95.123 423.252 94.0564 423.248ZM120.782 426.203L120.902 403.643L128.55 403.674C131.067 403.684 133.187 404.13 134.911 405.012C136.655 405.893 137.971 407.179 138.858 408.868C139.745 410.535 140.182 412.574 140.17 414.985C140.157 417.395 139.698 419.442 138.793 421.123C137.888 422.805 136.559 424.08 134.805 424.947C133.072 425.815 130.947 426.244 128.43 426.234L120.782 426.203ZM123.771 423.687L128.219 423.705C131.227 423.717 133.46 423.001 134.919 421.556C136.377 420.111 137.114 417.917 137.13 414.973C137.145 412.029 136.432 409.839 134.989 408.404C133.546 406.948 131.32 406.213 128.312 406.201L123.864 406.183L123.771 423.687ZM144.43 426.298L144.494 414.138C144.498 413.498 144.48 412.847 144.441 412.186C144.423 411.503 144.373 410.842 144.291 410.201L147.107 410.213L147.438 414.246L146.957 414.276C147.176 413.296 147.543 412.486 148.058 411.848C148.595 411.189 149.227 410.712 149.954 410.416C150.702 410.099 151.471 409.942 152.261 409.945C152.602 409.947 152.89 409.958 153.124 409.981C153.359 410.003 153.593 410.057 153.828 410.144L153.75 412.735C153.43 412.606 153.132 412.53 152.855 412.508C152.599 412.464 152.279 412.441 151.895 412.44C150.957 412.436 150.145 412.646 149.46 413.07C148.796 413.494 148.281 414.057 147.915 414.76C147.57 415.463 147.395 416.219 147.391 417.03L147.342 426.31L144.43 426.298ZM162.291 426.658C160.883 426.652 159.648 426.316 158.585 425.651C157.522 424.985 156.695 424.022 156.104 422.761C155.513 421.5 155.223 420.005 155.232 418.277C155.241 416.549 155.548 415.068 156.151 413.833C156.755 412.577 157.593 411.62 158.663 410.963C159.733 410.306 160.972 409.98 162.38 409.986C163.809 409.992 165.045 410.359 166.086 411.089C167.149 411.797 167.848 412.77 168.183 414.009L167.799 414.008L168.17 410.297L170.986 410.308C170.919 410.948 170.852 411.588 170.784 412.228C170.738 412.867 170.713 413.497 170.71 414.115L170.645 426.403L167.733 426.391L167.752 422.712L168.104 422.713C167.757 423.928 167.047 424.895 165.977 425.616C164.928 426.316 163.699 426.663 162.291 426.658ZM162.976 424.356C164.426 424.362 165.592 423.855 166.472 422.834C167.352 421.814 167.797 420.312 167.808 418.328C167.818 416.344 167.389 414.849 166.52 413.843C165.65 412.836 164.49 412.33 163.04 412.325C161.589 412.319 160.413 412.815 159.512 413.814C158.632 414.814 158.186 416.305 158.176 418.289C158.165 420.273 158.595 421.779 159.464 422.806C160.333 423.834 161.504 424.35 162.976 424.356ZM176.42 426.426L176.493 412.571L173.357 412.558L173.369 410.318L177.305 410.334L176.501 411.067L176.515 408.475C176.525 406.597 177.002 405.18 177.946 404.224C178.89 403.247 180.258 402.762 182.05 402.769C182.476 402.77 182.924 402.804 183.393 402.87C183.883 402.936 184.288 403.044 184.607 403.195L184.595 405.563C184.339 405.455 184.02 405.369 183.636 405.303C183.252 405.238 182.879 405.204 182.517 405.203C181.877 405.2 181.321 405.326 180.851 405.58C180.38 405.834 180.026 406.217 179.789 406.728C179.551 407.217 179.43 407.868 179.426 408.678L179.414 410.95L178.969 410.34L183.865 410.36L183.853 412.6L179.405 412.582L179.332 426.438L176.42 426.426ZM191.788 426.776C190.103 426.769 188.825 426.305 187.956 425.385C187.107 424.442 186.688 423.033 186.698 421.155L186.743 412.612L183.607 412.599L183.619 410.359L186.755 410.372L186.778 406.052L189.694 405.263L189.667 410.383L194.211 410.402L194.199 412.642L189.655 412.623L189.611 420.911C189.605 422.148 189.813 423.035 190.237 423.57C190.682 424.083 191.321 424.342 192.153 424.345C192.58 424.347 192.943 424.317 193.242 424.254C193.562 424.17 193.851 424.075 194.107 423.969L194.094 426.369C193.774 426.496 193.4 426.59 192.973 426.653C192.567 426.736 192.172 426.777 191.788 426.776ZM212.113 426.569L204.329 403.978L207.465 403.991L214.047 423.921L212.895 423.917L220.105 404.041L222.441 404.051L228.991 423.981L227.967 423.977L234.985 404.101L237.929 404.113L229.841 426.641L227.249 426.63L220.854 407.564L221.526 407.567L214.673 426.58L212.113 426.569ZM241.273 426.686L241.398 403.135L244.31 403.146L244.252 414.09L243.836 414.089C244.312 412.853 245.074 411.918 246.123 411.282C247.172 410.646 248.379 410.331 249.744 410.336C251.686 410.344 253.112 410.872 254.024 411.921C254.957 412.971 255.418 414.551 255.407 416.663L255.353 426.743L252.441 426.731L252.494 416.811C252.502 415.382 252.23 414.346 251.678 413.704C251.127 413.041 250.222 412.706 248.964 412.701C247.556 412.696 246.412 413.128 245.533 413.999C244.675 414.871 244.242 416.032 244.234 417.482L244.185 426.698L241.273 426.686ZM260.117 426.762L260.202 410.666L263.114 410.678L263.029 426.774L260.117 426.762ZM259.965 407.145L259.982 404.009L263.438 404.023L263.421 407.159L259.965 407.145ZM273.913 427.105C272.227 427.099 270.95 426.635 270.08 425.714C269.232 424.772 268.812 423.362 268.822 421.485L268.868 412.941L265.732 412.928L265.744 410.688L268.88 410.701L268.903 406.381L271.819 405.593L271.792 410.713L276.336 410.731L276.324 412.971L271.78 412.953L271.736 421.241C271.729 422.478 271.938 423.364 272.362 423.899C272.807 424.413 273.445 424.671 274.277 424.675C274.704 424.677 275.067 424.646 275.366 424.583C275.686 424.499 275.975 424.404 276.231 424.299L276.219 426.699C275.898 426.825 275.524 426.92 275.097 426.982C274.691 427.066 274.296 427.107 273.913 427.105ZM286.474 427.156C283.914 427.145 281.892 426.401 280.406 424.923C278.942 423.446 278.217 421.416 278.231 418.835C278.24 417.128 278.567 415.657 279.214 414.423C279.882 413.167 280.794 412.2 281.949 411.522C283.105 410.822 284.451 410.476 285.987 410.482C287.459 410.488 288.705 410.813 289.726 411.457C290.747 412.079 291.521 412.968 292.048 414.122C292.575 415.276 292.834 416.643 292.826 418.221L292.821 419.181L280.501 419.132L280.51 417.404L290.846 417.445L290.3 417.859C290.309 416.195 289.942 414.903 289.2 413.983C288.48 413.062 287.405 412.599 285.976 412.594C284.418 412.587 283.21 413.127 282.351 414.211C281.492 415.274 281.058 416.734 281.048 418.59L281.046 418.878C281.036 420.841 281.508 422.325 282.463 423.332C283.439 424.338 284.791 424.845 286.519 424.852C287.479 424.856 288.375 424.721 289.209 424.447C290.042 424.173 290.845 423.717 291.616 423.08L292.565 425.1C291.837 425.759 290.927 426.267 289.837 426.625C288.769 426.984 287.648 427.16 286.474 427.156ZM296.549 433.82L296.651 414.62C296.654 414.002 296.636 413.372 296.597 412.732C296.557 412.092 296.497 411.452 296.415 410.812L299.231 410.823L299.563 414.536L299.211 414.535C299.538 413.299 300.226 412.331 301.275 411.631C302.324 410.91 303.574 410.552 305.024 410.558C306.454 410.564 307.7 410.899 308.763 411.565C309.826 412.231 310.642 413.194 311.212 414.455C311.802 415.695 312.093 417.178 312.084 418.906C312.075 420.634 311.768 422.127 311.164 423.383C310.582 424.639 309.755 425.596 308.685 426.253C307.615 426.91 306.365 427.236 304.936 427.23C303.506 427.224 302.271 426.867 301.229 426.159C300.209 425.43 299.521 424.456 299.165 423.239L299.517 423.24L299.461 433.832L296.549 433.82ZM304.276 424.923C305.748 424.929 306.924 424.422 307.804 423.401C308.684 422.381 309.13 420.879 309.14 418.895C309.151 416.911 308.721 415.416 307.852 414.409C306.983 413.403 305.812 412.897 304.34 412.891C302.868 412.885 301.692 413.382 300.812 414.381C299.953 415.38 299.519 416.872 299.508 418.856C299.498 420.84 299.916 422.346 300.764 423.373C301.633 424.401 302.804 424.917 304.276 424.923ZM322.103 427.299C320.695 427.293 319.459 426.957 318.396 426.292C317.333 425.626 316.506 424.663 315.915 423.402C315.325 422.141 315.034 420.646 315.043 418.918C315.052 417.19 315.359 415.709 315.963 414.474C316.567 413.218 317.404 412.261 318.474 411.604C319.544 410.947 320.783 410.621 322.191 410.627C323.621 410.633 324.856 411 325.897 411.73C326.96 412.438 327.659 413.412 327.994 414.65L327.61 414.649L327.982 410.938L330.798 410.949C330.73 411.589 330.663 412.229 330.595 412.869C330.549 413.508 330.525 414.138 330.521 414.756L330.456 427.044L327.544 427.033L327.564 423.353L327.916 423.354C327.568 424.569 326.859 425.536 325.788 426.257C324.739 426.957 323.511 427.304 322.103 427.299ZM322.787 424.997C324.238 425.003 325.403 424.496 326.283 423.475C327.163 422.455 327.608 420.953 327.619 418.969C327.629 416.985 327.2 415.49 326.331 414.484C325.461 413.477 324.301 412.971 322.851 412.966C321.4 412.96 320.224 413.456 319.323 414.455C318.443 415.455 317.998 416.946 317.987 418.93C317.976 420.914 318.406 422.42 319.275 423.447C320.144 424.475 321.315 424.992 322.787 424.997ZM335.298 433.976L335.4 414.776C335.404 414.157 335.386 413.528 335.346 412.888C335.307 412.248 335.246 411.607 335.165 410.967L337.981 410.978L338.313 414.692L337.961 414.69C338.287 413.454 338.975 412.486 340.024 411.786C341.073 411.065 342.323 410.708 343.774 410.713C345.203 410.719 346.45 411.055 347.513 411.72C348.576 412.386 349.392 413.349 349.961 414.61C350.552 415.85 350.843 417.334 350.834 419.062C350.825 420.79 350.518 422.282 349.914 423.538C349.331 424.795 348.505 425.751 347.435 426.408C346.365 427.065 345.115 427.391 343.685 427.385C342.256 427.38 341.021 427.023 339.979 426.314C338.959 425.585 338.271 424.612 337.915 423.394L338.267 423.395L338.21 433.987L335.298 433.976ZM343.026 425.079C344.498 425.084 345.674 424.577 346.554 423.557C347.434 422.536 347.879 421.034 347.89 419.05C347.9 417.066 347.471 415.571 346.602 414.565C345.732 413.559 344.562 413.053 343.09 413.047C341.618 413.041 340.442 413.537 339.562 414.537C338.703 415.536 338.268 417.027 338.258 419.011C338.247 420.995 338.666 422.501 339.514 423.528C340.383 424.556 341.554 425.073 343.026 425.079ZM362.036 427.459C359.476 427.449 357.454 426.704 355.968 425.227C354.504 423.749 353.779 421.719 353.792 419.138C353.801 417.431 354.129 415.96 354.776 414.726C355.444 413.47 356.356 412.503 357.511 411.825C358.667 411.125 360.013 410.779 361.549 410.785C363.021 410.791 364.267 411.116 365.288 411.76C366.308 412.383 367.082 413.271 367.61 414.425C368.137 415.579 368.396 416.946 368.388 418.524L368.383 419.484L356.063 419.435L356.072 417.707L366.408 417.748L365.862 418.162C365.871 416.498 365.504 415.206 364.762 414.286C364.042 413.365 362.967 412.902 361.538 412.897C359.98 412.891 358.772 413.43 357.913 414.514C357.054 415.577 356.62 417.037 356.61 418.893L356.608 419.181C356.598 421.144 357.07 422.628 358.025 423.635C359.001 424.641 360.353 425.148 362.081 425.155C363.041 425.159 363.937 425.024 364.771 424.75C365.604 424.476 366.407 424.02 367.178 423.383L368.127 425.403C367.398 426.062 366.489 426.57 365.399 426.928C364.331 427.287 363.21 427.464 362.036 427.459ZM372.115 427.211L372.18 415.051C372.183 414.411 372.165 413.761 372.126 413.099C372.109 412.416 372.059 411.755 371.977 411.115L374.793 411.126L375.123 415.159L374.643 415.189C374.862 414.209 375.229 413.4 375.744 412.762C376.281 412.103 376.913 411.625 377.64 411.329C378.388 411.012 379.157 410.855 379.946 410.859C380.288 410.86 380.576 410.872 380.81 410.894C381.045 410.916 381.279 410.971 381.513 411.057L381.435 413.649C381.116 413.519 380.818 413.443 380.541 413.421C380.285 413.377 379.965 413.355 379.581 413.353C378.642 413.349 377.831 413.559 377.146 413.983C376.482 414.407 375.967 414.971 375.601 415.673C375.256 416.376 375.081 417.132 375.077 417.943L375.027 427.223L372.115 427.211ZM93.8438 463.247C92.7985 463.243 91.8292 462.994 90.9358 462.5C90.0425 461.984 89.3315 461.288 88.8028 460.411C88.2742 459.534 88.0126 458.563 88.0183 457.496C88.0235 456.515 88.2738 455.588 88.7691 454.715C89.2857 453.842 89.9828 453.141 90.8603 452.611C91.7592 452.06 92.774 451.787 93.9047 451.791C94.95 451.796 95.9087 452.056 96.7806 452.571C97.6526 453.065 98.3531 453.74 98.8819 454.595C99.432 455.451 99.7041 456.433 99.6982 457.543C99.6927 458.588 99.4209 459.547 98.8829 460.42C98.3663 461.292 97.6586 461.983 96.7599 462.491C95.8825 463 94.9105 463.252 93.8438 463.247ZM120.569 466.203L120.689 443.643L122.993 443.652L137.038 462.397L136.27 462.394L136.369 443.706L139.153 443.717L139.033 466.277L136.761 466.268L122.717 447.523L123.453 447.526L123.353 466.214L120.569 466.203ZM144.507 466.299L144.626 443.739L158.898 443.796L158.885 446.228L147.589 446.183L147.549 453.735L158.109 453.777L158.096 456.209L147.536 456.167L147.483 466.311L144.507 466.299ZM168.102 466.393L168.208 446.362L160.4 446.33L160.414 443.802L179.07 443.877L179.056 446.405L171.216 446.374L171.11 466.405L168.102 466.393ZM190.569 466.483L190.689 443.924L193.665 443.936L193.558 463.935L204.79 463.98L204.777 466.54L190.569 466.483ZM213.953 466.865C212.545 466.86 211.31 466.524 210.247 465.858C209.184 465.193 208.357 464.229 207.766 462.968C207.175 461.707 206.885 460.213 206.894 458.485C206.903 456.757 207.21 455.275 207.814 454.04C208.418 452.784 209.255 451.828 210.325 451.17C211.395 450.513 212.634 450.188 214.042 450.193C215.471 450.199 216.707 450.567 217.748 451.296C218.811 452.005 219.51 452.978 219.845 454.217L219.461 454.215L219.832 450.505L222.648 450.516C222.581 451.156 222.514 451.795 222.446 452.435C222.4 453.075 222.375 453.704 222.372 454.323L222.307 466.611L219.395 466.599L219.414 462.919L219.766 462.92C219.419 464.135 218.71 465.103 217.639 465.824C216.59 466.524 215.361 466.871 213.953 466.865ZM214.638 464.564C216.088 464.57 217.254 464.062 218.134 463.042C219.014 462.021 219.459 460.519 219.47 458.535C219.48 456.551 219.051 455.056 218.182 454.05C217.312 453.044 216.152 452.538 214.702 452.532C213.251 452.526 212.075 453.023 211.174 454.022C210.294 455.021 209.848 456.513 209.838 458.497C209.827 460.481 210.257 461.986 211.126 463.014C211.995 464.041 213.166 464.558 214.638 464.564ZM232.912 466.941C230.971 466.933 229.512 466.405 228.537 465.356C227.582 464.306 227.111 462.694 227.122 460.518L227.175 450.534L230.087 450.546L230.035 460.466C230.027 461.874 230.31 462.909 230.882 463.573C231.455 464.237 232.349 464.571 233.565 464.576C234.888 464.581 235.957 464.148 236.772 463.277C237.609 462.384 238.031 461.202 238.039 459.73L238.087 450.578L240.999 450.59L240.914 466.685L238.098 466.674L238.117 463.122L238.533 463.124C238.078 464.338 237.358 465.284 236.374 465.963C235.389 466.62 234.235 466.947 232.912 466.941ZM245.811 466.705L245.876 454.417C245.879 453.798 245.861 453.169 245.822 452.529C245.783 451.889 245.722 451.248 245.64 450.608L248.456 450.619L248.758 454.077L248.374 454.075C248.871 452.861 249.633 451.936 250.661 451.3C251.688 450.664 252.884 450.349 254.25 450.355C256.148 450.362 257.575 450.891 258.529 451.94C259.484 452.968 259.955 454.57 259.944 456.746L259.891 466.761L256.979 466.75L257.031 456.894C257.039 455.422 256.756 454.365 256.184 453.722C255.611 453.059 254.717 452.725 253.501 452.72C252.05 452.714 250.896 453.147 250.038 454.018C249.202 454.889 248.779 456.071 248.771 457.565L248.723 466.717L245.811 466.705ZM271.565 467.096C269.965 467.09 268.58 466.754 267.41 466.088C266.24 465.4 265.328 464.426 264.674 463.165C264.04 461.882 263.728 460.366 263.738 458.617C263.747 456.889 264.085 455.418 264.753 454.205C265.421 452.97 266.343 452.035 267.52 451.4C268.697 450.743 270.075 450.418 271.653 450.424C272.699 450.429 273.711 450.614 274.69 450.981C275.67 451.326 276.467 451.83 277.082 452.494L276.08 454.538C275.464 453.938 274.784 453.498 274.039 453.218C273.293 452.916 272.558 452.764 271.833 452.761C270.254 452.755 269.014 453.262 268.113 454.282C267.211 455.281 266.756 456.741 266.745 458.661C266.735 460.602 267.175 462.097 268.066 463.146C268.956 464.195 270.191 464.723 271.769 464.729C272.473 464.732 273.199 464.596 273.948 464.322C274.696 464.047 275.391 463.613 276.034 463.018L277.016 465.038C276.372 465.718 275.548 466.238 274.543 466.596C273.56 466.934 272.567 467.1 271.565 467.096ZM280.56 466.844L280.686 443.293L283.598 443.304L283.539 454.248L283.123 454.247C283.599 453.011 284.362 452.075 285.41 451.44C286.459 450.804 287.666 450.489 289.031 450.494C290.973 450.502 292.399 451.03 293.311 452.079C294.244 453.128 294.705 454.709 294.694 456.821L294.64 466.901L291.728 466.889L291.781 456.969C291.789 455.54 291.517 454.504 290.966 453.862C290.414 453.198 289.51 452.864 288.251 452.859C286.843 452.853 285.699 453.286 284.82 454.157C283.962 455.029 283.529 456.189 283.521 457.64L283.472 466.856L280.56 466.844ZM314.624 467.269C313.045 467.263 311.682 466.926 310.533 466.261C309.385 465.573 308.494 464.61 307.861 463.37C307.227 462.109 306.915 460.614 306.924 458.886C306.933 457.179 307.261 455.709 307.908 454.474C308.554 453.218 309.456 452.261 310.611 451.605C311.767 450.927 313.134 450.591 314.712 450.597C316.291 450.604 317.655 450.95 318.803 451.638C319.973 452.304 320.864 453.267 321.476 454.528C322.109 455.768 322.421 457.242 322.412 458.948C322.403 460.676 322.075 462.168 321.428 463.424C320.803 464.659 319.902 465.615 318.725 466.293C317.57 466.95 316.203 467.275 314.624 467.269ZM314.636 464.965C316.087 464.971 317.252 464.463 318.132 463.443C319.012 462.423 319.458 460.92 319.468 458.936C319.479 456.952 319.049 455.457 318.18 454.451C317.311 453.445 316.151 452.939 314.7 452.933C313.228 452.927 312.052 453.424 311.172 454.423C310.313 455.422 309.879 456.914 309.868 458.898C309.858 460.882 310.276 462.387 311.124 463.415C311.994 464.442 313.164 464.959 314.636 464.965ZM326.279 467.028L326.344 454.74C326.347 454.121 326.329 453.492 326.29 452.852C326.251 452.211 326.19 451.571 326.108 450.931L328.924 450.942L329.226 454.399L328.842 454.398C329.339 453.184 330.101 452.259 331.129 451.623C332.156 450.987 333.352 450.672 334.718 450.677C336.616 450.685 338.043 451.213 338.997 452.263C339.952 453.29 340.423 454.892 340.412 457.068L340.359 467.084L337.447 467.073L337.499 457.217C337.507 455.745 337.225 454.688 336.652 454.045C336.079 453.382 335.185 453.047 333.969 453.042C332.519 453.037 331.364 453.469 330.506 454.341C329.67 455.212 329.247 456.394 329.239 457.888L329.191 467.039L326.279 467.028ZM359.288 467.16L359.394 447.128L351.586 447.097L351.6 444.569L370.256 444.644L370.242 447.172L362.402 447.14L362.296 467.172L359.288 467.16ZM377.855 467.523C375.295 467.512 373.272 466.768 371.787 465.29C370.322 463.812 369.597 461.783 369.611 459.201C369.62 457.495 369.948 456.024 370.594 454.789C371.262 453.533 372.174 452.566 373.33 451.888C374.486 451.189 375.831 450.842 377.367 450.849C378.839 450.854 380.086 451.179 381.106 451.824C382.127 452.446 382.901 453.335 383.428 454.489C383.955 455.643 384.215 457.009 384.206 458.588L384.201 459.548L371.881 459.499L371.891 457.771L382.227 457.812L381.68 458.226C381.689 456.562 381.323 455.27 380.581 454.349C379.86 453.429 378.786 452.966 377.356 452.961C375.799 452.954 374.591 453.493 373.732 454.578C372.873 455.641 372.438 457.101 372.428 458.957L372.427 459.245C372.416 461.207 372.888 462.692 373.843 463.698C374.819 464.705 376.171 465.212 377.899 465.219C378.859 465.223 379.756 465.088 380.589 464.814C381.423 464.54 382.225 464.084 382.997 463.447L383.946 465.467C383.217 466.125 382.308 466.634 381.218 466.992C380.149 467.35 379.028 467.527 377.855 467.523ZM393.404 467.585C392.103 467.58 390.888 467.404 389.759 467.058C388.651 466.713 387.737 466.218 387.015 465.575L387.954 463.563C388.74 464.164 389.601 464.626 390.538 464.949C391.497 465.252 392.477 465.405 393.48 465.409C394.696 465.414 395.614 465.194 396.235 464.748C396.878 464.303 397.201 463.707 397.205 462.96C397.208 462.363 397.008 461.882 396.605 461.518C396.201 461.153 395.563 460.884 394.689 460.71L391.652 460.09C390.288 459.764 389.256 459.248 388.556 458.541C387.877 457.813 387.541 456.884 387.547 455.753C387.552 454.815 387.812 453.984 388.328 453.261C388.844 452.516 389.573 451.943 390.513 451.541C391.476 451.118 392.597 450.91 393.877 450.915C395.05 450.919 396.137 451.094 397.138 451.44C398.16 451.785 399 452.29 399.658 452.954L398.688 454.902C398.029 454.323 397.285 453.883 396.455 453.581C395.646 453.258 394.815 453.095 393.961 453.091C392.724 453.086 391.805 453.328 391.205 453.816C390.606 454.283 390.304 454.9 390.3 455.668C390.296 456.244 390.475 456.725 390.836 457.111C391.197 457.475 391.782 457.754 392.591 457.95L395.628 458.57C397.056 458.874 398.131 459.369 398.852 460.055C399.574 460.74 399.932 461.648 399.926 462.779C399.921 463.782 399.639 464.645 399.08 465.368C398.543 466.091 397.783 466.643 396.799 467.023C395.837 467.403 394.706 467.59 393.404 467.585ZM409.73 467.65C408.045 467.644 406.767 467.18 405.897 466.259C405.049 465.317 404.63 463.907 404.64 462.03L404.685 453.486L401.549 453.474L401.561 451.234L404.697 451.246L404.72 446.926L407.636 446.138L407.609 451.258L412.153 451.276L412.141 453.516L407.597 453.498L407.553 461.786C407.547 463.023 407.755 463.909 408.179 464.444C408.624 464.958 409.263 465.217 410.095 465.22C410.522 465.222 410.885 465.191 411.184 465.128C411.504 465.044 411.793 464.949 412.049 464.844L412.036 467.244C411.716 467.37 411.342 467.465 410.915 467.527C410.509 467.611 410.114 467.652 409.73 467.65ZM415.122 467.384L415.187 455.096C415.19 454.478 415.172 453.848 415.133 453.208C415.094 452.568 415.033 451.928 414.951 451.287L417.767 451.299L418.069 454.756L417.685 454.754C418.182 453.54 418.944 452.615 419.972 451.979C420.999 451.344 422.196 451.028 423.561 451.034C425.46 451.041 426.886 451.57 427.84 452.619C428.795 453.647 429.267 455.249 429.255 457.425L429.202 467.441L426.29 467.429L426.342 457.573C426.35 456.101 426.068 455.044 425.495 454.402C424.922 453.738 424.028 453.404 422.812 453.399C421.362 453.393 420.207 453.826 419.349 454.697C418.513 455.568 418.09 456.751 418.082 458.244L418.034 467.396L415.122 467.384ZM441.292 467.777C438.732 467.767 436.709 467.023 435.224 465.545C433.759 464.067 433.034 462.037 433.048 459.456C433.057 457.749 433.385 456.279 434.031 455.044C434.699 453.788 435.611 452.821 436.767 452.143C437.923 451.443 439.268 451.097 440.804 451.103C442.276 451.109 443.523 451.434 444.543 452.078C445.564 452.701 446.338 453.589 446.865 454.743C447.392 455.897 447.652 457.264 447.643 458.842L447.638 459.802L435.318 459.753L435.328 458.025L445.664 458.067L445.117 458.48C445.126 456.816 444.76 455.524 444.018 454.604C443.297 453.684 442.223 453.221 440.793 453.215C439.236 453.209 438.028 453.748 437.169 454.832C436.31 455.896 435.875 457.355 435.865 459.211L435.864 459.499C435.853 461.462 436.325 462.946 437.28 463.953C438.256 464.96 439.608 465.466 441.336 465.473C442.296 465.477 443.193 465.342 444.026 465.068C444.86 464.794 445.662 464.339 446.434 463.702L447.383 465.721C446.654 466.38 445.745 466.888 444.655 467.247C443.586 467.605 442.465 467.782 441.292 467.777ZM457.386 467.842C455.701 467.835 454.423 467.371 453.553 466.45C452.705 465.508 452.286 464.098 452.296 462.221L452.341 453.677L449.205 453.665L449.217 451.425L452.353 451.437L452.376 447.117L455.292 446.329L455.265 451.449L459.809 451.467L459.797 453.707L455.253 453.689L455.209 461.977C455.203 463.214 455.411 464.1 455.835 464.635C456.28 465.149 456.919 465.408 457.751 465.411C458.178 465.413 458.54 465.382 458.839 465.319C459.16 465.235 459.448 465.141 459.705 465.035L459.692 467.435C459.372 467.562 458.998 467.656 458.571 467.718C458.165 467.802 457.77 467.843 457.386 467.842ZM93.6313 503.247C92.586 503.243 91.6166 502.993 90.7232 502.499C89.83 501.984 89.119 501.287 88.5903 500.411C88.0616 499.534 87.8001 498.562 87.8058 497.495C87.811 496.514 88.0613 495.587 88.5566 494.714C89.0732 493.842 89.7703 493.141 90.6478 492.611C91.5467 492.06 92.5615 491.786 93.6922 491.791C94.7375 491.795 95.6961 492.055 96.5681 492.57C97.4401 493.065 98.1405 493.739 98.6693 494.595C99.2195 495.45 99.4916 496.433 99.4857 497.542C99.4801 498.588 99.2084 499.546 98.6704 500.419C98.1538 501.292 97.4461 501.982 96.5474 502.49C95.67 502.999 94.698 503.251 93.6313 503.247ZM118.053 506.193L128.157 483.673L130.748 483.684L140.773 506.284L137.701 506.272L134.951 499.86L136.227 500.634L122.499 500.579L123.911 499.816L121.093 506.205L118.053 506.193ZM129.387 487.006L124.332 498.826L123.568 498.151L135.183 498.197L134.572 498.867L129.515 487.007L129.387 487.006ZM143.662 506.295L143.787 482.744L146.699 482.755L146.573 506.307L143.662 506.295ZM151.406 513.239L151.508 494.039C151.511 493.42 151.493 492.791 151.454 492.151C151.415 491.51 151.354 490.87 151.272 490.23L154.088 490.241L154.42 493.955L154.068 493.953C154.395 492.717 155.083 491.749 156.132 491.049C157.181 490.328 158.431 489.971 159.882 489.976C161.311 489.982 162.557 490.318 163.62 490.983C164.684 491.649 165.5 492.612 166.069 493.873C166.66 495.113 166.951 496.597 166.941 498.325C166.932 500.053 166.626 501.545 166.022 502.801C165.439 504.057 164.613 505.014 163.542 505.671C162.472 506.328 161.222 506.654 159.793 506.648C158.364 506.642 157.128 506.285 156.087 505.577C155.067 504.848 154.378 503.874 154.022 502.657L154.374 502.658L154.318 513.25L151.406 513.239ZM159.133 504.342C160.605 504.347 161.781 503.84 162.661 502.82C163.542 501.799 163.987 500.297 163.997 498.313C164.008 496.329 163.579 494.834 162.709 493.828C161.84 492.822 160.669 492.316 159.197 492.31C157.725 492.304 156.549 492.8 155.669 493.8C154.811 494.799 154.376 496.29 154.366 498.274C154.355 500.258 154.774 501.764 155.622 502.791C156.491 503.819 157.661 504.336 159.133 504.342ZM170.818 506.404L170.943 482.853L173.855 482.864L173.797 493.808L173.381 493.807C173.856 492.571 174.619 491.636 175.667 491C176.716 490.364 177.923 490.049 179.289 490.054C181.23 490.062 182.656 490.59 183.568 491.639C184.501 492.689 184.962 494.269 184.951 496.381L184.897 506.461L181.985 506.449L182.038 496.529C182.046 495.1 181.774 494.064 181.223 493.422C180.672 492.759 179.767 492.424 178.508 492.419C177.1 492.414 175.956 492.846 175.077 493.717C174.219 494.589 173.786 495.75 173.778 497.2L173.73 506.416L170.818 506.404ZM195.804 506.793C194.396 506.787 193.16 506.451 192.097 505.786C191.034 505.12 190.207 504.157 189.616 502.896C189.026 501.635 188.735 500.14 188.744 498.412C188.753 496.684 189.06 495.203 189.664 493.968C190.268 492.712 191.105 491.755 192.175 491.098C193.245 490.441 194.484 490.115 195.892 490.121C197.321 490.127 198.557 490.494 199.598 491.224C200.661 491.932 201.36 492.905 201.695 494.144L201.311 494.143L201.683 490.432L204.499 490.443C204.431 491.083 204.364 491.723 204.296 492.363C204.25 493.002 204.226 493.632 204.222 494.25L204.157 506.538L201.245 506.526L201.265 502.847L201.617 502.848C201.269 504.063 200.56 505.03 199.489 505.751C198.44 506.451 197.212 506.798 195.804 506.793ZM196.488 504.491C197.938 504.497 199.104 503.99 199.984 502.969C200.864 501.949 201.309 500.447 201.32 498.463C201.33 496.479 200.901 494.984 200.032 493.978C199.162 492.971 198.002 492.465 196.552 492.46C195.101 492.454 193.925 492.95 193.024 493.949C192.144 494.949 191.699 496.44 191.688 498.424C191.677 500.408 192.107 501.914 192.976 502.941C193.845 503.969 195.016 504.485 196.488 504.491ZM217.793 506.593L217.913 484.033L220.217 484.042L234.262 502.787L233.494 502.784L233.593 484.096L236.377 484.107L236.257 506.667L233.985 506.658L219.941 487.913L220.677 487.916L220.577 506.604L217.793 506.593ZM241.731 506.689L241.851 484.129L256.122 484.186L256.11 486.618L244.814 486.573L244.774 494.125L255.333 494.167L255.321 496.599L244.761 496.557L244.707 506.701L241.731 506.689ZM265.326 506.784L265.432 486.752L257.625 486.72L257.638 484.193L276.294 484.267L276.28 486.795L268.44 486.764L268.334 506.796L265.326 506.784ZM287.793 506.874L287.913 484.314L290.537 484.324L299.326 504.392L298.366 504.388L307.369 484.392L309.961 484.402L309.841 506.962L307.121 506.951L307.219 488.359L308.211 488.363L299.761 506.922L297.873 506.914L289.62 488.289L290.612 488.293L290.513 506.885L287.793 506.874ZM321.178 507.296C319.77 507.29 318.534 506.954 317.471 506.289C316.408 505.623 315.581 504.66 314.99 503.399C314.4 502.138 314.109 500.643 314.118 498.915C314.127 497.187 314.434 495.706 315.038 494.471C315.642 493.215 316.479 492.258 317.549 491.601C318.619 490.944 319.858 490.618 321.266 490.624C322.695 490.63 323.931 490.997 324.972 491.727C326.035 492.435 326.734 493.408 327.069 494.647L326.685 494.646L327.057 490.935L329.873 490.946C329.805 491.586 329.738 492.226 329.67 492.866C329.624 493.505 329.6 494.135 329.596 494.753L329.531 507.041L326.619 507.029L326.639 503.349L326.991 503.351C326.643 504.565 325.934 505.533 324.863 506.254C323.814 506.954 322.586 507.301 321.178 507.296ZM321.862 504.994C323.312 505 324.478 504.493 325.358 503.472C326.238 502.452 326.683 500.95 326.694 498.966C326.704 496.982 326.275 495.487 325.406 494.48C324.536 493.474 323.376 492.968 321.926 492.962C320.475 492.957 319.299 493.453 318.398 494.452C317.518 495.451 317.073 496.943 317.062 498.927C317.051 500.911 317.481 502.417 318.35 503.444C319.219 504.472 320.39 504.988 321.862 504.994ZM334.378 507.06L334.443 494.901C334.446 494.261 334.428 493.61 334.389 492.948C334.371 492.266 334.321 491.604 334.24 490.964L337.055 490.975L337.386 495.008L336.906 495.039C337.124 494.058 337.491 493.249 338.007 492.611C338.544 491.952 339.176 491.474 339.902 491.179C340.651 490.862 341.42 490.705 342.209 490.708C342.55 490.709 342.838 490.721 343.073 490.743C343.307 490.766 343.542 490.82 343.776 490.906L343.698 493.498C343.379 493.368 343.081 493.293 342.803 493.27C342.548 493.226 342.228 493.204 341.844 493.202C340.905 493.199 340.093 493.409 339.408 493.833C338.745 494.257 338.23 494.82 337.863 495.522C337.518 496.225 337.344 496.982 337.339 497.792L337.29 507.072L334.378 507.06ZM346.254 507.108L346.379 483.556L349.291 483.568L349.213 498.128L349.277 498.128L356.579 491.053L360.195 491.068L351.51 499.481L351.55 498.105L360.878 507.167L357.166 507.152L349.269 499.632L349.205 499.632L349.166 507.12L346.254 507.108ZM369.955 507.491C367.395 507.481 365.372 506.737 363.887 505.259C362.423 503.781 361.697 501.751 361.711 499.17C361.72 497.463 362.048 495.993 362.694 494.758C363.362 493.502 364.274 492.535 365.43 491.857C366.586 491.158 367.932 490.811 369.468 490.817C370.939 490.823 372.186 491.148 373.206 491.792C374.227 492.415 375.001 493.303 375.528 494.457C376.055 495.612 376.315 496.978 376.306 498.557L376.301 499.517L363.981 499.467L363.991 497.739L374.327 497.781L373.78 498.194C373.789 496.531 373.423 495.238 372.681 494.318C371.96 493.398 370.886 492.935 369.456 492.929C367.899 492.923 366.691 493.462 365.832 494.547C364.973 495.61 364.538 497.069 364.528 498.925L364.527 499.213C364.516 501.176 364.989 502.661 365.943 503.667C366.919 504.674 368.271 505.18 369.999 505.187C370.959 505.191 371.856 505.056 372.689 504.782C373.523 504.508 374.325 504.053 375.097 503.416L376.046 505.436C375.317 506.094 374.408 506.602 373.318 506.961C372.249 507.319 371.128 507.496 369.955 507.491ZM386.049 507.556C384.364 507.549 383.086 507.085 382.216 506.164C381.368 505.222 380.949 503.813 380.959 501.935L381.004 493.391L377.868 493.379L377.88 491.139L381.016 491.151L381.039 486.832L383.955 486.043L383.928 491.163L388.472 491.181L388.46 493.421L383.916 493.403L383.872 501.691C383.866 502.928 384.074 503.814 384.498 504.35C384.943 504.863 385.582 505.122 386.414 505.125C386.841 505.127 387.203 505.096 387.502 505.034C387.823 504.95 388.111 504.855 388.368 504.749L388.355 507.149C388.035 507.276 387.661 507.37 387.234 507.433C386.828 507.516 386.433 507.557 386.049 507.556ZM391.404 514.201L391.506 495.002C391.509 494.383 391.491 493.753 391.452 493.113C391.413 492.473 391.352 491.833 391.27 491.193L394.086 491.204L394.419 494.917L394.067 494.916C394.393 493.68 395.081 492.712 396.13 492.012C397.179 491.291 398.429 490.933 399.88 490.939C401.309 490.945 402.555 491.281 403.618 491.946C404.682 492.612 405.498 493.575 406.067 494.836C406.658 496.076 406.949 497.56 406.939 499.287C406.93 501.015 406.624 502.508 406.02 503.764C405.437 505.02 404.611 505.977 403.54 506.634C402.47 507.291 401.22 507.617 399.791 507.611C398.362 507.605 397.126 507.248 396.085 506.54C395.065 505.811 394.377 504.837 394.02 503.62L394.372 503.621L394.316 514.213L391.404 514.201ZM399.131 505.304C400.603 505.31 401.779 504.803 402.66 503.782C403.54 502.762 403.985 501.26 403.996 499.276C404.006 497.292 403.577 495.797 402.707 494.79C401.838 493.784 400.667 493.278 399.195 493.272C397.723 493.266 396.547 493.763 395.667 494.762C394.809 495.761 394.374 497.253 394.364 499.237C394.353 501.221 394.772 502.727 395.62 503.754C396.489 504.782 397.659 505.298 399.131 505.304ZM410.816 507.367L410.941 483.815L413.853 483.827L413.728 507.379L410.816 507.367ZM424.739 507.711C423.331 507.705 422.096 507.37 421.033 506.704C419.969 506.038 419.142 505.075 418.552 503.814C417.961 502.553 417.67 501.059 417.68 499.331C417.689 497.603 417.995 496.121 418.599 494.886C419.203 493.63 420.04 492.673 421.111 492.016C422.181 491.359 423.42 491.034 424.828 491.039C426.257 491.045 427.493 491.413 428.534 492.142C429.597 492.85 430.296 493.824 430.631 495.062L430.247 495.061L430.618 491.35L433.434 491.362C433.367 492.001 433.299 492.641 433.232 493.281C433.186 493.921 433.161 494.55 433.158 495.169L433.093 507.456L430.181 507.445L430.2 503.765L430.552 503.766C430.204 504.981 429.495 505.949 428.425 506.67C427.376 507.37 426.147 507.717 424.739 507.711ZM425.423 505.41C426.874 505.416 428.039 504.908 428.92 503.888C429.8 502.867 430.245 501.365 430.256 499.381C430.266 497.397 429.837 495.902 428.967 494.896C428.098 493.89 426.938 493.384 425.487 493.378C424.037 493.372 422.861 493.869 421.959 494.868C421.079 495.867 420.634 497.358 420.624 499.342C420.613 501.326 421.042 502.832 421.912 503.86C422.781 504.887 423.951 505.404 425.423 505.41ZM444.882 507.792C443.282 507.785 441.897 507.449 440.727 506.783C439.558 506.096 438.646 505.121 437.991 503.86C437.358 502.578 437.046 501.062 437.055 499.312C437.064 497.584 437.403 496.114 438.07 494.9C438.738 493.666 439.661 492.731 440.837 492.095C442.014 491.439 443.392 491.114 444.971 491.12C446.016 491.124 447.028 491.31 448.008 491.676C448.987 492.021 449.785 492.526 450.4 493.19L449.397 495.234C448.781 494.634 448.101 494.194 447.356 493.914C446.611 493.612 445.876 493.46 445.15 493.457C443.572 493.45 442.332 493.957 441.43 494.978C440.529 495.977 440.073 497.436 440.063 499.356C440.053 501.298 440.493 502.793 441.383 503.842C442.273 504.891 443.508 505.418 445.087 505.425C445.791 505.427 446.517 505.292 447.265 505.017C448.013 504.743 448.709 504.308 449.352 503.714L450.333 505.734C449.689 506.414 448.865 506.933 447.861 507.292C446.878 507.629 445.885 507.796 444.882 507.792ZM460.892 507.856C458.332 507.846 456.309 507.102 454.823 505.624C453.359 504.146 452.634 502.116 452.648 499.535C452.657 497.828 452.985 496.358 453.631 495.123C454.299 493.867 455.211 492.9 456.367 492.222C457.522 491.522 458.868 491.176 460.404 491.182C461.876 491.188 463.123 491.513 464.143 492.157C465.164 492.78 465.938 493.668 466.465 494.822C466.992 495.976 467.252 497.343 467.243 498.921L467.238 499.881L454.918 499.832L454.927 498.104L465.263 498.145L464.717 498.559C464.726 496.895 464.359 495.603 463.618 494.683C462.897 493.763 461.822 493.3 460.393 493.294C458.836 493.288 457.628 493.827 456.768 494.911C455.909 495.975 455.475 497.434 455.465 499.29L455.464 499.578C455.453 501.541 455.925 503.025 456.88 504.032C457.856 505.038 459.208 505.545 460.936 505.552C461.896 505.556 462.793 505.421 463.626 505.147C464.46 504.873 465.262 504.417 466.033 503.781L466.983 505.8C466.254 506.459 465.344 506.967 464.255 507.325C463.186 507.684 462.065 507.861 460.892 507.856ZM485.168 507.665L485.274 487.634L477.467 487.602L477.48 485.074L496.136 485.149L496.122 487.677L488.282 487.646L488.176 507.677L485.168 507.665ZM503.735 508.028C501.175 508.018 499.152 507.273 497.667 505.795C496.203 504.318 495.477 502.288 495.491 499.707C495.5 498 495.828 496.529 496.475 495.295C497.143 494.039 498.054 493.072 499.21 492.394C500.366 491.694 501.712 491.348 503.248 491.354C504.72 491.36 505.966 491.685 506.987 492.329C508.007 492.952 508.781 493.84 509.308 494.994C509.836 496.148 510.095 497.515 510.087 499.093L510.082 500.053L497.762 500.004L497.771 498.276L508.107 498.317L507.561 498.731C507.569 497.067 507.203 495.775 506.461 494.855C505.741 493.934 504.666 493.471 503.236 493.466C501.679 493.459 500.471 493.999 499.612 495.083C498.753 496.146 498.318 497.606 498.309 499.462L498.307 499.75C498.297 501.713 498.769 503.197 499.723 504.204C500.699 505.21 502.051 505.717 503.779 505.724C504.739 505.728 505.636 505.593 506.47 505.319C507.303 505.045 508.105 504.589 508.877 503.952L509.826 505.972C509.097 506.631 508.188 507.139 507.098 507.497C506.029 507.856 504.908 508.033 503.735 508.028ZM519.284 508.09C517.983 508.085 516.768 507.909 515.639 507.564C514.532 507.218 513.617 506.723 512.895 506.081L513.834 504.068C514.62 504.669 515.481 505.131 516.418 505.455C517.377 505.757 518.357 505.91 519.36 505.914C520.576 505.919 521.495 505.699 522.116 505.254C522.758 504.808 523.081 504.212 523.085 503.465C523.088 502.868 522.888 502.387 522.485 502.023C522.081 501.659 521.443 501.389 520.569 501.215L517.532 500.595C516.169 500.27 515.137 499.754 514.436 499.047C513.758 498.319 513.421 497.389 513.427 496.259C513.432 495.32 513.693 494.489 514.209 493.766C514.724 493.021 515.453 492.448 516.394 492.046C517.356 491.624 518.477 491.415 519.757 491.42C520.93 491.425 522.017 491.6 523.018 491.945C524.04 492.291 524.88 492.795 525.538 493.459L524.568 495.407C523.91 494.829 523.165 494.388 522.335 494.086C521.526 493.763 520.695 493.6 519.841 493.596C518.604 493.591 517.686 493.833 517.086 494.321C516.486 494.788 516.184 495.406 516.18 496.174C516.177 496.75 516.355 497.23 516.716 497.616C517.077 497.98 517.662 498.26 518.472 498.455L521.508 499.075C522.936 499.379 524.011 499.874 524.733 500.56C525.454 501.246 525.812 502.154 525.806 503.284C525.801 504.287 525.519 505.15 524.96 505.873C524.423 506.596 523.663 507.148 522.679 507.528C521.717 507.908 520.586 508.095 519.284 508.09ZM535.61 508.156C533.925 508.149 532.647 507.685 531.778 506.764C530.929 505.822 530.51 504.413 530.52 502.535L530.566 493.991L527.43 493.979L527.441 491.739L530.577 491.751L530.6 487.431L533.517 486.643L533.489 491.763L538.033 491.781L538.021 494.021L533.478 494.003L533.433 502.291C533.427 503.528 533.636 504.414 534.059 504.949C534.505 505.463 535.143 505.722 535.975 505.725C536.402 505.727 536.765 505.696 537.064 505.634C537.384 505.549 537.673 505.455 537.929 505.349L537.917 507.749C537.596 507.876 537.222 507.97 536.795 508.032C536.389 508.116 535.994 508.157 535.61 508.156ZM541.002 507.889L541.067 495.601C541.071 494.983 541.053 494.353 541.013 493.713C540.974 493.073 540.914 492.433 540.832 491.793L543.648 491.804L543.949 495.261L543.565 495.26C544.062 494.045 544.825 493.121 545.852 492.485C546.879 491.849 548.076 491.534 549.441 491.539C551.34 491.547 552.766 492.075 553.721 493.124C554.675 494.152 555.147 495.754 555.135 497.93L555.082 507.946L552.17 507.934L552.222 498.078C552.23 496.606 551.948 495.549 551.375 494.907C550.803 494.243 549.908 493.909 548.692 493.904C547.242 493.898 546.088 494.331 545.23 495.202C544.393 496.074 543.971 497.256 543.963 498.749L543.914 507.901L541.002 507.889ZM567.172 508.282C564.612 508.272 562.589 507.528 561.104 506.05C559.64 504.572 558.914 502.542 558.928 499.961C558.937 498.255 559.265 496.784 559.912 495.549C560.58 494.293 561.491 493.326 562.647 492.648C563.803 491.949 565.149 491.602 566.685 491.608C568.157 491.614 569.403 491.939 570.424 492.583C571.444 493.206 572.218 494.094 572.745 495.249C573.273 496.403 573.532 497.769 573.524 499.348L573.519 500.308L561.199 500.258L561.208 498.53L571.544 498.572L570.998 498.986C571.006 497.322 570.64 496.029 569.898 495.109C569.178 494.189 568.103 493.726 566.673 493.72C565.116 493.714 563.908 494.253 563.049 495.338C562.19 496.401 561.755 497.86 561.746 499.716L561.744 500.004C561.734 501.967 562.206 503.452 563.16 504.458C564.136 505.465 565.488 505.972 567.216 505.978C568.176 505.982 569.073 505.847 569.907 505.573C570.74 505.299 571.542 504.844 572.314 504.207L573.263 506.227C572.534 506.885 571.625 507.393 570.535 507.752C569.466 508.11 568.345 508.287 567.172 508.282ZM583.266 508.347C581.581 508.34 580.303 507.876 579.434 506.955C578.585 506.013 578.166 504.604 578.176 502.726L578.221 494.183L575.085 494.17L575.097 491.93L578.233 491.943L578.256 487.623L581.172 486.834L581.145 491.954L585.689 491.972L585.677 494.212L581.133 494.194L581.089 502.482C581.083 503.719 581.291 504.606 581.715 505.141C582.16 505.654 582.799 505.913 583.631 505.916C584.058 505.918 584.421 505.887 584.72 505.825C585.04 505.741 585.329 505.646 585.585 505.54L585.572 507.94C585.252 508.067 584.878 508.161 584.451 508.224C584.045 508.307 583.65 508.348 583.266 508.347ZM93.4188 543.246C92.3734 543.242 91.4041 542.993 90.5107 542.499C89.6174 541.983 88.9065 541.287 88.3778 540.41C87.8491 539.533 87.5876 538.561 87.5933 537.495C87.5985 536.513 87.8487 535.586 88.344 534.714C88.8607 533.841 89.5578 533.14 90.4352 532.61C91.3342 532.059 92.349 531.786 93.4796 531.79C94.525 531.795 95.4836 532.054 96.3555 532.57C97.2276 533.064 97.928 533.739 98.4568 534.594C99.0069 535.45 99.2791 536.432 99.2732 537.542C99.2676 538.587 98.9958 539.546 98.4579 540.418C97.9412 541.291 97.2335 541.982 96.3348 542.49C95.4575 542.998 94.4854 543.25 93.4188 543.246ZM120.144 546.201L120.264 523.642L122.568 523.651L136.613 542.395L135.845 542.392L135.944 523.705L138.728 523.716L138.608 546.275L136.336 546.266L122.291 527.522L123.027 527.525L122.928 546.213L120.144 546.201ZM149.904 546.609C148.496 546.603 147.26 546.268 146.197 545.602C145.134 544.936 144.307 543.973 143.717 542.712C143.126 541.451 142.835 539.956 142.844 538.228C142.854 536.5 143.16 535.019 143.764 533.784C144.368 532.528 145.205 531.571 146.275 530.914C147.345 530.257 148.584 529.931 149.992 529.937C151.422 529.943 152.657 530.31 153.699 531.04C154.762 531.748 155.46 532.722 155.795 533.96L155.411 533.959L155.783 530.248L158.599 530.26C158.531 530.899 158.464 531.539 158.397 532.179C158.351 532.819 158.326 533.448 158.323 534.066L158.257 546.354L155.345 546.343L155.365 542.663L155.717 542.664C155.369 543.879 154.66 544.847 153.589 545.568C152.54 546.267 151.312 546.614 149.904 546.609ZM150.588 544.308C152.039 544.313 153.204 543.806 154.084 542.786C154.964 541.765 155.41 540.263 155.42 538.279C155.431 536.295 155.001 534.8 154.132 533.794C153.263 532.788 152.103 532.282 150.652 532.276C149.201 532.27 148.025 532.767 147.124 533.766C146.244 534.765 145.799 536.256 145.788 538.24C145.778 540.224 146.207 541.73 147.076 542.757C147.946 543.785 149.116 544.302 150.588 544.308ZM169.151 546.686C167.465 546.679 166.188 546.215 165.318 545.295C164.47 544.353 164.051 542.943 164.061 541.066L164.106 532.522L160.97 532.509L160.982 530.269L164.118 530.282L164.141 525.962L167.057 525.173L167.03 530.293L171.574 530.312L171.562 532.552L167.018 532.533L166.974 540.821C166.967 542.059 167.176 542.945 167.6 543.48C168.045 543.994 168.684 544.252 169.516 544.255C169.942 544.257 170.305 544.227 170.604 544.164C170.925 544.08 171.213 543.985 171.47 543.879L171.457 546.279C171.136 546.406 170.762 546.5 170.335 546.563C169.93 546.646 169.535 546.688 169.151 546.686ZM174.542 546.42L174.628 530.324L177.54 530.336L177.454 546.431L174.542 546.42ZM174.391 526.803L174.407 523.667L177.863 523.681L177.847 526.817L174.391 526.803ZM187.06 546.47L180.265 530.346L183.401 530.359L188.928 544.205L188.032 544.202L193.801 530.401L196.777 530.413L189.78 546.481L187.06 546.47ZM206.494 546.836C203.934 546.826 201.911 546.081 200.425 544.603C198.961 543.126 198.236 541.096 198.25 538.515C198.259 536.808 198.587 535.337 199.233 534.103C199.901 532.847 200.813 531.88 201.969 531.202C203.124 530.502 204.47 530.156 206.006 530.162C207.478 530.168 208.725 530.493 209.745 531.137C210.766 531.759 211.54 532.648 212.067 533.802C212.594 534.956 212.854 536.323 212.845 537.901L212.84 538.861L200.52 538.812L200.529 537.084L210.865 537.125L210.319 537.539C210.328 535.875 209.962 534.583 209.22 533.663C208.499 532.742 207.424 532.279 205.995 532.274C204.438 532.267 203.23 532.807 202.37 533.891C201.511 534.954 201.077 536.414 201.067 538.27L201.066 538.558C201.055 540.521 201.527 542.005 202.482 543.012C203.458 544.018 204.81 544.525 206.538 544.532C207.498 544.536 208.395 544.401 209.228 544.127C210.062 543.853 210.864 543.397 211.635 542.76L212.585 544.78C211.856 545.439 210.946 545.947 209.857 546.305C208.788 546.664 207.667 546.841 206.494 546.836ZM235.312 546.951C233.051 546.942 231.112 546.465 229.496 545.52C227.901 544.575 226.681 543.237 225.837 541.505C224.993 539.753 224.578 537.692 224.59 535.324C224.603 532.956 225.04 530.91 225.903 529.186C226.765 527.461 227.999 526.133 229.604 525.2C231.23 524.268 233.174 523.807 235.435 523.816C237.057 523.822 238.495 524.073 239.751 524.569C241.008 525.043 242.103 525.741 243.036 526.662L241.936 529.058C240.916 528.158 239.906 527.514 238.906 527.126C237.927 526.716 236.786 526.509 235.485 526.504C232.989 526.494 231.076 527.254 229.745 528.785C228.414 530.316 227.741 532.5 227.726 535.337C227.711 538.174 228.361 540.374 229.675 541.937C230.99 543.478 232.895 544.254 235.391 544.264C236.692 544.269 237.834 544.081 238.818 543.701C239.823 543.3 240.839 542.654 241.868 541.762L242.944 544.134C242 545.048 240.887 545.747 239.604 546.233C238.343 546.718 236.912 546.958 235.312 546.951ZM246.916 546.71L246.981 534.55C246.984 533.91 246.966 533.259 246.927 532.598C246.909 531.915 246.86 531.254 246.778 530.613L249.594 530.625L249.924 534.658L249.444 534.688C249.663 533.708 250.03 532.898 250.545 532.26C251.082 531.601 251.714 531.124 252.441 530.828C253.189 530.511 253.958 530.354 254.747 530.357C255.088 530.359 255.376 530.37 255.611 530.393C255.846 530.415 256.08 530.469 256.314 530.556L256.236 533.147C255.917 533.018 255.619 532.942 255.342 532.92C255.086 532.876 254.766 532.853 254.382 532.852C253.443 532.848 252.631 533.058 251.947 533.482C251.283 533.906 250.768 534.469 250.402 535.172C250.056 535.874 249.882 536.631 249.877 537.442L249.828 546.722L246.916 546.71ZM258.792 546.758L258.877 530.662L261.789 530.673L261.704 546.769L258.792 546.758ZM258.64 527.141L258.657 524.005L262.113 524.019L262.096 527.155L258.64 527.141ZM273.483 547.105C271.883 547.098 270.499 546.762 269.329 546.096C268.159 545.408 267.247 544.434 266.592 543.173C265.959 541.89 265.647 540.374 265.656 538.625C265.666 536.897 266.004 535.426 266.672 534.213C267.34 532.978 268.262 532.043 269.439 531.408C270.616 530.752 271.993 530.426 273.572 530.433C274.617 530.437 275.63 530.622 276.609 530.989C277.589 531.334 278.386 531.839 279.001 532.503L277.998 534.547C277.383 533.947 276.702 533.507 275.957 533.226C275.212 532.925 274.477 532.772 273.752 532.769C272.173 532.763 270.933 533.27 270.031 534.291C269.13 535.29 268.674 536.749 268.664 538.669C268.654 540.61 269.094 542.106 269.984 543.154C270.875 544.203 272.109 544.731 273.688 544.737C274.392 544.74 275.118 544.604 275.866 544.33C276.614 544.056 277.31 543.621 277.953 543.026L278.934 545.046C278.291 545.726 277.467 546.246 276.462 546.604C275.479 546.942 274.486 547.109 273.483 547.105ZM282.479 546.853L282.604 523.301L285.516 523.313L285.439 537.872L285.503 537.873L292.805 530.798L296.421 530.812L287.736 539.226L287.775 537.85L297.103 546.911L293.391 546.896L285.495 539.377L285.431 539.376L285.391 546.864L282.479 546.853ZM306.18 547.236C303.62 547.225 301.598 546.481 300.112 545.003C298.648 543.525 297.923 541.496 297.937 538.915C297.946 537.208 298.273 535.737 298.92 534.502C299.588 533.246 300.5 532.279 301.655 531.601C302.811 530.902 304.157 530.555 305.693 530.562C307.165 530.568 308.411 530.893 309.432 531.537C310.453 532.159 311.227 533.048 311.754 534.202C312.281 535.356 312.54 536.722 312.532 538.301L312.527 539.261L300.207 539.212L300.216 537.484L310.552 537.525L310.006 537.939C310.015 536.275 309.648 534.983 308.906 534.063C308.186 533.142 307.111 532.679 305.682 532.674C304.124 532.667 302.916 533.206 302.057 534.291C301.198 535.354 300.764 536.814 300.754 538.67L300.752 538.958C300.742 540.92 301.214 542.405 302.169 543.412C303.145 544.418 304.497 544.925 306.225 544.932C307.185 544.936 308.081 544.801 308.915 544.527C309.748 544.253 310.551 543.797 311.322 543.16L312.271 545.18C311.543 545.839 310.633 546.347 309.543 546.705C308.475 547.064 307.354 547.24 306.18 547.236ZM322.275 547.3C320.589 547.293 319.312 546.83 318.442 545.909C317.594 544.967 317.174 543.557 317.184 541.68L317.23 533.136L314.094 533.123L314.106 530.883L317.242 530.896L317.265 526.576L320.181 525.788L320.154 530.908L324.698 530.926L324.686 533.166L320.142 533.148L320.098 541.435C320.091 542.673 320.3 543.559 320.724 544.094C321.169 544.608 321.807 544.866 322.639 544.87C323.066 544.871 323.429 544.841 323.728 544.778C324.048 544.694 324.337 544.599 324.593 544.494L324.581 546.893C324.26 547.02 323.886 547.115 323.459 547.177C323.053 547.261 322.659 547.302 322.275 547.3ZM336.424 547.069L336.544 524.509L338.848 524.519L352.892 543.263L352.124 543.26L352.223 524.572L355.007 524.583L354.888 547.143L352.616 547.134L338.571 528.389L339.307 528.392L339.208 547.08L336.424 547.069ZM360.361 547.165L360.481 524.605L374.753 524.663L374.74 527.095L363.444 527.049L363.404 534.601L373.964 534.643L373.951 537.075L363.391 537.033L363.337 547.177L360.361 547.165ZM383.956 547.26L384.063 527.228L376.255 527.197L376.268 524.669L394.924 524.743L394.911 527.271L387.071 527.24L386.964 547.272L383.956 547.26ZM413.878 547.668C412.064 547.66 410.433 547.419 408.985 546.944C407.537 546.469 406.282 545.803 405.22 544.945L406.256 542.581C407 543.139 407.755 543.611 408.521 543.998C409.287 544.364 410.107 544.645 410.981 544.84C411.876 545.014 412.846 545.104 413.891 545.108C415.747 545.115 417.114 544.79 417.992 544.132C418.892 543.453 419.345 542.559 419.351 541.45C419.356 540.49 419.05 539.752 418.434 539.238C417.818 538.723 416.743 538.314 415.209 538.009L411.789 537.291C409.722 536.856 408.179 536.157 407.16 535.193C406.162 534.207 405.668 532.883 405.677 531.219C405.684 529.875 406.042 528.703 406.752 527.703C407.482 526.682 408.478 525.897 409.74 525.347C411.023 524.797 412.518 524.526 414.224 524.533C415.803 524.539 417.263 524.78 418.605 525.254C419.946 525.729 421.073 526.427 421.986 527.348L420.95 529.616C419.994 528.737 418.963 528.104 417.856 527.715C416.77 527.306 415.534 527.098 414.147 527.093C412.462 527.086 411.126 527.443 410.141 528.165C409.156 528.886 408.66 529.865 408.653 531.103C408.648 532.084 408.953 532.864 409.569 533.442C410.185 533.999 411.206 534.43 412.634 534.735L416.055 535.42C418.228 535.856 419.814 536.534 420.812 537.455C421.831 538.377 422.336 539.648 422.328 541.27C422.321 542.55 421.974 543.679 421.286 544.657C420.598 545.615 419.623 546.357 418.362 546.886C417.1 547.414 415.606 547.675 413.878 547.668ZM426.517 547.43L426.637 524.871L428.941 524.88L442.985 543.624L442.217 543.621L442.316 524.934L445.1 524.945L444.981 547.504L442.709 547.495L428.664 528.751L429.4 528.754L429.301 547.442L426.517 547.43ZM450.454 547.526L450.574 524.967L465.166 525.025L465.153 527.457L453.441 527.41L453.401 534.866L464.377 534.91L464.364 537.342L453.388 537.298L453.347 545.106L465.059 545.153L465.046 547.585L450.454 547.526ZM469.329 547.602L469.449 525.042L484.041 525.101L484.028 527.533L472.316 527.486L472.276 534.942L483.252 534.986L483.239 537.418L472.263 537.374L472.222 545.182L483.934 545.229L483.921 547.661L469.329 547.602ZM488.204 547.678L488.324 525.118L491.3 525.13L491.245 535.338L491.309 535.338L501.955 525.173L505.699 525.188L493.349 536.818L493.389 535.379L506.444 547.751L502.572 547.735L491.3 537.098L491.236 537.098L491.18 547.69L488.204 547.678ZM517.141 547.794L517.261 525.234L526.605 525.272C529.015 525.281 530.858 525.865 532.132 527.022C533.405 528.179 534.037 529.771 534.026 531.798C534.015 533.824 533.367 535.422 532.081 536.59C530.795 537.737 528.946 538.305 526.536 538.296L520.168 538.27L520.117 547.806L517.141 547.794ZM520.181 535.838L526.26 535.862C527.839 535.869 529.036 535.522 529.85 534.821C530.665 534.099 531.075 533.087 531.082 531.786C531.089 530.484 530.689 529.48 529.882 528.773C529.075 528.066 527.883 527.709 526.304 527.703L520.224 527.678L520.181 535.838ZM538.11 547.878L538.229 525.318L552.821 525.377L552.808 527.809L541.096 527.762L541.057 535.218L552.033 535.262L552.02 537.694L541.044 537.65L541.002 545.458L552.714 545.505L552.701 547.937L538.11 547.878ZM554.243 547.943L564.347 525.423L566.939 525.433L576.963 548.034L573.891 548.022L571.141 541.61L572.417 542.384L558.689 542.329L560.101 541.566L557.283 547.955L554.243 547.943ZM565.577 528.756L560.522 540.576L559.758 539.901L571.374 539.947L570.762 540.617L565.705 528.757L565.577 528.756ZM580.172 548.047L580.292 525.487L583.268 525.499L583.213 535.707L583.277 535.707L593.923 525.542L597.667 525.557L585.317 537.187L585.357 535.747L598.412 548.12L594.54 548.104L583.268 537.467L583.204 537.467L583.148 548.059L580.172 548.047ZM93.2062 583.246C92.1609 583.241 91.1916 582.992 90.2982 582.498C89.4049 581.982 88.6939 581.286 88.1652 580.409C87.6366 579.533 87.3751 578.561 87.3807 577.494C87.3859 576.513 87.6362 575.586 88.1315 574.713C88.6482 573.841 89.3452 573.139 90.2227 572.61C91.1217 572.059 92.1365 571.785 93.2671 571.79C94.3124 571.794 95.2711 572.054 96.143 572.569C97.0151 573.064 97.7155 573.738 98.2443 574.594C98.7944 575.449 99.0665 576.432 99.0606 577.541C99.0551 578.586 98.7833 579.545 98.2453 580.418C97.7287 581.29 97.021 581.981 96.1223 582.489C95.2449 582.998 94.2729 583.25 93.2062 583.246ZM119.932 586.201L120.052 563.641L129.235 563.678C131.667 563.688 133.531 564.207 134.827 565.236C136.123 566.266 136.766 567.708 136.756 569.564C136.749 570.972 136.316 572.144 135.458 573.079C134.621 574.014 133.476 574.639 132.024 574.953L132.026 574.473C133.689 574.672 134.977 575.253 135.889 576.217C136.822 577.181 137.285 578.452 137.277 580.03C137.266 582.036 136.586 583.58 135.236 584.662C133.886 585.724 131.985 586.249 129.532 586.239L119.932 586.201ZM122.824 583.844L129.256 583.87C130.835 583.877 132.074 583.583 132.973 582.989C133.893 582.374 134.358 581.363 134.365 579.955C134.373 578.525 133.919 577.51 133.005 576.909C132.112 576.308 130.877 576.005 129.298 575.998L122.866 575.973L122.824 583.844ZM122.879 573.605L128.767 573.628C130.452 573.635 131.712 573.32 132.548 572.683C133.383 572.025 133.804 571.078 133.811 569.84C133.817 568.603 133.406 567.663 132.578 567.019C131.749 566.355 130.492 566.019 128.807 566.012L122.919 565.989L122.879 573.605ZM148.782 586.605C146.222 586.594 144.199 585.85 142.713 584.372C141.249 582.894 140.524 580.865 140.538 578.283C140.547 576.577 140.875 575.106 141.521 573.871C142.189 572.615 143.101 571.648 144.257 570.97C145.412 570.271 146.758 569.924 148.294 569.931C149.766 569.936 151.012 570.261 152.033 570.906C153.054 571.528 153.828 572.417 154.355 573.571C154.882 574.725 155.142 576.091 155.133 577.67L155.128 578.63L142.808 578.581L142.817 576.853L153.153 576.894L152.607 577.308C152.616 575.644 152.249 574.352 151.508 573.431C150.787 572.511 149.712 572.048 148.283 572.042C146.726 572.036 145.517 572.575 144.658 573.66C143.799 574.723 143.365 576.183 143.355 578.039L143.354 578.327C143.343 580.289 143.815 581.774 144.77 582.78C145.746 583.787 147.098 584.294 148.826 584.301C149.786 584.305 150.683 584.17 151.516 583.896C152.35 583.622 153.152 583.166 153.923 582.529L154.873 584.549C154.144 585.207 153.234 585.716 152.144 586.074C151.076 586.432 149.955 586.609 148.782 586.605ZM164.876 586.669C163.19 586.662 161.913 586.199 161.043 585.278C160.195 584.336 159.776 582.926 159.786 581.049L159.831 572.505L156.695 572.492L156.707 570.252L159.843 570.265L159.866 565.945L162.782 565.157L162.755 570.277L167.299 570.295L167.287 572.535L162.743 572.516L162.699 580.804C162.692 582.042 162.901 582.928 163.325 583.463C163.77 583.977 164.409 584.235 165.241 584.239C165.667 584.24 166.03 584.21 166.329 584.147C166.65 584.063 166.938 583.968 167.195 583.862L167.182 586.262C166.861 586.389 166.487 586.484 166.06 586.546C165.655 586.63 165.26 586.671 164.876 586.669ZM176.41 586.715C175.002 586.71 173.766 586.374 172.703 585.709C171.64 585.043 170.813 584.08 170.223 582.819C169.632 581.558 169.341 580.063 169.35 578.335C169.36 576.607 169.666 575.126 170.27 573.891C170.874 572.634 171.711 571.678 172.781 571.021C173.851 570.364 175.091 570.038 176.498 570.044C177.928 570.049 179.163 570.417 180.205 571.147C181.268 571.855 181.966 572.828 182.301 574.067L181.917 574.065L182.289 570.355L185.105 570.366C185.037 571.006 184.97 571.646 184.903 572.285C184.857 572.925 184.832 573.554 184.829 574.173L184.763 586.461L181.851 586.449L181.871 582.769L182.223 582.771C181.875 583.985 181.166 584.953 180.095 585.674C179.046 586.374 177.818 586.721 176.41 586.715ZM177.094 584.414C178.545 584.42 179.71 583.913 180.59 582.892C181.47 581.872 181.916 580.369 181.926 578.385C181.937 576.402 181.507 574.906 180.638 573.9C179.769 572.894 178.609 572.388 177.158 572.382C175.707 572.376 174.531 572.873 173.63 573.872C172.75 574.871 172.305 576.363 172.294 578.347C172.284 580.331 172.713 581.837 173.582 582.864C174.452 583.892 175.622 584.408 177.094 584.414ZM198.4 586.516L198.52 563.956L206.168 563.987C208.685 563.997 210.805 564.443 212.529 565.324C214.273 566.206 215.589 567.491 216.476 569.18C217.363 570.848 217.8 572.887 217.788 575.297C217.775 577.708 217.316 579.754 216.411 581.436C215.506 583.118 214.177 584.392 212.423 585.26C210.69 586.128 208.565 586.556 206.048 586.546L198.4 586.516ZM201.389 584L205.837 584.017C208.845 584.03 211.078 583.313 212.537 581.868C213.995 580.423 214.732 578.229 214.748 575.285C214.763 572.341 214.05 570.152 212.607 568.716C211.164 567.26 208.938 566.526 205.93 566.514L201.482 566.496L201.389 584ZM222.4 586.612L222.519 564.052L237.111 564.111L237.098 566.543L225.386 566.496L225.347 573.952L236.323 573.996L236.31 576.428L225.334 576.384L225.292 584.191L237.004 584.238L236.991 586.67L222.4 586.612ZM238.464 586.676L247.616 574.617L247.61 575.769L238.968 564.118L242.488 564.132L249.381 573.632L248.453 573.628L255.351 564.184L258.903 564.198L250.138 575.779L250.144 574.627L259.168 586.759L255.616 586.745L248.309 576.668L249.429 576.672L241.984 586.69L238.464 586.676ZM270.524 586.805L270.644 564.245L273.62 564.257L273.514 584.257L284.746 584.302L284.732 586.862L270.524 586.805ZM293.909 587.187C292.501 587.181 291.265 586.845 290.202 586.18C289.139 585.514 288.312 584.551 287.722 583.29C287.131 582.029 286.84 580.534 286.849 578.806C286.859 577.078 287.165 575.597 287.769 574.362C288.373 573.106 289.21 572.149 290.28 571.492C291.35 570.835 292.59 570.509 293.998 570.515C295.427 570.521 296.662 570.888 297.704 571.618C298.767 572.326 299.465 573.3 299.8 574.538L299.416 574.537L299.788 570.826L302.604 570.837C302.537 571.477 302.469 572.117 302.402 572.757C302.356 573.397 302.331 574.026 302.328 574.644L302.262 586.932L299.35 586.921L299.37 583.241L299.722 583.242C299.374 584.457 298.665 585.424 297.595 586.146C296.545 586.845 295.317 587.192 293.909 587.187ZM294.593 584.885C296.044 584.891 297.209 584.384 298.089 583.363C298.969 582.343 299.415 580.841 299.425 578.857C299.436 576.873 299.006 575.378 298.137 574.372C297.268 573.365 296.108 572.859 294.657 572.854C293.206 572.848 292.03 573.344 291.129 574.343C290.249 575.343 289.804 576.834 289.793 578.818C289.783 580.802 290.212 582.308 291.081 583.335C291.951 584.363 293.121 584.88 294.593 584.885ZM312.868 587.263C310.926 587.255 309.468 586.726 308.492 585.677C307.538 584.628 307.066 583.015 307.078 580.84L307.131 570.856L310.043 570.867L309.99 580.787C309.983 582.195 310.265 583.231 310.838 583.895C311.41 584.558 312.304 584.893 313.52 584.897C314.843 584.903 315.912 584.47 316.727 583.598C317.564 582.706 317.986 581.523 317.994 580.051L318.043 570.899L320.955 570.911L320.869 587.007L318.053 586.996L318.072 583.444L318.488 583.445C318.034 584.659 317.314 585.606 316.329 586.285C315.344 586.942 314.19 587.268 312.868 587.263ZM325.766 587.027L325.832 574.739C325.835 574.12 325.817 573.491 325.778 572.85C325.738 572.21 325.678 571.57 325.596 570.93L328.412 570.941L328.713 574.398L328.329 574.397C328.827 573.183 329.589 572.258 330.616 571.622C331.644 570.986 332.84 570.671 334.205 570.676C336.104 570.684 337.53 571.212 338.485 572.261C339.439 573.289 339.911 574.891 339.899 577.067L339.846 587.083L336.934 587.071L336.987 577.215C336.994 575.743 336.712 574.686 336.139 574.044C335.567 573.38 334.673 573.046 333.457 573.041C332.006 573.035 330.852 573.468 329.994 574.339C329.157 575.211 328.735 576.393 328.727 577.886L328.678 587.038L325.766 587.027ZM351.52 587.418C349.92 587.411 348.535 587.075 347.366 586.409C346.196 585.722 345.284 584.747 344.629 583.486C343.996 582.204 343.684 580.688 343.693 578.938C343.702 577.21 344.041 575.74 344.709 574.526C345.377 573.292 346.299 572.357 347.476 571.721C348.652 571.065 350.03 570.74 351.609 570.746C352.654 570.75 353.667 570.936 354.646 571.302C355.625 571.648 356.423 572.152 357.038 572.816L356.035 574.86C355.42 574.26 354.739 573.82 353.994 573.54C353.249 573.238 352.514 573.086 351.788 573.083C350.21 573.076 348.97 573.584 348.068 574.604C347.167 575.603 346.711 577.062 346.701 578.982C346.691 580.924 347.131 582.419 348.021 583.468C348.912 584.517 350.146 585.044 351.725 585.051C352.429 585.053 353.155 584.918 353.903 584.643C354.651 584.369 355.347 583.934 355.99 583.34L356.971 585.36C356.328 586.04 355.504 586.559 354.499 586.918C353.516 587.255 352.523 587.422 351.52 587.418ZM360.516 587.166L360.641 563.614L363.553 563.626L363.495 574.57L363.079 574.568C363.555 573.333 364.317 572.397 365.366 571.761C366.415 571.125 367.622 570.81 368.987 570.816C370.928 570.824 372.355 571.352 373.267 572.401C374.2 573.45 374.661 575.031 374.649 577.143L374.596 587.222L371.684 587.211L371.737 577.291C371.744 575.862 371.472 574.826 370.921 574.184C370.37 573.52 369.465 573.186 368.206 573.181C366.798 573.175 365.655 573.608 364.775 574.479C363.917 575.35 363.485 576.511 363.477 577.962L363.428 587.178L360.516 587.166ZM92.9937 623.245C91.9484 623.241 90.979 622.992 90.0856 622.497C89.1924 621.982 88.4814 621.286 87.9527 620.409C87.424 619.532 87.1625 618.56 87.1682 617.494C87.1734 616.512 87.4237 615.585 87.919 614.713C88.4356 613.84 89.1327 613.139 90.0102 612.609C90.9091 612.058 91.9239 611.785 93.0546 611.789C94.0999 611.793 95.0585 612.053 95.9305 612.569C96.8025 613.063 97.503 613.738 98.0318 614.593C98.5819 615.449 98.854 616.431 98.8481 617.541C98.8425 618.586 98.5708 619.545 98.0328 620.417C97.5162 621.29 96.8085 621.98 95.9098 622.489C95.0324 622.997 94.0604 623.249 92.9937 623.245ZM119.719 626.2L119.839 603.641L127.487 603.671C130.004 603.681 132.125 604.127 133.848 605.009C135.593 605.89 136.908 607.176 137.795 608.865C138.683 610.532 139.12 612.571 139.107 614.982C139.094 617.393 138.635 619.439 137.73 621.121C136.825 622.802 135.496 624.077 133.742 624.945C132.009 625.812 129.884 626.241 127.367 626.231L119.719 626.2ZM122.709 623.684L127.156 623.702C130.164 623.714 132.398 622.998 133.856 621.553C135.314 620.108 136.051 617.914 136.067 614.97C136.083 612.026 135.369 609.836 133.926 608.401C132.483 606.945 130.257 606.21 127.249 606.198L122.802 606.181L122.709 623.684ZM143.719 626.297L143.839 603.737L158.431 603.795L158.418 606.227L146.706 606.18L146.666 613.636L157.642 613.68L157.629 616.112L146.653 616.068L146.612 623.876L158.324 623.923L158.311 626.355L143.719 626.297ZM159.783 626.361L168.935 614.302L168.929 615.454L160.287 603.803L163.807 603.817L170.7 613.317L169.773 613.313L176.671 603.869L180.223 603.883L171.457 615.464L171.463 614.312L180.487 626.444L176.935 626.43L169.628 616.352L170.748 616.357L163.303 626.375L159.783 626.361ZM189.54 626.48L199.643 603.961L202.235 603.971L212.259 626.572L209.187 626.559L206.437 620.148L207.713 620.921L193.985 620.866L195.398 620.104L192.58 626.493L189.54 626.48ZM200.874 607.294L195.819 619.114L195.054 618.438L206.67 618.485L206.059 619.155L201.002 607.294L200.874 607.294ZM215.148 626.583L215.214 614.295C215.217 613.677 215.199 613.047 215.16 612.407C215.12 611.767 215.06 611.127 214.978 610.486L217.794 610.498L218.095 613.955L217.711 613.953C218.209 612.739 218.971 611.814 219.998 611.178C221.026 610.543 222.222 610.227 223.587 610.233C225.486 610.24 226.913 610.769 227.867 611.818C228.822 612.846 229.293 614.448 229.281 616.624L229.228 626.64L226.316 626.628L226.369 616.772C226.376 615.3 226.094 614.243 225.521 613.601C224.949 612.937 224.055 612.603 222.839 612.598C221.388 612.592 220.234 613.025 219.376 613.896C218.539 614.767 218.117 615.95 218.109 617.443L218.06 626.595L215.148 626.583ZM240.134 626.971C238.726 626.966 237.491 626.63 236.428 625.964C235.365 625.299 234.538 624.336 233.947 623.074C233.356 621.813 233.066 620.319 233.075 618.591C233.084 616.863 233.391 615.382 233.994 614.147C234.598 612.89 235.436 611.934 236.506 611.277C237.576 610.62 238.815 610.294 240.223 610.3C241.652 610.305 242.888 610.673 243.929 611.402C244.992 612.111 245.691 613.084 246.026 614.323L245.642 614.321L246.013 610.611L248.829 610.622C248.762 611.262 248.695 611.902 248.627 612.541C248.581 613.181 248.556 613.81 248.553 614.429L248.488 626.717L245.576 626.705L245.595 623.025L245.947 623.027C245.6 624.241 244.89 625.209 243.82 625.93C242.771 626.63 241.542 626.977 240.134 626.971ZM240.819 624.67C242.269 624.676 243.435 624.169 244.315 623.148C245.195 622.128 245.64 620.625 245.651 618.641C245.661 616.657 245.232 615.162 244.363 614.156C243.493 613.15 242.333 612.644 240.883 612.638C239.432 612.632 238.256 613.129 237.355 614.128C236.475 615.127 236.029 616.619 236.019 618.603C236.008 620.587 236.438 622.092 237.307 623.12C238.176 624.147 239.347 624.664 240.819 624.67ZM253.367 626.736L253.492 603.185L256.404 603.196L256.279 626.748L253.367 626.736ZM260.565 634.029L259.906 631.659C260.91 631.428 261.743 631.154 262.406 630.837C263.069 630.541 263.626 630.148 264.077 629.659C264.527 629.171 264.925 628.553 265.271 627.808L266.081 625.891L266.01 627.107L259.09 610.663L262.225 610.676L267.752 624.49L266.92 624.487L272.593 610.717L275.601 610.729L268.117 628.044C267.664 629.087 267.168 629.96 266.631 630.662C266.116 631.364 265.547 631.937 264.926 632.383C264.326 632.828 263.663 633.178 262.937 633.431C262.21 633.684 261.42 633.883 260.565 634.029ZM284.569 627.15C282.883 627.143 281.606 626.679 280.736 625.758C279.888 624.816 279.468 623.406 279.478 621.529L279.524 612.985L276.388 612.973L276.4 610.733L279.536 610.745L279.559 606.425L282.475 605.637L282.448 610.757L286.992 610.775L286.98 613.015L282.436 612.997L282.392 621.285C282.385 622.522 282.594 623.408 283.018 623.943C283.463 624.457 284.101 624.716 284.933 624.719C285.36 624.721 285.723 624.69 286.022 624.627C286.342 624.543 286.631 624.448 286.887 624.343L286.875 626.743C286.554 626.87 286.18 626.964 285.753 627.026C285.347 627.11 284.953 627.151 284.569 627.15ZM289.96 626.883L290.046 610.787L292.958 610.799L292.872 626.895L289.96 626.883ZM289.808 607.266L289.825 604.13L293.281 604.144L293.264 607.28L289.808 607.266ZM304.652 627.23C303.052 627.224 301.667 626.887 300.497 626.221C299.327 625.534 298.415 624.56 297.761 623.298C297.127 622.016 296.816 620.5 296.825 618.751C296.834 617.023 297.172 615.552 297.84 614.339C298.508 613.104 299.43 612.169 300.607 611.534C301.784 610.877 303.162 610.552 304.74 610.558C305.786 610.563 306.798 610.748 307.778 611.115C308.757 611.46 309.554 611.964 310.17 612.628L309.167 614.672C308.551 614.072 307.871 613.632 307.126 613.352C306.381 613.05 305.645 612.898 304.92 612.895C303.341 612.889 302.101 613.396 301.2 614.416C300.299 615.415 299.843 616.875 299.833 618.795C299.822 620.736 300.262 622.231 301.153 623.28C302.043 624.329 303.278 624.857 304.856 624.863C305.56 624.866 306.286 624.73 307.035 624.456C307.783 624.181 308.478 623.747 309.122 623.152L310.103 625.172C309.459 625.852 308.635 626.371 307.631 626.73C306.647 627.067 305.655 627.234 304.652 627.23ZM319.086 627.288C317.785 627.283 316.57 627.107 315.441 626.761C314.333 626.416 313.419 625.921 312.697 625.278L313.635 623.266C314.421 623.867 315.283 624.329 316.22 624.653C317.178 624.955 318.159 625.108 319.162 625.112C320.378 625.117 321.296 624.897 321.917 624.451C322.559 624.006 322.883 623.41 322.887 622.663C322.89 622.066 322.69 621.585 322.286 621.221C321.883 620.857 321.244 620.587 320.371 620.413L317.334 619.793C315.97 619.467 314.938 618.951 314.238 618.245C313.559 617.516 313.223 616.587 313.229 615.456C313.234 614.518 313.494 613.687 314.01 612.964C314.526 612.219 315.254 611.646 316.195 611.244C317.157 610.821 318.279 610.613 319.559 610.618C320.732 610.622 321.819 610.798 322.82 611.143C323.842 611.488 324.682 611.993 325.34 612.657L324.369 614.605C323.711 614.026 322.967 613.586 322.136 613.284C321.327 612.961 320.496 612.798 319.643 612.794C318.406 612.789 317.487 613.031 316.887 613.519C316.287 613.986 315.985 614.603 315.981 615.371C315.978 615.947 316.157 616.428 316.518 616.814C316.878 617.178 317.464 617.457 318.273 617.653L321.31 618.273C322.738 618.577 323.812 619.072 324.534 619.758C325.256 620.443 325.614 621.351 325.608 622.482C325.602 623.485 325.32 624.348 324.762 625.071C324.225 625.794 323.464 626.346 322.481 626.726C321.519 627.106 320.387 627.293 319.086 627.288Z" fill="#BA1E71"/>
<path d="M93.0001 342L93.3998 617.732" stroke="#0FA9D9"/>
</svg>
