<svg width="645" height="634" viewBox="0 0 645 634" fill="none" xmlns="http://www.w3.org/2000/svg">
<path d="M368 327.731L313.97 371.899V283.564L368 327.731Z" fill="#BA1E71"/>
<path fill-rule="evenodd" clip-rule="evenodd" d="M-0.000148057 371.731L53.8252 327.731L-0.000148057 283.731H313.97V371.731H-0.000148057Z" fill="#BA1E71"/>
<path d="M135.011 342V339.443L144.614 328.932C145.741 327.701 146.669 326.631 147.398 325.722C148.127 324.803 148.667 323.941 149.017 323.136C149.377 322.322 149.557 321.47 149.557 320.58C149.557 319.557 149.311 318.671 148.818 317.923C148.335 317.175 147.672 316.598 146.83 316.19C145.987 315.783 145.04 315.58 143.989 315.58C142.871 315.58 141.896 315.812 141.062 316.276C140.239 316.73 139.599 317.369 139.145 318.193C138.7 319.017 138.477 319.983 138.477 321.091H135.125C135.125 319.386 135.518 317.89 136.304 316.602C137.09 315.314 138.16 314.311 139.514 313.591C140.878 312.871 142.407 312.511 144.102 312.511C145.807 312.511 147.317 312.871 148.634 313.591C149.95 314.311 150.982 315.281 151.73 316.503C152.478 317.724 152.852 319.083 152.852 320.58C152.852 321.65 152.658 322.696 152.27 323.719C151.891 324.732 151.228 325.864 150.281 327.114C149.344 328.354 148.042 329.869 146.375 331.659L139.841 338.648V338.875H153.364V342H135.011ZM168.719 342.398C166.579 342.398 164.756 341.815 163.25 340.651C161.744 339.476 160.594 337.777 159.798 335.551C159.003 333.316 158.605 330.617 158.605 327.455C158.605 324.311 159.003 321.626 159.798 319.401C160.603 317.166 161.759 315.461 163.264 314.287C164.779 313.103 166.598 312.511 168.719 312.511C170.84 312.511 172.653 313.103 174.159 314.287C175.674 315.461 176.83 317.166 177.625 319.401C178.43 321.626 178.832 324.311 178.832 327.455C178.832 330.617 178.435 333.316 177.639 335.551C176.844 337.777 175.693 339.476 174.188 340.651C172.682 341.815 170.859 342.398 168.719 342.398ZM168.719 339.273C170.84 339.273 172.488 338.25 173.662 336.205C174.836 334.159 175.423 331.242 175.423 327.455C175.423 324.936 175.153 322.791 174.614 321.02C174.083 319.249 173.316 317.9 172.312 316.972C171.318 316.044 170.12 315.58 168.719 315.58C166.616 315.58 164.973 316.616 163.79 318.69C162.606 320.755 162.014 323.676 162.014 327.455C162.014 329.973 162.279 332.114 162.81 333.875C163.34 335.636 164.102 336.976 165.097 337.895C166.1 338.813 167.308 339.273 168.719 339.273ZM184.23 342V339.443L193.832 328.932C194.959 327.701 195.887 326.631 196.616 325.722C197.346 324.803 197.885 323.941 198.236 323.136C198.596 322.322 198.776 321.47 198.776 320.58C198.776 319.557 198.529 318.671 198.037 317.923C197.554 317.175 196.891 316.598 196.048 316.19C195.205 315.783 194.259 315.58 193.207 315.58C192.09 315.58 191.115 315.812 190.281 316.276C189.457 316.73 188.818 317.369 188.364 318.193C187.919 319.017 187.696 319.983 187.696 321.091H184.344C184.344 319.386 184.737 317.89 185.523 316.602C186.309 315.314 187.379 314.311 188.733 313.591C190.097 312.871 191.626 312.511 193.321 312.511C195.026 312.511 196.536 312.871 197.852 313.591C199.169 314.311 200.201 315.281 200.949 316.503C201.697 317.724 202.071 319.083 202.071 320.58C202.071 321.65 201.877 322.696 201.489 323.719C201.11 324.732 200.447 325.864 199.5 327.114C198.562 328.354 197.26 329.869 195.594 331.659L189.06 338.648V338.875H202.582V342H184.23ZM217.54 342.398C215.873 342.398 214.372 342.066 213.037 341.403C211.702 340.741 210.632 339.831 209.827 338.676C209.022 337.521 208.581 336.205 208.506 334.727H211.915C212.047 336.044 212.644 337.133 213.705 337.994C214.775 338.847 216.053 339.273 217.54 339.273C218.733 339.273 219.794 338.993 220.722 338.435C221.659 337.876 222.393 337.109 222.923 336.134C223.463 335.149 223.733 334.036 223.733 332.795C223.733 331.527 223.454 330.395 222.895 329.401C222.346 328.397 221.588 327.606 220.622 327.028C219.656 326.451 218.553 326.157 217.312 326.148C216.422 326.138 215.509 326.276 214.571 326.56C213.634 326.834 212.862 327.189 212.256 327.625L208.96 327.227L210.722 312.909H225.835V316.034H213.676L212.653 324.614H212.824C213.42 324.14 214.169 323.747 215.068 323.435C215.968 323.122 216.905 322.966 217.881 322.966C219.661 322.966 221.247 323.392 222.639 324.244C224.041 325.087 225.139 326.242 225.935 327.71C226.74 329.178 227.142 330.854 227.142 332.739C227.142 334.595 226.725 336.252 225.892 337.71C225.068 339.159 223.932 340.305 222.483 341.148C221.034 341.981 219.386 342.398 217.54 342.398ZM255.114 332.909H258.978L262.217 337.17L263.069 338.307L267.898 344.727H264.035L260.853 340.466L260.058 339.386L255.114 332.909ZM269.092 327.455C269.092 330.523 268.538 333.174 267.43 335.409C266.322 337.644 264.802 339.367 262.87 340.58C260.938 341.792 258.732 342.398 256.251 342.398C253.77 342.398 251.563 341.792 249.631 340.58C247.7 339.367 246.18 337.644 245.072 335.409C243.964 333.174 243.41 330.523 243.41 327.455C243.41 324.386 243.964 321.735 245.072 319.5C246.18 317.265 247.7 315.542 249.631 314.33C251.563 313.117 253.77 312.511 256.251 312.511C258.732 312.511 260.938 313.117 262.87 314.33C264.802 315.542 266.322 317.265 267.43 319.5C268.538 321.735 269.092 324.386 269.092 327.455ZM265.683 327.455C265.683 324.936 265.261 322.81 264.418 321.077C263.585 319.344 262.453 318.032 261.023 317.142C259.603 316.252 258.012 315.807 256.251 315.807C254.489 315.807 252.894 316.252 251.464 317.142C250.043 318.032 248.912 319.344 248.069 321.077C247.236 322.81 246.819 324.936 246.819 327.455C246.819 329.973 247.236 332.099 248.069 333.832C248.912 335.565 250.043 336.877 251.464 337.767C252.894 338.657 254.489 339.102 256.251 339.102C258.012 339.102 259.603 338.657 261.023 337.767C262.453 336.877 263.585 335.565 264.418 333.832C265.261 332.099 265.683 329.973 265.683 327.455ZM274.504 342V339.443L284.106 328.932C285.233 327.701 286.161 326.631 286.89 325.722C287.619 324.803 288.159 323.941 288.509 323.136C288.869 322.322 289.049 321.47 289.049 320.58C289.049 319.557 288.803 318.671 288.31 317.923C287.827 317.175 287.165 316.598 286.322 316.19C285.479 315.783 284.532 315.58 283.481 315.58C282.363 315.58 281.388 315.812 280.555 316.276C279.731 316.73 279.092 317.369 278.637 318.193C278.192 319.017 277.969 319.983 277.969 321.091H274.617C274.617 319.386 275.01 317.89 275.796 316.602C276.582 315.314 277.652 314.311 279.006 313.591C280.37 312.871 281.899 312.511 283.594 312.511C285.299 312.511 286.809 312.871 288.126 313.591C289.442 314.311 290.474 315.281 291.222 316.503C291.97 317.724 292.344 319.083 292.344 320.58C292.344 321.65 292.15 322.696 291.762 323.719C291.383 324.732 290.72 325.864 289.773 327.114C288.836 328.354 287.534 329.869 285.867 331.659L279.333 338.648V338.875H292.856V342H274.504Z" fill="black"/>
<path d="M90.9657 327.813C90.9657 332.355 86.7278 336.037 81.5 336.037C76.2722 336.037 72.0343 332.355 72.0343 327.813C72.0343 323.27 76.2722 319.588 81.5 319.588C86.7278 319.588 90.9657 323.27 90.9657 327.813Z" fill="#D9D9D9"/>
<path d="M83.3708 427.896C82.3255 427.892 81.3561 427.643 80.4627 427.148C79.5695 426.633 78.8585 425.937 78.3298 425.06C77.8011 424.183 77.5396 423.211 77.5453 422.145C77.5505 421.163 77.8008 420.236 78.2961 419.364C78.8127 418.491 79.5098 417.79 80.3873 417.26C81.2862 416.709 82.301 416.436 83.4317 416.44C84.477 416.444 85.4356 416.704 86.3076 417.22C87.1796 417.714 87.8801 418.389 88.4089 419.244C88.959 420.1 89.2311 421.082 89.2252 422.192C89.2196 423.237 88.9479 424.196 88.4099 425.068C87.8933 425.941 87.1856 426.631 86.2869 427.14C85.4095 427.648 84.4375 427.9 83.3708 427.896ZM110.096 430.851L110.216 408.292L124.488 408.349L124.475 410.781L113.179 410.736L113.139 418.287L123.699 418.33L123.686 420.762L113.126 420.719L113.072 430.863L110.096 430.851ZM133.221 431.232C131.28 431.224 129.821 430.696 128.846 429.647C127.891 428.597 127.42 426.985 127.431 424.809L127.484 414.825L130.396 414.837L130.344 424.756C130.336 426.164 130.619 427.2 131.191 427.864C131.764 428.528 132.658 428.862 133.874 428.867C135.196 428.872 136.265 428.439 137.081 427.568C137.918 426.675 138.34 425.493 138.348 424.021L138.396 414.869L141.308 414.88L141.223 430.976L138.407 430.965L138.426 427.413L138.842 427.415C138.387 428.629 137.667 429.575 136.682 430.254C135.698 430.911 134.544 431.237 133.221 431.232ZM152.134 431.308C150.449 431.301 149.171 430.837 148.301 429.917C147.453 428.974 147.034 427.565 147.044 425.687L147.089 417.144L143.953 417.131L143.965 414.891L147.101 414.904L147.124 410.584L150.04 409.795L150.013 414.915L154.557 414.934L154.545 417.174L150.001 417.155L149.957 425.443C149.951 426.68 150.159 427.567 150.583 428.102C151.028 428.615 151.667 428.874 152.499 428.877C152.926 428.879 153.289 428.849 153.588 428.786C153.908 428.702 154.196 428.607 154.453 428.501L154.44 430.901C154.12 431.028 153.746 431.122 153.319 431.185C152.913 431.268 152.518 431.309 152.134 431.308ZM163.252 431.353C161.311 431.345 159.852 430.816 158.877 429.767C157.922 428.718 157.451 427.105 157.462 424.929L157.515 414.945L160.427 414.957L160.375 424.877C160.367 426.285 160.65 427.321 161.222 427.984C161.795 428.648 162.689 428.982 163.905 428.987C165.227 428.992 166.296 428.559 167.112 427.688C167.949 426.795 168.371 425.613 168.379 424.141L168.427 414.989L171.339 415.001L171.254 431.097L168.438 431.085L168.457 427.533L168.873 427.535C168.418 428.749 167.698 429.696 166.714 430.374C165.729 431.032 164.575 431.358 163.252 431.353ZM176.119 431.116L176.183 418.956C176.187 418.316 176.169 417.666 176.13 417.004C176.112 416.321 176.062 415.66 175.98 415.019L178.796 415.031L179.127 419.064L178.647 419.094C178.865 418.114 179.232 417.305 179.748 416.667C180.284 416.007 180.916 415.53 181.643 415.234C182.392 414.917 183.16 414.76 183.95 414.763C184.291 414.765 184.579 414.777 184.813 414.799C185.048 414.821 185.282 414.875 185.517 414.962L185.439 417.553C185.12 417.424 184.821 417.348 184.544 417.326C184.288 417.282 183.968 417.26 183.584 417.258C182.646 417.254 181.834 417.464 181.149 417.888C180.485 418.312 179.97 418.876 179.604 419.578C179.259 420.281 179.084 421.037 179.08 421.848L179.031 431.128L176.119 431.116ZM195.102 431.48C192.542 431.47 190.519 430.726 189.034 429.248C187.57 427.77 186.844 425.74 186.858 423.159C186.867 421.453 187.195 419.982 187.842 418.747C188.51 417.491 189.421 416.524 190.577 415.846C191.733 415.147 193.079 414.8 194.615 414.806C196.087 414.812 197.333 415.137 198.353 415.781C199.374 416.404 200.148 417.292 200.675 418.447C201.203 419.601 201.462 420.967 201.454 422.546L201.448 423.506L189.129 423.456L189.138 421.728L199.474 421.77L198.927 422.184C198.936 420.52 198.57 419.227 197.828 418.307C197.108 417.387 196.033 416.924 194.603 416.918C193.046 416.912 191.838 417.451 190.979 418.536C190.12 419.599 189.685 421.058 189.675 422.914L189.674 423.202C189.663 425.165 190.136 426.65 191.09 427.656C192.066 428.663 193.418 429.17 195.146 429.176C196.106 429.18 197.003 429.045 197.836 428.771C198.67 428.497 199.472 428.042 200.244 427.405L201.193 429.425C200.464 430.083 199.555 430.591 198.465 430.95C197.396 431.308 196.275 431.485 195.102 431.48ZM213.97 431.268L214.09 408.708L221.738 408.739C224.255 408.749 226.376 409.195 228.099 410.077C229.844 410.958 231.16 412.243 232.047 413.932C232.934 415.6 233.371 417.639 233.358 420.05C233.345 422.46 232.887 424.506 231.982 426.188C231.077 427.87 229.747 429.145 227.993 430.012C226.261 430.88 224.136 431.309 221.618 431.299L213.97 431.268ZM216.96 428.752L221.408 428.77C224.416 428.782 226.649 428.065 228.107 426.621C229.566 425.176 230.303 422.981 230.318 420.037C230.334 417.094 229.62 414.904 228.177 413.469C226.734 412.012 224.509 411.278 221.501 411.266L217.053 411.248L216.96 428.752ZM237.97 431.364L238.09 408.805L252.682 408.863L252.669 411.295L240.957 411.248L240.917 418.704L251.893 418.748L251.88 421.18L240.905 421.136L240.863 428.944L252.575 428.991L252.562 431.423L237.97 431.364ZM254.034 431.429L263.187 419.369L263.18 420.521L254.538 408.871L258.058 408.885L264.952 418.384L264.024 418.381L270.922 408.936L274.474 408.951L265.708 420.531L265.714 419.379L274.738 431.512L271.186 431.497L263.88 421.42L265 421.425L257.554 431.443L254.034 431.429ZM286.095 431.557L286.215 408.998L288.839 409.008L297.628 429.076L296.668 429.072L305.671 409.076L308.262 409.086L308.143 431.646L305.423 431.635L305.521 413.043L306.513 413.047L298.063 431.605L296.175 431.598L287.922 412.972L288.914 412.976L288.815 431.568L286.095 431.557ZM319.48 431.979C318.072 431.974 316.836 431.638 315.773 430.972C314.71 430.307 313.883 429.343 313.292 428.082C312.701 426.821 312.411 425.327 312.42 423.599C312.429 421.871 312.736 420.389 313.34 419.154C313.944 417.898 314.781 416.942 315.851 416.285C316.921 415.628 318.16 415.302 319.568 415.307C320.997 415.313 322.233 415.681 323.274 416.41C324.337 417.119 325.036 418.092 325.371 419.331L324.987 419.329L325.359 415.619L328.174 415.63C328.107 416.27 328.04 416.909 327.972 417.549C327.926 418.189 327.902 418.818 327.898 419.437L327.833 431.725L324.921 431.713L324.941 428.033L325.293 428.035C324.945 429.249 324.236 430.217 323.165 430.938C322.116 431.638 320.887 431.985 319.48 431.979ZM320.164 429.678C321.614 429.684 322.78 429.176 323.66 428.156C324.54 427.135 324.985 425.633 324.996 423.649C325.006 421.665 324.577 420.17 323.708 419.164C322.838 418.158 321.678 417.652 320.228 417.646C318.777 417.64 317.601 418.137 316.7 419.136C315.82 420.135 315.374 421.627 315.364 423.611C315.353 425.595 315.783 427.1 316.652 428.128C317.521 429.155 318.692 429.672 320.164 429.678ZM332.712 431.744L332.797 415.649L335.709 415.66L335.624 431.756L332.712 431.744ZM332.56 412.128L332.577 408.992L336.033 409.005L336.016 412.141L332.56 412.128ZM340.493 431.776L340.558 419.488C340.562 418.869 340.544 418.24 340.504 417.599C340.465 416.959 340.405 416.319 340.323 415.679L343.139 415.69L343.44 419.147L343.056 419.146C343.553 417.932 344.316 417.007 345.343 416.371C346.37 415.735 347.567 415.42 348.932 415.425C350.831 415.433 352.257 415.961 353.212 417.01C354.166 418.038 354.638 419.64 354.626 421.816L354.573 431.832L351.661 431.82L351.713 421.964C351.721 420.492 351.439 419.435 350.866 418.793C350.294 418.129 349.4 417.795 348.184 417.79C346.733 417.784 345.579 418.217 344.721 419.088C343.884 419.96 343.462 421.142 343.454 422.635L343.405 431.787L340.493 431.776ZM359.337 431.851L359.402 419.563C359.405 418.945 359.387 418.315 359.348 417.675C359.309 417.035 359.248 416.395 359.166 415.754L361.982 415.766L362.284 419.223L361.9 419.221C362.397 418.007 363.159 417.082 364.187 416.446C365.214 415.811 366.41 415.495 367.776 415.501C369.674 415.508 371.101 416.037 372.055 417.086C373.01 418.114 373.481 419.716 373.47 421.892L373.417 431.908L370.505 431.896L370.557 422.04C370.565 420.568 370.282 419.511 369.71 418.869C369.137 418.205 368.243 417.871 367.027 417.866C365.576 417.86 364.422 418.293 363.564 419.164C362.728 420.035 362.305 421.218 362.297 422.711L362.249 431.863L359.337 431.851ZM385.507 432.244C382.947 432.234 380.924 431.49 379.439 430.012C377.974 428.534 377.249 426.504 377.263 423.923C377.272 422.216 377.6 420.746 378.246 419.511C378.914 418.255 379.826 417.288 380.982 416.61C382.137 415.91 383.483 415.564 385.019 415.57C386.491 415.576 387.738 415.901 388.758 416.545C389.779 417.168 390.553 418.056 391.08 419.21C391.607 420.364 391.867 421.731 391.858 423.309L391.853 424.269L379.533 424.22L379.542 422.492L389.878 422.534L389.332 422.947C389.341 421.283 388.975 419.991 388.233 419.071C387.512 418.151 386.437 417.688 385.008 417.682C383.451 417.676 382.243 418.215 381.383 419.299C380.524 420.363 380.09 421.822 380.08 423.678L380.079 423.966C380.068 425.929 380.54 427.413 381.495 428.42C382.471 429.427 383.823 429.933 385.551 429.94C386.511 429.944 387.408 429.809 388.241 429.535C389.075 429.261 389.877 428.806 390.648 428.169L391.598 430.188C390.869 430.847 389.96 431.355 388.87 431.714C387.801 432.072 386.68 432.249 385.507 432.244ZM401.601 432.309C399.916 432.302 398.638 431.838 397.768 430.917C396.92 429.975 396.501 428.565 396.511 426.688L396.556 418.144L393.42 418.132L393.432 415.892L396.568 415.904L396.591 411.584L399.507 410.796L399.48 415.916L404.024 415.934L404.012 418.174L399.468 418.156L399.424 426.444C399.417 427.681 399.626 428.567 400.05 429.102C400.495 429.616 401.134 429.875 401.966 429.878C402.392 429.88 402.755 429.849 403.054 429.786C403.375 429.702 403.663 429.608 403.92 429.502L403.907 431.902C403.586 432.029 403.213 432.123 402.786 432.185C402.38 432.269 401.985 432.31 401.601 432.309ZM83.1583 467.896C82.113 467.891 81.1436 467.642 80.2502 467.148C79.3569 466.632 78.646 465.936 78.1173 465.059C77.5886 464.182 77.3271 463.211 77.3328 462.144C77.338 461.163 77.5882 460.236 78.0836 459.363C78.6002 458.491 79.2973 457.789 80.1748 457.259C81.0737 456.708 82.0885 456.435 83.2192 456.44C84.2645 456.444 85.2231 456.704 86.095 457.219C86.9671 457.713 87.6675 458.388 88.1963 459.244C88.7465 460.099 89.0186 461.082 89.0127 462.191C89.0071 463.236 88.7354 464.195 88.1974 465.068C87.6807 465.94 86.9731 466.631 86.0743 467.139C85.197 467.648 84.2249 467.9 83.1583 467.896ZM109.884 470.851L110.004 448.291L112.98 448.303L112.86 470.863L109.884 470.851ZM123.44 471.193C122.138 471.188 120.923 471.012 119.794 470.667C118.687 470.321 117.772 469.826 117.05 469.183L117.989 467.171C118.775 467.772 119.637 468.234 120.574 468.558C121.532 468.86 122.512 469.013 123.515 469.017C124.731 469.022 125.65 468.802 126.271 468.356C126.913 467.911 127.236 467.315 127.24 466.568C127.243 465.971 127.043 465.49 126.64 465.126C126.236 464.762 125.598 464.492 124.724 464.318L121.687 463.698C120.324 463.373 119.292 462.856 118.592 462.15C117.913 461.422 117.576 460.492 117.582 459.362C117.587 458.423 117.848 457.592 118.364 456.869C118.88 456.124 119.608 455.551 120.549 455.149C121.511 454.727 122.632 454.518 123.912 454.523C125.085 454.528 126.173 454.703 127.173 455.048C128.196 455.393 129.036 455.898 129.693 456.562L128.723 458.51C128.065 457.932 127.32 457.491 126.49 457.189C125.681 456.866 124.85 456.703 123.997 456.699C122.759 456.694 121.841 456.936 121.241 457.424C120.641 457.891 120.339 458.509 120.335 459.277C120.332 459.853 120.511 460.333 120.871 460.719C121.232 461.083 121.817 461.363 122.627 461.558L125.663 462.178C127.091 462.482 128.166 462.977 128.888 463.663C129.609 464.348 129.967 465.257 129.961 466.387C129.956 467.39 129.674 468.253 129.115 468.976C128.578 469.699 127.818 470.251 126.835 470.631C125.873 471.011 124.741 471.198 123.44 471.193ZM140.69 471.262C139.111 471.256 137.747 470.92 136.599 470.254C135.451 469.567 134.56 468.603 133.926 467.363C133.293 466.102 132.981 464.607 132.99 462.879C132.999 461.173 133.327 459.702 133.974 458.467C134.62 457.211 135.521 456.255 136.677 455.598C137.832 454.92 139.2 454.584 140.778 454.591C142.357 454.597 143.72 454.944 144.869 455.631C146.039 456.297 146.929 457.261 147.541 458.522C148.175 459.762 148.487 461.235 148.478 462.942C148.469 464.669 148.141 466.162 147.494 467.418C146.869 468.652 145.968 469.609 144.791 470.287C143.635 470.943 142.268 471.269 140.69 471.262ZM140.702 468.958C142.153 468.964 143.318 468.457 144.198 467.436C145.078 466.416 145.523 464.914 145.534 462.93C145.545 460.946 145.115 459.451 144.246 458.444C143.376 457.438 142.216 456.932 140.766 456.927C139.294 456.921 138.118 457.417 137.238 458.416C136.379 459.416 135.945 460.907 135.934 462.891C135.924 464.875 136.342 466.381 137.19 467.408C138.059 468.436 139.23 468.952 140.702 468.958ZM152.345 471.021L152.47 447.469L155.382 447.481L155.257 471.033L152.345 471.021ZM166.268 471.365C164.86 471.359 163.625 471.024 162.562 470.358C161.498 469.692 160.671 468.729 160.081 467.468C159.49 466.207 159.199 464.713 159.209 462.985C159.218 461.257 159.524 459.775 160.128 458.54C160.732 457.284 161.569 456.327 162.64 455.67C163.71 455.013 164.949 454.688 166.357 454.693C167.786 454.699 169.022 455.067 170.063 455.796C171.126 456.504 171.825 457.478 172.159 458.716L171.775 458.715L172.147 455.004L174.963 455.016C174.896 455.655 174.828 456.295 174.761 456.935C174.715 457.575 174.69 458.204 174.687 458.823L174.622 471.11L171.71 471.099L171.729 467.419L172.081 467.42C171.733 468.635 171.024 469.603 169.954 470.324C168.905 471.024 167.676 471.371 166.268 471.365ZM166.952 469.064C168.403 469.069 169.568 468.562 170.449 467.542C171.329 466.521 171.774 465.019 171.785 463.035C171.795 461.051 171.366 459.556 170.496 458.55C169.627 457.544 168.467 457.038 167.016 457.032C165.566 457.026 164.39 457.523 163.488 458.522C162.608 459.521 162.163 461.012 162.153 462.996C162.142 464.98 162.571 466.486 163.441 467.514C164.31 468.541 165.48 469.058 166.952 469.064ZM185.515 471.442C183.83 471.435 182.552 470.972 181.682 470.051C180.834 469.109 180.415 467.699 180.425 465.822L180.47 457.278L177.334 457.265L177.346 455.025L180.482 455.038L180.505 450.718L183.421 449.93L183.394 455.05L187.938 455.068L187.926 457.308L183.382 457.289L183.338 465.577C183.332 466.815 183.54 467.701 183.964 468.236C184.409 468.75 185.048 469.008 185.88 469.012C186.307 469.013 186.669 468.983 186.968 468.92C187.289 468.836 187.577 468.741 187.834 468.635L187.821 471.035C187.501 471.162 187.127 471.257 186.7 471.319C186.294 471.403 185.899 471.444 185.515 471.442ZM198.077 471.493C195.517 471.482 193.494 470.738 192.009 469.26C190.545 467.782 189.819 465.753 189.833 463.171C189.842 461.465 190.17 459.994 190.817 458.759C191.485 457.503 192.396 456.536 193.552 455.858C194.708 455.159 196.054 454.812 197.59 454.818C199.062 454.824 200.308 455.149 201.328 455.793C202.349 456.416 203.123 457.305 203.65 458.459C204.177 459.613 204.437 460.979 204.429 462.558L204.423 463.518L192.104 463.469L192.113 461.741L202.449 461.782L201.902 462.196C201.911 460.532 201.545 459.24 200.803 458.319C200.083 457.399 199.008 456.936 197.578 456.93C196.021 456.924 194.813 457.463 193.954 458.548C193.095 459.611 192.66 461.071 192.65 462.927L192.649 463.215C192.638 465.177 193.111 466.662 194.065 467.668C195.041 468.675 196.393 469.182 198.121 469.189C199.081 469.193 199.978 469.057 200.811 468.783C201.645 468.509 202.447 468.054 203.219 467.417L204.168 469.437C203.439 470.095 202.53 470.604 201.44 470.962C200.371 471.32 199.25 471.497 198.077 471.493ZM214.33 471.558C212.922 471.552 211.687 471.216 210.624 470.551C209.56 469.885 208.734 468.922 208.143 467.661C207.552 466.4 207.262 464.905 207.271 463.177C207.28 461.449 207.586 459.968 208.19 458.733C208.794 457.477 209.631 456.52 210.702 455.863C211.772 455.206 213.011 454.88 214.419 454.886C215.827 454.892 217.052 455.249 218.093 455.957C219.156 456.665 219.866 457.638 220.222 458.877L219.838 458.876L219.897 447.74L222.809 447.752L222.684 471.303L219.804 471.292L219.824 467.548L220.176 467.549C219.828 468.806 219.118 469.796 218.048 470.517C216.999 471.216 215.76 471.563 214.33 471.558ZM215.015 469.256C216.465 469.262 217.631 468.755 218.511 467.734C219.412 466.714 219.868 465.212 219.879 463.228C219.889 461.244 219.449 459.749 218.558 458.743C217.689 457.736 216.529 457.23 215.078 457.225C213.628 457.219 212.452 457.715 211.551 458.714C210.671 459.714 210.225 461.205 210.215 463.189C210.204 465.173 210.634 466.679 211.503 467.706C212.393 468.734 213.564 469.251 215.015 469.256ZM236.32 471.358L236.44 448.798L250.712 448.855L250.699 451.287L239.403 451.242L239.363 458.794L249.923 458.836L249.91 461.268L239.35 461.226L239.296 471.37L236.32 471.358ZM259.445 471.739C257.504 471.731 256.045 471.202 255.07 470.153C254.115 469.104 253.644 467.491 253.655 465.315L253.708 455.332L256.62 455.343L256.568 465.263C256.56 466.671 256.843 467.707 257.415 468.371C257.988 469.034 258.882 469.368 260.098 469.373C261.42 469.379 262.489 468.946 263.305 468.074C264.141 467.181 264.564 465.999 264.572 464.527L264.62 455.375L267.532 455.387L267.447 471.483L264.631 471.471L264.65 467.92L265.066 467.921C264.611 469.135 263.891 470.082 262.906 470.761C261.922 471.418 260.768 471.744 259.445 471.739ZM278.358 471.815C276.673 471.808 275.395 471.344 274.525 470.423C273.677 469.481 273.258 468.071 273.268 466.194L273.313 457.65L270.177 457.638L270.189 455.398L273.325 455.41L273.348 451.09L276.264 450.302L276.237 455.422L280.781 455.44L280.769 457.68L276.225 457.662L276.181 465.95C276.175 467.187 276.383 468.073 276.807 468.608C277.252 469.122 277.891 469.381 278.723 469.384C279.15 469.386 279.512 469.355 279.811 469.292C280.132 469.208 280.42 469.113 280.677 469.008L280.664 471.408C280.344 471.535 279.97 471.629 279.543 471.691C279.137 471.775 278.742 471.816 278.358 471.815ZM289.476 471.859C287.535 471.851 286.076 471.323 285.101 470.274C284.146 469.224 283.675 467.612 283.686 465.436L283.739 455.452L286.651 455.464L286.599 465.384C286.591 466.792 286.874 467.827 287.446 468.491C288.019 469.155 288.913 469.489 290.129 469.494C291.451 469.499 292.52 469.066 293.336 468.195C294.172 467.302 294.595 466.12 294.603 464.648L294.651 455.496L297.563 455.507L297.478 471.603L294.662 471.592L294.681 468.04L295.097 468.042C294.642 469.256 293.922 470.202 292.937 470.881C291.953 471.538 290.799 471.864 289.476 471.859ZM302.343 471.623L302.407 459.463C302.411 458.823 302.393 458.172 302.354 457.511C302.336 456.828 302.286 456.166 302.204 455.526L305.02 455.537L305.351 459.571L304.871 459.601C305.089 458.62 305.456 457.811 305.971 457.173C306.508 456.514 307.14 456.037 307.867 455.741C308.615 455.424 309.384 455.267 310.174 455.27C310.515 455.271 310.803 455.283 311.037 455.306C311.272 455.328 311.506 455.382 311.741 455.468L311.663 458.06C311.344 457.931 311.045 457.855 310.768 457.832C310.512 457.789 310.192 457.766 309.808 457.765C308.87 457.761 308.058 457.971 307.373 458.395C306.709 458.819 306.194 459.382 305.828 460.085C305.483 460.787 305.308 461.544 305.304 462.355L305.255 471.634L302.343 471.623ZM321.326 471.987C318.766 471.977 316.743 471.233 315.258 469.755C313.794 468.277 313.068 466.247 313.082 463.666C313.091 461.959 313.419 460.488 314.066 459.254C314.734 457.998 315.645 457.031 316.801 456.353C317.957 455.653 319.303 455.307 320.839 455.313C322.311 455.319 323.557 455.644 324.577 456.288C325.598 456.911 326.372 457.799 326.899 458.953C327.426 460.107 327.686 461.474 327.678 463.052L327.672 464.012L315.353 463.963L315.362 462.235L325.698 462.276L325.151 462.69C325.16 461.026 324.794 459.734 324.052 458.814C323.332 457.894 322.257 457.431 320.827 457.425C319.27 457.419 318.062 457.958 317.203 459.042C316.344 460.106 315.909 461.565 315.899 463.421L315.898 463.709C315.887 465.672 316.36 467.156 317.314 468.163C318.29 469.169 319.642 469.676 321.37 469.683C322.33 469.687 323.227 469.552 324.06 469.278C324.894 469.004 325.696 468.548 326.468 467.912L327.417 469.931C326.688 470.59 325.779 471.098 324.689 471.456C323.62 471.815 322.499 471.992 321.326 471.987ZM345.602 471.796L345.709 451.765L337.901 451.733L337.914 449.205L356.57 449.28L356.557 451.808L348.717 451.777L348.61 471.808L345.602 471.796ZM356.811 471.841L356.876 459.681C356.879 459.041 356.861 458.391 356.822 457.729C356.804 457.046 356.754 456.385 356.672 455.745L359.488 455.756L359.819 459.789L359.339 459.819C359.557 458.839 359.924 458.03 360.44 457.392C360.977 456.733 361.608 456.255 362.335 455.959C363.084 455.642 363.853 455.485 364.642 455.489C364.983 455.49 365.271 455.502 365.506 455.524C365.74 455.546 365.975 455.601 366.209 455.687L366.131 458.279C365.812 458.149 365.514 458.073 365.236 458.051C364.981 458.007 364.661 457.985 364.277 457.983C363.338 457.979 362.526 458.189 361.841 458.613C361.178 459.037 360.663 459.601 360.296 460.303C359.951 461.006 359.777 461.762 359.772 462.573L359.723 471.853L356.811 471.841ZM374.673 472.201C373.265 472.195 372.029 471.86 370.966 471.194C369.903 470.528 369.076 469.565 368.485 468.304C367.895 467.043 367.604 465.548 367.613 463.821C367.622 462.093 367.929 460.611 368.533 459.376C369.137 458.12 369.974 457.163 371.044 456.506C372.114 455.849 373.353 455.523 374.761 455.529C376.191 455.535 377.426 455.902 378.468 456.632C379.53 457.34 380.229 458.314 380.564 459.552L380.18 459.551L380.552 455.84L383.368 455.852C383.3 456.491 383.233 457.131 383.166 457.771C383.119 458.411 383.095 459.04 383.092 459.659L383.026 471.946L380.114 471.935L380.134 468.255L380.486 468.256C380.138 469.471 379.429 470.439 378.358 471.16C377.309 471.859 376.081 472.207 374.673 472.201ZM375.357 469.9C376.808 469.905 377.973 469.398 378.853 468.378C379.733 467.357 380.179 465.855 380.189 463.871C380.2 461.887 379.77 460.392 378.901 459.386C378.032 458.38 376.872 457.874 375.421 457.868C373.97 457.862 372.794 458.359 371.893 459.358C371.013 460.357 370.568 461.848 370.557 463.832C370.547 465.816 370.976 467.322 371.845 468.35C372.714 469.377 373.885 469.894 375.357 469.9ZM394.048 472.279C392.64 472.273 391.404 471.937 390.341 471.272C389.278 470.606 388.451 469.643 387.86 468.382C387.27 467.121 386.979 465.626 386.988 463.898C386.997 462.17 387.304 460.689 387.908 459.454C388.512 458.198 389.349 457.241 390.419 456.584C391.489 455.927 392.728 455.601 394.136 455.607C395.544 455.612 396.769 455.969 397.811 456.678C398.873 457.386 399.583 458.359 399.939 459.598L399.555 459.597L399.614 448.461L402.526 448.472L402.401 472.024L399.521 472.013L399.541 468.269L399.893 468.27C399.545 469.527 398.836 470.516 397.765 471.238C396.716 471.937 395.477 472.284 394.048 472.279ZM394.732 469.977C396.183 469.983 397.348 469.476 398.228 468.455C399.129 467.435 399.585 465.933 399.596 463.949C399.606 461.965 399.166 460.47 398.276 459.463C397.406 458.457 396.246 457.951 394.796 457.946C393.345 457.94 392.169 458.436 391.268 459.435C390.388 460.435 389.943 461.926 389.932 463.91C389.921 465.894 390.351 467.4 391.22 468.427C392.111 469.455 393.281 469.972 394.732 469.977ZM414.606 472.361C412.046 472.351 410.024 471.607 408.538 470.129C407.074 468.651 406.349 466.621 406.363 464.04C406.372 462.333 406.699 460.863 407.346 459.628C408.014 458.372 408.926 457.405 410.081 456.727C411.237 456.027 412.583 455.681 414.119 455.687C415.591 455.693 416.837 456.018 417.858 456.662C418.879 457.285 419.653 458.173 420.18 459.327C420.707 460.481 420.966 461.848 420.958 463.426L420.953 464.386L408.633 464.337L408.642 462.609L418.978 462.651L418.432 463.064C418.441 461.4 418.074 460.108 417.332 459.188C416.612 458.268 415.537 457.805 414.108 457.799C412.551 457.793 411.342 458.332 410.483 459.416C409.624 460.48 409.19 461.939 409.18 463.795L409.178 464.083C409.168 466.046 409.64 467.53 410.595 468.537C411.571 469.544 412.923 470.05 414.651 470.057C415.611 470.061 416.507 469.926 417.341 469.652C418.174 469.378 418.977 468.923 419.748 468.286L420.697 470.305C419.969 470.964 419.059 471.472 417.969 471.831C416.901 472.189 415.78 472.366 414.606 472.361ZM82.9458 507.895C81.9004 507.891 80.9311 507.642 80.0377 507.147C79.1444 506.632 78.4334 505.936 77.9048 505.059C77.3761 504.182 77.1146 503.21 77.1202 502.144C77.1255 501.162 77.3757 500.235 77.871 499.363C78.3877 498.49 79.0847 497.789 79.9622 497.259C80.8612 496.708 81.876 496.435 83.0066 496.439C84.0519 496.443 85.0106 496.703 85.8825 497.219C86.7546 497.713 87.455 498.388 87.9838 499.243C88.5339 500.099 88.806 501.081 88.8001 502.19C88.7946 503.236 88.5228 504.195 87.9848 505.067C87.4682 505.94 86.7605 506.63 85.8618 507.139C84.9844 507.647 84.0124 507.899 82.9458 507.895ZM119.622 511.178C117.36 511.169 115.421 510.692 113.805 509.747C112.21 508.802 110.991 507.463 110.146 505.732C109.302 503.979 108.887 501.919 108.899 499.551C108.912 497.183 109.349 495.137 110.212 493.412C111.074 491.688 112.308 490.359 113.913 489.427C115.539 488.495 117.483 488.033 119.744 488.042C121.366 488.049 122.804 488.3 124.061 488.796C125.317 489.27 126.412 489.968 127.345 490.889L126.245 493.285C125.225 492.384 124.216 491.74 123.215 491.352C122.236 490.943 121.096 490.736 119.794 490.731C117.298 490.721 115.385 491.481 114.054 493.012C112.723 494.542 112.05 496.726 112.035 499.564C112.02 502.401 112.67 504.601 113.984 506.163C115.299 507.705 117.204 508.48 119.7 508.49C121.001 508.496 122.143 508.308 123.127 507.928C124.132 507.527 125.148 506.88 126.177 505.988L127.253 508.361C126.309 509.274 125.196 509.974 123.913 510.459C122.652 510.945 121.222 511.185 119.622 511.178ZM131.225 510.937L131.29 498.777C131.293 498.137 131.275 497.486 131.236 496.825C131.219 496.142 131.169 495.48 131.087 494.84L133.903 494.851L134.233 498.885L133.753 498.915C133.972 497.934 134.339 497.125 134.854 496.487C135.391 495.828 136.023 495.35 136.75 495.055C137.498 494.738 138.267 494.581 139.056 494.584C139.398 494.585 139.685 494.597 139.92 494.619C140.155 494.642 140.389 494.696 140.623 494.782L140.545 497.374C140.226 497.245 139.928 497.169 139.651 497.146C139.395 497.103 139.075 497.08 138.691 497.078C137.752 497.075 136.941 497.285 136.256 497.709C135.592 498.133 135.077 498.696 134.711 499.399C134.366 500.101 134.191 500.858 134.187 501.668L134.137 510.948L131.225 510.937ZM149.665 511.299C148.086 511.292 146.722 510.956 145.574 510.29C144.425 509.603 143.535 508.639 142.901 507.399C142.268 506.138 141.956 504.644 141.965 502.916C141.974 501.209 142.302 499.738 142.948 498.504C143.595 497.248 144.496 496.291 145.652 495.634C146.807 494.956 148.174 494.621 149.753 494.627C151.332 494.633 152.695 494.98 153.844 495.667C155.013 496.333 155.904 497.297 156.516 498.558C157.15 499.798 157.462 501.271 157.453 502.978C157.444 504.706 157.116 506.198 156.469 507.454C155.844 508.689 154.943 509.645 153.766 510.323C152.61 510.98 151.243 511.305 149.665 511.299ZM149.677 508.995C151.127 509 152.293 508.493 153.173 507.473C154.053 506.452 154.498 504.95 154.509 502.966C154.519 500.982 154.09 499.487 153.221 498.481C152.351 497.475 151.191 496.969 149.741 496.963C148.269 496.957 147.093 497.454 146.213 498.453C145.354 499.452 144.92 500.944 144.909 502.927C144.898 504.911 145.317 506.417 146.165 507.445C147.034 508.472 148.205 508.989 149.677 508.995ZM166.758 511.367C165.457 511.362 164.242 511.186 163.113 510.841C162.005 510.495 161.09 510 160.369 509.358L161.307 507.345C162.093 507.946 162.955 508.408 163.892 508.732C164.85 509.034 165.831 509.187 166.833 509.191C168.049 509.196 168.968 508.976 169.589 508.531C170.231 508.085 170.555 507.489 170.559 506.742C170.562 506.145 170.362 505.664 169.958 505.3C169.555 504.936 168.916 504.666 168.042 504.492L165.006 503.872C163.642 503.547 162.61 503.03 161.91 502.324C161.231 501.596 160.895 500.666 160.901 499.536C160.906 498.597 161.166 497.766 161.682 497.043C162.198 496.298 162.926 495.725 163.867 495.323C164.829 494.901 165.951 494.692 167.23 494.697C168.404 494.702 169.491 494.877 170.492 495.222C171.514 495.567 172.354 496.072 173.012 496.736L172.041 498.684C171.383 498.106 170.639 497.665 169.808 497.363C168.999 497.04 168.168 496.877 167.315 496.873C166.078 496.868 165.159 497.11 164.559 497.598C163.959 498.065 163.657 498.683 163.653 499.451C163.65 500.027 163.829 500.507 164.19 500.893C164.55 501.257 165.135 501.537 165.945 501.732L168.982 502.352C170.41 502.656 171.484 503.151 172.206 503.837C172.928 504.523 173.286 505.431 173.28 506.561C173.274 507.564 172.992 508.427 172.434 509.15C171.897 509.873 171.136 510.425 170.153 510.805C169.191 511.185 168.059 511.372 166.758 511.367ZM182.664 511.431C181.363 511.426 180.148 511.25 179.019 510.904C177.911 510.559 176.997 510.064 176.275 509.421L177.213 507.409C177.999 508.01 178.861 508.472 179.798 508.795C180.756 509.098 181.737 509.251 182.74 509.255C183.956 509.26 184.874 509.04 185.495 508.594C186.138 508.149 186.461 507.553 186.465 506.806C186.468 506.209 186.268 505.728 185.864 505.364C185.461 504.999 184.822 504.73 183.949 504.556L180.912 503.936C179.548 503.61 178.516 503.094 177.816 502.387C177.137 501.659 176.801 500.73 176.807 499.599C176.812 498.661 177.072 497.83 177.588 497.107C178.104 496.362 178.832 495.789 179.773 495.387C180.736 494.964 181.857 494.756 183.137 494.761C184.31 494.765 185.397 494.94 186.398 495.286C187.42 495.631 188.26 496.136 188.918 496.8L187.947 498.748C187.289 498.169 186.545 497.729 185.714 497.427C184.906 497.104 184.074 496.941 183.221 496.937C181.984 496.932 181.065 497.174 180.465 497.662C179.865 498.129 179.563 498.746 179.559 499.514C179.556 500.09 179.735 500.571 180.096 500.957C180.456 501.321 181.042 501.6 181.851 501.796L184.888 502.416C186.316 502.72 187.39 503.215 188.112 503.901C188.834 504.586 189.192 505.494 189.186 506.625C189.18 507.628 188.898 508.491 188.34 509.214C187.803 509.937 187.042 510.489 186.059 510.869C185.097 511.249 183.965 511.436 182.664 511.431ZM201.889 511.22L202.009 488.66L216.281 488.718L216.268 491.15L204.972 491.104L204.932 498.656L215.492 498.699L215.479 501.131L204.919 501.088L204.865 511.232L201.889 511.22ZM225.014 511.601C223.073 511.593 221.614 511.065 220.639 510.015C219.684 508.966 219.213 507.354 219.224 505.178L219.277 495.194L222.189 495.205L222.137 505.125C222.129 506.533 222.412 507.569 222.984 508.233C223.557 508.896 224.451 509.231 225.667 509.235C226.989 509.241 228.058 508.808 228.874 507.936C229.71 507.044 230.133 505.861 230.141 504.389L230.189 495.238L233.101 495.249L233.016 511.345L230.2 511.334L230.219 507.782L230.635 507.783C230.18 508.998 229.46 509.944 228.475 510.623C227.491 511.28 226.337 511.606 225.014 511.601ZM243.927 511.677C242.242 511.67 240.964 511.206 240.094 510.285C239.246 509.343 238.827 507.934 238.837 506.056L238.882 497.512L235.746 497.5L235.758 495.26L238.894 495.272L238.917 490.952L241.833 490.164L241.806 495.284L246.35 495.302L246.338 497.542L241.794 497.524L241.75 505.812C241.744 507.049 241.952 507.935 242.376 508.47C242.821 508.984 243.46 509.243 244.292 509.246C244.719 509.248 245.081 509.217 245.38 509.155C245.701 509.07 245.989 508.976 246.246 508.87L246.233 511.27C245.913 511.397 245.539 511.491 245.112 511.553C244.706 511.637 244.311 511.678 243.927 511.677ZM255.045 511.721C253.104 511.714 251.645 511.185 250.67 510.136C249.715 509.087 249.244 507.474 249.255 505.298L249.308 495.314L252.22 495.326L252.168 505.246C252.16 506.654 252.443 507.69 253.015 508.353C253.588 509.017 254.482 509.351 255.698 509.356C257.02 509.361 258.089 508.928 258.905 508.057C259.741 507.164 260.164 505.982 260.172 504.51L260.22 495.358L263.132 495.37L263.047 511.465L260.231 511.454L260.25 507.902L260.666 507.904C260.211 509.118 259.491 510.064 258.506 510.743C257.522 511.401 256.368 511.727 255.045 511.721ZM267.912 511.485L267.976 499.325C267.98 498.685 267.962 498.034 267.923 497.373C267.905 496.69 267.855 496.029 267.773 495.388L270.589 495.4L270.92 499.433L270.44 499.463C270.658 498.483 271.025 497.673 271.54 497.035C272.077 496.376 272.709 495.899 273.436 495.603C274.184 495.286 274.953 495.129 275.743 495.132C276.084 495.134 276.372 495.145 276.606 495.168C276.841 495.19 277.075 495.244 277.31 495.331L277.232 497.922C276.913 497.793 276.614 497.717 276.337 497.695C276.081 497.651 275.761 497.628 275.377 497.627C274.439 497.623 273.627 497.833 272.942 498.257C272.278 498.681 271.763 499.244 271.397 499.947C271.052 500.649 270.877 501.406 270.873 502.217L270.824 511.497L267.912 511.485ZM286.895 511.849C284.335 511.839 282.312 511.095 280.827 509.617C279.363 508.139 278.637 506.109 278.651 503.528C278.66 501.821 278.988 500.351 279.635 499.116C280.303 497.86 281.214 496.893 282.37 496.215C283.526 495.515 284.872 495.169 286.408 495.175C287.88 495.181 289.126 495.506 290.146 496.15C291.167 496.773 291.941 497.661 292.468 498.815C292.995 499.969 293.255 501.336 293.247 502.914L293.241 503.874L280.922 503.825L280.931 502.097L291.267 502.139L290.72 502.552C290.729 500.888 290.363 499.596 289.621 498.676C288.901 497.756 287.826 497.293 286.396 497.287C284.839 497.281 283.631 497.82 282.772 498.904C281.913 499.968 281.478 501.427 281.468 503.283L281.467 503.571C281.456 505.534 281.929 507.018 282.883 508.025C283.859 509.032 285.211 509.538 286.939 509.545C287.899 509.549 288.796 509.414 289.629 509.14C290.463 508.866 291.265 508.411 292.037 507.774L292.986 509.794C292.257 510.452 291.348 510.96 290.258 511.319C289.189 511.677 288.068 511.854 286.895 511.849ZM311.171 511.658L311.278 491.627L303.47 491.595L303.483 489.067L322.139 489.142L322.126 491.67L314.286 491.639L314.179 511.671L311.171 511.658ZM322.38 511.703L322.445 499.544C322.448 498.904 322.43 498.253 322.391 497.591C322.373 496.909 322.323 496.247 322.241 495.607L325.057 495.618L325.388 499.651L324.908 499.681C325.126 498.701 325.493 497.892 326.009 497.254C326.546 496.595 327.177 496.117 327.904 495.821C328.653 495.504 329.422 495.348 330.211 495.351C330.552 495.352 330.84 495.364 331.075 495.386C331.309 495.408 331.544 495.463 331.778 495.549L331.7 498.141C331.381 498.011 331.083 497.936 330.805 497.913C330.55 497.869 330.23 497.847 329.846 497.845C328.907 497.842 328.095 498.052 327.41 498.476C326.747 498.9 326.232 499.463 325.865 500.165C325.52 500.868 325.346 501.625 325.341 502.435L325.292 511.715L322.38 511.703ZM340.242 512.063C338.834 512.057 337.598 511.722 336.535 511.056C335.472 510.391 334.645 509.427 334.054 508.166C333.464 506.905 333.173 505.411 333.182 503.683C333.191 501.955 333.498 500.473 334.102 499.238C334.706 497.982 335.543 497.025 336.613 496.368C337.683 495.711 338.922 495.386 340.33 495.391C341.76 495.397 342.995 495.765 344.037 496.494C345.099 497.202 345.798 498.176 346.133 499.415L345.749 499.413L346.121 495.703L348.937 495.714C348.869 496.354 348.802 496.993 348.735 497.633C348.688 498.273 348.664 498.902 348.661 499.521L348.595 511.809L345.683 511.797L345.703 508.117L346.055 508.118C345.707 509.333 344.998 510.301 343.927 511.022C342.878 511.722 341.65 512.069 340.242 512.063ZM340.926 509.762C342.377 509.768 343.542 509.26 344.422 508.24C345.302 507.219 345.748 505.717 345.758 503.733C345.769 501.749 345.339 500.254 344.47 499.248C343.601 498.242 342.441 497.736 340.99 497.73C339.539 497.724 338.363 498.221 337.462 499.22C336.582 500.219 336.137 501.711 336.126 503.695C336.116 505.678 336.545 507.184 337.414 508.212C338.283 509.239 339.454 509.756 340.926 509.762ZM359.617 512.141C358.209 512.135 356.973 511.8 355.91 511.134C354.847 510.468 354.02 509.505 353.429 508.244C352.839 506.983 352.548 505.488 352.557 503.76C352.566 502.032 352.873 500.551 353.477 499.316C354.081 498.06 354.918 497.103 355.988 496.446C357.058 495.789 358.297 495.463 359.705 495.469C361.113 495.475 362.338 495.832 363.38 496.54C364.442 497.248 365.152 498.222 365.508 499.46L365.124 499.459L365.183 488.323L368.095 488.335L367.97 511.886L365.09 511.875L365.11 508.131L365.462 508.132C365.114 509.389 364.405 510.379 363.334 511.1C362.285 511.799 361.046 512.147 359.617 512.141ZM360.301 509.84C361.752 509.845 362.917 509.338 363.797 508.318C364.698 507.297 365.154 505.795 365.165 503.811C365.175 501.827 364.735 500.332 363.845 499.326C362.975 498.319 361.815 497.814 360.365 497.808C358.914 497.802 357.738 498.298 356.837 499.298C355.957 500.297 355.512 501.788 355.501 503.772C355.49 505.756 355.92 507.262 356.789 508.289C357.68 509.317 358.85 509.834 360.301 509.84ZM380.175 512.223C377.615 512.213 375.593 511.469 374.107 509.991C372.643 508.513 371.918 506.483 371.932 503.902C371.941 502.195 372.268 500.725 372.915 499.49C373.583 498.234 374.495 497.267 375.65 496.589C376.806 495.89 378.152 495.543 379.688 495.549C381.16 495.555 382.406 495.88 383.427 496.524C384.448 497.147 385.222 498.035 385.749 499.19C386.276 500.344 386.535 501.71 386.527 503.289L386.522 504.249L374.202 504.199L374.211 502.471L384.547 502.513L384.001 502.927C384.01 501.263 383.643 499.97 382.901 499.05C382.181 498.13 381.106 497.667 379.677 497.661C378.119 497.655 376.911 498.194 376.052 499.279C375.193 500.342 374.759 501.801 374.749 503.657L374.747 503.945C374.737 505.908 375.209 507.393 376.164 508.399C377.14 509.406 378.492 509.912 380.22 509.919C381.18 509.923 382.076 509.788 382.91 509.514C383.743 509.24 384.546 508.785 385.317 508.148L386.266 510.168C385.538 510.826 384.628 511.334 383.538 511.693C382.47 512.051 381.349 512.228 380.175 512.223ZM82.7332 547.894C81.6879 547.89 80.7185 547.641 79.8252 547.147C78.9319 546.631 78.2209 545.935 77.6922 545.058C77.1635 544.181 76.902 543.21 76.9077 542.143C76.9129 541.162 77.1632 540.235 77.6585 539.362C78.1751 538.489 78.8722 537.788 79.7497 537.258C80.6486 536.707 81.6634 536.434 82.7941 536.439C83.8394 536.443 84.7981 536.703 85.67 537.218C86.542 537.712 87.2425 538.387 87.7713 539.243C88.3214 540.098 88.5935 541.081 88.5876 542.19C88.5821 543.235 88.3103 544.194 87.7723 545.067C87.2557 545.939 86.548 546.63 85.6493 547.138C84.7719 547.647 83.7999 547.899 82.7332 547.894ZM108.687 539.55C108.699 537.182 109.126 535.136 109.967 533.412C110.808 531.687 112.01 530.358 113.573 529.426C115.156 528.494 117.036 528.032 119.212 528.041C121.367 528.049 123.22 528.526 124.772 529.471C126.346 530.416 127.555 531.754 128.399 533.485C129.243 535.217 129.659 537.256 129.647 539.603C129.634 541.97 129.196 544.027 128.334 545.773C127.471 547.498 126.248 548.837 124.664 549.791C123.102 550.723 121.244 551.185 119.089 551.176C116.913 551.168 115.049 550.691 113.497 549.746C111.944 548.78 110.746 547.431 109.902 545.699C109.079 543.947 108.674 541.897 108.687 539.55ZM111.823 539.563C111.808 542.379 112.415 544.579 113.644 546.162C114.873 547.746 116.692 548.543 119.103 548.552C121.428 548.562 123.235 547.79 124.523 546.238C125.833 544.665 126.495 542.459 126.511 539.622C126.526 536.785 125.897 534.585 124.626 533.022C123.354 531.46 121.545 530.674 119.198 530.665C116.787 530.655 114.959 531.426 113.714 532.979C112.468 534.531 111.838 536.726 111.823 539.563ZM133.945 557.86L134.047 538.66C134.051 538.042 134.033 537.412 133.994 536.772C133.954 536.132 133.894 535.492 133.812 534.851L136.628 534.862L136.96 538.576L136.608 538.574C136.935 537.338 137.622 536.37 138.671 535.671C139.721 534.95 140.971 534.592 142.421 534.598C143.85 534.603 145.097 534.939 146.16 535.605C147.223 536.27 148.039 537.234 148.609 538.495C149.199 539.734 149.49 541.218 149.481 542.946C149.472 544.674 149.165 546.166 148.561 547.422C147.978 548.679 147.152 549.635 146.082 550.293C145.012 550.95 143.762 551.275 142.333 551.269C140.903 551.264 139.668 550.907 138.626 550.199C137.606 549.469 136.918 548.496 136.562 547.278L136.914 547.28L136.857 557.872L133.945 557.86ZM141.673 548.963C143.145 548.969 144.321 548.461 145.201 547.441C146.081 546.42 146.526 544.918 146.537 542.934C146.547 540.95 146.118 539.455 145.249 538.449C144.379 537.443 143.209 536.937 141.737 536.931C140.265 536.925 139.089 537.422 138.209 538.421C137.35 539.42 136.916 540.912 136.905 542.896C136.894 544.88 137.313 546.385 138.161 547.413C139.03 548.44 140.201 548.957 141.673 548.963ZM159.215 551.337C157.53 551.33 156.252 550.867 155.383 549.946C154.534 549.004 154.115 547.594 154.125 545.717L154.17 537.173L151.034 537.16L151.046 534.92L154.182 534.933L154.205 530.613L157.121 529.825L157.094 534.945L161.638 534.963L161.626 537.203L157.082 537.185L157.038 545.472C157.032 546.71 157.24 547.596 157.664 548.131C158.109 548.645 158.748 548.903 159.58 548.907C160.007 548.908 160.37 548.878 160.669 548.815C160.989 548.731 161.278 548.636 161.534 548.53L161.521 550.93C161.201 551.057 160.827 551.152 160.4 551.214C159.994 551.298 159.599 551.339 159.215 551.337ZM164.607 551.071L164.692 534.975L167.604 534.987L167.519 551.083L164.607 551.071ZM164.455 531.454L164.472 528.318L167.928 528.332L167.911 531.468L164.455 531.454ZM179.171 551.417C177.592 551.411 176.228 551.075 175.08 550.409C173.931 549.722 173.041 548.758 172.407 547.518C171.774 546.257 171.462 544.762 171.471 543.034C171.48 541.328 171.808 539.857 172.454 538.622C173.101 537.366 174.002 536.41 175.158 535.753C176.313 535.075 177.68 534.739 179.259 534.745C180.838 534.752 182.201 535.099 183.35 535.786C184.519 536.452 185.41 537.416 186.022 538.677C186.656 539.917 186.968 541.39 186.959 543.096C186.95 544.824 186.622 546.316 185.975 547.573C185.35 548.807 184.449 549.764 183.272 550.442C182.116 551.098 180.749 551.424 179.171 551.417ZM179.183 549.113C180.633 549.119 181.799 548.612 182.679 547.591C183.559 546.571 184.004 545.069 184.015 543.085C184.025 541.101 183.596 539.606 182.727 538.599C181.857 537.593 180.697 537.087 179.247 537.081C177.775 537.076 176.599 537.572 175.719 538.571C174.86 539.571 174.425 541.062 174.415 543.046C174.404 545.03 174.823 546.536 175.671 547.563C176.54 548.591 177.711 549.107 179.183 549.113ZM190.825 551.176L190.891 538.888C190.894 538.27 190.876 537.64 190.837 537C190.798 536.36 190.737 535.72 190.655 535.079L193.471 535.091L193.773 538.548L193.389 538.546C193.886 537.332 194.648 536.407 195.675 535.771C196.703 535.135 197.899 534.82 199.264 534.826C201.163 534.833 202.59 535.362 203.544 536.411C204.499 537.439 204.97 539.041 204.959 541.217L204.905 551.232L201.993 551.221L202.046 541.365C202.054 539.893 201.771 538.836 201.199 538.194C200.626 537.53 199.732 537.196 198.516 537.191C197.065 537.185 195.911 537.618 195.053 538.489C194.216 539.36 193.794 540.543 193.786 542.036L193.737 551.188L190.825 551.176ZM215.107 551.561C213.806 551.556 212.591 551.381 211.462 551.035C210.355 550.689 209.44 550.195 208.718 549.552L209.657 547.54C210.443 548.14 211.305 548.602 212.241 548.926C213.2 549.228 214.18 549.382 215.183 549.386C216.399 549.391 217.318 549.17 217.939 548.725C218.581 548.279 218.904 547.683 218.908 546.937C218.911 546.339 218.711 545.858 218.308 545.494C217.904 545.13 217.266 544.861 216.392 544.687L213.355 544.066C211.992 543.741 210.96 543.225 210.259 542.518C209.581 541.79 209.244 540.86 209.25 539.73C209.255 538.791 209.516 537.96 210.032 537.237C210.548 536.492 211.276 535.919 212.217 535.518C213.179 535.095 214.3 534.886 215.58 534.891C216.753 534.896 217.84 535.071 218.841 535.416C219.864 535.762 220.704 536.266 221.361 536.93L220.391 538.879C219.733 538.3 218.988 537.86 218.158 537.558C217.349 537.234 216.518 537.071 215.665 537.068C214.427 537.063 213.509 537.304 212.909 537.792C212.309 538.259 212.007 538.877 212.003 539.645C212 540.221 212.178 540.702 212.539 541.087C212.9 541.451 213.485 541.731 214.295 541.926L217.331 542.546C218.759 542.851 219.834 543.346 220.556 544.031C221.277 544.717 221.635 545.625 221.629 546.756C221.624 547.758 221.342 548.621 220.783 549.344C220.246 550.067 219.486 550.619 218.503 550.999C217.54 551.379 216.409 551.567 215.107 551.561ZM234.333 551.351L234.452 528.791L242.1 528.822C244.618 528.832 246.738 529.277 248.461 530.159C250.206 531.041 251.522 532.326 252.409 534.015C253.296 535.682 253.733 537.722 253.72 540.132C253.708 542.543 253.249 544.589 252.344 546.271C251.439 547.952 250.109 549.227 248.355 550.095C246.623 550.962 244.498 551.391 241.981 551.381L234.333 551.351ZM237.322 548.835L241.77 548.852C244.778 548.864 247.011 548.148 248.47 546.703C249.928 545.258 250.665 543.064 250.681 540.12C250.696 537.176 249.982 534.987 248.539 533.551C247.096 532.095 244.871 531.361 241.863 531.349L237.415 531.331L237.322 548.835ZM258.332 551.447L258.452 528.887L273.044 528.946L273.031 531.378L261.319 531.331L261.28 538.787L272.256 538.831L272.243 541.263L261.267 541.218L261.225 549.026L272.937 549.073L272.924 551.505L258.332 551.447ZM274.397 551.511L283.549 539.452L283.543 540.604L274.9 528.953L278.42 528.967L285.314 538.467L284.386 538.463L291.284 529.019L294.836 529.033L286.071 540.614L286.077 539.462L295.1 551.594L291.548 551.58L284.242 541.503L285.362 541.507L277.917 551.525L274.397 551.511ZM306.457 551.64L306.577 529.08L309.201 529.091L317.99 549.158L317.03 549.154L326.033 529.158L328.625 529.169L328.505 551.728L325.785 551.717L325.884 533.126L326.876 533.13L318.425 551.688L316.537 551.68L308.284 533.055L309.276 533.059L309.177 551.651L306.457 551.64ZM339.842 552.062C338.434 552.056 337.198 551.72 336.135 551.055C335.072 550.389 334.245 549.426 333.654 548.165C333.064 546.904 332.773 545.409 332.782 543.681C332.791 541.953 333.098 540.472 333.702 539.237C334.306 537.981 335.143 537.024 336.213 536.367C337.283 535.71 338.522 535.384 339.93 535.39C341.36 535.396 342.595 535.763 343.637 536.493C344.699 537.201 345.398 538.175 345.733 539.413L345.349 539.412L345.721 535.701L348.537 535.713C348.469 536.352 348.402 536.992 348.335 537.632C348.288 538.272 348.264 538.901 348.26 539.519L348.195 551.807L345.283 551.796L345.303 548.116L345.655 548.117C345.307 549.332 344.598 550.299 343.527 551.021C342.478 551.72 341.25 552.067 339.842 552.062ZM340.526 549.76C341.977 549.766 343.142 549.259 344.022 548.238C344.902 547.218 345.348 545.716 345.358 543.732C345.369 541.748 344.939 540.253 344.07 539.247C343.201 538.24 342.041 537.734 340.59 537.729C339.139 537.723 337.963 538.219 337.062 539.219C336.182 540.218 335.737 541.709 335.726 543.693C335.716 545.677 336.145 547.183 337.014 548.21C337.883 549.238 339.054 549.755 340.526 549.76ZM353.074 551.827L353.16 535.731L356.072 535.743L355.986 551.839L353.074 551.827ZM352.922 532.21L352.939 529.074L356.395 529.088L356.378 532.224L352.922 532.21ZM360.855 551.858L360.921 539.57C360.924 538.952 360.906 538.322 360.867 537.682C360.827 537.042 360.767 536.402 360.685 535.761L363.501 535.773L363.802 539.23L363.418 539.228C363.916 538.014 364.678 537.089 365.705 536.453C366.733 535.818 367.929 535.502 369.294 535.508C371.193 535.515 372.62 536.044 373.574 537.093C374.529 538.121 375 539.723 374.988 541.899L374.935 551.915L372.023 551.903L372.076 542.047C372.083 540.575 371.801 539.518 371.228 538.876C370.656 538.212 369.762 537.878 368.546 537.873C367.095 537.867 365.941 538.3 365.083 539.171C364.246 540.042 363.824 541.225 363.816 542.718L363.767 551.87L360.855 551.858ZM379.699 551.934L379.764 539.646C379.768 539.027 379.75 538.398 379.71 537.758C379.671 537.117 379.61 536.477 379.528 535.837L382.344 535.848L382.646 539.305L382.262 539.304C382.759 538.09 383.521 537.165 384.549 536.529C385.576 535.893 386.773 535.578 388.138 535.583C390.037 535.591 391.463 536.119 392.418 537.169C393.372 538.196 393.844 539.798 393.832 541.974L393.779 551.99L390.867 551.978L390.919 542.123C390.927 540.651 390.645 539.593 390.072 538.951C389.5 538.288 388.605 537.953 387.389 537.948C385.939 537.943 384.784 538.375 383.926 539.246C383.09 540.118 382.667 541.3 382.66 542.793L382.611 551.945L379.699 551.934ZM405.869 552.327C403.309 552.316 401.286 551.572 399.801 550.094C398.337 548.616 397.611 546.587 397.625 544.005C397.634 542.299 397.962 540.828 398.609 539.593C399.277 538.337 400.188 537.37 401.344 536.692C402.5 535.993 403.846 535.646 405.382 535.653C406.854 535.658 408.1 535.983 409.12 536.628C410.141 537.25 410.915 538.139 411.442 539.293C411.969 540.447 412.229 541.813 412.221 543.392L412.215 544.352L399.896 544.303L399.905 542.575L410.241 542.616L409.694 543.03C409.703 541.366 409.337 540.074 408.595 539.153C407.875 538.233 406.8 537.77 405.37 537.765C403.813 537.758 402.605 538.297 401.746 539.382C400.887 540.445 400.452 541.905 400.442 543.761L400.441 544.049C400.43 546.011 400.903 547.496 401.857 548.502C402.833 549.509 404.185 550.016 405.913 550.023C406.873 550.027 407.77 549.892 408.603 549.618C409.437 549.344 410.239 548.888 411.011 548.251L411.96 550.271C411.231 550.929 410.322 551.438 409.232 551.796C408.163 552.154 407.042 552.331 405.869 552.327ZM421.963 552.391C420.278 552.384 419 551.921 418.13 551C417.282 550.058 416.863 548.648 416.873 546.771L416.918 538.227L413.782 538.214L413.794 535.974L416.93 535.987L416.953 531.667L419.869 530.879L419.842 535.999L424.386 536.017L424.374 538.257L419.83 538.239L419.786 546.526C419.78 547.764 419.988 548.65 420.412 549.185C420.857 549.699 421.496 549.957 422.328 549.961C422.755 549.962 423.118 549.932 423.417 549.869C423.737 549.785 424.025 549.69 424.282 549.584L424.269 551.984C423.949 552.111 423.575 552.206 423.148 552.268C422.742 552.352 422.347 552.393 421.963 552.391ZM82.5207 587.894C81.4754 587.89 80.506 587.64 79.6126 587.146C78.7194 586.631 78.0084 585.934 77.4797 585.058C76.951 584.181 76.6895 583.209 76.6952 582.142C76.7004 581.161 76.9507 580.234 77.446 579.361C77.9626 578.489 78.6597 577.788 79.5372 577.258C80.4361 576.707 81.4509 576.433 82.5816 576.438C83.6269 576.442 84.5855 576.702 85.4575 577.218C86.3295 577.712 87.0299 578.387 87.5587 579.242C88.1089 580.098 88.381 581.08 88.3751 582.189C88.3695 583.235 88.0978 584.194 87.5598 585.066C87.0431 585.939 86.3355 586.629 85.4368 587.138C84.5594 587.646 83.5874 587.898 82.5207 587.894ZM114.782 590.871L114.838 580.311L115.468 582.266L106.134 568.276L109.59 568.29L116.763 579.327L116.027 579.324L123.318 568.345L126.678 568.359L117.196 582.273L117.814 580.323L117.758 590.883L114.782 590.871ZM133.284 591.233C130.724 591.223 128.701 590.479 127.215 589.001C125.751 587.523 125.026 585.494 125.04 582.912C125.049 581.206 125.377 579.735 126.023 578.5C126.691 577.244 127.603 576.277 128.759 575.599C129.914 574.9 131.26 574.553 132.796 574.559C134.268 574.565 135.514 574.89 136.535 575.534C137.556 576.157 138.33 577.046 138.857 578.2C139.384 579.354 139.644 580.72 139.635 582.299L139.63 583.259L127.31 583.209L127.319 581.481L137.655 581.523L137.109 581.937C137.118 580.273 136.751 578.981 136.01 578.06C135.289 577.14 134.214 576.677 132.785 576.671C131.228 576.665 130.019 577.204 129.16 578.289C128.301 579.352 127.867 580.812 127.857 582.668L127.856 582.956C127.845 584.918 128.317 586.403 129.272 587.409C130.248 588.416 131.6 588.923 133.328 588.93C134.288 588.933 135.185 588.798 136.018 588.524C136.852 588.25 137.654 587.795 138.425 587.158L139.375 589.178C138.646 589.836 137.736 590.345 136.646 590.703C135.578 591.061 134.457 591.238 133.284 591.233ZM143.395 590.986L143.52 567.434L146.432 567.446L146.307 590.998L143.395 590.986ZM151.176 591.017L151.301 567.466L154.213 567.477L154.088 591.029L151.176 591.017ZM165.739 591.364C164.161 591.357 162.797 591.021 161.649 590.355C160.5 589.668 159.609 588.704 158.976 587.465C158.343 586.203 158.031 584.709 158.04 582.981C158.049 581.274 158.377 579.803 159.023 578.569C159.67 577.313 160.571 576.356 161.727 575.699C162.882 575.021 164.249 574.686 165.828 574.692C167.407 574.698 168.77 575.045 169.918 575.732C171.088 576.398 171.979 577.362 172.591 578.623C173.225 579.863 173.537 581.336 173.528 583.043C173.518 584.771 173.191 586.263 172.544 587.519C171.919 588.754 171.018 589.71 169.841 590.388C168.685 591.045 167.318 591.37 165.739 591.364ZM165.752 589.06C167.202 589.066 168.368 588.558 169.248 587.538C170.128 586.517 170.573 585.015 170.584 583.031C170.594 581.047 170.165 579.552 169.296 578.546C168.426 577.54 167.266 577.034 165.816 577.028C164.344 577.022 163.168 577.519 162.288 578.518C161.429 579.517 160.994 581.009 160.984 582.993C160.973 584.977 161.392 586.482 162.24 587.51C163.109 588.537 164.28 589.054 165.752 589.06ZM181.496 591.139L175.566 575.019L178.606 575.031L183.396 588.842L182.565 588.839L187.63 575.067L189.998 575.077L194.884 588.889L194.084 588.885L199.054 575.113L201.966 575.125L195.832 591.196L193.08 591.185L188.035 577.149L189.443 577.155L184.28 591.15L181.496 591.139ZM205.014 598.145L205.116 578.946C205.119 578.327 205.101 577.697 205.062 577.057C205.022 576.417 204.962 575.777 204.88 575.137L207.696 575.148L208.028 578.861L207.676 578.86C208.003 577.624 208.69 576.656 209.74 575.956C210.789 575.235 212.039 574.877 213.489 574.883C214.919 574.889 216.165 575.224 217.228 575.89C218.291 576.556 219.107 577.519 219.677 578.78C220.267 580.02 220.558 581.503 220.549 583.231C220.54 584.959 220.233 586.452 219.629 587.708C219.047 588.964 218.22 589.921 217.15 590.578C216.08 591.235 214.83 591.561 213.401 591.555C211.971 591.549 210.736 591.192 209.694 590.484C208.674 589.755 207.986 588.781 207.63 587.564L207.982 587.565L207.926 598.157L205.014 598.145ZM212.741 589.248C214.213 589.254 215.389 588.747 216.269 587.726C217.149 586.706 217.595 585.204 217.605 583.22C217.616 581.236 217.186 579.741 216.317 578.734C215.448 577.728 214.277 577.222 212.805 577.216C211.333 577.21 210.157 577.707 209.277 578.706C208.418 579.705 207.984 581.197 207.973 583.181C207.963 585.165 208.381 586.671 209.229 587.698C210.098 588.726 211.269 589.242 212.741 589.248ZM230.568 591.624C229.16 591.618 227.924 591.282 226.861 590.617C225.798 589.951 224.971 588.988 224.38 587.727C223.79 586.466 223.499 584.971 223.508 583.243C223.517 581.515 223.824 580.034 224.428 578.799C225.032 577.543 225.869 576.586 226.939 575.929C228.009 575.272 229.248 574.946 230.656 574.952C232.085 574.958 233.321 575.325 234.362 576.055C235.425 576.763 236.124 577.737 236.459 578.975L236.075 578.974L236.447 575.263L239.263 575.274C239.195 575.914 239.128 576.554 239.06 577.194C239.014 577.833 238.99 578.463 238.986 579.081L238.921 591.369L236.009 591.358L236.029 587.678L236.381 587.679C236.033 588.894 235.324 589.861 234.253 590.582C233.204 591.282 231.976 591.629 230.568 591.624ZM231.252 589.322C232.702 589.328 233.868 588.821 234.748 587.8C235.628 586.78 236.073 585.278 236.084 583.294C236.094 581.31 235.665 579.815 234.796 578.809C233.926 577.802 232.766 577.296 231.316 577.291C229.865 577.285 228.689 577.781 227.788 578.78C226.908 579.78 226.463 581.271 226.452 583.255C226.441 585.239 226.871 586.745 227.74 587.772C228.609 588.8 229.78 589.317 231.252 589.322ZM243.763 598.301L243.865 579.101C243.869 578.482 243.851 577.853 243.811 577.213C243.772 576.573 243.711 575.932 243.63 575.292L246.446 575.303L246.778 579.017L246.426 579.015C246.752 577.779 247.44 576.811 248.489 576.111C249.538 575.39 250.788 575.033 252.239 575.039C253.668 575.044 254.915 575.38 255.978 576.046C257.041 576.711 257.857 577.674 258.426 578.935C259.017 580.175 259.308 581.659 259.299 583.387C259.29 585.115 258.983 586.607 258.379 587.863C257.796 589.12 256.97 590.076 255.9 590.733C254.829 591.39 253.58 591.716 252.15 591.71C250.721 591.705 249.486 591.348 248.444 590.639C247.424 589.91 246.736 588.937 246.38 587.719L246.732 587.721L246.675 598.312L243.763 598.301ZM251.491 589.404C252.963 589.41 254.139 588.902 255.019 587.882C255.899 586.861 256.344 585.359 256.355 583.375C256.365 581.391 255.936 579.896 255.067 578.89C254.197 577.884 253.027 577.378 251.555 577.372C250.083 577.366 248.907 577.863 248.027 578.862C247.168 579.861 246.733 581.352 246.723 583.336C246.712 585.32 247.131 586.826 247.979 587.854C248.848 588.881 250.019 589.398 251.491 589.404ZM270.501 591.784C267.941 591.774 265.919 591.03 264.433 589.552C262.969 588.074 262.244 586.044 262.257 583.463C262.266 581.756 262.594 580.285 263.241 579.051C263.909 577.795 264.821 576.828 265.976 576.15C267.132 575.45 268.478 575.104 270.014 575.11C271.486 575.116 272.732 575.441 273.753 576.085C274.773 576.708 275.547 577.596 276.075 578.75C276.602 579.904 276.861 581.271 276.853 582.849L276.848 583.809L264.528 583.76L264.537 582.032L274.873 582.073L274.327 582.487C274.336 580.823 273.969 579.531 273.227 578.611C272.507 577.691 271.432 577.228 270.003 577.222C268.445 577.216 267.237 577.755 266.378 578.839C265.519 579.902 265.085 581.362 265.075 583.218L265.073 583.506C265.063 585.469 265.535 586.953 266.49 587.96C267.466 588.966 268.818 589.473 270.546 589.48C271.506 589.484 272.402 589.349 273.236 589.075C274.069 588.801 274.872 588.345 275.643 587.708L276.592 589.728C275.863 590.387 274.954 590.895 273.864 591.253C272.796 591.612 271.675 591.789 270.501 591.784ZM280.58 591.536L280.645 579.376C280.648 578.737 280.63 578.086 280.591 577.424C280.573 576.742 280.524 576.08 280.442 575.44L283.258 575.451L283.588 579.484L283.108 579.514C283.327 578.534 283.694 577.725 284.209 577.087C284.746 576.428 285.378 575.95 286.105 575.654C286.853 575.337 287.622 575.18 288.411 575.184C288.753 575.185 289.04 575.197 289.275 575.219C289.51 575.241 289.744 575.296 289.978 575.382L289.9 577.974C289.581 577.844 289.283 577.768 289.006 577.746C288.75 577.702 288.43 577.68 288.046 577.678C287.107 577.674 286.295 577.884 285.611 578.308C284.947 578.732 284.432 579.296 284.066 579.998C283.721 580.701 283.546 581.457 283.542 582.268L283.492 591.548L280.58 591.536ZM82.3082 627.893C81.2628 627.889 80.2935 627.64 79.4001 627.146C78.5068 626.63 77.7959 625.934 77.2672 625.057C76.7385 624.18 76.477 623.209 76.4826 622.142C76.4879 621.161 76.7381 620.234 77.2334 619.361C77.7501 618.488 78.4471 617.787 79.3246 617.257C80.2236 616.706 81.2384 616.433 82.369 616.437C83.4144 616.442 84.373 616.701 85.2449 617.217C86.117 617.711 86.8174 618.386 87.3462 619.241C87.8963 620.097 88.1685 621.079 88.1626 622.189C88.157 623.234 87.8852 624.193 87.3473 625.065C86.8306 625.938 86.1229 626.629 85.2242 627.137C84.3468 627.645 83.3748 627.898 82.3082 627.893ZM106.73 630.839L116.833 608.32L119.425 608.33L129.449 630.93L126.377 630.918L123.627 624.507L124.903 625.28L111.175 625.225L112.588 624.463L109.77 630.851L106.73 630.839ZM118.064 611.653L113.009 623.472L112.244 622.797L123.86 622.844L123.249 623.513L118.192 611.653L118.064 611.653ZM137.558 631.251C136.257 631.246 135.042 631.07 133.913 630.724C132.805 630.379 131.891 629.884 131.169 629.241L132.107 627.229C132.894 627.83 133.755 628.292 134.692 628.615C135.65 628.918 136.631 629.071 137.634 629.075C138.85 629.08 139.768 628.86 140.389 628.414C141.032 627.969 141.355 627.373 141.359 626.626C141.362 626.029 141.162 625.548 140.758 625.184C140.355 624.819 139.716 624.55 138.843 624.376L135.806 623.756C134.442 623.43 133.41 622.914 132.71 622.207C132.031 621.479 131.695 620.55 131.701 619.419C131.706 618.481 131.966 617.65 132.482 616.926C132.998 616.182 133.726 615.609 134.667 615.207C135.63 614.784 136.751 614.576 138.031 614.581C139.204 614.585 140.291 614.76 141.292 615.106C142.314 615.451 143.154 615.956 143.812 616.62L142.842 618.568C142.183 617.989 141.439 617.549 140.609 617.247C139.8 616.924 138.968 616.76 138.115 616.757C136.878 616.752 135.959 616.994 135.359 617.482C134.759 617.949 134.457 618.566 134.453 619.334C134.45 619.91 134.629 620.391 134.99 620.777C135.35 621.141 135.936 621.42 136.745 621.616L139.782 622.236C141.21 622.54 142.284 623.035 143.006 623.721C143.728 624.406 144.086 625.314 144.08 626.445C144.074 627.448 143.792 628.311 143.234 629.034C142.697 629.757 141.936 630.308 140.953 630.689C139.991 631.069 138.859 631.256 137.558 631.251ZM153.464 631.315C152.163 631.309 150.948 631.134 149.819 630.788C148.711 630.442 147.797 629.948 147.075 629.305L148.013 627.293C148.8 627.893 149.661 628.355 150.598 628.679C151.557 628.982 152.537 629.135 153.54 629.139C154.756 629.144 155.674 628.924 156.295 628.478C156.938 628.033 157.261 627.437 157.265 626.69C157.268 626.093 157.068 625.612 156.664 625.248C156.261 624.883 155.622 624.614 154.749 624.44L151.712 623.82C150.348 623.494 149.316 622.978 148.616 622.271C147.937 621.543 147.601 620.614 147.607 619.483C147.612 618.544 147.872 617.714 148.388 616.99C148.904 616.246 149.633 615.673 150.573 615.271C151.536 614.848 152.657 614.639 153.937 614.644C155.11 614.649 156.197 614.824 157.198 615.17C158.22 615.515 159.06 616.02 159.718 616.684L158.748 618.632C158.089 618.053 157.345 617.613 156.515 617.311C155.706 616.988 154.875 616.824 154.021 616.821C152.784 616.816 151.865 617.058 151.265 617.546C150.665 618.013 150.364 618.63 150.359 619.398C150.356 619.974 150.535 620.455 150.896 620.84C151.257 621.204 151.842 621.484 152.651 621.679L155.688 622.3C157.116 622.604 158.191 623.099 158.912 623.785C159.634 624.47 159.992 625.378 159.986 626.509C159.98 627.511 159.699 628.374 159.14 629.097C158.603 629.821 157.843 630.372 156.859 630.752C155.897 631.132 154.766 631.32 153.464 631.315ZM171.258 631.386C168.698 631.376 166.676 630.632 165.19 629.154C163.726 627.676 163.001 625.646 163.014 623.065C163.023 621.358 163.351 619.888 163.998 618.653C164.666 617.397 165.578 616.43 166.733 615.752C167.889 615.052 169.235 614.706 170.771 614.712C172.243 614.718 173.489 615.043 174.51 615.687C175.53 616.31 176.304 617.198 176.832 618.352C177.359 619.506 177.618 620.873 177.61 622.452L177.605 623.411L165.285 623.362L165.294 621.634L175.63 621.676L175.084 622.089C175.093 620.425 174.726 619.133 173.984 618.213C173.264 617.293 172.189 616.83 170.76 616.824C169.202 616.818 167.994 617.357 167.135 618.441C166.276 619.505 165.842 620.964 165.832 622.82L165.83 623.108C165.82 625.071 166.292 626.555 167.247 627.562C168.223 628.569 169.575 629.075 171.303 629.082C172.263 629.086 173.159 628.951 173.993 628.677C174.826 628.403 175.629 627.948 176.4 627.311L177.349 629.331C176.62 629.989 175.711 630.497 174.621 630.856C173.553 631.214 172.432 631.391 171.258 631.386ZM187.352 631.451C185.667 631.444 184.39 630.98 183.52 630.059C182.671 629.117 182.252 627.708 182.262 625.83L182.308 617.286L179.172 617.274L179.184 615.034L182.32 615.046L182.342 610.726L185.259 609.938L185.231 615.058L189.775 615.076L189.764 617.316L185.22 617.298L185.176 625.586C185.169 626.823 185.378 627.709 185.801 628.244C186.247 628.758 186.885 629.017 187.717 629.02C188.144 629.022 188.507 628.991 188.806 628.928C189.126 628.844 189.415 628.75 189.671 628.644L189.659 631.044C189.338 631.171 188.964 631.265 188.537 631.327C188.131 631.411 187.736 631.452 187.352 631.451ZM207.196 631.53C205.511 631.523 204.233 631.06 203.363 630.139C202.515 629.197 202.096 627.787 202.106 625.91L202.151 617.366L199.015 617.353L199.027 615.113L202.163 615.126L202.186 610.806L205.102 610.018L205.075 615.138L209.619 615.156L209.607 617.396L205.063 617.378L205.019 625.665C205.013 626.903 205.221 627.789 205.645 628.324C206.09 628.838 206.729 629.096 207.561 629.1C207.988 629.101 208.35 629.071 208.649 629.008C208.97 628.924 209.258 628.829 209.515 628.724L209.502 631.124C209.182 631.25 208.808 631.345 208.381 631.407C207.975 631.491 207.58 631.532 207.196 631.53ZM219.214 631.578C217.635 631.572 216.272 631.236 215.123 630.57C213.975 629.883 213.084 628.919 212.451 627.679C211.817 626.418 211.505 624.923 211.514 623.196C211.523 621.489 211.851 620.018 212.498 618.783C213.144 617.527 214.046 616.571 215.201 615.914C216.357 615.236 217.724 614.9 219.302 614.907C220.881 614.913 222.245 615.26 223.393 615.947C224.563 616.613 225.454 617.577 226.066 618.838C226.699 620.078 227.011 621.551 227.002 623.258C226.993 624.986 226.665 626.478 226.018 627.734C225.393 628.969 224.492 629.925 223.315 630.603C222.16 631.26 220.793 631.585 219.214 631.578ZM219.226 629.274C220.677 629.28 221.842 628.773 222.722 627.753C223.602 626.732 224.048 625.23 224.058 623.246C224.069 621.262 223.639 619.767 222.77 618.761C221.901 617.754 220.741 617.248 219.29 617.243C217.818 617.237 216.642 617.733 215.762 618.733C214.903 619.732 214.469 621.223 214.458 623.207C214.448 625.191 214.866 626.697 215.714 627.724C216.584 628.752 217.754 629.269 219.226 629.274ZM230.869 631.337L230.994 607.786L233.906 607.797L233.829 622.357L233.893 622.357L241.194 615.283L244.81 615.297L236.125 623.71L236.165 622.334L245.493 631.396L241.781 631.381L233.885 623.861L233.821 623.861L233.781 631.349L230.869 631.337ZM254.57 631.72C252.01 631.71 249.987 630.966 248.502 629.488C247.038 628.01 246.313 625.98 246.326 623.399C246.335 621.693 246.663 620.222 247.31 618.987C247.978 617.731 248.89 616.764 250.045 616.086C251.201 615.387 252.547 615.04 254.083 615.046C255.555 615.052 256.801 615.377 257.822 616.021C258.842 616.644 259.616 617.532 260.143 618.687C260.671 619.841 260.93 621.207 260.922 622.786L260.917 623.746L248.597 623.696L248.606 621.968L258.942 622.01L258.396 622.424C258.404 620.76 258.038 619.467 257.296 618.547C256.576 617.627 255.501 617.164 254.071 617.158C252.514 617.152 251.306 617.691 250.447 618.776C249.588 619.839 249.153 621.298 249.144 623.154L249.142 623.442C249.132 625.405 249.604 626.89 250.558 627.896C251.534 628.903 252.886 629.41 254.614 629.416C255.574 629.42 256.471 629.285 257.305 629.011C258.138 628.737 258.94 628.282 259.712 627.645L260.661 629.665C259.932 630.323 259.023 630.831 257.933 631.19C256.864 631.548 255.743 631.725 254.57 631.72ZM264.681 631.473L264.746 619.185C264.75 618.566 264.732 617.937 264.692 617.297C264.653 616.657 264.593 616.016 264.511 615.376L267.327 615.387L267.628 618.845L267.244 618.843C267.741 617.629 268.504 616.704 269.531 616.068C270.558 615.432 271.755 615.117 273.12 615.123C275.019 615.13 276.445 615.659 277.4 616.708C278.354 617.736 278.826 619.337 278.814 621.513L278.761 631.529L275.849 631.518L275.901 621.662C275.909 620.19 275.627 619.133 275.054 618.49C274.482 617.827 273.587 617.492 272.371 617.488C270.921 617.482 269.767 617.914 268.909 618.786C268.072 619.657 267.65 620.839 267.642 622.333L267.593 631.485L264.681 631.473ZM283.525 631.548L283.61 615.453L286.522 615.464L286.437 631.56L283.525 631.548ZM283.373 611.932L283.39 608.796L286.846 608.81L286.829 611.946L283.373 611.932ZM296.744 631.889C295.443 631.884 294.228 631.709 293.099 631.363C291.992 631.017 291.077 630.523 290.355 629.88L291.294 627.868C292.08 628.468 292.941 628.93 293.878 629.254C294.837 629.556 295.817 629.71 296.82 629.714C298.036 629.719 298.954 629.498 299.575 629.053C300.218 628.607 300.541 628.011 300.545 627.265C300.548 626.667 300.348 626.187 299.945 625.822C299.541 625.458 298.903 625.189 298.029 625.015L294.992 624.394C293.628 624.069 292.597 623.553 291.896 622.846C291.217 622.118 290.881 621.189 290.887 620.058C290.892 619.119 291.152 618.288 291.668 617.565C292.184 616.82 292.913 616.247 293.853 615.846C294.816 615.423 295.937 615.214 297.217 615.219C298.39 615.224 299.477 615.399 300.478 615.744C301.5 616.09 302.34 616.594 302.998 617.258L302.028 619.207C301.369 618.628 300.625 618.188 299.795 617.886C298.986 617.562 298.155 617.399 297.301 617.396C296.064 617.391 295.145 617.632 294.545 618.121C293.946 618.587 293.644 619.205 293.64 619.973C293.636 620.549 293.815 621.03 294.176 621.415C294.537 621.779 295.122 622.059 295.931 622.254L298.968 622.874C300.396 623.179 301.471 623.674 302.192 624.359C302.914 625.045 303.272 625.953 303.266 627.084C303.261 628.086 302.979 628.949 302.42 629.672C301.883 630.395 301.123 630.947 300.139 631.327C299.177 631.707 298.046 631.895 296.744 631.889ZM313.354 631.956C311.946 631.95 310.711 631.615 309.648 630.949C308.585 630.284 307.758 629.32 307.167 628.059C306.576 626.798 306.286 625.304 306.295 623.576C306.304 621.848 306.611 620.366 307.214 619.131C307.818 617.875 308.656 616.918 309.726 616.261C310.796 615.604 312.035 615.279 313.443 615.284C314.872 615.29 316.108 615.658 317.149 616.387C318.212 617.095 318.911 618.069 319.246 619.308L318.862 619.306L319.233 615.596L322.049 615.607C321.982 616.247 321.915 616.886 321.847 617.526C321.801 618.166 321.776 618.795 321.773 619.414L321.708 631.702L318.796 631.69L318.815 628.01L319.167 628.011C318.82 629.226 318.11 630.194 317.04 630.915C315.991 631.615 314.762 631.962 313.354 631.956ZM314.039 629.655C315.489 629.661 316.655 629.153 317.535 628.133C318.415 627.112 318.86 625.61 318.871 623.626C318.881 621.642 318.452 620.147 317.583 619.141C316.713 618.135 315.553 617.629 314.103 617.623C312.652 617.617 311.476 618.114 310.575 619.113C309.695 620.112 309.249 621.604 309.239 623.588C309.228 625.571 309.658 627.077 310.527 628.105C311.396 629.132 312.567 629.649 314.039 629.655ZM332.601 632.033C330.916 632.027 329.638 631.563 328.769 630.642C327.92 629.7 327.501 628.29 327.511 626.413L327.556 617.869L324.42 617.856L324.432 615.616L327.568 615.629L327.591 611.309L330.508 610.521L330.48 615.641L335.024 615.659L335.012 617.899L330.468 617.881L330.424 626.169C330.418 627.406 330.626 628.292 331.05 628.827C331.496 629.341 332.134 629.599 332.966 629.603C333.393 629.604 333.756 629.574 334.055 629.511C334.375 629.427 334.664 629.332 334.92 629.227L334.907 631.627C334.587 631.753 334.213 631.848 333.786 631.91C333.38 631.994 332.985 632.035 332.601 632.033ZM337.993 631.767L338.078 615.671L340.99 615.683L340.905 631.779L337.993 631.767ZM337.841 612.15L337.858 609.014L341.314 609.028L341.297 612.164L337.841 612.15ZM352.557 632.113C350.978 632.107 349.614 631.771 348.466 631.105C347.318 630.418 346.427 629.454 345.793 628.214C345.16 626.953 344.848 625.458 344.857 623.73C344.866 622.024 345.194 620.553 345.84 619.318C346.487 618.062 347.388 617.106 348.544 616.449C349.699 615.771 351.067 615.435 352.645 615.442C354.224 615.448 355.587 615.795 356.736 616.482C357.905 617.148 358.796 618.112 359.408 619.373C360.042 620.613 360.354 622.086 360.345 623.793C360.336 625.52 360.008 627.013 359.361 628.269C358.736 629.503 357.835 630.46 356.658 631.138C355.502 631.794 354.135 632.12 352.557 632.113ZM352.569 629.809C354.019 629.815 355.185 629.308 356.065 628.287C356.945 627.267 357.39 625.765 357.401 623.781C357.411 621.797 356.982 620.302 356.113 619.296C355.243 618.289 354.083 617.783 352.633 617.778C351.161 617.772 349.985 618.268 349.105 619.267C348.246 620.267 347.812 621.758 347.801 623.742C347.79 625.726 348.209 627.232 349.057 628.259C349.926 629.287 351.097 629.803 352.569 629.809ZM364.212 631.872L364.277 619.584C364.28 618.966 364.262 618.336 364.223 617.696C364.184 617.056 364.123 616.416 364.041 615.775L366.857 615.787L367.159 619.244L366.775 619.242C367.272 618.028 368.034 617.103 369.061 616.467C370.089 615.832 371.285 615.516 372.651 615.522C374.549 615.529 375.976 616.058 376.93 617.107C377.885 618.135 378.356 619.737 378.345 621.913L378.291 631.929L375.379 631.917L375.432 622.061C375.44 620.589 375.157 619.532 374.585 618.89C374.012 618.226 373.118 617.892 371.902 617.887C370.451 617.881 369.297 618.314 368.439 619.185C367.602 620.056 367.18 621.239 367.172 622.732L367.123 631.884L364.212 631.872ZM395.845 631.999L389.914 615.879L392.954 615.891L397.745 629.703L396.913 629.699L401.978 615.927L404.346 615.937L409.233 629.749L408.433 629.745L413.402 615.973L416.314 615.985L410.18 632.056L407.428 632.045L402.383 618.009L403.791 618.015L398.628 632.01L395.845 631.999ZM419.399 632.093L419.484 615.998L422.396 616.009L422.311 632.105L419.399 632.093ZM419.247 612.477L419.263 609.341L422.719 609.355L422.703 612.491L419.247 612.477ZM433.194 632.437C431.509 632.43 430.231 631.966 429.362 631.045C428.513 630.103 428.094 628.694 428.104 626.816L428.149 618.272L425.013 618.26L425.025 616.02L428.161 616.032L428.184 611.713L431.1 610.924L431.073 616.044L435.617 616.062L435.605 618.302L431.061 618.284L431.017 626.572C431.011 627.809 431.219 628.696 431.643 629.231C432.088 629.744 432.727 630.003 433.559 630.006C433.986 630.008 434.349 629.977 434.648 629.915C434.968 629.831 435.257 629.736 435.513 629.63L435.5 632.03C435.18 632.157 434.806 632.251 434.379 632.314C433.973 632.397 433.578 632.438 433.194 632.437ZM438.586 632.17L438.711 608.619L441.623 608.63L441.565 619.574L441.149 619.573C441.625 618.337 442.387 617.402 443.436 616.766C444.485 616.13 445.692 615.815 447.057 615.82C448.998 615.828 450.425 616.356 451.337 617.405C452.27 618.455 452.731 620.035 452.719 622.147L452.666 632.227L449.754 632.215L449.807 622.295C449.814 620.866 449.542 619.83 448.991 619.188C448.44 618.525 447.535 618.19 446.276 618.185C444.868 618.18 443.725 618.612 442.845 619.483C441.987 620.355 441.555 621.516 441.547 622.966L441.498 632.182L438.586 632.17ZM465.835 632.28L465.9 620.12C465.903 619.48 465.885 618.829 465.846 618.168C465.828 617.485 465.778 616.823 465.696 616.183L468.512 616.194L468.843 620.228L468.363 620.258C468.581 619.277 468.948 618.468 469.464 617.83C470.001 617.171 470.632 616.694 471.359 616.398C472.108 616.081 472.877 615.924 473.666 615.927C474.007 615.928 474.295 615.94 474.53 615.962C474.764 615.985 474.999 616.039 475.233 616.125L475.155 618.717C474.836 618.588 474.538 618.512 474.26 618.489C474.005 618.446 473.685 618.423 473.301 618.422C472.362 618.418 471.55 618.628 470.865 619.052C470.202 619.476 469.687 620.039 469.32 620.742C468.975 621.444 468.801 622.201 468.796 623.012L468.747 632.291L465.835 632.28ZM484.818 632.644C482.258 632.634 480.236 631.889 478.75 630.412C477.286 628.934 476.561 626.904 476.574 624.323C476.583 622.616 476.911 621.145 477.558 619.911C478.226 618.655 479.138 617.688 480.293 617.01C481.449 616.31 482.795 615.964 484.331 615.97C485.803 615.976 487.049 616.301 488.07 616.945C489.09 617.568 489.864 618.456 490.392 619.61C490.919 620.764 491.178 622.131 491.17 623.709L491.165 624.669L478.845 624.62L478.854 622.892L489.19 622.933L488.644 623.347C488.653 621.683 488.286 620.391 487.544 619.471C486.824 618.55 485.749 618.087 484.32 618.082C482.762 618.076 481.554 618.615 480.695 619.699C479.836 620.762 479.402 622.222 479.392 624.078L479.39 624.366C479.38 626.329 479.852 627.813 480.807 628.82C481.783 629.826 483.135 630.333 484.863 630.34C485.823 630.344 486.719 630.209 487.553 629.935C488.386 629.661 489.189 629.205 489.96 628.568L490.909 630.588C490.18 631.247 489.271 631.755 488.181 632.113C487.113 632.472 485.992 632.649 484.818 632.644ZM501.072 632.709C499.664 632.703 498.428 632.368 497.365 631.702C496.302 631.037 495.475 630.073 494.884 628.812C494.294 627.551 494.003 626.057 494.012 624.329C494.021 622.601 494.328 621.119 494.932 619.884C495.536 618.628 496.373 617.671 497.443 617.014C498.513 616.357 499.752 616.032 501.16 616.037C502.59 616.043 503.825 616.411 504.866 617.14C505.929 617.848 506.628 618.822 506.963 620.061L506.579 620.059L506.951 616.349L509.767 616.36C509.699 617 509.632 617.639 509.564 618.279C509.518 618.919 509.494 619.548 509.49 620.167L509.425 632.455L506.513 632.443L506.533 628.763L506.885 628.764C506.537 629.979 505.828 630.947 504.757 631.668C503.708 632.368 502.48 632.715 501.072 632.709ZM501.756 630.408C503.207 630.414 504.372 629.906 505.252 628.886C506.132 627.865 506.577 626.363 506.588 624.379C506.599 622.395 506.169 620.9 505.3 619.894C504.43 618.888 503.27 618.382 501.82 618.376C500.369 618.37 499.193 618.867 498.292 619.866C497.412 620.865 496.967 622.357 496.956 624.34C496.946 626.324 497.375 627.83 498.244 628.858C499.113 629.885 500.284 630.402 501.756 630.408ZM514.304 632.474L514.429 608.922L517.341 608.934L517.216 632.486L514.304 632.474ZM537.849 632.857C535.289 632.846 533.266 632.102 531.781 630.624C530.317 629.146 529.591 627.117 529.605 624.535C529.614 622.829 529.942 621.358 530.589 620.123C531.257 618.867 532.168 617.9 533.324 617.222C534.48 616.523 535.826 616.176 537.362 616.183C538.834 616.188 540.08 616.513 541.101 617.158C542.121 617.78 542.895 618.669 543.422 619.823C543.95 620.977 544.209 622.343 544.201 623.922L544.196 624.882L531.876 624.833L531.885 623.105L542.221 623.146L541.675 623.56C541.683 621.896 541.317 620.604 540.575 619.683C539.855 618.763 538.78 618.3 537.35 618.294C535.793 618.288 534.585 618.827 533.726 619.912C532.867 620.975 532.432 622.435 532.423 624.291L532.421 624.579C532.411 626.541 532.883 628.026 533.837 629.032C534.813 630.039 536.165 630.546 537.893 630.553C538.853 630.557 539.75 630.422 540.584 630.148C541.417 629.874 542.219 629.418 542.991 628.781L543.94 630.801C543.211 631.459 542.302 631.968 541.212 632.326C540.143 632.684 539.022 632.861 537.849 632.857ZM553.398 632.919C552.097 632.914 550.882 632.738 549.753 632.392C548.646 632.047 547.731 631.552 547.009 630.909L547.948 628.897C548.734 629.498 549.595 629.96 550.532 630.283C551.491 630.586 552.471 630.739 553.474 630.743C554.69 630.748 555.609 630.528 556.23 630.082C556.872 629.637 557.195 629.041 557.199 628.294C557.202 627.697 557.002 627.216 556.599 626.852C556.195 626.487 555.557 626.218 554.683 626.044L551.646 625.424C550.283 625.098 549.251 624.582 548.55 623.875C547.872 623.147 547.535 622.218 547.541 621.087C547.546 620.149 547.807 619.318 548.323 618.594C548.838 617.85 549.567 617.277 550.508 616.875C551.47 616.452 552.591 616.244 553.871 616.249C555.044 616.253 556.131 616.428 557.132 616.774C558.154 617.119 558.994 617.624 559.652 618.288L558.682 620.236C558.024 619.657 557.279 619.217 556.449 618.915C555.64 618.592 554.809 618.429 553.955 618.425C552.718 618.42 551.8 618.662 551.2 619.15C550.6 619.617 550.298 620.234 550.294 621.002C550.291 621.578 550.469 622.059 550.83 622.445C551.191 622.809 551.776 623.088 552.586 623.284L555.622 623.904C557.05 624.208 558.125 624.703 558.847 625.389C559.568 626.074 559.926 626.982 559.92 628.113C559.915 629.116 559.633 629.979 559.074 630.702C558.537 631.425 557.777 631.977 556.793 632.357C555.831 632.737 554.7 632.924 553.398 632.919ZM569.724 632.984C568.039 632.978 566.761 632.514 565.892 631.593C565.043 630.651 564.624 629.241 564.634 627.364L564.68 618.82L561.544 618.808L561.555 616.568L564.691 616.58L564.714 612.26L567.631 611.472L567.603 616.592L572.147 616.61L572.135 618.85L567.592 618.832L567.547 627.12C567.541 628.357 567.75 629.243 568.173 629.778C568.619 630.292 569.257 630.551 570.089 630.554C570.516 630.556 570.879 630.525 571.178 630.462C571.498 630.378 571.787 630.283 572.043 630.178L572.031 632.578C571.71 632.704 571.336 632.799 570.909 632.861C570.503 632.945 570.108 632.986 569.724 632.984ZM581.258 633.031C579.851 633.025 578.615 632.689 577.552 632.024C576.489 631.358 575.662 630.395 575.071 629.134C574.48 627.873 574.19 626.378 574.199 624.65C574.208 622.922 574.515 621.441 575.119 620.206C575.723 618.95 576.56 617.993 577.63 617.336C578.7 616.679 579.939 616.353 581.347 616.359C582.776 616.365 584.012 616.732 585.053 617.462C586.116 618.17 586.815 619.144 587.15 620.382L586.766 620.381L587.137 616.67L589.953 616.681C589.886 617.321 589.819 617.961 589.751 618.601C589.705 619.241 589.681 619.87 589.677 620.488L589.612 632.776L586.7 632.765L586.72 629.085L587.072 629.086C586.724 630.301 586.015 631.268 584.944 631.989C583.895 632.689 582.666 633.036 581.258 633.031ZM581.943 630.729C583.393 630.735 584.559 630.228 585.439 629.207C586.319 628.187 586.764 626.685 586.775 624.701C586.785 622.717 586.356 621.222 585.487 620.216C584.617 619.209 583.457 618.703 582.007 618.698C580.556 618.692 579.38 619.188 578.479 620.187C577.599 621.187 577.153 622.678 577.143 624.662C577.132 626.646 577.562 628.152 578.431 629.179C579.3 630.207 580.471 630.724 581.943 630.729ZM600.505 633.108C598.82 633.101 597.542 632.637 596.673 631.717C595.824 630.774 595.405 629.365 595.415 627.487L595.461 618.944L592.325 618.931L592.336 616.691L595.472 616.704L595.495 612.384L598.412 611.595L598.384 616.715L602.928 616.734L602.916 618.973L598.373 618.955L598.328 627.243C598.322 628.48 598.531 629.367 598.954 629.902C599.4 630.415 600.038 630.674 600.87 630.677C601.297 630.679 601.66 630.649 601.959 630.586C602.279 630.502 602.568 630.407 602.824 630.301L602.812 632.701C602.491 632.828 602.117 632.922 601.69 632.985C601.284 633.068 600.889 633.109 600.505 633.108ZM613.067 633.158C610.507 633.148 608.485 632.404 606.999 630.926C605.535 629.448 604.81 627.418 604.823 624.837C604.832 623.131 605.16 621.66 605.807 620.425C606.475 619.169 607.387 618.202 608.542 617.524C609.698 616.825 611.044 616.478 612.58 616.484C614.052 616.49 615.298 616.815 616.319 617.459C617.339 618.082 618.113 618.97 618.641 620.125C619.168 621.279 619.427 622.645 619.419 624.224L619.414 625.184L607.094 625.134L607.103 623.406L617.439 623.448L616.893 623.862C616.902 622.198 616.535 620.905 615.793 619.985C615.073 619.065 613.998 618.602 612.569 618.596C611.011 618.59 609.803 619.129 608.944 620.214C608.085 621.277 607.651 622.737 607.641 624.592L607.639 624.88C607.629 626.843 608.101 628.328 609.055 629.334C610.031 630.341 611.383 630.848 613.111 630.854C614.071 630.858 614.968 630.723 615.802 630.449C616.635 630.175 617.438 629.72 618.209 629.083L619.158 631.103C618.429 631.761 617.52 632.27 616.43 632.628C615.362 632.986 614.241 633.163 613.067 633.158Z" fill="#BA1E71"/>
<path d="M81.7623 328.502L83.1807 620.001" stroke="#0FA9D9"/>
</svg>
