<svg width="646" height="386" viewBox="0 0 646 386" fill="none" xmlns="http://www.w3.org/2000/svg">
<path d="M368 335L314 379.167V290.833L368 335Z" fill="#4CC9F0"/>
<path fill-rule="evenodd" clip-rule="evenodd" d="M0.204543 379L54 335L0.204543 291H314V379H0.204543ZM0 379L1.51992e-06 291H0V379Z" fill="#4CC9F0"/>
<path d="M128.216 349V346.443L137.818 335.932C138.945 334.701 139.873 333.631 140.602 332.722C141.331 331.803 141.871 330.941 142.222 330.136C142.581 329.322 142.761 328.47 142.761 327.58C142.761 326.557 142.515 325.671 142.023 324.923C141.54 324.175 140.877 323.598 140.034 323.19C139.191 322.783 138.244 322.58 137.193 322.58C136.076 322.58 135.1 322.812 134.267 323.276C133.443 323.73 132.804 324.369 132.349 325.193C131.904 326.017 131.682 326.983 131.682 328.091H128.33C128.33 326.386 128.723 324.89 129.509 323.602C130.295 322.314 131.365 321.311 132.719 320.591C134.082 319.871 135.612 319.511 137.307 319.511C139.011 319.511 140.522 319.871 141.838 320.591C143.154 321.311 144.187 322.281 144.935 323.503C145.683 324.724 146.057 326.083 146.057 327.58C146.057 328.65 145.863 329.696 145.474 330.719C145.096 331.732 144.433 332.864 143.486 334.114C142.548 335.354 141.246 336.869 139.58 338.659L133.045 345.648V345.875H146.568V349H128.216ZM161.923 349.398C159.783 349.398 157.96 348.815 156.455 347.651C154.949 346.476 153.798 344.777 153.003 342.551C152.207 340.316 151.81 337.617 151.81 334.455C151.81 331.311 152.207 328.626 153.003 326.401C153.808 324.166 154.963 322.461 156.469 321.287C157.984 320.103 159.802 319.511 161.923 319.511C164.045 319.511 165.858 320.103 167.364 321.287C168.879 322.461 170.034 324.166 170.83 326.401C171.635 328.626 172.037 331.311 172.037 334.455C172.037 337.617 171.639 340.316 170.844 342.551C170.048 344.777 168.898 346.476 167.392 347.651C165.886 348.815 164.063 349.398 161.923 349.398ZM161.923 346.273C164.045 346.273 165.692 345.25 166.867 343.205C168.041 341.159 168.628 338.242 168.628 334.455C168.628 331.936 168.358 329.791 167.818 328.02C167.288 326.249 166.521 324.9 165.517 323.972C164.523 323.044 163.325 322.58 161.923 322.58C159.821 322.58 158.178 323.616 156.994 325.69C155.811 327.755 155.219 330.676 155.219 334.455C155.219 336.973 155.484 339.114 156.014 340.875C156.545 342.636 157.307 343.976 158.301 344.895C159.305 345.813 160.512 346.273 161.923 346.273ZM177.435 349V346.443L187.037 335.932C188.164 334.701 189.092 333.631 189.821 332.722C190.55 331.803 191.09 330.941 191.44 330.136C191.8 329.322 191.98 328.47 191.98 327.58C191.98 326.557 191.734 325.671 191.242 324.923C190.759 324.175 190.096 323.598 189.253 323.19C188.41 322.783 187.463 322.58 186.412 322.58C185.295 322.58 184.319 322.812 183.486 323.276C182.662 323.73 182.023 324.369 181.568 325.193C181.123 326.017 180.901 326.983 180.901 328.091H177.548C177.548 326.386 177.941 324.89 178.727 323.602C179.513 322.314 180.583 321.311 181.938 320.591C183.301 319.871 184.831 319.511 186.526 319.511C188.23 319.511 189.741 319.871 191.057 320.591C192.373 321.311 193.405 322.281 194.153 323.503C194.902 324.724 195.276 326.083 195.276 327.58C195.276 328.65 195.081 329.696 194.693 330.719C194.314 331.732 193.652 332.864 192.705 334.114C191.767 335.354 190.465 336.869 188.798 338.659L182.264 345.648V345.875H195.787V349H177.435ZM210.744 349.398C209.078 349.398 207.577 349.066 206.242 348.403C204.906 347.741 203.836 346.831 203.031 345.676C202.226 344.521 201.786 343.205 201.71 341.727H205.119C205.252 343.044 205.849 344.133 206.909 344.994C207.979 345.847 209.258 346.273 210.744 346.273C211.938 346.273 212.998 345.993 213.926 345.435C214.864 344.876 215.598 344.109 216.128 343.134C216.668 342.149 216.938 341.036 216.938 339.795C216.938 338.527 216.658 337.395 216.099 336.401C215.55 335.397 214.793 334.606 213.827 334.028C212.861 333.451 211.758 333.157 210.517 333.148C209.627 333.138 208.713 333.276 207.776 333.56C206.838 333.834 206.066 334.189 205.46 334.625L202.165 334.227L203.926 319.909H219.04V323.034H206.881L205.858 331.614H206.028C206.625 331.14 207.373 330.747 208.273 330.435C209.172 330.122 210.11 329.966 211.085 329.966C212.866 329.966 214.452 330.392 215.844 331.244C217.245 332.087 218.344 333.242 219.139 334.71C219.944 336.178 220.347 337.854 220.347 339.739C220.347 341.595 219.93 343.252 219.097 344.71C218.273 346.159 217.136 347.305 215.688 348.148C214.239 348.981 212.591 349.398 210.744 349.398ZM248.319 339.909H252.183L255.421 344.17L256.273 345.307L261.103 351.727H257.239L254.058 347.466L253.262 346.386L248.319 339.909ZM262.296 334.455C262.296 337.523 261.742 340.174 260.634 342.409C259.526 344.644 258.006 346.367 256.075 347.58C254.143 348.792 251.936 349.398 249.455 349.398C246.974 349.398 244.768 348.792 242.836 347.58C240.904 346.367 239.384 344.644 238.276 342.409C237.168 340.174 236.614 337.523 236.614 334.455C236.614 331.386 237.168 328.735 238.276 326.5C239.384 324.265 240.904 322.542 242.836 321.33C244.768 320.117 246.974 319.511 249.455 319.511C251.936 319.511 254.143 320.117 256.075 321.33C258.006 322.542 259.526 324.265 260.634 326.5C261.742 328.735 262.296 331.386 262.296 334.455ZM258.887 334.455C258.887 331.936 258.466 329.81 257.623 328.077C256.79 326.344 255.658 325.032 254.228 324.142C252.808 323.252 251.217 322.807 249.455 322.807C247.694 322.807 246.098 323.252 244.668 324.142C243.248 325.032 242.116 326.344 241.273 328.077C240.44 329.81 240.023 331.936 240.023 334.455C240.023 336.973 240.44 339.099 241.273 340.832C242.116 342.565 243.248 343.877 244.668 344.767C246.098 345.657 247.694 346.102 249.455 346.102C251.217 346.102 252.808 345.657 254.228 344.767C255.658 343.877 256.79 342.565 257.623 340.832C258.466 339.099 258.887 336.973 258.887 334.455ZM277.538 349.398C275.663 349.398 273.991 349.076 272.523 348.432C271.065 347.788 269.905 346.893 269.043 345.747C268.191 344.592 267.727 343.252 267.651 341.727H271.231C271.307 342.665 271.629 343.474 272.197 344.156C272.765 344.829 273.508 345.349 274.427 345.719C275.345 346.088 276.363 346.273 277.481 346.273C278.731 346.273 279.839 346.055 280.805 345.619C281.771 345.184 282.528 344.578 283.077 343.801C283.627 343.025 283.901 342.125 283.901 341.102C283.901 340.032 283.636 339.09 283.106 338.276C282.576 337.452 281.799 336.808 280.776 336.344C279.754 335.88 278.504 335.648 277.026 335.648H274.697V332.523H277.026C278.182 332.523 279.195 332.314 280.066 331.898C280.947 331.481 281.633 330.894 282.126 330.136C282.628 329.379 282.879 328.489 282.879 327.466C282.879 326.481 282.661 325.624 282.225 324.895C281.79 324.166 281.174 323.598 280.379 323.19C279.593 322.783 278.665 322.58 277.595 322.58C276.591 322.58 275.644 322.764 274.754 323.134C273.873 323.493 273.153 324.019 272.595 324.71C272.036 325.392 271.733 326.216 271.685 327.182H268.276C268.333 325.657 268.792 324.322 269.654 323.176C270.516 322.021 271.643 321.121 273.035 320.477C274.436 319.833 275.975 319.511 277.651 319.511C279.451 319.511 280.994 319.876 282.282 320.605C283.57 321.325 284.559 322.277 285.251 323.46C285.942 324.644 286.288 325.922 286.288 327.295C286.288 328.934 285.857 330.33 284.995 331.486C284.143 332.641 282.983 333.441 281.515 333.886V334.114C283.352 334.417 284.787 335.198 285.819 336.457C286.851 337.707 287.367 339.256 287.367 341.102C287.367 342.684 286.936 344.104 286.075 345.364C285.222 346.614 284.058 347.598 282.58 348.318C281.103 349.038 279.422 349.398 277.538 349.398Z" fill="black"/>
<circle cx="93.5" cy="335.5" r="8.5" fill="#D9D9D9"/>
<path d="M93.2131 26.7273C92.2964 26.7273 91.4593 26.5038 90.7017 26.0568C89.9442 25.6023 89.3381 24.9962 88.8836 24.2386C88.4366 23.4811 88.2131 22.6439 88.2131 21.7273C88.2131 20.803 88.4366 19.9659 88.8836 19.2159C89.3381 18.4583 89.9442 17.8561 90.7017 17.4091C91.4593 16.9545 92.2964 16.7273 93.2131 16.7273C94.1374 16.7273 94.9745 16.9545 95.7245 17.4091C96.4821 17.8561 97.0843 18.4583 97.5313 19.2159C97.9858 19.9659 98.2131 20.803 98.2131 21.7273C98.2131 22.6439 97.9858 23.4811 97.5313 24.2386C97.0843 24.9962 96.4821 25.6023 95.7245 26.0568C94.9745 26.5038 94.1374 26.7273 93.2131 26.7273ZM119.761 7.72727H124.023L131.432 25.8182H131.705L139.114 7.72727H143.375V31H140.034V14.1591H139.818L132.955 30.9659H130.182L123.318 14.1477H123.102V31H119.761V7.72727ZM155.73 31.3523C154.01 31.3523 152.529 30.9848 151.287 30.25C150.052 29.5076 149.098 28.4659 148.423 27.125C147.757 25.7765 147.423 24.197 147.423 22.3864C147.423 20.5985 147.757 19.0227 148.423 17.6591C149.098 16.2955 150.037 15.2311 151.242 14.4659C152.454 13.7008 153.87 13.3182 155.492 13.3182C156.476 13.3182 157.431 13.4811 158.355 13.8068C159.279 14.1326 160.109 14.6439 160.844 15.3409C161.579 16.0379 162.158 16.9432 162.582 18.0568C163.007 19.1629 163.219 20.5076 163.219 22.0909V23.2955H149.344V20.75H159.889C159.889 19.8561 159.707 19.0644 159.344 18.375C158.98 17.678 158.469 17.1288 157.81 16.7273C157.158 16.3258 156.393 16.125 155.514 16.125C154.56 16.125 153.726 16.3598 153.014 16.8295C152.31 17.2917 151.764 17.8977 151.378 18.6477C150.999 19.3902 150.81 20.197 150.81 21.0682V23.0568C150.81 24.2235 151.014 25.2159 151.423 26.0341C151.84 26.8523 152.42 27.4773 153.162 27.9091C153.904 28.3333 154.772 28.5455 155.764 28.5455C156.408 28.5455 156.995 28.4545 157.526 28.2727C158.056 28.0833 158.514 27.803 158.901 27.4318C159.287 27.0606 159.582 26.6023 159.787 26.0568L163.003 26.6364C162.745 27.5833 162.283 28.4129 161.617 29.125C160.957 29.8295 160.128 30.3788 159.128 30.7727C158.135 31.1591 157.003 31.3523 155.73 31.3523ZM175.136 13.5455V16.2727H165.602V13.5455H175.136ZM168.159 9.36364H171.557V25.875C171.557 26.5341 171.655 27.0303 171.852 27.3636C172.049 27.6894 172.303 27.9129 172.614 28.0341C172.932 28.1477 173.277 28.2045 173.648 28.2045C173.92 28.2045 174.159 28.1856 174.364 28.1477C174.568 28.1098 174.727 28.0795 174.841 28.0568L175.455 30.8636C175.258 30.9394 174.977 31.0152 174.614 31.0909C174.25 31.1742 173.795 31.2197 173.25 31.2273C172.356 31.2424 171.523 31.0833 170.75 30.75C169.977 30.4167 169.352 29.9015 168.875 29.2045C168.398 28.5076 168.159 27.6326 168.159 26.5795V9.36364ZM183.974 31.3864C182.868 31.3864 181.868 31.1818 180.974 30.7727C180.081 30.3561 179.372 29.7538 178.849 28.9659C178.334 28.178 178.077 27.2121 178.077 26.0682C178.077 25.0833 178.266 24.2727 178.645 23.6364C179.024 23 179.535 22.4962 180.179 22.125C180.823 21.7538 181.543 21.4735 182.338 21.2841C183.134 21.0947 183.944 20.9508 184.77 20.8523C185.815 20.7311 186.664 20.6326 187.315 20.5568C187.967 20.4735 188.44 20.3409 188.736 20.1591C189.031 19.9773 189.179 19.6818 189.179 19.2727V19.1932C189.179 18.2008 188.899 17.4318 188.338 16.8864C187.785 16.3409 186.959 16.0682 185.861 16.0682C184.717 16.0682 183.815 16.322 183.156 16.8295C182.505 17.3295 182.054 17.8864 181.804 18.5L178.611 17.7727C178.99 16.7121 179.543 15.8561 180.27 15.2045C181.005 14.5455 181.849 14.0682 182.804 13.7727C183.759 13.4697 184.762 13.3182 185.815 13.3182C186.512 13.3182 187.251 13.4015 188.031 13.5682C188.819 13.7273 189.554 14.0227 190.236 14.4545C190.925 14.8864 191.49 15.5038 191.929 16.3068C192.368 17.1023 192.588 18.1364 192.588 19.4091V31H189.27V28.6136H189.134C188.914 29.053 188.584 29.4848 188.145 29.9091C187.706 30.3333 187.141 30.6856 186.452 30.9659C185.762 31.2462 184.937 31.3864 183.974 31.3864ZM184.713 28.6591C185.653 28.6591 186.456 28.4735 187.122 28.1023C187.796 27.7311 188.308 27.2462 188.656 26.6477C189.012 26.0417 189.19 25.3939 189.19 24.7045V22.4545C189.069 22.5758 188.834 22.6894 188.486 22.7955C188.145 22.8939 187.755 22.9811 187.315 23.0568C186.876 23.125 186.448 23.1894 186.031 23.25C185.615 23.303 185.266 23.3485 184.986 23.3864C184.327 23.4697 183.724 23.6098 183.179 23.8068C182.641 24.0038 182.209 24.2879 181.884 24.6591C181.565 25.0227 181.406 25.5076 181.406 26.1136C181.406 26.9545 181.717 27.5909 182.338 28.0227C182.959 28.447 183.751 28.6591 184.713 28.6591ZM211.42 13.5455L205.091 31H201.455L195.114 13.5455H198.761L203.182 26.9773H203.364L207.773 13.5455H211.42ZM221.543 31.3523C219.823 31.3523 218.342 30.9848 217.099 30.25C215.865 29.5076 214.91 28.4659 214.236 27.125C213.569 25.7765 213.236 24.197 213.236 22.3864C213.236 20.5985 213.569 19.0227 214.236 17.6591C214.91 16.2955 215.849 15.2311 217.054 14.4659C218.266 13.7008 219.683 13.3182 221.304 13.3182C222.289 13.3182 223.243 13.4811 224.168 13.8068C225.092 14.1326 225.921 14.6439 226.656 15.3409C227.391 16.0379 227.971 16.9432 228.395 18.0568C228.819 19.1629 229.031 20.5076 229.031 22.0909V23.2955H215.156V20.75H225.702C225.702 19.8561 225.52 19.0644 225.156 18.375C224.793 17.678 224.281 17.1288 223.622 16.7273C222.971 16.3258 222.206 16.125 221.327 16.125C220.372 16.125 219.539 16.3598 218.827 16.8295C218.122 17.2917 217.577 17.8977 217.19 18.6477C216.812 19.3902 216.622 20.197 216.622 21.0682V23.0568C216.622 24.2235 216.827 25.2159 217.236 26.0341C217.653 26.8523 218.232 27.4773 218.974 27.9091C219.717 28.3333 220.584 28.5455 221.577 28.5455C222.221 28.5455 222.808 28.4545 223.338 28.2727C223.868 28.0833 224.327 27.803 224.713 27.4318C225.099 27.0606 225.395 26.6023 225.599 26.0568L228.815 26.6364C228.558 27.5833 228.096 28.4129 227.429 29.125C226.77 29.8295 225.94 30.3788 224.94 30.7727C223.948 31.1591 222.815 31.3523 221.543 31.3523ZM232.801 31V13.5455H236.085V16.3182H236.267C236.585 15.3788 237.146 14.6402 237.949 14.1023C238.76 13.5568 239.676 13.2841 240.699 13.2841C240.911 13.2841 241.161 13.2917 241.449 13.3068C241.744 13.322 241.975 13.3409 242.142 13.3636V16.6136C242.006 16.5758 241.763 16.5341 241.415 16.4886C241.066 16.4356 240.718 16.4091 240.369 16.4091C239.566 16.4091 238.85 16.5795 238.222 16.9205C237.6 17.2538 237.108 17.7197 236.744 18.3182C236.381 18.9091 236.199 19.5833 236.199 20.3409V31H232.801ZM258.162 17.8068L255.082 18.3523C254.954 17.9583 254.749 17.5833 254.469 17.2273C254.196 16.8712 253.825 16.5795 253.355 16.3523C252.885 16.125 252.298 16.0114 251.594 16.0114C250.632 16.0114 249.829 16.2273 249.185 16.6591C248.541 17.0833 248.219 17.6326 248.219 18.3068C248.219 18.8902 248.435 19.3598 248.867 19.7159C249.298 20.072 249.995 20.3636 250.957 20.5909L253.73 21.2273C255.336 21.5985 256.533 22.1705 257.321 22.9432C258.109 23.7159 258.503 24.7197 258.503 25.9545C258.503 27 258.2 27.9318 257.594 28.75C256.995 29.5606 256.158 30.197 255.082 30.6591C254.014 31.1212 252.776 31.3523 251.367 31.3523C249.412 31.3523 247.817 30.9356 246.582 30.1023C245.348 29.2614 244.59 28.0682 244.31 26.5227L247.594 26.0227C247.798 26.8788 248.219 27.5265 248.855 27.9659C249.492 28.3977 250.321 28.6136 251.344 28.6136C252.457 28.6136 253.348 28.3826 254.014 27.9205C254.681 27.4508 255.014 26.8788 255.014 26.2045C255.014 25.6591 254.81 25.2008 254.401 24.8295C253.999 24.4583 253.382 24.178 252.548 23.9886L249.594 23.3409C247.965 22.9697 246.76 22.3788 245.98 21.5682C245.207 20.7576 244.821 19.7311 244.821 18.4886C244.821 17.4583 245.109 16.5568 245.685 15.7841C246.26 15.0114 247.056 14.4091 248.071 13.9773C249.086 13.5379 250.249 13.3182 251.56 13.3182C253.446 13.3182 254.931 13.7273 256.014 14.5455C257.098 15.3561 257.813 16.4432 258.162 17.8068ZM269.761 31.3523C268.042 31.3523 266.561 30.9848 265.318 30.25C264.083 29.5076 263.129 28.4659 262.455 27.125C261.788 25.7765 261.455 24.197 261.455 22.3864C261.455 20.5985 261.788 19.0227 262.455 17.6591C263.129 16.2955 264.068 15.2311 265.273 14.4659C266.485 13.7008 267.902 13.3182 269.523 13.3182C270.508 13.3182 271.462 13.4811 272.386 13.8068C273.311 14.1326 274.14 14.6439 274.875 15.3409C275.61 16.0379 276.189 16.9432 276.614 18.0568C277.038 19.1629 277.25 20.5076 277.25 22.0909V23.2955H263.375V20.75H273.92C273.92 19.8561 273.739 19.0644 273.375 18.375C273.011 17.678 272.5 17.1288 271.841 16.7273C271.189 16.3258 270.424 16.125 269.545 16.125C268.591 16.125 267.758 16.3598 267.045 16.8295C266.341 17.2917 265.795 17.8977 265.409 18.6477C265.03 19.3902 264.841 20.197 264.841 21.0682V23.0568C264.841 24.2235 265.045 25.2159 265.455 26.0341C265.871 26.8523 266.451 27.4773 267.193 27.9091C267.936 28.3333 268.803 28.5455 269.795 28.5455C270.439 28.5455 271.027 28.4545 271.557 28.2727C272.087 28.0833 272.545 27.803 272.932 27.4318C273.318 27.0606 273.614 26.6023 273.818 26.0568L277.034 26.6364C276.777 27.5833 276.314 28.4129 275.648 29.125C274.989 29.8295 274.159 30.3788 273.159 30.7727C272.167 31.1591 271.034 31.3523 269.761 31.3523ZM288.614 10.75V7.72727H306.625V10.75H299.364V31H295.864V10.75H288.614ZM315.324 31.3523C313.604 31.3523 312.123 30.9848 310.881 30.25C309.646 29.5076 308.691 28.4659 308.017 27.125C307.35 25.7765 307.017 24.197 307.017 22.3864C307.017 20.5985 307.35 19.0227 308.017 17.6591C308.691 16.2955 309.631 15.2311 310.835 14.4659C312.047 13.7008 313.464 13.3182 315.085 13.3182C316.07 13.3182 317.025 13.4811 317.949 13.8068C318.873 14.1326 319.703 14.6439 320.438 15.3409C321.172 16.0379 321.752 16.9432 322.176 18.0568C322.6 19.1629 322.813 20.5076 322.813 22.0909V23.2955H308.938V20.75H319.483C319.483 19.8561 319.301 19.0644 318.938 18.375C318.574 17.678 318.063 17.1288 317.403 16.7273C316.752 16.3258 315.987 16.125 315.108 16.125C314.153 16.125 313.32 16.3598 312.608 16.8295C311.903 17.2917 311.358 17.8977 310.972 18.6477C310.593 19.3902 310.403 20.197 310.403 21.0682V23.0568C310.403 24.2235 310.608 25.2159 311.017 26.0341C311.434 26.8523 312.013 27.4773 312.756 27.9091C313.498 28.3333 314.366 28.5455 315.358 28.5455C316.002 28.5455 316.589 28.4545 317.119 28.2727C317.65 28.0833 318.108 27.803 318.494 27.4318C318.881 27.0606 319.176 26.6023 319.381 26.0568L322.597 26.6364C322.339 27.5833 321.877 28.4129 321.21 29.125C320.551 29.8295 319.722 30.3788 318.722 30.7727C317.729 31.1591 316.597 31.3523 315.324 31.3523ZM339.662 17.8068L336.582 18.3523C336.454 17.9583 336.249 17.5833 335.969 17.2273C335.696 16.8712 335.325 16.5795 334.855 16.3523C334.385 16.125 333.798 16.0114 333.094 16.0114C332.132 16.0114 331.329 16.2273 330.685 16.6591C330.041 17.0833 329.719 17.6326 329.719 18.3068C329.719 18.8902 329.935 19.3598 330.367 19.7159C330.798 20.072 331.495 20.3636 332.457 20.5909L335.23 21.2273C336.836 21.5985 338.033 22.1705 338.821 22.9432C339.609 23.7159 340.003 24.7197 340.003 25.9545C340.003 27 339.7 27.9318 339.094 28.75C338.495 29.5606 337.658 30.197 336.582 30.6591C335.514 31.1212 334.276 31.3523 332.867 31.3523C330.912 31.3523 329.317 30.9356 328.082 30.1023C326.848 29.2614 326.09 28.0682 325.81 26.5227L329.094 26.0227C329.298 26.8788 329.719 27.5265 330.355 27.9659C330.992 28.3977 331.821 28.6136 332.844 28.6136C333.957 28.6136 334.848 28.3826 335.514 27.9205C336.181 27.4508 336.514 26.8788 336.514 26.2045C336.514 25.6591 336.31 25.2008 335.901 24.8295C335.499 24.4583 334.882 24.178 334.048 23.9886L331.094 23.3409C329.465 22.9697 328.26 22.3788 327.48 21.5682C326.707 20.7576 326.321 19.7311 326.321 18.4886C326.321 17.4583 326.609 16.5568 327.185 15.7841C327.76 15.0114 328.556 14.4091 329.571 13.9773C330.586 13.5379 331.749 13.3182 333.06 13.3182C334.946 13.3182 336.431 13.7273 337.514 14.5455C338.598 15.3561 339.313 16.4432 339.662 17.8068ZM351.886 13.5455V16.2727H342.352V13.5455H351.886ZM344.909 9.36364H348.307V25.875C348.307 26.5341 348.405 27.0303 348.602 27.3636C348.799 27.6894 349.053 27.9129 349.364 28.0341C349.682 28.1477 350.027 28.2045 350.398 28.2045C350.67 28.2045 350.909 28.1856 351.114 28.1477C351.318 28.1098 351.477 28.0795 351.591 28.0568L352.205 30.8636C352.008 30.9394 351.727 31.0152 351.364 31.0909C351 31.1742 350.545 31.2197 350 31.2273C349.106 31.2424 348.273 31.0833 347.5 30.75C346.727 30.4167 346.102 29.9015 345.625 29.2045C345.148 28.5076 344.909 27.6326 344.909 26.5795V9.36364ZM359.043 20.6364V31H355.645V13.5455H358.906V16.3864H359.122C359.524 15.4621 360.153 14.7197 361.009 14.1591C361.872 13.5985 362.959 13.3182 364.27 13.3182C365.459 13.3182 366.501 13.5682 367.395 14.0682C368.289 14.5606 368.982 15.2955 369.474 16.2727C369.967 17.25 370.213 18.4583 370.213 19.8977V31H366.815V20.3068C366.815 19.0417 366.486 18.053 365.827 17.3409C365.168 16.6212 364.262 16.2614 363.111 16.2614C362.323 16.2614 361.622 16.4318 361.009 16.7727C360.403 17.1136 359.921 17.6136 359.565 18.2727C359.217 18.9242 359.043 19.7121 359.043 20.6364ZM382.293 31.3523C380.573 31.3523 379.092 30.9848 377.849 30.25C376.615 29.5076 375.66 28.4659 374.986 27.125C374.319 25.7765 373.986 24.197 373.986 22.3864C373.986 20.5985 374.319 19.0227 374.986 17.6591C375.66 16.2955 376.599 15.2311 377.804 14.4659C379.016 13.7008 380.433 13.3182 382.054 13.3182C383.039 13.3182 383.993 13.4811 384.918 13.8068C385.842 14.1326 386.671 14.6439 387.406 15.3409C388.141 16.0379 388.721 16.9432 389.145 18.0568C389.569 19.1629 389.781 20.5076 389.781 22.0909V23.2955H375.906V20.75H386.452C386.452 19.8561 386.27 19.0644 385.906 18.375C385.543 17.678 385.031 17.1288 384.372 16.7273C383.721 16.3258 382.956 16.125 382.077 16.125C381.122 16.125 380.289 16.3598 379.577 16.8295C378.872 17.2917 378.327 17.8977 377.94 18.6477C377.562 19.3902 377.372 20.197 377.372 21.0682V23.0568C377.372 24.2235 377.577 25.2159 377.986 26.0341C378.403 26.8523 378.982 27.4773 379.724 27.9091C380.467 28.3333 381.334 28.5455 382.327 28.5455C382.971 28.5455 383.558 28.4545 384.088 28.2727C384.618 28.0833 385.077 27.803 385.463 27.4318C385.849 27.0606 386.145 26.6023 386.349 26.0568L389.565 26.6364C389.308 27.5833 388.846 28.4129 388.179 29.125C387.52 29.8295 386.69 30.3788 385.69 30.7727C384.698 31.1591 383.565 31.3523 382.293 31.3523ZM401.699 13.5455V16.2727H392.165V13.5455H401.699ZM394.722 9.36364H398.119V25.875C398.119 26.5341 398.218 27.0303 398.415 27.3636C398.612 27.6894 398.866 27.9129 399.176 28.0341C399.494 28.1477 399.839 28.2045 400.21 28.2045C400.483 28.2045 400.722 28.1856 400.926 28.1477C401.131 28.1098 401.29 28.0795 401.403 28.0568L402.017 30.8636C401.82 30.9394 401.54 31.0152 401.176 31.0909C400.813 31.1742 400.358 31.2197 399.813 31.2273C398.919 31.2424 398.085 31.0833 397.313 30.75C396.54 30.4167 395.915 29.9015 395.438 29.2045C394.96 28.5076 394.722 27.6326 394.722 26.5795V9.36364Z" fill="#4CC9F0"/>
<line x1="93.7046" y1="20" x2="93.7046" y2="335" stroke="#0FA9D9"/>
</svg>
