<svg width="646" height="386" viewBox="0 0 646 386" fill="none" xmlns="http://www.w3.org/2000/svg">
<path d="M368 335L314 379.167V290.833L368 335Z" fill="#4CC9F0"/>
<path fill-rule="evenodd" clip-rule="evenodd" d="M0.204543 379L54 335L0.204543 291H314V379H0.204543ZM0 379L1.51992e-06 291H0V379Z" fill="#4CC9F0"/>
<path d="M128.011 349V346.443L137.614 335.932C138.741 334.701 139.669 333.631 140.398 332.722C141.127 331.803 141.667 330.941 142.017 330.136C142.377 329.322 142.557 328.47 142.557 327.58C142.557 326.557 142.311 325.671 141.818 324.923C141.335 324.175 140.672 323.598 139.83 323.19C138.987 322.783 138.04 322.58 136.989 322.58C135.871 322.58 134.896 322.812 134.062 323.276C133.239 323.73 132.599 324.369 132.145 325.193C131.7 326.017 131.477 326.983 131.477 328.091H128.125C128.125 326.386 128.518 324.89 129.304 323.602C130.09 322.314 131.16 321.311 132.514 320.591C133.878 319.871 135.407 319.511 137.102 319.511C138.807 319.511 140.317 319.871 141.634 320.591C142.95 321.311 143.982 322.281 144.73 323.503C145.478 324.724 145.852 326.083 145.852 327.58C145.852 328.65 145.658 329.696 145.27 330.719C144.891 331.732 144.228 332.864 143.281 334.114C142.344 335.354 141.042 336.869 139.375 338.659L132.841 345.648V345.875H146.364V349H128.011ZM161.719 349.398C159.579 349.398 157.756 348.815 156.25 347.651C154.744 346.476 153.594 344.777 152.798 342.551C152.003 340.316 151.605 337.617 151.605 334.455C151.605 331.311 152.003 328.626 152.798 326.401C153.603 324.166 154.759 322.461 156.264 321.287C157.779 320.103 159.598 319.511 161.719 319.511C163.84 319.511 165.653 320.103 167.159 321.287C168.674 322.461 169.83 324.166 170.625 326.401C171.43 328.626 171.832 331.311 171.832 334.455C171.832 337.617 171.435 340.316 170.639 342.551C169.844 344.777 168.693 346.476 167.188 347.651C165.682 348.815 163.859 349.398 161.719 349.398ZM161.719 346.273C163.84 346.273 165.488 345.25 166.662 343.205C167.836 341.159 168.423 338.242 168.423 334.455C168.423 331.936 168.153 329.791 167.614 328.02C167.083 326.249 166.316 324.9 165.312 323.972C164.318 323.044 163.12 322.58 161.719 322.58C159.616 322.58 157.973 323.616 156.79 325.69C155.606 327.755 155.014 330.676 155.014 334.455C155.014 336.973 155.279 339.114 155.81 340.875C156.34 342.636 157.102 343.976 158.097 344.895C159.1 345.813 160.308 346.273 161.719 346.273ZM177.23 349V346.443L186.832 335.932C187.959 334.701 188.887 333.631 189.616 332.722C190.346 331.803 190.885 330.941 191.236 330.136C191.596 329.322 191.776 328.47 191.776 327.58C191.776 326.557 191.529 325.671 191.037 324.923C190.554 324.175 189.891 323.598 189.048 323.19C188.205 322.783 187.259 322.58 186.207 322.58C185.09 322.58 184.115 322.812 183.281 323.276C182.457 323.73 181.818 324.369 181.364 325.193C180.919 326.017 180.696 326.983 180.696 328.091H177.344C177.344 326.386 177.737 324.89 178.523 323.602C179.309 322.314 180.379 321.311 181.733 320.591C183.097 319.871 184.626 319.511 186.321 319.511C188.026 319.511 189.536 319.871 190.852 320.591C192.169 321.311 193.201 322.281 193.949 323.503C194.697 324.724 195.071 326.083 195.071 327.58C195.071 328.65 194.877 329.696 194.489 330.719C194.11 331.732 193.447 332.864 192.5 334.114C191.562 335.354 190.26 336.869 188.594 338.659L182.06 345.648V345.875H195.582V349H177.23ZM200.142 343.034V340.136L212.926 319.909H215.028V324.398H213.608L203.949 339.682V339.909H221.165V343.034H200.142ZM213.835 349V342.153V340.804V319.909H217.188V349H213.835ZM248.817 339.909H252.681L255.92 344.17L256.772 345.307L261.602 351.727H257.738L254.556 347.466L253.761 346.386L248.817 339.909ZM262.795 334.455C262.795 337.523 262.241 340.174 261.133 342.409C260.025 344.644 258.505 346.367 256.573 347.58C254.641 348.792 252.435 349.398 249.954 349.398C247.473 349.398 245.266 348.792 243.335 347.58C241.403 346.367 239.883 344.644 238.775 342.409C237.667 340.174 237.113 337.523 237.113 334.455C237.113 331.386 237.667 328.735 238.775 326.5C239.883 324.265 241.403 322.542 243.335 321.33C245.266 320.117 247.473 319.511 249.954 319.511C252.435 319.511 254.641 320.117 256.573 321.33C258.505 322.542 260.025 324.265 261.133 326.5C262.241 328.735 262.795 331.386 262.795 334.455ZM259.386 334.455C259.386 331.936 258.964 329.81 258.121 328.077C257.288 326.344 256.156 325.032 254.727 324.142C253.306 323.252 251.715 322.807 249.954 322.807C248.192 322.807 246.597 323.252 245.167 324.142C243.746 325.032 242.615 326.344 241.772 328.077C240.939 329.81 240.522 331.936 240.522 334.455C240.522 336.973 240.939 339.099 241.772 340.832C242.615 342.565 243.746 343.877 245.167 344.767C246.597 345.657 248.192 346.102 249.954 346.102C251.715 346.102 253.306 345.657 254.727 344.767C256.156 343.877 257.288 342.565 258.121 340.832C258.964 339.099 259.386 336.973 259.386 334.455ZM278.036 349.398C276.161 349.398 274.49 349.076 273.022 348.432C271.564 347.788 270.404 346.893 269.542 345.747C268.69 344.592 268.226 343.252 268.15 341.727H271.729C271.805 342.665 272.127 343.474 272.695 344.156C273.263 344.829 274.007 345.349 274.925 345.719C275.844 346.088 276.862 346.273 277.979 346.273C279.229 346.273 280.337 346.055 281.303 345.619C282.269 345.184 283.027 344.578 283.576 343.801C284.125 343.025 284.4 342.125 284.4 341.102C284.4 340.032 284.135 339.09 283.604 338.276C283.074 337.452 282.298 336.808 281.275 336.344C280.252 335.88 279.002 335.648 277.525 335.648H275.195V332.523H277.525C278.68 332.523 279.693 332.314 280.565 331.898C281.445 331.481 282.132 330.894 282.624 330.136C283.126 329.379 283.377 328.489 283.377 327.466C283.377 326.481 283.159 325.624 282.724 324.895C282.288 324.166 281.673 323.598 280.877 323.19C280.091 322.783 279.163 322.58 278.093 322.58C277.089 322.58 276.142 322.764 275.252 323.134C274.371 323.493 273.652 324.019 273.093 324.71C272.534 325.392 272.231 326.216 272.184 327.182H268.775C268.832 325.657 269.291 324.322 270.153 323.176C271.014 322.021 272.141 321.121 273.533 320.477C274.935 319.833 276.474 319.511 278.15 319.511C279.949 319.511 281.493 319.876 282.781 320.605C284.068 321.325 285.058 322.277 285.749 323.46C286.441 324.644 286.786 325.922 286.786 327.295C286.786 328.934 286.355 330.33 285.494 331.486C284.641 332.641 283.481 333.441 282.013 333.886V334.114C283.851 334.417 285.285 335.198 286.317 336.457C287.35 337.707 287.866 339.256 287.866 341.102C287.866 342.684 287.435 344.104 286.573 345.364C285.721 346.614 284.556 347.598 283.079 348.318C281.602 349.038 279.921 349.398 278.036 349.398Z" fill="black"/>
<circle cx="93.5" cy="335.5" r="8.5" fill="#D9D9D9"/>
<path d="M93.2131 26.7273C92.2964 26.7273 91.4593 26.5038 90.7017 26.0568C89.9442 25.6023 89.3381 24.9962 88.8836 24.2386C88.4366 23.4811 88.2131 22.6439 88.2131 21.7273C88.2131 20.803 88.4366 19.9659 88.8836 19.2159C89.3381 18.4583 89.9442 17.8561 90.7017 17.4091C91.4593 16.9545 92.2964 16.7273 93.2131 16.7273C94.1374 16.7273 94.9745 16.9545 95.7245 17.4091C96.4821 17.8561 97.0843 18.4583 97.5313 19.2159C97.9858 19.9659 98.2131 20.803 98.2131 21.7273C98.2131 22.6439 97.9858 23.4811 97.5313 24.2386C97.0843 24.9962 96.4821 25.6023 95.7245 26.0568C94.9745 26.5038 94.1374 26.7273 93.2131 26.7273ZM124.318 31L117.864 7.72727H121.557L126.091 25.75H126.307L131.023 7.72727H134.682L139.398 25.7614H139.614L144.136 7.72727H147.841L141.375 31H137.841L132.943 13.5682H132.761L127.864 31H124.318ZM154.168 20.6364V31H150.77V7.72727H154.122V16.3864H154.338C154.747 15.447 155.372 14.7008 156.213 14.1477C157.054 13.5947 158.153 13.3182 159.509 13.3182C160.706 13.3182 161.751 13.5644 162.645 14.0568C163.546 14.5492 164.243 15.2841 164.736 16.2614C165.236 17.2311 165.486 18.4432 165.486 19.8977V31H162.088V20.3068C162.088 19.0265 161.759 18.0341 161.099 17.3295C160.44 16.6174 159.524 16.2614 158.349 16.2614C157.546 16.2614 156.827 16.4318 156.19 16.7727C155.562 17.1136 155.065 17.6136 154.702 18.2727C154.346 18.9242 154.168 19.7121 154.168 20.6364ZM170.02 31V13.5455H173.418V31H170.02ZM171.736 10.8523C171.145 10.8523 170.637 10.6553 170.213 10.2614C169.796 9.85985 169.588 9.38257 169.588 8.82954C169.588 8.26894 169.796 7.79167 170.213 7.39773C170.637 6.99621 171.145 6.79545 171.736 6.79545C172.327 6.79545 172.831 6.99621 173.247 7.39773C173.671 7.79167 173.884 8.26894 173.884 8.82954C173.884 9.38257 173.671 9.85985 173.247 10.2614C172.831 10.6553 172.327 10.8523 171.736 10.8523ZM186.136 13.5455V16.2727H176.602V13.5455H186.136ZM179.159 9.36364H182.557V25.875C182.557 26.5341 182.655 27.0303 182.852 27.3636C183.049 27.6894 183.303 27.9129 183.614 28.0341C183.932 28.1477 184.277 28.2045 184.648 28.2045C184.92 28.2045 185.159 28.1856 185.364 28.1477C185.568 28.1098 185.727 28.0795 185.841 28.0568L186.455 30.8636C186.258 30.9394 185.977 31.0152 185.614 31.0909C185.25 31.1742 184.795 31.2197 184.25 31.2273C183.356 31.2424 182.523 31.0833 181.75 30.75C180.977 30.4167 180.352 29.9015 179.875 29.2045C179.398 28.5076 179.159 27.6326 179.159 26.5795V9.36364ZM197.23 31.3523C195.51 31.3523 194.029 30.9848 192.787 30.25C191.552 29.5076 190.598 28.4659 189.923 27.125C189.257 25.7765 188.923 24.197 188.923 22.3864C188.923 20.5985 189.257 19.0227 189.923 17.6591C190.598 16.2955 191.537 15.2311 192.742 14.4659C193.954 13.7008 195.37 13.3182 196.992 13.3182C197.976 13.3182 198.931 13.4811 199.855 13.8068C200.779 14.1326 201.609 14.6439 202.344 15.3409C203.079 16.0379 203.658 16.9432 204.082 18.0568C204.507 19.1629 204.719 20.5076 204.719 22.0909V23.2955H190.844V20.75H201.389C201.389 19.8561 201.207 19.0644 200.844 18.375C200.48 17.678 199.969 17.1288 199.31 16.7273C198.658 16.3258 197.893 16.125 197.014 16.125C196.06 16.125 195.226 16.3598 194.514 16.8295C193.81 17.2917 193.264 17.8977 192.878 18.6477C192.499 19.3902 192.31 20.197 192.31 21.0682V23.0568C192.31 24.2235 192.514 25.2159 192.923 26.0341C193.34 26.8523 193.92 27.4773 194.662 27.9091C195.404 28.3333 196.272 28.5455 197.264 28.5455C197.908 28.5455 198.495 28.4545 199.026 28.2727C199.556 28.0833 200.014 27.803 200.401 27.4318C200.787 27.0606 201.082 26.6023 201.287 26.0568L204.503 26.6364C204.245 27.5833 203.783 28.4129 203.117 29.125C202.457 29.8295 201.628 30.3788 200.628 30.7727C199.635 31.1591 198.503 31.3523 197.23 31.3523ZM208.489 37.5455V13.5455H211.807V16.375H212.091C212.288 16.0114 212.572 15.5909 212.943 15.1136C213.314 14.6364 213.83 14.2197 214.489 13.8636C215.148 13.5 216.019 13.3182 217.102 13.3182C218.511 13.3182 219.769 13.6742 220.875 14.3864C221.981 15.0985 222.849 16.125 223.477 17.4659C224.114 18.8068 224.432 20.4205 224.432 22.3068C224.432 24.1932 224.117 25.8106 223.489 27.1591C222.86 28.5 221.996 29.5341 220.898 30.2614C219.799 30.9811 218.545 31.3409 217.136 31.3409C216.076 31.3409 215.208 31.1629 214.534 30.8068C213.867 30.4508 213.345 30.0341 212.966 29.5568C212.587 29.0795 212.295 28.6553 212.091 28.2841H211.886V37.5455H208.489ZM211.818 22.2727C211.818 23.5 211.996 24.5758 212.352 25.5C212.708 26.4242 213.224 27.1477 213.898 27.6705C214.572 28.1856 215.398 28.4432 216.375 28.4432C217.39 28.4432 218.239 28.1742 218.92 27.6364C219.602 27.0909 220.117 26.3523 220.466 25.4205C220.822 24.4886 221 23.4394 221 22.2727C221 21.1212 220.826 20.0871 220.477 19.1705C220.136 18.2538 219.621 17.5303 218.932 17C218.25 16.4697 217.398 16.2045 216.375 16.2045C215.39 16.2045 214.557 16.4583 213.875 16.9659C213.201 17.4735 212.689 18.1818 212.341 19.0909C211.992 20 211.818 21.0606 211.818 22.2727ZM233.318 31.3864C232.212 31.3864 231.212 31.1818 230.318 30.7727C229.424 30.3561 228.716 29.7538 228.193 28.9659C227.678 28.178 227.42 27.2121 227.42 26.0682C227.42 25.0833 227.61 24.2727 227.989 23.6364C228.367 23 228.879 22.4962 229.523 22.125C230.167 21.7538 230.886 21.4735 231.682 21.2841C232.477 21.0947 233.288 20.9508 234.114 20.8523C235.159 20.7311 236.008 20.6326 236.659 20.5568C237.311 20.4735 237.784 20.3409 238.08 20.1591C238.375 19.9773 238.523 19.6818 238.523 19.2727V19.1932C238.523 18.2008 238.242 17.4318 237.682 16.8864C237.129 16.3409 236.303 16.0682 235.205 16.0682C234.061 16.0682 233.159 16.322 232.5 16.8295C231.849 17.3295 231.398 17.8864 231.148 18.5L227.955 17.7727C228.333 16.7121 228.886 15.8561 229.614 15.2045C230.349 14.5455 231.193 14.0682 232.148 13.7727C233.102 13.4697 234.106 13.3182 235.159 13.3182C235.856 13.3182 236.595 13.4015 237.375 13.5682C238.163 13.7273 238.898 14.0227 239.58 14.4545C240.269 14.8864 240.833 15.5038 241.273 16.3068C241.712 17.1023 241.932 18.1364 241.932 19.4091V31H238.614V28.6136H238.477C238.258 29.053 237.928 29.4848 237.489 29.9091C237.049 30.3333 236.485 30.6856 235.795 30.9659C235.106 31.2462 234.28 31.3864 233.318 31.3864ZM234.057 28.6591C234.996 28.6591 235.799 28.4735 236.466 28.1023C237.14 27.7311 237.652 27.2462 238 26.6477C238.356 26.0417 238.534 25.3939 238.534 24.7045V22.4545C238.413 22.5758 238.178 22.6894 237.83 22.7955C237.489 22.8939 237.099 22.9811 236.659 23.0568C236.22 23.125 235.792 23.1894 235.375 23.25C234.958 23.303 234.61 23.3485 234.33 23.3864C233.67 23.4697 233.068 23.6098 232.523 23.8068C231.985 24.0038 231.553 24.2879 231.227 24.6591C230.909 25.0227 230.75 25.5076 230.75 26.1136C230.75 26.9545 231.061 27.5909 231.682 28.0227C232.303 28.447 233.095 28.6591 234.057 28.6591ZM246.457 37.5455V13.5455H249.776V16.375H250.06C250.257 16.0114 250.541 15.5909 250.912 15.1136C251.283 14.6364 251.798 14.2197 252.457 13.8636C253.117 13.5 253.988 13.3182 255.071 13.3182C256.48 13.3182 257.738 13.6742 258.844 14.3864C259.95 15.0985 260.817 16.125 261.446 17.4659C262.082 18.8068 262.401 20.4205 262.401 22.3068C262.401 24.1932 262.086 25.8106 261.457 27.1591C260.829 28.5 259.965 29.5341 258.867 30.2614C257.768 30.9811 256.514 31.3409 255.105 31.3409C254.045 31.3409 253.177 31.1629 252.503 30.8068C251.836 30.4508 251.313 30.0341 250.935 29.5568C250.556 29.0795 250.264 28.6553 250.06 28.2841H249.855V37.5455H246.457ZM249.787 22.2727C249.787 23.5 249.965 24.5758 250.321 25.5C250.677 26.4242 251.192 27.1477 251.867 27.6705C252.541 28.1856 253.367 28.4432 254.344 28.4432C255.359 28.4432 256.207 28.1742 256.889 27.6364C257.571 27.0909 258.086 26.3523 258.435 25.4205C258.791 24.4886 258.969 23.4394 258.969 22.2727C258.969 21.1212 258.795 20.0871 258.446 19.1705C258.105 18.2538 257.59 17.5303 256.901 17C256.219 16.4697 255.367 16.2045 254.344 16.2045C253.359 16.2045 252.526 16.4583 251.844 16.9659C251.17 17.4735 250.658 18.1818 250.31 19.0909C249.961 20 249.787 21.0606 249.787 22.2727ZM273.73 31.3523C272.01 31.3523 270.529 30.9848 269.287 30.25C268.052 29.5076 267.098 28.4659 266.423 27.125C265.757 25.7765 265.423 24.197 265.423 22.3864C265.423 20.5985 265.757 19.0227 266.423 17.6591C267.098 16.2955 268.037 15.2311 269.242 14.4659C270.454 13.7008 271.87 13.3182 273.492 13.3182C274.476 13.3182 275.431 13.4811 276.355 13.8068C277.279 14.1326 278.109 14.6439 278.844 15.3409C279.579 16.0379 280.158 16.9432 280.582 18.0568C281.007 19.1629 281.219 20.5076 281.219 22.0909V23.2955H267.344V20.75H277.889C277.889 19.8561 277.707 19.0644 277.344 18.375C276.98 17.678 276.469 17.1288 275.81 16.7273C275.158 16.3258 274.393 16.125 273.514 16.125C272.56 16.125 271.726 16.3598 271.014 16.8295C270.31 17.2917 269.764 17.8977 269.378 18.6477C268.999 19.3902 268.81 20.197 268.81 21.0682V23.0568C268.81 24.2235 269.014 25.2159 269.423 26.0341C269.84 26.8523 270.42 27.4773 271.162 27.9091C271.904 28.3333 272.772 28.5455 273.764 28.5455C274.408 28.5455 274.995 28.4545 275.526 28.2727C276.056 28.0833 276.514 27.803 276.901 27.4318C277.287 27.0606 277.582 26.6023 277.787 26.0568L281.003 26.6364C280.745 27.5833 280.283 28.4129 279.617 29.125C278.957 29.8295 278.128 30.3788 277.128 30.7727C276.135 31.1591 275.003 31.3523 273.73 31.3523ZM284.989 31V13.5455H288.273V16.3182H288.455C288.773 15.3788 289.333 14.6402 290.136 14.1023C290.947 13.5568 291.864 13.2841 292.886 13.2841C293.099 13.2841 293.349 13.2917 293.636 13.3068C293.932 13.322 294.163 13.3409 294.33 13.3636V16.6136C294.193 16.5758 293.951 16.5341 293.602 16.4886C293.254 16.4356 292.905 16.4091 292.557 16.4091C291.754 16.4091 291.038 16.5795 290.409 16.9205C289.788 17.2538 289.295 17.7197 288.932 18.3182C288.568 18.9091 288.386 19.5833 288.386 20.3409V31H284.989ZM320.67 13.5455L314.341 31H310.705L304.364 13.5455H308.011L312.432 26.9773H312.614L317.023 13.5455H320.67ZM331.92 31.3182C330.36 31.3182 328.966 31.0492 327.739 30.5114C326.519 29.9735 325.553 29.2273 324.841 28.2727C324.136 27.3106 323.758 26.197 323.705 24.9318H327.273C327.318 25.6212 327.549 26.2197 327.966 26.7273C328.39 27.2273 328.943 27.6136 329.625 27.8864C330.307 28.1591 331.064 28.2955 331.898 28.2955C332.814 28.2955 333.625 28.1364 334.33 27.8182C335.042 27.5 335.599 27.0568 336 26.4886C336.402 25.9129 336.602 25.25 336.602 24.5C336.602 23.7197 336.402 23.0341 336 22.4432C335.606 21.8447 335.027 21.375 334.261 21.0341C333.504 20.6932 332.587 20.5227 331.511 20.5227H329.545V17.6591H331.511C332.375 17.6591 333.133 17.5038 333.784 17.1932C334.443 16.8826 334.958 16.4508 335.33 15.8977C335.701 15.3371 335.886 14.6818 335.886 13.9318C335.886 13.2121 335.724 12.5871 335.398 12.0568C335.08 11.5189 334.625 11.0985 334.034 10.7955C333.451 10.4924 332.761 10.3409 331.966 10.3409C331.208 10.3409 330.5 10.4811 329.841 10.7614C329.189 11.0341 328.659 11.428 328.25 11.9432C327.841 12.4508 327.621 13.0606 327.591 13.7727H324.193C324.231 12.5152 324.602 11.4091 325.307 10.4545C326.019 9.5 326.958 8.75379 328.125 8.21591C329.292 7.67803 330.587 7.40909 332.011 7.40909C333.504 7.40909 334.792 7.70076 335.875 8.28409C336.966 8.85985 337.807 9.62879 338.398 10.5909C338.996 11.553 339.292 12.6061 339.284 13.75C339.292 15.053 338.928 16.1591 338.193 17.0682C337.466 17.9773 336.496 18.5871 335.284 18.8977V19.0795C336.83 19.3144 338.027 19.928 338.875 20.9205C339.731 21.9129 340.155 23.1439 340.148 24.6136C340.155 25.8939 339.799 27.0417 339.08 28.0568C338.367 29.072 337.394 29.8712 336.159 30.4545C334.924 31.0303 333.511 31.3182 331.92 31.3182ZM93.2131 65.7273C92.2964 65.7273 91.4593 65.5038 90.7017 65.0568C89.9442 64.6023 89.3381 63.9962 88.8836 63.2386C88.4366 62.4811 88.2131 61.6439 88.2131 60.7273C88.2131 59.803 88.4366 58.9659 88.8836 58.2159C89.3381 57.4583 89.9442 56.8561 90.7017 56.4091C91.4593 55.9545 92.2964 55.7273 93.2131 55.7273C94.1374 55.7273 94.9745 55.9545 95.7245 56.4091C96.4821 56.8561 97.0843 57.4583 97.5313 58.2159C97.9858 58.9659 98.2131 59.803 98.2131 60.7273C98.2131 61.6439 97.9858 62.4811 97.5313 63.2386C97.0843 63.9962 96.4821 64.6023 95.7245 65.0568C94.9745 65.5038 94.1374 65.7273 93.2131 65.7273ZM119.761 46.7273H124.023L131.432 64.8182H131.705L139.114 46.7273H143.375V70H140.034V53.1591H139.818L132.955 69.9659H130.182L123.318 53.1477H123.102V70H119.761V46.7273ZM153.287 70.3864C152.181 70.3864 151.181 70.1818 150.287 69.7727C149.393 69.3561 148.685 68.7538 148.162 67.9659C147.647 67.178 147.389 66.2121 147.389 65.0682C147.389 64.0833 147.579 63.2727 147.957 62.6364C148.336 62 148.848 61.4962 149.492 61.125C150.135 60.7538 150.855 60.4735 151.651 60.2841C152.446 60.0947 153.257 59.9508 154.082 59.8523C155.128 59.7311 155.976 59.6326 156.628 59.5568C157.279 59.4735 157.753 59.3409 158.048 59.1591C158.344 58.9773 158.492 58.6818 158.492 58.2727V58.1932C158.492 57.2008 158.211 56.4318 157.651 55.8864C157.098 55.3409 156.272 55.0682 155.173 55.0682C154.029 55.0682 153.128 55.322 152.469 55.8295C151.817 56.3295 151.367 56.8864 151.117 57.5L147.923 56.7727C148.302 55.7121 148.855 54.8561 149.582 54.2045C150.317 53.5455 151.162 53.0682 152.117 52.7727C153.071 52.4697 154.075 52.3182 155.128 52.3182C155.825 52.3182 156.563 52.4015 157.344 52.5682C158.132 52.7273 158.867 53.0227 159.548 53.4545C160.238 53.8864 160.802 54.5038 161.242 55.3068C161.681 56.1023 161.901 57.1364 161.901 58.4091V70H158.582V67.6136H158.446C158.226 68.053 157.897 68.4848 157.457 68.9091C157.018 69.3333 156.454 69.6856 155.764 69.9659C155.075 70.2462 154.249 70.3864 153.287 70.3864ZM154.026 67.6591C154.965 67.6591 155.768 67.4735 156.435 67.1023C157.109 66.7311 157.62 66.2462 157.969 65.6477C158.325 65.0417 158.503 64.3939 158.503 63.7045V61.4545C158.382 61.5758 158.147 61.6894 157.798 61.7955C157.457 61.8939 157.067 61.9811 156.628 62.0568C156.188 62.125 155.76 62.1894 155.344 62.25C154.927 62.303 154.579 62.3485 154.298 62.3864C153.639 62.4697 153.037 62.6098 152.492 62.8068C151.954 63.0038 151.522 63.2879 151.196 63.6591C150.878 64.0227 150.719 64.5076 150.719 65.1136C150.719 65.9545 151.029 66.5909 151.651 67.0227C152.272 67.447 153.063 67.6591 154.026 67.6591ZM166.426 70V52.5455H169.71V55.3182H169.892C170.21 54.3788 170.771 53.6402 171.574 53.1023C172.385 52.5568 173.301 52.2841 174.324 52.2841C174.536 52.2841 174.786 52.2917 175.074 52.3068C175.369 52.322 175.6 52.3409 175.767 52.3636V55.6136C175.631 55.5758 175.388 55.5341 175.04 55.4886C174.691 55.4356 174.343 55.4091 173.994 55.4091C173.191 55.4091 172.475 55.5795 171.847 55.9205C171.225 56.2538 170.733 56.7197 170.369 57.3182C170.006 57.9091 169.824 58.5833 169.824 59.3409V70H166.426ZM185.401 76.9091C184.014 76.9091 182.821 76.7273 181.821 76.3636C180.829 76 180.018 75.5189 179.389 74.9205C178.76 74.322 178.291 73.6667 177.98 72.9545L180.901 71.75C181.105 72.0833 181.378 72.4356 181.719 72.8068C182.067 73.1856 182.537 73.5076 183.128 73.7727C183.726 74.0379 184.495 74.1705 185.435 74.1705C186.723 74.1705 187.787 73.8561 188.628 73.2273C189.469 72.6061 189.889 71.6136 189.889 70.25V66.8182H189.673C189.469 67.1894 189.173 67.6023 188.787 68.0568C188.408 68.5114 187.885 68.9053 187.219 69.2386C186.552 69.572 185.685 69.7386 184.617 69.7386C183.238 69.7386 181.995 69.4167 180.889 68.7727C179.791 68.1212 178.92 67.1629 178.276 65.8977C177.639 64.625 177.321 63.0606 177.321 61.2045C177.321 59.3485 177.635 57.7576 178.264 56.4318C178.901 55.1061 179.772 54.0909 180.878 53.3864C181.984 52.6742 183.238 52.3182 184.639 52.3182C185.723 52.3182 186.598 52.5 187.264 52.8636C187.931 53.2197 188.45 53.6364 188.821 54.1136C189.2 54.5909 189.492 55.0114 189.696 55.375H189.946V52.5455H193.276V70.3864C193.276 71.8864 192.927 73.1174 192.23 74.0795C191.533 75.0417 190.59 75.7538 189.401 76.2159C188.219 76.678 186.885 76.9091 185.401 76.9091ZM185.367 66.9205C186.344 66.9205 187.17 66.6932 187.844 66.2386C188.526 65.7765 189.041 65.1174 189.389 64.2614C189.745 63.3977 189.923 62.3636 189.923 61.1591C189.923 59.9848 189.749 58.9508 189.401 58.0568C189.052 57.1629 188.541 56.4659 187.867 55.9659C187.192 55.4583 186.359 55.2045 185.367 55.2045C184.344 55.2045 183.492 55.4697 182.81 56C182.128 56.5227 181.613 57.2348 181.264 58.1364C180.923 59.0379 180.753 60.0455 180.753 61.1591C180.753 62.303 180.927 63.3068 181.276 64.1705C181.624 65.0341 182.139 65.7083 182.821 66.1932C183.51 66.678 184.359 66.9205 185.367 66.9205ZM197.832 70V52.5455H201.23V70H197.832ZM199.548 49.8523C198.957 49.8523 198.45 49.6553 198.026 49.2614C197.609 48.8598 197.401 48.3826 197.401 47.8295C197.401 47.2689 197.609 46.7917 198.026 46.3977C198.45 45.9962 198.957 45.7955 199.548 45.7955C200.139 45.7955 200.643 45.9962 201.06 46.3977C201.484 46.7917 201.696 47.2689 201.696 47.8295C201.696 48.3826 201.484 48.8598 201.06 49.2614C200.643 49.6553 200.139 49.8523 199.548 49.8523ZM209.199 59.6364V70H205.801V52.5455H209.063V55.3864H209.278C209.68 54.4621 210.309 53.7197 211.165 53.1591C212.028 52.5985 213.116 52.3182 214.426 52.3182C215.616 52.3182 216.657 52.5682 217.551 53.0682C218.445 53.5606 219.138 54.2955 219.631 55.2727C220.123 56.25 220.369 57.4583 220.369 58.8977V70H216.972V59.3068C216.972 58.0417 216.642 57.053 215.983 56.3409C215.324 55.6212 214.419 55.2614 213.267 55.2614C212.479 55.2614 211.778 55.4318 211.165 55.7727C210.559 56.1136 210.078 56.6136 209.722 57.2727C209.373 57.9242 209.199 58.7121 209.199 59.6364ZM232.52 49.75V46.7273H250.531V49.75H243.27V70H239.77V49.75H232.52ZM252.426 70V52.5455H255.71V55.3182H255.892C256.21 54.3788 256.771 53.6402 257.574 53.1023C258.385 52.5568 259.301 52.2841 260.324 52.2841C260.536 52.2841 260.786 52.2917 261.074 52.3068C261.369 52.322 261.6 52.3409 261.767 52.3636V55.6136C261.631 55.5758 261.388 55.5341 261.04 55.4886C260.691 55.4356 260.343 55.4091 259.994 55.4091C259.191 55.4091 258.475 55.5795 257.847 55.9205C257.225 56.2538 256.733 56.7197 256.369 57.3182C256.006 57.9091 255.824 58.5833 255.824 59.3409V70H252.426ZM269.631 70.3864C268.525 70.3864 267.525 70.1818 266.631 69.7727C265.737 69.3561 265.028 68.7538 264.506 67.9659C263.991 67.178 263.733 66.2121 263.733 65.0682C263.733 64.0833 263.922 63.2727 264.301 62.6364C264.68 62 265.191 61.4962 265.835 61.125C266.479 60.7538 267.199 60.4735 267.994 60.2841C268.79 60.0947 269.6 59.9508 270.426 59.8523C271.472 59.7311 272.32 59.6326 272.972 59.5568C273.623 59.4735 274.097 59.3409 274.392 59.1591C274.688 58.9773 274.835 58.6818 274.835 58.2727V58.1932C274.835 57.2008 274.555 56.4318 273.994 55.8864C273.441 55.3409 272.616 55.0682 271.517 55.0682C270.373 55.0682 269.472 55.322 268.813 55.8295C268.161 56.3295 267.71 56.8864 267.46 57.5L264.267 56.7727C264.646 55.7121 265.199 54.8561 265.926 54.2045C266.661 53.5455 267.506 53.0682 268.46 52.7727C269.415 52.4697 270.419 52.3182 271.472 52.3182C272.169 52.3182 272.907 52.4015 273.688 52.5682C274.475 52.7273 275.21 53.0227 275.892 53.4545C276.581 53.8864 277.146 54.5038 277.585 55.3068C278.025 56.1023 278.244 57.1364 278.244 58.4091V70H274.926V67.6136H274.79C274.57 68.053 274.241 68.4848 273.801 68.9091C273.362 69.3333 272.797 69.6856 272.108 69.9659C271.419 70.2462 270.593 70.3864 269.631 70.3864ZM270.369 67.6591C271.309 67.6591 272.112 67.4735 272.778 67.1023C273.453 66.7311 273.964 66.2462 274.313 65.6477C274.669 65.0417 274.847 64.3939 274.847 63.7045V61.4545C274.725 61.5758 274.491 61.6894 274.142 61.7955C273.801 61.8939 273.411 61.9811 272.972 62.0568C272.532 62.125 272.104 62.1894 271.688 62.25C271.271 62.303 270.922 62.3485 270.642 62.3864C269.983 62.4697 269.381 62.6098 268.835 62.8068C268.297 63.0038 267.866 63.2879 267.54 63.6591C267.222 64.0227 267.063 64.5076 267.063 65.1136C267.063 65.9545 267.373 66.5909 267.994 67.0227C268.616 67.447 269.407 67.6591 270.369 67.6591ZM289.304 70.3409C287.895 70.3409 286.637 69.9811 285.531 69.2614C284.433 68.5341 283.569 67.5 282.94 66.1591C282.319 64.8106 282.009 63.1932 282.009 61.3068C282.009 59.4205 282.323 57.8068 282.952 56.4659C283.588 55.125 284.459 54.0985 285.565 53.3864C286.671 52.6742 287.925 52.3182 289.327 52.3182C290.41 52.3182 291.281 52.5 291.94 52.8636C292.607 53.2197 293.122 53.6364 293.486 54.1136C293.857 54.5909 294.145 55.0114 294.349 55.375H294.554V46.7273H297.952V70H294.634V67.2841H294.349C294.145 67.6553 293.849 68.0795 293.463 68.5568C293.084 69.0341 292.562 69.4508 291.895 69.8068C291.228 70.1629 290.365 70.3409 289.304 70.3409ZM290.054 67.4432C291.031 67.4432 291.857 67.1856 292.531 66.6705C293.213 66.1477 293.728 65.4242 294.077 64.5C294.433 63.5758 294.611 62.5 294.611 61.2727C294.611 60.0606 294.437 59 294.088 58.0909C293.74 57.1818 293.228 56.4735 292.554 55.9659C291.88 55.4583 291.046 55.2045 290.054 55.2045C289.031 55.2045 288.179 55.4697 287.497 56C286.815 56.5303 286.3 57.2538 285.952 58.1705C285.611 59.0871 285.44 60.1212 285.44 61.2727C285.44 62.4394 285.615 63.4886 285.963 64.4205C286.312 65.3523 286.827 66.0909 287.509 66.6364C288.198 67.1742 289.046 67.4432 290.054 67.4432ZM310.324 70.3523C308.604 70.3523 307.123 69.9848 305.881 69.25C304.646 68.5076 303.691 67.4659 303.017 66.125C302.35 64.7765 302.017 63.197 302.017 61.3864C302.017 59.5985 302.35 58.0227 303.017 56.6591C303.691 55.2955 304.631 54.2311 305.835 53.4659C307.047 52.7008 308.464 52.3182 310.085 52.3182C311.07 52.3182 312.025 52.4811 312.949 52.8068C313.873 53.1326 314.703 53.6439 315.438 54.3409C316.172 55.0379 316.752 55.9432 317.176 57.0568C317.6 58.1629 317.813 59.5076 317.813 61.0909V62.2955H303.938V59.75H314.483C314.483 58.8561 314.301 58.0644 313.938 57.375C313.574 56.678 313.063 56.1288 312.403 55.7273C311.752 55.3258 310.987 55.125 310.108 55.125C309.153 55.125 308.32 55.3598 307.608 55.8295C306.903 56.2917 306.358 56.8977 305.972 57.6477C305.593 58.3902 305.403 59.197 305.403 60.0682V62.0568C305.403 63.2235 305.608 64.2159 306.017 65.0341C306.434 65.8523 307.013 66.4773 307.756 66.9091C308.498 67.3333 309.366 67.5455 310.358 67.5455C311.002 67.5455 311.589 67.4545 312.119 67.2727C312.65 67.0833 313.108 66.803 313.494 66.4318C313.881 66.0606 314.176 65.6023 314.381 65.0568L317.597 65.6364C317.339 66.5833 316.877 67.4129 316.21 68.125C315.551 68.8295 314.722 69.3788 313.722 69.7727C312.729 70.1591 311.597 70.3523 310.324 70.3523ZM333.835 70L328.699 52.5455H332.21L335.631 65.3636H335.801L339.233 52.5455H342.744L346.153 65.3068H346.324L349.722 52.5455H353.233L348.108 70H344.642L341.097 57.3977H340.835L337.29 70H333.835ZM356.457 70V52.5455H359.855V70H356.457ZM358.173 49.8523C357.582 49.8523 357.075 49.6553 356.651 49.2614C356.234 48.8598 356.026 48.3826 356.026 47.8295C356.026 47.2689 356.234 46.7917 356.651 46.3977C357.075 45.9962 357.582 45.7955 358.173 45.7955C358.764 45.7955 359.268 45.9962 359.685 46.3977C360.109 46.7917 360.321 47.2689 360.321 47.8295C360.321 48.3826 360.109 48.8598 359.685 49.2614C359.268 49.6553 358.764 49.8523 358.173 49.8523ZM372.574 52.5455V55.2727H363.04V52.5455H372.574ZM365.597 48.3636H368.994V64.875C368.994 65.5341 369.093 66.0303 369.29 66.3636C369.487 66.6894 369.741 66.9129 370.051 67.0341C370.369 67.1477 370.714 67.2045 371.085 67.2045C371.358 67.2045 371.597 67.1856 371.801 67.1477C372.006 67.1098 372.165 67.0795 372.278 67.0568L372.892 69.8636C372.695 69.9394 372.415 70.0152 372.051 70.0909C371.688 70.1742 371.233 70.2197 370.688 70.2273C369.794 70.2424 368.96 70.0833 368.188 69.75C367.415 69.4167 366.79 68.9015 366.313 68.2045C365.835 67.5076 365.597 66.6326 365.597 65.5795V48.3636ZM380.105 59.6364V70H376.707V46.7273H380.06V55.3864H380.276C380.685 54.447 381.31 53.7008 382.151 53.1477C382.992 52.5947 384.09 52.3182 385.446 52.3182C386.643 52.3182 387.688 52.5644 388.582 53.0568C389.484 53.5492 390.181 54.2841 390.673 55.2614C391.173 56.2311 391.423 57.4432 391.423 58.8977V70H388.026V59.3068C388.026 58.0265 387.696 57.0341 387.037 56.3295C386.378 55.6174 385.461 55.2614 384.287 55.2614C383.484 55.2614 382.764 55.4318 382.128 55.7727C381.499 56.1136 381.003 56.6136 380.639 57.2727C380.283 57.9242 380.105 58.7121 380.105 59.6364ZM404.699 70V46.7273H408.21V66.9773H418.756V70H404.699ZM429.841 70.3523C428.205 70.3523 426.777 69.9773 425.557 69.2273C424.337 68.4773 423.39 67.428 422.716 66.0795C422.042 64.7311 421.705 63.1553 421.705 61.3523C421.705 59.5417 422.042 57.9583 422.716 56.6023C423.39 55.2462 424.337 54.1932 425.557 53.4432C426.777 52.6932 428.205 52.3182 429.841 52.3182C431.477 52.3182 432.905 52.6932 434.125 53.4432C435.345 54.1932 436.292 55.2462 436.966 56.6023C437.64 57.9583 437.977 59.5417 437.977 61.3523C437.977 63.1553 437.64 64.7311 436.966 66.0795C436.292 67.428 435.345 68.4773 434.125 69.2273C432.905 69.9773 431.477 70.3523 429.841 70.3523ZM429.852 67.5C430.913 67.5 431.792 67.2197 432.489 66.6591C433.186 66.0985 433.701 65.3523 434.034 64.4205C434.375 63.4886 434.545 62.4621 434.545 61.3409C434.545 60.2273 434.375 59.2045 434.034 58.2727C433.701 57.3333 433.186 56.5795 432.489 56.0114C431.792 55.4432 430.913 55.1591 429.852 55.1591C428.784 55.1591 427.898 55.4432 427.193 56.0114C426.496 56.5795 425.977 57.3333 425.636 58.2727C425.303 59.2045 425.136 60.2273 425.136 61.3409C425.136 62.4621 425.303 63.4886 425.636 64.4205C425.977 65.3523 426.496 66.0985 427.193 66.6591C427.898 67.2197 428.784 67.5 429.852 67.5ZM445.168 59.6364V70H441.77V52.5455H445.031V55.3864H445.247C445.649 54.4621 446.278 53.7197 447.134 53.1591C447.997 52.5985 449.084 52.3182 450.395 52.3182C451.584 52.3182 452.626 52.5682 453.52 53.0682C454.414 53.5606 455.107 54.2955 455.599 55.2727C456.092 56.25 456.338 57.4583 456.338 58.8977V70H452.94V59.3068C452.94 58.0417 452.611 57.053 451.952 56.3409C451.293 55.6212 450.387 55.2614 449.236 55.2614C448.448 55.2614 447.747 55.4318 447.134 55.7727C446.528 56.1136 446.046 56.6136 445.69 57.2727C445.342 57.9242 445.168 58.7121 445.168 59.6364ZM468.213 76.9091C466.827 76.9091 465.634 76.7273 464.634 76.3636C463.641 76 462.831 75.5189 462.202 74.9205C461.573 74.322 461.103 73.6667 460.793 72.9545L463.713 71.75C463.918 72.0833 464.19 72.4356 464.531 72.8068C464.88 73.1856 465.349 73.5076 465.94 73.7727C466.539 74.0379 467.308 74.1705 468.247 74.1705C469.535 74.1705 470.599 73.8561 471.44 73.2273C472.281 72.6061 472.702 71.6136 472.702 70.25V66.8182H472.486C472.281 67.1894 471.986 67.6023 471.599 68.0568C471.221 68.5114 470.698 68.9053 470.031 69.2386C469.365 69.572 468.497 69.7386 467.429 69.7386C466.05 69.7386 464.808 69.4167 463.702 68.7727C462.603 68.1212 461.732 67.1629 461.088 65.8977C460.452 64.625 460.134 63.0606 460.134 61.2045C460.134 59.3485 460.448 57.7576 461.077 56.4318C461.713 55.1061 462.584 54.0909 463.69 53.3864C464.796 52.6742 466.05 52.3182 467.452 52.3182C468.535 52.3182 469.41 52.5 470.077 52.8636C470.743 53.2197 471.262 53.6364 471.634 54.1136C472.012 54.5909 472.304 55.0114 472.509 55.375H472.759V52.5455H476.088V70.3864C476.088 71.8864 475.74 73.1174 475.043 74.0795C474.346 75.0417 473.403 75.7538 472.213 76.2159C471.031 76.678 469.698 76.9091 468.213 76.9091ZM468.179 66.9205C469.156 66.9205 469.982 66.6932 470.656 66.2386C471.338 65.7765 471.853 65.1174 472.202 64.2614C472.558 63.3977 472.736 62.3636 472.736 61.1591C472.736 59.9848 472.562 58.9508 472.213 58.0568C471.865 57.1629 471.353 56.4659 470.679 55.9659C470.005 55.4583 469.171 55.2045 468.179 55.2045C467.156 55.2045 466.304 55.4697 465.622 56C464.94 56.5227 464.425 57.2348 464.077 58.1364C463.736 59.0379 463.565 60.0455 463.565 61.1591C463.565 62.303 463.74 63.3068 464.088 64.1705C464.437 65.0341 464.952 65.7083 465.634 66.1932C466.323 66.678 467.171 66.9205 468.179 66.9205ZM494.193 70.3864C493.087 70.3864 492.087 70.1818 491.193 69.7727C490.299 69.3561 489.591 68.7538 489.068 67.9659C488.553 67.178 488.295 66.2121 488.295 65.0682C488.295 64.0833 488.485 63.2727 488.864 62.6364C489.242 62 489.754 61.4962 490.398 61.125C491.042 60.7538 491.761 60.4735 492.557 60.2841C493.352 60.0947 494.163 59.9508 494.989 59.8523C496.034 59.7311 496.883 59.6326 497.534 59.5568C498.186 59.4735 498.659 59.3409 498.955 59.1591C499.25 58.9773 499.398 58.6818 499.398 58.2727V58.1932C499.398 57.2008 499.117 56.4318 498.557 55.8864C498.004 55.3409 497.178 55.0682 496.08 55.0682C494.936 55.0682 494.034 55.322 493.375 55.8295C492.724 56.3295 492.273 56.8864 492.023 57.5L488.83 56.7727C489.208 55.7121 489.761 54.8561 490.489 54.2045C491.224 53.5455 492.068 53.0682 493.023 52.7727C493.977 52.4697 494.981 52.3182 496.034 52.3182C496.731 52.3182 497.47 52.4015 498.25 52.5682C499.038 52.7273 499.773 53.0227 500.455 53.4545C501.144 53.8864 501.708 54.5038 502.148 55.3068C502.587 56.1023 502.807 57.1364 502.807 58.4091V70H499.489V67.6136H499.352C499.133 68.053 498.803 68.4848 498.364 68.9091C497.924 69.3333 497.36 69.6856 496.67 69.9659C495.981 70.2462 495.155 70.3864 494.193 70.3864ZM494.932 67.6591C495.871 67.6591 496.674 67.4735 497.341 67.1023C498.015 66.7311 498.527 66.2462 498.875 65.6477C499.231 65.0417 499.409 64.3939 499.409 63.7045V61.4545C499.288 61.5758 499.053 61.6894 498.705 61.7955C498.364 61.8939 497.974 61.9811 497.534 62.0568C497.095 62.125 496.667 62.1894 496.25 62.25C495.833 62.303 495.485 62.3485 495.205 62.3864C494.545 62.4697 493.943 62.6098 493.398 62.8068C492.86 63.0038 492.428 63.2879 492.102 63.6591C491.784 64.0227 491.625 64.5076 491.625 65.1136C491.625 65.9545 491.936 66.5909 492.557 67.0227C493.178 67.447 493.97 67.6591 494.932 67.6591ZM510.73 59.6364V70H507.332V52.5455H510.594V55.3864H510.81C511.211 54.4621 511.84 53.7197 512.696 53.1591C513.56 52.5985 514.647 52.3182 515.957 52.3182C517.147 52.3182 518.188 52.5682 519.082 53.0682C519.976 53.5606 520.67 54.2955 521.162 55.2727C521.654 56.25 521.901 57.4583 521.901 58.8977V70H518.503V59.3068C518.503 58.0417 518.173 57.053 517.514 56.3409C516.855 55.6212 515.95 55.2614 514.798 55.2614C514.01 55.2614 513.31 55.4318 512.696 55.7727C512.09 56.1136 511.609 56.6136 511.253 57.2727C510.904 57.9242 510.73 58.7121 510.73 59.6364ZM532.992 70.3409C531.582 70.3409 530.325 69.9811 529.219 69.2614C528.12 68.5341 527.257 67.5 526.628 66.1591C526.007 64.8106 525.696 63.1932 525.696 61.3068C525.696 59.4205 526.01 57.8068 526.639 56.4659C527.276 55.125 528.147 54.0985 529.253 53.3864C530.359 52.6742 531.613 52.3182 533.014 52.3182C534.098 52.3182 534.969 52.5 535.628 52.8636C536.295 53.2197 536.81 53.6364 537.173 54.1136C537.545 54.5909 537.832 55.0114 538.037 55.375H538.242V46.7273H541.639V70H538.321V67.2841H538.037C537.832 67.6553 537.537 68.0795 537.151 68.5568C536.772 69.0341 536.249 69.4508 535.582 69.8068C534.916 70.1629 534.052 70.3409 532.992 70.3409ZM533.742 67.4432C534.719 67.4432 535.545 67.1856 536.219 66.6705C536.901 66.1477 537.416 65.4242 537.764 64.5C538.12 63.5758 538.298 62.5 538.298 61.2727C538.298 60.0606 538.124 59 537.776 58.0909C537.427 57.1818 536.916 56.4735 536.242 55.9659C535.567 55.4583 534.734 55.2045 533.742 55.2045C532.719 55.2045 531.867 55.4697 531.185 56C530.503 56.5303 529.988 57.2538 529.639 58.1705C529.298 59.0871 529.128 60.1212 529.128 61.2727C529.128 62.4394 529.302 63.4886 529.651 64.4205C529.999 65.3523 530.514 66.0909 531.196 66.6364C531.885 67.1742 532.734 67.4432 533.742 67.4432ZM567.923 52.8409C567.802 51.7652 567.302 50.9318 566.423 50.3409C565.545 49.7424 564.438 49.4432 563.105 49.4432C562.151 49.4432 561.325 49.5947 560.628 49.8977C559.931 50.1932 559.389 50.6023 559.003 51.125C558.624 51.6402 558.435 52.2273 558.435 52.8864C558.435 53.4394 558.563 53.9167 558.821 54.3182C559.086 54.7197 559.431 55.0568 559.855 55.3295C560.287 55.5947 560.749 55.8182 561.242 56C561.734 56.1742 562.207 56.3182 562.662 56.4318L564.935 57.0227C565.677 57.2045 566.438 57.4508 567.219 57.7614C567.999 58.072 568.723 58.4811 569.389 58.9886C570.056 59.4962 570.594 60.125 571.003 60.875C571.42 61.625 571.628 62.5227 571.628 63.5682C571.628 64.8864 571.287 66.0568 570.605 67.0795C569.931 68.1023 568.95 68.9091 567.662 69.5C566.382 70.0909 564.832 70.3864 563.014 70.3864C561.272 70.3864 559.764 70.1098 558.492 69.5568C557.219 69.0038 556.223 68.2197 555.503 67.2045C554.783 66.1818 554.385 64.9697 554.31 63.5682H557.832C557.901 64.4091 558.173 65.1098 558.651 65.6705C559.135 66.2235 559.753 66.6364 560.503 66.9091C561.26 67.1742 562.09 67.3068 562.992 67.3068C563.984 67.3068 564.867 67.1515 565.639 66.8409C566.42 66.5227 567.033 66.0833 567.48 65.5227C567.927 64.9545 568.151 64.2917 568.151 63.5341C568.151 62.8447 567.954 62.2803 567.56 61.8409C567.173 61.4015 566.647 61.0379 565.98 60.75C565.321 60.4621 564.575 60.2083 563.742 59.9886L560.992 59.2386C559.128 58.7311 557.651 57.9848 556.56 57C555.476 56.0152 554.935 54.7121 554.935 53.0909C554.935 51.75 555.298 50.5795 556.026 49.5795C556.753 48.5795 557.738 47.803 558.98 47.25C560.223 46.6894 561.624 46.4091 563.185 46.4091C564.76 46.4091 566.151 46.6856 567.355 47.2386C568.567 47.7917 569.522 48.553 570.219 49.5227C570.916 50.4848 571.279 51.5909 571.31 52.8409H567.923ZM582.903 70.3523C581.267 70.3523 579.839 69.9773 578.619 69.2273C577.4 68.4773 576.453 67.428 575.778 66.0795C575.104 64.7311 574.767 63.1553 574.767 61.3523C574.767 59.5417 575.104 57.9583 575.778 56.6023C576.453 55.2462 577.4 54.1932 578.619 53.4432C579.839 52.6932 581.267 52.3182 582.903 52.3182C584.54 52.3182 585.968 52.6932 587.188 53.4432C588.407 54.1932 589.354 55.2462 590.028 56.6023C590.703 57.9583 591.04 59.5417 591.04 61.3523C591.04 63.1553 590.703 64.7311 590.028 66.0795C589.354 67.428 588.407 68.4773 587.188 69.2273C585.968 69.9773 584.54 70.3523 582.903 70.3523ZM582.915 67.5C583.975 67.5 584.854 67.2197 585.551 66.6591C586.248 66.0985 586.763 65.3523 587.097 64.4205C587.438 63.4886 587.608 62.4621 587.608 61.3409C587.608 60.2273 587.438 59.2045 587.097 58.2727C586.763 57.3333 586.248 56.5795 585.551 56.0114C584.854 55.4432 583.975 55.1591 582.915 55.1591C581.847 55.1591 580.96 55.4432 580.256 56.0114C579.559 56.5795 579.04 57.3333 578.699 58.2727C578.366 59.2045 578.199 60.2273 578.199 61.3409C578.199 62.4621 578.366 63.4886 578.699 64.4205C579.04 65.3523 579.559 66.0985 580.256 66.6591C580.96 67.2197 581.847 67.5 582.915 67.5ZM594.832 70V52.5455H598.117V55.3182H598.298C598.617 54.3788 599.177 53.6402 599.98 53.1023C600.791 52.5568 601.707 52.2841 602.73 52.2841C602.942 52.2841 603.192 52.2917 603.48 52.3068C603.776 52.322 604.007 52.3409 604.173 52.3636V55.6136C604.037 55.5758 603.795 55.5341 603.446 55.4886C603.098 55.4356 602.749 55.4091 602.401 55.4091C601.598 55.4091 600.882 55.5795 600.253 55.9205C599.632 56.2538 599.139 56.7197 598.776 57.3182C598.412 57.9091 598.23 58.5833 598.23 59.3409V70H594.832ZM616.293 52.5455V55.2727H606.759V52.5455H616.293ZM609.315 48.3636H612.713V64.875C612.713 65.5341 612.812 66.0303 613.009 66.3636C613.206 66.6894 613.459 66.9129 613.77 67.0341C614.088 67.1477 614.433 67.2045 614.804 67.2045C615.077 67.2045 615.315 67.1856 615.52 67.1477C615.724 67.1098 615.884 67.0795 615.997 67.0568L616.611 69.8636C616.414 69.9394 616.134 70.0152 615.77 70.0909C615.406 70.1742 614.952 70.2197 614.406 70.2273C613.512 70.2424 612.679 70.0833 611.906 69.75C611.134 69.4167 610.509 68.9015 610.031 68.2045C609.554 67.5076 609.315 66.6326 609.315 65.5795V48.3636ZM134.727 85.7273H138.25V101.034C138.25 102.663 137.867 104.106 137.102 105.364C136.337 106.614 135.261 107.598 133.875 108.318C132.489 109.03 130.864 109.386 129 109.386C127.144 109.386 125.523 109.03 124.136 108.318C122.75 107.598 121.674 106.614 120.909 105.364C120.144 104.106 119.761 102.663 119.761 101.034V85.7273H123.273V100.75C123.273 101.803 123.504 102.739 123.966 103.557C124.436 104.375 125.099 105.019 125.955 105.489C126.811 105.951 127.826 106.182 129 106.182C130.182 106.182 131.201 105.951 132.057 105.489C132.92 105.019 133.58 104.375 134.034 103.557C134.496 102.739 134.727 101.803 134.727 100.75V85.7273ZM143.082 115.545V91.5455H146.401V94.375H146.685C146.882 94.0114 147.166 93.5909 147.537 93.1136C147.908 92.6364 148.423 92.2197 149.082 91.8636C149.742 91.5 150.613 91.3182 151.696 91.3182C153.105 91.3182 154.363 91.6742 155.469 92.3864C156.575 93.0985 157.442 94.125 158.071 95.4659C158.707 96.8068 159.026 98.4205 159.026 100.307C159.026 102.193 158.711 103.811 158.082 105.159C157.454 106.5 156.59 107.534 155.492 108.261C154.393 108.981 153.139 109.341 151.73 109.341C150.67 109.341 149.802 109.163 149.128 108.807C148.461 108.451 147.938 108.034 147.56 107.557C147.181 107.08 146.889 106.655 146.685 106.284H146.48V115.545H143.082ZM146.412 100.273C146.412 101.5 146.59 102.576 146.946 103.5C147.302 104.424 147.817 105.148 148.492 105.67C149.166 106.186 149.992 106.443 150.969 106.443C151.984 106.443 152.832 106.174 153.514 105.636C154.196 105.091 154.711 104.352 155.06 103.42C155.416 102.489 155.594 101.439 155.594 100.273C155.594 99.1212 155.42 98.0871 155.071 97.1705C154.73 96.2538 154.215 95.5303 153.526 95C152.844 94.4697 151.992 94.2045 150.969 94.2045C149.984 94.2045 149.151 94.4583 148.469 94.9659C147.795 95.4735 147.283 96.1818 146.935 97.0909C146.586 98 146.412 99.0606 146.412 100.273ZM170.98 91.5455V94.2727H161.446V91.5455H170.98ZM164.003 87.3636H167.401V103.875C167.401 104.534 167.499 105.03 167.696 105.364C167.893 105.689 168.147 105.913 168.457 106.034C168.776 106.148 169.12 106.205 169.492 106.205C169.764 106.205 170.003 106.186 170.207 106.148C170.412 106.11 170.571 106.08 170.685 106.057L171.298 108.864C171.101 108.939 170.821 109.015 170.457 109.091C170.094 109.174 169.639 109.22 169.094 109.227C168.2 109.242 167.367 109.083 166.594 108.75C165.821 108.417 165.196 107.902 164.719 107.205C164.242 106.508 164.003 105.633 164.003 104.58V87.3636ZM181.903 109.352C180.267 109.352 178.839 108.977 177.619 108.227C176.4 107.477 175.453 106.428 174.778 105.08C174.104 103.731 173.767 102.155 173.767 100.352C173.767 98.5417 174.104 96.9583 174.778 95.6023C175.453 94.2462 176.4 93.1932 177.619 92.4432C178.839 91.6932 180.267 91.3182 181.903 91.3182C183.54 91.3182 184.968 91.6932 186.188 92.4432C187.407 93.1932 188.354 94.2462 189.028 95.6023C189.703 96.9583 190.04 98.5417 190.04 100.352C190.04 102.155 189.703 103.731 189.028 105.08C188.354 106.428 187.407 107.477 186.188 108.227C184.968 108.977 183.54 109.352 181.903 109.352ZM181.915 106.5C182.975 106.5 183.854 106.22 184.551 105.659C185.248 105.098 185.763 104.352 186.097 103.42C186.438 102.489 186.608 101.462 186.608 100.341C186.608 99.2273 186.438 98.2045 186.097 97.2727C185.763 96.3333 185.248 95.5795 184.551 95.0114C183.854 94.4432 182.975 94.1591 181.915 94.1591C180.847 94.1591 179.96 94.4432 179.256 95.0114C178.559 95.5795 178.04 96.3333 177.699 97.2727C177.366 98.2045 177.199 99.2273 177.199 100.341C177.199 101.462 177.366 102.489 177.699 103.42C178.04 104.352 178.559 105.098 179.256 105.659C179.96 106.22 180.847 106.5 181.915 106.5ZM211.085 85.7273V109H207.563V89.25H207.426L201.858 92.8864V89.5227L207.665 85.7273H211.085ZM225.483 109.386C223.688 109.379 222.153 108.905 220.881 107.966C219.608 107.027 218.635 105.659 217.96 103.864C217.286 102.068 216.949 99.9053 216.949 97.375C216.949 94.8523 217.286 92.697 217.96 90.9091C218.642 89.1212 219.619 87.7576 220.892 86.8182C222.172 85.8788 223.703 85.4091 225.483 85.4091C227.263 85.4091 228.79 85.8826 230.063 86.8295C231.335 87.7689 232.309 89.1326 232.983 90.9205C233.665 92.7008 234.006 94.8523 234.006 97.375C234.006 99.9129 233.669 102.08 232.994 103.875C232.32 105.663 231.347 107.03 230.074 107.977C228.801 108.917 227.271 109.386 225.483 109.386ZM225.483 106.352C227.059 106.352 228.29 105.583 229.176 104.045C230.07 102.508 230.517 100.284 230.517 97.375C230.517 95.4432 230.313 93.8106 229.903 92.4773C229.502 91.1364 228.922 90.1212 228.165 89.4318C227.415 88.7348 226.521 88.3864 225.483 88.3864C223.915 88.3864 222.684 89.1591 221.79 90.7045C220.896 92.25 220.445 94.4735 220.438 97.375C220.438 99.3144 220.638 100.955 221.04 102.295C221.449 103.629 222.028 104.64 222.778 105.33C223.528 106.011 224.43 106.352 225.483 106.352ZM240.798 85.7273L246.367 94.8295H246.548L252.117 85.7273H256.185L248.935 97.3636L256.23 109H252.139L246.548 100.023H246.367L240.776 109H236.685L244.105 97.3636L236.73 85.7273H240.798ZM268.136 109V85.7273H271.648V105.977H282.193V109H268.136ZM293.449 109.352C291.729 109.352 290.248 108.985 289.006 108.25C287.771 107.508 286.816 106.466 286.142 105.125C285.475 103.777 285.142 102.197 285.142 100.386C285.142 98.5985 285.475 97.0227 286.142 95.6591C286.816 94.2955 287.756 93.2311 288.96 92.4659C290.172 91.7008 291.589 91.3182 293.21 91.3182C294.195 91.3182 295.15 91.4811 296.074 91.8068C296.998 92.1326 297.828 92.6439 298.563 93.3409C299.297 94.0379 299.877 94.9432 300.301 96.0568C300.725 97.1629 300.938 98.5076 300.938 100.091V101.295H287.063V98.75H297.608C297.608 97.8561 297.426 97.0644 297.063 96.375C296.699 95.678 296.188 95.1288 295.528 94.7273C294.877 94.3258 294.112 94.125 293.233 94.125C292.278 94.125 291.445 94.3598 290.733 94.8295C290.028 95.2917 289.483 95.8977 289.097 96.6477C288.718 97.3902 288.528 98.197 288.528 99.0682V101.057C288.528 102.223 288.733 103.216 289.142 104.034C289.559 104.852 290.138 105.477 290.881 105.909C291.623 106.333 292.491 106.545 293.483 106.545C294.127 106.545 294.714 106.455 295.244 106.273C295.775 106.083 296.233 105.803 296.619 105.432C297.006 105.061 297.301 104.602 297.506 104.057L300.722 104.636C300.464 105.583 300.002 106.413 299.335 107.125C298.676 107.83 297.847 108.379 296.847 108.773C295.854 109.159 294.722 109.352 293.449 109.352ZM319.139 91.5455L312.81 109H309.173L302.832 91.5455H306.48L310.901 104.977H311.082L315.492 91.5455H319.139ZM329.261 109.352C327.542 109.352 326.061 108.985 324.818 108.25C323.583 107.508 322.629 106.466 321.955 105.125C321.288 103.777 320.955 102.197 320.955 100.386C320.955 98.5985 321.288 97.0227 321.955 95.6591C322.629 94.2955 323.568 93.2311 324.773 92.4659C325.985 91.7008 327.402 91.3182 329.023 91.3182C330.008 91.3182 330.962 91.4811 331.886 91.8068C332.811 92.1326 333.64 92.6439 334.375 93.3409C335.11 94.0379 335.689 94.9432 336.114 96.0568C336.538 97.1629 336.75 98.5076 336.75 100.091V101.295H322.875V98.75H333.42C333.42 97.8561 333.239 97.0644 332.875 96.375C332.511 95.678 332 95.1288 331.341 94.7273C330.689 94.3258 329.924 94.125 329.045 94.125C328.091 94.125 327.258 94.3598 326.545 94.8295C325.841 95.2917 325.295 95.8977 324.909 96.6477C324.53 97.3902 324.341 98.197 324.341 99.0682V101.057C324.341 102.223 324.545 103.216 324.955 104.034C325.371 104.852 325.951 105.477 326.693 105.909C327.436 106.333 328.303 106.545 329.295 106.545C329.939 106.545 330.527 106.455 331.057 106.273C331.587 106.083 332.045 105.803 332.432 105.432C332.818 105.061 333.114 104.602 333.318 104.057L336.534 104.636C336.277 105.583 335.814 106.413 335.148 107.125C334.489 107.83 333.659 108.379 332.659 108.773C331.667 109.159 330.534 109.352 329.261 109.352ZM340.52 109V91.5455H343.804V94.3182H343.986C344.304 93.3788 344.865 92.6402 345.668 92.1023C346.478 91.5568 347.395 91.2841 348.418 91.2841C348.63 91.2841 348.88 91.2917 349.168 91.3068C349.463 91.322 349.694 91.3409 349.861 91.3636V94.6136C349.724 94.5758 349.482 94.5341 349.134 94.4886C348.785 94.4356 348.437 94.4091 348.088 94.4091C347.285 94.4091 346.569 94.5795 345.94 94.9205C345.319 95.2538 344.827 95.7197 344.463 96.3182C344.099 96.9091 343.918 97.5833 343.918 98.3409V109H340.52ZM357.724 109.386C356.618 109.386 355.618 109.182 354.724 108.773C353.831 108.356 353.122 107.754 352.599 106.966C352.084 106.178 351.827 105.212 351.827 104.068C351.827 103.083 352.016 102.273 352.395 101.636C352.774 101 353.285 100.496 353.929 100.125C354.573 99.7538 355.293 99.4735 356.088 99.2841C356.884 99.0947 357.694 98.9508 358.52 98.8523C359.565 98.7311 360.414 98.6326 361.065 98.5568C361.717 98.4735 362.19 98.3409 362.486 98.1591C362.781 97.9773 362.929 97.6818 362.929 97.2727V97.1932C362.929 96.2008 362.649 95.4318 362.088 94.8864C361.535 94.3409 360.709 94.0682 359.611 94.0682C358.467 94.0682 357.565 94.322 356.906 94.8295C356.255 95.3295 355.804 95.8864 355.554 96.5L352.361 95.7727C352.74 94.7121 353.293 93.8561 354.02 93.2045C354.755 92.5455 355.599 92.0682 356.554 91.7727C357.509 91.4697 358.512 91.3182 359.565 91.3182C360.262 91.3182 361.001 91.4015 361.781 91.5682C362.569 91.7273 363.304 92.0227 363.986 92.4545C364.675 92.8864 365.24 93.5038 365.679 94.3068C366.118 95.1023 366.338 96.1364 366.338 97.4091V109H363.02V106.614H362.884C362.664 107.053 362.334 107.485 361.895 107.909C361.456 108.333 360.891 108.686 360.202 108.966C359.512 109.246 358.687 109.386 357.724 109.386ZM358.463 106.659C359.403 106.659 360.206 106.473 360.872 106.102C361.546 105.731 362.058 105.246 362.406 104.648C362.762 104.042 362.94 103.394 362.94 102.705V100.455C362.819 100.576 362.584 100.689 362.236 100.795C361.895 100.894 361.505 100.981 361.065 101.057C360.626 101.125 360.198 101.189 359.781 101.25C359.365 101.303 359.016 101.348 358.736 101.386C358.077 101.47 357.474 101.61 356.929 101.807C356.391 102.004 355.959 102.288 355.634 102.659C355.315 103.023 355.156 103.508 355.156 104.114C355.156 104.955 355.467 105.591 356.088 106.023C356.709 106.447 357.501 106.659 358.463 106.659ZM378.182 115.909C376.795 115.909 375.602 115.727 374.602 115.364C373.61 115 372.799 114.519 372.17 113.92C371.542 113.322 371.072 112.667 370.761 111.955L373.682 110.75C373.886 111.083 374.159 111.436 374.5 111.807C374.849 112.186 375.318 112.508 375.909 112.773C376.508 113.038 377.277 113.17 378.216 113.17C379.504 113.17 380.568 112.856 381.409 112.227C382.25 111.606 382.67 110.614 382.67 109.25V105.818H382.455C382.25 106.189 381.955 106.602 381.568 107.057C381.189 107.511 380.667 107.905 380 108.239C379.333 108.572 378.466 108.739 377.398 108.739C376.019 108.739 374.777 108.417 373.67 107.773C372.572 107.121 371.701 106.163 371.057 104.898C370.42 103.625 370.102 102.061 370.102 100.205C370.102 98.3485 370.417 96.7576 371.045 95.4318C371.682 94.1061 372.553 93.0909 373.659 92.3864C374.765 91.6742 376.019 91.3182 377.42 91.3182C378.504 91.3182 379.379 91.5 380.045 91.8636C380.712 92.2197 381.231 92.6364 381.602 93.1136C381.981 93.5909 382.273 94.0114 382.477 94.375H382.727V91.5455H386.057V109.386C386.057 110.886 385.708 112.117 385.011 113.08C384.314 114.042 383.371 114.754 382.182 115.216C381 115.678 379.667 115.909 378.182 115.909ZM378.148 105.92C379.125 105.92 379.951 105.693 380.625 105.239C381.307 104.777 381.822 104.117 382.17 103.261C382.527 102.398 382.705 101.364 382.705 100.159C382.705 98.9848 382.53 97.9508 382.182 97.0568C381.833 96.1629 381.322 95.4659 380.648 94.9659C379.974 94.4583 379.14 94.2045 378.148 94.2045C377.125 94.2045 376.273 94.4697 375.591 95C374.909 95.5227 374.394 96.2348 374.045 97.1364C373.705 98.0379 373.534 99.0455 373.534 100.159C373.534 101.303 373.708 102.307 374.057 103.17C374.405 104.034 374.92 104.708 375.602 105.193C376.292 105.678 377.14 105.92 378.148 105.92ZM398.136 109.352C396.417 109.352 394.936 108.985 393.693 108.25C392.458 107.508 391.504 106.466 390.83 105.125C390.163 103.777 389.83 102.197 389.83 100.386C389.83 98.5985 390.163 97.0227 390.83 95.6591C391.504 94.2955 392.443 93.2311 393.648 92.4659C394.86 91.7008 396.277 91.3182 397.898 91.3182C398.883 91.3182 399.837 91.4811 400.761 91.8068C401.686 92.1326 402.515 92.6439 403.25 93.3409C403.985 94.0379 404.564 94.9432 404.989 96.0568C405.413 97.1629 405.625 98.5076 405.625 100.091V101.295H391.75V98.75H402.295C402.295 97.8561 402.114 97.0644 401.75 96.375C401.386 95.678 400.875 95.1288 400.216 94.7273C399.564 94.3258 398.799 94.125 397.92 94.125C396.966 94.125 396.133 94.3598 395.42 94.8295C394.716 95.2917 394.17 95.8977 393.784 96.6477C393.405 97.3902 393.216 98.197 393.216 99.0682V101.057C393.216 102.223 393.42 103.216 393.83 104.034C394.246 104.852 394.826 105.477 395.568 105.909C396.311 106.333 397.178 106.545 398.17 106.545C398.814 106.545 399.402 106.455 399.932 106.273C400.462 106.083 400.92 105.803 401.307 105.432C401.693 105.061 401.989 104.602 402.193 104.057L405.409 104.636C405.152 105.583 404.689 106.413 404.023 107.125C403.364 107.83 402.534 108.379 401.534 108.773C400.542 109.159 399.409 109.352 398.136 109.352ZM418.852 97.3636C418.852 94.5152 419.227 91.8939 419.977 89.5C420.727 87.1061 421.822 84.8977 423.261 82.875H426.375C425.814 83.625 425.292 84.5455 424.807 85.6364C424.322 86.7273 423.898 87.9242 423.534 89.2273C423.17 90.5227 422.886 91.8674 422.682 93.2614C422.477 94.6477 422.375 96.0152 422.375 97.3636C422.375 99.1667 422.553 100.992 422.909 102.841C423.265 104.689 423.746 106.405 424.352 107.989C424.958 109.572 425.633 110.864 426.375 111.864H423.261C421.822 109.841 420.727 107.633 419.977 105.239C419.227 102.845 418.852 100.22 418.852 97.3636ZM430.23 85.7273H434.492L441.901 103.818H442.173L449.582 85.7273H453.844V109H450.503V92.1591H450.287L443.423 108.966H440.651L433.787 92.1477H433.571V109H430.23V85.7273ZM463.756 109.386C462.65 109.386 461.65 109.182 460.756 108.773C459.862 108.356 459.153 107.754 458.631 106.966C458.116 106.178 457.858 105.212 457.858 104.068C457.858 103.083 458.047 102.273 458.426 101.636C458.805 101 459.316 100.496 459.96 100.125C460.604 99.7538 461.324 99.4735 462.119 99.2841C462.915 99.0947 463.725 98.9508 464.551 98.8523C465.597 98.7311 466.445 98.6326 467.097 98.5568C467.748 98.4735 468.222 98.3409 468.517 98.1591C468.813 97.9773 468.96 97.6818 468.96 97.2727V97.1932C468.96 96.2008 468.68 95.4318 468.119 94.8864C467.566 94.3409 466.741 94.0682 465.642 94.0682C464.498 94.0682 463.597 94.322 462.938 94.8295C462.286 95.3295 461.835 95.8864 461.585 96.5L458.392 95.7727C458.771 94.7121 459.324 93.8561 460.051 93.2045C460.786 92.5455 461.631 92.0682 462.585 91.7727C463.54 91.4697 464.544 91.3182 465.597 91.3182C466.294 91.3182 467.032 91.4015 467.813 91.5682C468.6 91.7273 469.335 92.0227 470.017 92.4545C470.706 92.8864 471.271 93.5038 471.71 94.3068C472.15 95.1023 472.369 96.1364 472.369 97.4091V109H469.051V106.614H468.915C468.695 107.053 468.366 107.485 467.926 107.909C467.487 108.333 466.922 108.686 466.233 108.966C465.544 109.246 464.718 109.386 463.756 109.386ZM464.494 106.659C465.434 106.659 466.237 106.473 466.903 106.102C467.578 105.731 468.089 105.246 468.438 104.648C468.794 104.042 468.972 103.394 468.972 102.705V100.455C468.85 100.576 468.616 100.689 468.267 100.795C467.926 100.894 467.536 100.981 467.097 101.057C466.657 101.125 466.229 101.189 465.813 101.25C465.396 101.303 465.047 101.348 464.767 101.386C464.108 101.47 463.506 101.61 462.96 101.807C462.422 102.004 461.991 102.288 461.665 102.659C461.347 103.023 461.188 103.508 461.188 104.114C461.188 104.955 461.498 105.591 462.119 106.023C462.741 106.447 463.532 106.659 464.494 106.659ZM476.895 109V91.5455H480.293V109H476.895ZM478.611 88.8523C478.02 88.8523 477.512 88.6553 477.088 88.2614C476.671 87.8598 476.463 87.3826 476.463 86.8295C476.463 86.2689 476.671 85.7917 477.088 85.3977C477.512 84.9962 478.02 84.7955 478.611 84.7955C479.202 84.7955 479.706 84.9962 480.122 85.3977C480.546 85.7917 480.759 86.2689 480.759 86.8295C480.759 87.3826 480.546 87.8598 480.122 88.2614C479.706 88.6553 479.202 88.8523 478.611 88.8523ZM488.261 98.6364V109H484.864V91.5455H488.125V94.3864H488.341C488.742 93.4621 489.371 92.7197 490.227 92.1591C491.091 91.5985 492.178 91.3182 493.489 91.3182C494.678 91.3182 495.72 91.5682 496.614 92.0682C497.508 92.5606 498.201 93.2955 498.693 94.2727C499.186 95.25 499.432 96.4583 499.432 97.8977V109H496.034V98.3068C496.034 97.0417 495.705 96.053 495.045 95.3409C494.386 94.6212 493.481 94.2614 492.33 94.2614C491.542 94.2614 490.841 94.4318 490.227 94.7727C489.621 95.1136 489.14 95.6136 488.784 96.2727C488.436 96.9242 488.261 97.7121 488.261 98.6364ZM507.386 98.6364V109H503.989V91.5455H507.25V94.3864H507.466C507.867 93.4621 508.496 92.7197 509.352 92.1591C510.216 91.5985 511.303 91.3182 512.614 91.3182C513.803 91.3182 514.845 91.5682 515.739 92.0682C516.633 92.5606 517.326 93.2955 517.818 94.2727C518.311 95.25 518.557 96.4583 518.557 97.8977V109H515.159V98.3068C515.159 97.0417 514.83 96.053 514.17 95.3409C513.511 94.6212 512.606 94.2614 511.455 94.2614C510.667 94.2614 509.966 94.4318 509.352 94.7727C508.746 95.1136 508.265 95.6136 507.909 96.2727C507.561 96.9242 507.386 97.7121 507.386 98.6364ZM530.636 109.352C528.917 109.352 527.436 108.985 526.193 108.25C524.958 107.508 524.004 106.466 523.33 105.125C522.663 103.777 522.33 102.197 522.33 100.386C522.33 98.5985 522.663 97.0227 523.33 95.6591C524.004 94.2955 524.943 93.2311 526.148 92.4659C527.36 91.7008 528.777 91.3182 530.398 91.3182C531.383 91.3182 532.337 91.4811 533.261 91.8068C534.186 92.1326 535.015 92.6439 535.75 93.3409C536.485 94.0379 537.064 94.9432 537.489 96.0568C537.913 97.1629 538.125 98.5076 538.125 100.091V101.295H524.25V98.75H534.795C534.795 97.8561 534.614 97.0644 534.25 96.375C533.886 95.678 533.375 95.1288 532.716 94.7273C532.064 94.3258 531.299 94.125 530.42 94.125C529.466 94.125 528.633 94.3598 527.92 94.8295C527.216 95.2917 526.67 95.8977 526.284 96.6477C525.905 97.3902 525.716 98.197 525.716 99.0682V101.057C525.716 102.223 525.92 103.216 526.33 104.034C526.746 104.852 527.326 105.477 528.068 105.909C528.811 106.333 529.678 106.545 530.67 106.545C531.314 106.545 531.902 106.455 532.432 106.273C532.962 106.083 533.42 105.803 533.807 105.432C534.193 105.061 534.489 104.602 534.693 104.057L537.909 104.636C537.652 105.583 537.189 106.413 536.523 107.125C535.864 107.83 535.034 108.379 534.034 108.773C533.042 109.159 531.909 109.352 530.636 109.352ZM550.043 91.5455V94.2727H540.509V91.5455H550.043ZM543.065 87.3636H546.463V103.875C546.463 104.534 546.562 105.03 546.759 105.364C546.956 105.689 547.209 105.913 547.52 106.034C547.838 106.148 548.183 106.205 548.554 106.205C548.827 106.205 549.065 106.186 549.27 106.148C549.474 106.11 549.634 106.08 549.747 106.057L550.361 108.864C550.164 108.939 549.884 109.015 549.52 109.091C549.156 109.174 548.702 109.22 548.156 109.227C547.262 109.242 546.429 109.083 545.656 108.75C544.884 108.417 544.259 107.902 543.781 107.205C543.304 106.508 543.065 105.633 543.065 104.58V87.3636ZM560.335 99.3409C560.335 102.197 559.96 104.822 559.21 107.216C558.46 109.61 557.366 111.818 555.926 113.841H552.813C553.373 113.091 553.896 112.17 554.381 111.08C554.866 109.989 555.29 108.795 555.653 107.5C556.017 106.197 556.301 104.848 556.506 103.455C556.71 102.061 556.813 100.689 556.813 99.3409C556.813 97.5455 556.635 95.7235 556.278 93.875C555.922 92.0265 555.441 90.3106 554.835 88.7273C554.229 87.1439 553.555 85.8523 552.813 84.8523H555.926C557.366 86.875 558.46 89.0833 559.21 91.4773C559.96 93.8712 560.335 96.4924 560.335 99.3409ZM93.2131 143.727C92.2964 143.727 91.4593 143.504 90.7017 143.057C89.9442 142.602 89.3381 141.996 88.8836 141.239C88.4366 140.481 88.2131 139.644 88.2131 138.727C88.2131 137.803 88.4366 136.966 88.8836 136.216C89.3381 135.458 89.9442 134.856 90.7017 134.409C91.4593 133.955 92.2964 133.727 93.2131 133.727C94.1374 133.727 94.9745 133.955 95.7245 134.409C96.4821 134.856 97.0843 135.458 97.5313 136.216C97.9858 136.966 98.2131 137.803 98.2131 138.727C98.2131 139.644 97.9858 140.481 97.5313 141.239C97.0843 141.996 96.4821 142.602 95.7245 143.057C94.9745 143.504 94.1374 143.727 93.2131 143.727ZM127.295 148H119.761V124.727H127.534C129.814 124.727 131.773 125.193 133.409 126.125C135.045 127.049 136.299 128.379 137.17 130.114C138.049 131.841 138.489 133.913 138.489 136.33C138.489 138.754 138.045 140.837 137.159 142.58C136.28 144.322 135.008 145.663 133.341 146.602C131.674 147.534 129.659 148 127.295 148ZM123.273 144.932H127.102C128.875 144.932 130.349 144.598 131.523 143.932C132.697 143.258 133.576 142.284 134.159 141.011C134.742 139.731 135.034 138.17 135.034 136.33C135.034 134.504 134.742 132.955 134.159 131.682C133.583 130.409 132.724 129.443 131.58 128.784C130.436 128.125 129.015 127.795 127.318 127.795H123.273V144.932ZM142.582 148V130.545H145.867V133.318H146.048C146.367 132.379 146.927 131.64 147.73 131.102C148.541 130.557 149.457 130.284 150.48 130.284C150.692 130.284 150.942 130.292 151.23 130.307C151.526 130.322 151.757 130.341 151.923 130.364V133.614C151.787 133.576 151.545 133.534 151.196 133.489C150.848 133.436 150.499 133.409 150.151 133.409C149.348 133.409 148.632 133.58 148.003 133.92C147.382 134.254 146.889 134.72 146.526 135.318C146.162 135.909 145.98 136.583 145.98 137.341V148H142.582ZM159.787 148.386C158.681 148.386 157.681 148.182 156.787 147.773C155.893 147.356 155.185 146.754 154.662 145.966C154.147 145.178 153.889 144.212 153.889 143.068C153.889 142.083 154.079 141.273 154.457 140.636C154.836 140 155.348 139.496 155.992 139.125C156.635 138.754 157.355 138.473 158.151 138.284C158.946 138.095 159.757 137.951 160.582 137.852C161.628 137.731 162.476 137.633 163.128 137.557C163.779 137.473 164.253 137.341 164.548 137.159C164.844 136.977 164.992 136.682 164.992 136.273V136.193C164.992 135.201 164.711 134.432 164.151 133.886C163.598 133.341 162.772 133.068 161.673 133.068C160.529 133.068 159.628 133.322 158.969 133.83C158.317 134.33 157.867 134.886 157.617 135.5L154.423 134.773C154.802 133.712 155.355 132.856 156.082 132.205C156.817 131.545 157.662 131.068 158.617 130.773C159.571 130.47 160.575 130.318 161.628 130.318C162.325 130.318 163.063 130.402 163.844 130.568C164.632 130.727 165.367 131.023 166.048 131.455C166.738 131.886 167.302 132.504 167.742 133.307C168.181 134.102 168.401 135.136 168.401 136.409V148H165.082V145.614H164.946C164.726 146.053 164.397 146.485 163.957 146.909C163.518 147.333 162.954 147.686 162.264 147.966C161.575 148.246 160.749 148.386 159.787 148.386ZM160.526 145.659C161.465 145.659 162.268 145.473 162.935 145.102C163.609 144.731 164.12 144.246 164.469 143.648C164.825 143.042 165.003 142.394 165.003 141.705V139.455C164.882 139.576 164.647 139.689 164.298 139.795C163.957 139.894 163.567 139.981 163.128 140.057C162.688 140.125 162.26 140.189 161.844 140.25C161.427 140.303 161.079 140.348 160.798 140.386C160.139 140.47 159.537 140.61 158.992 140.807C158.454 141.004 158.022 141.288 157.696 141.659C157.378 142.023 157.219 142.508 157.219 143.114C157.219 143.955 157.529 144.591 158.151 145.023C158.772 145.447 159.563 145.659 160.526 145.659ZM181.233 130.545V133.273H171.369V130.545H181.233ZM174.074 148V128.523C174.074 127.432 174.313 126.527 174.79 125.807C175.267 125.08 175.9 124.538 176.688 124.182C177.475 123.818 178.331 123.636 179.256 123.636C179.938 123.636 180.521 123.693 181.006 123.807C181.491 123.913 181.85 124.011 182.085 124.102L181.29 126.852C181.131 126.807 180.926 126.754 180.676 126.693C180.426 126.625 180.123 126.591 179.767 126.591C178.941 126.591 178.35 126.795 177.994 127.205C177.646 127.614 177.472 128.205 177.472 128.977V148H174.074ZM192.886 130.545V133.273H183.352V130.545H192.886ZM185.909 126.364H189.307V142.875C189.307 143.534 189.405 144.03 189.602 144.364C189.799 144.689 190.053 144.913 190.364 145.034C190.682 145.148 191.027 145.205 191.398 145.205C191.67 145.205 191.909 145.186 192.114 145.148C192.318 145.11 192.477 145.08 192.591 145.057L193.205 147.864C193.008 147.939 192.727 148.015 192.364 148.091C192 148.174 191.545 148.22 191 148.227C190.106 148.242 189.273 148.083 188.5 147.75C187.727 147.417 187.102 146.902 186.625 146.205C186.148 145.508 185.909 144.633 185.909 143.58V126.364ZM203.591 124.727H207.58L213.659 135.307H213.909L219.989 124.727H223.977L215.534 138.864V148H212.034V138.864L203.591 124.727ZM231.668 148.352C229.948 148.352 228.467 147.985 227.224 147.25C225.99 146.508 225.035 145.466 224.361 144.125C223.694 142.777 223.361 141.197 223.361 139.386C223.361 137.598 223.694 136.023 224.361 134.659C225.035 133.295 225.974 132.231 227.179 131.466C228.391 130.701 229.808 130.318 231.429 130.318C232.414 130.318 233.368 130.481 234.293 130.807C235.217 131.133 236.046 131.644 236.781 132.341C237.516 133.038 238.096 133.943 238.52 135.057C238.944 136.163 239.156 137.508 239.156 139.091V140.295H225.281V137.75H235.827C235.827 136.856 235.645 136.064 235.281 135.375C234.918 134.678 234.406 134.129 233.747 133.727C233.096 133.326 232.331 133.125 231.452 133.125C230.497 133.125 229.664 133.36 228.952 133.83C228.247 134.292 227.702 134.898 227.315 135.648C226.937 136.39 226.747 137.197 226.747 138.068V140.057C226.747 141.223 226.952 142.216 227.361 143.034C227.778 143.852 228.357 144.477 229.099 144.909C229.842 145.333 230.709 145.545 231.702 145.545C232.346 145.545 232.933 145.455 233.463 145.273C233.993 145.083 234.452 144.803 234.838 144.432C235.224 144.061 235.52 143.602 235.724 143.057L238.94 143.636C238.683 144.583 238.221 145.413 237.554 146.125C236.895 146.83 236.065 147.379 235.065 147.773C234.073 148.159 232.94 148.352 231.668 148.352ZM246.324 124.727V148H242.926V124.727H246.324ZM254.293 124.727V148H250.895V124.727H254.293ZM266.216 148.352C264.58 148.352 263.152 147.977 261.932 147.227C260.712 146.477 259.765 145.428 259.091 144.08C258.417 142.731 258.08 141.155 258.08 139.352C258.08 137.542 258.417 135.958 259.091 134.602C259.765 133.246 260.712 132.193 261.932 131.443C263.152 130.693 264.58 130.318 266.216 130.318C267.852 130.318 269.28 130.693 270.5 131.443C271.72 132.193 272.667 133.246 273.341 134.602C274.015 135.958 274.352 137.542 274.352 139.352C274.352 141.155 274.015 142.731 273.341 144.08C272.667 145.428 271.72 146.477 270.5 147.227C269.28 147.977 267.852 148.352 266.216 148.352ZM266.227 145.5C267.288 145.5 268.167 145.22 268.864 144.659C269.561 144.098 270.076 143.352 270.409 142.42C270.75 141.489 270.92 140.462 270.92 139.341C270.92 138.227 270.75 137.205 270.409 136.273C270.076 135.333 269.561 134.58 268.864 134.011C268.167 133.443 267.288 133.159 266.227 133.159C265.159 133.159 264.273 133.443 263.568 134.011C262.871 134.58 262.352 135.333 262.011 136.273C261.678 137.205 261.511 138.227 261.511 139.341C261.511 140.462 261.678 141.489 262.011 142.42C262.352 143.352 262.871 144.098 263.568 144.659C264.273 145.22 265.159 145.5 266.227 145.5ZM281.398 148L276.261 130.545H279.773L283.193 143.364H283.364L286.795 130.545H290.307L293.716 143.307H293.886L297.284 130.545H300.795L295.67 148H292.205L288.659 135.398H288.398L284.852 148H281.398ZM304.02 154.545V130.545H307.338V133.375H307.622C307.819 133.011 308.103 132.591 308.474 132.114C308.846 131.636 309.361 131.22 310.02 130.864C310.679 130.5 311.55 130.318 312.634 130.318C314.043 130.318 315.3 130.674 316.406 131.386C317.512 132.098 318.38 133.125 319.009 134.466C319.645 135.807 319.963 137.42 319.963 139.307C319.963 141.193 319.649 142.811 319.02 144.159C318.391 145.5 317.528 146.534 316.429 147.261C315.331 147.981 314.077 148.341 312.668 148.341C311.607 148.341 310.74 148.163 310.065 147.807C309.399 147.451 308.876 147.034 308.497 146.557C308.118 146.08 307.827 145.655 307.622 145.284H307.418V154.545H304.02ZM307.349 139.273C307.349 140.5 307.528 141.576 307.884 142.5C308.24 143.424 308.755 144.148 309.429 144.67C310.103 145.186 310.929 145.443 311.906 145.443C312.921 145.443 313.77 145.174 314.452 144.636C315.134 144.091 315.649 143.352 315.997 142.42C316.353 141.489 316.531 140.439 316.531 139.273C316.531 138.121 316.357 137.087 316.009 136.17C315.668 135.254 315.153 134.53 314.463 134C313.781 133.47 312.929 133.205 311.906 133.205C310.921 133.205 310.088 133.458 309.406 133.966C308.732 134.473 308.221 135.182 307.872 136.091C307.524 137 307.349 138.061 307.349 139.273ZM328.849 148.386C327.743 148.386 326.743 148.182 325.849 147.773C324.956 147.356 324.247 146.754 323.724 145.966C323.209 145.178 322.952 144.212 322.952 143.068C322.952 142.083 323.141 141.273 323.52 140.636C323.899 140 324.41 139.496 325.054 139.125C325.698 138.754 326.418 138.473 327.213 138.284C328.009 138.095 328.819 137.951 329.645 137.852C330.69 137.731 331.539 137.633 332.19 137.557C332.842 137.473 333.315 137.341 333.611 137.159C333.906 136.977 334.054 136.682 334.054 136.273V136.193C334.054 135.201 333.774 134.432 333.213 133.886C332.66 133.341 331.834 133.068 330.736 133.068C329.592 133.068 328.69 133.322 328.031 133.83C327.38 134.33 326.929 134.886 326.679 135.5L323.486 134.773C323.865 133.712 324.418 132.856 325.145 132.205C325.88 131.545 326.724 131.068 327.679 130.773C328.634 130.47 329.637 130.318 330.69 130.318C331.387 130.318 332.126 130.402 332.906 130.568C333.694 130.727 334.429 131.023 335.111 131.455C335.8 131.886 336.365 132.504 336.804 133.307C337.243 134.102 337.463 135.136 337.463 136.409V148H334.145V145.614H334.009C333.789 146.053 333.459 146.485 333.02 146.909C332.581 147.333 332.016 147.686 331.327 147.966C330.637 148.246 329.812 148.386 328.849 148.386ZM329.588 145.659C330.528 145.659 331.331 145.473 331.997 145.102C332.671 144.731 333.183 144.246 333.531 143.648C333.887 143.042 334.065 142.394 334.065 141.705V139.455C333.944 139.576 333.709 139.689 333.361 139.795C333.02 139.894 332.63 139.981 332.19 140.057C331.751 140.125 331.323 140.189 330.906 140.25C330.49 140.303 330.141 140.348 329.861 140.386C329.202 140.47 328.599 140.61 328.054 140.807C327.516 141.004 327.084 141.288 326.759 141.659C326.44 142.023 326.281 142.508 326.281 143.114C326.281 143.955 326.592 144.591 327.213 145.023C327.834 145.447 328.626 145.659 329.588 145.659ZM341.989 154.545V130.545H345.307V133.375H345.591C345.788 133.011 346.072 132.591 346.443 132.114C346.814 131.636 347.33 131.22 347.989 130.864C348.648 130.5 349.519 130.318 350.602 130.318C352.011 130.318 353.269 130.674 354.375 131.386C355.481 132.098 356.349 133.125 356.977 134.466C357.614 135.807 357.932 137.42 357.932 139.307C357.932 141.193 357.617 142.811 356.989 144.159C356.36 145.5 355.496 146.534 354.398 147.261C353.299 147.981 352.045 148.341 350.636 148.341C349.576 148.341 348.708 148.163 348.034 147.807C347.367 147.451 346.845 147.034 346.466 146.557C346.087 146.08 345.795 145.655 345.591 145.284H345.386V154.545H341.989ZM345.318 139.273C345.318 140.5 345.496 141.576 345.852 142.5C346.208 143.424 346.724 144.148 347.398 144.67C348.072 145.186 348.898 145.443 349.875 145.443C350.89 145.443 351.739 145.174 352.42 144.636C353.102 144.091 353.617 143.352 353.966 142.42C354.322 141.489 354.5 140.439 354.5 139.273C354.5 138.121 354.326 137.087 353.977 136.17C353.636 135.254 353.121 134.53 352.432 134C351.75 133.47 350.898 133.205 349.875 133.205C348.89 133.205 348.057 133.458 347.375 133.966C346.701 134.473 346.189 135.182 345.841 136.091C345.492 137 345.318 138.061 345.318 139.273ZM369.261 148.352C367.542 148.352 366.061 147.985 364.818 147.25C363.583 146.508 362.629 145.466 361.955 144.125C361.288 142.777 360.955 141.197 360.955 139.386C360.955 137.598 361.288 136.023 361.955 134.659C362.629 133.295 363.568 132.231 364.773 131.466C365.985 130.701 367.402 130.318 369.023 130.318C370.008 130.318 370.962 130.481 371.886 130.807C372.811 131.133 373.64 131.644 374.375 132.341C375.11 133.038 375.689 133.943 376.114 135.057C376.538 136.163 376.75 137.508 376.75 139.091V140.295H362.875V137.75H373.42C373.42 136.856 373.239 136.064 372.875 135.375C372.511 134.678 372 134.129 371.341 133.727C370.689 133.326 369.924 133.125 369.045 133.125C368.091 133.125 367.258 133.36 366.545 133.83C365.841 134.292 365.295 134.898 364.909 135.648C364.53 136.39 364.341 137.197 364.341 138.068V140.057C364.341 141.223 364.545 142.216 364.955 143.034C365.371 143.852 365.951 144.477 366.693 144.909C367.436 145.333 368.303 145.545 369.295 145.545C369.939 145.545 370.527 145.455 371.057 145.273C371.587 145.083 372.045 144.803 372.432 144.432C372.818 144.061 373.114 143.602 373.318 143.057L376.534 143.636C376.277 144.583 375.814 145.413 375.148 146.125C374.489 146.83 373.659 147.379 372.659 147.773C371.667 148.159 370.534 148.352 369.261 148.352ZM380.52 148V130.545H383.804V133.318H383.986C384.304 132.379 384.865 131.64 385.668 131.102C386.478 130.557 387.395 130.284 388.418 130.284C388.63 130.284 388.88 130.292 389.168 130.307C389.463 130.322 389.694 130.341 389.861 130.364V133.614C389.724 133.576 389.482 133.534 389.134 133.489C388.785 133.436 388.437 133.409 388.088 133.409C387.285 133.409 386.569 133.58 385.94 133.92C385.319 134.254 384.827 134.72 384.463 135.318C384.099 135.909 383.918 136.583 383.918 137.341V148H380.52ZM401.543 148V124.727H405.054V144.977H415.599V148H401.543ZM424.412 148.386C423.306 148.386 422.306 148.182 421.412 147.773C420.518 147.356 419.81 146.754 419.287 145.966C418.772 145.178 418.514 144.212 418.514 143.068C418.514 142.083 418.704 141.273 419.082 140.636C419.461 140 419.973 139.496 420.617 139.125C421.26 138.754 421.98 138.473 422.776 138.284C423.571 138.095 424.382 137.951 425.207 137.852C426.253 137.731 427.101 137.633 427.753 137.557C428.404 137.473 428.878 137.341 429.173 137.159C429.469 136.977 429.617 136.682 429.617 136.273V136.193C429.617 135.201 429.336 134.432 428.776 133.886C428.223 133.341 427.397 133.068 426.298 133.068C425.154 133.068 424.253 133.322 423.594 133.83C422.942 134.33 422.492 134.886 422.242 135.5L419.048 134.773C419.427 133.712 419.98 132.856 420.707 132.205C421.442 131.545 422.287 131.068 423.242 130.773C424.196 130.47 425.2 130.318 426.253 130.318C426.95 130.318 427.688 130.402 428.469 130.568C429.257 130.727 429.992 131.023 430.673 131.455C431.363 131.886 431.927 132.504 432.367 133.307C432.806 134.102 433.026 135.136 433.026 136.409V148H429.707V145.614H429.571C429.351 146.053 429.022 146.485 428.582 146.909C428.143 147.333 427.579 147.686 426.889 147.966C426.2 148.246 425.374 148.386 424.412 148.386ZM425.151 145.659C426.09 145.659 426.893 145.473 427.56 145.102C428.234 144.731 428.745 144.246 429.094 143.648C429.45 143.042 429.628 142.394 429.628 141.705V139.455C429.507 139.576 429.272 139.689 428.923 139.795C428.582 139.894 428.192 139.981 427.753 140.057C427.313 140.125 426.885 140.189 426.469 140.25C426.052 140.303 425.704 140.348 425.423 140.386C424.764 140.47 424.162 140.61 423.617 140.807C423.079 141.004 422.647 141.288 422.321 141.659C422.003 142.023 421.844 142.508 421.844 143.114C421.844 143.955 422.154 144.591 422.776 145.023C423.397 145.447 424.188 145.659 425.151 145.659ZM439.074 154.545C438.566 154.545 438.104 154.504 437.688 154.42C437.271 154.345 436.96 154.261 436.756 154.17L437.574 151.386C438.195 151.553 438.748 151.625 439.233 151.602C439.718 151.58 440.146 151.398 440.517 151.057C440.896 150.716 441.229 150.159 441.517 149.386L441.938 148.227L435.551 130.545H439.188L443.608 144.091H443.79L448.21 130.545H451.858L444.665 150.33C444.331 151.239 443.907 152.008 443.392 152.636C442.877 153.273 442.263 153.75 441.551 154.068C440.839 154.386 440.013 154.545 439.074 154.545ZM461.98 148.352C460.26 148.352 458.779 147.985 457.537 147.25C456.302 146.508 455.348 145.466 454.673 144.125C454.007 142.777 453.673 141.197 453.673 139.386C453.673 137.598 454.007 136.023 454.673 134.659C455.348 133.295 456.287 132.231 457.492 131.466C458.704 130.701 460.12 130.318 461.742 130.318C462.726 130.318 463.681 130.481 464.605 130.807C465.529 131.133 466.359 131.644 467.094 132.341C467.829 133.038 468.408 133.943 468.832 135.057C469.257 136.163 469.469 137.508 469.469 139.091V140.295H455.594V137.75H466.139C466.139 136.856 465.957 136.064 465.594 135.375C465.23 134.678 464.719 134.129 464.06 133.727C463.408 133.326 462.643 133.125 461.764 133.125C460.81 133.125 459.976 133.36 459.264 133.83C458.56 134.292 458.014 134.898 457.628 135.648C457.249 136.39 457.06 137.197 457.06 138.068V140.057C457.06 141.223 457.264 142.216 457.673 143.034C458.09 143.852 458.67 144.477 459.412 144.909C460.154 145.333 461.022 145.545 462.014 145.545C462.658 145.545 463.245 145.455 463.776 145.273C464.306 145.083 464.764 144.803 465.151 144.432C465.537 144.061 465.832 143.602 466.037 143.057L469.253 143.636C468.995 144.583 468.533 145.413 467.867 146.125C467.207 146.83 466.378 147.379 465.378 147.773C464.385 148.159 463.253 148.352 461.98 148.352ZM473.239 148V130.545H476.523V133.318H476.705C477.023 132.379 477.583 131.64 478.386 131.102C479.197 130.557 480.114 130.284 481.136 130.284C481.349 130.284 481.599 130.292 481.886 130.307C482.182 130.322 482.413 130.341 482.58 130.364V133.614C482.443 133.576 482.201 133.534 481.852 133.489C481.504 133.436 481.155 133.409 480.807 133.409C480.004 133.409 479.288 133.58 478.659 133.92C478.038 134.254 477.545 134.72 477.182 135.318C476.818 135.909 476.636 136.583 476.636 137.341V148H473.239ZM494.304 124.727V148H490.781V128.25H490.645L485.077 131.886V128.523L490.884 124.727H494.304Z" fill="#4CC9F0"/>
<line x1="93.7046" y1="20" x2="93.7046" y2="335" stroke="#0FA9D9"/>
</svg>
