<svg width="646" height="627" viewBox="0 0 646 627" fill="none" xmlns="http://www.w3.org/2000/svg">
<path d="M368 335L314 379.167V290.833L368 335Z" fill="#4CC9F0"/>
<path fill-rule="evenodd" clip-rule="evenodd" d="M0.204591 379L54 335L0.204591 291H314V379H0.204591ZM4.80711e-05 379L4.95911e-05 291H4.80711e-05V379Z" fill="#4CC9F0"/>
<path d="M128.011 349V346.443L137.614 335.932C138.741 334.701 139.669 333.631 140.398 332.722C141.127 331.803 141.667 330.941 142.017 330.136C142.377 329.322 142.557 328.47 142.557 327.58C142.557 326.557 142.311 325.671 141.818 324.923C141.335 324.175 140.672 323.598 139.83 323.19C138.987 322.783 138.04 322.58 136.989 322.58C135.871 322.58 134.896 322.812 134.062 323.276C133.239 323.73 132.599 324.369 132.145 325.193C131.7 326.017 131.477 326.983 131.477 328.091H128.125C128.125 326.386 128.518 324.89 129.304 323.602C130.09 322.314 131.16 321.311 132.514 320.591C133.878 319.871 135.407 319.511 137.102 319.511C138.807 319.511 140.317 319.871 141.634 320.591C142.95 321.311 143.982 322.281 144.73 323.503C145.478 324.724 145.852 326.083 145.852 327.58C145.852 328.65 145.658 329.696 145.27 330.719C144.891 331.732 144.228 332.864 143.281 334.114C142.344 335.354 141.042 336.869 139.375 338.659L132.841 345.648V345.875H146.364V349H128.011ZM161.719 349.398C159.579 349.398 157.756 348.815 156.25 347.651C154.744 346.476 153.594 344.777 152.798 342.551C152.003 340.316 151.605 337.617 151.605 334.455C151.605 331.311 152.003 328.626 152.798 326.401C153.603 324.166 154.759 322.461 156.264 321.287C157.779 320.103 159.598 319.511 161.719 319.511C163.84 319.511 165.653 320.103 167.159 321.287C168.674 322.461 169.83 324.166 170.625 326.401C171.43 328.626 171.832 331.311 171.832 334.455C171.832 337.617 171.435 340.316 170.639 342.551C169.844 344.777 168.693 346.476 167.188 347.651C165.682 348.815 163.859 349.398 161.719 349.398ZM161.719 346.273C163.84 346.273 165.488 345.25 166.662 343.205C167.836 341.159 168.423 338.242 168.423 334.455C168.423 331.936 168.153 329.791 167.614 328.02C167.083 326.249 166.316 324.9 165.312 323.972C164.318 323.044 163.12 322.58 161.719 322.58C159.616 322.58 157.973 323.616 156.79 325.69C155.606 327.755 155.014 330.676 155.014 334.455C155.014 336.973 155.279 339.114 155.81 340.875C156.34 342.636 157.102 343.976 158.097 344.895C159.1 345.813 160.308 346.273 161.719 346.273ZM177.23 349V346.443L186.832 335.932C187.959 334.701 188.887 333.631 189.616 332.722C190.346 331.803 190.885 330.941 191.236 330.136C191.596 329.322 191.776 328.47 191.776 327.58C191.776 326.557 191.529 325.671 191.037 324.923C190.554 324.175 189.891 323.598 189.048 323.19C188.205 322.783 187.259 322.58 186.207 322.58C185.09 322.58 184.115 322.812 183.281 323.276C182.457 323.73 181.818 324.369 181.364 325.193C180.919 326.017 180.696 326.983 180.696 328.091H177.344C177.344 326.386 177.737 324.89 178.523 323.602C179.309 322.314 180.379 321.311 181.733 320.591C183.097 319.871 184.626 319.511 186.321 319.511C188.026 319.511 189.536 319.871 190.852 320.591C192.169 321.311 193.201 322.281 193.949 323.503C194.697 324.724 195.071 326.083 195.071 327.58C195.071 328.65 194.877 329.696 194.489 330.719C194.11 331.732 193.447 332.864 192.5 334.114C191.562 335.354 190.26 336.869 188.594 338.659L182.06 345.648V345.875H195.582V349H177.23ZM200.142 343.034V340.136L212.926 319.909H215.028V324.398H213.608L203.949 339.682V339.909H221.165V343.034H200.142ZM213.835 349V342.153V340.804V319.909H217.188V349H213.835ZM248.817 339.909H252.681L255.92 344.17L256.772 345.307L261.602 351.727H257.738L254.556 347.466L253.761 346.386L248.817 339.909ZM262.795 334.455C262.795 337.523 262.241 340.174 261.133 342.409C260.025 344.644 258.505 346.367 256.573 347.58C254.641 348.792 252.435 349.398 249.954 349.398C247.473 349.398 245.266 348.792 243.335 347.58C241.403 346.367 239.883 344.644 238.775 342.409C237.667 340.174 237.113 337.523 237.113 334.455C237.113 331.386 237.667 328.735 238.775 326.5C239.883 324.265 241.403 322.542 243.335 321.33C245.266 320.117 247.473 319.511 249.954 319.511C252.435 319.511 254.641 320.117 256.573 321.33C258.505 322.542 260.025 324.265 261.133 326.5C262.241 328.735 262.795 331.386 262.795 334.455ZM259.386 334.455C259.386 331.936 258.964 329.81 258.121 328.077C257.288 326.344 256.156 325.032 254.727 324.142C253.306 323.252 251.715 322.807 249.954 322.807C248.192 322.807 246.597 323.252 245.167 324.142C243.746 325.032 242.615 326.344 241.772 328.077C240.939 329.81 240.522 331.936 240.522 334.455C240.522 336.973 240.939 339.099 241.772 340.832C242.615 342.565 243.746 343.877 245.167 344.767C246.597 345.657 248.192 346.102 249.954 346.102C251.715 346.102 253.306 345.657 254.727 344.767C256.156 343.877 257.288 342.565 258.121 340.832C258.964 339.099 259.386 336.973 259.386 334.455ZM278.434 319.909V349H274.911V323.602H274.741L267.638 328.318V324.739L274.911 319.909H278.434Z" fill="black"/>
<circle cx="92.5" cy="334.5" r="8.5" fill="#D9D9D9"/>
<path d="M93.2158 29.152C92.1705 29.152 91.1998 28.9067 90.3038 28.416C89.4078 27.904 88.6932 27.2107 88.1598 26.336C87.6265 25.4613 87.3598 24.4907 87.3598 23.424C87.3598 22.4427 87.6052 21.5147 88.0958 20.64C88.6078 19.7653 89.3012 19.0613 90.1758 18.528C91.0718 17.9733 92.0852 17.696 93.2158 17.696C94.2612 17.696 95.2212 17.952 96.0958 18.464C96.9705 18.9547 97.6745 19.6267 98.2078 20.48C98.7625 21.3333 99.0398 22.3147 99.0398 23.424C99.0398 24.4693 98.7732 25.4293 98.2398 26.304C97.7278 27.1787 97.0238 27.872 96.1278 28.384C95.2532 28.896 94.2825 29.152 93.2158 29.152ZM126.133 32L118.229 9.44H121.365L128.053 29.344H126.901L134.005 9.44H136.341L142.997 29.344H141.973L148.885 9.44H151.829L143.861 32H141.269L134.773 12.96H135.445L128.693 32H126.133ZM155.293 32V8.448H158.205V19.392H157.789C158.258 18.1547 159.016 17.216 160.061 16.576C161.106 15.936 162.312 15.616 163.677 15.616C165.618 15.616 167.048 16.1387 167.965 17.184C168.904 18.2293 169.373 19.808 169.373 21.92V32H166.461V22.08C166.461 20.6507 166.184 19.616 165.629 18.976C165.074 18.3147 164.168 17.984 162.909 17.984C161.501 17.984 160.36 18.4213 159.485 19.296C158.632 20.1707 158.205 21.3333 158.205 22.784V32H155.293ZM174.137 32V15.904H177.049V32H174.137ZM173.881 12.384V9.248H177.337V12.384H173.881ZM187.934 32.288C186.249 32.288 184.969 31.8293 184.094 30.912C183.241 29.9733 182.814 28.5653 182.814 26.688V18.144H179.678V15.904H182.814V11.584L185.726 10.784V15.904H190.27V18.144H185.726V26.432C185.726 27.6693 185.939 28.5547 186.366 29.088C186.814 29.6 187.454 29.856 188.286 29.856C188.713 29.856 189.075 29.824 189.374 29.76C189.694 29.6747 189.982 29.5787 190.238 29.472V31.872C189.918 32 189.545 32.096 189.118 32.16C188.713 32.2453 188.318 32.288 187.934 32.288ZM200.496 32.288C197.936 32.288 195.909 31.552 194.416 30.08C192.944 28.608 192.208 26.5813 192.208 24C192.208 22.2933 192.528 20.8213 193.168 19.584C193.829 18.3253 194.736 17.3547 195.888 16.672C197.04 15.968 198.384 15.616 199.92 15.616C201.392 15.616 202.64 15.936 203.664 16.576C204.688 17.1947 205.467 18.08 206 19.232C206.533 20.384 206.8 21.7493 206.8 23.328V24.288H194.48V22.56H204.816L204.272 22.976C204.272 21.312 203.899 20.0213 203.152 19.104C202.427 18.1867 201.349 17.728 199.92 17.728C198.363 17.728 197.157 18.272 196.304 19.36C195.451 20.4267 195.024 21.888 195.024 23.744V24.032C195.024 25.9947 195.504 27.4773 196.464 28.48C197.445 29.4827 198.8 29.984 200.528 29.984C201.488 29.984 202.384 29.8453 203.216 29.568C204.048 29.2907 204.848 28.832 205.616 28.192L206.576 30.208C205.851 30.8693 204.944 31.3813 203.856 31.744C202.789 32.1067 201.669 32.288 200.496 32.288ZM210.605 38.912V19.712C210.605 19.0933 210.584 18.464 210.541 17.824C210.499 17.184 210.435 16.544 210.349 15.904H213.165L213.517 19.616H213.165C213.485 18.3787 214.168 17.408 215.213 16.704C216.259 15.9787 217.507 15.616 218.957 15.616C220.387 15.616 221.635 15.9467 222.701 16.608C223.768 17.2693 224.589 18.2293 225.165 19.488C225.763 20.7253 226.061 22.208 226.061 23.936C226.061 25.664 225.763 27.1573 225.165 28.416C224.589 29.6747 223.768 30.6347 222.701 31.296C221.635 31.9573 220.387 32.288 218.957 32.288C217.528 32.288 216.291 31.936 215.245 31.232C214.221 30.5067 213.528 29.536 213.165 28.32H213.517V38.912H210.605ZM218.285 29.984C219.757 29.984 220.931 29.472 221.805 28.448C222.68 27.424 223.117 25.92 223.117 23.936C223.117 21.952 222.68 20.4587 221.805 19.456C220.931 18.4533 219.757 17.952 218.285 17.952C216.813 17.952 215.64 18.4533 214.765 19.456C213.912 20.4587 213.485 21.952 213.485 23.936C213.485 25.92 213.912 27.424 214.765 28.448C215.64 29.472 216.813 29.984 218.285 29.984ZM236.124 32.288C234.716 32.288 233.479 31.9573 232.412 31.296C231.346 30.6347 230.514 29.6747 229.916 28.416C229.319 27.1573 229.02 25.664 229.02 23.936C229.02 22.208 229.319 20.7253 229.916 19.488C230.514 18.2293 231.346 17.2693 232.412 16.608C233.479 15.9467 234.716 15.616 236.124 15.616C237.554 15.616 238.791 15.9787 239.836 16.704C240.903 17.408 241.607 18.3787 241.948 19.616H241.564L241.916 15.904H244.732C244.668 16.544 244.604 17.184 244.54 17.824C244.498 18.464 244.476 19.0933 244.476 19.712V32H241.564V28.32H241.916C241.575 29.536 240.871 30.5067 239.804 31.232C238.759 31.936 237.532 32.288 236.124 32.288ZM236.796 29.984C238.247 29.984 239.41 29.472 240.284 28.448C241.159 27.424 241.596 25.92 241.596 23.936C241.596 21.952 241.159 20.4587 240.284 19.456C239.41 18.4533 238.247 17.952 236.796 17.952C235.346 17.952 234.172 18.4533 233.276 19.456C232.402 20.4587 231.964 21.952 231.964 23.936C231.964 25.92 232.402 27.424 233.276 28.448C234.151 29.472 235.324 29.984 236.796 29.984ZM249.355 38.912V19.712C249.355 19.0933 249.334 18.464 249.291 17.824C249.249 17.184 249.185 16.544 249.099 15.904H251.915L252.267 19.616H251.915C252.235 18.3787 252.918 17.408 253.963 16.704C255.009 15.9787 256.257 15.616 257.707 15.616C259.137 15.616 260.385 15.9467 261.451 16.608C262.518 17.2693 263.339 18.2293 263.915 19.488C264.513 20.7253 264.811 22.208 264.811 23.936C264.811 25.664 264.513 27.1573 263.915 28.416C263.339 29.6747 262.518 30.6347 261.451 31.296C260.385 31.9573 259.137 32.288 257.707 32.288C256.278 32.288 255.041 31.936 253.995 31.232C252.971 30.5067 252.278 29.536 251.915 28.32H252.267V38.912H249.355ZM257.035 29.984C258.507 29.984 259.681 29.472 260.555 28.448C261.43 27.424 261.867 25.92 261.867 23.936C261.867 21.952 261.43 20.4587 260.555 19.456C259.681 18.4533 258.507 17.952 257.035 17.952C255.563 17.952 254.39 18.4533 253.515 19.456C252.662 20.4587 252.235 21.952 252.235 23.936C252.235 25.92 252.662 27.424 253.515 28.448C254.39 29.472 255.563 29.984 257.035 29.984ZM276.058 32.288C273.498 32.288 271.472 31.552 269.978 30.08C268.506 28.608 267.77 26.5813 267.77 24C267.77 22.2933 268.09 20.8213 268.73 19.584C269.392 18.3253 270.298 17.3547 271.45 16.672C272.602 15.968 273.946 15.616 275.482 15.616C276.954 15.616 278.202 15.936 279.226 16.576C280.25 17.1947 281.029 18.08 281.562 19.232C282.096 20.384 282.362 21.7493 282.362 23.328V24.288H270.042V22.56H280.378L279.834 22.976C279.834 21.312 279.461 20.0213 278.714 19.104C277.989 18.1867 276.912 17.728 275.482 17.728C273.925 17.728 272.72 18.272 271.866 19.36C271.013 20.4267 270.586 21.888 270.586 23.744V24.032C270.586 25.9947 271.066 27.4773 272.026 28.48C273.008 29.4827 274.362 29.984 276.09 29.984C277.05 29.984 277.946 29.8453 278.778 29.568C279.61 29.2907 280.41 28.832 281.178 28.192L282.138 30.208C281.413 30.8693 280.506 31.3813 279.418 31.744C278.352 32.1067 277.232 32.288 276.058 32.288ZM286.136 32V19.84C286.136 19.2 286.115 18.5493 286.072 17.888C286.051 17.2053 285.997 16.544 285.912 15.904H288.728L289.08 19.936L288.6 19.968C288.813 18.9867 289.176 18.176 289.688 17.536C290.221 16.8747 290.851 16.3947 291.576 16.096C292.323 15.776 293.091 15.616 293.88 15.616C294.221 15.616 294.509 15.6267 294.744 15.648C294.979 15.6693 295.213 15.7227 295.448 15.808L295.384 18.4C295.064 18.272 294.765 18.1973 294.488 18.176C294.232 18.1333 293.912 18.112 293.528 18.112C292.589 18.112 291.779 18.3253 291.096 18.752C290.435 19.1787 289.923 19.744 289.56 20.448C289.219 21.152 289.048 21.9093 289.048 22.72V32H286.136ZM311.185 32L304.305 15.904H307.441L313.041 29.728H312.145L317.841 15.904H320.817L313.905 32H311.185ZM323.831 32V29.792L331.703 21.536C332.727 20.4907 333.484 19.488 333.975 18.528C334.487 17.568 334.743 16.576 334.743 15.552C334.743 14.2933 334.348 13.344 333.559 12.704C332.791 12.0427 331.66 11.712 330.167 11.712C329.015 11.712 327.927 11.9253 326.903 12.352C325.9 12.7573 324.94 13.3867 324.023 14.24L322.967 11.968C323.842 11.1147 324.94 10.432 326.263 9.92C327.607 9.408 329.015 9.152 330.487 9.152C332.791 9.152 334.572 9.68533 335.831 10.752C337.09 11.7973 337.719 13.3013 337.719 15.264C337.719 16.6933 337.367 18.0587 336.663 19.36C335.98 20.64 334.967 21.9627 333.623 23.328L326.743 30.304V29.472H338.647V32H323.831ZM93.2158 69.152C92.1705 69.152 91.1998 68.9067 90.3038 68.416C89.4078 67.904 88.6932 67.2107 88.1598 66.336C87.6265 65.4613 87.3598 64.4907 87.3598 63.424C87.3598 62.4427 87.6052 61.5147 88.0958 60.64C88.6078 59.7653 89.3012 59.0613 90.1758 58.528C91.0718 57.9733 92.0852 57.696 93.2158 57.696C94.2612 57.696 95.2212 57.952 96.0958 58.464C96.9705 58.9547 97.6745 59.6267 98.2078 60.48C98.7625 61.3333 99.0398 62.3147 99.0398 63.424C99.0398 64.4693 98.7732 65.4293 98.2398 66.304C97.7278 67.1787 97.0238 67.872 96.1278 68.384C95.2532 68.896 94.2825 69.152 93.2158 69.152ZM129.909 72.288C127.647 72.288 125.706 71.8187 124.085 70.88C122.485 69.9413 121.258 68.608 120.405 66.88C119.551 65.1307 119.125 63.072 119.125 60.704C119.125 58.336 119.551 56.288 120.405 54.56C121.258 52.832 122.485 51.4987 124.085 50.56C125.706 49.6213 127.647 49.152 129.909 49.152C131.53 49.152 132.97 49.3973 134.229 49.888C135.487 50.3573 136.586 51.0507 137.525 51.968L136.437 54.368C135.413 53.472 134.399 52.832 133.397 52.448C132.415 52.0427 131.274 51.84 129.973 51.84C127.477 51.84 125.567 52.608 124.245 54.144C122.922 55.68 122.261 57.8667 122.261 60.704C122.261 63.5413 122.922 65.7387 124.245 67.296C125.567 68.832 127.477 69.6 129.973 69.6C131.274 69.6 132.415 69.408 133.397 69.024C134.399 68.6187 135.413 67.968 136.437 67.072L137.525 69.44C136.586 70.3573 135.477 71.0613 134.197 71.552C132.938 72.0427 131.509 72.288 129.909 72.288ZM147.202 72.288C145.623 72.288 144.258 71.9573 143.106 71.296C141.954 70.6133 141.058 69.6533 140.418 68.416C139.778 67.1573 139.458 65.664 139.458 63.936C139.458 62.2293 139.778 60.7573 140.418 59.52C141.058 58.2613 141.954 57.3013 143.106 56.64C144.258 55.9573 145.623 55.616 147.202 55.616C148.781 55.616 150.146 55.9573 151.298 56.64C152.471 57.3013 153.367 58.2613 153.986 59.52C154.626 60.7573 154.946 62.2293 154.946 63.936C154.946 65.664 154.626 67.1573 153.986 68.416C153.367 69.6533 152.471 70.6133 151.298 71.296C150.146 71.9573 148.781 72.288 147.202 72.288ZM147.202 69.984C148.653 69.984 149.815 69.472 150.69 68.448C151.565 67.424 152.002 65.92 152.002 63.936C152.002 61.952 151.565 60.4587 150.69 59.456C149.815 58.4533 148.653 57.952 147.202 57.952C145.73 57.952 144.557 58.4533 143.682 59.456C142.829 60.4587 142.402 61.952 142.402 63.936C142.402 65.92 142.829 67.424 143.682 68.448C144.557 69.472 145.73 69.984 147.202 69.984ZM158.855 72V59.712C158.855 59.0933 158.834 58.464 158.791 57.824C158.749 57.184 158.685 56.544 158.599 55.904H161.415L161.735 59.36H161.351C161.842 58.144 162.599 57.216 163.623 56.576C164.647 55.936 165.842 55.616 167.207 55.616C169.106 55.616 170.535 56.1387 171.495 57.184C172.455 58.208 172.935 59.808 172.935 61.984V72H170.023V62.144C170.023 60.672 169.735 59.616 169.159 58.976C168.583 58.3147 167.687 57.984 166.471 57.984C165.021 57.984 163.869 58.4213 163.015 59.296C162.183 60.1707 161.767 61.3547 161.767 62.848V72H158.855ZM184.611 72.288C183.011 72.288 181.624 71.9573 180.451 71.296C179.278 70.6133 178.36 69.6427 177.699 68.384C177.059 67.104 176.739 65.5893 176.739 63.84C176.739 62.112 177.07 60.64 177.731 59.424C178.392 58.1867 179.31 57.248 180.483 56.608C181.656 55.9467 183.032 55.616 184.611 55.616C185.656 55.616 186.67 55.7973 187.651 56.16C188.632 56.5013 189.432 57.0027 190.051 57.664L189.059 59.712C188.44 59.1147 187.758 58.6773 187.011 58.4C186.264 58.1013 185.528 57.952 184.803 57.952C183.224 57.952 181.987 58.464 181.091 59.488C180.195 60.4907 179.747 61.952 179.747 63.872C179.747 65.8133 180.195 67.3067 181.091 68.352C181.987 69.3973 183.224 69.92 184.803 69.92C185.507 69.92 186.232 69.7813 186.979 69.504C187.726 69.2267 188.419 68.7893 189.059 68.192L190.051 70.208C189.411 70.8907 188.59 71.4133 187.587 71.776C186.606 72.1173 185.614 72.288 184.611 72.288ZM200.621 72.288C198.061 72.288 196.034 71.552 194.541 70.08C193.069 68.608 192.333 66.5813 192.333 64C192.333 62.2933 192.653 60.8213 193.293 59.584C193.954 58.3253 194.861 57.3547 196.013 56.672C197.165 55.968 198.509 55.616 200.045 55.616C201.517 55.616 202.765 55.936 203.789 56.576C204.813 57.1947 205.592 58.08 206.125 59.232C206.658 60.384 206.925 61.7493 206.925 63.328V64.288H194.605V62.56H204.941L204.397 62.976C204.397 61.312 204.024 60.0213 203.277 59.104C202.552 58.1867 201.474 57.728 200.045 57.728C198.488 57.728 197.282 58.272 196.429 59.36C195.576 60.4267 195.149 61.888 195.149 63.744V64.032C195.149 65.9947 195.629 67.4773 196.589 68.48C197.57 69.4827 198.925 69.984 200.653 69.984C201.613 69.984 202.509 69.8453 203.341 69.568C204.173 69.2907 204.973 68.832 205.741 68.192L206.701 70.208C205.976 70.8693 205.069 71.3813 203.981 71.744C202.914 72.1067 201.794 72.288 200.621 72.288ZM210.73 72V59.712C210.73 59.0933 210.709 58.464 210.666 57.824C210.624 57.184 210.56 56.544 210.474 55.904H213.29L213.61 59.36H213.226C213.717 58.144 214.474 57.216 215.498 56.576C216.522 55.936 217.717 55.616 219.082 55.616C220.981 55.616 222.41 56.1387 223.37 57.184C224.33 58.208 224.81 59.808 224.81 61.984V72H221.898V62.144C221.898 60.672 221.61 59.616 221.034 58.976C220.458 58.3147 219.562 57.984 218.346 57.984C216.896 57.984 215.744 58.4213 214.89 59.296C214.058 60.1707 213.642 61.3547 213.642 62.848V72H210.73ZM235.59 72.288C233.905 72.288 232.625 71.8293 231.75 70.912C230.897 69.9733 230.47 68.5653 230.47 66.688V58.144H227.334V55.904H230.47V51.584L233.382 50.784V55.904H237.926V58.144H233.382V66.432C233.382 67.6693 233.595 68.5547 234.022 69.088C234.47 69.6 235.11 69.856 235.942 69.856C236.369 69.856 236.731 69.824 237.03 69.76C237.35 69.6747 237.638 69.5787 237.894 69.472V71.872C237.574 72 237.201 72.096 236.774 72.16C236.369 72.2453 235.974 72.288 235.59 72.288ZM240.948 72V59.84C240.948 59.2 240.927 58.5493 240.884 57.888C240.863 57.2053 240.81 56.544 240.724 55.904H243.54L243.892 59.936L243.412 59.968C243.626 58.9867 243.988 58.176 244.5 57.536C245.034 56.8747 245.663 56.3947 246.388 56.096C247.135 55.776 247.903 55.616 248.692 55.616C249.034 55.616 249.322 55.6267 249.556 55.648C249.791 55.6693 250.026 55.7227 250.26 55.808L250.196 58.4C249.876 58.272 249.578 58.1973 249.3 58.176C249.044 58.1333 248.724 58.112 248.34 58.112C247.402 58.112 246.591 58.3253 245.908 58.752C245.247 59.1787 244.735 59.744 244.372 60.448C244.031 61.152 243.86 61.9093 243.86 62.72V72H240.948ZM258.812 72.288C257.404 72.288 256.167 71.9573 255.1 71.296C254.033 70.6347 253.201 69.6747 252.604 68.416C252.007 67.1573 251.708 65.664 251.708 63.936C251.708 62.208 252.007 60.7253 252.604 59.488C253.201 58.2293 254.033 57.2693 255.1 56.608C256.167 55.9467 257.404 55.616 258.812 55.616C260.241 55.616 261.479 55.9787 262.524 56.704C263.591 57.408 264.295 58.3787 264.636 59.616H264.252L264.604 55.904H267.42C267.356 56.544 267.292 57.184 267.228 57.824C267.185 58.464 267.164 59.0933 267.164 59.712V72H264.252V68.32H264.604C264.263 69.536 263.559 70.5067 262.492 71.232C261.447 71.936 260.22 72.288 258.812 72.288ZM259.484 69.984C260.935 69.984 262.097 69.472 262.972 68.448C263.847 67.424 264.284 65.92 264.284 63.936C264.284 61.952 263.847 60.4587 262.972 59.456C262.097 58.4533 260.935 57.952 259.484 57.952C258.033 57.952 256.86 58.4533 255.964 59.456C255.089 60.4587 254.652 61.952 254.652 63.936C254.652 65.92 255.089 67.424 255.964 68.448C256.839 69.472 258.012 69.984 259.484 69.984ZM278.059 72.288C276.374 72.288 275.094 71.8293 274.219 70.912C273.366 69.9733 272.939 68.5653 272.939 66.688V58.144H269.803V55.904H272.939V51.584L275.851 50.784V55.904H280.395V58.144H275.851V66.432C275.851 67.6693 276.064 68.5547 276.491 69.088C276.939 69.6 277.579 69.856 278.411 69.856C278.838 69.856 279.2 69.824 279.499 69.76C279.819 69.6747 280.107 69.5787 280.363 69.472V71.872C280.043 72 279.67 72.096 279.243 72.16C278.838 72.2453 278.443 72.288 278.059 72.288ZM290.621 72.288C288.061 72.288 286.034 71.552 284.541 70.08C283.069 68.608 282.333 66.5813 282.333 64C282.333 62.2933 282.653 60.8213 283.293 59.584C283.954 58.3253 284.861 57.3547 286.013 56.672C287.165 55.968 288.509 55.616 290.045 55.616C291.517 55.616 292.765 55.936 293.789 56.576C294.813 57.1947 295.592 58.08 296.125 59.232C296.658 60.384 296.925 61.7493 296.925 63.328V64.288H284.605V62.56H294.941L294.397 62.976C294.397 61.312 294.024 60.0213 293.277 59.104C292.552 58.1867 291.474 57.728 290.045 57.728C288.488 57.728 287.282 58.272 286.429 59.36C285.576 60.4267 285.149 61.888 285.149 63.744V64.032C285.149 65.9947 285.629 67.4773 286.589 68.48C287.57 69.4827 288.925 69.984 290.653 69.984C291.613 69.984 292.509 69.8453 293.341 69.568C294.173 69.2907 294.973 68.832 295.741 68.192L296.701 70.208C295.976 70.8693 295.069 71.3813 293.981 71.744C292.914 72.1067 291.794 72.288 290.621 72.288ZM306.874 72.288C305.466 72.288 304.229 71.9573 303.162 71.296C302.096 70.6347 301.264 69.6747 300.666 68.416C300.069 67.1573 299.77 65.664 299.77 63.936C299.77 62.208 300.069 60.7253 300.666 59.488C301.264 58.2293 302.096 57.2693 303.162 56.608C304.229 55.9467 305.466 55.616 306.874 55.616C308.282 55.616 309.509 55.968 310.554 56.672C311.621 57.376 312.336 58.3467 312.698 59.584H312.314V48.448H315.226V72H312.346V68.256H312.698C312.357 69.5147 311.653 70.5067 310.586 71.232C309.541 71.936 308.304 72.288 306.874 72.288ZM307.546 69.984C308.997 69.984 310.16 69.472 311.034 68.448C311.93 67.424 312.378 65.92 312.378 63.936C312.378 61.952 311.93 60.4587 311.034 59.456C310.16 58.4533 308.997 57.952 307.546 57.952C306.096 57.952 304.922 58.4533 304.026 59.456C303.152 60.4587 302.714 61.952 302.714 63.936C302.714 65.92 303.152 67.424 304.026 68.448C304.922 69.472 306.096 69.984 307.546 69.984ZM328.863 72V49.44H331.839V69.44H343.071V72H328.863ZM346.105 72V55.904H349.017V72H346.105ZM345.849 52.384V49.248H349.305V52.384H345.849ZM365.471 78.912V68.32H365.823C365.481 69.536 364.777 70.5067 363.711 71.232C362.665 71.936 361.439 72.288 360.031 72.288C358.623 72.288 357.385 71.9573 356.319 71.296C355.252 70.6347 354.42 69.6747 353.823 68.416C353.225 67.1573 352.927 65.664 352.927 63.936C352.927 62.208 353.225 60.7253 353.823 59.488C354.42 58.2293 355.252 57.2693 356.319 56.608C357.385 55.9467 358.623 55.616 360.031 55.616C361.46 55.616 362.697 55.9787 363.743 56.704C364.809 57.408 365.513 58.3787 365.855 59.616H365.471L365.823 55.904H368.639C368.575 56.544 368.511 57.184 368.447 57.824C368.404 58.464 368.383 59.0933 368.383 59.712V78.912H365.471ZM360.703 69.984C362.153 69.984 363.316 69.472 364.191 68.448C365.065 67.424 365.503 65.92 365.503 63.936C365.503 61.952 365.065 60.4587 364.191 59.456C363.316 58.4533 362.153 57.952 360.703 57.952C359.252 57.952 358.079 58.4533 357.183 59.456C356.308 60.4587 355.871 61.952 355.871 63.936C355.871 65.92 356.308 67.424 357.183 68.448C358.057 69.472 359.231 69.984 360.703 69.984ZM378.99 72.288C377.048 72.288 375.587 71.7653 374.606 70.72C373.646 69.6747 373.166 68.064 373.166 65.888V55.904H376.078V65.824C376.078 67.232 376.366 68.2667 376.942 68.928C377.518 69.5893 378.414 69.92 379.63 69.92C380.952 69.92 382.019 69.4827 382.83 68.608C383.662 67.712 384.078 66.528 384.078 65.056V55.904H386.99V72H384.174V68.448H384.59C384.142 69.664 383.427 70.6133 382.446 71.296C381.464 71.9573 380.312 72.288 378.99 72.288ZM391.887 72V55.904H394.799V72H391.887ZM391.631 52.384V49.248H395.087V52.384H391.631ZM405.812 72.288C404.404 72.288 403.167 71.9573 402.1 71.296C401.033 70.6347 400.201 69.6747 399.604 68.416C399.007 67.1573 398.708 65.664 398.708 63.936C398.708 62.208 399.007 60.7253 399.604 59.488C400.201 58.2293 401.033 57.2693 402.1 56.608C403.167 55.9467 404.404 55.616 405.812 55.616C407.22 55.616 408.447 55.968 409.492 56.672C410.559 57.376 411.273 58.3467 411.636 59.584H411.252V48.448H414.164V72H411.284V68.256H411.636C411.295 69.5147 410.591 70.5067 409.524 71.232C408.479 71.936 407.241 72.288 405.812 72.288ZM406.484 69.984C407.935 69.984 409.097 69.472 409.972 68.448C410.868 67.424 411.316 65.92 411.316 63.936C411.316 61.952 410.868 60.4587 409.972 59.456C409.097 58.4533 407.935 57.952 406.484 57.952C405.033 57.952 403.86 58.4533 402.964 59.456C402.089 60.4587 401.652 61.952 401.652 63.936C401.652 65.92 402.089 67.424 402.964 68.448C403.86 69.472 405.033 69.984 406.484 69.984ZM419.043 72V55.904H421.955V72H419.043ZM418.787 52.384V49.248H422.243V52.384H418.787ZM432.84 72.288C431.155 72.288 429.875 71.8293 429 70.912C428.147 69.9733 427.72 68.5653 427.72 66.688V58.144H424.584V55.904H427.72V51.584L430.632 50.784V55.904H435.176V58.144H430.632V66.432C430.632 67.6693 430.845 68.5547 431.272 69.088C431.72 69.6 432.36 69.856 433.192 69.856C433.619 69.856 433.981 69.824 434.28 69.76C434.6 69.6747 434.888 69.5787 435.144 69.472V71.872C434.824 72 434.451 72.096 434.024 72.16C433.619 72.2453 433.224 72.288 432.84 72.288ZM437.905 79.264L437.233 76.896C438.236 76.6613 439.068 76.384 439.729 76.064C440.39 75.7653 440.945 75.3707 441.393 74.88C441.841 74.3893 442.236 73.7707 442.577 73.024L443.377 71.104L443.313 72.32L436.305 55.904H439.441L445.041 69.696H444.209L449.809 55.904H452.817L445.425 73.248C444.977 74.2933 444.486 75.168 443.953 75.872C443.441 76.576 442.876 77.152 442.257 77.6C441.66 78.048 440.998 78.4 440.273 78.656C439.548 78.912 438.758 79.1147 437.905 79.264ZM93.2158 109.152C92.1705 109.152 91.1998 108.907 90.3038 108.416C89.4078 107.904 88.6932 107.211 88.1598 106.336C87.6265 105.461 87.3598 104.491 87.3598 103.424C87.3598 102.443 87.6052 101.515 88.0958 100.64C88.6078 99.7653 89.3012 99.0613 90.1758 98.528C91.0718 97.9733 92.0852 97.696 93.2158 97.696C94.2612 97.696 95.2212 97.952 96.0958 98.464C96.9705 98.9547 97.6745 99.6267 98.2078 100.48C98.7625 101.333 99.0398 102.315 99.0398 103.424C99.0398 104.469 98.7732 105.429 98.2398 106.304C97.7278 107.179 97.0238 107.872 96.1278 108.384C95.2532 108.896 94.2825 109.152 93.2158 109.152ZM119.957 112V89.44H129.301C131.711 89.44 133.557 90.016 134.837 91.168C136.117 92.32 136.757 93.9093 136.757 95.936C136.757 97.9627 136.117 99.5627 134.837 100.736C133.557 101.888 131.711 102.464 129.301 102.464H122.933V112H119.957ZM122.933 100.032H129.013C130.591 100.032 131.786 99.68 132.597 98.976C133.407 98.2507 133.813 97.2373 133.813 95.936C133.813 94.6347 133.407 93.632 132.597 92.928C131.786 92.224 130.591 91.872 129.013 91.872H122.933V100.032ZM146.115 112.288C144.173 112.288 142.712 111.765 141.731 110.72C140.771 109.675 140.291 108.064 140.291 105.888V95.904H143.203V105.824C143.203 107.232 143.491 108.267 144.067 108.928C144.643 109.589 145.539 109.92 146.755 109.92C148.077 109.92 149.144 109.483 149.955 108.608C150.787 107.712 151.203 106.528 151.203 105.056V95.904H154.115V112H151.299V108.448H151.715C151.267 109.664 150.552 110.613 149.571 111.296C148.589 111.957 147.437 112.288 146.115 112.288ZM167.364 112.288C165.934 112.288 164.697 111.936 163.652 111.232C162.606 110.507 161.913 109.515 161.572 108.256H161.924V112H159.012V88.448H161.924V99.584H161.572C161.934 98.3467 162.628 97.376 163.652 96.672C164.697 95.968 165.934 95.616 167.364 95.616C168.793 95.616 170.041 95.9573 171.108 96.64C172.174 97.3013 172.996 98.2507 173.572 99.488C174.169 100.725 174.468 102.219 174.468 103.968C174.468 105.696 174.169 107.189 173.572 108.448C172.996 109.685 172.164 110.635 171.076 111.296C170.009 111.957 168.772 112.288 167.364 112.288ZM166.692 109.984C168.142 109.984 169.305 109.483 170.18 108.48C171.076 107.456 171.524 105.952 171.524 103.968C171.524 101.984 171.076 100.491 170.18 99.488C169.305 98.464 168.142 97.952 166.692 97.952C165.22 97.952 164.046 98.4533 163.172 99.456C162.318 100.459 161.892 101.952 161.892 103.936C161.892 105.92 162.318 107.424 163.172 108.448C164.046 109.472 165.22 109.984 166.692 109.984ZM178.387 112V88.448H181.299V112H178.387ZM186.168 112V95.904H189.08V112H186.168ZM185.912 92.384V89.248H189.368V92.384H185.912ZM200.861 112.288C199.261 112.288 197.874 111.957 196.701 111.296C195.528 110.613 194.61 109.643 193.949 108.384C193.309 107.104 192.989 105.589 192.989 103.84C192.989 102.112 193.32 100.64 193.981 99.424C194.642 98.1867 195.56 97.248 196.733 96.608C197.906 95.9467 199.282 95.616 200.861 95.616C201.906 95.616 202.92 95.7973 203.901 96.16C204.882 96.5013 205.682 97.0027 206.301 97.664L205.309 99.712C204.69 99.1147 204.008 98.6773 203.261 98.4C202.514 98.1013 201.778 97.952 201.053 97.952C199.474 97.952 198.237 98.464 197.341 99.488C196.445 100.491 195.997 101.952 195.997 103.872C195.997 105.813 196.445 107.307 197.341 108.352C198.237 109.397 199.474 109.92 201.053 109.92C201.757 109.92 202.482 109.781 203.229 109.504C203.976 109.227 204.669 108.789 205.309 108.192L206.301 110.208C205.661 110.891 204.84 111.413 203.837 111.776C202.856 112.117 201.864 112.288 200.861 112.288ZM226.069 112.288C224.256 112.288 222.624 112.053 221.173 111.584C219.722 111.115 218.464 110.453 217.397 109.6L218.421 107.232C219.168 107.787 219.925 108.256 220.693 108.64C221.461 109.003 222.282 109.28 223.157 109.472C224.053 109.643 225.024 109.728 226.069 109.728C227.925 109.728 229.29 109.397 230.165 108.736C231.061 108.053 231.509 107.157 231.509 106.048C231.509 105.088 231.2 104.352 230.581 103.84C229.962 103.328 228.885 102.923 227.349 102.624L223.925 101.92C221.856 101.493 220.309 100.8 219.285 99.84C218.282 98.8587 217.781 97.536 217.781 95.872C217.781 94.528 218.133 93.3547 218.837 92.352C219.562 91.328 220.554 90.5387 221.813 89.984C223.093 89.4293 224.586 89.152 226.293 89.152C227.872 89.152 229.333 89.3867 230.677 89.856C232.021 90.3253 233.152 91.0187 234.069 91.936L233.045 94.208C232.085 93.3333 231.05 92.704 229.941 92.32C228.853 91.9147 227.616 91.712 226.229 91.712C224.544 91.712 223.21 92.0747 222.229 92.8C221.248 93.5253 220.757 94.5067 220.757 95.744C220.757 96.7253 221.066 97.504 221.685 98.08C222.304 98.6347 223.328 99.0613 224.757 99.36L228.181 100.032C230.357 100.459 231.946 101.131 232.949 102.048C233.973 102.965 234.485 104.235 234.485 105.856C234.485 107.136 234.144 108.267 233.461 109.248C232.778 110.208 231.808 110.955 230.549 111.488C229.29 112.021 227.797 112.288 226.069 112.288ZM244.531 112.288C243.123 112.288 241.885 111.957 240.819 111.296C239.752 110.635 238.92 109.675 238.323 108.416C237.725 107.157 237.427 105.664 237.427 103.936C237.427 102.208 237.725 100.725 238.323 99.488C238.92 98.2293 239.752 97.2693 240.819 96.608C241.885 95.9467 243.123 95.616 244.531 95.616C245.96 95.616 247.197 95.9787 248.243 96.704C249.309 97.408 250.013 98.3787 250.355 99.616H249.971L250.323 95.904H253.139C253.075 96.544 253.011 97.184 252.947 97.824C252.904 98.464 252.883 99.0933 252.883 99.712V112H249.971V108.32H250.323C249.981 109.536 249.277 110.507 248.211 111.232C247.165 111.936 245.939 112.288 244.531 112.288ZM245.203 109.984C246.653 109.984 247.816 109.472 248.691 108.448C249.565 107.424 250.003 105.92 250.003 103.936C250.003 101.952 249.565 100.459 248.691 99.456C247.816 98.4533 246.653 97.952 245.203 97.952C243.752 97.952 242.579 98.4533 241.683 99.456C240.808 100.459 240.371 101.952 240.371 103.936C240.371 105.92 240.808 107.424 241.683 108.448C242.557 109.472 243.731 109.984 245.203 109.984ZM257.762 112V88.448H260.674V112H257.762ZM272.871 112.288C270.311 112.288 268.284 111.552 266.791 110.08C265.319 108.608 264.583 106.581 264.583 104C264.583 102.293 264.903 100.821 265.543 99.584C266.204 98.3253 267.111 97.3547 268.263 96.672C269.415 95.968 270.759 95.616 272.295 95.616C273.767 95.616 275.015 95.936 276.039 96.576C277.063 97.1947 277.842 98.08 278.375 99.232C278.908 100.384 279.175 101.749 279.175 103.328V104.288H266.855V102.56H277.191L276.647 102.976C276.647 101.312 276.274 100.021 275.527 99.104C274.802 98.1867 273.724 97.728 272.295 97.728C270.738 97.728 269.532 98.272 268.679 99.36C267.826 100.427 267.399 101.888 267.399 103.744V104.032C267.399 105.995 267.879 107.477 268.839 108.48C269.82 109.483 271.175 109.984 272.903 109.984C273.863 109.984 274.759 109.845 275.591 109.568C276.423 109.291 277.223 108.832 277.991 108.192L278.951 110.208C278.226 110.869 277.319 111.381 276.231 111.744C275.164 112.107 274.044 112.288 272.871 112.288ZM93.2158 149.152C92.1705 149.152 91.1998 148.907 90.3038 148.416C89.4078 147.904 88.6932 147.211 88.1598 146.336C87.6265 145.461 87.3598 144.491 87.3598 143.424C87.3598 142.443 87.6052 141.515 88.0958 140.64C88.6078 139.765 89.3012 139.061 90.1758 138.528C91.0718 137.973 92.0852 137.696 93.2158 137.696C94.2612 137.696 95.2212 137.952 96.0958 138.464C96.9705 138.955 97.6745 139.627 98.2078 140.48C98.7625 141.333 99.0398 142.315 99.0398 143.424C99.0398 144.469 98.7732 145.429 98.2398 146.304C97.7278 147.179 97.0238 147.872 96.1278 148.384C95.2532 148.896 94.2825 149.152 93.2158 149.152ZM125.365 152V131.968H117.557V129.44H136.213V131.968H128.373V152H125.365ZM148.452 152.288C145.977 152.288 143.897 151.829 142.212 150.912C140.527 149.973 139.257 148.64 138.404 146.912C137.572 145.184 137.156 143.125 137.156 140.736C137.156 138.347 137.604 136.288 138.5 134.56C139.396 132.832 140.676 131.499 142.34 130.56C144.025 129.621 146.041 129.152 148.388 129.152C150.031 129.152 151.46 129.387 152.676 129.856C153.892 130.325 154.98 131.008 155.94 131.904L154.82 134.272C154.137 133.675 153.476 133.195 152.836 132.832C152.196 132.469 151.524 132.213 150.82 132.064C150.137 131.893 149.327 131.808 148.388 131.808C145.764 131.808 143.759 132.587 142.372 134.144C140.985 135.701 140.292 137.909 140.292 140.768C140.292 143.669 140.964 145.877 142.308 147.392C143.652 148.907 145.743 149.664 148.58 149.664C149.583 149.664 150.564 149.568 151.524 149.376C152.484 149.184 153.401 148.907 154.276 148.544L153.668 150.048V142.4H148.004V140.096H156.228V150.656C155.268 151.147 154.084 151.541 152.676 151.84C151.268 152.139 149.86 152.288 148.452 152.288ZM161.457 152V129.44H176.049V131.872H164.337V139.328H175.313V141.76H164.337V149.568H176.049V152H161.457Z" fill="#4CC9F0"/>
<line x1="93.7046" y1="20" x2="93.7046" y2="335" stroke="#0FA9D9"/>
</svg>
