<svg width="659" height="641" viewBox="0 0 659 641" fill="none" xmlns="http://www.w3.org/2000/svg">
<path d="M369.3 332L314.933 376.167V287.833L369.3 332Z" fill="#BA1E71"/>
<path fill-rule="evenodd" clip-rule="evenodd" d="M-1.63198e-05 377L54.1611 333L-0.000127846 289H315.929V377H-1.63198e-05Z" fill="#BA1E71"/>
<path d="M140.011 347V344.443L149.614 333.932C150.741 332.701 151.669 331.631 152.398 330.722C153.127 329.803 153.667 328.941 154.017 328.136C154.377 327.322 154.557 326.47 154.557 325.58C154.557 324.557 154.311 323.671 153.818 322.923C153.335 322.175 152.672 321.598 151.83 321.19C150.987 320.783 150.04 320.58 148.989 320.58C147.871 320.58 146.896 320.812 146.062 321.276C145.239 321.73 144.599 322.369 144.145 323.193C143.7 324.017 143.477 324.983 143.477 326.091H140.125C140.125 324.386 140.518 322.89 141.304 321.602C142.09 320.314 143.16 319.311 144.514 318.591C145.878 317.871 147.407 317.511 149.102 317.511C150.807 317.511 152.317 317.871 153.634 318.591C154.95 319.311 155.982 320.281 156.73 321.503C157.478 322.724 157.852 324.083 157.852 325.58C157.852 326.65 157.658 327.696 157.27 328.719C156.891 329.732 156.228 330.864 155.281 332.114C154.344 333.354 153.042 334.869 151.375 336.659L144.841 343.648V343.875H158.364V347H140.011ZM173.719 347.398C171.579 347.398 169.756 346.815 168.25 345.651C166.744 344.476 165.594 342.777 164.798 340.551C164.003 338.316 163.605 335.617 163.605 332.455C163.605 329.311 164.003 326.626 164.798 324.401C165.603 322.166 166.759 320.461 168.264 319.287C169.779 318.103 171.598 317.511 173.719 317.511C175.84 317.511 177.653 318.103 179.159 319.287C180.674 320.461 181.83 322.166 182.625 324.401C183.43 326.626 183.832 329.311 183.832 332.455C183.832 335.617 183.435 338.316 182.639 340.551C181.844 342.777 180.693 344.476 179.188 345.651C177.682 346.815 175.859 347.398 173.719 347.398ZM173.719 344.273C175.84 344.273 177.488 343.25 178.662 341.205C179.836 339.159 180.423 336.242 180.423 332.455C180.423 329.936 180.153 327.791 179.614 326.02C179.083 324.249 178.316 322.9 177.312 321.972C176.318 321.044 175.12 320.58 173.719 320.58C171.616 320.58 169.973 321.616 168.79 323.69C167.606 325.755 167.014 328.676 167.014 332.455C167.014 334.973 167.279 337.114 167.81 338.875C168.34 340.636 169.102 341.976 170.097 342.895C171.1 343.813 172.308 344.273 173.719 344.273ZM189.23 347V344.443L198.832 333.932C199.959 332.701 200.887 331.631 201.616 330.722C202.346 329.803 202.885 328.941 203.236 328.136C203.596 327.322 203.776 326.47 203.776 325.58C203.776 324.557 203.529 323.671 203.037 322.923C202.554 322.175 201.891 321.598 201.048 321.19C200.205 320.783 199.259 320.58 198.207 320.58C197.09 320.58 196.115 320.812 195.281 321.276C194.457 321.73 193.818 322.369 193.364 323.193C192.919 324.017 192.696 324.983 192.696 326.091H189.344C189.344 324.386 189.737 322.89 190.523 321.602C191.309 320.314 192.379 319.311 193.733 318.591C195.097 317.871 196.626 317.511 198.321 317.511C200.026 317.511 201.536 317.871 202.852 318.591C204.169 319.311 205.201 320.281 205.949 321.503C206.697 322.724 207.071 324.083 207.071 325.58C207.071 326.65 206.877 327.696 206.489 328.719C206.11 329.732 205.447 330.864 204.5 332.114C203.562 333.354 202.26 334.869 200.594 336.659L194.06 343.648V343.875H207.582V347H189.23ZM223.278 347.398C221.403 347.398 219.732 347.076 218.264 346.432C216.806 345.788 215.646 344.893 214.784 343.747C213.932 342.592 213.468 341.252 213.392 339.727H216.972C217.047 340.665 217.369 341.474 217.938 342.156C218.506 342.829 219.249 343.349 220.168 343.719C221.086 344.088 222.104 344.273 223.222 344.273C224.472 344.273 225.58 344.055 226.545 343.619C227.511 343.184 228.269 342.578 228.818 341.801C229.367 341.025 229.642 340.125 229.642 339.102C229.642 338.032 229.377 337.09 228.847 336.276C228.316 335.452 227.54 334.808 226.517 334.344C225.494 333.88 224.244 333.648 222.767 333.648H220.438V330.523H222.767C223.922 330.523 224.936 330.314 225.807 329.898C226.688 329.481 227.374 328.894 227.866 328.136C228.368 327.379 228.619 326.489 228.619 325.466C228.619 324.481 228.402 323.624 227.966 322.895C227.53 322.166 226.915 321.598 226.119 321.19C225.333 320.783 224.405 320.58 223.335 320.58C222.331 320.58 221.384 320.764 220.494 321.134C219.614 321.493 218.894 322.019 218.335 322.71C217.777 323.392 217.473 324.216 217.426 325.182H214.017C214.074 323.657 214.533 322.322 215.395 321.176C216.257 320.021 217.384 319.121 218.776 318.477C220.177 317.833 221.716 317.511 223.392 317.511C225.191 317.511 226.735 317.876 228.023 318.605C229.311 319.325 230.3 320.277 230.991 321.46C231.683 322.644 232.028 323.922 232.028 325.295C232.028 326.934 231.598 328.33 230.736 329.486C229.884 330.641 228.723 331.441 227.256 331.886V332.114C229.093 332.417 230.527 333.198 231.56 334.457C232.592 335.707 233.108 337.256 233.108 339.102C233.108 340.684 232.677 342.104 231.815 343.364C230.963 344.614 229.798 345.598 228.321 346.318C226.844 347.038 225.163 347.398 223.278 347.398ZM261.247 337.909H265.111L268.349 342.17L269.202 343.307L274.031 349.727H270.168L266.986 345.466L266.19 344.386L261.247 337.909ZM275.224 332.455C275.224 335.523 274.67 338.174 273.562 340.409C272.455 342.644 270.935 344.367 269.003 345.58C267.071 346.792 264.865 347.398 262.384 347.398C259.902 347.398 257.696 346.792 255.764 345.58C253.832 344.367 252.313 342.644 251.205 340.409C250.097 338.174 249.543 335.523 249.543 332.455C249.543 329.386 250.097 326.735 251.205 324.5C252.313 322.265 253.832 320.542 255.764 319.33C257.696 318.117 259.902 317.511 262.384 317.511C264.865 317.511 267.071 318.117 269.003 319.33C270.935 320.542 272.455 322.265 273.562 324.5C274.67 326.735 275.224 329.386 275.224 332.455ZM271.815 332.455C271.815 329.936 271.394 327.81 270.551 326.077C269.718 324.344 268.586 323.032 267.156 322.142C265.736 321.252 264.145 320.807 262.384 320.807C260.622 320.807 259.027 321.252 257.597 322.142C256.176 323.032 255.045 324.344 254.202 326.077C253.368 327.81 252.952 329.936 252.952 332.455C252.952 334.973 253.368 337.099 254.202 338.832C255.045 340.565 256.176 341.877 257.597 342.767C259.027 343.657 260.622 344.102 262.384 344.102C264.145 344.102 265.736 343.657 267.156 342.767C268.586 341.877 269.718 340.565 270.551 338.832C271.394 337.099 271.815 334.973 271.815 332.455ZM280.636 347V344.443L290.239 333.932C291.366 332.701 292.294 331.631 293.023 330.722C293.752 329.803 294.292 328.941 294.642 328.136C295.002 327.322 295.182 326.47 295.182 325.58C295.182 324.557 294.936 323.671 294.443 322.923C293.96 322.175 293.297 321.598 292.455 321.19C291.612 320.783 290.665 320.58 289.614 320.58C288.496 320.58 287.521 320.812 286.688 321.276C285.864 321.73 285.224 322.369 284.77 323.193C284.325 324.017 284.102 324.983 284.102 326.091H280.75C280.75 324.386 281.143 322.89 281.929 321.602C282.715 320.314 283.785 319.311 285.139 318.591C286.503 317.871 288.032 317.511 289.727 317.511C291.432 317.511 292.942 317.871 294.259 318.591C295.575 319.311 296.607 320.281 297.355 321.503C298.103 322.724 298.477 324.083 298.477 325.58C298.477 326.65 298.283 327.696 297.895 328.719C297.516 329.732 296.853 330.864 295.906 332.114C294.969 333.354 293.667 334.869 292 336.659L285.466 343.648V343.875H298.989V347H280.636Z" fill="black"/>
<ellipse cx="94.5248" cy="330.225" rx="9.52477" ry="8.22454" fill="#D9D9D9"/>
<path d="M93.7163 427.895C92.671 427.891 91.7016 427.642 90.8082 427.148C89.915 426.632 89.204 425.936 88.6754 425.059C88.1467 424.183 87.8853 423.211 87.891 422.144C87.8962 421.163 88.1465 420.236 88.6418 419.363C89.1585 418.491 89.8556 417.789 90.7331 417.26C91.6321 416.708 92.6469 416.435 93.7775 416.44C94.8229 416.444 95.7815 416.704 96.6534 417.219C97.5254 417.713 98.2258 418.388 98.7546 419.244C99.3047 420.099 99.5768 421.081 99.5709 422.191C99.5653 423.236 99.2935 424.195 98.7555 425.068C98.2388 425.94 97.5311 426.631 96.6324 427.139C95.755 427.648 94.7829 427.9 93.7163 427.895ZM120.442 430.85L120.562 408.29L128.21 408.321C130.727 408.331 132.848 408.777 134.571 409.658C136.316 410.54 137.632 411.825 138.519 413.514C139.406 415.182 139.843 417.221 139.83 419.631C139.817 422.042 139.358 424.088 138.453 425.77C137.548 427.452 136.218 428.726 134.465 429.594C132.732 430.462 130.607 430.891 128.09 430.881L120.442 430.85ZM123.431 428.334L127.879 428.352C130.887 428.364 133.12 427.647 134.579 426.202C136.037 424.758 136.774 422.563 136.79 419.619C136.806 416.675 136.092 414.486 134.649 413.051C133.206 411.594 130.981 410.86 127.973 410.848L123.525 410.83L123.431 428.334ZM144.089 430.944L144.154 418.784C144.158 418.145 144.14 417.494 144.101 416.832C144.083 416.15 144.033 415.488 143.951 414.848L146.767 414.859L147.098 418.892L146.618 418.922C146.836 417.942 147.203 417.133 147.719 416.495C148.256 415.835 148.887 415.358 149.614 415.062C150.363 414.745 151.132 414.588 151.921 414.591C152.262 414.593 152.55 414.605 152.785 414.627C153.019 414.649 153.254 414.703 153.488 414.79L153.41 417.381C153.091 417.252 152.792 417.176 152.515 417.154C152.259 417.11 151.94 417.088 151.556 417.086C150.617 417.082 149.805 417.292 149.12 417.716C148.457 418.14 147.942 418.704 147.575 419.406C147.23 420.109 147.055 420.865 147.051 421.676L147.001 430.956L144.089 430.944ZM161.951 431.304C160.543 431.298 159.308 430.962 158.245 430.297C157.181 429.631 156.355 428.668 155.764 427.407C155.173 426.146 154.883 424.651 154.892 422.923C154.901 421.195 155.208 419.714 155.812 418.479C156.416 417.223 157.253 416.266 158.323 415.609C159.393 414.952 160.632 414.626 162.04 414.632C163.47 414.637 164.705 415.005 165.747 415.735C166.809 416.443 167.508 417.416 167.843 418.655L167.459 418.653L167.831 414.943L170.647 414.954C170.579 415.594 170.512 416.234 170.444 416.873C170.398 417.513 170.374 418.142 170.37 418.761L170.305 431.049L167.393 431.037L167.412 427.357L167.764 427.359C167.417 428.573 166.707 429.541 165.637 430.262C164.588 430.962 163.359 431.309 161.951 431.304ZM162.636 429.002C164.086 429.008 165.252 428.501 166.132 427.48C167.012 426.46 167.457 424.957 167.468 422.973C167.478 420.989 167.049 419.494 166.18 418.488C165.311 417.482 164.151 416.976 162.7 416.97C161.249 416.965 160.073 417.461 159.172 418.46C158.292 419.46 157.847 420.951 157.836 422.935C157.825 424.919 158.255 426.425 159.124 427.452C159.993 428.48 161.164 428.996 162.636 429.002ZM176.08 431.072L176.154 417.216L173.018 417.204L173.03 414.964L176.966 414.979L176.162 415.712L176.176 413.12C176.186 411.243 176.663 409.826 177.606 408.87C178.55 407.892 179.918 407.407 181.71 407.414C182.137 407.416 182.585 407.45 183.054 407.515C183.544 407.581 183.949 407.69 184.268 407.84L184.255 410.208C184 410.101 183.68 410.014 183.297 409.948C182.913 409.883 182.54 409.849 182.177 409.848C181.537 409.845 180.982 409.971 180.511 410.225C180.04 410.479 179.686 410.862 179.449 411.373C179.212 411.863 179.091 412.513 179.087 413.324L179.074 415.596L178.63 414.986L183.526 415.005L183.514 417.245L179.066 417.228L178.992 431.083L176.08 431.072ZM191.448 431.421C189.763 431.414 188.485 430.951 187.615 430.03C186.767 429.088 186.348 427.678 186.358 425.801L186.404 417.257L183.268 417.244L183.28 415.004L186.416 415.017L186.439 410.697L189.355 409.909L189.328 415.029L193.872 415.047L193.86 417.287L189.316 417.269L189.271 425.556C189.265 426.794 189.473 427.68 189.897 428.215C190.342 428.729 190.981 428.987 191.813 428.991C192.24 428.992 192.602 428.962 192.901 428.899C193.222 428.815 193.51 428.72 193.767 428.614L193.754 431.014C193.434 431.141 193.06 431.236 192.633 431.298C192.227 431.382 191.832 431.423 191.448 431.421ZM211.773 431.214L203.99 408.623L207.126 408.635L213.707 428.566L212.555 428.561L219.766 408.686L222.102 408.695L228.651 428.625L227.627 428.621L234.646 408.745L237.59 408.757L229.501 431.285L226.909 431.274L220.515 412.209L221.187 412.212L214.333 431.224L211.773 431.214ZM240.933 431.33L241.059 407.779L243.971 407.79L243.913 418.734L243.497 418.733C243.972 417.497 244.735 416.561 245.784 415.926C246.832 415.29 248.039 414.975 249.405 414.98C251.346 414.988 252.773 415.516 253.684 416.565C254.617 417.614 255.078 419.195 255.067 421.307L255.013 431.387L252.101 431.375L252.154 421.455C252.162 420.026 251.89 418.99 251.339 418.348C250.788 417.684 249.883 417.35 248.624 417.345C247.216 417.339 246.072 417.772 245.193 418.643C244.335 419.515 243.902 420.675 243.894 422.126L243.845 431.342L240.933 431.33ZM259.777 431.405L259.863 415.31L262.775 415.321L262.689 431.417L259.777 431.405ZM259.626 411.789L259.642 408.653L263.098 408.667L263.082 411.803L259.626 411.789ZM273.572 431.748C271.887 431.742 270.609 431.278 269.74 430.357C268.891 429.415 268.472 428.005 268.482 426.128L268.528 417.584L265.392 417.572L265.404 415.332L268.54 415.344L268.563 411.024L271.479 410.236L271.452 415.356L275.996 415.374L275.984 417.614L271.44 417.596L271.396 425.884C271.389 427.121 271.598 428.007 272.021 428.542C272.467 429.056 273.105 429.315 273.937 429.318C274.364 429.32 274.727 429.289 275.026 429.226C275.346 429.142 275.635 429.047 275.891 428.942L275.879 431.342C275.558 431.468 275.184 431.563 274.757 431.625C274.351 431.709 273.956 431.75 273.572 431.748ZM286.134 431.799C283.574 431.788 281.552 431.044 280.066 429.566C278.602 428.089 277.877 426.059 277.891 423.478C277.9 421.771 278.228 420.3 278.874 419.066C279.542 417.81 280.454 416.842 281.61 416.164C282.766 415.465 284.111 415.118 285.647 415.125C287.119 415.13 288.366 415.455 289.386 416.099C290.407 416.722 291.181 417.611 291.708 418.765C292.235 419.919 292.495 421.285 292.486 422.864L292.481 423.824L280.161 423.775L280.17 422.047L290.506 422.088L289.96 422.502C289.969 420.838 289.602 419.546 288.861 418.625C288.14 417.705 287.065 417.242 285.636 417.236C284.079 417.23 282.871 417.769 282.011 418.854C281.152 419.917 280.718 421.377 280.708 423.233L280.706 423.521C280.696 425.484 281.168 426.968 282.123 427.975C283.099 428.981 284.451 429.488 286.179 429.495C287.139 429.499 288.035 429.363 288.869 429.089C289.702 428.815 290.505 428.36 291.276 427.723L292.225 429.743C291.496 430.401 290.587 430.91 289.497 431.268C288.429 431.626 287.308 431.803 286.134 431.799ZM296.208 438.463L296.311 419.263C296.314 418.644 296.296 418.015 296.257 417.375C296.218 416.735 296.157 416.094 296.075 415.454L298.891 415.465L299.223 419.179L298.871 419.177C299.198 417.941 299.886 416.973 300.935 416.273C301.984 415.552 303.234 415.195 304.685 415.2C306.114 415.206 307.36 415.542 308.423 416.207C309.487 416.873 310.303 417.836 310.872 419.097C311.463 420.337 311.753 421.821 311.744 423.549C311.735 425.277 311.428 426.769 310.824 428.025C310.242 429.281 309.415 430.238 308.345 430.895C307.275 431.552 306.025 431.878 304.596 431.872C303.166 431.866 301.931 431.51 300.889 430.801C299.869 430.072 299.181 429.099 298.825 427.881L299.177 427.883L299.12 438.474L296.208 438.463ZM303.936 429.566C305.408 429.571 306.584 429.064 307.464 428.044C308.344 427.023 308.79 425.521 308.8 423.537C308.811 421.553 308.381 420.058 307.512 419.052C306.643 418.046 305.472 417.54 304 417.534C302.528 417.528 301.352 418.024 300.472 419.024C299.614 420.023 299.179 421.514 299.168 423.498C299.158 425.482 299.576 426.988 300.424 428.016C301.293 429.043 302.464 429.56 303.936 429.566ZM321.762 431.941C320.354 431.935 319.119 431.599 318.056 430.934C316.993 430.268 316.166 429.305 315.575 428.044C314.985 426.783 314.694 425.288 314.703 423.56C314.712 421.832 315.019 420.351 315.623 419.116C316.227 417.86 317.064 416.903 318.134 416.246C319.205 415.589 320.444 415.263 321.852 415.269C323.281 415.275 324.516 415.642 325.558 416.372C326.621 417.08 327.319 418.053 327.654 419.292L327.27 419.29L327.642 415.58L330.458 415.591C330.391 416.231 330.323 416.871 330.256 417.51C330.21 418.15 330.185 418.779 330.182 419.398L330.116 431.686L327.204 431.674L327.224 427.994L327.576 427.996C327.228 429.21 326.519 430.178 325.448 430.899C324.399 431.599 323.17 431.946 321.762 431.941ZM322.447 429.639C323.897 429.645 325.063 429.138 325.943 428.117C326.823 427.097 327.268 425.595 327.279 423.611C327.29 421.627 326.86 420.132 325.991 419.125C325.122 418.119 323.962 417.613 322.511 417.607C321.06 417.602 319.884 418.098 318.983 419.097C318.103 420.097 317.658 421.588 317.647 423.572C317.637 425.556 318.066 427.062 318.935 428.089C319.804 429.117 320.975 429.633 322.447 429.639ZM334.958 438.617L335.061 419.418C335.064 418.799 335.046 418.169 335.007 417.529C334.967 416.889 334.907 416.249 334.825 415.609L337.641 415.62L337.973 419.333L337.621 419.332C337.948 418.096 338.636 417.128 339.685 416.428C340.734 415.707 341.984 415.349 343.434 415.355C344.864 415.361 346.11 415.696 347.173 416.362C348.236 417.027 349.052 417.991 349.622 419.252C350.212 420.491 350.503 421.975 350.494 423.703C350.485 425.431 350.178 426.923 349.574 428.179C348.991 429.436 348.165 430.393 347.095 431.05C346.024 431.707 344.775 432.032 343.345 432.027C341.916 432.021 340.681 431.664 339.639 430.956C338.619 430.226 337.931 429.253 337.575 428.036L337.927 428.037L337.87 438.629L334.958 438.617ZM342.686 429.72C344.158 429.726 345.334 429.219 346.214 428.198C347.094 427.178 347.539 425.675 347.55 423.691C347.561 421.707 347.131 420.212 346.262 419.206C345.393 418.2 344.222 417.694 342.75 417.688C341.278 417.682 340.102 418.179 339.222 419.178C338.363 420.177 337.929 421.669 337.918 423.653C337.907 425.637 338.326 427.143 339.174 428.17C340.043 429.197 341.214 429.714 342.686 429.72ZM361.696 432.1C359.136 432.09 357.113 431.346 355.628 429.868C354.164 428.39 353.439 426.36 353.453 423.779C353.462 422.072 353.79 420.602 354.436 419.367C355.104 418.111 356.016 417.144 357.172 416.466C358.327 415.766 359.673 415.42 361.209 415.426C362.681 415.432 363.928 415.757 364.948 416.401C365.969 417.023 366.743 417.912 367.27 419.066C367.797 420.22 368.056 421.586 368.048 423.165L368.043 424.125L355.723 424.076L355.732 422.348L366.068 422.389L365.522 422.803C365.531 421.139 365.164 419.847 364.423 418.927C363.702 418.006 362.627 417.543 361.198 417.538C359.641 417.531 358.432 418.071 357.573 419.155C356.714 420.219 356.28 421.678 356.27 423.534L356.268 423.822C356.258 425.785 356.73 427.269 357.685 428.276C358.661 429.282 360.012 429.789 361.74 429.796C362.7 429.8 363.597 429.665 364.431 429.391C365.264 429.117 366.067 428.661 366.838 428.024L367.787 430.044C367.058 430.702 366.149 431.211 365.059 431.569C363.99 431.928 362.869 432.104 361.696 432.1ZM371.775 431.852L371.84 419.692C371.844 419.052 371.826 418.401 371.787 417.74C371.769 417.057 371.719 416.396 371.637 415.755L374.453 415.767L374.784 419.8L374.303 419.83C374.522 418.849 374.889 418.04 375.404 417.402C375.941 416.743 376.573 416.266 377.3 415.97C378.048 415.653 378.817 415.496 379.607 415.499C379.948 415.5 380.236 415.512 380.47 415.535C380.705 415.557 380.939 415.611 381.174 415.697L381.096 418.289C380.776 418.16 380.478 418.084 380.201 418.061C379.945 418.018 379.625 417.995 379.241 417.994C378.303 417.99 377.491 418.2 376.806 418.624C376.142 419.048 375.627 419.611 375.261 420.314C374.916 421.016 374.741 421.773 374.737 422.584L374.687 431.864L371.775 431.852ZM93.5024 467.895C92.4571 467.891 91.4878 467.642 90.5944 467.147C89.7011 466.632 88.9902 465.936 88.4615 465.059C87.9329 464.182 87.6714 463.21 87.6771 462.144C87.6823 461.162 87.9326 460.235 88.428 459.363C88.9447 458.49 89.6417 457.789 90.5193 457.259C91.4182 456.708 92.433 456.435 93.5637 456.439C94.609 456.443 95.5676 456.703 96.4396 457.219C97.3116 457.713 98.012 458.387 98.5408 459.243C99.0909 460.098 99.3629 461.081 99.357 462.19C99.3514 463.236 99.0796 464.194 98.5416 465.067C98.0249 465.94 97.3172 466.63 96.4185 467.139C95.5411 467.647 94.5691 467.899 93.5024 467.895ZM120.228 470.849L120.348 448.29L122.652 448.299L136.696 467.043L135.928 467.04L136.028 448.352L138.812 448.363L138.692 470.923L136.42 470.914L122.376 452.17L123.112 452.173L123.012 470.861L120.228 470.849ZM144.165 470.945L144.286 448.385L158.558 448.442L158.545 450.874L147.249 450.829L147.208 458.381L157.768 458.423L157.755 460.855L147.195 460.813L147.141 470.957L144.165 470.945ZM167.76 471.039L167.867 451.007L160.06 450.976L160.073 448.448L178.729 448.523L178.715 451.05L170.875 451.019L170.768 471.051L167.76 471.039ZM190.227 471.129L190.348 448.569L193.324 448.581L193.217 468.58L204.449 468.625L204.435 471.185L190.227 471.129ZM213.612 471.51C212.204 471.504 210.968 471.169 209.905 470.503C208.842 469.837 208.015 468.874 207.425 467.613C206.834 466.352 206.543 464.858 206.553 463.13C206.562 461.402 206.869 459.92 207.472 458.685C208.077 457.429 208.914 456.472 209.984 455.815C211.054 455.158 212.293 454.832 213.701 454.838C215.13 454.844 216.366 455.211 217.407 455.941C218.47 456.649 219.169 457.622 219.504 458.861L219.12 458.86L219.492 455.149L222.307 455.16C222.24 455.8 222.173 456.44 222.105 457.08C222.059 457.719 222.034 458.349 222.031 458.967L221.965 471.255L219.053 471.243L219.073 467.563L219.425 467.565C219.077 468.78 218.368 469.747 217.298 470.468C216.248 471.168 215.02 471.515 213.612 471.51ZM214.296 469.208C215.747 469.214 216.912 468.707 217.792 467.686C218.673 466.666 219.118 465.164 219.129 463.18C219.139 461.196 218.71 459.701 217.841 458.695C216.971 457.688 215.811 457.182 214.361 457.177C212.91 457.171 211.734 457.667 210.833 458.667C209.953 459.666 209.507 461.157 209.497 463.141C209.486 465.125 209.915 466.631 210.785 467.658C211.654 468.686 212.824 469.203 214.296 469.208ZM232.571 471.585C230.629 471.578 229.171 471.049 228.195 470C227.241 468.951 226.769 467.338 226.781 465.162L226.834 455.178L229.746 455.19L229.693 465.11C229.686 466.518 229.968 467.554 230.541 468.217C231.113 468.881 232.007 469.215 233.223 469.22C234.546 469.225 235.615 468.792 236.43 467.921C237.267 467.028 237.69 465.846 237.697 464.374L237.746 455.222L240.658 455.233L240.572 471.329L237.756 471.318L237.775 467.766L238.191 467.768C237.737 468.982 237.017 469.928 236.032 470.607C235.047 471.265 233.893 471.591 232.571 471.585ZM245.469 471.349L245.535 459.061C245.538 458.442 245.52 457.813 245.481 457.173C245.442 456.533 245.381 455.892 245.299 455.252L248.115 455.263L248.417 458.72L248.033 458.719C248.53 457.505 249.292 456.58 250.32 455.944C251.347 455.308 252.543 454.993 253.909 454.998C255.807 455.006 257.234 455.534 258.188 456.583C259.143 457.611 259.614 459.213 259.603 461.389L259.549 471.405L256.637 471.393L256.69 461.537C256.698 460.065 256.415 459.008 255.843 458.366C255.27 457.702 254.376 457.368 253.16 457.363C251.709 457.358 250.555 457.79 249.697 458.662C248.86 459.533 248.438 460.715 248.43 462.208L248.381 471.36L245.469 471.349ZM271.223 471.739C269.623 471.733 268.238 471.397 267.069 470.731C265.899 470.044 264.987 469.069 264.332 467.808C263.699 466.525 263.387 465.009 263.396 463.26C263.406 461.532 263.744 460.062 264.412 458.848C265.08 457.613 266.002 456.678 267.179 456.043C268.356 455.387 269.734 455.061 271.312 455.068C272.358 455.072 273.37 455.257 274.349 455.624C275.329 455.969 276.126 456.474 276.741 457.137L275.738 459.181C275.123 458.582 274.443 458.141 273.697 457.861C272.952 457.56 272.217 457.407 271.492 457.404C269.913 457.398 268.673 457.905 267.772 458.926C266.87 459.925 266.415 461.384 266.404 463.304C266.394 465.245 266.834 466.741 267.724 467.789C268.615 468.838 269.849 469.366 271.428 469.372C272.132 469.375 272.858 469.239 273.606 468.965C274.354 468.691 275.05 468.256 275.693 467.661L276.674 469.681C276.031 470.361 275.207 470.881 274.202 471.239C273.219 471.577 272.226 471.743 271.223 471.739ZM280.219 471.487L280.345 447.936L283.257 447.947L283.198 458.891L282.782 458.889C283.258 457.654 284.021 456.718 285.069 456.082C286.118 455.447 287.325 455.131 288.691 455.137C290.632 455.145 292.058 455.673 292.97 456.722C293.903 457.771 294.364 459.352 294.353 461.464L294.299 471.543L291.387 471.532L291.44 461.612C291.448 460.183 291.176 459.147 290.625 458.505C290.073 457.841 289.169 457.507 287.91 457.502C286.502 457.496 285.358 457.929 284.479 458.8C283.621 459.671 283.188 460.832 283.18 462.283L283.131 471.499L280.219 471.487ZM314.282 471.911C312.704 471.905 311.34 471.569 310.192 470.903C309.043 470.215 308.153 469.252 307.519 468.012C306.886 466.751 306.574 465.256 306.583 463.528C306.592 461.822 306.92 460.351 307.567 459.116C308.213 457.86 309.115 456.904 310.27 456.247C311.426 455.569 312.793 455.233 314.372 455.239C315.95 455.246 317.314 455.592 318.462 456.28C319.632 456.946 320.523 457.909 321.135 459.17C321.768 460.41 322.08 461.883 322.071 463.59C322.062 465.318 321.734 466.81 321.087 468.066C320.462 469.301 319.561 470.257 318.384 470.935C317.228 471.592 315.861 471.917 314.282 471.911ZM314.295 469.607C315.745 469.613 316.911 469.106 317.791 468.085C318.671 467.065 319.116 465.562 319.127 463.578C319.138 461.594 318.708 460.099 317.839 459.093C316.97 458.087 315.81 457.581 314.359 457.575C312.887 457.569 311.711 458.066 310.831 459.065C309.972 460.064 309.538 461.556 309.527 463.54C309.516 465.524 309.935 467.03 310.783 468.057C311.652 469.085 312.823 469.601 314.295 469.607ZM325.937 471.67L326.003 459.382C326.006 458.763 325.988 458.134 325.949 457.493C325.91 456.853 325.849 456.213 325.767 455.573L328.583 455.584L328.885 459.041L328.501 459.04C328.998 457.826 329.76 456.901 330.788 456.265C331.815 455.629 333.012 455.314 334.377 455.319C336.276 455.327 337.702 455.855 338.656 456.904C339.611 457.932 340.082 459.534 340.071 461.71L340.017 471.726L337.105 471.714L337.158 461.858C337.166 460.386 336.883 459.329 336.311 458.687C335.738 458.023 334.844 457.689 333.628 457.684C332.178 457.678 331.023 458.111 330.165 458.982C329.329 459.854 328.906 461.036 328.898 462.529L328.849 471.681L325.937 471.67ZM358.946 471.801L359.053 451.769L351.246 451.738L351.259 449.21L369.915 449.285L369.901 451.813L362.061 451.781L361.954 471.813L358.946 471.801ZM377.513 472.163C374.953 472.153 372.931 471.409 371.445 469.931C369.981 468.453 369.256 466.423 369.27 463.842C369.279 462.136 369.607 460.665 370.253 459.43C370.921 458.174 371.833 457.207 372.989 456.529C374.145 455.83 375.491 455.483 377.027 455.489C378.499 455.495 379.745 455.82 380.765 456.464C381.786 457.087 382.56 457.975 383.087 459.129C383.614 460.283 383.874 461.65 383.865 463.228L383.86 464.188L371.54 464.139L371.549 462.411L381.885 462.452L381.339 462.866C381.348 461.202 380.982 459.91 380.24 458.99C379.519 458.07 378.445 457.607 377.015 457.601C375.458 457.595 374.25 458.134 373.391 459.219C372.532 460.282 372.097 461.741 372.087 463.597L372.086 463.885C372.075 465.848 372.547 467.333 373.502 468.339C374.478 469.346 375.83 469.852 377.558 469.859C378.518 469.863 379.414 469.728 380.248 469.454C381.081 469.18 381.884 468.725 382.655 468.088L383.604 470.107C382.876 470.766 381.966 471.274 380.876 471.633C379.808 471.991 378.687 472.168 377.513 472.163ZM393.063 472.225C391.761 472.22 390.546 472.044 389.418 471.699C388.31 471.353 387.395 470.859 386.673 470.216L387.612 468.203C388.398 468.804 389.26 469.266 390.197 469.59C391.155 469.892 392.136 470.045 393.138 470.049C394.354 470.054 395.273 469.834 395.894 469.388C396.536 468.943 396.86 468.347 396.864 467.6C396.867 467.003 396.667 466.522 396.263 466.158C395.86 465.794 395.221 465.524 394.348 465.35L391.311 464.73C389.947 464.405 388.915 463.889 388.215 463.182C387.536 462.454 387.2 461.524 387.206 460.394C387.211 459.455 387.471 458.624 387.987 457.901C388.503 457.156 389.232 456.583 390.173 456.181C391.135 455.759 392.256 455.55 393.536 455.555C394.709 455.56 395.796 455.735 396.797 456.08C397.819 456.425 398.659 456.93 399.317 457.594L398.347 459.542C397.688 458.963 396.944 458.523 396.114 458.221C395.305 457.898 394.474 457.735 393.62 457.731C392.383 457.726 391.464 457.968 390.864 458.456C390.265 458.923 389.963 459.541 389.958 460.309C389.955 460.885 390.134 461.365 390.495 461.751C390.855 462.115 391.441 462.395 392.25 462.59L395.287 463.21C396.715 463.514 397.789 464.009 398.511 464.695C399.233 465.38 399.591 466.288 399.585 467.419C399.579 468.422 399.297 469.285 398.739 470.008C398.202 470.731 397.441 471.283 396.458 471.663C395.496 472.043 394.364 472.23 393.063 472.225ZM409.389 472.29C407.703 472.283 406.426 471.82 405.556 470.899C404.708 469.957 404.289 468.547 404.299 466.67L404.344 458.126L401.208 458.113L401.22 455.874L404.356 455.886L404.379 451.566L407.296 450.778L407.268 455.898L411.812 455.916L411.8 458.156L407.256 458.138L407.212 466.425C407.205 467.663 407.414 468.549 407.838 469.084C408.283 469.598 408.922 469.856 409.754 469.86C410.18 469.861 410.543 469.831 410.842 469.768C411.163 469.684 411.451 469.589 411.708 469.483L411.695 471.883C411.374 472.01 411 472.105 410.573 472.167C410.168 472.251 409.773 472.292 409.389 472.29ZM414.78 472.024L414.846 459.736C414.849 459.117 414.831 458.488 414.792 457.848C414.753 457.207 414.692 456.567 414.61 455.927L417.426 455.938L417.728 459.395L417.344 459.394C417.841 458.18 418.603 457.255 419.631 456.619C420.658 455.983 421.855 455.668 423.22 455.673C425.119 455.681 426.545 456.209 427.5 457.258C428.454 458.286 428.925 459.888 428.914 462.064L428.86 472.08L425.948 472.068L426.001 462.212C426.009 460.74 425.727 459.683 425.154 459.041C424.581 458.377 423.687 458.043 422.471 458.038C421.021 458.032 419.866 458.465 419.008 459.336C418.172 460.208 417.749 461.39 417.741 462.883L417.692 472.035L414.78 472.024ZM440.95 472.416C438.39 472.406 436.368 471.662 434.882 470.184C433.418 468.706 432.693 466.676 432.707 464.095C432.716 462.388 433.044 460.918 433.69 459.683C434.358 458.427 435.27 457.46 436.426 456.782C437.582 456.082 438.928 455.736 440.464 455.742C441.936 455.748 443.182 456.073 444.202 456.717C445.223 457.34 445.997 458.228 446.524 459.382C447.051 460.536 447.311 461.903 447.302 463.481L447.297 464.441L434.977 464.392L434.986 462.664L445.322 462.705L444.776 463.119C444.785 461.455 444.419 460.163 443.677 459.243C442.956 458.323 441.882 457.86 440.452 457.854C438.895 457.848 437.687 458.387 436.828 459.471C435.969 460.535 435.534 461.994 435.524 463.85L435.523 464.138C435.512 466.101 435.984 467.586 436.939 468.592C437.915 469.599 439.267 470.105 440.995 470.112C441.955 470.116 442.851 469.981 443.685 469.707C444.518 469.433 445.321 468.977 446.092 468.34L447.041 470.36C446.313 471.019 445.403 471.527 444.313 471.885C443.245 472.244 442.124 472.421 440.95 472.416ZM457.045 472.48C455.359 472.473 454.082 472.01 453.212 471.089C452.364 470.147 451.944 468.737 451.955 466.86L452 458.316L448.864 458.303L448.876 456.063L452.012 456.076L452.035 451.756L454.952 450.968L454.924 456.088L459.468 456.106L459.456 458.346L454.912 458.328L454.868 466.615C454.861 467.853 455.07 468.739 455.494 469.274C455.939 469.788 456.578 470.046 457.41 470.05C457.836 470.051 458.199 470.021 458.498 469.958C458.818 469.874 459.107 469.779 459.364 469.673L459.351 472.073C459.03 472.2 458.656 472.295 458.229 472.357C457.823 472.441 457.429 472.482 457.045 472.48ZM93.2886 507.894C92.2433 507.89 91.2739 507.641 90.3805 507.147C89.4873 506.631 88.7763 505.935 88.2477 505.058C87.719 504.181 87.4575 503.21 87.4632 502.143C87.4685 501.162 87.7188 500.235 88.2141 499.362C88.7308 498.489 89.4279 497.788 90.3054 497.258C91.2044 496.707 92.2192 496.434 93.3498 496.439C94.3951 496.443 95.3538 496.703 96.2257 497.218C97.0977 497.712 97.7981 498.387 98.3269 499.242C98.877 500.098 99.1491 501.08 99.1432 502.19C99.1376 503.235 98.8658 504.194 98.3278 505.066C97.8111 505.939 97.1034 506.63 96.2047 507.138C95.3273 507.646 94.3552 507.899 93.2886 507.894ZM117.71 510.84L127.814 488.32L130.406 488.33L140.43 510.93L137.358 510.918L134.608 504.507L135.884 505.28L122.156 505.225L123.568 504.463L120.75 510.852L117.71 510.84ZM129.045 491.653L123.989 503.473L123.225 502.798L134.841 502.844L134.229 503.514L129.173 491.653L129.045 491.653ZM143.319 510.942L143.445 487.39L146.357 487.402L146.231 510.953L143.319 510.942ZM151.063 517.885L151.166 498.685C151.169 498.066 151.151 497.437 151.112 496.797C151.072 496.157 151.012 495.516 150.93 494.876L153.746 494.887L154.078 498.601L153.726 498.599C154.053 497.363 154.741 496.395 155.79 495.695C156.839 494.974 158.089 494.617 159.539 494.622C160.969 494.628 162.215 494.964 163.278 495.629C164.341 496.295 165.157 497.258 165.727 498.519C166.317 499.759 166.608 501.243 166.599 502.971C166.59 504.699 166.283 506.191 165.679 507.447C165.096 508.703 164.27 509.66 163.2 510.317C162.129 510.974 160.88 511.3 159.45 511.294C158.021 511.288 156.786 510.931 155.744 510.223C154.724 509.494 154.036 508.521 153.68 507.303L154.032 507.304L153.975 517.896L151.063 517.885ZM158.791 508.987C160.263 508.993 161.439 508.486 162.319 507.466C163.199 506.445 163.644 504.943 163.655 502.959C163.666 500.975 163.236 499.48 162.367 498.474C161.498 497.468 160.327 496.962 158.855 496.956C157.383 496.95 156.207 497.446 155.327 498.446C154.468 499.445 154.034 500.936 154.023 502.92C154.012 504.904 154.431 506.41 155.279 507.437C156.148 508.465 157.319 508.982 158.791 508.987ZM170.475 511.05L170.601 487.498L173.513 487.51L173.454 498.454L173.038 498.452C173.514 497.217 174.276 496.281 175.325 495.645C176.374 495.009 177.581 494.694 178.946 494.7C180.888 494.707 182.314 495.236 183.226 496.285C184.159 497.334 184.62 498.914 184.609 501.026L184.555 511.106L181.643 511.095L181.696 501.175C181.703 499.745 181.432 498.71 180.88 498.067C180.329 497.404 179.424 497.07 178.166 497.065C176.758 497.059 175.614 497.492 174.735 498.363C173.877 499.234 173.444 500.395 173.436 501.846L173.387 511.062L170.475 511.05ZM195.461 511.438C194.053 511.432 192.817 511.096 191.754 510.431C190.691 509.765 189.864 508.802 189.273 507.541C188.683 506.28 188.392 504.785 188.401 503.057C188.411 501.329 188.717 499.848 189.321 498.613C189.925 497.357 190.762 496.4 191.833 495.743C192.903 495.086 194.142 494.76 195.55 494.766C196.979 494.772 198.215 495.139 199.256 495.869C200.319 496.577 201.018 497.55 201.352 498.789L200.968 498.788L201.34 495.077L204.156 495.088C204.089 495.728 204.021 496.368 203.954 497.007C203.908 497.647 203.883 498.276 203.88 498.895L203.814 511.183L200.902 511.171L200.922 507.491L201.274 507.493C200.926 508.707 200.217 509.675 199.146 510.396C198.097 511.096 196.869 511.443 195.461 511.438ZM196.145 509.136C197.596 509.142 198.761 508.635 199.641 507.614C200.521 506.594 200.967 505.092 200.977 503.108C200.988 501.124 200.559 499.629 199.689 498.622C198.82 497.616 197.66 497.11 196.209 497.105C194.759 497.099 193.583 497.595 192.681 498.595C191.801 499.594 191.356 501.085 191.345 503.069C191.335 505.053 191.764 506.559 192.633 507.586C193.502 508.614 194.673 509.131 196.145 509.136ZM217.451 511.237L217.571 488.678L219.875 488.687L233.919 507.431L233.151 507.428L233.251 488.74L236.035 488.751L235.914 511.311L233.642 511.302L219.599 492.558L220.335 492.561L220.235 511.248L217.451 511.237ZM241.388 511.333L241.509 488.773L255.78 488.83L255.767 491.262L244.472 491.217L244.431 498.769L254.991 498.811L254.978 501.243L244.418 501.201L244.364 511.345L241.388 511.333ZM264.983 511.427L265.09 491.395L257.282 491.364L257.296 488.836L275.952 488.91L275.938 491.438L268.098 491.407L267.991 511.439L264.983 511.427ZM287.45 511.516L287.571 488.957L290.195 488.967L298.983 509.034L298.023 509.031L307.027 489.034L309.619 489.045L309.498 511.604L306.778 511.593L306.877 493.002L307.869 493.006L299.418 511.564L297.53 511.557L289.277 492.932L290.269 492.935L290.17 511.527L287.45 511.516ZM320.835 511.937C319.427 511.932 318.191 511.596 317.128 510.931C316.065 510.265 315.238 509.302 314.648 508.041C314.057 506.78 313.766 505.285 313.775 503.557C313.785 501.829 314.091 500.348 314.695 499.113C315.299 497.857 316.136 496.9 317.207 496.243C318.277 495.586 319.516 495.26 320.924 495.266C322.353 495.271 323.589 495.639 324.63 496.368C325.693 497.077 326.392 498.05 326.726 499.289L326.342 499.287L326.714 495.577L329.53 495.588C329.463 496.228 329.395 496.867 329.328 497.507C329.282 498.147 329.257 498.776 329.254 499.395L329.188 511.683L326.276 511.671L326.296 507.991L326.648 507.993C326.3 509.207 325.591 510.175 324.52 510.896C323.471 511.596 322.243 511.943 320.835 511.937ZM321.519 509.636C322.97 509.642 324.135 509.135 325.015 508.114C325.895 507.094 326.341 505.591 326.351 503.607C326.362 501.623 325.933 500.128 325.063 499.122C324.194 498.116 323.034 497.61 321.583 497.604C320.133 497.599 318.957 498.095 318.055 499.094C317.175 500.093 316.73 501.585 316.719 503.569C316.709 505.553 317.138 507.059 318.007 508.086C318.876 509.114 320.047 509.63 321.519 509.636ZM334.035 511.702L334.1 499.542C334.104 498.902 334.086 498.252 334.047 497.59C334.029 496.907 333.979 496.246 333.897 495.605L336.713 495.617L337.044 499.65L336.563 499.68C336.782 498.7 337.149 497.89 337.664 497.252C338.201 496.593 338.833 496.116 339.56 495.82C340.309 495.503 341.077 495.346 341.867 495.349C342.208 495.351 342.496 495.362 342.731 495.385C342.965 495.407 343.199 495.461 343.434 495.547L343.356 498.139C343.037 498.01 342.738 497.934 342.461 497.912C342.205 497.868 341.885 497.845 341.501 497.844C340.563 497.84 339.751 498.05 339.066 498.474C338.402 498.898 337.887 499.461 337.521 500.164C337.176 500.867 337.001 501.623 336.997 502.434L336.947 511.714L334.035 511.702ZM345.911 511.749L346.037 488.198L348.949 488.209L348.871 502.769L348.935 502.769L356.237 495.694L359.853 495.709L351.168 504.122L351.207 502.746L360.535 511.808L356.823 511.793L348.927 504.273L348.863 504.273L348.823 511.761L345.911 511.749ZM369.612 512.132C367.052 512.122 365.029 511.378 363.544 509.9C362.08 508.422 361.355 506.392 361.368 503.811C361.378 502.104 361.705 500.634 362.352 499.399C363.02 498.143 363.932 497.176 365.088 496.498C366.243 495.798 367.589 495.452 369.125 495.458C370.597 495.464 371.844 495.789 372.864 496.433C373.885 497.055 374.659 497.944 375.186 499.098C375.713 500.252 375.972 501.619 375.964 503.197L375.959 504.157L363.639 504.108L363.648 502.38L373.984 502.421L373.438 502.835C373.447 501.171 373.08 499.879 372.339 498.959C371.618 498.038 370.543 497.576 369.114 497.57C367.557 497.564 366.348 498.103 365.489 499.187C364.63 500.251 364.196 501.71 364.186 503.566L364.184 503.854C364.174 505.817 364.646 507.301 365.601 508.308C366.576 509.314 367.928 509.821 369.656 509.828C370.616 509.832 371.513 509.697 372.347 509.423C373.18 509.149 373.983 508.693 374.754 508.056L375.703 510.076C374.974 510.735 374.065 511.243 372.975 511.601C371.906 511.96 370.785 512.137 369.612 512.132ZM385.706 512.196C384.021 512.189 382.743 511.726 381.874 510.805C381.025 509.863 380.606 508.453 380.616 506.576L380.662 498.032L377.526 498.019L377.538 495.779L380.674 495.792L380.697 491.472L383.613 490.684L383.586 495.803L388.13 495.822L388.118 498.062L383.574 498.043L383.53 506.331C383.523 507.569 383.732 508.455 384.155 508.99C384.601 509.504 385.239 509.762 386.071 509.766C386.498 509.767 386.861 509.737 387.16 509.674C387.48 509.59 387.769 509.495 388.025 509.389L388.012 511.789C387.692 511.916 387.318 512.01 386.891 512.073C386.485 512.157 386.09 512.198 385.706 512.196ZM391.061 518.841L391.164 499.642C391.167 499.023 391.149 498.394 391.11 497.754C391.071 497.113 391.01 496.473 390.928 495.833L393.744 495.844L394.076 499.557L393.724 499.556C394.051 498.32 394.739 497.352 395.788 496.652C396.837 495.931 398.087 495.573 399.538 495.579C400.967 495.585 402.213 495.92 403.276 496.586C404.339 497.252 405.156 498.215 405.725 499.476C406.315 500.715 406.606 502.199 406.597 503.927C406.588 505.655 406.281 507.147 405.677 508.404C405.094 509.66 404.268 510.617 403.198 511.274C402.127 511.931 400.878 512.257 399.448 512.251C398.019 512.245 396.784 511.888 395.742 511.18C394.722 510.451 394.034 509.477 393.678 508.26L394.03 508.261L393.973 518.853L391.061 518.841ZM398.789 509.944C400.261 509.95 401.437 509.443 402.317 508.422C403.197 507.402 403.642 505.9 403.653 503.916C403.664 501.932 403.234 500.437 402.365 499.43C401.496 498.424 400.325 497.918 398.853 497.912C397.381 497.907 396.205 498.403 395.325 499.402C394.466 500.402 394.032 501.893 394.021 503.877C394.01 505.861 394.429 507.367 395.277 508.394C396.146 509.422 397.317 509.938 398.789 509.944ZM410.473 512.007L410.599 488.455L413.511 488.467L413.385 512.018L410.473 512.007ZM424.396 512.35C422.988 512.345 421.753 512.009 420.69 511.344C419.627 510.678 418.8 509.715 418.209 508.454C417.619 507.193 417.328 505.698 417.337 503.97C417.346 502.242 417.653 500.761 418.257 499.526C418.861 498.269 419.698 497.313 420.768 496.656C421.838 495.999 423.078 495.673 424.486 495.679C425.915 495.684 427.15 496.052 428.192 496.781C429.255 497.49 429.953 498.463 430.288 499.702L429.904 499.7L430.276 495.99L433.092 496.001C433.025 496.641 432.957 497.28 432.89 497.92C432.844 498.56 432.819 499.189 432.816 499.808L432.75 512.096L429.838 512.084L429.858 508.404L430.21 508.405C429.862 509.62 429.153 510.588 428.082 511.309C427.033 512.009 425.804 512.356 424.396 512.35ZM425.081 510.049C426.531 510.055 427.697 509.547 428.577 508.527C429.457 507.506 429.902 506.004 429.913 504.02C429.924 502.036 429.494 500.541 428.625 499.535C427.756 498.529 426.596 498.023 425.145 498.017C423.694 498.011 422.518 498.508 421.617 499.507C420.737 500.506 420.292 501.998 420.281 503.982C420.271 505.966 420.7 507.472 421.569 508.499C422.438 509.526 423.609 510.043 425.081 510.049ZM444.539 512.431C442.939 512.424 441.554 512.088 440.385 511.422C439.215 510.735 438.303 509.76 437.648 508.499C437.015 507.217 436.703 505.701 436.713 503.951C436.722 502.223 437.06 500.753 437.728 499.539C438.396 498.305 439.318 497.37 440.495 496.734C441.672 496.078 443.05 495.753 444.628 495.759C445.674 495.763 446.686 495.948 447.665 496.315C448.645 496.66 449.442 497.165 450.057 497.828L449.054 499.873C448.439 499.273 447.759 498.833 447.014 498.552C446.268 498.251 445.533 498.098 444.808 498.096C443.229 498.089 441.989 498.596 441.088 499.617C440.186 500.616 439.731 502.075 439.72 503.995C439.71 505.937 440.15 507.432 441.04 508.481C441.931 509.53 443.165 510.057 444.744 510.063C445.448 510.066 446.174 509.93 446.922 509.656C447.67 509.382 448.366 508.947 449.009 508.352L449.99 510.372C449.347 511.052 448.523 511.572 447.518 511.93C446.535 512.268 445.542 512.435 444.539 512.431ZM460.549 512.494C457.989 512.484 455.966 511.74 454.481 510.262C453.017 508.784 452.291 506.755 452.305 504.173C452.314 502.467 452.642 500.996 453.289 499.761C453.957 498.505 454.869 497.538 456.024 496.86C457.18 496.161 458.526 495.814 460.062 495.82C461.534 495.826 462.78 496.151 463.801 496.795C464.822 497.418 465.595 498.306 466.123 499.461C466.65 500.615 466.909 501.981 466.901 503.56L466.896 504.52L454.576 504.471L454.585 502.743L464.921 502.784L464.375 503.198C464.384 501.534 464.017 500.241 463.275 499.321C462.555 498.401 461.48 497.938 460.051 497.932C458.493 497.926 457.285 498.465 456.426 499.55C455.567 500.613 455.133 502.073 455.123 503.929L455.121 504.217C455.111 506.179 455.583 507.664 456.537 508.67C457.513 509.677 458.865 510.184 460.593 510.191C461.553 510.194 462.45 510.059 463.283 509.785C464.117 509.511 464.919 509.056 465.691 508.419L466.64 510.439C465.911 511.097 465.002 511.605 463.912 511.964C462.843 512.322 461.722 512.499 460.549 512.494ZM484.825 512.303L484.932 492.271L477.124 492.24L477.138 489.712L495.794 489.787L495.78 492.315L487.94 492.283L487.833 512.315L484.825 512.303ZM503.392 512.665C500.832 512.655 498.81 511.911 497.324 510.433C495.86 508.955 495.135 506.926 495.149 504.344C495.158 502.638 495.486 501.167 496.132 499.932C496.8 498.676 497.712 497.709 498.868 497.031C500.024 496.332 501.369 495.985 502.905 495.991C504.377 495.997 505.624 496.322 506.644 496.966C507.665 497.589 508.439 498.477 508.966 499.631C509.493 500.785 509.753 502.152 509.744 503.73L509.739 504.69L497.419 504.641L497.428 502.913L507.764 502.955L507.218 503.368C507.227 501.704 506.861 500.412 506.119 499.492C505.398 498.572 504.323 498.109 502.894 498.103C501.337 498.097 500.129 498.636 499.269 499.721C498.41 500.784 497.976 502.244 497.966 504.1L497.964 504.388C497.954 506.35 498.426 507.835 499.381 508.841C500.357 509.848 501.709 510.354 503.437 510.361C504.397 510.365 505.293 510.23 506.127 509.956C506.96 509.682 507.763 509.227 508.534 508.59L509.483 510.609C508.755 511.268 507.845 511.776 506.755 512.135C505.687 512.493 504.566 512.67 503.392 512.665ZM518.942 512.727C517.64 512.722 516.425 512.546 515.296 512.201C514.189 511.855 513.274 511.361 512.552 510.718L513.491 508.705C514.277 509.306 515.139 509.768 516.076 510.092C517.034 510.394 518.015 510.547 519.017 510.551C520.233 510.556 521.152 510.336 521.773 509.89C522.415 509.445 522.738 508.849 522.742 508.102C522.746 507.505 522.546 507.024 522.142 506.66C521.739 506.296 521.1 506.026 520.226 505.852L517.19 505.232C515.826 504.907 514.794 504.391 514.094 503.684C513.415 502.956 513.079 502.026 513.085 500.896C513.09 499.957 513.35 499.126 513.866 498.403C514.382 497.658 515.111 497.085 516.051 496.684C517.014 496.261 518.135 496.052 519.415 496.057C520.588 496.062 521.675 496.237 522.676 496.582C523.698 496.927 524.538 497.432 525.196 498.096L524.226 500.044C523.567 499.466 522.823 499.025 521.993 498.723C521.184 498.4 520.353 498.237 519.499 498.233C518.262 498.228 517.343 498.47 516.743 498.958C516.143 499.425 515.841 500.043 515.837 500.811C515.834 501.387 516.013 501.867 516.374 502.253C516.734 502.617 517.32 502.897 518.129 503.092L521.166 503.712C522.594 504.016 523.668 504.511 524.39 505.197C525.112 505.882 525.47 506.791 525.463 507.921C525.458 508.924 525.176 509.787 524.618 510.51C524.08 511.233 523.32 511.785 522.337 512.165C521.375 512.545 520.243 512.732 518.942 512.727ZM535.268 512.792C533.582 512.786 532.305 512.322 531.435 511.401C530.587 510.459 530.167 509.049 530.178 507.172L530.223 498.628L527.087 498.616L527.099 496.376L530.235 496.388L530.258 492.068L533.175 491.28L533.147 496.4L537.691 496.418L537.679 498.658L533.135 498.64L533.091 506.928C533.084 508.165 533.293 509.051 533.717 509.586C534.162 510.1 534.801 510.358 535.633 510.362C536.059 510.363 536.422 510.333 536.721 510.27C537.042 510.186 537.33 510.091 537.587 509.985L537.574 512.385C537.253 512.512 536.879 512.607 536.452 512.669C536.046 512.753 535.652 512.794 535.268 512.792ZM540.659 512.526L540.725 500.238C540.728 499.619 540.71 498.99 540.671 498.35C540.632 497.71 540.571 497.069 540.489 496.429L543.305 496.44L543.607 499.897L543.223 499.896C543.72 498.682 544.482 497.757 545.51 497.121C546.537 496.485 547.734 496.17 549.099 496.175C550.997 496.183 552.424 496.711 553.378 497.76C554.333 498.788 554.804 500.39 554.793 502.566L554.739 512.582L551.827 512.57L551.88 502.714C551.888 501.242 551.605 500.185 551.033 499.543C550.46 498.879 549.566 498.545 548.35 498.54C546.9 498.535 545.745 498.967 544.887 499.839C544.051 500.71 543.628 501.892 543.62 503.386L543.571 512.537L540.659 512.526ZM566.829 512.918C564.269 512.908 562.247 512.164 560.761 510.686C559.297 509.208 558.572 507.178 558.586 504.597C558.595 502.891 558.923 501.42 559.569 500.185C560.237 498.929 561.149 497.962 562.305 497.284C563.461 496.585 564.806 496.238 566.342 496.244C567.814 496.25 569.061 496.575 570.081 497.219C571.102 497.842 571.876 498.73 572.403 499.884C572.93 501.038 573.19 502.405 573.181 503.983L573.176 504.943L560.856 504.894L560.865 503.166L571.201 503.207L570.655 503.621C570.664 501.957 570.298 500.665 569.556 499.745C568.835 498.825 567.76 498.362 566.331 498.356C564.774 498.35 563.566 498.889 562.706 499.974C561.847 501.037 561.413 502.496 561.403 504.352L561.401 504.64C561.391 506.603 561.863 508.088 562.818 509.094C563.794 510.101 565.146 510.607 566.874 510.614C567.834 510.618 568.73 510.483 569.564 510.209C570.397 509.935 571.2 509.479 571.971 508.843L572.92 510.862C572.192 511.521 571.282 512.029 570.192 512.387C569.124 512.746 568.003 512.923 566.829 512.918ZM582.923 512.982C581.238 512.976 579.961 512.512 579.091 511.591C578.243 510.649 577.823 509.239 577.833 507.362L577.879 498.818L574.743 498.806L574.755 496.566L577.891 496.578L577.914 492.258L580.83 491.47L580.803 496.59L585.347 496.608L585.335 498.848L580.791 498.83L580.747 507.118C580.74 508.355 580.949 509.241 581.373 509.776C581.818 510.29 582.456 510.548 583.288 510.552C583.715 510.553 584.078 510.523 584.377 510.46C584.697 510.376 584.986 510.281 585.242 510.175L585.23 512.575C584.909 512.702 584.535 512.797 584.108 512.859C583.702 512.943 583.307 512.984 582.923 512.982ZM93.0747 547.894C92.0294 547.89 91.06 547.64 90.1667 547.146C89.2734 546.631 88.5625 545.934 88.0338 545.058C87.5052 544.181 87.2437 543.209 87.2494 542.143C87.2546 541.161 87.5049 540.234 88.0003 539.361C88.5169 538.489 89.214 537.788 90.0915 537.258C90.9905 536.707 92.0053 536.433 93.136 536.438C94.1813 536.442 95.1399 536.702 96.0118 537.217C96.8839 537.712 97.5843 538.386 98.113 539.242C98.6631 540.097 98.9352 541.08 98.9293 542.189C98.9237 543.234 98.6519 544.193 98.1139 545.066C97.5972 545.938 96.8895 546.629 95.9908 547.137C95.1134 547.646 94.1414 547.898 93.0747 547.894ZM119.8 550.848L119.921 528.289L122.225 528.298L136.269 547.042L135.501 547.039L135.601 528.351L138.385 528.362L138.264 550.922L135.992 550.913L121.948 532.169L122.684 532.172L122.584 550.859L119.8 550.848ZM149.56 551.255C148.152 551.249 146.916 550.914 145.853 550.248C144.79 549.583 143.963 548.619 143.373 547.358C142.782 546.097 142.491 544.603 142.5 542.875C142.51 541.147 142.816 539.665 143.42 538.43C144.024 537.174 144.861 536.217 145.932 535.56C147.002 534.903 148.241 534.578 149.649 534.583C151.078 534.589 152.314 534.957 153.355 535.686C154.418 536.394 155.117 537.368 155.451 538.606L155.067 538.605L155.439 534.894L158.255 534.906C158.188 535.545 158.12 536.185 158.053 536.825C158.007 537.465 157.982 538.094 157.979 538.712L157.913 551L155.001 550.989L155.021 547.309L155.373 547.31C155.025 548.525 154.316 549.493 153.245 550.214C152.196 550.913 150.968 551.261 149.56 551.255ZM150.244 548.954C151.695 548.959 152.86 548.452 153.74 547.432C154.62 546.411 155.066 544.909 155.076 542.925C155.087 540.941 154.658 539.446 153.788 538.44C152.919 537.434 151.759 536.928 150.308 536.922C148.858 536.916 147.682 537.413 146.78 538.412C145.9 539.411 145.455 540.903 145.444 542.887C145.434 544.87 145.863 546.376 146.732 547.404C147.601 548.431 148.772 548.948 150.244 548.954ZM168.807 551.332C167.121 551.325 165.844 550.861 164.974 549.94C164.126 548.998 163.707 547.589 163.717 545.711L163.762 537.167L160.626 537.155L160.638 534.915L163.774 534.928L163.797 530.608L166.714 529.819L166.686 534.939L171.23 534.957L171.218 537.197L166.674 537.179L166.63 545.467C166.623 546.704 166.832 547.59 167.256 548.125C167.701 548.639 168.34 548.898 169.172 548.901C169.598 548.903 169.961 548.872 170.26 548.809C170.581 548.725 170.869 548.631 171.126 548.525L171.113 550.925C170.792 551.052 170.418 551.146 169.991 551.208C169.585 551.292 169.191 551.333 168.807 551.332ZM174.198 551.065L174.284 534.969L177.196 534.981L177.11 551.077L174.198 551.065ZM174.047 531.448L174.064 528.312L177.52 528.326L177.503 531.462L174.047 531.448ZM186.716 551.115L179.922 534.992L183.058 535.004L188.584 548.851L187.688 548.847L193.458 535.046L196.433 535.058L189.435 551.126L186.716 551.115ZM206.15 551.481C203.59 551.47 201.567 550.726 200.081 549.248C198.617 547.771 197.892 545.741 197.906 543.16C197.915 541.453 198.243 539.982 198.89 538.748C199.558 537.492 200.469 536.524 201.625 535.846C202.781 535.147 204.127 534.8 205.663 534.807C207.135 534.812 208.381 535.137 209.402 535.781C210.422 536.404 211.196 537.293 211.723 538.447C212.25 539.601 212.51 540.967 212.501 542.546L212.496 543.506L200.176 543.457L200.186 541.729L210.522 541.77L209.975 542.184C209.984 540.52 209.618 539.228 208.876 538.307C208.156 537.387 207.081 536.924 205.651 536.918C204.094 536.912 202.886 537.451 202.027 538.536C201.168 539.599 200.733 541.059 200.723 542.915L200.722 543.203C200.711 545.166 201.183 546.65 202.138 547.657C203.114 548.663 204.466 549.17 206.194 549.177C207.154 549.181 208.051 549.045 208.884 548.771C209.718 548.497 210.52 548.042 211.291 547.405L212.241 549.425C211.512 550.083 210.602 550.592 209.512 550.95C208.444 551.308 207.323 551.485 206.15 551.481ZM234.968 551.595C232.707 551.586 230.768 551.109 229.152 550.164C227.557 549.219 226.337 547.881 225.493 546.15C224.649 544.397 224.234 542.337 224.246 539.969C224.259 537.601 224.697 535.554 225.559 533.83C226.422 532.105 227.656 530.777 229.261 529.845C230.887 528.912 232.831 528.451 235.092 528.46C236.713 528.466 238.152 528.717 239.408 529.213C240.664 529.687 241.759 530.385 242.693 531.306L241.592 533.702C240.573 532.802 239.563 532.158 238.562 531.77C237.583 531.36 236.443 531.153 235.142 531.148C232.646 531.138 230.732 531.898 229.401 533.429C228.071 534.96 227.397 537.144 227.382 539.981C227.367 542.818 228.017 545.018 229.331 546.581C230.646 548.122 232.551 548.898 235.047 548.908C236.348 548.913 237.49 548.725 238.474 548.345C239.479 547.944 240.495 547.297 241.524 546.406L242.599 548.778C241.656 549.691 240.543 550.391 239.26 550.877C237.999 551.362 236.568 551.602 234.968 551.595ZM246.572 551.354L246.637 539.194C246.64 538.554 246.623 537.903 246.583 537.242C246.566 536.559 246.516 535.897 246.434 535.257L249.25 535.268L249.581 539.302L249.1 539.332C249.319 538.351 249.686 537.542 250.201 536.904C250.738 536.245 251.37 535.767 252.097 535.472C252.845 535.155 253.614 534.998 254.404 535.001C254.745 535.002 255.033 535.014 255.267 535.036C255.502 535.059 255.736 535.113 255.971 535.199L255.893 537.791C255.573 537.661 255.275 537.586 254.998 537.563C254.742 537.52 254.422 537.497 254.038 537.495C253.1 537.492 252.288 537.702 251.603 538.126C250.939 538.55 250.424 539.113 250.058 539.816C249.713 540.518 249.538 541.275 249.534 542.085L249.484 551.365L246.572 551.354ZM258.448 551.401L258.534 535.305L261.446 535.317L261.36 551.413L258.448 551.401ZM258.297 531.784L258.313 528.648L261.769 528.662L261.753 531.798L258.297 531.784ZM273.139 551.748C271.539 551.741 270.154 551.405 268.985 550.739C267.815 550.052 266.903 549.077 266.248 547.816C265.615 546.534 265.303 545.018 265.313 543.268C265.322 541.54 265.66 540.07 266.328 538.856C266.996 537.622 267.918 536.687 269.095 536.051C270.272 535.395 271.65 535.07 273.228 535.076C274.274 535.08 275.286 535.265 276.265 535.632C277.245 535.977 278.042 536.482 278.657 537.146L277.654 539.19C277.039 538.59 276.359 538.15 275.614 537.869C274.868 537.568 274.133 537.415 273.408 537.413C271.829 537.406 270.589 537.913 269.688 538.934C268.786 539.933 268.331 541.392 268.32 543.312C268.31 545.254 268.75 546.749 269.64 547.798C270.531 548.847 271.765 549.374 273.344 549.38C274.048 549.383 274.774 549.247 275.522 548.973C276.27 548.699 276.966 548.264 277.609 547.669L278.59 549.689C277.947 550.369 277.123 550.889 276.118 551.247C275.135 551.585 274.142 551.752 273.139 551.748ZM282.135 551.495L282.261 527.944L285.173 527.955L285.095 542.515L285.159 542.515L292.461 535.441L296.077 535.455L287.392 543.868L287.431 542.493L296.759 551.554L293.047 551.539L285.151 544.019L285.087 544.019L285.047 551.507L282.135 551.495ZM305.836 551.878C303.276 551.868 301.254 551.124 299.768 549.646C298.304 548.168 297.579 546.138 297.593 543.557C297.602 541.85 297.93 540.38 298.576 539.145C299.244 537.889 300.156 536.922 301.312 536.244C302.468 535.544 303.813 535.198 305.349 535.204C306.821 535.21 308.068 535.535 309.088 536.179C310.109 536.802 310.883 537.69 311.41 538.844C311.937 539.998 312.197 541.365 312.188 542.943L312.183 543.903L299.863 543.854L299.872 542.126L310.208 542.167L309.662 542.581C309.671 540.917 309.304 539.625 308.563 538.705C307.842 537.785 306.767 537.322 305.338 537.316C303.781 537.31 302.573 537.849 301.713 538.933C300.854 539.997 300.42 541.456 300.41 543.312L300.408 543.6C300.398 545.563 300.87 547.047 301.825 548.054C302.801 549.06 304.153 549.567 305.881 549.574C306.841 549.578 307.737 549.443 308.571 549.169C309.404 548.895 310.207 548.439 310.978 547.802L311.927 549.822C311.198 550.481 310.289 550.989 309.199 551.347C308.131 551.706 307.01 551.883 305.836 551.878ZM321.93 551.942C320.245 551.935 318.968 551.472 318.098 550.551C317.249 549.609 316.83 548.199 316.84 546.322L316.886 537.778L313.75 537.765L313.762 535.525L316.898 535.538L316.921 531.218L319.837 530.43L319.81 535.55L324.354 535.568L324.342 537.808L319.798 537.79L319.754 546.077C319.747 547.315 319.956 548.201 320.38 548.736C320.825 549.25 321.463 549.508 322.295 549.512C322.722 549.513 323.085 549.483 323.384 549.42C323.704 549.336 323.993 549.241 324.249 549.135L324.237 551.535C323.916 551.662 323.542 551.757 323.115 551.819C322.709 551.903 322.314 551.944 321.93 551.942ZM336.08 551.711L336.2 529.151L338.504 529.16L352.548 547.904L351.78 547.901L351.88 529.213L354.664 529.224L354.543 551.784L352.271 551.775L338.227 533.031L338.963 533.034L338.864 551.722L336.08 551.711ZM360.017 551.806L360.137 529.246L374.409 529.303L374.396 531.735L363.1 531.69L363.06 539.242L373.62 539.284L373.607 541.716L363.047 541.674L362.993 551.818L360.017 551.806ZM383.612 551.9L383.719 531.868L375.911 531.837L375.925 529.309L394.581 529.384L394.567 531.912L386.727 531.88L386.62 551.912L383.612 551.9ZM413.533 552.307C411.72 552.3 410.089 552.059 408.641 551.584C407.193 551.109 405.938 550.442 404.876 549.585L405.913 547.221C406.656 547.778 407.411 548.251 408.177 548.638C408.943 549.004 409.763 549.284 410.636 549.48C411.532 549.654 412.502 549.743 413.547 549.747C415.403 549.755 416.77 549.429 417.648 548.772C418.548 548.093 419.001 547.198 419.007 546.089C419.012 545.129 418.706 544.392 418.091 543.877C417.475 543.363 416.399 542.953 414.865 542.649L411.445 541.931C409.378 541.496 407.835 540.796 406.816 539.832C405.819 538.847 405.324 537.522 405.333 535.858C405.34 534.514 405.699 533.343 406.408 532.343C407.139 531.322 408.135 530.536 409.397 529.987C410.68 529.437 412.174 529.166 413.881 529.172C415.46 529.179 416.92 529.419 418.261 529.894C419.603 530.369 420.73 531.066 421.642 531.987L420.606 534.255C419.651 533.377 418.619 532.743 417.512 532.355C416.426 531.945 415.19 531.738 413.803 531.732C412.118 531.725 410.783 532.083 409.798 532.804C408.812 533.526 408.317 534.505 408.31 535.742C408.305 536.724 408.61 537.504 409.225 538.082C409.841 538.639 410.863 539.07 412.291 539.374L415.711 540.06C417.885 540.495 419.47 541.174 420.468 542.095C421.487 543.016 421.992 544.288 421.984 545.909C421.977 547.189 421.63 548.318 420.942 549.297C420.254 550.254 419.279 550.997 418.018 551.525C416.756 552.053 415.261 552.314 413.533 552.307ZM426.173 552.07L426.293 529.51L428.597 529.519L442.641 548.263L441.873 548.26L441.973 529.572L444.757 529.584L444.636 552.143L442.364 552.134L428.32 533.39L429.056 533.393L428.957 552.081L426.173 552.07ZM450.11 552.165L450.231 529.605L464.822 529.664L464.809 532.096L453.098 532.049L453.058 539.505L464.034 539.548L464.021 541.98L453.045 541.937L453.003 549.745L464.715 549.791L464.702 552.223L450.11 552.165ZM468.985 552.24L469.105 529.681L483.697 529.739L483.684 532.171L471.972 532.124L471.932 539.58L482.908 539.624L482.895 542.056L471.919 542.012L471.878 549.82L483.59 549.867L483.577 552.298L468.985 552.24ZM487.86 552.316L487.98 529.756L490.956 529.768L490.902 539.976L490.966 539.976L501.612 529.81L505.356 529.825L493.006 541.456L493.045 540.016L506.099 552.388L502.228 552.373L490.956 541.736L490.892 541.736L490.836 552.327L487.86 552.316ZM516.797 552.431L516.917 529.871L526.261 529.908C528.672 529.918 530.514 530.501 531.788 531.659C533.062 532.816 533.693 534.407 533.683 536.434C533.672 538.461 533.023 540.058 531.737 541.226C530.451 542.373 528.602 542.942 526.192 542.932L519.824 542.907L519.773 552.443L516.797 552.431ZM519.837 540.475L525.917 540.499C527.495 540.505 528.692 540.158 529.506 539.457C530.321 538.735 530.732 537.724 530.739 536.422C530.746 535.121 530.346 534.117 529.539 533.41C528.732 532.702 527.539 532.346 525.96 532.339L519.88 532.315L519.837 540.475ZM537.765 552.515L537.886 529.955L552.478 530.013L552.465 532.445L540.753 532.398L540.713 539.854L551.689 539.898L551.676 542.33L540.7 542.286L540.658 550.094L552.37 550.141L552.357 552.573L537.765 552.515ZM553.899 552.579L564.003 530.059L566.595 530.069L576.619 552.669L573.547 552.657L570.797 546.246L572.073 547.019L558.345 546.965L559.757 546.202L556.939 552.591L553.899 552.579ZM565.234 533.392L560.178 545.212L559.414 544.537L571.03 544.583L570.418 545.253L565.362 533.392L565.234 533.392ZM579.828 552.682L579.948 530.123L582.924 530.134L582.87 540.342L582.934 540.342L593.58 530.177L597.324 530.192L584.974 541.823L585.013 540.383L598.067 552.755L594.196 552.739L582.924 542.102L582.86 542.102L582.804 552.694L579.828 552.682ZM92.8609 587.893C91.8155 587.889 90.8462 587.64 89.9528 587.146C89.0596 586.63 88.3486 585.934 87.82 585.057C87.2913 584.18 87.0298 583.209 87.0355 582.142C87.0408 581.161 87.2911 580.234 87.7864 579.361C88.3031 578.488 89.0002 577.787 89.8777 577.257C90.7766 576.706 91.7915 576.433 92.9221 576.437C93.9674 576.442 94.9261 576.701 95.798 577.217C96.67 577.711 97.3704 578.386 97.8992 579.241C98.4493 580.097 98.7214 581.079 98.7154 582.189C98.7099 583.234 98.4381 584.193 97.9001 585.065C97.3834 585.938 96.6757 586.628 95.7769 587.137C94.8996 587.645 93.9275 587.897 92.8609 587.893ZM119.586 590.848L119.707 568.288L128.891 568.325C131.323 568.334 133.187 568.854 134.482 569.883C135.778 570.912 136.421 572.355 136.411 574.211C136.404 575.619 135.971 576.79 135.113 577.726C134.276 578.661 133.131 579.286 131.678 579.6L131.681 579.12C133.344 579.319 134.632 579.9 135.544 580.863C136.477 581.827 136.94 583.098 136.931 584.677C136.921 586.682 136.24 588.226 134.891 589.309C133.541 590.37 131.639 590.896 129.186 590.886L119.586 590.848ZM122.479 588.491L128.911 588.517C130.489 588.523 131.728 588.229 132.628 587.636C133.548 587.021 134.012 586.009 134.02 584.601C134.027 583.172 133.574 582.157 132.66 581.556C131.767 580.955 130.532 580.651 128.953 580.645L122.521 580.619L122.479 588.491ZM122.534 578.251L128.422 578.275C130.107 578.282 131.367 577.967 132.203 577.33C133.038 576.672 133.459 575.724 133.466 574.487C133.472 573.25 133.061 572.309 132.233 571.666C131.404 571.001 130.148 570.666 128.462 570.659L122.574 570.636L122.534 578.251ZM148.436 591.251C145.876 591.241 143.853 590.496 142.368 589.019C140.904 587.541 140.179 585.511 140.193 582.93C140.202 581.223 140.53 579.753 141.176 578.518C141.844 577.262 142.756 576.295 143.912 575.617C145.067 574.917 146.413 574.571 147.949 574.577C149.421 574.583 150.668 574.908 151.688 575.552C152.709 576.174 153.483 577.063 154.01 578.217C154.537 579.371 154.796 580.737 154.788 582.316L154.783 583.276L142.463 583.227L142.472 581.499L152.808 581.54L152.262 581.954C152.271 580.29 151.904 578.998 151.163 578.078C150.442 577.157 149.367 576.694 147.938 576.689C146.381 576.682 145.172 577.222 144.313 578.306C143.454 579.369 143.02 580.829 143.01 582.685L143.008 582.973C142.998 584.936 143.47 586.42 144.425 587.427C145.401 588.433 146.752 588.94 148.48 588.947C149.44 588.951 150.337 588.816 151.171 588.542C152.004 588.268 152.807 587.812 153.578 587.175L154.527 589.195C153.798 589.853 152.889 590.362 151.799 590.72C150.73 591.079 149.609 591.255 148.436 591.251ZM164.53 591.315C162.845 591.308 161.567 590.844 160.698 589.924C159.849 588.982 159.43 587.572 159.44 585.695L159.486 577.151L156.35 577.138L156.362 574.898L159.498 574.911L159.521 570.591L162.437 569.802L162.41 574.922L166.954 574.94L166.942 577.18L162.398 577.162L162.354 585.45C162.347 586.688 162.556 587.574 162.979 588.109C163.425 588.623 164.063 588.881 164.895 588.884C165.322 588.886 165.685 588.856 165.984 588.793C166.304 588.709 166.593 588.614 166.849 588.508L166.836 590.908C166.516 591.035 166.142 591.129 165.715 591.192C165.309 591.275 164.914 591.316 164.53 591.315ZM176.064 591.361C174.656 591.355 173.421 591.02 172.358 590.354C171.295 589.689 170.468 588.725 169.877 587.464C169.287 586.203 168.996 584.709 169.005 582.981C169.014 581.253 169.321 579.771 169.925 578.536C170.529 577.28 171.366 576.323 172.436 575.666C173.506 575.009 174.746 574.684 176.154 574.689C177.583 574.695 178.818 575.062 179.86 575.792C180.923 576.5 181.621 577.474 181.956 578.712L181.572 578.711L181.944 575L184.76 575.011C184.693 575.651 184.625 576.291 184.558 576.931C184.512 577.57 184.487 578.2 184.484 578.818L184.418 591.106L181.506 591.095L181.526 587.415L181.878 587.416C181.53 588.631 180.821 589.599 179.75 590.32C178.701 591.019 177.472 591.367 176.064 591.361ZM176.749 589.06C178.199 589.065 179.365 588.558 180.245 587.538C181.125 586.517 181.57 585.015 181.581 583.031C181.592 581.047 181.162 579.552 180.293 578.546C179.424 577.54 178.264 577.034 176.813 577.028C175.362 577.022 174.186 577.519 173.285 578.518C172.405 579.517 171.96 581.008 171.949 582.992C171.939 584.976 172.368 586.482 173.237 587.51C174.106 588.537 175.277 589.054 176.749 589.06ZM198.054 591.161L198.175 568.601L205.823 568.631C208.34 568.641 210.46 569.087 212.184 569.969C213.928 570.85 215.244 572.136 216.131 573.825C217.018 575.492 217.455 577.531 217.443 579.942C217.43 582.352 216.971 584.399 216.066 586.08C215.161 587.762 213.831 589.037 212.077 589.904C210.345 590.772 208.22 591.201 205.702 591.191L198.054 591.161ZM201.044 588.644L205.492 588.662C208.5 588.674 210.733 587.958 212.191 586.513C213.65 585.068 214.387 582.874 214.403 579.93C214.418 576.986 213.705 574.796 212.262 573.361C210.819 571.905 208.593 571.17 205.585 571.158L201.137 571.141L201.044 588.644ZM222.054 591.256L222.175 568.697L236.767 568.755L236.754 571.187L225.042 571.14L225.002 578.596L235.978 578.64L235.965 581.072L224.989 581.028L224.947 588.836L236.659 588.882L236.646 591.314L222.054 591.256ZM238.118 591.32L247.271 579.261L247.265 580.413L238.623 568.762L242.143 568.776L249.036 578.276L248.108 578.272L255.007 568.827L258.559 568.842L249.793 580.423L249.799 579.271L258.822 591.403L255.27 591.389L247.964 581.311L249.084 581.316L241.638 591.334L238.118 591.32ZM270.179 591.448L270.299 568.888L273.275 568.9L273.168 588.9L284.4 588.945L284.387 591.505L270.179 591.448ZM293.564 591.829C292.156 591.824 290.92 591.488 289.857 590.823C288.794 590.157 287.967 589.194 287.376 587.933C286.786 586.672 286.495 585.177 286.504 583.449C286.513 581.721 286.82 580.24 287.424 579.005C288.028 577.748 288.865 576.792 289.935 576.135C291.006 575.478 292.245 575.152 293.653 575.158C295.082 575.163 296.317 575.531 297.359 576.26C298.422 576.969 299.12 577.942 299.455 579.181L299.071 579.179L299.443 575.469L302.259 575.48C302.192 576.12 302.124 576.759 302.057 577.399C302.011 578.039 301.986 578.668 301.983 579.287L301.917 591.575L299.005 591.563L299.025 587.883L299.377 587.884C299.029 589.099 298.32 590.067 297.249 590.788C296.2 591.488 294.971 591.835 293.564 591.829ZM294.248 589.528C295.698 589.534 296.864 589.026 297.744 588.006C298.624 586.985 299.07 585.483 299.08 583.499C299.091 581.515 298.661 580.02 297.792 579.014C296.923 578.008 295.763 577.502 294.312 577.496C292.861 577.49 291.685 577.987 290.784 578.986C289.904 579.985 289.459 581.477 289.448 583.461C289.438 585.445 289.867 586.951 290.736 587.978C291.605 589.005 292.776 589.522 294.248 589.528ZM312.522 591.905C310.581 591.897 309.123 591.369 308.147 590.319C307.192 589.27 306.721 587.658 306.733 585.482L306.786 575.498L309.698 575.51L309.645 585.429C309.637 586.837 309.92 587.873 310.492 588.537C311.065 589.2 311.959 589.535 313.175 589.539C314.498 589.545 315.567 589.112 316.382 588.24C317.219 587.348 317.641 586.165 317.649 584.693L317.698 575.541L320.61 575.553L320.524 591.649L317.708 591.638L317.727 588.086L318.143 588.087C317.688 589.301 316.969 590.248 315.984 590.927C314.999 591.584 313.845 591.91 312.522 591.905ZM325.421 591.668L325.486 579.38C325.49 578.762 325.472 578.132 325.433 577.492C325.393 576.852 325.333 576.212 325.251 575.572L328.067 575.583L328.368 579.04L327.984 579.038C328.482 577.824 329.244 576.899 330.271 576.264C331.299 575.628 332.495 575.312 333.86 575.318C335.759 575.325 337.186 575.854 338.14 576.903C339.094 577.931 339.566 579.533 339.554 581.709L339.501 591.724L336.589 591.713L336.641 581.857C336.649 580.385 336.367 579.328 335.794 578.686C335.222 578.022 334.328 577.688 333.112 577.683C331.661 577.677 330.507 578.11 329.649 578.981C328.812 579.852 328.39 581.035 328.382 582.528L328.333 591.68L325.421 591.668ZM351.175 592.059C349.575 592.053 348.19 591.716 347.02 591.05C345.85 590.363 344.938 589.389 344.284 588.127C343.651 586.845 343.339 585.329 343.348 583.58C343.357 581.852 343.696 580.381 344.364 579.168C345.032 577.933 345.954 576.998 347.131 576.363C348.308 575.706 349.685 575.381 351.264 575.387C352.309 575.391 353.322 575.577 354.301 575.943C355.281 576.289 356.078 576.793 356.693 577.457L355.69 579.501C355.075 578.901 354.394 578.461 353.649 578.181C352.904 577.879 352.169 577.727 351.443 577.724C349.865 577.718 348.625 578.225 347.723 579.245C346.822 580.244 346.366 581.704 346.356 583.624C346.345 585.565 346.785 587.06 347.676 588.109C348.566 589.158 349.801 589.685 351.379 589.692C352.083 589.695 352.81 589.559 353.558 589.284C354.306 589.01 355.001 588.576 355.645 587.981L356.626 590.001C355.982 590.681 355.158 591.2 354.154 591.559C353.17 591.896 352.177 592.063 351.175 592.059ZM360.171 591.807L360.296 568.255L363.208 568.267L363.15 579.211L362.734 579.209C363.21 577.974 363.972 577.038 365.021 576.402C366.07 575.766 367.277 575.451 368.642 575.456C370.583 575.464 372.01 575.993 372.922 577.042C373.855 578.091 374.316 579.671 374.304 581.783L374.25 591.863L371.338 591.851L371.391 581.931C371.399 580.502 371.127 579.466 370.576 578.824C370.025 578.161 369.12 577.826 367.861 577.821C366.453 577.816 365.31 578.249 364.43 579.12C363.572 579.991 363.14 581.152 363.132 582.603L363.082 591.818L360.171 591.807ZM92.647 627.893C91.6017 627.888 90.6323 627.639 89.739 627.145C88.8457 626.629 88.1348 625.933 87.6061 625.057C87.0775 624.18 86.816 623.208 86.8217 622.141C86.8269 621.16 87.0772 620.233 87.5726 619.36C88.0892 618.488 88.7863 617.787 89.6638 617.257C90.5628 616.706 91.5776 616.432 92.7083 616.437C93.7536 616.441 94.7122 616.701 95.5841 617.216C96.4562 617.71 97.1566 618.385 97.6853 619.241C98.2354 620.096 98.5075 621.079 98.5016 622.188C98.496 623.233 98.2242 624.192 97.6862 625.065C97.1695 625.937 96.4618 626.628 95.5631 627.136C94.6857 627.645 93.7137 627.897 92.647 627.893ZM119.372 630.847L119.493 608.288L127.141 608.318C129.658 608.328 131.779 608.774 133.502 609.655C135.246 610.537 136.562 611.822 137.449 613.511C138.336 615.179 138.773 617.218 138.761 619.628C138.748 622.039 138.289 624.085 137.384 625.767C136.479 627.449 135.149 628.723 133.395 629.591C131.663 630.459 129.538 630.888 127.02 630.878L119.372 630.847ZM122.362 628.331L126.81 628.349C129.818 628.361 132.051 627.644 133.509 626.2C134.968 624.755 135.705 622.56 135.721 619.616C135.736 616.672 135.023 614.483 133.58 613.048C132.137 611.591 129.911 610.857 126.903 610.845L122.455 610.827L122.362 628.331ZM143.372 630.943L143.493 608.383L158.085 608.441L158.072 610.873L146.36 610.827L146.32 618.283L157.296 618.326L157.283 620.758L146.307 620.714L146.265 628.522L157.977 628.569L157.964 631.001L143.372 630.943ZM159.436 631.007L168.589 618.947L168.583 620.099L159.941 608.449L163.461 608.463L170.354 617.962L169.426 617.959L176.325 608.514L179.877 608.528L171.111 620.109L171.117 618.957L180.14 631.089L176.588 631.075L169.282 620.998L170.402 621.003L162.956 631.021L159.436 631.007ZM189.193 631.126L199.297 608.606L201.889 608.616L211.913 631.216L208.841 631.204L206.091 624.793L207.367 625.566L193.639 625.511L195.051 624.749L192.233 631.138L189.193 631.126ZM200.528 611.939L195.472 623.759L194.708 623.083L206.324 623.13L205.712 623.799L200.655 611.939L200.528 611.939ZM214.802 631.228L214.867 618.94C214.871 618.321 214.853 617.692 214.813 617.052C214.774 616.411 214.714 615.771 214.632 615.131L217.448 615.142L217.749 618.599L217.365 618.598C217.862 617.384 218.625 616.459 219.652 615.823C220.679 615.187 221.876 614.872 223.241 614.877C225.14 614.885 226.566 615.413 227.521 616.462C228.475 617.49 228.947 619.092 228.935 621.268L228.881 631.284L225.969 631.272L226.022 621.416C226.03 619.944 225.748 618.887 225.175 618.245C224.603 617.581 223.708 617.247 222.492 617.242C221.042 617.236 219.887 617.669 219.029 618.54C218.193 619.412 217.77 620.594 217.762 622.087L217.714 631.239L214.802 631.228ZM239.788 631.615C238.38 631.61 237.144 631.274 236.081 630.608C235.018 629.943 234.191 628.98 233.6 627.719C233.01 626.457 232.719 624.963 232.728 623.235C232.738 621.507 233.044 620.026 233.648 618.791C234.252 617.534 235.089 616.578 236.159 615.921C237.23 615.264 238.469 614.938 239.877 614.943C241.306 614.949 242.541 615.317 243.583 616.046C244.646 616.754 245.345 617.728 245.679 618.967L245.295 618.965L245.667 615.255L248.483 615.266C248.416 615.905 248.348 616.545 248.281 617.185C248.235 617.825 248.21 618.454 248.207 619.073L248.141 631.361L245.229 631.349L245.249 627.669L245.601 627.67C245.253 628.885 244.544 629.853 243.473 630.574C242.424 631.274 241.196 631.621 239.788 631.615ZM240.472 629.314C241.923 629.32 243.088 628.812 243.968 627.792C244.848 626.771 245.294 625.269 245.304 623.285C245.315 621.301 244.885 619.806 244.016 618.8C243.147 617.794 241.987 617.288 240.536 617.282C239.086 617.276 237.91 617.773 237.008 618.772C236.128 619.771 235.683 621.263 235.672 623.247C235.662 625.231 236.091 626.736 236.96 627.764C237.829 628.791 239 629.308 240.472 629.314ZM253.02 631.38L253.146 607.828L256.058 607.84L255.932 631.392L253.02 631.38ZM260.218 638.673L259.559 636.302C260.563 636.071 261.396 635.797 262.059 635.48C262.722 635.184 263.279 634.792 263.73 634.303C264.18 633.814 264.578 633.197 264.924 632.451L265.734 630.535L265.663 631.75L258.743 615.307L261.879 615.319L267.405 629.133L266.573 629.13L272.247 615.36L275.255 615.372L267.77 632.687C267.317 633.73 266.822 634.603 266.284 635.305C265.769 636.007 265.2 636.581 264.579 637.026C263.98 637.472 263.316 637.821 262.59 638.074C261.863 638.327 261.072 638.527 260.218 638.673ZM284.222 631.792C282.536 631.786 281.259 631.322 280.389 630.401C279.541 629.459 279.122 628.049 279.132 626.172L279.177 617.628L276.041 617.616L276.053 615.376L279.189 615.388L279.212 611.068L282.129 610.28L282.101 615.4L286.645 615.418L286.633 617.658L282.089 617.64L282.045 625.928C282.038 627.165 282.247 628.051 282.671 628.586C283.116 629.1 283.755 629.358 284.587 629.362C285.013 629.363 285.376 629.333 285.675 629.27C285.996 629.186 286.284 629.091 286.541 628.986L286.528 631.386C286.207 631.512 285.833 631.607 285.406 631.669C285.001 631.753 284.606 631.794 284.222 631.792ZM289.613 631.526L289.7 615.43L292.612 615.442L292.525 631.537L289.613 631.526ZM289.462 611.909L289.479 608.773L292.935 608.787L292.918 611.923L289.462 611.909ZM304.305 631.872C302.705 631.866 301.32 631.53 300.15 630.864C298.981 630.177 298.069 629.202 297.414 627.941C296.781 626.658 296.469 625.142 296.478 623.393C296.488 621.665 296.826 620.195 297.494 618.981C298.162 617.746 299.084 616.811 300.261 616.176C301.438 615.52 302.816 615.194 304.394 615.201C305.44 615.205 306.452 615.39 307.431 615.757C308.411 616.102 309.208 616.607 309.823 617.27L308.82 619.314C308.205 618.715 307.524 618.274 306.779 617.994C306.034 617.693 305.299 617.54 304.574 617.537C302.995 617.531 301.755 618.038 300.854 619.059C299.952 620.058 299.496 621.517 299.486 623.437C299.476 625.378 299.916 626.874 300.806 627.922C301.697 628.971 302.931 629.499 304.51 629.505C305.214 629.508 305.94 629.372 306.688 629.098C307.436 628.824 308.132 628.389 308.775 627.794L309.756 629.814C309.112 630.494 308.288 631.014 307.284 631.372C306.301 631.71 305.308 631.876 304.305 631.872ZM318.739 631.93C317.438 631.925 316.223 631.749 315.094 631.403C313.986 631.058 313.072 630.563 312.35 629.92L313.289 627.908C314.075 628.509 314.936 628.971 315.873 629.295C316.832 629.597 317.812 629.75 318.815 629.754C320.031 629.759 320.949 629.539 321.57 629.093C322.213 628.648 322.536 628.052 322.54 627.305C322.543 626.708 322.343 626.227 321.94 625.863C321.536 625.498 320.898 625.229 320.024 625.055L316.987 624.435C315.624 624.109 314.592 623.593 313.891 622.887C313.213 622.159 312.876 621.229 312.882 620.099C312.887 619.16 313.148 618.329 313.664 617.606C314.18 616.861 314.908 616.288 315.849 615.886C316.811 615.463 317.932 615.255 319.212 615.26C320.386 615.264 321.473 615.439 322.474 615.785C323.496 616.13 324.336 616.635 324.994 617.299L324.023 619.247C323.365 618.668 322.621 618.228 321.79 617.926C320.981 617.603 320.15 617.439 319.297 617.436C318.059 617.431 317.141 617.673 316.541 618.161C315.941 618.628 315.639 619.245 315.635 620.013C315.632 620.589 315.811 621.07 316.171 621.456C316.532 621.82 317.117 622.099 317.927 622.295L320.963 622.915C322.391 623.219 323.466 623.714 324.188 624.4C324.909 625.085 325.267 625.993 325.261 627.124C325.256 628.127 324.974 628.989 324.415 629.713C323.878 630.436 323.118 630.987 322.134 631.367C321.172 631.748 320.041 631.935 318.739 631.93Z" fill="#BA1E71"/>
<line x1="94.0177" y1="330.001" x2="93.5" y2="615.001" stroke="#0FA9D9"/>
</svg>
