<svg width="646" height="386" viewBox="0 0 646 386" fill="none" xmlns="http://www.w3.org/2000/svg">
<path d="M368.795 335L314.795 379.167V290.833L368.795 335Z" fill="#BA1E71"/>
<path fill-rule="evenodd" clip-rule="evenodd" d="M1 379L54.7955 335L1 291H314.795V379H1ZM0.795458 379L0.79546 291H0.795458V379Z" fill="#BA1E71"/>
<path d="M128.807 349V346.443L138.409 335.932C139.536 334.701 140.464 333.631 141.193 332.722C141.922 331.803 142.462 330.941 142.812 330.136C143.172 329.322 143.352 328.47 143.352 327.58C143.352 326.557 143.106 325.671 142.614 324.923C142.131 324.175 141.468 323.598 140.625 323.19C139.782 322.783 138.835 322.58 137.784 322.58C136.667 322.58 135.691 322.812 134.858 323.276C134.034 323.73 133.395 324.369 132.94 325.193C132.495 326.017 132.273 326.983 132.273 328.091H128.92C128.92 326.386 129.313 324.89 130.099 323.602C130.885 322.314 131.955 321.311 133.31 320.591C134.673 319.871 136.203 319.511 137.898 319.511C139.602 319.511 141.113 319.871 142.429 320.591C143.745 321.311 144.777 322.281 145.526 323.503C146.274 324.724 146.648 326.083 146.648 327.58C146.648 328.65 146.454 329.696 146.065 330.719C145.687 331.732 145.024 332.864 144.077 334.114C143.139 335.354 141.837 336.869 140.17 338.659L133.636 345.648V345.875H147.159V349H128.807ZM162.514 349.398C160.374 349.398 158.551 348.815 157.045 347.651C155.54 346.476 154.389 344.777 153.594 342.551C152.798 340.316 152.401 337.617 152.401 334.455C152.401 331.311 152.798 328.626 153.594 326.401C154.399 324.166 155.554 322.461 157.06 321.287C158.575 320.103 160.393 319.511 162.514 319.511C164.635 319.511 166.449 320.103 167.955 321.287C169.47 322.461 170.625 324.166 171.42 326.401C172.225 328.626 172.628 331.311 172.628 334.455C172.628 337.617 172.23 340.316 171.435 342.551C170.639 344.777 169.489 346.476 167.983 347.651C166.477 348.815 164.654 349.398 162.514 349.398ZM162.514 346.273C164.635 346.273 166.283 345.25 167.457 343.205C168.632 341.159 169.219 338.242 169.219 334.455C169.219 331.936 168.949 329.791 168.409 328.02C167.879 326.249 167.112 324.9 166.108 323.972C165.114 323.044 163.916 322.58 162.514 322.58C160.412 322.58 158.769 323.616 157.585 325.69C156.401 327.755 155.81 330.676 155.81 334.455C155.81 336.973 156.075 339.114 156.605 340.875C157.135 342.636 157.898 343.976 158.892 344.895C159.896 345.813 161.103 346.273 162.514 346.273ZM178.026 349V346.443L187.628 335.932C188.755 334.701 189.683 333.631 190.412 332.722C191.141 331.803 191.681 330.941 192.031 330.136C192.391 329.322 192.571 328.47 192.571 327.58C192.571 326.557 192.325 325.671 191.832 324.923C191.349 324.175 190.687 323.598 189.844 323.19C189.001 322.783 188.054 322.58 187.003 322.58C185.885 322.58 184.91 322.812 184.077 323.276C183.253 323.73 182.614 324.369 182.159 325.193C181.714 326.017 181.491 326.983 181.491 328.091H178.139C178.139 326.386 178.532 324.89 179.318 323.602C180.104 322.314 181.174 321.311 182.528 320.591C183.892 319.871 185.421 319.511 187.116 319.511C188.821 319.511 190.331 319.871 191.648 320.591C192.964 321.311 193.996 322.281 194.744 323.503C195.492 324.724 195.866 326.083 195.866 327.58C195.866 328.65 195.672 329.696 195.284 330.719C194.905 331.732 194.242 332.864 193.295 334.114C192.358 335.354 191.056 336.869 189.389 338.659L182.855 345.648V345.875H196.378V349H178.026ZM211.335 349.398C209.669 349.398 208.168 349.066 206.832 348.403C205.497 347.741 204.427 346.831 203.622 345.676C202.817 344.521 202.377 343.205 202.301 341.727H205.71C205.843 343.044 206.439 344.133 207.5 344.994C208.57 345.847 209.848 346.273 211.335 346.273C212.528 346.273 213.589 345.993 214.517 345.435C215.455 344.876 216.188 344.109 216.719 343.134C217.258 342.149 217.528 341.036 217.528 339.795C217.528 338.527 217.249 337.395 216.69 336.401C216.141 335.397 215.383 334.606 214.418 334.028C213.452 333.451 212.348 333.157 211.108 333.148C210.218 333.138 209.304 333.276 208.366 333.56C207.429 333.834 206.657 334.189 206.051 334.625L202.756 334.227L204.517 319.909H219.631V323.034H207.472L206.449 331.614H206.619C207.216 331.14 207.964 330.747 208.864 330.435C209.763 330.122 210.701 329.966 211.676 329.966C213.456 329.966 215.043 330.392 216.435 331.244C217.836 332.087 218.935 333.242 219.73 334.71C220.535 336.178 220.937 337.854 220.937 339.739C220.937 341.595 220.521 343.252 219.687 344.71C218.864 346.159 217.727 347.305 216.278 348.148C214.83 348.981 213.182 349.398 211.335 349.398ZM248.91 339.909H252.773L256.012 344.17L256.864 345.307L261.694 351.727H257.83L254.648 347.466L253.853 346.386L248.91 339.909ZM262.887 334.455C262.887 337.523 262.333 340.174 261.225 342.409C260.117 344.644 258.597 346.367 256.665 347.58C254.734 348.792 252.527 349.398 250.046 349.398C247.565 349.398 245.359 348.792 243.427 347.58C241.495 346.367 239.975 344.644 238.867 342.409C237.759 340.174 237.205 337.523 237.205 334.455C237.205 331.386 237.759 328.735 238.867 326.5C239.975 324.265 241.495 322.542 243.427 321.33C245.359 320.117 247.565 319.511 250.046 319.511C252.527 319.511 254.734 320.117 256.665 321.33C258.597 322.542 260.117 324.265 261.225 326.5C262.333 328.735 262.887 331.386 262.887 334.455ZM259.478 334.455C259.478 331.936 259.057 329.81 258.214 328.077C257.38 326.344 256.249 325.032 254.819 324.142C253.398 323.252 251.807 322.807 250.046 322.807C248.285 322.807 246.689 323.252 245.259 324.142C243.839 325.032 242.707 326.344 241.864 328.077C241.031 329.81 240.614 331.936 240.614 334.455C240.614 336.973 241.031 339.099 241.864 340.832C242.707 342.565 243.839 343.877 245.259 344.767C246.689 345.657 248.285 346.102 250.046 346.102C251.807 346.102 253.398 345.657 254.819 344.767C256.249 343.877 257.38 342.565 258.214 340.832C259.057 339.099 259.478 336.973 259.478 334.455ZM267.617 343.034V340.136L280.401 319.909H282.504V324.398H281.083L271.424 339.682V339.909H288.64V343.034H267.617ZM281.31 349V342.153V340.804V319.909H284.663V349H281.31Z" fill="black"/>
<circle cx="94.2954" cy="335.5" r="8.5" fill="#D9D9D9"/>
<path d="M94.0085 26.7273C93.0919 26.7273 92.2547 26.5038 91.4972 26.0568C90.7396 25.6023 90.1335 24.9962 89.679 24.2386C89.232 23.4811 89.0085 22.6439 89.0085 21.7273C89.0085 20.803 89.232 19.9659 89.679 19.2159C90.1335 18.4583 90.7396 17.8561 91.4972 17.4091C92.2547 16.9545 93.0919 16.7273 94.0085 16.7273C94.9328 16.7273 95.7699 16.9545 96.5199 17.4091C97.2775 17.8561 97.8797 18.4583 98.3267 19.2159C98.7813 19.9659 99.0085 20.803 99.0085 21.7273C99.0085 22.6439 98.7813 23.4811 98.3267 24.2386C97.8797 24.9962 97.2775 25.6023 96.5199 26.0568C95.7699 26.5038 94.9328 26.7273 94.0085 26.7273ZM120.557 31V7.72727H124.068V27.9773H134.614V31H120.557ZM143.426 31.3864C142.32 31.3864 141.32 31.1818 140.426 30.7727C139.532 30.3561 138.824 29.7538 138.301 28.9659C137.786 28.178 137.528 27.2121 137.528 26.0682C137.528 25.0833 137.718 24.2727 138.097 23.6364C138.475 23 138.987 22.4962 139.631 22.125C140.275 21.7538 140.994 21.4735 141.79 21.2841C142.585 21.0947 143.396 20.9508 144.222 20.8523C145.267 20.7311 146.116 20.6326 146.767 20.5568C147.419 20.4735 147.892 20.3409 148.188 20.1591C148.483 19.9773 148.631 19.6818 148.631 19.2727V19.1932C148.631 18.2008 148.35 17.4318 147.79 16.8864C147.237 16.3409 146.411 16.0682 145.312 16.0682C144.169 16.0682 143.267 16.322 142.608 16.8295C141.956 17.3295 141.506 17.8864 141.256 18.5L138.062 17.7727C138.441 16.7121 138.994 15.8561 139.722 15.2045C140.456 14.5455 141.301 14.0682 142.256 13.7727C143.21 13.4697 144.214 13.3182 145.267 13.3182C145.964 13.3182 146.703 13.4015 147.483 13.5682C148.271 13.7273 149.006 14.0227 149.688 14.4545C150.377 14.8864 150.941 15.5038 151.381 16.3068C151.82 17.1023 152.04 18.1364 152.04 19.4091V31H148.722V28.6136H148.585C148.366 29.053 148.036 29.4848 147.597 29.9091C147.157 30.3333 146.593 30.6856 145.903 30.9659C145.214 31.2462 144.388 31.3864 143.426 31.3864ZM144.165 28.6591C145.104 28.6591 145.907 28.4735 146.574 28.1023C147.248 27.7311 147.759 27.2462 148.108 26.6477C148.464 26.0417 148.642 25.3939 148.642 24.7045V22.4545C148.521 22.5758 148.286 22.6894 147.938 22.7955C147.597 22.8939 147.206 22.9811 146.767 23.0568C146.328 23.125 145.9 23.1894 145.483 23.25C145.066 23.303 144.718 23.3485 144.438 23.3864C143.778 23.4697 143.176 23.6098 142.631 23.8068C142.093 24.0038 141.661 24.2879 141.335 24.6591C141.017 25.0227 140.858 25.5076 140.858 26.1136C140.858 26.9545 141.169 27.5909 141.79 28.0227C142.411 28.447 143.203 28.6591 144.165 28.6591ZM158.088 37.5455C157.58 37.5455 157.118 37.5038 156.702 37.4205C156.285 37.3447 155.974 37.2614 155.77 37.1705L156.588 34.3864C157.209 34.553 157.762 34.625 158.247 34.6023C158.732 34.5795 159.16 34.3977 159.531 34.0568C159.91 33.7159 160.243 33.1591 160.531 32.3864L160.952 31.2273L154.565 13.5455H158.202L162.622 27.0909H162.804L167.224 13.5455H170.872L163.679 33.3295C163.346 34.2386 162.921 35.0076 162.406 35.6364C161.891 36.2727 161.277 36.75 160.565 37.0682C159.853 37.3864 159.027 37.5455 158.088 37.5455ZM180.994 31.3523C179.275 31.3523 177.794 30.9848 176.551 30.25C175.316 29.5076 174.362 28.4659 173.688 27.125C173.021 25.7765 172.688 24.197 172.688 22.3864C172.688 20.5985 173.021 19.0227 173.688 17.6591C174.362 16.2955 175.301 15.2311 176.506 14.4659C177.718 13.7008 179.134 13.3182 180.756 13.3182C181.741 13.3182 182.695 13.4811 183.619 13.8068C184.544 14.1326 185.373 14.6439 186.108 15.3409C186.843 16.0379 187.422 16.9432 187.847 18.0568C188.271 19.1629 188.483 20.5076 188.483 22.0909V23.2955H174.608V20.75H185.153C185.153 19.8561 184.972 19.0644 184.608 18.375C184.244 17.678 183.733 17.1288 183.074 16.7273C182.422 16.3258 181.657 16.125 180.778 16.125C179.824 16.125 178.991 16.3598 178.278 16.8295C177.574 17.2917 177.028 17.8977 176.642 18.6477C176.263 19.3902 176.074 20.197 176.074 21.0682V23.0568C176.074 24.2235 176.278 25.2159 176.688 26.0341C177.104 26.8523 177.684 27.4773 178.426 27.9091C179.169 28.3333 180.036 28.5455 181.028 28.5455C181.672 28.5455 182.259 28.4545 182.79 28.2727C183.32 28.0833 183.778 27.803 184.165 27.4318C184.551 27.0606 184.847 26.6023 185.051 26.0568L188.267 26.6364C188.009 27.5833 187.547 28.4129 186.881 29.125C186.222 29.8295 185.392 30.3788 184.392 30.7727C183.4 31.1591 182.267 31.3523 180.994 31.3523ZM192.253 31V13.5455H195.537V16.3182H195.719C196.037 15.3788 196.598 14.6402 197.401 14.1023C198.211 13.5568 199.128 13.2841 200.151 13.2841C200.363 13.2841 200.613 13.2917 200.901 13.3068C201.196 13.322 201.427 13.3409 201.594 13.3636V16.6136C201.457 16.5758 201.215 16.5341 200.866 16.4886C200.518 16.4356 200.17 16.4091 199.821 16.4091C199.018 16.4091 198.302 16.5795 197.673 16.9205C197.052 17.2538 196.56 17.7197 196.196 18.3182C195.832 18.9091 195.651 19.5833 195.651 20.3409V31H192.253ZM221.787 7.72727V31H218.264V11.25H218.128L212.56 14.8864V11.5227L218.366 7.72727H221.787ZM236.869 7.72727H241.131L248.54 25.8182H248.812L256.222 7.72727H260.483V31H257.142V14.1591H256.926L250.062 30.9659H247.29L240.426 14.1477H240.21V31H236.869V7.72727ZM270.395 31.3864C269.289 31.3864 268.289 31.1818 267.395 30.7727C266.501 30.3561 265.793 29.7538 265.27 28.9659C264.755 28.178 264.497 27.2121 264.497 26.0682C264.497 25.0833 264.687 24.2727 265.065 23.6364C265.444 23 265.955 22.4962 266.599 22.125C267.243 21.7538 267.963 21.4735 268.759 21.2841C269.554 21.0947 270.365 20.9508 271.19 20.8523C272.236 20.7311 273.084 20.6326 273.736 20.5568C274.387 20.4735 274.861 20.3409 275.156 20.1591C275.452 19.9773 275.599 19.6818 275.599 19.2727V19.1932C275.599 18.2008 275.319 17.4318 274.759 16.8864C274.205 16.3409 273.38 16.0682 272.281 16.0682C271.137 16.0682 270.236 16.322 269.577 16.8295C268.925 17.3295 268.474 17.8864 268.224 18.5L265.031 17.7727C265.41 16.7121 265.963 15.8561 266.69 15.2045C267.425 14.5455 268.27 14.0682 269.224 13.7727C270.179 13.4697 271.183 13.3182 272.236 13.3182C272.933 13.3182 273.671 13.4015 274.452 13.5682C275.24 13.7273 275.974 14.0227 276.656 14.4545C277.346 14.8864 277.91 15.5038 278.349 16.3068C278.789 17.1023 279.009 18.1364 279.009 19.4091V31H275.69V28.6136H275.554C275.334 29.053 275.005 29.4848 274.565 29.9091C274.126 30.3333 273.562 30.6856 272.872 30.9659C272.183 31.2462 271.357 31.3864 270.395 31.3864ZM271.134 28.6591C272.073 28.6591 272.876 28.4735 273.543 28.1023C274.217 27.7311 274.728 27.2462 275.077 26.6477C275.433 26.0417 275.611 25.3939 275.611 24.7045V22.4545C275.49 22.5758 275.255 22.6894 274.906 22.7955C274.565 22.8939 274.175 22.9811 273.736 23.0568C273.296 23.125 272.868 23.1894 272.452 23.25C272.035 23.303 271.687 23.3485 271.406 23.3864C270.747 23.4697 270.145 23.6098 269.599 23.8068C269.062 24.0038 268.63 24.2879 268.304 24.6591C267.986 25.0227 267.827 25.5076 267.827 26.1136C267.827 26.9545 268.137 27.5909 268.759 28.0227C269.38 28.447 270.171 28.6591 271.134 28.6591ZM283.534 31V13.5455H286.932V31H283.534ZM285.25 10.8523C284.659 10.8523 284.152 10.6553 283.727 10.2614C283.311 9.85985 283.102 9.38257 283.102 8.82954C283.102 8.26894 283.311 7.79167 283.727 7.39773C284.152 6.99621 284.659 6.79545 285.25 6.79545C285.841 6.79545 286.345 6.99621 286.761 7.39773C287.186 7.79167 287.398 8.26894 287.398 8.82954C287.398 9.38257 287.186 9.85985 286.761 10.2614C286.345 10.6553 285.841 10.8523 285.25 10.8523ZM294.901 20.6364V31H291.503V13.5455H294.764V16.3864H294.98C295.382 15.4621 296.01 14.7197 296.866 14.1591C297.73 13.5985 298.817 13.3182 300.128 13.3182C301.317 13.3182 302.359 13.5682 303.253 14.0682C304.147 14.5606 304.84 15.2955 305.332 16.2727C305.825 17.25 306.071 18.4583 306.071 19.8977V31H302.673V20.3068C302.673 19.0417 302.344 18.053 301.685 17.3409C301.026 16.6212 300.12 16.2614 298.969 16.2614C298.181 16.2614 297.48 16.4318 296.866 16.7727C296.26 17.1136 295.779 17.6136 295.423 18.2727C295.075 18.9242 294.901 19.7121 294.901 20.6364ZM314.026 20.6364V31H310.628V13.5455H313.889V16.3864H314.105C314.507 15.4621 315.135 14.7197 315.991 14.1591C316.855 13.5985 317.942 13.3182 319.253 13.3182C320.442 13.3182 321.484 13.5682 322.378 14.0682C323.272 14.5606 323.965 15.2955 324.457 16.2727C324.95 17.25 325.196 18.4583 325.196 19.8977V31H321.798V20.3068C321.798 19.0417 321.469 18.053 320.81 17.3409C320.151 16.6212 319.245 16.2614 318.094 16.2614C317.306 16.2614 316.605 16.4318 315.991 16.7727C315.385 17.1136 314.904 17.6136 314.548 18.2727C314.2 18.9242 314.026 19.7121 314.026 20.6364ZM337.276 31.3523C335.556 31.3523 334.075 30.9848 332.832 30.25C331.598 29.5076 330.643 28.4659 329.969 27.125C329.302 25.7765 328.969 24.197 328.969 22.3864C328.969 20.5985 329.302 19.0227 329.969 17.6591C330.643 16.2955 331.582 15.2311 332.787 14.4659C333.999 13.7008 335.416 13.3182 337.037 13.3182C338.022 13.3182 338.976 13.4811 339.901 13.8068C340.825 14.1326 341.654 14.6439 342.389 15.3409C343.124 16.0379 343.704 16.9432 344.128 18.0568C344.552 19.1629 344.764 20.5076 344.764 22.0909V23.2955H330.889V20.75H341.435C341.435 19.8561 341.253 19.0644 340.889 18.375C340.526 17.678 340.014 17.1288 339.355 16.7273C338.704 16.3258 337.938 16.125 337.06 16.125C336.105 16.125 335.272 16.3598 334.56 16.8295C333.855 17.2917 333.31 17.8977 332.923 18.6477C332.545 19.3902 332.355 20.197 332.355 21.0682V23.0568C332.355 24.2235 332.56 25.2159 332.969 26.0341C333.385 26.8523 333.965 27.4773 334.707 27.9091C335.45 28.3333 336.317 28.5455 337.31 28.5455C337.954 28.5455 338.541 28.4545 339.071 28.2727C339.601 28.0833 340.06 27.803 340.446 27.4318C340.832 27.0606 341.128 26.6023 341.332 26.0568L344.548 26.6364C344.291 27.5833 343.829 28.4129 343.162 29.125C342.503 29.8295 341.673 30.3788 340.673 30.7727C339.681 31.1591 338.548 31.3523 337.276 31.3523ZM356.682 13.5455V16.2727H347.148V13.5455H356.682ZM349.705 9.36364H353.102V25.875C353.102 26.5341 353.201 27.0303 353.398 27.3636C353.595 27.6894 353.848 27.9129 354.159 28.0341C354.477 28.1477 354.822 28.2045 355.193 28.2045C355.466 28.2045 355.705 28.1856 355.909 28.1477C356.114 28.1098 356.273 28.0795 356.386 28.0568L357 30.8636C356.803 30.9394 356.523 31.0152 356.159 31.0909C355.795 31.1742 355.341 31.2197 354.795 31.2273C353.902 31.2424 353.068 31.0833 352.295 30.75C351.523 30.4167 350.898 29.9015 350.42 29.2045C349.943 28.5076 349.705 27.6326 349.705 26.5795V9.36364ZM372.693 7.72727V31H369.182V7.72727H372.693ZM377.534 31V13.5455H380.795V16.3864H381.011C381.375 15.4242 381.97 14.6742 382.795 14.1364C383.621 13.5909 384.61 13.3182 385.761 13.3182C386.928 13.3182 387.905 13.5909 388.693 14.1364C389.489 14.6818 390.076 15.4318 390.455 16.3864H390.636C391.053 15.4545 391.716 14.7121 392.625 14.1591C393.534 13.5985 394.617 13.3182 395.875 13.3182C397.458 13.3182 398.75 13.8144 399.75 14.8068C400.758 15.7992 401.261 17.2955 401.261 19.2955V31H397.864V19.6136C397.864 18.4318 397.542 17.5758 396.898 17.0455C396.254 16.5152 395.485 16.25 394.591 16.25C393.485 16.25 392.625 16.5909 392.011 17.2727C391.398 17.947 391.091 18.8144 391.091 19.875V31H387.705V19.3977C387.705 18.4508 387.409 17.6894 386.818 17.1136C386.227 16.5379 385.458 16.25 384.511 16.25C383.867 16.25 383.273 16.4205 382.727 16.7614C382.189 17.0947 381.754 17.5606 381.42 18.1591C381.095 18.7576 380.932 19.4508 380.932 20.2386V31H377.534ZM405.815 37.5455V13.5455H409.134V16.375H409.418C409.615 16.0114 409.899 15.5909 410.27 15.1136C410.641 14.6364 411.156 14.2197 411.815 13.8636C412.474 13.5 413.346 13.3182 414.429 13.3182C415.838 13.3182 417.096 13.6742 418.202 14.3864C419.308 15.0985 420.175 16.125 420.804 17.4659C421.44 18.8068 421.759 20.4205 421.759 22.3068C421.759 24.1932 421.444 25.8106 420.815 27.1591C420.187 28.5 419.323 29.5341 418.224 30.2614C417.126 30.9811 415.872 31.3409 414.463 31.3409C413.402 31.3409 412.535 31.1629 411.861 30.8068C411.194 30.4508 410.671 30.0341 410.293 29.5568C409.914 29.0795 409.622 28.6553 409.418 28.2841H409.213V37.5455H405.815ZM409.145 22.2727C409.145 23.5 409.323 24.5758 409.679 25.5C410.035 26.4242 410.55 27.1477 411.224 27.6705C411.899 28.1856 412.724 28.4432 413.702 28.4432C414.717 28.4432 415.565 28.1742 416.247 27.6364C416.929 27.0909 417.444 26.3523 417.793 25.4205C418.149 24.4886 418.327 23.4394 418.327 22.2727C418.327 21.1212 418.152 20.0871 417.804 19.1705C417.463 18.2538 416.948 17.5303 416.259 17C415.577 16.4697 414.724 16.2045 413.702 16.2045C412.717 16.2045 411.884 16.4583 411.202 16.9659C410.527 17.4735 410.016 18.1818 409.668 19.0909C409.319 20 409.145 21.0606 409.145 22.2727ZM428.963 7.72727V31H425.565V7.72727H428.963ZM441.057 31.3523C439.337 31.3523 437.856 30.9848 436.614 30.25C435.379 29.5076 434.424 28.4659 433.75 27.125C433.083 25.7765 432.75 24.197 432.75 22.3864C432.75 20.5985 433.083 19.0227 433.75 17.6591C434.424 16.2955 435.364 15.2311 436.568 14.4659C437.78 13.7008 439.197 13.3182 440.818 13.3182C441.803 13.3182 442.758 13.4811 443.682 13.8068C444.606 14.1326 445.436 14.6439 446.17 15.3409C446.905 16.0379 447.485 16.9432 447.909 18.0568C448.333 19.1629 448.545 20.5076 448.545 22.0909V23.2955H434.67V20.75H445.216C445.216 19.8561 445.034 19.0644 444.67 18.375C444.307 17.678 443.795 17.1288 443.136 16.7273C442.485 16.3258 441.72 16.125 440.841 16.125C439.886 16.125 439.053 16.3598 438.341 16.8295C437.636 17.2917 437.091 17.8977 436.705 18.6477C436.326 19.3902 436.136 20.197 436.136 21.0682V23.0568C436.136 24.2235 436.341 25.2159 436.75 26.0341C437.167 26.8523 437.746 27.4773 438.489 27.9091C439.231 28.3333 440.098 28.5455 441.091 28.5455C441.735 28.5455 442.322 28.4545 442.852 28.2727C443.383 28.0833 443.841 27.803 444.227 27.4318C444.614 27.0606 444.909 26.6023 445.114 26.0568L448.33 26.6364C448.072 27.5833 447.61 28.4129 446.943 29.125C446.284 29.8295 445.455 30.3788 444.455 30.7727C443.462 31.1591 442.33 31.3523 441.057 31.3523ZM452.315 31V13.5455H455.577V16.3864H455.793C456.156 15.4242 456.751 14.6742 457.577 14.1364C458.402 13.5909 459.391 13.3182 460.543 13.3182C461.709 13.3182 462.687 13.5909 463.474 14.1364C464.27 14.6818 464.857 15.4318 465.236 16.3864H465.418C465.834 15.4545 466.497 14.7121 467.406 14.1591C468.315 13.5985 469.399 13.3182 470.656 13.3182C472.24 13.3182 473.531 13.8144 474.531 14.8068C475.539 15.7992 476.043 17.2955 476.043 19.2955V31H472.645V19.6136C472.645 18.4318 472.323 17.5758 471.679 17.0455C471.035 16.5152 470.266 16.25 469.372 16.25C468.266 16.25 467.406 16.5909 466.793 17.2727C466.179 17.947 465.872 18.8144 465.872 19.875V31H462.486V19.3977C462.486 18.4508 462.19 17.6894 461.599 17.1136C461.009 16.5379 460.24 16.25 459.293 16.25C458.649 16.25 458.054 16.4205 457.509 16.7614C456.971 17.0947 456.535 17.5606 456.202 18.1591C455.876 18.7576 455.713 19.4508 455.713 20.2386V31H452.315ZM488.119 31.3523C486.4 31.3523 484.919 30.9848 483.676 30.25C482.441 29.5076 481.487 28.4659 480.812 27.125C480.146 25.7765 479.812 24.197 479.812 22.3864C479.812 20.5985 480.146 19.0227 480.812 17.6591C481.487 16.2955 482.426 15.2311 483.631 14.4659C484.843 13.7008 486.259 13.3182 487.881 13.3182C488.866 13.3182 489.82 13.4811 490.744 13.8068C491.669 14.1326 492.498 14.6439 493.233 15.3409C493.968 16.0379 494.547 16.9432 494.972 18.0568C495.396 19.1629 495.608 20.5076 495.608 22.0909V23.2955H481.733V20.75H492.278C492.278 19.8561 492.097 19.0644 491.733 18.375C491.369 17.678 490.858 17.1288 490.199 16.7273C489.547 16.3258 488.782 16.125 487.903 16.125C486.949 16.125 486.116 16.3598 485.403 16.8295C484.699 17.2917 484.153 17.8977 483.767 18.6477C483.388 19.3902 483.199 20.197 483.199 21.0682V23.0568C483.199 24.2235 483.403 25.2159 483.812 26.0341C484.229 26.8523 484.809 27.4773 485.551 27.9091C486.294 28.3333 487.161 28.5455 488.153 28.5455C488.797 28.5455 489.384 28.4545 489.915 28.2727C490.445 28.0833 490.903 27.803 491.29 27.4318C491.676 27.0606 491.972 26.6023 492.176 26.0568L495.392 26.6364C495.134 27.5833 494.672 28.4129 494.006 29.125C493.347 29.8295 492.517 30.3788 491.517 30.7727C490.525 31.1591 489.392 31.3523 488.119 31.3523ZM502.776 20.6364V31H499.378V13.5455H502.639V16.3864H502.855C503.257 15.4621 503.885 14.7197 504.741 14.1591C505.605 13.5985 506.692 13.3182 508.003 13.3182C509.192 13.3182 510.234 13.5682 511.128 14.0682C512.022 14.5606 512.715 15.2955 513.207 16.2727C513.7 17.25 513.946 18.4583 513.946 19.8977V31H510.548V20.3068C510.548 19.0417 510.219 18.053 509.56 17.3409C508.901 16.6212 507.995 16.2614 506.844 16.2614C506.056 16.2614 505.355 16.4318 504.741 16.7727C504.135 17.1136 503.654 17.6136 503.298 18.2727C502.95 18.9242 502.776 19.7121 502.776 20.6364ZM526.651 13.5455V16.2727H517.116V13.5455H526.651ZM519.673 9.36364H523.071V25.875C523.071 26.5341 523.17 27.0303 523.366 27.3636C523.563 27.6894 523.817 27.9129 524.128 28.0341C524.446 28.1477 524.791 28.2045 525.162 28.2045C525.435 28.2045 525.673 28.1856 525.878 28.1477C526.082 28.1098 526.241 28.0795 526.355 28.0568L526.969 30.8636C526.772 30.9394 526.491 31.0152 526.128 31.0909C525.764 31.1742 525.31 31.2197 524.764 31.2273C523.87 31.2424 523.037 31.0833 522.264 30.75C521.491 30.4167 520.866 29.9015 520.389 29.2045C519.912 28.5076 519.673 27.6326 519.673 26.5795V9.36364ZM535.489 31.3864C534.383 31.3864 533.383 31.1818 532.489 30.7727C531.595 30.3561 530.886 29.7538 530.364 28.9659C529.848 28.178 529.591 27.2121 529.591 26.0682C529.591 25.0833 529.78 24.2727 530.159 23.6364C530.538 23 531.049 22.4962 531.693 22.125C532.337 21.7538 533.057 21.4735 533.852 21.2841C534.648 21.0947 535.458 20.9508 536.284 20.8523C537.33 20.7311 538.178 20.6326 538.83 20.5568C539.481 20.4735 539.955 20.3409 540.25 20.1591C540.545 19.9773 540.693 19.6818 540.693 19.2727V19.1932C540.693 18.2008 540.413 17.4318 539.852 16.8864C539.299 16.3409 538.473 16.0682 537.375 16.0682C536.231 16.0682 535.33 16.322 534.67 16.8295C534.019 17.3295 533.568 17.8864 533.318 18.5L530.125 17.7727C530.504 16.7121 531.057 15.8561 531.784 15.2045C532.519 14.5455 533.364 14.0682 534.318 13.7727C535.273 13.4697 536.277 13.3182 537.33 13.3182C538.027 13.3182 538.765 13.4015 539.545 13.5682C540.333 13.7273 541.068 14.0227 541.75 14.4545C542.439 14.8864 543.004 15.5038 543.443 16.3068C543.883 17.1023 544.102 18.1364 544.102 19.4091V31H540.784V28.6136H540.648C540.428 29.053 540.098 29.4848 539.659 29.9091C539.22 30.3333 538.655 30.6856 537.966 30.9659C537.277 31.2462 536.451 31.3864 535.489 31.3864ZM536.227 28.6591C537.167 28.6591 537.97 28.4735 538.636 28.1023C539.311 27.7311 539.822 27.2462 540.17 26.6477C540.527 26.0417 540.705 25.3939 540.705 24.7045V22.4545C540.583 22.5758 540.348 22.6894 540 22.7955C539.659 22.8939 539.269 22.9811 538.83 23.0568C538.39 23.125 537.962 23.1894 537.545 23.25C537.129 23.303 536.78 23.3485 536.5 23.3864C535.841 23.4697 535.239 23.6098 534.693 23.8068C534.155 24.0038 533.723 24.2879 533.398 24.6591C533.08 25.0227 532.92 25.5076 532.92 26.1136C532.92 26.9545 533.231 27.5909 533.852 28.0227C534.473 28.447 535.265 28.6591 536.227 28.6591ZM556.776 13.5455V16.2727H547.241V13.5455H556.776ZM549.798 9.36364H553.196V25.875C553.196 26.5341 553.295 27.0303 553.491 27.3636C553.688 27.6894 553.942 27.9129 554.253 28.0341C554.571 28.1477 554.916 28.2045 555.287 28.2045C555.56 28.2045 555.798 28.1856 556.003 28.1477C556.207 28.1098 556.366 28.0795 556.48 28.0568L557.094 30.8636C556.897 30.9394 556.616 31.0152 556.253 31.0909C555.889 31.1742 555.435 31.2197 554.889 31.2273C553.995 31.2424 553.162 31.0833 552.389 30.75C551.616 30.4167 550.991 29.9015 550.514 29.2045C550.037 28.5076 549.798 27.6326 549.798 26.5795V9.36364ZM560.534 31V13.5455H563.932V31H560.534ZM562.25 10.8523C561.659 10.8523 561.152 10.6553 560.727 10.2614C560.311 9.85985 560.102 9.38257 560.102 8.82954C560.102 8.26894 560.311 7.79167 560.727 7.39773C561.152 6.99621 561.659 6.79545 562.25 6.79545C562.841 6.79545 563.345 6.99621 563.761 7.39773C564.186 7.79167 564.398 8.26894 564.398 8.82954C564.398 9.38257 564.186 9.85985 563.761 10.2614C563.345 10.6553 562.841 10.8523 562.25 10.8523ZM575.855 31.3523C574.219 31.3523 572.791 30.9773 571.571 30.2273C570.351 29.4773 569.404 28.428 568.73 27.0795C568.056 25.7311 567.719 24.1553 567.719 22.3523C567.719 20.5417 568.056 18.9583 568.73 17.6023C569.404 16.2462 570.351 15.1932 571.571 14.4432C572.791 13.6932 574.219 13.3182 575.855 13.3182C577.491 13.3182 578.92 13.6932 580.139 14.4432C581.359 15.1932 582.306 16.2462 582.98 17.6023C583.654 18.9583 583.991 20.5417 583.991 22.3523C583.991 24.1553 583.654 25.7311 582.98 27.0795C582.306 28.428 581.359 29.4773 580.139 30.2273C578.92 30.9773 577.491 31.3523 575.855 31.3523ZM575.866 28.5C576.927 28.5 577.806 28.2197 578.503 27.6591C579.2 27.0985 579.715 26.3523 580.048 25.4205C580.389 24.4886 580.56 23.4621 580.56 22.3409C580.56 21.2273 580.389 20.2045 580.048 19.2727C579.715 18.3333 579.2 17.5795 578.503 17.0114C577.806 16.4432 576.927 16.1591 575.866 16.1591C574.798 16.1591 573.912 16.4432 573.207 17.0114C572.51 17.5795 571.991 18.3333 571.651 19.2727C571.317 20.2045 571.151 21.2273 571.151 22.3409C571.151 23.4621 571.317 24.4886 571.651 25.4205C571.991 26.3523 572.51 27.0985 573.207 27.6591C573.912 28.2197 574.798 28.5 575.866 28.5ZM591.182 20.6364V31H587.784V13.5455H591.045V16.3864H591.261C591.663 15.4621 592.292 14.7197 593.148 14.1591C594.011 13.5985 595.098 13.3182 596.409 13.3182C597.598 13.3182 598.64 13.5682 599.534 14.0682C600.428 14.5606 601.121 15.2955 601.614 16.2727C602.106 17.25 602.352 18.4583 602.352 19.8977V31H598.955V20.3068C598.955 19.0417 598.625 18.053 597.966 17.3409C597.307 16.6212 596.402 16.2614 595.25 16.2614C594.462 16.2614 593.761 16.4318 593.148 16.7727C592.542 17.1136 592.061 17.6136 591.705 18.2727C591.356 18.9242 591.182 19.7121 591.182 20.6364Z" fill="#BA1E71"/>
<line x1="94.5" y1="20" x2="94.5" y2="335" stroke="#BA1E71"/>
</svg>
