<svg width="646" height="627" viewBox="0 0 646 627" fill="none" xmlns="http://www.w3.org/2000/svg">
<path d="M368 335L314 379.167V290.833L368 335Z" fill="#4CC9F0"/>
<path fill-rule="evenodd" clip-rule="evenodd" d="M0.204591 379L54 335L0.204591 291H314V379H0.204591ZM4.80711e-05 379L4.95911e-05 291H4.80711e-05V379Z" fill="#4CC9F0"/>
<path d="M146.011 349V346.443L155.614 335.932C156.741 334.701 157.669 333.631 158.398 332.722C159.127 331.803 159.667 330.941 160.017 330.136C160.377 329.322 160.557 328.47 160.557 327.58C160.557 326.557 160.311 325.671 159.818 324.923C159.335 324.175 158.672 323.598 157.83 323.19C156.987 322.783 156.04 322.58 154.989 322.58C153.871 322.58 152.896 322.812 152.062 323.276C151.239 323.73 150.599 324.369 150.145 325.193C149.7 326.017 149.477 326.983 149.477 328.091H146.125C146.125 326.386 146.518 324.89 147.304 323.602C148.09 322.314 149.16 321.311 150.514 320.591C151.878 319.871 153.407 319.511 155.102 319.511C156.807 319.511 158.317 319.871 159.634 320.591C160.95 321.311 161.982 322.281 162.73 323.503C163.478 324.724 163.852 326.083 163.852 327.58C163.852 328.65 163.658 329.696 163.27 330.719C162.891 331.732 162.228 332.864 161.281 334.114C160.344 335.354 159.042 336.869 157.375 338.659L150.841 345.648V345.875H164.364V349H146.011ZM179.719 349.398C177.579 349.398 175.756 348.815 174.25 347.651C172.744 346.476 171.594 344.777 170.798 342.551C170.003 340.316 169.605 337.617 169.605 334.455C169.605 331.311 170.003 328.626 170.798 326.401C171.603 324.166 172.759 322.461 174.264 321.287C175.779 320.103 177.598 319.511 179.719 319.511C181.84 319.511 183.653 320.103 185.159 321.287C186.674 322.461 187.83 324.166 188.625 326.401C189.43 328.626 189.832 331.311 189.832 334.455C189.832 337.617 189.435 340.316 188.639 342.551C187.844 344.777 186.693 346.476 185.188 347.651C183.682 348.815 181.859 349.398 179.719 349.398ZM179.719 346.273C181.84 346.273 183.488 345.25 184.662 343.205C185.836 341.159 186.423 338.242 186.423 334.455C186.423 331.936 186.153 329.791 185.614 328.02C185.083 326.249 184.316 324.9 183.312 323.972C182.318 323.044 181.12 322.58 179.719 322.58C177.616 322.58 175.973 323.616 174.79 325.69C173.606 327.755 173.014 330.676 173.014 334.455C173.014 336.973 173.279 339.114 173.81 340.875C174.34 342.636 175.102 343.976 176.097 344.895C177.1 345.813 178.308 346.273 179.719 346.273ZM195.23 349V346.443L204.832 335.932C205.959 334.701 206.887 333.631 207.616 332.722C208.346 331.803 208.885 330.941 209.236 330.136C209.596 329.322 209.776 328.47 209.776 327.58C209.776 326.557 209.529 325.671 209.037 324.923C208.554 324.175 207.891 323.598 207.048 323.19C206.205 322.783 205.259 322.58 204.207 322.58C203.09 322.58 202.115 322.812 201.281 323.276C200.457 323.73 199.818 324.369 199.364 325.193C198.919 326.017 198.696 326.983 198.696 328.091H195.344C195.344 326.386 195.737 324.89 196.523 323.602C197.309 322.314 198.379 321.311 199.733 320.591C201.097 319.871 202.626 319.511 204.321 319.511C206.026 319.511 207.536 319.871 208.852 320.591C210.169 321.311 211.201 322.281 211.949 323.503C212.697 324.724 213.071 326.083 213.071 327.58C213.071 328.65 212.877 329.696 212.489 330.719C212.11 331.732 211.447 332.864 210.5 334.114C209.562 335.354 208.26 336.869 206.594 338.659L200.06 345.648V345.875H213.582V349H195.23ZM228.54 349.398C226.873 349.398 225.372 349.066 224.037 348.403C222.702 347.741 221.632 346.831 220.827 345.676C220.022 344.521 219.581 343.205 219.506 341.727H222.915C223.047 343.044 223.644 344.133 224.705 344.994C225.775 345.847 227.053 346.273 228.54 346.273C229.733 346.273 230.794 345.993 231.722 345.435C232.659 344.876 233.393 344.109 233.923 343.134C234.463 342.149 234.733 341.036 234.733 339.795C234.733 338.527 234.454 337.395 233.895 336.401C233.346 335.397 232.588 334.606 231.622 334.028C230.656 333.451 229.553 333.157 228.312 333.148C227.422 333.138 226.509 333.276 225.571 333.56C224.634 333.834 223.862 334.189 223.256 334.625L219.96 334.227L221.722 319.909H236.835V323.034H224.676L223.653 331.614H223.824C224.42 331.14 225.169 330.747 226.068 330.435C226.968 330.122 227.905 329.966 228.881 329.966C230.661 329.966 232.247 330.392 233.639 331.244C235.041 332.087 236.139 333.242 236.935 334.71C237.74 336.178 238.142 337.854 238.142 339.739C238.142 341.595 237.725 343.252 236.892 344.71C236.068 346.159 234.932 347.305 233.483 348.148C232.034 348.981 230.386 349.398 228.54 349.398ZM266.114 339.909H269.978L273.217 344.17L274.069 345.307L278.898 351.727H275.035L271.853 347.466L271.058 346.386L266.114 339.909ZM280.092 334.455C280.092 337.523 279.538 340.174 278.43 342.409C277.322 344.644 275.802 346.367 273.87 347.58C271.938 348.792 269.732 349.398 267.251 349.398C264.77 349.398 262.563 348.792 260.631 347.58C258.7 346.367 257.18 344.644 256.072 342.409C254.964 340.174 254.41 337.523 254.41 334.455C254.41 331.386 254.964 328.735 256.072 326.5C257.18 324.265 258.7 322.542 260.631 321.33C262.563 320.117 264.77 319.511 267.251 319.511C269.732 319.511 271.938 320.117 273.87 321.33C275.802 322.542 277.322 324.265 278.43 326.5C279.538 328.735 280.092 331.386 280.092 334.455ZM276.683 334.455C276.683 331.936 276.261 329.81 275.418 328.077C274.585 326.344 273.453 325.032 272.023 324.142C270.603 323.252 269.012 322.807 267.251 322.807C265.489 322.807 263.894 323.252 262.464 324.142C261.043 325.032 259.912 326.344 259.069 328.077C258.236 329.81 257.819 331.936 257.819 334.455C257.819 336.973 258.236 339.099 259.069 340.832C259.912 342.565 261.043 343.877 262.464 344.767C263.894 345.657 265.489 346.102 267.251 346.102C269.012 346.102 270.603 345.657 272.023 344.767C273.453 343.877 274.585 342.565 275.418 340.832C276.261 339.099 276.683 336.973 276.683 334.455ZM295.731 319.909V349H292.208V323.602H292.038L284.935 328.318V324.739L292.208 319.909H295.731Z" fill="black"/>
<circle cx="92.5" cy="334.5" r="8.5" fill="#D9D9D9"/>
<path d="M93.2158 29.152C92.1705 29.152 91.1998 28.9067 90.3038 28.416C89.4078 27.904 88.6932 27.2107 88.1598 26.336C87.6265 25.4613 87.3598 24.4907 87.3598 23.424C87.3598 22.4427 87.6052 21.5147 88.0958 20.64C88.6078 19.7653 89.3012 19.0613 90.1758 18.528C91.0718 17.9733 92.0852 17.696 93.2158 17.696C94.2612 17.696 95.2212 17.952 96.0958 18.464C96.9705 18.9547 97.6745 19.6267 98.2078 20.48C98.7625 21.3333 99.0398 22.3147 99.0398 23.424C99.0398 24.4693 98.7732 25.4293 98.2398 26.304C97.7278 27.1787 97.0238 27.872 96.1278 28.384C95.2532 28.896 94.2825 29.152 93.2158 29.152ZM119.957 32V9.44H134.229V11.872H122.933V19.424H133.493V21.856H122.933V32H119.957ZM143.083 32.288C141.142 32.288 139.681 31.7653 138.699 30.72C137.739 29.6747 137.259 28.064 137.259 25.888V15.904H140.171V25.824C140.171 27.232 140.459 28.2667 141.035 28.928C141.611 29.5893 142.507 29.92 143.723 29.92C145.046 29.92 146.113 29.4827 146.923 28.608C147.755 27.712 148.171 26.528 148.171 25.056V15.904H151.083V32H148.267V28.448H148.683C148.235 29.664 147.521 30.6133 146.539 31.296C145.558 31.9573 144.406 32.288 143.083 32.288ZM161.996 32.288C160.311 32.288 159.031 31.8293 158.156 30.912C157.303 29.9733 156.876 28.5653 156.876 26.688V18.144H153.74V15.904H156.876V11.584L159.788 10.784V15.904H164.332V18.144H159.788V26.432C159.788 27.6693 160.002 28.5547 160.428 29.088C160.876 29.6 161.516 29.856 162.348 29.856C162.775 29.856 163.138 29.824 163.436 29.76C163.756 29.6747 164.044 29.5787 164.3 29.472V31.872C163.98 32 163.607 32.096 163.18 32.16C162.775 32.2453 162.38 32.288 161.996 32.288ZM173.115 32.288C171.173 32.288 169.712 31.7653 168.731 30.72C167.771 29.6747 167.291 28.064 167.291 25.888V15.904H170.203V25.824C170.203 27.232 170.491 28.2667 171.067 28.928C171.643 29.5893 172.539 29.92 173.755 29.92C175.077 29.92 176.144 29.4827 176.955 28.608C177.787 27.712 178.203 26.528 178.203 25.056V15.904H181.115V32H178.299V28.448H178.715C178.267 29.664 177.552 30.6133 176.571 31.296C175.589 31.9573 174.437 32.288 173.115 32.288ZM185.98 32V19.84C185.98 19.2 185.958 18.5493 185.916 17.888C185.894 17.2053 185.841 16.544 185.756 15.904H188.572L188.924 19.936L188.444 19.968C188.657 18.9867 189.02 18.176 189.532 17.536C190.065 16.8747 190.694 16.3947 191.42 16.096C192.166 15.776 192.934 15.616 193.724 15.616C194.065 15.616 194.353 15.6267 194.588 15.648C194.822 15.6693 195.057 15.7227 195.292 15.808L195.228 18.4C194.908 18.272 194.609 18.1973 194.332 18.176C194.076 18.1333 193.756 18.112 193.372 18.112C192.433 18.112 191.622 18.3253 190.94 18.752C190.278 19.1787 189.766 19.744 189.404 20.448C189.062 21.152 188.892 21.9093 188.892 22.72V32H185.98ZM204.965 32.288C202.405 32.288 200.378 31.552 198.885 30.08C197.413 28.608 196.677 26.5813 196.677 24C196.677 22.2933 196.997 20.8213 197.637 19.584C198.298 18.3253 199.205 17.3547 200.357 16.672C201.509 15.968 202.853 15.616 204.389 15.616C205.861 15.616 207.109 15.936 208.133 16.576C209.157 17.1947 209.935 18.08 210.469 19.232C211.002 20.384 211.269 21.7493 211.269 23.328V24.288H198.949V22.56H209.285L208.741 22.976C208.741 21.312 208.367 20.0213 207.621 19.104C206.895 18.1867 205.818 17.728 204.389 17.728C202.831 17.728 201.626 18.272 200.773 19.36C199.919 20.4267 199.493 21.888 199.493 23.744V24.032C199.493 25.9947 199.973 27.4773 200.933 28.48C201.914 29.4827 203.269 29.984 204.997 29.984C205.957 29.984 206.853 29.8453 207.685 29.568C208.517 29.2907 209.317 28.832 210.085 28.192L211.045 30.208C210.319 30.8693 209.413 31.3813 208.325 31.744C207.258 32.1067 206.138 32.288 204.965 32.288ZM223.832 32V9.44H231.48C233.997 9.44 236.12 9.87733 237.848 10.752C239.597 11.6267 240.92 12.9067 241.816 14.592C242.712 16.256 243.16 18.2933 243.16 20.704C243.16 23.1147 242.712 25.1627 241.816 26.848C240.92 28.5333 239.597 29.8133 237.848 30.688C236.12 31.5627 233.997 32 231.48 32H223.832ZM226.808 29.472H231.256C234.264 29.472 236.493 28.7467 237.944 27.296C239.394 25.8453 240.12 23.648 240.12 20.704C240.12 17.76 239.394 15.5733 237.944 14.144C236.493 12.6933 234.264 11.968 231.256 11.968H226.808V29.472ZM247.832 32V9.44H262.424V11.872H250.712V19.328H261.688V21.76H250.712V29.568H262.424V32H247.832ZM263.896 32L272.984 19.904V21.056L264.28 9.44H267.8L274.744 18.912H273.816L280.664 9.44H284.216L275.512 21.056V19.904L284.6 32H281.048L273.688 21.952H274.808L267.416 32H263.896ZM301.365 32V11.968H293.557V9.44H312.213V11.968H304.373V32H301.365ZM319.933 32.288C317.373 32.288 315.347 31.552 313.853 30.08C312.381 28.608 311.645 26.5813 311.645 24C311.645 22.2933 311.965 20.8213 312.605 19.584C313.267 18.3253 314.173 17.3547 315.325 16.672C316.477 15.968 317.821 15.616 319.357 15.616C320.829 15.616 322.077 15.936 323.101 16.576C324.125 17.1947 324.904 18.08 325.437 19.232C325.971 20.384 326.237 21.7493 326.237 23.328V24.288H313.917V22.56H324.253L323.709 22.976C323.709 21.312 323.336 20.0213 322.589 19.104C321.864 18.1867 320.787 17.728 319.357 17.728C317.8 17.728 316.595 18.272 315.741 19.36C314.888 20.4267 314.461 21.888 314.461 23.744V24.032C314.461 25.9947 314.941 27.4773 315.901 28.48C316.883 29.4827 318.237 29.984 319.965 29.984C320.925 29.984 321.821 29.8453 322.653 29.568C323.485 29.2907 324.285 28.832 325.053 28.192L326.013 30.208C325.288 30.8693 324.381 31.3813 323.293 31.744C322.227 32.1067 321.107 32.288 319.933 32.288ZM335.483 32.288C334.182 32.288 332.966 32.1173 331.835 31.776C330.726 31.4347 329.808 30.944 329.083 30.304L330.011 28.288C330.8 28.8853 331.664 29.344 332.603 29.664C333.563 29.9627 334.544 30.112 335.547 30.112C336.763 30.112 337.68 29.888 338.299 29.44C338.939 28.992 339.259 28.3947 339.259 27.648C339.259 27.0507 339.056 26.5707 338.651 26.208C338.246 25.8453 337.606 25.5787 336.731 25.408L333.691 24.8C332.326 24.48 331.291 23.968 330.587 23.264C329.904 22.5387 329.563 21.6107 329.563 20.48C329.563 19.5413 329.819 18.7093 330.331 17.984C330.843 17.2373 331.568 16.6613 332.507 16.256C333.467 15.8293 334.587 15.616 335.867 15.616C337.04 15.616 338.128 15.7867 339.131 16.128C340.155 16.4693 340.998 16.9707 341.659 17.632L340.699 19.584C340.038 19.008 339.291 18.5707 338.459 18.272C337.648 17.952 336.816 17.792 335.963 17.792C334.726 17.792 333.808 18.0373 333.211 18.528C332.614 18.9973 332.315 19.616 332.315 20.384C332.315 20.96 332.496 21.44 332.859 21.824C333.222 22.1867 333.808 22.464 334.619 22.656L337.659 23.264C339.088 23.5627 340.166 24.0533 340.891 24.736C341.616 25.4187 341.979 26.3253 341.979 27.456C341.979 28.4587 341.702 29.3227 341.147 30.048C340.614 30.7733 339.856 31.328 338.875 31.712C337.915 32.096 336.784 32.288 335.483 32.288ZM351.809 32.288C350.124 32.288 348.844 31.8293 347.969 30.912C347.116 29.9733 346.689 28.5653 346.689 26.688V18.144H343.553V15.904H346.689V11.584L349.601 10.784V15.904H354.145V18.144H349.601V26.432C349.601 27.6693 349.814 28.5547 350.241 29.088C350.689 29.6 351.329 29.856 352.161 29.856C352.588 29.856 352.95 29.824 353.249 29.76C353.569 29.6747 353.857 29.5787 354.113 29.472V31.872C353.793 32 353.42 32.096 352.993 32.16C352.588 32.2453 352.193 32.288 351.809 32.288ZM357.199 32V19.712C357.199 19.0933 357.178 18.464 357.135 17.824C357.092 17.184 357.028 16.544 356.943 15.904H359.759L360.079 19.36H359.695C360.186 18.144 360.943 17.216 361.967 16.576C362.991 15.936 364.186 15.616 365.551 15.616C367.45 15.616 368.879 16.1387 369.839 17.184C370.799 18.208 371.279 19.808 371.279 21.984V32H368.367V22.144C368.367 20.672 368.079 19.616 367.503 18.976C366.927 18.3147 366.031 17.984 364.815 17.984C363.364 17.984 362.212 18.4213 361.359 19.296C360.527 20.1707 360.111 21.3547 360.111 22.848V32H357.199ZM383.371 32.288C380.811 32.288 378.784 31.552 377.291 30.08C375.819 28.608 375.083 26.5813 375.083 24C375.083 22.2933 375.403 20.8213 376.043 19.584C376.704 18.3253 377.611 17.3547 378.763 16.672C379.915 15.968 381.259 15.616 382.795 15.616C384.267 15.616 385.515 15.936 386.539 16.576C387.563 17.1947 388.342 18.08 388.875 19.232C389.408 20.384 389.675 21.7493 389.675 23.328V24.288H377.355V22.56H387.691L387.147 22.976C387.147 21.312 386.774 20.0213 386.027 19.104C385.302 18.1867 384.224 17.728 382.795 17.728C381.238 17.728 380.032 18.272 379.179 19.36C378.326 20.4267 377.899 21.888 377.899 23.744V24.032C377.899 25.9947 378.379 27.4773 379.339 28.48C380.32 29.4827 381.675 29.984 383.403 29.984C384.363 29.984 385.259 29.8453 386.091 29.568C386.923 29.2907 387.723 28.832 388.491 28.192L389.451 30.208C388.726 30.8693 387.819 31.3813 386.731 31.744C385.664 32.1067 384.544 32.288 383.371 32.288ZM399.465 32.288C397.78 32.288 396.5 31.8293 395.625 30.912C394.772 29.9733 394.345 28.5653 394.345 26.688V18.144H391.209V15.904H394.345V11.584L397.257 10.784V15.904H401.801V18.144H397.257V26.432C397.257 27.6693 397.47 28.5547 397.897 29.088C398.345 29.6 398.985 29.856 399.817 29.856C400.244 29.856 400.606 29.824 400.905 29.76C401.225 29.6747 401.513 29.5787 401.769 29.472V31.872C401.449 32 401.076 32.096 400.649 32.16C400.244 32.2453 399.849 32.288 399.465 32.288ZM93.2158 69.152C92.1705 69.152 91.1998 68.9067 90.3038 68.416C89.4078 67.904 88.6932 67.2107 88.1598 66.336C87.6265 65.4613 87.3598 64.4907 87.3598 63.424C87.3598 62.4427 87.6052 61.5147 88.0958 60.64C88.6078 59.7653 89.3012 59.0613 90.1758 58.528C91.0718 57.9733 92.0852 57.696 93.2158 57.696C94.2612 57.696 95.2212 57.952 96.0958 58.464C96.9705 58.9547 97.6745 59.6267 98.2078 60.48C98.7625 61.3333 99.0398 62.3147 99.0398 63.424C99.0398 64.4693 98.7732 65.4293 98.2398 66.304C97.7278 67.1787 97.0238 67.872 96.1278 68.384C95.2532 68.896 94.2825 69.152 93.2158 69.152ZM119.125 60.704C119.125 58.336 119.541 56.288 120.373 54.56C121.205 52.832 122.399 51.4987 123.957 50.56C125.535 49.6213 127.413 49.152 129.589 49.152C131.743 49.152 133.599 49.6213 135.157 50.56C136.735 51.4987 137.951 52.832 138.805 54.56C139.658 56.288 140.085 58.3253 140.085 60.672C140.085 63.04 139.658 65.0987 138.805 66.848C137.951 68.576 136.735 69.92 135.157 70.88C133.599 71.8187 131.743 72.288 129.589 72.288C127.413 72.288 125.546 71.8187 123.989 70.88C122.431 69.92 121.226 68.576 120.373 66.848C119.541 65.0987 119.125 63.0507 119.125 60.704ZM122.261 60.704C122.261 63.52 122.879 65.7173 124.117 67.296C125.354 68.8747 127.178 69.664 129.589 69.664C131.914 69.664 133.717 68.8853 134.997 67.328C136.298 65.7493 136.949 63.5413 136.949 60.704C136.949 57.8667 136.309 55.6693 135.029 54.112C133.749 52.5547 131.935 51.776 129.589 51.776C127.178 51.776 125.354 52.5547 124.117 54.112C122.879 55.6693 122.261 57.8667 122.261 60.704ZM144.48 78.912V59.712C144.48 59.0933 144.459 58.464 144.416 57.824C144.374 57.184 144.31 56.544 144.224 55.904H147.04L147.392 59.616H147.04C147.36 58.3787 148.043 57.408 149.088 56.704C150.134 55.9787 151.382 55.616 152.832 55.616C154.262 55.616 155.51 55.9467 156.576 56.608C157.643 57.2693 158.464 58.2293 159.04 59.488C159.638 60.7253 159.936 62.208 159.936 63.936C159.936 65.664 159.638 67.1573 159.04 68.416C158.464 69.6747 157.643 70.6347 156.576 71.296C155.51 71.9573 154.262 72.288 152.832 72.288C151.403 72.288 150.166 71.936 149.12 71.232C148.096 70.5067 147.403 69.536 147.04 68.32H147.392V78.912H144.48ZM152.16 69.984C153.632 69.984 154.806 69.472 155.68 68.448C156.555 67.424 156.992 65.92 156.992 63.936C156.992 61.952 156.555 60.4587 155.68 59.456C154.806 58.4533 153.632 57.952 152.16 57.952C150.688 57.952 149.515 58.4533 148.64 59.456C147.787 60.4587 147.36 61.952 147.36 63.936C147.36 65.92 147.787 67.424 148.64 68.448C149.515 69.472 150.688 69.984 152.16 69.984ZM169.715 72.288C168.03 72.288 166.75 71.8293 165.875 70.912C165.022 69.9733 164.595 68.5653 164.595 66.688V58.144H161.459V55.904H164.595V51.584L167.507 50.784V55.904H172.051V58.144H167.507V66.432C167.507 67.6693 167.72 68.5547 168.147 69.088C168.595 69.6 169.235 69.856 170.067 69.856C170.494 69.856 170.856 69.824 171.155 69.76C171.475 69.6747 171.763 69.5787 172.019 69.472V71.872C171.699 72 171.326 72.096 170.899 72.16C170.494 72.2453 170.099 72.288 169.715 72.288ZM175.105 72V55.904H178.017V72H175.105ZM174.849 52.384V49.248H178.305V52.384H174.849ZM189.671 72.288C188.092 72.288 186.727 71.9573 185.575 71.296C184.423 70.6133 183.527 69.6533 182.887 68.416C182.247 67.1573 181.927 65.664 181.927 63.936C181.927 62.2293 182.247 60.7573 182.887 59.52C183.527 58.2613 184.423 57.3013 185.575 56.64C186.727 55.9573 188.092 55.616 189.671 55.616C191.249 55.616 192.615 55.9573 193.767 56.64C194.94 57.3013 195.836 58.2613 196.455 59.52C197.095 60.7573 197.415 62.2293 197.415 63.936C197.415 65.664 197.095 67.1573 196.455 68.416C195.836 69.6533 194.94 70.6133 193.767 71.296C192.615 71.9573 191.249 72.288 189.671 72.288ZM189.671 69.984C191.121 69.984 192.284 69.472 193.159 68.448C194.033 67.424 194.471 65.92 194.471 63.936C194.471 61.952 194.033 60.4587 193.159 59.456C192.284 58.4533 191.121 57.952 189.671 57.952C188.199 57.952 187.025 58.4533 186.151 59.456C185.297 60.4587 184.871 61.952 184.871 63.936C184.871 65.92 185.297 67.424 186.151 68.448C187.025 69.472 188.199 69.984 189.671 69.984ZM201.324 72V59.712C201.324 59.0933 201.303 58.464 201.26 57.824C201.217 57.184 201.153 56.544 201.068 55.904H203.884L204.204 59.36H203.82C204.311 58.144 205.068 57.216 206.092 56.576C207.116 55.936 208.311 55.616 209.676 55.616C211.575 55.616 213.004 56.1387 213.964 57.184C214.924 58.208 215.404 59.808 215.404 61.984V72H212.492V62.144C212.492 60.672 212.204 59.616 211.628 58.976C211.052 58.3147 210.156 57.984 208.94 57.984C207.489 57.984 206.337 58.4213 205.484 59.296C204.652 60.1707 204.236 61.3547 204.236 62.848V72H201.324ZM225.608 72.288C224.307 72.288 223.091 72.1173 221.96 71.776C220.851 71.4347 219.933 70.944 219.208 70.304L220.136 68.288C220.925 68.8853 221.789 69.344 222.728 69.664C223.688 69.9627 224.669 70.112 225.672 70.112C226.888 70.112 227.805 69.888 228.424 69.44C229.064 68.992 229.384 68.3947 229.384 67.648C229.384 67.0507 229.181 66.5707 228.776 66.208C228.371 65.8453 227.731 65.5787 226.856 65.408L223.816 64.8C222.451 64.48 221.416 63.968 220.712 63.264C220.029 62.5387 219.688 61.6107 219.688 60.48C219.688 59.5413 219.944 58.7093 220.456 57.984C220.968 57.2373 221.693 56.6613 222.632 56.256C223.592 55.8293 224.712 55.616 225.992 55.616C227.165 55.616 228.253 55.7867 229.256 56.128C230.28 56.4693 231.123 56.9707 231.784 57.632L230.824 59.584C230.163 59.008 229.416 58.5707 228.584 58.272C227.773 57.952 226.941 57.792 226.088 57.792C224.851 57.792 223.933 58.0373 223.336 58.528C222.739 58.9973 222.44 59.616 222.44 60.384C222.44 60.96 222.621 61.44 222.984 61.824C223.347 62.1867 223.933 62.464 224.744 62.656L227.784 63.264C229.213 63.5627 230.291 64.0533 231.016 64.736C231.741 65.4187 232.104 66.3253 232.104 67.456C232.104 68.4587 231.827 69.3227 231.272 70.048C230.739 70.7733 229.981 71.328 229 71.712C228.04 72.096 226.909 72.288 225.608 72.288ZM244.832 72V49.44H252.48C254.997 49.44 257.12 49.8773 258.848 50.752C260.597 51.6267 261.92 52.9067 262.816 54.592C263.712 56.256 264.16 58.2933 264.16 60.704C264.16 63.1147 263.712 65.1627 262.816 66.848C261.92 68.5333 260.597 69.8133 258.848 70.688C257.12 71.5627 254.997 72 252.48 72H244.832ZM247.808 69.472H252.256C255.264 69.472 257.493 68.7467 258.944 67.296C260.394 65.8453 261.12 63.648 261.12 60.704C261.12 57.76 260.394 55.5733 258.944 54.144C257.493 52.6933 255.264 51.968 252.256 51.968H247.808V69.472ZM275.84 72.288C273.28 72.288 271.253 71.552 269.76 70.08C268.288 68.608 267.552 66.5813 267.552 64C267.552 62.2933 267.872 60.8213 268.512 59.584C269.173 58.3253 270.08 57.3547 271.232 56.672C272.384 55.968 273.728 55.616 275.264 55.616C276.736 55.616 277.984 55.936 279.008 56.576C280.032 57.1947 280.81 58.08 281.344 59.232C281.877 60.384 282.144 61.7493 282.144 63.328V64.288H269.824V62.56H280.16L279.616 62.976C279.616 61.312 279.242 60.0213 278.496 59.104C277.77 58.1867 276.693 57.728 275.264 57.728C273.706 57.728 272.501 58.272 271.648 59.36C270.794 60.4267 270.368 61.888 270.368 63.744V64.032C270.368 65.9947 270.848 67.4773 271.808 68.48C272.789 69.4827 274.144 69.984 275.872 69.984C276.832 69.984 277.728 69.8453 278.56 69.568C279.392 69.2907 280.192 68.832 280.96 68.192L281.92 70.208C281.194 70.8693 280.288 71.3813 279.2 71.744C278.133 72.1067 277.013 72.288 275.84 72.288ZM283.584 72L290.88 62.976V64.416L284 55.904H287.488L292.512 62.336H291.456L296.48 55.904H299.936L293.152 64.352V63.04L300.352 72H296.832L291.456 65.12H292.512L287.072 72H283.584ZM317.208 72V51.968H309.4V49.44H328.056V51.968H320.216V72H317.208ZM335.777 72.288C333.217 72.288 331.19 71.552 329.697 70.08C328.225 68.608 327.489 66.5813 327.489 64C327.489 62.2933 327.809 60.8213 328.449 59.584C329.11 58.3253 330.017 57.3547 331.169 56.672C332.321 55.968 333.665 55.616 335.201 55.616C336.673 55.616 337.921 55.936 338.945 56.576C339.969 57.1947 340.748 58.08 341.281 59.232C341.814 60.384 342.081 61.7493 342.081 63.328V64.288H329.761V62.56H340.097L339.553 62.976C339.553 61.312 339.18 60.0213 338.433 59.104C337.708 58.1867 336.63 57.728 335.201 57.728C333.644 57.728 332.438 58.272 331.585 59.36C330.732 60.4267 330.305 61.888 330.305 63.744V64.032C330.305 65.9947 330.785 67.4773 331.745 68.48C332.726 69.4827 334.081 69.984 335.809 69.984C336.769 69.984 337.665 69.8453 338.497 69.568C339.329 69.2907 340.129 68.832 340.897 68.192L341.857 70.208C341.132 70.8693 340.225 71.3813 339.137 71.744C338.07 72.1067 336.95 72.288 335.777 72.288ZM351.327 72.288C350.025 72.288 348.809 72.1173 347.679 71.776C346.569 71.4347 345.652 70.944 344.927 70.304L345.855 68.288C346.644 68.8853 347.508 69.344 348.447 69.664C349.407 69.9627 350.388 70.112 351.391 70.112C352.607 70.112 353.524 69.888 354.143 69.44C354.783 68.992 355.103 68.3947 355.103 67.648C355.103 67.0507 354.9 66.5707 354.495 66.208C354.089 65.8453 353.449 65.5787 352.575 65.408L349.535 64.8C348.169 64.48 347.135 63.968 346.431 63.264C345.748 62.5387 345.407 61.6107 345.407 60.48C345.407 59.5413 345.663 58.7093 346.175 57.984C346.687 57.2373 347.412 56.6613 348.351 56.256C349.311 55.8293 350.431 55.616 351.711 55.616C352.884 55.616 353.972 55.7867 354.975 56.128C355.999 56.4693 356.841 56.9707 357.503 57.632L356.543 59.584C355.881 59.008 355.135 58.5707 354.303 58.272C353.492 57.952 352.66 57.792 351.807 57.792C350.569 57.792 349.652 58.0373 349.055 58.528C348.457 58.9973 348.159 59.616 348.159 60.384C348.159 60.96 348.34 61.44 348.703 61.824C349.065 62.1867 349.652 62.464 350.463 62.656L353.503 63.264C354.932 63.5627 356.009 64.0533 356.735 64.736C357.46 65.4187 357.823 66.3253 357.823 67.456C357.823 68.4587 357.545 69.3227 356.991 70.048C356.457 70.7733 355.7 71.328 354.719 71.712C353.759 72.096 352.628 72.288 351.327 72.288ZM367.653 72.288C365.967 72.288 364.687 71.8293 363.813 70.912C362.959 69.9733 362.533 68.5653 362.533 66.688V58.144H359.397V55.904H362.533V51.584L365.445 50.784V55.904H369.989V58.144H365.445V66.432C365.445 67.6693 365.658 68.5547 366.085 69.088C366.533 69.6 367.173 69.856 368.005 69.856C368.431 69.856 368.794 69.824 369.093 69.76C369.413 69.6747 369.701 69.5787 369.957 69.472V71.872C369.637 72 369.263 72.096 368.837 72.16C368.431 72.2453 368.037 72.288 367.653 72.288ZM373.043 72V59.712C373.043 59.0933 373.022 58.464 372.979 57.824C372.936 57.184 372.872 56.544 372.787 55.904H375.603L375.923 59.36H375.539C376.03 58.144 376.787 57.216 377.811 56.576C378.835 55.936 380.03 55.616 381.395 55.616C383.294 55.616 384.723 56.1387 385.683 57.184C386.643 58.208 387.123 59.808 387.123 61.984V72H384.211V62.144C384.211 60.672 383.923 59.616 383.347 58.976C382.771 58.3147 381.875 57.984 380.659 57.984C379.208 57.984 378.056 58.4213 377.203 59.296C376.371 60.1707 375.955 61.3547 375.955 62.848V72H373.043ZM399.215 72.288C396.655 72.288 394.628 71.552 393.135 70.08C391.663 68.608 390.927 66.5813 390.927 64C390.927 62.2933 391.247 60.8213 391.887 59.584C392.548 58.3253 393.455 57.3547 394.607 56.672C395.759 55.968 397.103 55.616 398.639 55.616C400.111 55.616 401.359 55.936 402.383 56.576C403.407 57.1947 404.185 58.08 404.719 59.232C405.252 60.384 405.519 61.7493 405.519 63.328V64.288H393.199V62.56H403.535L402.991 62.976C402.991 61.312 402.617 60.0213 401.871 59.104C401.145 58.1867 400.068 57.728 398.639 57.728C397.081 57.728 395.876 58.272 395.023 59.36C394.169 60.4267 393.743 61.888 393.743 63.744V64.032C393.743 65.9947 394.223 67.4773 395.183 68.48C396.164 69.4827 397.519 69.984 399.247 69.984C400.207 69.984 401.103 69.8453 401.935 69.568C402.767 69.2907 403.567 68.832 404.335 68.192L405.295 70.208C404.569 70.8693 403.663 71.3813 402.575 71.744C401.508 72.1067 400.388 72.288 399.215 72.288ZM415.309 72.288C413.624 72.288 412.344 71.8293 411.469 70.912C410.616 69.9733 410.189 68.5653 410.189 66.688V58.144H407.053V55.904H410.189V51.584L413.101 50.784V55.904H417.645V58.144H413.101V66.432C413.101 67.6693 413.314 68.5547 413.741 69.088C414.189 69.6 414.829 69.856 415.661 69.856C416.088 69.856 416.45 69.824 416.749 69.76C417.069 69.6747 417.357 69.5787 417.613 69.472V71.872C417.293 72 416.92 72.096 416.493 72.16C416.088 72.2453 415.693 72.288 415.309 72.288ZM93.2158 109.152C92.1705 109.152 91.1998 108.907 90.3038 108.416C89.4078 107.904 88.6932 107.211 88.1598 106.336C87.6265 105.461 87.3598 104.491 87.3598 103.424C87.3598 102.443 87.6052 101.515 88.0958 100.64C88.6078 99.7653 89.3012 99.0613 90.1758 98.528C91.0718 97.9733 92.0852 97.696 93.2158 97.696C94.2612 97.696 95.2212 97.952 96.0958 98.464C96.9705 98.9547 97.6745 99.6267 98.2078 100.48C98.7625 101.333 99.0398 102.315 99.0398 103.424C99.0398 104.469 98.7732 105.429 98.2398 106.304C97.7278 107.179 97.0238 107.872 96.1278 108.384C95.2532 108.896 94.2825 109.152 93.2158 109.152ZM119.957 112V89.44H122.933V109.44H134.165V112H119.957ZM143.343 112.288C141.935 112.288 140.698 111.957 139.631 111.296C138.564 110.635 137.732 109.675 137.135 108.416C136.538 107.157 136.239 105.664 136.239 103.936C136.239 102.208 136.538 100.725 137.135 99.488C137.732 98.2293 138.564 97.2693 139.631 96.608C140.698 95.9467 141.935 95.616 143.343 95.616C144.772 95.616 146.01 95.9787 147.055 96.704C148.122 97.408 148.826 98.3787 149.167 99.616H148.783L149.135 95.904H151.951C151.887 96.544 151.823 97.184 151.759 97.824C151.716 98.464 151.695 99.0933 151.695 99.712V112H148.783V108.32H149.135C148.794 109.536 148.09 110.507 147.023 111.232C145.978 111.936 144.751 112.288 143.343 112.288ZM144.015 109.984C145.466 109.984 146.628 109.472 147.503 108.448C148.378 107.424 148.815 105.92 148.815 103.936C148.815 101.952 148.378 100.459 147.503 99.456C146.628 98.4533 145.466 97.952 144.015 97.952C142.564 97.952 141.391 98.4533 140.495 99.456C139.62 100.459 139.183 101.952 139.183 103.936C139.183 105.92 139.62 107.424 140.495 108.448C141.37 109.472 142.543 109.984 144.015 109.984ZM155.874 119.264L155.202 116.896C156.205 116.661 157.037 116.384 157.698 116.064C158.359 115.765 158.914 115.371 159.362 114.88C159.81 114.389 160.205 113.771 160.546 113.024L161.346 111.104L161.282 112.32L154.274 95.904H157.41L163.01 109.696H162.178L167.778 95.904H170.786L163.394 113.248C162.946 114.293 162.455 115.168 161.922 115.872C161.41 116.576 160.845 117.152 160.226 117.6C159.629 118.048 158.967 118.4 158.242 118.656C157.517 118.912 156.727 119.115 155.874 119.264ZM180.59 112.288C178.03 112.288 176.003 111.552 174.51 110.08C173.038 108.608 172.302 106.581 172.302 104C172.302 102.293 172.622 100.821 173.262 99.584C173.923 98.3253 174.83 97.3547 175.982 96.672C177.134 95.968 178.478 95.616 180.014 95.616C181.486 95.616 182.734 95.936 183.758 96.576C184.782 97.1947 185.56 98.08 186.094 99.232C186.627 100.384 186.894 101.749 186.894 103.328V104.288H174.574V102.56H184.91L184.366 102.976C184.366 101.312 183.992 100.021 183.246 99.104C182.52 98.1867 181.443 97.728 180.014 97.728C178.456 97.728 177.251 98.272 176.398 99.36C175.544 100.427 175.118 101.888 175.118 103.744V104.032C175.118 105.995 175.598 107.477 176.558 108.48C177.539 109.483 178.894 109.984 180.622 109.984C181.582 109.984 182.478 109.845 183.31 109.568C184.142 109.291 184.942 108.832 185.71 108.192L186.67 110.208C185.944 110.869 185.038 111.381 183.95 111.744C182.883 112.107 181.763 112.288 180.59 112.288ZM190.667 112V99.84C190.667 99.2 190.646 98.5493 190.603 97.888C190.582 97.2053 190.528 96.544 190.443 95.904H193.259L193.611 99.936L193.131 99.968C193.344 98.9867 193.707 98.176 194.219 97.536C194.752 96.8747 195.382 96.3947 196.107 96.096C196.854 95.776 197.622 95.616 198.411 95.616C198.752 95.616 199.04 95.6267 199.275 95.648C199.51 95.6693 199.744 95.7227 199.979 95.808L199.915 98.4C199.595 98.272 199.296 98.1973 199.019 98.176C198.763 98.1333 198.443 98.112 198.059 98.112C197.12 98.112 196.31 98.3253 195.627 98.752C194.966 99.1787 194.454 99.744 194.091 100.448C193.75 101.152 193.579 101.909 193.579 102.72V112H190.667ZM212.516 112V109.472H217.796V91.968H219.3L212.996 95.872V92.96L218.628 89.44H220.772V109.472H225.732V112H212.516ZM244.333 112V91.968H236.525V89.44H255.181V91.968H247.341V112H244.333ZM262.902 112.288C260.342 112.288 258.315 111.552 256.822 110.08C255.35 108.608 254.614 106.581 254.614 104C254.614 102.293 254.934 100.821 255.574 99.584C256.235 98.3253 257.142 97.3547 258.294 96.672C259.446 95.968 260.79 95.616 262.326 95.616C263.798 95.616 265.046 95.936 266.07 96.576C267.094 97.1947 267.873 98.08 268.406 99.232C268.939 100.384 269.206 101.749 269.206 103.328V104.288H256.886V102.56H267.222L266.678 102.976C266.678 101.312 266.305 100.021 265.558 99.104C264.833 98.1867 263.755 97.728 262.326 97.728C260.769 97.728 259.563 98.272 258.71 99.36C257.857 100.427 257.43 101.888 257.43 103.744V104.032C257.43 105.995 257.91 107.477 258.87 108.48C259.851 109.483 261.206 109.984 262.934 109.984C263.894 109.984 264.79 109.845 265.622 109.568C266.454 109.291 267.254 108.832 268.022 108.192L268.982 110.208C268.257 110.869 267.35 111.381 266.262 111.744C265.195 112.107 264.075 112.288 262.902 112.288ZM278.452 112.288C277.15 112.288 275.934 112.117 274.804 111.776C273.694 111.435 272.777 110.944 272.052 110.304L272.98 108.288C273.769 108.885 274.633 109.344 275.572 109.664C276.532 109.963 277.513 110.112 278.516 110.112C279.732 110.112 280.649 109.888 281.268 109.44C281.908 108.992 282.228 108.395 282.228 107.648C282.228 107.051 282.025 106.571 281.62 106.208C281.214 105.845 280.574 105.579 279.7 105.408L276.66 104.8C275.294 104.48 274.26 103.968 273.556 103.264C272.873 102.539 272.532 101.611 272.532 100.48C272.532 99.5413 272.788 98.7093 273.3 97.984C273.812 97.2373 274.537 96.6613 275.476 96.256C276.436 95.8293 277.556 95.616 278.836 95.616C280.009 95.616 281.097 95.7867 282.1 96.128C283.124 96.4693 283.966 96.9707 284.628 97.632L283.668 99.584C283.006 99.008 282.26 98.5707 281.428 98.272C280.617 97.952 279.785 97.792 278.932 97.792C277.694 97.792 276.777 98.0373 276.18 98.528C275.582 98.9973 275.284 99.616 275.284 100.384C275.284 100.96 275.465 101.44 275.828 101.824C276.19 102.187 276.777 102.464 277.588 102.656L280.628 103.264C282.057 103.563 283.134 104.053 283.86 104.736C284.585 105.419 284.948 106.325 284.948 107.456C284.948 108.459 284.67 109.323 284.116 110.048C283.582 110.773 282.825 111.328 281.844 111.712C280.884 112.096 279.753 112.288 278.452 112.288ZM294.778 112.288C293.092 112.288 291.812 111.829 290.938 110.912C290.084 109.973 289.658 108.565 289.658 106.688V98.144H286.522V95.904H289.658V91.584L292.57 90.784V95.904H297.114V98.144H292.57V106.432C292.57 107.669 292.783 108.555 293.21 109.088C293.658 109.6 294.298 109.856 295.13 109.856C295.556 109.856 295.919 109.824 296.218 109.76C296.538 109.675 296.826 109.579 297.082 109.472V111.872C296.762 112 296.388 112.096 295.962 112.16C295.556 112.245 295.162 112.288 294.778 112.288ZM300.168 112V99.712C300.168 99.0933 300.147 98.464 300.104 97.824C300.061 97.184 299.997 96.544 299.912 95.904H302.728L303.048 99.36H302.664C303.155 98.144 303.912 97.216 304.936 96.576C305.96 95.936 307.155 95.616 308.52 95.616C310.419 95.616 311.848 96.1387 312.808 97.184C313.768 98.208 314.248 99.808 314.248 101.984V112H311.336V102.144C311.336 100.672 311.048 99.616 310.472 98.976C309.896 98.3147 309 97.984 307.784 97.984C306.333 97.984 305.181 98.4213 304.328 99.296C303.496 100.171 303.08 101.355 303.08 102.848V112H300.168ZM326.34 112.288C323.78 112.288 321.753 111.552 320.26 110.08C318.788 108.608 318.052 106.581 318.052 104C318.052 102.293 318.372 100.821 319.012 99.584C319.673 98.3253 320.58 97.3547 321.732 96.672C322.884 95.968 324.228 95.616 325.764 95.616C327.236 95.616 328.484 95.936 329.508 96.576C330.532 97.1947 331.31 98.08 331.844 99.232C332.377 100.384 332.644 101.749 332.644 103.328V104.288H320.324V102.56H330.66L330.116 102.976C330.116 101.312 329.742 100.021 328.996 99.104C328.27 98.1867 327.193 97.728 325.764 97.728C324.206 97.728 323.001 98.272 322.148 99.36C321.294 100.427 320.868 101.888 320.868 103.744V104.032C320.868 105.995 321.348 107.477 322.308 108.48C323.289 109.483 324.644 109.984 326.372 109.984C327.332 109.984 328.228 109.845 329.06 109.568C329.892 109.291 330.692 108.832 331.46 108.192L332.42 110.208C331.694 110.869 330.788 111.381 329.7 111.744C328.633 112.107 327.513 112.288 326.34 112.288ZM342.434 112.288C340.749 112.288 339.469 111.829 338.594 110.912C337.741 109.973 337.314 108.565 337.314 106.688V98.144H334.178V95.904H337.314V91.584L340.226 90.784V95.904H344.77V98.144H340.226V106.432C340.226 107.669 340.439 108.555 340.866 109.088C341.314 109.6 341.954 109.856 342.786 109.856C343.213 109.856 343.575 109.824 343.874 109.76C344.194 109.675 344.482 109.579 344.738 109.472V111.872C344.418 112 344.045 112.096 343.618 112.16C343.213 112.245 342.818 112.288 342.434 112.288ZM356.582 112V89.44H359.558V112H356.582ZM364.699 112V99.712C364.699 99.0933 364.678 98.464 364.635 97.824C364.592 97.184 364.528 96.544 364.443 95.904H367.259L367.579 99.36H367.195C367.622 98.1653 368.304 97.248 369.243 96.608C370.182 95.9467 371.302 95.616 372.603 95.616C373.926 95.616 375.014 95.936 375.867 96.576C376.72 97.1947 377.296 98.176 377.595 99.52H377.115C377.52 98.3253 378.235 97.376 379.259 96.672C380.283 95.968 381.478 95.616 382.843 95.616C384.614 95.616 385.947 96.1387 386.843 97.184C387.739 98.208 388.187 99.808 388.187 101.984V112H385.275V102.144C385.275 100.672 385.019 99.616 384.507 98.976C383.995 98.3147 383.184 97.984 382.075 97.984C380.774 97.984 379.75 98.432 379.003 99.328C378.256 100.203 377.883 101.397 377.883 102.912V112H374.971V102.144C374.971 100.672 374.715 99.616 374.203 98.976C373.712 98.3147 372.902 97.984 371.771 97.984C370.47 97.984 369.446 98.432 368.699 99.328C367.974 100.203 367.611 101.397 367.611 102.912V112H364.699ZM392.949 118.912V99.712C392.949 99.0933 392.928 98.464 392.885 97.824C392.842 97.184 392.778 96.544 392.693 95.904H395.509L395.861 99.616H395.509C395.829 98.3787 396.512 97.408 397.557 96.704C398.602 95.9787 399.85 95.616 401.301 95.616C402.73 95.616 403.978 95.9467 405.045 96.608C406.112 97.2693 406.933 98.2293 407.509 99.488C408.106 100.725 408.405 102.208 408.405 103.936C408.405 105.664 408.106 107.157 407.509 108.416C406.933 109.675 406.112 110.635 405.045 111.296C403.978 111.957 402.73 112.288 401.301 112.288C399.872 112.288 398.634 111.936 397.589 111.232C396.565 110.507 395.872 109.536 395.509 108.32H395.861V118.912H392.949ZM400.629 109.984C402.101 109.984 403.274 109.472 404.149 108.448C405.024 107.424 405.461 105.92 405.461 103.936C405.461 101.952 405.024 100.459 404.149 99.456C403.274 98.4533 402.101 97.952 400.629 97.952C399.157 97.952 397.984 98.4533 397.109 99.456C396.256 100.459 395.829 101.952 395.829 103.936C395.829 105.92 396.256 107.424 397.109 108.448C397.984 109.472 399.157 109.984 400.629 109.984ZM412.324 112V88.448H415.236V112H412.324ZM427.433 112.288C424.873 112.288 422.847 111.552 421.353 110.08C419.881 108.608 419.145 106.581 419.145 104C419.145 102.293 419.465 100.821 420.105 99.584C420.767 98.3253 421.673 97.3547 422.825 96.672C423.977 95.968 425.321 95.616 426.857 95.616C428.329 95.616 429.577 95.936 430.601 96.576C431.625 97.1947 432.404 98.08 432.937 99.232C433.471 100.384 433.737 101.749 433.737 103.328V104.288H421.417V102.56H431.753L431.209 102.976C431.209 101.312 430.836 100.021 430.089 99.104C429.364 98.1867 428.287 97.728 426.857 97.728C425.3 97.728 424.095 98.272 423.241 99.36C422.388 100.427 421.961 101.888 421.961 103.744V104.032C421.961 105.995 422.441 107.477 423.401 108.48C424.383 109.483 425.737 109.984 427.465 109.984C428.425 109.984 429.321 109.845 430.153 109.568C430.985 109.291 431.785 108.832 432.553 108.192L433.513 110.208C432.788 110.869 431.881 111.381 430.793 111.744C429.727 112.107 428.607 112.288 427.433 112.288ZM437.543 112V99.712C437.543 99.0933 437.522 98.464 437.479 97.824C437.436 97.184 437.372 96.544 437.287 95.904H440.103L440.423 99.36H440.039C440.466 98.1653 441.148 97.248 442.087 96.608C443.026 95.9467 444.146 95.616 445.447 95.616C446.77 95.616 447.858 95.936 448.711 96.576C449.564 97.1947 450.14 98.176 450.439 99.52H449.959C450.364 98.3253 451.079 97.376 452.103 96.672C453.127 95.968 454.322 95.616 455.687 95.616C457.458 95.616 458.791 96.1387 459.687 97.184C460.583 98.208 461.031 99.808 461.031 101.984V112H458.119V102.144C458.119 100.672 457.863 99.616 457.351 98.976C456.839 98.3147 456.028 97.984 454.919 97.984C453.618 97.984 452.594 98.432 451.847 99.328C451.1 100.203 450.727 101.397 450.727 102.912V112H447.815V102.144C447.815 100.672 447.559 99.616 447.047 98.976C446.556 98.3147 445.746 97.984 444.615 97.984C443.314 97.984 442.29 98.432 441.543 99.328C440.818 100.203 440.455 101.397 440.455 102.912V112H437.543ZM471.937 112.288C470.529 112.288 469.292 111.957 468.225 111.296C467.158 110.635 466.326 109.675 465.729 108.416C465.132 107.157 464.833 105.664 464.833 103.936C464.833 102.208 465.132 100.725 465.729 99.488C466.326 98.2293 467.158 97.2693 468.225 96.608C469.292 95.9467 470.529 95.616 471.937 95.616C473.366 95.616 474.604 95.9787 475.649 96.704C476.716 97.408 477.42 98.3787 477.761 99.616H477.377L477.729 95.904H480.545C480.481 96.544 480.417 97.184 480.353 97.824C480.31 98.464 480.289 99.0933 480.289 99.712V112H477.377V108.32H477.729C477.388 109.536 476.684 110.507 475.617 111.232C474.572 111.936 473.345 112.288 471.937 112.288ZM472.609 109.984C474.06 109.984 475.222 109.472 476.097 108.448C476.972 107.424 477.409 105.92 477.409 103.936C477.409 101.952 476.972 100.459 476.097 99.456C475.222 98.4533 474.06 97.952 472.609 97.952C471.158 97.952 469.985 98.4533 469.089 99.456C468.214 100.459 467.777 101.952 467.777 103.936C467.777 105.92 468.214 107.424 469.089 108.448C469.964 109.472 471.137 109.984 472.609 109.984ZM485.168 112V99.712C485.168 99.0933 485.147 98.464 485.104 97.824C485.061 97.184 484.997 96.544 484.912 95.904H487.728L488.048 99.36H487.664C488.155 98.144 488.912 97.216 489.936 96.576C490.96 95.936 492.155 95.616 493.52 95.616C495.419 95.616 496.848 96.1387 497.808 97.184C498.768 98.208 499.248 99.808 499.248 101.984V112H496.336V102.144C496.336 100.672 496.048 99.616 495.472 98.976C494.896 98.3147 494 97.984 492.784 97.984C491.333 97.984 490.181 98.4213 489.328 99.296C488.496 100.171 488.08 101.355 488.08 102.848V112H485.168ZM510.028 112.288C508.342 112.288 507.062 111.829 506.188 110.912C505.334 109.973 504.908 108.565 504.908 106.688V98.144H501.772V95.904H504.908V91.584L507.82 90.784V95.904H512.364V98.144H507.82V106.432C507.82 107.669 508.033 108.555 508.46 109.088C508.908 109.6 509.548 109.856 510.38 109.856C510.806 109.856 511.169 109.824 511.468 109.76C511.788 109.675 512.076 109.579 512.332 109.472V111.872C512.012 112 511.638 112.096 511.212 112.16C510.806 112.245 510.412 112.288 510.028 112.288ZM521.562 112.288C520.154 112.288 518.917 111.957 517.85 111.296C516.783 110.635 515.951 109.675 515.354 108.416C514.757 107.157 514.458 105.664 514.458 103.936C514.458 102.208 514.757 100.725 515.354 99.488C515.951 98.2293 516.783 97.2693 517.85 96.608C518.917 95.9467 520.154 95.616 521.562 95.616C522.991 95.616 524.229 95.9787 525.274 96.704C526.341 97.408 527.045 98.3787 527.386 99.616H527.002L527.354 95.904H530.17C530.106 96.544 530.042 97.184 529.978 97.824C529.935 98.464 529.914 99.0933 529.914 99.712V112H527.002V108.32H527.354C527.013 109.536 526.309 110.507 525.242 111.232C524.197 111.936 522.97 112.288 521.562 112.288ZM522.234 109.984C523.685 109.984 524.847 109.472 525.722 108.448C526.597 107.424 527.034 105.92 527.034 103.936C527.034 101.952 526.597 100.459 525.722 99.456C524.847 98.4533 523.685 97.952 522.234 97.952C520.783 97.952 519.61 98.4533 518.714 99.456C517.839 100.459 517.402 101.952 517.402 103.936C517.402 105.92 517.839 107.424 518.714 108.448C519.589 109.472 520.762 109.984 522.234 109.984ZM540.809 112.288C539.124 112.288 537.844 111.829 536.969 110.912C536.116 109.973 535.689 108.565 535.689 106.688V98.144H532.553V95.904H535.689V91.584L538.601 90.784V95.904H543.145V98.144H538.601V106.432C538.601 107.669 538.814 108.555 539.241 109.088C539.689 109.6 540.329 109.856 541.161 109.856C541.588 109.856 541.95 109.824 542.249 109.76C542.569 109.675 542.857 109.579 543.113 109.472V111.872C542.793 112 542.42 112.096 541.993 112.16C541.588 112.245 541.193 112.288 540.809 112.288ZM546.199 112V95.904H549.111V112H546.199ZM545.943 92.384V89.248H549.399V92.384H545.943ZM560.764 112.288C559.186 112.288 557.82 111.957 556.668 111.296C555.516 110.613 554.62 109.653 553.98 108.416C553.34 107.157 553.02 105.664 553.02 103.936C553.02 102.229 553.34 100.757 553.98 99.52C554.62 98.2613 555.516 97.3013 556.668 96.64C557.82 95.9573 559.186 95.616 560.764 95.616C562.343 95.616 563.708 95.9573 564.86 96.64C566.034 97.3013 566.93 98.2613 567.548 99.52C568.188 100.757 568.508 102.229 568.508 103.936C568.508 105.664 568.188 107.157 567.548 108.416C566.93 109.653 566.034 110.613 564.86 111.296C563.708 111.957 562.343 112.288 560.764 112.288ZM560.764 109.984C562.215 109.984 563.378 109.472 564.252 108.448C565.127 107.424 565.564 105.92 565.564 103.936C565.564 101.952 565.127 100.459 564.252 99.456C563.378 98.4533 562.215 97.952 560.764 97.952C559.292 97.952 558.119 98.4533 557.244 99.456C556.391 100.459 555.964 101.952 555.964 103.936C555.964 105.92 556.391 107.424 557.244 108.448C558.119 109.472 559.292 109.984 560.764 109.984ZM572.418 112V99.712C572.418 99.0933 572.397 98.464 572.354 97.824C572.311 97.184 572.247 96.544 572.162 95.904H574.978L575.298 99.36H574.914C575.405 98.144 576.162 97.216 577.186 96.576C578.21 95.936 579.405 95.616 580.77 95.616C582.669 95.616 584.098 96.1387 585.058 97.184C586.018 98.208 586.498 99.808 586.498 101.984V112H583.586V102.144C583.586 100.672 583.298 99.616 582.722 98.976C582.146 98.3147 581.25 97.984 580.034 97.984C578.583 97.984 577.431 98.4213 576.578 99.296C575.746 100.171 575.33 101.355 575.33 102.848V112H572.418Z" fill="#4CC9F0"/>
<line x1="93.7046" y1="20" x2="93.7046" y2="335" stroke="#0FA9D9"/>
</svg>
