<svg width="645" height="627" viewBox="0 0 645 627" fill="none" xmlns="http://www.w3.org/2000/svg">
<path d="M368 327.731L313.97 371.899V283.564L368 327.731Z" fill="#BA1E71"/>
<path fill-rule="evenodd" clip-rule="evenodd" d="M-0.000148057 371.731L53.8252 327.731L-0.000148057 283.731H313.97V371.731H-0.000148057Z" fill="#BA1E71"/>
<path d="M128.011 342V339.443L137.614 328.932C138.741 327.701 139.669 326.631 140.398 325.722C141.127 324.803 141.667 323.941 142.017 323.136C142.377 322.322 142.557 321.47 142.557 320.58C142.557 319.557 142.311 318.671 141.818 317.923C141.335 317.175 140.672 316.598 139.83 316.19C138.987 315.783 138.04 315.58 136.989 315.58C135.871 315.58 134.896 315.812 134.062 316.276C133.239 316.73 132.599 317.369 132.145 318.193C131.7 319.017 131.477 319.983 131.477 321.091H128.125C128.125 319.386 128.518 317.89 129.304 316.602C130.09 315.314 131.16 314.311 132.514 313.591C133.878 312.871 135.407 312.511 137.102 312.511C138.807 312.511 140.317 312.871 141.634 313.591C142.95 314.311 143.982 315.281 144.73 316.503C145.478 317.724 145.852 319.083 145.852 320.58C145.852 321.65 145.658 322.696 145.27 323.719C144.891 324.732 144.228 325.864 143.281 327.114C142.344 328.354 141.042 329.869 139.375 331.659L132.841 338.648V338.875H146.364V342H128.011ZM161.719 342.398C159.579 342.398 157.756 341.815 156.25 340.651C154.744 339.476 153.594 337.777 152.798 335.551C152.003 333.316 151.605 330.617 151.605 327.455C151.605 324.311 152.003 321.626 152.798 319.401C153.603 317.166 154.759 315.461 156.264 314.287C157.779 313.103 159.598 312.511 161.719 312.511C163.84 312.511 165.653 313.103 167.159 314.287C168.674 315.461 169.83 317.166 170.625 319.401C171.43 321.626 171.832 324.311 171.832 327.455C171.832 330.617 171.435 333.316 170.639 335.551C169.844 337.777 168.693 339.476 167.188 340.651C165.682 341.815 163.859 342.398 161.719 342.398ZM161.719 339.273C163.84 339.273 165.488 338.25 166.662 336.205C167.836 334.159 168.423 331.242 168.423 327.455C168.423 324.936 168.153 322.791 167.614 321.02C167.083 319.249 166.316 317.9 165.312 316.972C164.318 316.044 163.12 315.58 161.719 315.58C159.616 315.58 157.973 316.616 156.79 318.69C155.606 320.755 155.014 323.676 155.014 327.455C155.014 329.973 155.279 332.114 155.81 333.875C156.34 335.636 157.102 336.976 158.097 337.895C159.1 338.813 160.308 339.273 161.719 339.273ZM177.23 342V339.443L186.832 328.932C187.959 327.701 188.887 326.631 189.616 325.722C190.346 324.803 190.885 323.941 191.236 323.136C191.596 322.322 191.776 321.47 191.776 320.58C191.776 319.557 191.529 318.671 191.037 317.923C190.554 317.175 189.891 316.598 189.048 316.19C188.205 315.783 187.259 315.58 186.207 315.58C185.09 315.58 184.115 315.812 183.281 316.276C182.457 316.73 181.818 317.369 181.364 318.193C180.919 319.017 180.696 319.983 180.696 321.091H177.344C177.344 319.386 177.737 317.89 178.523 316.602C179.309 315.314 180.379 314.311 181.733 313.591C183.097 312.871 184.626 312.511 186.321 312.511C188.026 312.511 189.536 312.871 190.852 313.591C192.169 314.311 193.201 315.281 193.949 316.503C194.697 317.724 195.071 319.083 195.071 320.58C195.071 321.65 194.877 322.696 194.489 323.719C194.11 324.732 193.447 325.864 192.5 327.114C191.562 328.354 190.26 329.869 188.594 331.659L182.06 338.648V338.875H195.582V342H177.23ZM200.142 336.034V333.136L212.926 312.909H215.028V317.398H213.608L203.949 332.682V332.909H221.165V336.034H200.142ZM213.835 342V335.153V333.804V312.909H217.188V342H213.835ZM248.817 332.909H252.681L255.92 337.17L256.772 338.307L261.602 344.727H257.738L254.556 340.466L253.761 339.386L248.817 332.909ZM262.795 327.455C262.795 330.523 262.241 333.174 261.133 335.409C260.025 337.644 258.505 339.367 256.573 340.58C254.641 341.792 252.435 342.398 249.954 342.398C247.473 342.398 245.266 341.792 243.335 340.58C241.403 339.367 239.883 337.644 238.775 335.409C237.667 333.174 237.113 330.523 237.113 327.455C237.113 324.386 237.667 321.735 238.775 319.5C239.883 317.265 241.403 315.542 243.335 314.33C245.266 313.117 247.473 312.511 249.954 312.511C252.435 312.511 254.641 313.117 256.573 314.33C258.505 315.542 260.025 317.265 261.133 319.5C262.241 321.735 262.795 324.386 262.795 327.455ZM259.386 327.455C259.386 324.936 258.964 322.81 258.121 321.077C257.288 319.344 256.156 318.032 254.727 317.142C253.306 316.252 251.715 315.807 249.954 315.807C248.192 315.807 246.597 316.252 245.167 317.142C243.746 318.032 242.615 319.344 241.772 321.077C240.939 322.81 240.522 324.936 240.522 327.455C240.522 329.973 240.939 332.099 241.772 333.832C242.615 335.565 243.746 336.877 245.167 337.767C246.597 338.657 248.192 339.102 249.954 339.102C251.715 339.102 253.306 338.657 254.727 337.767C256.156 336.877 257.288 335.565 258.121 333.832C258.964 332.099 259.386 329.973 259.386 327.455ZM267.525 336.034V333.136L280.309 312.909H282.411V317.398H280.991L271.332 332.682V332.909H288.548V336.034H267.525ZM281.218 342V335.153V333.804V312.909H284.57V342H281.218Z" fill="black"/>
<path d="M91.4657 323.183C91.4657 327.725 87.2278 331.407 82 331.407C76.7722 331.407 72.5343 327.725 72.5343 323.183C72.5343 318.641 76.7722 314.958 82 314.958C87.2278 314.958 91.4657 318.641 91.4657 323.183Z" fill="#D9D9D9"/>
<path d="M83.3708 427.896C82.3255 427.892 81.3561 427.643 80.4627 427.148C79.5695 426.633 78.8585 425.937 78.3298 425.06C77.8011 424.183 77.5396 423.211 77.5453 422.145C77.5505 421.163 77.8008 420.236 78.2961 419.364C78.8127 418.491 79.5098 417.79 80.3873 417.26C81.2862 416.709 82.301 416.436 83.4317 416.44C84.477 416.444 85.4356 416.704 86.3076 417.22C87.1796 417.714 87.8801 418.389 88.4089 419.244C88.959 420.1 89.2311 421.082 89.2252 422.192C89.2196 423.237 88.9479 424.196 88.4099 425.068C87.8933 425.941 87.1856 426.631 86.2869 427.14C85.4095 427.648 84.4375 427.9 83.3708 427.896ZM110.096 430.851L110.216 408.292L112.84 408.302L121.63 428.37L120.67 428.366L129.672 408.37L132.264 408.38L132.144 430.94L129.424 430.929L129.523 412.337L130.515 412.341L122.064 430.899L120.176 430.892L111.923 412.267L112.915 412.27L112.816 430.862L110.096 430.851ZM143.481 431.273C142.073 431.268 140.837 430.932 139.774 430.266C138.711 429.601 137.884 428.637 137.294 427.376C136.703 426.115 136.412 424.621 136.421 422.893C136.431 421.165 136.737 419.683 137.341 418.449C137.945 417.192 138.782 416.236 139.852 415.579C140.922 414.922 142.162 414.596 143.57 414.601C144.999 414.607 146.234 414.975 147.276 415.704C148.339 416.413 149.037 417.386 149.372 418.625L148.988 418.623L149.36 414.913L152.176 414.924C152.109 415.564 152.041 416.203 151.974 416.843C151.928 417.483 151.903 418.112 151.9 418.731L151.834 431.019L148.922 431.007L148.942 427.327L149.294 427.329C148.946 428.543 148.237 429.511 147.166 430.232C146.117 430.932 144.889 431.279 143.481 431.273ZM144.165 428.972C145.616 428.978 146.781 428.47 147.661 427.45C148.541 426.43 148.987 424.927 148.997 422.943C149.008 420.959 148.578 419.464 147.709 418.458C146.84 417.452 145.68 416.946 144.229 416.94C142.778 416.934 141.602 417.431 140.701 418.43C139.821 419.429 139.376 420.921 139.365 422.905C139.355 424.889 139.784 426.394 140.653 427.422C141.523 428.449 142.693 428.966 144.165 428.972ZM156.681 431.038L156.746 418.878C156.749 418.238 156.731 417.588 156.692 416.926C156.675 416.243 156.625 415.582 156.543 414.942L159.359 414.953L159.689 418.986L159.209 419.016C159.428 418.036 159.795 417.227 160.31 416.589C160.847 415.929 161.479 415.452 162.206 415.156C162.954 414.839 163.723 414.682 164.512 414.685C164.854 414.687 165.142 414.699 165.376 414.721C165.611 414.743 165.845 414.797 166.079 414.884L166.002 417.475C165.682 417.346 165.384 417.27 165.107 417.248C164.851 417.204 164.531 417.182 164.147 417.18C163.208 417.176 162.397 417.386 161.712 417.81C161.048 418.234 160.533 418.798 160.167 419.5C159.822 420.203 159.647 420.959 159.643 421.77L159.593 431.05L156.681 431.038ZM175.468 438.282C174.06 438.276 172.77 438.1 171.599 437.754C170.427 437.408 169.374 436.881 168.439 436.173L169.219 434.032C169.878 434.483 170.526 434.848 171.165 435.128C171.803 435.408 172.464 435.614 173.146 435.744C173.849 435.875 174.574 435.942 175.321 435.945C176.899 435.951 178.085 435.551 178.879 434.743C179.673 433.936 180.073 432.785 180.081 431.292L180.105 426.78L180.425 426.781C180.077 427.996 179.368 428.964 178.298 429.685C177.249 430.385 176.01 430.732 174.58 430.726C173.13 430.72 171.862 430.395 170.777 429.751C169.714 429.085 168.887 428.154 168.296 426.957C167.705 425.738 167.414 424.319 167.423 422.697C167.432 421.055 167.738 419.637 168.341 418.445C168.945 417.253 169.782 416.339 170.852 415.703C171.944 415.046 173.215 414.72 174.665 414.726C176.095 414.732 177.33 415.089 178.372 415.797C179.413 416.505 180.101 417.479 180.436 418.717L180.15 418.428L180.456 415.037L183.272 415.049C183.204 415.688 183.137 416.328 183.069 416.968C183.023 417.608 182.999 418.237 182.995 418.856L182.931 430.951C182.918 433.341 182.279 435.162 181.014 436.416C179.77 437.67 177.921 438.291 175.468 438.282ZM175.232 428.425C176.704 428.43 177.88 427.934 178.76 426.935C179.64 425.936 180.085 424.54 180.095 422.748C180.104 420.935 179.674 419.536 178.805 418.551C177.936 417.566 176.765 417.071 175.293 417.065C173.8 417.059 172.602 417.545 171.701 418.522C170.821 419.5 170.376 420.896 170.367 422.709C170.357 424.501 170.787 425.9 171.656 426.906C172.547 427.912 173.739 428.419 175.232 428.425ZM187.807 431.163L187.892 415.067L190.804 415.079L190.719 431.175L187.807 431.163ZM187.655 411.546L187.672 408.41L191.128 408.424L191.111 411.56L187.655 411.546ZM195.588 431.194L195.653 418.906C195.657 418.288 195.639 417.658 195.599 417.018C195.56 416.378 195.499 415.738 195.418 415.097L198.234 415.109L198.535 418.566L198.151 418.564C198.648 417.35 199.411 416.425 200.438 415.79C201.465 415.154 202.662 414.839 204.027 414.844C205.926 414.852 207.352 415.38 208.307 416.429C209.261 417.457 209.733 419.059 209.721 421.235L209.668 431.251L206.756 431.239L206.808 421.383C206.816 419.911 206.534 418.854 205.961 418.212C205.389 417.548 204.494 417.214 203.278 417.209C201.828 417.203 200.673 417.636 199.815 418.507C198.979 419.378 198.557 420.561 198.549 422.054L198.5 431.206L195.588 431.194ZM228.597 431.327L228.703 411.295L220.896 411.264L220.909 408.736L239.565 408.81L239.551 411.338L231.711 411.307L231.605 431.339L228.597 431.327ZM239.806 431.372L239.87 419.212C239.874 418.572 239.856 417.921 239.817 417.26C239.799 416.577 239.749 415.915 239.667 415.275L242.483 415.286L242.814 419.32L242.334 419.35C242.552 418.369 242.919 417.56 243.434 416.922C243.971 416.263 244.603 415.785 245.33 415.49C246.078 415.173 246.847 415.016 247.637 415.019C247.978 415.02 248.266 415.032 248.5 415.054C248.735 415.077 248.969 415.131 249.204 415.217L249.126 417.809C248.807 417.68 248.508 417.604 248.231 417.581C247.975 417.538 247.655 417.515 247.271 417.513C246.333 417.51 245.521 417.72 244.836 418.144C244.172 418.568 243.657 419.131 243.291 419.834C242.946 420.536 242.771 421.293 242.767 422.103L242.718 431.383L239.806 431.372ZM257.667 431.731C256.26 431.726 255.024 431.39 253.961 430.724C252.898 430.059 252.071 429.095 251.48 427.834C250.889 426.573 250.599 425.079 250.608 423.351C250.617 421.623 250.924 420.141 251.528 418.907C252.132 417.65 252.969 416.694 254.039 416.037C255.109 415.38 256.348 415.054 257.756 415.06C259.185 415.065 260.421 415.433 261.462 416.162C262.525 416.871 263.224 417.844 263.559 419.083L263.175 419.081L263.547 415.371L266.362 415.382C266.295 416.022 266.228 416.661 266.16 417.301C266.114 417.941 266.09 418.57 266.086 419.189L266.021 431.477L263.109 431.465L263.129 427.785L263.481 427.787C263.133 429.001 262.424 429.969 261.353 430.69C260.304 431.39 259.075 431.737 257.667 431.731ZM258.352 429.43C259.802 429.436 260.968 428.928 261.848 427.908C262.728 426.888 263.173 425.385 263.184 423.401C263.194 421.417 262.765 419.922 261.896 418.916C261.026 417.91 259.866 417.404 258.416 417.398C256.965 417.392 255.789 417.889 254.888 418.888C254.008 419.887 253.562 421.379 253.552 423.363C253.541 425.347 253.971 426.852 254.84 427.88C255.709 428.907 256.88 429.424 258.352 429.43ZM277.042 431.809C275.634 431.803 274.399 431.468 273.336 430.802C272.272 430.137 271.446 429.173 270.855 427.912C270.264 426.651 269.974 425.157 269.983 423.429C269.992 421.701 270.298 420.219 270.902 418.984C271.506 417.728 272.344 416.771 273.414 416.114C274.484 415.457 275.723 415.132 277.131 415.137C278.539 415.143 279.764 415.5 280.805 416.208C281.868 416.916 282.578 417.89 282.934 419.129L282.55 419.127L282.609 407.991L285.521 408.003L285.396 431.554L282.516 431.543L282.536 427.799L282.888 427.8C282.54 429.058 281.83 430.047 280.76 430.768C279.711 431.468 278.472 431.815 277.042 431.809ZM277.727 429.508C279.177 429.514 280.343 429.006 281.223 427.986C282.124 426.965 282.58 425.463 282.591 423.479C282.601 421.495 282.161 420 281.27 418.994C280.401 417.988 279.241 417.482 277.791 417.476C276.34 417.47 275.164 417.967 274.263 418.966C273.383 419.965 272.937 421.456 272.927 423.44C272.916 425.424 273.346 426.93 274.215 427.958C275.105 428.985 276.276 429.502 277.727 429.508ZM297.601 431.891C295.041 431.881 293.018 431.137 291.533 429.659C290.069 428.181 289.344 426.152 289.357 423.57C289.366 421.864 289.694 420.393 290.341 419.158C291.009 417.902 291.921 416.935 293.076 416.257C294.232 415.558 295.578 415.211 297.114 415.217C298.586 415.223 299.832 415.548 300.853 416.192C301.873 416.815 302.647 417.704 303.175 418.858C303.702 420.012 303.961 421.378 303.953 422.957L303.948 423.917L291.628 423.867L291.637 422.139L301.973 422.181L301.427 422.595C301.435 420.931 301.069 419.639 300.327 418.718C299.607 417.798 298.532 417.335 297.103 417.329C295.545 417.323 294.337 417.862 293.478 418.947C292.619 420.01 292.184 421.47 292.175 423.326L292.173 423.614C292.163 425.576 292.635 427.061 293.589 428.067C294.565 429.074 295.917 429.581 297.645 429.588C298.605 429.591 299.502 429.456 300.336 429.182C301.169 428.908 301.972 428.453 302.743 427.816L303.692 429.836C302.963 430.494 302.054 431.003 300.964 431.361C299.895 431.719 298.775 431.896 297.601 431.891ZM320.502 431.695L314.571 415.575L317.611 415.588L322.402 429.399L321.57 429.396L326.635 415.624L329.003 415.633L333.89 429.445L333.09 429.442L338.059 415.67L340.971 415.681L334.837 431.753L332.085 431.742L327.04 417.705L328.448 417.711L323.286 431.706L320.502 431.695ZM344.056 431.79L344.141 415.694L347.053 415.706L346.968 431.801L344.056 431.79ZM343.904 412.173L343.92 409.037L347.376 409.051L347.36 412.187L343.904 412.173ZM357.851 432.133C356.166 432.126 354.888 431.663 354.019 430.742C353.17 429.8 352.751 428.39 352.761 426.513L352.806 417.969L349.67 417.956L349.682 415.716L352.818 415.729L352.841 411.409L355.757 410.621L355.73 415.741L360.274 415.759L360.262 417.999L355.718 417.98L355.674 426.268C355.668 427.506 355.876 428.392 356.3 428.927C356.745 429.441 357.384 429.699 358.216 429.703C358.643 429.704 359.006 429.674 359.305 429.611C359.625 429.527 359.914 429.432 360.17 429.326L360.157 431.726C359.837 431.853 359.463 431.948 359.036 432.01C358.63 432.094 358.235 432.135 357.851 432.133ZM363.243 431.867L363.368 408.315L366.28 408.327L366.222 419.271L365.806 419.269C366.282 418.034 367.044 417.098 368.093 416.462C369.142 415.826 370.349 415.511 371.714 415.517C373.655 415.524 375.082 416.053 375.994 417.102C376.927 418.151 377.388 419.731 377.376 421.843L377.323 431.923L374.411 431.912L374.464 421.992C374.471 420.562 374.199 419.527 373.648 418.884C373.097 418.221 372.192 417.887 370.933 417.882C369.525 417.876 368.382 418.309 367.502 419.18C366.644 420.051 366.212 421.212 366.204 422.663L366.155 431.878L363.243 431.867ZM390.844 431.977L390.964 409.418L393.94 409.43L393.834 429.429L405.065 429.475L405.052 432.034L390.844 431.977ZM414.712 432.361C413.134 432.355 411.77 432.019 410.622 431.353C409.473 430.666 408.583 429.702 407.949 428.462C407.316 427.201 407.004 425.706 407.013 423.978C407.022 422.272 407.35 420.801 407.996 419.566C408.643 418.31 409.544 417.354 410.7 416.697C411.855 416.019 413.222 415.683 414.801 415.689C416.38 415.696 417.743 416.043 418.892 416.73C420.061 417.396 420.952 418.359 421.564 419.621C422.198 420.86 422.51 422.334 422.501 424.04C422.492 425.768 422.164 427.26 421.517 428.516C420.892 429.751 419.991 430.708 418.814 431.386C417.658 432.042 416.291 432.368 414.712 432.361ZM414.725 430.057C416.175 430.063 417.341 429.556 418.221 428.535C419.101 427.515 419.546 426.013 419.557 424.029C419.567 422.045 419.138 420.55 418.269 419.543C417.399 418.537 416.239 418.031 414.789 418.025C413.317 418.02 412.141 418.516 411.261 419.515C410.402 420.515 409.967 422.006 409.957 423.99C409.946 425.974 410.365 427.48 411.213 428.507C412.082 429.535 413.253 430.051 414.725 430.057ZM426.367 432.12L426.433 419.832C426.436 419.213 426.418 418.584 426.379 417.944C426.339 417.304 426.279 416.664 426.197 416.023L429.013 416.034L429.315 419.492L428.931 419.49C429.428 418.276 430.19 417.351 431.217 416.715C432.245 416.079 433.441 415.764 434.806 415.77C436.705 415.777 438.132 416.306 439.086 417.355C440.041 418.383 440.512 419.985 440.501 422.161L440.447 432.176L437.535 432.165L437.588 422.309C437.596 420.837 437.313 419.78 436.741 419.137C436.168 418.474 435.274 418.14 434.058 418.135C432.607 418.129 431.453 418.562 430.595 419.433C429.758 420.304 429.336 421.486 429.328 422.98L429.279 432.132L426.367 432.12ZM452.341 439.392C450.933 439.387 449.643 439.211 448.472 438.865C447.3 438.519 446.247 437.992 445.312 437.284L446.091 435.143C446.75 435.594 447.399 435.959 448.038 436.239C448.676 436.519 449.336 436.724 450.018 436.855C450.722 436.986 451.447 437.053 452.193 437.056C453.772 437.062 454.958 436.661 455.752 435.854C456.545 435.046 456.946 433.896 456.954 432.403L456.978 427.891L457.298 427.892C456.95 429.107 456.241 430.074 455.171 430.795C454.122 431.495 452.882 431.842 451.453 431.837C450.002 431.831 448.735 431.506 447.65 430.861C446.587 430.196 445.76 429.264 445.169 428.067C444.578 426.849 444.287 425.429 444.296 423.808C444.304 422.165 444.611 420.748 445.214 419.555C445.818 418.363 446.655 417.449 447.725 416.814C448.816 416.157 450.087 415.831 451.538 415.837C452.967 415.843 454.203 416.2 455.244 416.908C456.286 417.616 456.974 418.589 457.309 419.828L457.022 419.539L457.328 416.148L460.144 416.159C460.077 416.799 460.01 417.439 459.942 418.079C459.896 418.718 459.871 419.348 459.868 419.966L459.804 432.062C459.791 434.451 459.152 436.273 457.887 437.526C456.643 438.78 454.794 439.402 452.341 439.392ZM452.105 429.535C453.577 429.541 454.753 429.044 455.633 428.045C456.513 427.046 456.958 425.651 456.967 423.859C456.977 422.045 456.547 420.646 455.678 419.661C454.808 418.677 453.638 418.181 452.166 418.175C450.672 418.169 449.475 418.655 448.574 419.633C447.694 420.611 447.249 422.006 447.24 423.82C447.23 425.612 447.66 427.011 448.529 428.017C449.42 429.023 450.612 429.529 452.105 429.535ZM479.259 432.62C477.851 432.614 476.616 432.279 475.553 431.613C474.49 430.948 473.663 429.984 473.072 428.723C472.481 427.462 472.191 425.968 472.2 424.24C472.209 422.512 472.516 421.03 473.12 419.795C473.724 418.539 474.561 417.583 475.631 416.925C476.701 416.268 477.94 415.943 479.348 415.948C480.777 415.954 482.013 416.322 483.054 417.051C484.117 417.76 484.816 418.733 485.151 419.972L484.767 419.97L485.138 416.26L487.954 416.271C487.887 416.911 487.82 417.55 487.752 418.19C487.706 418.83 487.682 419.459 487.678 420.078L487.613 432.366L484.701 432.354L484.721 428.674L485.073 428.675C484.725 429.89 484.016 430.858 482.945 431.579C481.896 432.279 480.667 432.626 479.259 432.62ZM479.944 430.319C481.394 430.325 482.56 429.817 483.44 428.797C484.32 427.776 484.765 426.274 484.776 424.29C484.786 422.306 484.357 420.811 483.488 419.805C482.618 418.799 481.458 418.293 480.008 418.287C478.557 418.281 477.381 418.778 476.48 419.777C475.6 420.776 475.154 422.268 475.144 424.252C475.133 426.236 475.563 427.741 476.432 428.769C477.301 429.796 478.472 430.313 479.944 430.319ZM492.492 432.385L492.557 420.097C492.56 419.479 492.542 418.849 492.503 418.209C492.464 417.569 492.403 416.929 492.321 416.288L495.137 416.3L495.439 419.757L495.055 419.755C495.552 418.541 496.314 417.616 497.342 416.981C498.369 416.345 499.566 416.029 500.931 416.035C502.83 416.043 504.256 416.571 505.211 417.62C506.165 418.648 506.637 420.25 506.625 422.426L506.572 432.442L503.66 432.43L503.712 422.574C503.72 421.102 503.438 420.045 502.865 419.403C502.293 418.739 501.398 418.405 500.182 418.4C498.732 418.394 497.577 418.827 496.719 419.698C495.883 420.569 495.46 421.752 495.452 423.245L495.404 432.397L492.492 432.385ZM517.478 432.773C516.07 432.768 514.834 432.432 513.771 431.767C512.708 431.101 511.881 430.138 511.291 428.877C510.7 427.616 510.409 426.121 510.418 424.393C510.428 422.665 510.734 421.184 511.338 419.949C511.942 418.692 512.779 417.736 513.849 417.079C514.919 416.422 516.159 416.096 517.566 416.102C518.974 416.107 520.199 416.464 521.241 417.172C522.304 417.881 523.013 418.854 523.369 420.093L522.985 420.091L523.045 408.956L525.957 408.967L525.831 432.519L522.951 432.507L522.971 428.763L523.323 428.765C522.975 430.022 522.266 431.011 521.195 431.732C520.146 432.432 518.907 432.779 517.478 432.773ZM518.162 430.472C519.613 430.478 520.778 429.971 521.658 428.95C522.56 427.93 523.016 426.428 523.026 424.444C523.037 422.46 522.597 420.965 521.706 419.958C520.837 418.952 519.677 418.446 518.226 418.44C516.775 418.435 515.599 418.931 514.698 419.93C513.818 420.929 513.373 422.421 513.362 424.405C513.352 426.389 513.781 427.895 514.65 428.922C515.541 429.95 516.711 430.466 518.162 430.472ZM546.922 432.892C545.109 432.884 543.478 432.643 542.03 432.168C540.582 431.693 539.327 431.026 538.265 430.169L539.301 427.805C540.045 428.363 540.8 428.835 541.566 429.222C542.332 429.588 543.152 429.868 544.025 430.064C544.92 430.238 545.89 430.327 546.936 430.332C548.792 430.339 550.159 430.014 551.037 429.356C551.937 428.677 552.389 427.783 552.395 426.673C552.4 425.713 552.095 424.976 551.479 424.462C550.863 423.947 549.788 423.538 548.254 423.233L544.833 422.515C542.766 422.08 541.223 421.381 540.204 420.417C539.207 419.431 538.713 418.107 538.721 416.443C538.729 415.099 539.087 413.927 539.796 412.927C540.527 411.906 541.523 411.12 542.785 410.571C544.068 410.021 545.562 409.75 547.269 409.757C548.848 409.763 550.308 410.004 551.649 410.478C552.991 410.953 554.118 411.651 555.03 412.572L553.994 414.84C553.039 413.961 552.008 413.328 550.9 412.939C549.814 412.53 548.578 412.322 547.191 412.316C545.506 412.31 544.171 412.667 543.186 413.388C542.201 414.11 541.705 415.089 541.698 416.326C541.693 417.308 541.998 418.088 542.614 418.666C543.229 419.223 544.251 419.654 545.679 419.958L549.099 420.644C551.273 421.08 552.859 421.758 553.857 422.679C554.876 423.601 555.381 424.872 555.372 426.493C555.365 427.773 555.018 428.903 554.33 429.881C553.643 430.838 552.668 431.581 551.406 432.11C550.145 432.638 548.65 432.898 546.922 432.892ZM566.024 432.968C564.445 432.962 563.082 432.626 561.933 431.96C560.785 431.272 559.894 430.309 559.26 429.069C558.627 427.808 558.315 426.313 558.324 424.585C558.333 422.879 558.661 421.408 559.308 420.173C559.954 418.917 560.855 417.961 562.011 417.304C563.167 416.626 564.534 416.29 566.112 416.296C567.691 416.303 569.055 416.65 570.203 417.337C571.373 418.003 572.264 418.966 572.876 420.228C573.509 421.467 573.821 422.941 573.812 424.647C573.803 426.375 573.475 427.867 572.828 429.123C572.203 430.358 571.302 431.315 570.125 431.993C568.97 432.649 567.602 432.975 566.024 432.968ZM566.036 430.664C567.487 430.67 568.652 430.163 569.532 429.142C570.412 428.122 570.858 426.62 570.868 424.636C570.879 422.652 570.449 421.157 569.58 420.15C568.711 419.144 567.551 418.638 566.1 418.632C564.628 418.626 563.452 419.123 562.572 420.122C561.713 421.121 561.279 422.613 561.268 424.597C561.258 426.581 561.676 428.087 562.524 429.114C563.393 430.142 564.564 430.658 566.036 430.664ZM577.647 432.727L577.711 420.567C577.715 419.927 577.697 419.276 577.658 418.615C577.64 417.932 577.59 417.27 577.508 416.63L580.324 416.641L580.655 420.675L580.175 420.705C580.393 419.724 580.76 418.915 581.276 418.277C581.812 417.618 582.444 417.141 583.171 416.845C583.92 416.528 584.688 416.371 585.478 416.374C585.819 416.375 586.107 416.387 586.342 416.41C586.576 416.432 586.81 416.486 587.045 416.572L586.967 419.164C586.648 419.035 586.349 418.959 586.072 418.936C585.816 418.893 585.496 418.87 585.112 418.869C584.174 418.865 583.362 419.075 582.677 419.499C582.013 419.923 581.498 420.486 581.132 421.189C580.787 421.891 580.612 422.648 580.608 423.459L580.559 432.738L577.647 432.727ZM596.412 433.09C594.726 433.083 593.449 432.62 592.579 431.699C591.731 430.757 591.312 429.347 591.322 427.47L591.367 418.926L588.231 418.913L588.243 416.673L591.379 416.686L591.402 412.366L594.318 411.578L594.291 416.697L598.835 416.716L598.823 418.956L594.279 418.937L594.235 427.225C594.228 428.463 594.437 429.349 594.861 429.884C595.306 430.398 595.945 430.656 596.777 430.66C597.203 430.661 597.566 430.631 597.865 430.568C598.186 430.484 598.474 430.389 598.731 430.283L598.718 432.683C598.397 432.81 598.023 432.905 597.596 432.967C597.191 433.051 596.796 433.092 596.412 433.09ZM118.874 471.175C115.781 471.162 113.481 470.375 111.975 468.811C110.49 467.226 109.755 464.909 109.771 461.858L109.844 448.29L112.852 448.302L112.78 461.774C112.768 464.014 113.25 465.702 114.225 466.836C115.2 467.971 116.755 468.542 118.888 468.551C120.936 468.559 122.475 468 123.505 466.873C124.556 465.747 125.088 464.064 125.1 461.824L125.171 448.352L128.115 448.364L128.043 461.932C128.027 464.982 127.247 467.294 125.702 468.866C124.158 470.417 121.882 471.187 118.874 471.175ZM132.996 477.856L133.098 458.656C133.101 458.037 133.083 457.408 133.044 456.768C133.004 456.127 132.944 455.487 132.862 454.847L135.678 454.858L136.01 458.571L135.658 458.57C135.985 457.334 136.672 456.366 137.721 455.666C138.771 454.945 140.021 454.588 141.471 454.593C142.901 454.599 144.147 454.935 145.21 455.6C146.273 456.266 147.089 457.229 147.659 458.49C148.249 459.73 148.54 461.214 148.531 462.942C148.522 464.67 148.215 466.162 147.611 467.418C147.028 468.674 146.202 469.631 145.132 470.288C144.062 470.945 142.812 471.271 141.383 471.265C139.953 471.259 138.718 470.902 137.676 470.194C136.656 469.465 135.968 468.491 135.612 467.274L135.964 467.275L135.908 477.867L132.996 477.856ZM140.723 468.958C142.195 468.964 143.371 468.457 144.251 467.437C145.131 466.416 145.576 464.914 145.587 462.93C145.598 460.946 145.168 459.451 144.299 458.445C143.429 457.439 142.259 456.933 140.787 456.927C139.315 456.921 138.139 457.417 137.259 458.416C136.4 459.416 135.966 460.907 135.955 462.891C135.945 464.875 136.363 466.381 137.211 467.408C138.08 468.436 139.251 468.953 140.723 468.958ZM158.265 471.333C156.58 471.326 155.302 470.862 154.433 469.941C153.584 468.999 153.165 467.59 153.175 465.712L153.22 457.168L150.084 457.156L150.096 454.916L153.232 454.929L153.255 450.609L156.172 449.82L156.144 454.94L160.688 454.958L160.676 457.198L156.132 457.18L156.088 465.468C156.082 466.705 156.29 467.592 156.714 468.127C157.16 468.64 157.798 468.899 158.63 468.902C159.057 468.904 159.42 468.873 159.719 468.811C160.039 468.727 160.328 468.632 160.584 468.526L160.571 470.926C160.251 471.053 159.877 471.147 159.45 471.21C159.044 471.293 158.649 471.334 158.265 471.333ZM170.283 471.381C168.705 471.375 167.341 471.039 166.192 470.373C165.044 469.685 164.153 468.722 163.52 467.482C162.886 466.221 162.574 464.726 162.584 462.998C162.593 461.291 162.92 459.821 163.567 458.586C164.214 457.33 165.115 456.374 166.27 455.717C167.426 455.039 168.793 454.703 170.372 454.709C171.95 454.716 173.314 455.062 174.462 455.75C175.632 456.416 176.523 457.379 177.135 458.64C177.768 459.88 178.081 461.354 178.071 463.06C178.062 464.788 177.734 466.28 177.088 467.536C176.462 468.771 175.561 469.728 174.384 470.405C173.229 471.062 171.862 471.387 170.283 471.381ZM170.295 469.077C171.746 469.083 172.911 468.576 173.792 467.555C174.672 466.535 175.117 465.032 175.128 463.048C175.138 461.064 174.709 459.569 173.839 458.563C172.97 457.557 171.81 457.051 170.359 457.045C168.887 457.039 167.711 457.536 166.831 458.535C165.973 459.534 165.538 461.026 165.528 463.01C165.517 464.994 165.936 466.5 166.784 467.527C167.653 468.554 168.823 469.071 170.295 469.077ZM191.912 471.18L191.925 468.652L197.205 468.673L197.298 451.169L198.802 451.175L192.477 455.054L192.493 452.142L198.143 448.645L200.287 448.653L200.181 468.685L205.141 468.705L205.127 471.233L191.912 471.18ZM216.729 471.567C214.148 471.557 212.169 470.557 210.793 468.568C209.417 466.557 208.739 463.685 208.759 459.951C208.779 456.154 209.488 453.287 210.885 451.352C212.282 449.395 214.271 448.421 216.852 448.432C219.455 448.442 221.434 449.431 222.789 451.4C224.165 453.346 224.843 456.208 224.823 459.984C224.803 463.738 224.094 466.616 222.697 468.615C221.3 470.594 219.311 471.578 216.729 471.567ZM216.743 469.039C218.449 469.046 219.723 468.315 220.562 466.847C221.424 465.378 221.862 463.087 221.879 459.972C221.896 456.857 221.481 454.584 220.635 453.151C219.811 451.697 218.545 450.966 216.839 450.96C215.153 450.953 213.88 451.673 213.019 453.12C212.158 454.546 211.72 456.816 211.703 459.931C211.687 463.046 212.101 465.341 212.946 466.816C213.792 468.292 215.057 469.033 216.743 469.039ZM226.478 471.318L235.63 459.259L235.624 460.411L226.982 448.76L230.502 448.774L237.396 458.274L236.468 458.27L243.366 448.826L246.918 448.84L238.152 460.421L238.158 459.269L247.182 471.401L243.63 471.387L236.324 461.31L237.444 461.314L229.998 471.333L226.478 471.318ZM258.539 471.447L258.659 448.887L261.635 448.899L261.528 468.899L272.76 468.944L272.747 471.504L258.539 471.447ZM282.951 471.833C280.391 471.823 278.369 471.079 276.883 469.601C275.419 468.123 274.694 466.093 274.707 463.512C274.716 461.805 275.044 460.335 275.691 459.1C276.359 457.844 277.271 456.877 278.426 456.199C279.582 455.499 280.928 455.153 282.464 455.159C283.936 455.165 285.182 455.49 286.203 456.134C287.223 456.757 287.997 457.645 288.525 458.799C289.052 459.953 289.311 461.32 289.303 462.898L289.298 463.858L276.978 463.809L276.987 462.081L287.323 462.122L286.777 462.536C286.786 460.872 286.419 459.58 285.677 458.66C284.957 457.74 283.882 457.277 282.453 457.271C280.895 457.265 279.687 457.804 278.828 458.888C277.969 459.952 277.535 461.411 277.525 463.267L277.523 463.555C277.513 465.518 277.985 467.002 278.94 468.009C279.916 469.015 281.268 469.522 282.996 469.529C283.955 469.533 284.852 469.398 285.686 469.124C286.519 468.85 287.322 468.394 288.093 467.758L289.042 469.777C288.313 470.436 287.404 470.944 286.314 471.302C285.246 471.661 284.125 471.838 282.951 471.833ZM297.579 471.604L290.785 455.48L293.921 455.493L299.447 469.339L298.551 469.336L304.321 455.535L307.297 455.547L300.299 471.615L297.579 471.604ZM317.013 471.97C314.454 471.959 312.431 471.215 310.945 469.737C309.481 468.259 308.756 466.23 308.77 463.648C308.779 461.942 309.106 460.471 309.753 459.236C310.421 457.98 311.333 457.013 312.488 456.335C313.644 455.636 314.99 455.289 316.526 455.296C317.998 455.301 319.244 455.626 320.265 456.271C321.286 456.893 322.06 457.782 322.587 458.936C323.114 460.09 323.373 461.456 323.365 463.035L323.36 463.995L311.04 463.946L311.049 462.218L321.385 462.259L320.839 462.673C320.848 461.009 320.481 459.717 319.74 458.796C319.019 457.876 317.944 457.413 316.515 457.408C314.958 457.401 313.749 457.94 312.89 459.025C312.031 460.088 311.597 461.548 311.587 463.404L311.585 463.692C311.575 465.654 312.047 467.139 313.002 468.145C313.978 469.152 315.33 469.659 317.058 469.666C318.018 469.67 318.914 469.535 319.748 469.261C320.581 468.987 321.384 468.531 322.155 467.894L323.104 469.914C322.376 470.572 321.466 471.081 320.376 471.439C319.308 471.797 318.187 471.974 317.013 471.97ZM327.092 471.722L327.157 459.562C327.16 458.922 327.143 458.271 327.103 457.61C327.086 456.927 327.036 456.266 326.954 455.625L329.77 455.637L330.101 459.67L329.62 459.7C329.839 458.72 330.206 457.91 330.721 457.272C331.258 456.613 331.89 456.136 332.617 455.84C333.365 455.523 334.134 455.366 334.923 455.369C335.265 455.371 335.553 455.383 335.787 455.405C336.022 455.427 336.256 455.481 336.49 455.568L336.413 458.159C336.093 458.03 335.795 457.954 335.518 457.932C335.262 457.888 334.942 457.865 334.558 457.864C333.62 457.86 332.808 458.07 332.123 458.494C331.459 458.918 330.944 459.481 330.578 460.184C330.233 460.887 330.058 461.643 330.054 462.454L330.004 471.734L327.092 471.722ZM344.954 472.082C343.546 472.076 342.311 471.74 341.248 471.075C340.184 470.409 339.358 469.446 338.767 468.185C338.176 466.924 337.886 465.429 337.895 463.701C337.904 461.973 338.21 460.492 338.814 459.257C339.418 458.001 340.255 457.044 341.326 456.387C342.396 455.73 343.635 455.404 345.043 455.41C346.472 455.416 347.708 455.783 348.749 456.513C349.812 457.221 350.511 458.195 350.846 459.433L350.462 459.432L350.833 455.721L353.649 455.732C353.582 456.372 353.514 457.012 353.447 457.652C353.401 458.291 353.376 458.921 353.373 459.539L353.308 471.827L350.396 471.816L350.415 468.136L350.767 468.137C350.42 469.352 349.71 470.319 348.64 471.04C347.591 471.74 346.362 472.087 344.954 472.082ZM345.639 469.78C347.089 469.786 348.255 469.279 349.135 468.258C350.015 467.238 350.46 465.736 350.471 463.752C350.481 461.768 350.052 460.273 349.182 459.267C348.313 458.26 347.153 457.754 345.702 457.749C344.252 457.743 343.076 458.239 342.174 459.238C341.294 460.238 340.849 461.729 340.839 463.713C340.828 465.697 341.257 467.203 342.127 468.23C342.996 469.258 344.167 469.775 345.639 469.78ZM365.317 479.043C363.909 479.038 362.619 478.862 361.447 478.516C360.276 478.17 359.223 477.643 358.288 476.935L359.067 474.794C359.726 475.245 360.375 475.61 361.013 475.89C361.652 476.17 362.312 476.375 362.994 476.506C363.697 476.637 364.422 476.704 365.169 476.707C366.748 476.713 367.934 476.313 368.727 475.505C369.521 474.698 369.922 473.547 369.93 472.054L369.954 467.542L370.274 467.543C369.926 468.758 369.217 469.726 368.146 470.447C367.097 471.147 365.858 471.494 364.429 471.488C362.978 471.482 361.71 471.157 360.626 470.513C359.563 469.847 358.736 468.916 358.145 467.719C357.554 466.5 357.263 465.08 357.271 463.459C357.28 461.816 357.586 460.399 358.19 459.207C358.794 458.014 359.63 457.1 360.7 456.465C361.792 455.808 363.063 455.482 364.514 455.488C365.943 455.494 367.178 455.851 368.22 456.559C369.262 457.267 369.95 458.241 370.285 459.479L369.998 459.19L370.304 455.799L373.12 455.811C373.053 456.45 372.985 457.09 372.918 457.73C372.872 458.37 372.847 458.999 372.844 459.617L372.78 471.713C372.767 474.103 372.128 475.924 370.863 477.178C369.619 478.431 367.77 479.053 365.317 479.043ZM365.081 469.186C366.553 469.192 367.729 468.696 368.609 467.697C369.489 466.697 369.934 465.302 369.943 463.51C369.953 461.697 369.523 460.297 368.653 459.313C367.784 458.328 366.613 457.832 365.141 457.827C363.648 457.821 362.451 458.306 361.549 459.284C360.67 460.262 360.225 461.658 360.215 463.471C360.206 465.263 360.636 466.662 361.505 467.668C362.396 468.674 363.588 469.18 365.081 469.186ZM384.982 472.242C382.422 472.232 380.399 471.488 378.913 470.01C377.449 468.532 376.724 466.502 376.738 463.921C376.747 462.214 377.075 460.744 377.721 459.509C378.389 458.253 379.301 457.286 380.457 456.608C381.612 455.909 382.958 455.562 384.494 455.568C385.966 455.574 387.213 455.899 388.233 456.543C389.254 457.166 390.028 458.054 390.555 459.209C391.082 460.363 391.342 461.729 391.333 463.308L391.328 464.268L379.008 464.218L379.017 462.49L389.353 462.532L388.807 462.946C388.816 461.282 388.45 459.989 387.708 459.069C386.987 458.149 385.912 457.686 384.483 457.68C382.926 457.674 381.718 458.213 380.858 459.298C379.999 460.361 379.565 461.82 379.555 463.676L379.554 463.964C379.543 465.927 380.015 467.412 380.97 468.418C381.946 469.425 383.298 469.931 385.026 469.938C385.986 469.942 386.883 469.807 387.716 469.533C388.55 469.259 389.352 468.804 390.123 468.167L391.073 470.187C390.344 470.845 389.434 471.353 388.345 471.712C387.276 472.07 386.155 472.247 384.982 472.242ZM408.299 477.808C407.39 476.225 406.641 474.665 406.052 473.127C405.484 471.61 405.066 470.072 404.797 468.514C404.549 466.934 404.43 465.302 404.439 463.616C404.448 461.91 404.585 460.278 404.849 458.722C405.134 457.166 405.569 455.631 406.153 454.119C406.759 452.607 407.524 451.063 408.45 449.488L410.818 449.498C409.717 451.904 408.883 454.279 408.316 456.624C407.749 458.947 407.459 461.282 407.447 463.628C407.434 465.975 407.699 468.323 408.241 470.672C408.784 473.02 409.592 475.402 410.667 477.817L408.299 477.808ZM414.319 472.072L414.439 449.512L417.063 449.523L425.852 469.59L424.892 469.586L433.894 449.59L436.486 449.601L436.367 472.16L433.647 472.149L433.745 453.558L434.737 453.562L426.287 472.12L424.399 472.112L416.146 453.487L417.137 453.491L417.039 472.083L414.319 472.072ZM447.703 472.494C446.295 472.488 445.06 472.153 443.997 471.487C442.934 470.821 442.107 469.858 441.516 468.597C440.925 467.336 440.635 465.841 440.644 464.113C440.653 462.385 440.96 460.904 441.563 459.669C442.168 458.413 443.005 457.456 444.075 456.799C445.145 456.142 446.384 455.816 447.792 455.822C449.221 455.828 450.457 456.195 451.498 456.925C452.561 457.633 453.26 458.607 453.595 459.845L453.211 459.844L453.582 456.133L456.398 456.145C456.331 456.784 456.264 457.424 456.196 458.064C456.15 458.704 456.125 459.333 456.122 459.952L456.057 472.239L453.145 472.228L453.164 468.548L453.516 468.549C453.169 469.764 452.46 470.732 451.389 471.453C450.34 472.152 449.111 472.499 447.703 472.494ZM448.388 470.193C449.838 470.198 451.004 469.691 451.884 468.671C452.764 467.65 453.209 466.148 453.22 464.164C453.23 462.18 452.801 460.685 451.932 459.679C451.062 458.673 449.902 458.167 448.452 458.161C447.001 458.155 445.825 458.652 444.924 459.651C444.044 460.65 443.598 462.141 443.588 464.125C443.577 466.109 444.007 467.615 444.876 468.642C445.745 469.67 446.916 470.187 448.388 470.193ZM460.936 472.259L461.021 456.163L463.933 456.175L463.848 472.271L460.936 472.259ZM460.784 452.642L460.801 449.506L464.257 449.52L464.24 452.656L460.784 452.642ZM468.717 472.29L468.782 460.002C468.786 459.384 468.768 458.754 468.728 458.114C468.689 457.474 468.629 456.834 468.547 456.193L471.363 456.205L471.664 459.662L471.28 459.66C471.777 458.446 472.54 457.521 473.567 456.885C474.594 456.25 475.791 455.934 477.156 455.94C479.055 455.947 480.481 456.476 481.436 457.525C482.39 458.553 482.862 460.155 482.85 462.331L482.797 472.347L479.885 472.335L479.937 462.479C479.945 461.007 479.663 459.95 479.09 459.308C478.518 458.644 477.623 458.31 476.407 458.305C474.957 458.299 473.802 458.732 472.945 459.603C472.108 460.474 471.686 461.657 471.678 463.15L471.629 472.302L468.717 472.29ZM487.561 472.366L487.626 460.078C487.629 459.459 487.611 458.83 487.572 458.19C487.533 457.549 487.472 456.909 487.39 456.269L490.206 456.28L490.508 459.737L490.124 459.736C490.621 458.522 491.383 457.597 492.411 456.961C493.438 456.325 494.634 456.01 496 456.015C497.898 456.023 499.325 456.551 500.279 457.601C501.234 458.628 501.705 460.23 501.694 462.406L501.641 472.422L498.729 472.411L498.781 462.555C498.789 461.083 498.506 460.026 497.934 459.383C497.361 458.72 496.467 458.385 495.251 458.38C493.8 458.375 492.646 458.807 491.788 459.679C490.951 460.55 490.529 461.732 490.521 463.226L490.473 472.377L487.561 472.366ZM513.731 472.759C511.171 472.748 509.148 472.004 507.662 470.526C506.198 469.048 505.473 467.019 505.487 464.438C505.496 462.731 505.824 461.26 506.47 460.025C507.138 458.769 508.05 457.802 509.206 457.124C510.361 456.425 511.707 456.078 513.243 456.085C514.715 456.091 515.962 456.416 516.982 457.06C518.003 457.682 518.777 458.571 519.304 459.725C519.831 460.879 520.091 462.245 520.082 463.824L520.077 464.784L507.757 464.735L507.766 463.007L518.102 463.048L517.556 463.462C517.565 461.798 517.198 460.506 516.457 459.586C515.736 458.665 514.661 458.202 513.232 458.197C511.675 458.19 510.466 458.73 509.607 459.814C508.748 460.877 508.314 462.337 508.304 464.193L508.303 464.481C508.292 466.444 508.764 467.928 509.719 468.935C510.695 469.941 512.047 470.448 513.775 470.455C514.735 470.459 515.632 470.324 516.465 470.05C517.299 469.776 518.101 469.32 518.872 468.683L519.822 470.703C519.093 471.362 518.183 471.87 517.094 472.228C516.025 472.587 514.904 472.763 513.731 472.759ZM529.825 472.823C528.139 472.816 526.862 472.353 525.992 471.432C525.144 470.49 524.725 469.08 524.735 467.203L524.78 458.659L521.644 458.646L521.656 456.406L524.792 456.419L524.815 452.099L527.731 451.311L527.704 456.431L532.248 456.449L532.236 458.689L527.692 458.671L527.648 466.958C527.641 468.196 527.85 469.082 528.274 469.617C528.719 470.131 529.358 470.389 530.19 470.393C530.616 470.394 530.979 470.364 531.278 470.301C531.599 470.217 531.887 470.122 532.144 470.017L532.131 472.417C531.81 472.543 531.436 472.638 531.009 472.7C530.604 472.784 530.209 472.825 529.825 472.823ZM538.548 478.33L536.148 478.321C537.249 475.914 538.083 473.539 538.65 471.195C539.239 468.85 539.539 466.505 539.552 464.158C539.564 461.833 539.288 459.496 538.725 457.147C538.183 454.798 537.374 452.416 536.299 450.001L538.699 450.011C539.608 451.593 540.346 453.153 540.914 454.692C541.503 456.209 541.922 457.746 542.17 459.305C542.439 460.863 542.569 462.485 542.56 464.17C542.551 465.877 542.403 467.508 542.118 469.065C541.853 470.621 541.419 472.155 540.813 473.667C540.229 475.201 539.474 476.755 538.548 478.33ZM82.9458 507.895C81.9004 507.891 80.9311 507.642 80.0377 507.147C79.1444 506.632 78.4334 505.936 77.9048 505.059C77.3761 504.182 77.1146 503.21 77.1202 502.144C77.1255 501.162 77.3757 500.235 77.871 499.363C78.3877 498.49 79.0847 497.789 79.9622 497.259C80.8612 496.708 81.876 496.435 83.0066 496.439C84.0519 496.443 85.0106 496.703 85.8825 497.219C86.7546 497.713 87.455 498.388 87.9838 499.243C88.5339 500.099 88.806 501.081 88.8001 502.19C88.7946 503.236 88.5228 504.195 87.9848 505.067C87.4682 505.94 86.7605 506.63 85.8618 507.139C84.9844 507.647 84.0124 507.899 82.9458 507.895ZM109.671 510.85L109.791 488.291L112.767 488.302L112.647 510.862L109.671 510.85ZM123.227 511.193C121.926 511.187 120.711 511.012 119.582 510.666C118.474 510.32 117.56 509.826 116.838 509.183L117.776 507.171C118.562 507.771 119.424 508.233 120.361 508.557C121.319 508.86 122.3 509.013 123.303 509.017C124.519 509.022 125.437 508.801 126.058 508.356C126.701 507.91 127.024 507.314 127.028 506.568C127.031 505.97 126.831 505.49 126.427 505.125C126.024 504.761 125.385 504.492 124.512 504.318L121.475 503.697C120.111 503.372 119.079 502.856 118.379 502.149C117.7 501.421 117.364 500.492 117.37 499.361C117.375 498.422 117.635 497.591 118.151 496.868C118.667 496.124 119.395 495.55 120.336 495.149C121.298 494.726 122.42 494.517 123.7 494.522C124.873 494.527 125.96 494.702 126.961 495.047C127.983 495.393 128.823 495.898 129.481 496.562L128.51 498.51C127.852 497.931 127.108 497.491 126.277 497.189C125.469 496.865 124.637 496.702 123.784 496.699C122.547 496.694 121.628 496.935 121.028 497.424C120.428 497.891 120.126 498.508 120.122 499.276C120.119 499.852 120.298 500.333 120.659 500.718C121.019 501.082 121.605 501.362 122.414 501.557L125.451 502.177C126.879 502.482 127.953 502.977 128.675 503.662C129.397 504.348 129.755 505.256 129.749 506.387C129.743 507.389 129.461 508.252 128.903 508.975C128.366 509.699 127.605 510.25 126.622 510.63C125.66 511.01 124.528 511.198 123.227 511.193ZM140.477 511.262C138.898 511.255 137.535 510.919 136.386 510.253C135.238 509.566 134.347 508.602 133.714 507.363C133.08 506.101 132.768 504.607 132.778 502.879C132.787 501.172 133.114 499.701 133.761 498.467C134.408 497.211 135.309 496.254 136.464 495.598C137.62 494.92 138.987 494.584 140.566 494.59C142.144 494.596 143.508 494.943 144.656 495.63C145.826 496.296 146.717 497.26 147.329 498.521C147.962 499.761 148.275 501.234 148.265 502.941C148.256 504.669 147.928 506.161 147.282 507.417C146.656 508.652 145.755 509.608 144.578 510.286C143.423 510.943 142.056 511.268 140.477 511.262ZM140.489 508.958C141.94 508.964 143.105 508.456 143.986 507.436C144.866 506.415 145.311 504.913 145.321 502.929C145.332 500.945 144.903 499.45 144.033 498.444C143.164 497.438 142.004 496.932 140.553 496.926C139.081 496.92 137.905 497.417 137.025 498.416C136.167 499.415 135.732 500.907 135.722 502.891C135.711 504.875 136.13 506.38 136.978 507.408C137.847 508.435 139.017 508.952 140.489 508.958ZM152.132 511.021L152.257 487.469L155.169 487.481L155.044 511.032L152.132 511.021ZM166.056 511.364C164.648 511.359 163.412 511.023 162.349 510.357C161.286 509.692 160.459 508.729 159.868 507.468C159.278 506.206 158.987 504.712 158.996 502.984C159.005 501.256 159.312 499.775 159.916 498.54C160.52 497.283 161.357 496.327 162.427 495.67C163.497 495.013 164.736 494.687 166.144 494.693C167.574 494.698 168.809 495.066 169.85 495.795C170.913 496.504 171.612 497.477 171.947 498.716L171.563 498.714L171.935 495.004L174.751 495.015C174.683 495.655 174.616 496.295 174.548 496.934C174.502 497.574 174.478 498.203 174.474 498.822L174.409 511.11L171.497 511.098L171.517 507.418L171.869 507.42C171.521 508.634 170.812 509.602 169.741 510.323C168.692 511.023 167.464 511.37 166.056 511.364ZM166.74 509.063C168.191 509.069 169.356 508.562 170.236 507.541C171.116 506.521 171.561 505.018 171.572 503.034C171.583 501.05 171.153 499.555 170.284 498.549C169.414 497.543 168.254 497.037 166.804 497.031C165.353 497.025 164.177 497.522 163.276 498.521C162.396 499.52 161.951 501.012 161.94 502.996C161.93 504.98 162.359 506.486 163.228 507.513C164.097 508.54 165.268 509.057 166.74 509.063ZM185.303 511.442C183.617 511.435 182.34 510.971 181.47 510.05C180.622 509.108 180.202 507.698 180.212 505.821L180.258 497.277L177.122 497.265L177.134 495.025L180.27 495.037L180.293 490.717L183.209 489.929L183.182 495.049L187.726 495.067L187.714 497.307L183.17 497.289L183.126 505.577C183.119 506.814 183.328 507.7 183.752 508.235C184.197 508.749 184.835 509.008 185.667 509.011C186.094 509.013 186.457 508.982 186.756 508.919C187.076 508.835 187.365 508.74 187.621 508.635L187.609 511.035C187.288 511.162 186.914 511.256 186.487 511.318C186.081 511.402 185.687 511.443 185.303 511.442ZM197.864 511.492C195.304 511.482 193.282 510.738 191.796 509.26C190.332 507.782 189.607 505.752 189.621 503.171C189.63 501.464 189.957 499.993 190.604 498.759C191.272 497.503 192.184 496.536 193.339 495.858C194.495 495.158 195.841 494.812 197.377 494.818C198.849 494.824 200.095 495.149 201.116 495.793C202.137 496.416 202.911 497.304 203.438 498.458C203.965 499.612 204.224 500.979 204.216 502.557L204.211 503.517L191.891 503.468L191.9 501.74L202.236 501.781L201.69 502.195C201.699 500.531 201.332 499.239 200.59 498.319C199.87 497.399 198.795 496.936 197.366 496.93C195.808 496.924 194.6 497.463 193.741 498.547C192.882 499.611 192.448 501.07 192.438 502.926L192.436 503.214C192.426 505.177 192.898 506.661 193.853 507.668C194.829 508.674 196.181 509.181 197.909 509.188C198.869 509.192 199.765 509.057 200.599 508.783C201.432 508.509 202.235 508.053 203.006 507.417L203.955 509.436C203.227 510.095 202.317 510.603 201.227 510.961C200.159 511.32 199.038 511.497 197.864 511.492ZM214.118 511.557C212.71 511.552 211.474 511.216 210.411 510.55C209.348 509.885 208.521 508.921 207.93 507.66C207.34 506.399 207.049 504.905 207.058 503.177C207.067 501.449 207.374 499.967 207.978 498.732C208.582 497.476 209.419 496.52 210.489 495.862C211.559 495.205 212.798 494.88 214.206 494.885C215.614 494.891 216.839 495.248 217.881 495.956C218.944 496.664 219.653 497.638 220.009 498.877L219.625 498.875L219.684 487.739L222.596 487.751L222.471 511.303L219.591 511.291L219.611 507.547L219.963 507.549C219.615 508.806 218.906 509.795 217.835 510.516C216.786 511.216 215.547 511.563 214.118 511.557ZM214.802 509.256C216.253 509.262 217.418 508.754 218.298 507.734C219.2 506.714 219.656 505.211 219.666 503.227C219.677 501.243 219.237 499.748 218.346 498.742C217.477 497.736 216.317 497.23 214.866 497.224C213.415 497.218 212.239 497.715 211.338 498.714C210.458 499.713 210.013 501.205 210.002 503.189C209.992 505.173 210.421 506.678 211.29 507.706C212.181 508.733 213.351 509.25 214.802 509.256ZM236.108 511.357L236.228 488.798L238.851 488.808L247.641 508.876L246.681 508.872L255.683 488.876L258.275 488.886L258.155 511.446L255.435 511.435L255.534 492.843L256.526 492.847L248.076 511.405L246.188 511.398L237.934 492.773L238.926 492.777L238.828 511.368L236.108 511.357ZM269.492 511.779C268.084 511.774 266.849 511.438 265.786 510.772C264.722 510.107 263.896 509.143 263.305 507.882C262.714 506.621 262.424 505.127 262.433 503.399C262.442 501.671 262.748 500.189 263.352 498.955C263.956 497.698 264.794 496.742 265.864 496.085C266.934 495.428 268.173 495.102 269.581 495.108C271.01 495.113 272.246 495.481 273.287 496.21C274.35 496.919 275.049 497.892 275.384 499.131L275 499.129L275.371 495.419L278.187 495.43C278.12 496.07 278.053 496.71 277.985 497.349C277.939 497.989 277.914 498.618 277.911 499.237L277.846 511.525L274.934 511.513L274.953 507.833L275.305 507.835C274.958 509.049 274.248 510.017 273.178 510.738C272.129 511.438 270.9 511.785 269.492 511.779ZM270.177 509.478C271.627 509.484 272.793 508.976 273.673 507.956C274.553 506.936 274.998 505.433 275.009 503.449C275.019 501.465 274.59 499.97 273.72 498.964C272.851 497.958 271.691 497.452 270.241 497.446C268.79 497.44 267.614 497.937 266.713 498.936C265.833 499.935 265.387 501.427 265.377 503.411C265.366 505.395 265.796 506.9 266.665 507.928C267.534 508.955 268.705 509.472 270.177 509.478ZM282.693 511.544L282.757 499.384C282.761 498.744 282.743 498.094 282.704 497.432C282.686 496.749 282.636 496.088 282.554 495.448L285.37 495.459L285.701 499.492L285.221 499.522C285.439 498.542 285.806 497.733 286.322 497.095C286.858 496.435 287.49 495.958 288.217 495.662C288.966 495.345 289.734 495.188 290.524 495.192C290.865 495.193 291.153 495.205 291.388 495.227C291.622 495.249 291.857 495.304 292.091 495.39L292.013 497.982C291.694 497.852 291.395 497.776 291.118 497.754C290.862 497.71 290.542 497.688 290.158 497.686C289.22 497.682 288.408 497.892 287.723 498.316C287.06 498.74 286.545 499.304 286.178 500.006C285.833 500.709 285.658 501.465 285.654 502.276L285.605 511.556L282.693 511.544ZM301.48 518.788C300.072 518.782 298.782 518.606 297.61 518.26C296.439 517.914 295.386 517.387 294.451 516.679L295.23 514.539C295.889 514.989 296.538 515.354 297.176 515.634C297.815 515.914 298.475 516.12 299.157 516.25C299.86 516.381 300.585 516.448 301.332 516.451C302.911 516.457 304.097 516.057 304.89 515.249C305.684 514.442 306.085 513.291 306.093 511.798L306.117 507.286L306.437 507.287C306.089 508.502 305.38 509.47 304.309 510.191C303.26 510.891 302.021 511.238 300.592 511.232C299.141 511.226 297.873 510.901 296.789 510.257C295.726 509.591 294.899 508.66 294.308 507.463C293.717 506.244 293.426 504.825 293.434 503.203C293.443 501.561 293.749 500.143 294.353 498.951C294.957 497.759 295.793 496.845 296.863 496.209C297.955 495.552 299.226 495.226 300.677 495.232C302.106 495.238 303.341 495.595 304.383 496.303C305.425 497.011 306.113 497.985 306.448 499.223L306.161 498.934L306.467 495.543L309.283 495.555C309.216 496.195 309.148 496.834 309.081 497.474C309.035 498.114 309.01 498.743 309.007 499.362L308.943 511.458C308.93 513.847 308.291 515.668 307.026 516.922C305.782 518.176 303.933 518.797 301.48 518.788ZM301.244 508.931C302.716 508.937 303.892 508.44 304.772 507.441C305.652 506.442 306.097 505.046 306.106 503.254C306.116 501.441 305.686 500.042 304.816 499.057C303.947 498.072 302.776 497.577 301.304 497.571C299.811 497.565 298.614 498.051 297.712 499.028C296.833 500.006 296.388 501.402 296.378 503.215C296.369 505.007 296.799 506.406 297.668 507.412C298.559 508.419 299.751 508.925 301.244 508.931ZM313.818 511.669L313.904 495.573L316.816 495.585L316.73 511.681L313.818 511.669ZM313.666 492.052L313.683 488.916L317.139 488.93L317.122 492.066L313.666 492.052ZM321.599 511.7L321.665 499.412C321.668 498.794 321.65 498.164 321.611 497.524C321.572 496.884 321.511 496.244 321.429 495.603L324.245 495.615L324.547 499.072L324.163 499.07C324.66 497.856 325.422 496.932 326.449 496.296C327.477 495.66 328.673 495.345 330.038 495.35C331.937 495.358 333.364 495.886 334.318 496.935C335.273 497.963 335.744 499.565 335.733 501.741L335.679 511.757L332.767 511.745L332.82 501.889C332.828 500.417 332.545 499.36 331.973 498.718C331.4 498.054 330.506 497.72 329.29 497.715C327.839 497.709 326.685 498.142 325.827 499.013C324.99 499.884 324.568 501.067 324.56 502.56L324.511 511.712L321.599 511.7ZM354.608 511.833L354.715 491.801L346.907 491.77L346.92 489.242L365.576 489.317L365.563 491.844L357.723 491.813L357.616 511.845L354.608 511.833ZM365.817 511.878L365.882 499.718C365.885 499.078 365.867 498.427 365.828 497.766C365.81 497.083 365.761 496.421 365.679 495.781L368.495 495.792L368.825 499.826L368.345 499.856C368.564 498.875 368.931 498.066 369.446 497.428C369.983 496.769 370.615 496.291 371.342 495.996C372.09 495.679 372.859 495.522 373.648 495.525C373.989 495.526 374.277 495.538 374.512 495.56C374.746 495.583 374.981 495.637 375.215 495.723L375.137 498.315C374.818 498.186 374.52 498.11 374.242 498.087C373.987 498.044 373.667 498.021 373.283 498.02C372.344 498.016 371.532 498.226 370.847 498.65C370.184 499.074 369.669 499.637 369.302 500.34C368.957 501.042 368.783 501.799 368.778 502.609L368.729 511.889L365.817 511.878ZM383.679 512.237C382.271 512.232 381.035 511.896 379.972 511.23C378.909 510.565 378.082 509.602 377.492 508.34C376.901 507.079 376.61 505.585 376.619 503.857C376.629 502.129 376.935 500.648 377.539 499.413C378.143 498.156 378.98 497.2 380.05 496.543C381.12 495.886 382.36 495.56 383.768 495.566C385.197 495.571 386.432 495.939 387.474 496.668C388.537 497.377 389.235 498.35 389.57 499.589L389.186 499.587L389.558 495.877L392.374 495.888C392.307 496.528 392.239 497.168 392.172 497.807C392.126 498.447 392.101 499.076 392.098 499.695L392.032 511.983L389.12 511.971L389.14 508.291L389.492 508.293C389.144 509.507 388.435 510.475 387.365 511.196C386.315 511.896 385.087 512.243 383.679 512.237ZM384.363 509.936C385.814 509.942 386.979 509.435 387.859 508.414C388.739 507.394 389.185 505.891 389.195 503.907C389.206 501.923 388.776 500.428 387.907 499.422C387.038 498.416 385.878 497.91 384.427 497.904C382.976 497.898 381.8 498.395 380.899 499.394C380.019 500.393 379.574 501.885 379.563 503.869C379.553 505.853 379.982 507.358 380.851 508.386C381.721 509.413 382.891 509.93 384.363 509.936ZM403.054 512.315C401.646 512.309 400.41 511.974 399.347 511.308C398.284 510.643 397.457 509.679 396.866 508.418C396.276 507.157 395.985 505.663 395.994 503.935C396.003 502.207 396.31 500.725 396.914 499.49C397.518 498.234 398.355 497.277 399.425 496.62C400.495 495.963 401.734 495.638 403.142 495.643C404.55 495.649 405.775 496.006 406.817 496.714C407.88 497.422 408.589 498.396 408.945 499.635L408.561 499.633L408.62 488.497L411.532 488.509L411.407 512.061L408.527 512.049L408.547 508.305L408.899 508.306C408.551 509.564 407.842 510.553 406.771 511.274C405.722 511.974 404.483 512.321 403.054 512.315ZM403.738 510.014C405.189 510.02 406.354 509.512 407.234 508.492C408.136 507.471 408.592 505.969 408.602 503.985C408.613 502.001 408.173 500.506 407.282 499.5C406.413 498.494 405.253 497.988 403.802 497.982C402.351 497.976 401.175 498.473 400.274 499.472C399.394 500.471 398.949 501.962 398.938 503.946C398.928 505.93 399.357 507.436 400.226 508.464C401.117 509.491 402.287 510.008 403.738 510.014ZM423.613 512.397C421.053 512.387 419.03 511.643 417.544 510.165C416.08 508.687 415.355 506.658 415.369 504.076C415.378 502.37 415.706 500.899 416.352 499.664C417.02 498.408 417.932 497.441 419.088 496.763C420.243 496.064 421.589 495.717 423.125 495.723C424.597 495.729 425.843 496.054 426.864 496.698C427.885 497.321 428.659 498.21 429.186 499.364C429.713 500.518 429.973 501.884 429.964 503.463L429.959 504.423L417.639 504.373L417.648 502.646L427.984 502.687L427.438 503.101C427.447 501.437 427.08 500.145 426.339 499.224C425.618 498.304 424.543 497.841 423.114 497.835C421.557 497.829 420.348 498.368 419.489 499.453C418.63 500.516 418.196 501.976 418.186 503.832L418.185 504.12C418.174 506.082 418.646 507.567 419.601 508.573C420.577 509.58 421.929 510.087 423.657 510.094C424.617 510.098 425.514 509.962 426.347 509.688C427.18 509.414 427.983 508.959 428.754 508.322L429.704 510.342C428.975 511 428.065 511.509 426.975 511.867C425.907 512.225 424.786 512.402 423.613 512.397ZM82.7332 547.894C81.6879 547.89 80.7185 547.641 79.8252 547.147C78.9319 546.631 78.2209 545.935 77.6922 545.058C77.1635 544.181 76.902 543.21 76.9077 542.143C76.9129 541.162 77.1632 540.235 77.6585 539.362C78.1751 538.489 78.8722 537.788 79.7497 537.258C80.6486 536.707 81.6634 536.434 82.7941 536.439C83.8394 536.443 84.7981 536.703 85.67 537.218C86.542 537.712 87.2425 538.387 87.7713 539.243C88.3214 540.098 88.5935 541.081 88.5876 542.19C88.5821 543.235 88.3103 544.194 87.7723 545.067C87.2557 545.939 86.548 546.63 85.6493 547.138C84.7719 547.647 83.7999 547.899 82.7332 547.894ZM119.409 551.178C117.148 551.168 115.209 550.691 113.593 549.746C111.998 548.801 110.778 547.463 109.934 545.731C109.09 543.979 108.674 541.918 108.687 539.55C108.699 537.182 109.137 535.136 109.999 533.412C110.862 531.687 112.096 530.359 113.701 529.426C115.327 528.494 117.271 528.033 119.532 528.042C121.153 528.048 122.592 528.299 123.848 528.795C125.104 529.27 126.199 529.967 127.133 530.888L126.032 533.284C125.013 532.384 124.003 531.74 123.002 531.352C122.023 530.943 120.883 530.735 119.582 530.73C117.086 530.72 115.172 531.48 113.841 533.011C112.511 534.542 111.838 536.726 111.823 539.563C111.808 542.4 112.457 544.6 113.772 546.163C115.086 547.704 116.991 548.48 119.487 548.49C120.789 548.495 121.931 548.308 122.914 547.928C123.919 547.526 124.936 546.88 125.965 545.988L127.04 548.36C126.097 549.274 124.983 549.973 123.701 550.459C122.44 550.944 121.009 551.184 119.409 551.178ZM131.013 550.936L131.077 538.776C131.081 538.136 131.063 537.486 131.024 536.824C131.006 536.141 130.956 535.48 130.874 534.839L133.69 534.851L134.021 538.884L133.541 538.914C133.759 537.934 134.126 537.124 134.642 536.487C135.178 535.827 135.81 535.35 136.537 535.054C137.286 534.737 138.054 534.58 138.844 534.583C139.185 534.585 139.473 534.597 139.708 534.619C139.942 534.641 140.176 534.695 140.411 534.782L140.333 537.373C140.014 537.244 139.715 537.168 139.438 537.146C139.182 537.102 138.862 537.079 138.478 537.078C137.54 537.074 136.728 537.284 136.043 537.708C135.379 538.132 134.864 538.695 134.498 539.398C134.153 540.101 133.978 540.857 133.974 541.668L133.925 550.948L131.013 550.936ZM149.452 551.298C147.873 551.292 146.51 550.956 145.361 550.29C144.213 549.602 143.322 548.639 142.689 547.399C142.055 546.138 141.743 544.643 141.752 542.915C141.762 541.208 142.089 539.738 142.736 538.503C143.383 537.247 144.284 536.291 145.439 535.634C146.595 534.956 147.962 534.62 149.541 534.626C151.119 534.633 152.483 534.979 153.631 535.667C154.801 536.333 155.692 537.296 156.304 538.557C156.937 539.797 157.249 541.271 157.24 542.977C157.231 544.705 156.903 546.197 156.257 547.453C155.631 548.688 154.73 549.645 153.553 550.322C152.398 550.979 151.031 551.304 149.452 551.298ZM149.464 548.994C150.915 549 152.08 548.493 152.96 547.472C153.841 546.452 154.286 544.949 154.296 542.965C154.307 540.981 153.878 539.486 153.008 538.48C152.139 537.474 150.979 536.968 149.528 536.962C148.056 536.956 146.88 537.453 146 538.452C145.142 539.451 144.707 540.943 144.696 542.927C144.686 544.911 145.105 546.417 145.952 547.444C146.822 548.471 147.992 548.988 149.464 548.994ZM166.545 551.367C165.244 551.361 164.029 551.186 162.9 550.84C161.793 550.494 160.878 550 160.156 549.357L161.095 547.345C161.881 547.945 162.742 548.407 163.679 548.731C164.638 549.034 165.618 549.187 166.621 549.191C167.837 549.196 168.755 548.975 169.376 548.53C170.019 548.085 170.342 547.488 170.346 546.742C170.349 546.145 170.149 545.664 169.746 545.299C169.342 544.935 168.704 544.666 167.83 544.492L164.793 543.872C163.43 543.546 162.398 543.03 161.697 542.323C161.019 541.595 160.682 540.666 160.688 539.535C160.693 538.596 160.954 537.765 161.469 537.042C161.985 536.298 162.714 535.724 163.655 535.323C164.617 534.9 165.738 534.691 167.018 534.696C168.191 534.701 169.278 534.876 170.279 535.221C171.301 535.567 172.141 536.072 172.799 536.736L171.829 538.684C171.171 538.105 170.426 537.665 169.596 537.363C168.787 537.04 167.956 536.876 167.102 536.873C165.865 536.868 164.946 537.109 164.347 537.598C163.747 538.065 163.445 538.682 163.441 539.45C163.438 540.026 163.616 540.507 163.977 540.892C164.338 541.256 164.923 541.536 165.733 541.731L168.769 542.351C170.197 542.656 171.272 543.151 171.993 543.836C172.715 544.522 173.073 545.43 173.067 546.561C173.062 547.563 172.78 548.426 172.221 549.149C171.684 549.873 170.924 550.424 169.94 550.804C168.978 551.184 167.847 551.372 166.545 551.367ZM182.452 551.43C181.15 551.425 179.935 551.25 178.806 550.904C177.699 550.558 176.784 550.064 176.062 549.421L177.001 547.409C177.787 548.009 178.649 548.471 179.585 548.795C180.544 549.097 181.524 549.251 182.527 549.255C183.743 549.26 184.662 549.039 185.283 548.594C185.925 548.148 186.248 547.552 186.252 546.806C186.255 546.208 186.055 545.728 185.652 545.363C185.248 544.999 184.61 544.73 183.736 544.556L180.699 543.935C179.336 543.61 178.304 543.094 177.603 542.387C176.925 541.659 176.588 540.729 176.594 539.599C176.599 538.66 176.86 537.829 177.376 537.106C177.892 536.361 178.62 535.788 179.561 535.387C180.523 534.964 181.644 534.755 182.924 534.76C184.097 534.765 185.184 534.94 186.185 535.285C187.208 535.631 188.048 536.135 188.705 536.799L187.735 538.748C187.077 538.169 186.332 537.729 185.502 537.427C184.693 537.103 183.862 536.94 183.009 536.937C181.771 536.932 180.853 537.173 180.253 537.662C179.653 538.128 179.351 538.746 179.347 539.514C179.344 540.09 179.523 540.571 179.883 540.956C180.244 541.32 180.829 541.6 181.639 541.795L184.675 542.415C186.103 542.72 187.178 543.215 187.9 543.9C188.621 544.586 188.979 545.494 188.973 546.625C188.968 547.627 188.686 548.49 188.127 549.213C187.59 549.936 186.83 550.488 185.847 550.868C184.885 551.248 183.753 551.436 182.452 551.43ZM201.677 551.22L201.797 528.66L204.42 528.67L213.21 548.738L212.25 548.734L221.252 528.738L223.844 528.748L223.724 551.308L221.004 551.297L221.103 532.705L222.095 532.709L213.645 551.268L211.757 551.26L203.503 532.635L204.495 532.639L204.397 551.23L201.677 551.22ZM235.061 551.641C233.653 551.636 232.418 551.3 231.355 550.635C230.291 549.969 229.465 549.006 228.874 547.745C228.283 546.484 227.993 544.989 228.002 543.261C228.011 541.533 228.317 540.052 228.921 538.817C229.525 537.56 230.363 536.604 231.433 535.947C232.503 535.29 233.742 534.964 235.15 534.97C236.579 534.975 237.815 535.343 238.856 536.073C239.919 536.781 240.618 537.754 240.953 538.993L240.569 538.991L240.94 535.281L243.756 535.292C243.689 535.932 243.622 536.572 243.554 537.211C243.508 537.851 243.483 538.48 243.48 539.099L243.415 551.387L240.503 551.375L240.522 547.695L240.874 547.697C240.527 548.911 239.817 549.879 238.747 550.6C237.698 551.3 236.469 551.647 235.061 551.641ZM235.746 549.34C237.196 549.346 238.362 548.839 239.242 547.818C240.122 546.798 240.567 545.295 240.578 543.312C240.588 541.328 240.159 539.832 239.289 538.826C238.42 537.82 237.26 537.314 235.81 537.308C234.359 537.303 233.183 537.799 232.282 538.798C231.402 539.797 230.956 541.289 230.946 543.273C230.935 545.257 231.365 546.763 232.234 547.79C233.103 548.818 234.274 549.334 235.746 549.34ZM248.262 551.406L248.326 539.247C248.33 538.607 248.312 537.956 248.273 537.294C248.255 536.612 248.205 535.95 248.123 535.31L250.939 535.321L251.27 539.354L250.79 539.384C251.008 538.404 251.375 537.595 251.891 536.957C252.427 536.298 253.059 535.82 253.786 535.524C254.535 535.207 255.303 535.051 256.093 535.054C256.434 535.055 256.722 535.067 256.957 535.089C257.191 535.111 257.426 535.166 257.66 535.252L257.582 537.844C257.263 537.714 256.964 537.639 256.687 537.616C256.431 537.572 256.111 537.55 255.727 537.548C254.789 537.544 253.977 537.755 253.292 538.178C252.629 538.602 252.114 539.166 251.747 539.868C251.402 540.571 251.227 541.328 251.223 542.138L251.174 551.418L248.262 551.406ZM267.049 558.65C265.641 558.644 264.351 558.468 263.179 558.122C262.008 557.776 260.955 557.249 260.02 556.542L260.799 554.401C261.458 554.851 262.107 555.217 262.745 555.497C263.384 555.776 264.044 555.982 264.726 556.112C265.429 556.243 266.154 556.31 266.901 556.313C268.48 556.32 269.666 555.919 270.459 555.111C271.253 554.304 271.654 553.154 271.662 551.66L271.686 547.148L272.006 547.15C271.658 548.364 270.949 549.332 269.878 550.053C268.829 550.753 267.59 551.1 266.161 551.094C264.71 551.088 263.442 550.763 262.358 550.119C261.295 549.453 260.468 548.522 259.877 547.325C259.286 546.107 258.995 544.687 259.003 543.065C259.012 541.423 259.318 540.005 259.922 538.813C260.526 537.621 261.362 536.707 262.432 536.071C263.524 535.414 264.795 535.089 266.246 535.094C267.675 535.1 268.91 535.457 269.952 536.165C270.994 536.873 271.682 537.847 272.017 539.086L271.73 538.796L272.036 535.406L274.852 535.417C274.785 536.057 274.717 536.696 274.65 537.336C274.604 537.976 274.579 538.605 274.576 539.224L274.512 551.32C274.499 553.709 273.86 555.53 272.595 556.784C271.351 558.038 269.502 558.66 267.049 558.65ZM266.813 548.793C268.285 548.799 269.461 548.302 270.341 547.303C271.221 546.304 271.666 544.908 271.675 543.116C271.685 541.303 271.255 539.904 270.385 538.919C269.516 537.934 268.345 537.439 266.873 537.433C265.38 537.427 264.183 537.913 263.281 538.891C262.402 539.868 261.957 541.264 261.947 543.077C261.938 544.869 262.368 546.268 263.237 547.274C264.128 548.281 265.32 548.787 266.813 548.793ZM279.387 551.531L279.473 535.435L282.385 535.447L282.299 551.543L279.387 551.531ZM279.235 531.915L279.252 528.779L282.708 528.792L282.691 531.928L279.235 531.915ZM287.168 551.562L287.234 539.275C287.237 538.656 287.219 538.027 287.18 537.386C287.141 536.746 287.08 536.106 286.998 535.466L289.814 535.477L290.116 538.934L289.732 538.933C290.229 537.719 290.991 536.794 292.018 536.158C293.046 535.522 294.242 535.207 295.607 535.212C297.506 535.22 298.933 535.748 299.887 536.797C300.842 537.825 301.313 539.427 301.302 541.603L301.248 551.619L298.336 551.607L298.389 541.751C298.397 540.279 298.114 539.222 297.542 538.58C296.969 537.916 296.075 537.582 294.859 537.577C293.408 537.571 292.254 538.004 291.396 538.875C290.559 539.747 290.137 540.929 290.129 542.422L290.08 551.574L287.168 551.562ZM320.177 551.695L320.284 531.663L312.476 531.632L312.489 529.104L331.145 529.179L331.132 531.707L323.292 531.675L323.185 551.707L320.177 551.695ZM331.386 551.74L331.451 539.58C331.454 538.94 331.436 538.289 331.397 537.628C331.379 536.945 331.33 536.283 331.248 535.643L334.064 535.654L334.394 539.688L333.914 539.718C334.133 538.737 334.5 537.928 335.015 537.29C335.552 536.631 336.184 536.154 336.911 535.858C337.659 535.541 338.428 535.384 339.217 535.387C339.558 535.388 339.846 535.4 340.081 535.423C340.315 535.445 340.55 535.499 340.784 535.585L340.706 538.177C340.387 538.048 340.089 537.972 339.811 537.95C339.556 537.906 339.236 537.883 338.852 537.882C337.913 537.878 337.101 538.088 336.416 538.512C335.753 538.936 335.238 539.499 334.871 540.202C334.526 540.904 334.352 541.661 334.347 542.472L334.298 551.752L331.386 551.74ZM349.248 552.099C347.84 552.094 346.604 551.758 345.541 551.093C344.478 550.427 343.651 549.464 343.061 548.203C342.47 546.942 342.179 545.447 342.188 543.719C342.198 541.991 342.504 540.51 343.108 539.275C343.712 538.019 344.549 537.062 345.619 536.405C346.689 535.748 347.929 535.422 349.337 535.428C350.766 535.433 352.001 535.801 353.043 536.531C354.106 537.239 354.804 538.212 355.139 539.451L354.755 539.449L355.127 535.739L357.943 535.75C357.876 536.39 357.808 537.03 357.741 537.669C357.695 538.309 357.67 538.939 357.667 539.557L357.601 551.845L354.689 551.833L354.709 548.153L355.061 548.155C354.713 549.369 354.004 550.337 352.934 551.058C351.884 551.758 350.656 552.105 349.248 552.099ZM349.932 549.798C351.383 549.804 352.548 549.297 353.428 548.276C354.308 547.256 354.754 545.754 354.764 543.77C354.775 541.786 354.345 540.291 353.476 539.284C352.607 538.278 351.447 537.772 349.996 537.766C348.545 537.761 347.369 538.257 346.468 539.256C345.588 540.255 345.143 541.747 345.132 543.731C345.122 545.715 345.551 547.221 346.42 548.248C347.29 549.276 348.46 549.792 349.932 549.798ZM368.623 552.177C367.215 552.172 365.979 551.836 364.916 551.17C363.853 550.505 363.026 549.541 362.435 548.28C361.845 547.019 361.554 545.525 361.563 543.797C361.572 542.069 361.879 540.587 362.483 539.352C363.087 538.096 363.924 537.14 364.994 536.483C366.064 535.825 367.303 535.5 368.711 535.505C370.119 535.511 371.344 535.868 372.386 536.576C373.449 537.284 374.158 538.258 374.514 539.497L374.13 539.495L374.189 528.359L377.101 528.371L376.976 551.923L374.096 551.911L374.116 548.167L374.468 548.169C374.12 549.426 373.411 550.415 372.34 551.136C371.291 551.836 370.052 552.183 368.623 552.177ZM369.307 549.876C370.758 549.882 371.923 549.374 372.803 548.354C373.705 547.334 374.161 545.831 374.171 543.847C374.182 541.863 373.742 540.368 372.851 539.362C371.982 538.356 370.822 537.85 369.371 537.844C367.92 537.838 366.744 538.335 365.843 539.334C364.963 540.333 364.518 541.825 364.507 543.809C364.497 545.793 364.926 547.298 365.795 548.326C366.686 549.353 367.856 549.87 369.307 549.876ZM389.182 552.26C386.622 552.249 384.599 551.505 383.113 550.027C381.649 548.549 380.924 546.52 380.938 543.939C380.947 542.232 381.275 540.761 381.921 539.526C382.589 538.27 383.501 537.303 384.657 536.625C385.812 535.926 387.158 535.579 388.694 535.586C390.166 535.591 391.412 535.917 392.433 536.561C393.454 537.183 394.228 538.072 394.755 539.226C395.282 540.38 395.542 541.746 395.533 543.325L395.528 544.285L383.208 544.236L383.217 542.508L393.553 542.549L393.007 542.963C393.016 541.299 392.649 540.007 391.908 539.087C391.187 538.166 390.112 537.703 388.683 537.698C387.126 537.691 385.917 538.23 385.058 539.315C384.199 540.378 383.765 541.838 383.755 543.694L383.754 543.982C383.743 545.944 384.215 547.429 385.17 548.436C386.146 549.442 387.498 549.949 389.226 549.956C390.186 549.96 391.083 549.825 391.916 549.551C392.749 549.277 393.552 548.821 394.323 548.184L395.273 550.204C394.544 550.863 393.634 551.371 392.544 551.729C391.476 552.088 390.355 552.264 389.182 552.26Z" fill="#BA1E71"/>
<line x1="82.5" y1="323" x2="82.5" y2="541.807" stroke="#0FA9D9"/>
</svg>
