<svg width="646" height="627" viewBox="0 0 646 627" fill="none" xmlns="http://www.w3.org/2000/svg">
<path d="M368 335L314 379.167V290.833L368 335Z" fill="#4CC9F0"/>
<path fill-rule="evenodd" clip-rule="evenodd" d="M0.204542 379L54 335L0.204542 291H314V379H0.204542Z" fill="#4CC9F0"/>
<path d="M110.011 349V346.443L119.614 335.932C120.741 334.701 121.669 333.631 122.398 332.722C123.127 331.803 123.667 330.941 124.017 330.136C124.377 329.322 124.557 328.47 124.557 327.58C124.557 326.557 124.311 325.671 123.818 324.923C123.335 324.175 122.672 323.598 121.83 323.19C120.987 322.783 120.04 322.58 118.989 322.58C117.871 322.58 116.896 322.812 116.062 323.276C115.239 323.73 114.599 324.369 114.145 325.193C113.7 326.017 113.477 326.983 113.477 328.091H110.125C110.125 326.386 110.518 324.89 111.304 323.602C112.09 322.314 113.16 321.311 114.514 320.591C115.878 319.871 117.407 319.511 119.102 319.511C120.807 319.511 122.317 319.871 123.634 320.591C124.95 321.311 125.982 322.281 126.73 323.503C127.478 324.724 127.852 326.083 127.852 327.58C127.852 328.65 127.658 329.696 127.27 330.719C126.891 331.732 126.228 332.864 125.281 334.114C124.344 335.354 123.042 336.869 121.375 338.659L114.841 345.648V345.875H128.364V349H110.011ZM143.719 349.398C141.579 349.398 139.756 348.815 138.25 347.651C136.744 346.476 135.594 344.777 134.798 342.551C134.003 340.316 133.605 337.617 133.605 334.455C133.605 331.311 134.003 328.626 134.798 326.401C135.603 324.166 136.759 322.461 138.264 321.287C139.779 320.103 141.598 319.511 143.719 319.511C145.84 319.511 147.653 320.103 149.159 321.287C150.674 322.461 151.83 324.166 152.625 326.401C153.43 328.626 153.832 331.311 153.832 334.455C153.832 337.617 153.435 340.316 152.639 342.551C151.844 344.777 150.693 346.476 149.188 347.651C147.682 348.815 145.859 349.398 143.719 349.398ZM143.719 346.273C145.84 346.273 147.488 345.25 148.662 343.205C149.836 341.159 150.423 338.242 150.423 334.455C150.423 331.936 150.153 329.791 149.614 328.02C149.083 326.249 148.316 324.9 147.312 323.972C146.318 323.044 145.12 322.58 143.719 322.58C141.616 322.58 139.973 323.616 138.79 325.69C137.606 327.755 137.014 330.676 137.014 334.455C137.014 336.973 137.279 339.114 137.81 340.875C138.34 342.636 139.102 343.976 140.097 344.895C141.1 345.813 142.308 346.273 143.719 346.273ZM159.23 349V346.443L168.832 335.932C169.959 334.701 170.887 333.631 171.616 332.722C172.346 331.803 172.885 330.941 173.236 330.136C173.596 329.322 173.776 328.47 173.776 327.58C173.776 326.557 173.529 325.671 173.037 324.923C172.554 324.175 171.891 323.598 171.048 323.19C170.205 322.783 169.259 322.58 168.207 322.58C167.09 322.58 166.115 322.812 165.281 323.276C164.457 323.73 163.818 324.369 163.364 325.193C162.919 326.017 162.696 326.983 162.696 328.091H159.344C159.344 326.386 159.737 324.89 160.523 323.602C161.309 322.314 162.379 321.311 163.733 320.591C165.097 319.871 166.626 319.511 168.321 319.511C170.026 319.511 171.536 319.871 172.852 320.591C174.169 321.311 175.201 322.281 175.949 323.503C176.697 324.724 177.071 326.083 177.071 327.58C177.071 328.65 176.877 329.696 176.489 330.719C176.11 331.732 175.447 332.864 174.5 334.114C173.562 335.354 172.26 336.869 170.594 338.659L164.06 345.648V345.875H177.582V349H159.23ZM192.54 349.398C190.873 349.398 189.372 349.066 188.037 348.403C186.702 347.741 185.632 346.831 184.827 345.676C184.022 344.521 183.581 343.205 183.506 341.727H186.915C187.047 343.044 187.644 344.133 188.705 344.994C189.775 345.847 191.053 346.273 192.54 346.273C193.733 346.273 194.794 345.993 195.722 345.435C196.659 344.876 197.393 344.109 197.923 343.134C198.463 342.149 198.733 341.036 198.733 339.795C198.733 338.527 198.454 337.395 197.895 336.401C197.346 335.397 196.588 334.606 195.622 334.028C194.656 333.451 193.553 333.157 192.312 333.148C191.422 333.138 190.509 333.276 189.571 333.56C188.634 333.834 187.862 334.189 187.256 334.625L183.96 334.227L185.722 319.909H200.835V323.034H188.676L187.653 331.614H187.824C188.42 331.14 189.169 330.747 190.068 330.435C190.968 330.122 191.905 329.966 192.881 329.966C194.661 329.966 196.247 330.392 197.639 331.244C199.041 332.087 200.139 333.242 200.935 334.71C201.74 336.178 202.142 337.854 202.142 339.739C202.142 341.595 201.725 343.252 200.892 344.71C200.068 346.159 198.932 347.305 197.483 348.148C196.034 348.981 194.386 349.398 192.54 349.398ZM230.114 339.909H233.978L237.217 344.17L238.069 345.307L242.898 351.727H239.035L235.853 347.466L235.058 346.386L230.114 339.909ZM244.092 334.455C244.092 337.523 243.538 340.174 242.43 342.409C241.322 344.644 239.802 346.367 237.87 347.58C235.938 348.792 233.732 349.398 231.251 349.398C228.77 349.398 226.563 348.792 224.631 347.58C222.7 346.367 221.18 344.644 220.072 342.409C218.964 340.174 218.41 337.523 218.41 334.455C218.41 331.386 218.964 328.735 220.072 326.5C221.18 324.265 222.7 322.542 224.631 321.33C226.563 320.117 228.77 319.511 231.251 319.511C233.732 319.511 235.938 320.117 237.87 321.33C239.802 322.542 241.322 324.265 242.43 326.5C243.538 328.735 244.092 331.386 244.092 334.455ZM240.683 334.455C240.683 331.936 240.261 329.81 239.418 328.077C238.585 326.344 237.453 325.032 236.023 324.142C234.603 323.252 233.012 322.807 231.251 322.807C229.489 322.807 227.894 323.252 226.464 324.142C225.043 325.032 223.912 326.344 223.069 328.077C222.236 329.81 221.819 331.936 221.819 334.455C221.819 336.973 222.236 339.099 223.069 340.832C223.912 342.565 225.043 343.877 226.464 344.767C227.894 345.657 229.489 346.102 231.251 346.102C233.012 346.102 234.603 345.657 236.023 344.767C237.453 343.877 238.585 342.565 239.418 340.832C240.261 339.099 240.683 336.973 240.683 334.455ZM259.333 349.398C257.458 349.398 255.787 349.076 254.319 348.432C252.861 347.788 251.701 346.893 250.839 345.747C249.987 344.592 249.522 343.252 249.447 341.727H253.026C253.102 342.665 253.424 343.474 253.992 344.156C254.56 344.829 255.304 345.349 256.222 345.719C257.141 346.088 258.159 346.273 259.276 346.273C260.526 346.273 261.634 346.055 262.6 345.619C263.566 345.184 264.324 344.578 264.873 343.801C265.422 343.025 265.697 342.125 265.697 341.102C265.697 340.032 265.432 339.09 264.901 338.276C264.371 337.452 263.594 336.808 262.572 336.344C261.549 335.88 260.299 335.648 258.822 335.648H256.492V332.523H258.822C259.977 332.523 260.99 332.314 261.862 331.898C262.742 331.481 263.429 330.894 263.921 330.136C264.423 329.379 264.674 328.489 264.674 327.466C264.674 326.481 264.456 325.624 264.021 324.895C263.585 324.166 262.969 323.598 262.174 323.19C261.388 322.783 260.46 322.58 259.39 322.58C258.386 322.58 257.439 322.764 256.549 323.134C255.668 323.493 254.949 324.019 254.39 324.71C253.831 325.392 253.528 326.216 253.481 327.182H250.072C250.129 325.657 250.588 324.322 251.45 323.176C252.311 322.021 253.438 321.121 254.83 320.477C256.232 319.833 257.771 319.511 259.447 319.511C261.246 319.511 262.79 319.876 264.077 320.605C265.365 321.325 266.355 322.277 267.046 323.46C267.737 324.644 268.083 325.922 268.083 327.295C268.083 328.934 267.652 330.33 266.79 331.486C265.938 332.641 264.778 333.441 263.31 333.886V334.114C265.147 334.417 266.582 335.198 267.614 336.457C268.647 337.707 269.163 339.256 269.163 341.102C269.163 342.684 268.732 344.104 267.87 345.364C267.018 346.614 265.853 347.598 264.376 348.318C262.898 349.038 261.218 349.398 259.333 349.398Z" fill="black"/>
<circle cx="93.5" cy="335.5" r="8.5" fill="#D9D9D9"/>
<path d="M93.2158 29.152C92.1705 29.152 91.1998 28.9067 90.3038 28.416C89.4078 27.904 88.6932 27.2107 88.1598 26.336C87.6265 25.4613 87.3598 24.4907 87.3598 23.424C87.3598 22.4427 87.6052 21.5147 88.0958 20.64C88.6078 19.7653 89.3012 19.0613 90.1758 18.528C91.0718 17.9733 92.0852 17.696 93.2158 17.696C94.2612 17.696 95.2212 17.952 96.0958 18.464C96.9705 18.9547 97.6745 19.6267 98.2078 20.48C98.7625 21.3333 99.0398 22.3147 99.0398 23.424C99.0398 24.4693 98.7732 25.4293 98.2398 26.304C97.7278 27.1787 97.0238 27.872 96.1278 28.384C95.2532 28.896 94.2825 29.152 93.2158 29.152ZM119.957 32V9.44H122.581L131.477 29.472H130.517L139.413 9.44H142.005V32H139.285V13.408H140.277L131.925 32H130.037L121.685 13.408H122.677V32H119.957ZM154.527 32.288C151.967 32.288 149.94 31.552 148.447 30.08C146.975 28.608 146.239 26.5813 146.239 24C146.239 22.2933 146.559 20.8213 147.199 19.584C147.86 18.3253 148.767 17.3547 149.919 16.672C151.071 15.968 152.415 15.616 153.951 15.616C155.423 15.616 156.671 15.936 157.695 16.576C158.719 17.1947 159.498 18.08 160.031 19.232C160.564 20.384 160.831 21.7493 160.831 23.328V24.288H148.511V22.56H158.847L158.303 22.976C158.303 21.312 157.93 20.0213 157.183 19.104C156.458 18.1867 155.38 17.728 153.951 17.728C152.394 17.728 151.188 18.272 150.335 19.36C149.482 20.4267 149.055 21.888 149.055 23.744V24.032C149.055 25.9947 149.535 27.4773 150.495 28.48C151.476 29.4827 152.831 29.984 154.559 29.984C155.519 29.984 156.415 29.8453 157.247 29.568C158.079 29.2907 158.879 28.832 159.647 28.192L160.607 30.208C159.882 30.8693 158.975 31.3813 157.887 31.744C156.82 32.1067 155.7 32.288 154.527 32.288ZM170.621 32.288C168.936 32.288 167.656 31.8293 166.781 30.912C165.928 29.9733 165.501 28.5653 165.501 26.688V18.144H162.365V15.904H165.501V11.584L168.413 10.784V15.904H172.957V18.144H168.413V26.432C168.413 27.6693 168.627 28.5547 169.053 29.088C169.501 29.6 170.141 29.856 170.973 29.856C171.4 29.856 171.763 29.824 172.061 29.76C172.381 29.6747 172.669 29.5787 172.925 29.472V31.872C172.605 32 172.232 32.096 171.805 32.16C171.4 32.2453 171.005 32.288 170.621 32.288ZM182.156 32.288C180.748 32.288 179.51 31.9573 178.444 31.296C177.377 30.6347 176.545 29.6747 175.948 28.416C175.35 27.1573 175.052 25.664 175.052 23.936C175.052 22.208 175.35 20.7253 175.948 19.488C176.545 18.2293 177.377 17.2693 178.444 16.608C179.51 15.9467 180.748 15.616 182.156 15.616C183.585 15.616 184.822 15.9787 185.868 16.704C186.934 17.408 187.638 18.3787 187.98 19.616H187.596L187.948 15.904H190.764C190.7 16.544 190.636 17.184 190.572 17.824C190.529 18.464 190.508 19.0933 190.508 19.712V32H187.596V28.32H187.948C187.606 29.536 186.902 30.5067 185.836 31.232C184.79 31.936 183.564 32.288 182.156 32.288ZM182.828 29.984C184.278 29.984 185.441 29.472 186.316 28.448C187.19 27.424 187.628 25.92 187.628 23.936C187.628 21.952 187.19 20.4587 186.316 19.456C185.441 18.4533 184.278 17.952 182.828 17.952C181.377 17.952 180.204 18.4533 179.308 19.456C178.433 20.4587 177.996 21.952 177.996 23.936C177.996 25.92 178.433 27.424 179.308 28.448C180.182 29.472 181.356 29.984 182.828 29.984ZM199.966 32L193.086 15.904H196.222L201.822 29.728H200.926L206.622 15.904H209.598L202.686 32H199.966ZM219.402 32.288C216.842 32.288 214.815 31.552 213.322 30.08C211.85 28.608 211.114 26.5813 211.114 24C211.114 22.2933 211.434 20.8213 212.074 19.584C212.735 18.3253 213.642 17.3547 214.794 16.672C215.946 15.968 217.29 15.616 218.826 15.616C220.298 15.616 221.546 15.936 222.57 16.576C223.594 17.1947 224.373 18.08 224.906 19.232C225.439 20.384 225.706 21.7493 225.706 23.328V24.288H213.386V22.56H223.722L223.178 22.976C223.178 21.312 222.805 20.0213 222.058 19.104C221.333 18.1867 220.255 17.728 218.826 17.728C217.269 17.728 216.063 18.272 215.21 19.36C214.357 20.4267 213.93 21.888 213.93 23.744V24.032C213.93 25.9947 214.41 27.4773 215.37 28.48C216.351 29.4827 217.706 29.984 219.434 29.984C220.394 29.984 221.29 29.8453 222.122 29.568C222.954 29.2907 223.754 28.832 224.522 28.192L225.482 30.208C224.757 30.8693 223.85 31.3813 222.762 31.744C221.695 32.1067 220.575 32.288 219.402 32.288ZM229.48 32V19.84C229.48 19.2 229.458 18.5493 229.416 17.888C229.394 17.2053 229.341 16.544 229.256 15.904H232.072L232.424 19.936L231.944 19.968C232.157 18.9867 232.52 18.176 233.032 17.536C233.565 16.8747 234.194 16.3947 234.92 16.096C235.666 15.776 236.434 15.616 237.224 15.616C237.565 15.616 237.853 15.6267 238.088 15.648C238.322 15.6693 238.557 15.7227 238.792 15.808L238.728 18.4C238.408 18.272 238.109 18.1973 237.832 18.176C237.576 18.1333 237.256 18.112 236.872 18.112C235.933 18.112 235.122 18.3253 234.44 18.752C233.778 19.1787 233.266 19.744 232.904 20.448C232.562 21.152 232.392 21.9093 232.392 22.72V32H229.48ZM246.639 32.288C245.338 32.288 244.122 32.1173 242.991 31.776C241.882 31.4347 240.964 30.944 240.239 30.304L241.167 28.288C241.956 28.8853 242.82 29.344 243.759 29.664C244.719 29.9627 245.7 30.112 246.703 30.112C247.919 30.112 248.836 29.888 249.455 29.44C250.095 28.992 250.415 28.3947 250.415 27.648C250.415 27.0507 250.212 26.5707 249.807 26.208C249.402 25.8453 248.762 25.5787 247.887 25.408L244.847 24.8C243.482 24.48 242.447 23.968 241.743 23.264C241.06 22.5387 240.719 21.6107 240.719 20.48C240.719 19.5413 240.975 18.7093 241.487 17.984C241.999 17.2373 242.724 16.6613 243.663 16.256C244.623 15.8293 245.743 15.616 247.023 15.616C248.196 15.616 249.284 15.7867 250.287 16.128C251.311 16.4693 252.154 16.9707 252.815 17.632L251.855 19.584C251.194 19.008 250.447 18.5707 249.615 18.272C248.804 17.952 247.972 17.792 247.119 17.792C245.882 17.792 244.964 18.0373 244.367 18.528C243.77 18.9973 243.471 19.616 243.471 20.384C243.471 20.96 243.652 21.44 244.015 21.824C244.378 22.1867 244.964 22.464 245.775 22.656L248.815 23.264C250.244 23.5627 251.322 24.0533 252.047 24.736C252.772 25.4187 253.135 26.3253 253.135 27.456C253.135 28.4587 252.858 29.3227 252.303 30.048C251.77 30.7733 251.012 31.328 250.031 31.712C249.071 32.096 247.94 32.288 246.639 32.288ZM264.433 32.288C261.873 32.288 259.847 31.552 258.353 30.08C256.881 28.608 256.145 26.5813 256.145 24C256.145 22.2933 256.465 20.8213 257.105 19.584C257.767 18.3253 258.673 17.3547 259.825 16.672C260.977 15.968 262.321 15.616 263.857 15.616C265.329 15.616 266.577 15.936 267.601 16.576C268.625 17.1947 269.404 18.08 269.937 19.232C270.471 20.384 270.737 21.7493 270.737 23.328V24.288H258.417V22.56H268.753L268.209 22.976C268.209 21.312 267.836 20.0213 267.089 19.104C266.364 18.1867 265.287 17.728 263.857 17.728C262.3 17.728 261.095 18.272 260.241 19.36C259.388 20.4267 258.961 21.888 258.961 23.744V24.032C258.961 25.9947 259.441 27.4773 260.401 28.48C261.383 29.4827 262.737 29.984 264.465 29.984C265.425 29.984 266.321 29.8453 267.153 29.568C267.985 29.2907 268.785 28.832 269.553 28.192L270.513 30.208C269.788 30.8693 268.881 31.3813 267.793 31.744C266.727 32.1067 265.607 32.288 264.433 32.288ZM288.708 32V11.968H280.9V9.44H299.556V11.968H291.716V32H288.708ZM307.277 32.288C304.717 32.288 302.69 31.552 301.197 30.08C299.725 28.608 298.989 26.5813 298.989 24C298.989 22.2933 299.309 20.8213 299.949 19.584C300.61 18.3253 301.517 17.3547 302.669 16.672C303.821 15.968 305.165 15.616 306.701 15.616C308.173 15.616 309.421 15.936 310.445 16.576C311.469 17.1947 312.248 18.08 312.781 19.232C313.314 20.384 313.581 21.7493 313.581 23.328V24.288H301.261V22.56H311.597L311.053 22.976C311.053 21.312 310.68 20.0213 309.933 19.104C309.208 18.1867 308.13 17.728 306.701 17.728C305.144 17.728 303.938 18.272 303.085 19.36C302.232 20.4267 301.805 21.888 301.805 23.744V24.032C301.805 25.9947 302.285 27.4773 303.245 28.48C304.226 29.4827 305.581 29.984 307.309 29.984C308.269 29.984 309.165 29.8453 309.997 29.568C310.829 29.2907 311.629 28.832 312.397 28.192L313.357 30.208C312.632 30.8693 311.725 31.3813 310.637 31.744C309.57 32.1067 308.45 32.288 307.277 32.288ZM322.827 32.288C321.525 32.288 320.309 32.1173 319.179 31.776C318.069 31.4347 317.152 30.944 316.427 30.304L317.355 28.288C318.144 28.8853 319.008 29.344 319.947 29.664C320.907 29.9627 321.888 30.112 322.891 30.112C324.107 30.112 325.024 29.888 325.643 29.44C326.283 28.992 326.603 28.3947 326.603 27.648C326.603 27.0507 326.4 26.5707 325.995 26.208C325.589 25.8453 324.949 25.5787 324.075 25.408L321.035 24.8C319.669 24.48 318.635 23.968 317.931 23.264C317.248 22.5387 316.907 21.6107 316.907 20.48C316.907 19.5413 317.163 18.7093 317.675 17.984C318.187 17.2373 318.912 16.6613 319.851 16.256C320.811 15.8293 321.931 15.616 323.211 15.616C324.384 15.616 325.472 15.7867 326.475 16.128C327.499 16.4693 328.341 16.9707 329.003 17.632L328.043 19.584C327.381 19.008 326.635 18.5707 325.803 18.272C324.992 17.952 324.16 17.792 323.307 17.792C322.069 17.792 321.152 18.0373 320.555 18.528C319.957 18.9973 319.659 19.616 319.659 20.384C319.659 20.96 319.84 21.44 320.203 21.824C320.565 22.1867 321.152 22.464 321.963 22.656L325.003 23.264C326.432 23.5627 327.509 24.0533 328.235 24.736C328.96 25.4187 329.323 26.3253 329.323 27.456C329.323 28.4587 329.045 29.3227 328.491 30.048C327.957 30.7733 327.2 31.328 326.219 31.712C325.259 32.096 324.128 32.288 322.827 32.288ZM339.153 32.288C337.467 32.288 336.187 31.8293 335.313 30.912C334.459 29.9733 334.033 28.5653 334.033 26.688V18.144H330.897V15.904H334.033V11.584L336.945 10.784V15.904H341.489V18.144H336.945V26.432C336.945 27.6693 337.158 28.5547 337.585 29.088C338.033 29.6 338.673 29.856 339.505 29.856C339.931 29.856 340.294 29.824 340.593 29.76C340.913 29.6747 341.201 29.5787 341.457 29.472V31.872C341.137 32 340.763 32.096 340.337 32.16C339.931 32.2453 339.537 32.288 339.153 32.288ZM344.543 32V19.712C344.543 19.0933 344.522 18.464 344.479 17.824C344.436 17.184 344.372 16.544 344.287 15.904H347.103L347.423 19.36H347.039C347.53 18.144 348.287 17.216 349.311 16.576C350.335 15.936 351.53 15.616 352.895 15.616C354.794 15.616 356.223 16.1387 357.183 17.184C358.143 18.208 358.623 19.808 358.623 21.984V32H355.711V22.144C355.711 20.672 355.423 19.616 354.847 18.976C354.271 18.3147 353.375 17.984 352.159 17.984C350.708 17.984 349.556 18.4213 348.703 19.296C347.871 20.1707 347.455 21.3547 347.455 22.848V32H344.543ZM370.715 32.288C368.155 32.288 366.128 31.552 364.635 30.08C363.163 28.608 362.427 26.5813 362.427 24C362.427 22.2933 362.747 20.8213 363.387 19.584C364.048 18.3253 364.955 17.3547 366.107 16.672C367.259 15.968 368.603 15.616 370.139 15.616C371.611 15.616 372.859 15.936 373.883 16.576C374.907 17.1947 375.685 18.08 376.219 19.232C376.752 20.384 377.019 21.7493 377.019 23.328V24.288H364.699V22.56H375.035L374.491 22.976C374.491 21.312 374.117 20.0213 373.371 19.104C372.645 18.1867 371.568 17.728 370.139 17.728C368.581 17.728 367.376 18.272 366.523 19.36C365.669 20.4267 365.243 21.888 365.243 23.744V24.032C365.243 25.9947 365.723 27.4773 366.683 28.48C367.664 29.4827 369.019 29.984 370.747 29.984C371.707 29.984 372.603 29.8453 373.435 29.568C374.267 29.2907 375.067 28.832 375.835 28.192L376.795 30.208C376.069 30.8693 375.163 31.3813 374.075 31.744C373.008 32.1067 371.888 32.288 370.715 32.288ZM386.809 32.288C385.124 32.288 383.844 31.8293 382.969 30.912C382.116 29.9733 381.689 28.5653 381.689 26.688V18.144H378.553V15.904H381.689V11.584L384.601 10.784V15.904H389.145V18.144H384.601V26.432C384.601 27.6693 384.814 28.5547 385.241 29.088C385.689 29.6 386.329 29.856 387.161 29.856C387.588 29.856 387.95 29.824 388.249 29.76C388.569 29.6747 388.857 29.5787 389.113 29.472V31.872C388.793 32 388.42 32.096 387.993 32.16C387.588 32.2453 387.193 32.288 386.809 32.288Z" fill="#4CC9F0"/>
<line x1="94.5" y1="20" x2="94.5" y2="335" stroke="#0FA9D9"/>
</svg>
