<svg width="645" height="627" viewBox="0 0 645 627" fill="none" xmlns="http://www.w3.org/2000/svg">
<path d="M368 327.731L313.97 371.899V283.564L368 327.731Z" fill="#BA1E71"/>
<path fill-rule="evenodd" clip-rule="evenodd" d="M-0.000148057 371.731L53.8252 327.731L-0.000148057 283.731H313.97V371.731H-0.000148057Z" fill="#BA1E71"/>
<path d="M135.011 342V339.443L144.614 328.932C145.741 327.701 146.669 326.631 147.398 325.722C148.127 324.803 148.667 323.941 149.017 323.136C149.377 322.322 149.557 321.47 149.557 320.58C149.557 319.557 149.311 318.671 148.818 317.923C148.335 317.175 147.672 316.598 146.83 316.19C145.987 315.783 145.04 315.58 143.989 315.58C142.871 315.58 141.896 315.812 141.062 316.276C140.239 316.73 139.599 317.369 139.145 318.193C138.7 319.017 138.477 319.983 138.477 321.091H135.125C135.125 319.386 135.518 317.89 136.304 316.602C137.09 315.314 138.16 314.311 139.514 313.591C140.878 312.871 142.407 312.511 144.102 312.511C145.807 312.511 147.317 312.871 148.634 313.591C149.95 314.311 150.982 315.281 151.73 316.503C152.478 317.724 152.852 319.083 152.852 320.58C152.852 321.65 152.658 322.696 152.27 323.719C151.891 324.732 151.228 325.864 150.281 327.114C149.344 328.354 148.042 329.869 146.375 331.659L139.841 338.648V338.875H153.364V342H135.011ZM168.719 342.398C166.579 342.398 164.756 341.815 163.25 340.651C161.744 339.476 160.594 337.777 159.798 335.551C159.003 333.316 158.605 330.617 158.605 327.455C158.605 324.311 159.003 321.626 159.798 319.401C160.603 317.166 161.759 315.461 163.264 314.287C164.779 313.103 166.598 312.511 168.719 312.511C170.84 312.511 172.653 313.103 174.159 314.287C175.674 315.461 176.83 317.166 177.625 319.401C178.43 321.626 178.832 324.311 178.832 327.455C178.832 330.617 178.435 333.316 177.639 335.551C176.844 337.777 175.693 339.476 174.188 340.651C172.682 341.815 170.859 342.398 168.719 342.398ZM168.719 339.273C170.84 339.273 172.488 338.25 173.662 336.205C174.836 334.159 175.423 331.242 175.423 327.455C175.423 324.936 175.153 322.791 174.614 321.02C174.083 319.249 173.316 317.9 172.312 316.972C171.318 316.044 170.12 315.58 168.719 315.58C166.616 315.58 164.973 316.616 163.79 318.69C162.606 320.755 162.014 323.676 162.014 327.455C162.014 329.973 162.279 332.114 162.81 333.875C163.34 335.636 164.102 336.976 165.097 337.895C166.1 338.813 167.308 339.273 168.719 339.273ZM184.23 342V339.443L193.832 328.932C194.959 327.701 195.887 326.631 196.616 325.722C197.346 324.803 197.885 323.941 198.236 323.136C198.596 322.322 198.776 321.47 198.776 320.58C198.776 319.557 198.529 318.671 198.037 317.923C197.554 317.175 196.891 316.598 196.048 316.19C195.205 315.783 194.259 315.58 193.207 315.58C192.09 315.58 191.115 315.812 190.281 316.276C189.457 316.73 188.818 317.369 188.364 318.193C187.919 319.017 187.696 319.983 187.696 321.091H184.344C184.344 319.386 184.737 317.89 185.523 316.602C186.309 315.314 187.379 314.311 188.733 313.591C190.097 312.871 191.626 312.511 193.321 312.511C195.026 312.511 196.536 312.871 197.852 313.591C199.169 314.311 200.201 315.281 200.949 316.503C201.697 317.724 202.071 319.083 202.071 320.58C202.071 321.65 201.877 322.696 201.489 323.719C201.11 324.732 200.447 325.864 199.5 327.114C198.562 328.354 197.26 329.869 195.594 331.659L189.06 338.648V338.875H202.582V342H184.23ZM207.142 336.034V333.136L219.926 312.909H222.028V317.398H220.608L210.949 332.682V332.909H228.165V336.034H207.142ZM220.835 342V335.153V333.804V312.909H224.188V342H220.835ZM255.817 332.909H259.681L262.92 337.17L263.772 338.307L268.602 344.727H264.738L261.556 340.466L260.761 339.386L255.817 332.909ZM269.795 327.455C269.795 330.523 269.241 333.174 268.133 335.409C267.025 337.644 265.505 339.367 263.573 340.58C261.641 341.792 259.435 342.398 256.954 342.398C254.473 342.398 252.266 341.792 250.335 340.58C248.403 339.367 246.883 337.644 245.775 335.409C244.667 333.174 244.113 330.523 244.113 327.455C244.113 324.386 244.667 321.735 245.775 319.5C246.883 317.265 248.403 315.542 250.335 314.33C252.266 313.117 254.473 312.511 256.954 312.511C259.435 312.511 261.641 313.117 263.573 314.33C265.505 315.542 267.025 317.265 268.133 319.5C269.241 321.735 269.795 324.386 269.795 327.455ZM266.386 327.455C266.386 324.936 265.964 322.81 265.121 321.077C264.288 319.344 263.156 318.032 261.727 317.142C260.306 316.252 258.715 315.807 256.954 315.807C255.192 315.807 253.597 316.252 252.167 317.142C250.746 318.032 249.615 319.344 248.772 321.077C247.939 322.81 247.522 324.936 247.522 327.455C247.522 329.973 247.939 332.099 248.772 333.832C249.615 335.565 250.746 336.877 252.167 337.767C253.597 338.657 255.192 339.102 256.954 339.102C258.715 339.102 260.306 338.657 261.727 337.767C263.156 336.877 264.288 335.565 265.121 333.832C265.964 332.099 266.386 329.973 266.386 327.455ZM275.207 342V339.443L284.809 328.932C285.936 327.701 286.864 326.631 287.593 325.722C288.322 324.803 288.862 323.941 289.212 323.136C289.572 322.322 289.752 321.47 289.752 320.58C289.752 319.557 289.506 318.671 289.013 317.923C288.531 317.175 287.868 316.598 287.025 316.19C286.182 315.783 285.235 315.58 284.184 315.58C283.067 315.58 282.091 315.812 281.258 316.276C280.434 316.73 279.795 317.369 279.34 318.193C278.895 319.017 278.673 319.983 278.673 321.091H275.32C275.32 319.386 275.713 317.89 276.499 316.602C277.285 315.314 278.355 314.311 279.71 313.591C281.073 312.871 282.603 312.511 284.298 312.511C286.002 312.511 287.513 312.871 288.829 313.591C290.145 314.311 291.177 315.281 291.925 316.503C292.674 317.724 293.048 319.083 293.048 320.58C293.048 321.65 292.853 322.696 292.465 323.719C292.086 324.732 291.424 325.864 290.477 327.114C289.539 328.354 288.237 329.869 286.57 331.659L280.036 338.648V338.875H293.559V342H275.207Z" fill="black"/>
<ellipse cx="85.4657" cy="328.225" rx="9.4657" ry="8.22454" fill="#D9D9D9"/>
<path d="M83.3708 427.896C82.3255 427.892 81.3561 427.643 80.4627 427.148C79.5695 426.633 78.8585 425.937 78.3298 425.06C77.8011 424.183 77.5396 423.211 77.5453 422.145C77.5505 421.163 77.8008 420.236 78.2961 419.364C78.8127 418.491 79.5098 417.79 80.3873 417.26C81.2862 416.709 82.301 416.436 83.4317 416.44C84.477 416.444 85.4356 416.704 86.3076 417.22C87.1796 417.714 87.8801 418.389 88.4089 419.244C88.959 420.1 89.2311 421.082 89.2252 422.192C89.2196 423.237 88.9479 424.196 88.4099 425.068C87.8933 425.941 87.1856 426.631 86.2869 427.14C85.4095 427.648 84.4375 427.9 83.3708 427.896ZM120.047 431.179C117.785 431.17 115.846 430.693 114.23 429.748C112.635 428.803 111.416 427.465 110.571 425.733C109.727 423.98 109.312 421.92 109.324 419.552C109.337 417.184 109.774 415.138 110.637 413.413C111.499 411.689 112.733 410.36 114.338 409.428C115.964 408.496 117.908 408.034 120.17 408.044C121.791 408.05 123.23 408.301 124.486 408.797C125.742 409.271 126.837 409.969 127.771 410.89L126.67 413.286C125.651 412.386 124.641 411.742 123.64 411.354C122.661 410.944 121.521 410.737 120.219 410.732C117.723 410.722 115.81 411.482 114.479 413.013C113.148 414.543 112.475 416.727 112.46 419.565C112.445 422.402 113.095 424.602 114.409 426.165C115.724 427.706 117.629 428.482 120.125 428.492C121.426 428.497 122.569 428.309 123.552 427.929C124.557 427.528 125.574 426.881 126.602 425.989L127.678 428.362C126.734 429.275 125.621 429.975 124.338 430.46C123.077 430.946 121.647 431.186 120.047 431.179ZM131.65 430.938L131.715 418.778C131.718 418.138 131.7 417.487 131.661 416.826C131.644 416.143 131.594 415.481 131.512 414.841L134.328 414.852L134.658 418.886L134.178 418.916C134.397 417.935 134.764 417.126 135.279 416.488C135.816 415.829 136.448 415.352 137.175 415.056C137.923 414.739 138.692 414.582 139.481 414.585C139.823 414.586 140.111 414.598 140.345 414.621C140.58 414.643 140.814 414.697 141.048 414.783L140.97 417.375C140.651 417.246 140.353 417.17 140.076 417.147C139.82 417.104 139.5 417.081 139.116 417.08C138.177 417.076 137.366 417.286 136.681 417.71C136.017 418.134 135.502 418.697 135.136 419.4C134.791 420.102 134.616 420.859 134.612 421.67L134.562 430.949L131.65 430.938ZM150.09 431.3C148.511 431.293 147.147 430.957 145.999 430.291C144.851 429.604 143.96 428.64 143.326 427.401C142.693 426.139 142.381 424.645 142.39 422.917C142.399 421.21 142.727 419.739 143.374 418.505C144.02 417.249 144.921 416.292 146.077 415.636C147.232 414.958 148.6 414.622 150.178 414.628C151.757 414.634 153.12 414.981 154.269 415.668C155.439 416.334 156.329 417.298 156.941 418.559C157.575 419.799 157.887 421.272 157.878 422.979C157.869 424.707 157.541 426.199 156.894 427.455C156.269 428.69 155.368 429.646 154.191 430.324C153.035 430.981 151.668 431.306 150.09 431.3ZM150.102 428.996C151.553 429.002 152.718 428.494 153.598 427.474C154.478 426.453 154.923 424.951 154.934 422.967C154.944 420.983 154.515 419.488 153.646 418.482C152.776 417.476 151.616 416.97 150.166 416.964C148.694 416.958 147.518 417.455 146.638 418.454C145.779 419.453 145.345 420.945 145.334 422.929C145.323 424.913 145.742 426.418 146.59 427.446C147.459 428.473 148.63 428.99 150.102 428.996ZM167.183 431.368C165.882 431.363 164.667 431.188 163.538 430.842C162.43 430.496 161.515 430.002 160.794 429.359L161.732 427.346C162.518 427.947 163.38 428.409 164.317 428.733C165.275 429.035 166.256 429.189 167.259 429.193C168.475 429.197 169.393 428.977 170.014 428.532C170.656 428.086 170.98 427.49 170.984 426.744C170.987 426.146 170.787 425.665 170.383 425.301C169.98 424.937 169.341 424.668 168.468 424.493L165.431 423.873C164.067 423.548 163.035 423.032 162.335 422.325C161.656 421.597 161.32 420.667 161.326 419.537C161.331 418.598 161.591 417.767 162.107 417.044C162.623 416.299 163.351 415.726 164.292 415.325C165.254 414.902 166.376 414.693 167.656 414.698C168.829 414.703 169.916 414.878 170.917 415.223C171.939 415.569 172.779 416.073 173.437 416.737L172.466 418.685C171.808 418.107 171.064 417.666 170.233 417.364C169.424 417.041 168.593 416.878 167.74 416.874C166.503 416.869 165.584 417.111 164.984 417.599C164.384 418.066 164.082 418.684 164.078 419.452C164.075 420.028 164.254 420.508 164.615 420.894C164.975 421.258 165.561 421.538 166.37 421.733L169.407 422.353C170.835 422.658 171.909 423.153 172.631 423.838C173.353 424.524 173.711 425.432 173.705 426.562C173.699 427.565 173.417 428.428 172.859 429.151C172.322 429.874 171.561 430.426 170.578 430.806C169.616 431.186 168.484 431.374 167.183 431.368ZM183.089 431.432C181.788 431.427 180.573 431.251 179.444 430.905C178.336 430.56 177.422 430.065 176.7 429.422L177.638 427.41C178.425 428.011 179.286 428.473 180.223 428.797C181.181 429.099 182.162 429.252 183.165 429.256C184.381 429.261 185.299 429.041 185.92 428.595C186.563 428.15 186.886 427.554 186.89 426.807C186.893 426.21 186.693 425.729 186.289 425.365C185.886 425.001 185.247 424.731 184.374 424.557L181.337 423.937C179.973 423.612 178.941 423.095 178.241 422.389C177.562 421.661 177.226 420.731 177.232 419.601C177.237 418.662 177.497 417.831 178.013 417.108C178.529 416.363 179.257 415.79 180.198 415.388C181.161 414.966 182.282 414.757 183.562 414.762C184.735 414.767 185.822 414.942 186.823 415.287C187.845 415.632 188.685 416.137 189.343 416.801L188.373 418.749C187.714 418.171 186.97 417.73 186.14 417.428C185.331 417.105 184.499 416.942 183.646 416.938C182.409 416.933 181.49 417.175 180.89 417.663C180.29 418.13 179.988 418.748 179.984 419.516C179.981 420.092 180.16 420.572 180.521 420.958C180.881 421.322 181.467 421.602 182.276 421.797L185.313 422.417C186.741 422.721 187.815 423.216 188.537 423.902C189.259 424.587 189.617 425.496 189.611 426.626C189.605 427.629 189.323 428.492 188.765 429.215C188.228 429.938 187.467 430.49 186.484 430.87C185.522 431.25 184.39 431.437 183.089 431.432ZM200.467 431.502C198.867 431.495 197.482 431.159 196.313 430.493C195.143 429.806 194.231 428.831 193.576 427.57C192.943 426.288 192.631 424.772 192.64 423.022C192.649 421.294 192.988 419.824 193.656 418.61C194.324 417.376 195.246 416.441 196.423 415.805C197.599 415.149 198.977 414.824 200.556 414.83C201.601 414.834 202.613 415.02 203.593 415.386C204.572 415.732 205.37 416.236 205.985 416.9L204.982 418.944C204.367 418.344 203.686 417.904 202.941 417.624C202.196 417.322 201.461 417.17 200.735 417.167C199.157 417.16 197.917 417.667 197.015 418.688C196.114 419.687 195.658 421.146 195.648 423.066C195.638 425.008 196.078 426.503 196.968 427.552C197.859 428.601 199.093 429.128 200.672 429.135C201.376 429.137 202.102 429.002 202.85 428.727C203.598 428.453 204.294 428.018 204.937 427.424L205.918 429.444C205.275 430.124 204.45 430.643 203.446 431.002C202.463 431.339 201.47 431.506 200.467 431.502ZM209.463 431.25L209.588 407.698L212.5 407.71L212.442 418.654L212.026 418.652C212.502 417.417 213.264 416.481 214.313 415.845C215.362 415.209 216.569 414.894 217.934 414.9C219.875 414.908 221.302 415.436 222.214 416.485C223.147 417.534 223.608 419.115 223.596 421.227L223.543 431.306L220.631 431.295L220.684 421.375C220.691 419.946 220.419 418.91 219.868 418.268C219.317 417.604 218.412 417.27 217.153 417.265C215.745 417.259 214.602 417.692 213.722 418.563C212.864 419.434 212.432 420.595 212.424 422.046L212.375 431.262L209.463 431.25ZM234.449 431.638C233.041 431.632 231.805 431.297 230.742 430.631C229.679 429.966 228.852 429.002 228.262 427.741C227.671 426.48 227.38 424.986 227.389 423.258C227.399 421.53 227.705 420.048 228.309 418.813C228.913 417.557 229.75 416.601 230.82 415.943C231.89 415.286 233.13 414.961 234.538 414.966C235.967 414.972 237.202 415.34 238.244 416.069C239.307 416.778 240.005 417.751 240.34 418.99L239.956 418.988L240.328 415.278L243.144 415.289C243.077 415.929 243.009 416.568 242.942 417.208C242.896 417.848 242.871 418.477 242.868 419.096L242.802 431.384L239.89 431.372L239.91 427.692L240.262 427.693C239.914 428.908 239.205 429.876 238.135 430.597C237.085 431.297 235.857 431.644 234.449 431.638ZM235.133 429.337C236.584 429.343 237.749 428.835 238.629 427.815C239.509 426.794 239.955 425.292 239.965 423.308C239.976 421.324 239.546 419.829 238.677 418.823C237.808 417.817 236.648 417.311 235.197 417.305C233.746 417.299 232.57 417.796 231.669 418.795C230.789 419.794 230.344 421.286 230.333 423.27C230.323 425.254 230.752 426.759 231.621 427.787C232.491 428.814 233.661 429.331 235.133 429.337ZM247.681 431.403L247.767 415.307L250.679 415.319L250.593 431.415L247.681 431.403ZM247.53 411.786L247.546 408.651L251.002 408.664L250.986 411.8L247.53 411.786ZM255.463 431.434L255.528 419.147C255.531 418.528 255.513 417.899 255.474 417.258C255.435 416.618 255.374 415.978 255.292 415.338L258.108 415.349L258.41 418.806L258.026 418.805C258.523 417.591 259.285 416.666 260.312 416.03C261.34 415.394 262.536 415.079 263.902 415.084C265.8 415.092 267.227 415.62 268.181 416.669C269.136 417.697 269.607 419.299 269.596 421.475L269.542 431.491L266.63 431.479L266.683 421.623C266.691 420.151 266.408 419.094 265.836 418.452C265.263 417.788 264.369 417.454 263.153 417.449C261.702 417.443 260.548 417.876 259.69 418.747C258.853 419.619 258.431 420.801 258.423 422.294L258.375 431.446L255.463 431.434ZM283.064 431.545L283.183 408.985L286.159 408.997L286.04 431.557L283.064 431.545ZM291.181 431.578L291.246 419.29C291.25 418.671 291.232 418.042 291.192 417.402C291.153 416.761 291.092 416.121 291.011 415.481L293.827 415.492L294.128 418.949L293.744 418.948C294.177 417.755 294.865 416.84 295.807 416.204C296.749 415.547 297.871 415.22 299.172 415.226C300.495 415.231 301.581 415.555 302.431 416.199C303.281 416.821 303.852 417.804 304.143 419.15L303.663 419.148C304.075 417.955 304.795 417.008 305.822 416.308C306.85 415.608 308.047 415.261 309.412 415.267C311.183 415.274 312.513 415.802 313.404 416.851C314.294 417.878 314.734 419.48 314.722 421.656L314.669 431.672L311.757 431.66L311.809 421.804C311.817 420.332 311.567 419.275 311.058 418.633C310.55 417.97 309.741 417.636 308.631 417.632C307.33 417.626 306.304 418.07 305.552 418.963C304.801 419.835 304.421 421.028 304.413 422.543L304.365 431.631L301.453 431.619L301.505 421.763C301.513 420.291 301.263 419.234 300.754 418.592C300.267 417.929 299.458 417.595 298.327 417.59C297.026 417.585 296 418.029 295.248 418.922C294.518 419.794 294.149 420.987 294.141 422.502L294.093 431.589L291.181 431.578ZM319.394 438.603L319.496 419.403C319.499 418.785 319.481 418.155 319.442 417.515C319.403 416.875 319.342 416.235 319.26 415.594L322.076 415.606L322.409 419.319L322.057 419.317C322.383 418.081 323.071 417.114 324.12 416.414C325.169 415.693 326.419 415.335 327.87 415.341C329.299 415.346 330.545 415.682 331.608 416.348C332.672 417.013 333.488 417.977 334.057 419.238C334.648 420.477 334.939 421.961 334.93 423.689C334.92 425.417 334.614 426.909 334.01 428.165C333.427 429.422 332.601 430.379 331.53 431.036C330.46 431.693 329.211 432.018 327.781 432.013C326.352 432.007 325.116 431.65 324.075 430.942C323.055 430.212 322.367 429.239 322.01 428.021L322.362 428.023L322.306 438.615L319.394 438.603ZM327.121 429.706C328.593 429.712 329.769 429.204 330.65 428.184C331.53 427.164 331.975 425.661 331.986 423.677C331.996 421.693 331.567 420.198 330.697 419.192C329.828 418.186 328.657 417.68 327.185 417.674C325.713 417.668 324.537 418.165 323.657 419.164C322.799 420.163 322.364 421.655 322.354 423.639C322.343 425.623 322.762 427.128 323.61 428.156C324.479 429.183 325.649 429.7 327.121 429.706ZM338.806 431.769L338.931 408.217L341.843 408.229L341.718 431.78L338.806 431.769ZM353.913 432.117C351.353 432.107 349.331 431.363 347.845 429.885C346.381 428.407 345.656 426.378 345.669 423.796C345.678 422.09 346.006 420.619 346.653 419.384C347.321 418.128 348.233 417.161 349.388 416.483C350.544 415.784 351.89 415.437 353.426 415.443C354.898 415.449 356.144 415.774 357.165 416.418C358.185 417.041 358.959 417.929 359.487 419.084C360.014 420.238 360.273 421.604 360.265 423.183L360.26 424.143L347.94 424.093L347.949 422.365L358.285 422.407L357.739 422.821C357.748 421.157 357.381 419.864 356.639 418.944C355.919 418.024 354.844 417.561 353.415 417.555C351.857 417.549 350.649 418.088 349.79 419.173C348.931 420.236 348.497 421.696 348.487 423.552L348.485 423.84C348.475 425.802 348.947 427.287 349.901 428.293C350.877 429.3 352.229 429.807 353.957 429.813C354.917 429.817 355.814 429.682 356.648 429.408C357.481 429.134 358.284 428.679 359.055 428.042L360.004 430.062C359.275 430.72 358.366 431.229 357.276 431.587C356.208 431.945 355.087 432.122 353.913 432.117ZM364.024 431.87L364.089 419.582C364.093 418.963 364.075 418.334 364.035 417.694C363.996 417.054 363.936 416.413 363.854 415.773L366.67 415.784L366.971 419.242L366.587 419.24C367.02 418.047 367.708 417.133 368.65 416.496C369.592 415.839 370.714 415.513 372.015 415.518C373.338 415.523 374.424 415.847 375.274 416.491C376.124 417.113 376.695 418.097 376.986 419.442L376.506 419.44C376.918 418.247 377.638 417.3 378.665 416.601C379.693 415.901 380.89 415.553 382.255 415.559C384.026 415.566 385.356 416.094 386.247 417.143C387.137 418.171 387.577 419.772 387.565 421.948L387.512 431.964L384.6 431.952L384.652 422.097C384.66 420.625 384.41 419.568 383.901 418.926C383.393 418.262 382.584 417.928 381.475 417.924C380.173 417.919 379.147 418.362 378.395 419.255C377.644 420.127 377.264 421.32 377.256 422.835L377.208 431.923L374.296 431.911L374.348 422.055C374.356 420.583 374.106 419.526 373.597 418.884C373.11 418.221 372.301 417.887 371.171 417.882C369.869 417.877 368.843 418.321 368.091 419.214C367.361 420.086 366.992 421.279 366.984 422.794L366.936 431.882L364.024 431.87ZM399.6 432.301C397.04 432.29 395.018 431.546 393.532 430.068C392.068 428.59 391.343 426.561 391.356 423.979C391.366 422.273 391.693 420.802 392.34 419.567C393.008 418.311 393.92 417.344 395.075 416.666C396.231 415.967 397.577 415.62 399.113 415.627C400.585 415.632 401.831 415.957 402.852 416.602C403.873 417.224 404.646 418.113 405.174 419.267C405.701 420.421 405.96 421.787 405.952 423.366L405.947 424.326L393.627 424.277L393.636 422.549L403.972 422.59L403.426 423.004C403.435 421.34 403.068 420.048 402.326 419.127C401.606 418.207 400.531 417.744 399.102 417.738C397.544 417.732 396.336 418.271 395.477 419.356C394.618 420.419 394.184 421.879 394.174 423.735L394.172 424.023C394.162 425.985 394.634 427.47 395.589 428.476C396.565 429.483 397.917 429.99 399.645 429.997C400.605 430.001 401.501 429.866 402.335 429.592C403.168 429.318 403.971 428.862 404.742 428.225L405.691 430.245C404.963 430.903 404.053 431.412 402.963 431.77C401.895 432.128 400.774 432.305 399.6 432.301ZM409.711 432.053L409.777 419.765C409.78 419.147 409.762 418.517 409.723 417.877C409.683 417.237 409.623 416.597 409.541 415.956L412.357 415.968L412.658 419.425L412.274 419.423C412.772 418.209 413.534 417.284 414.561 416.648C415.589 416.013 416.785 415.697 418.15 415.703C420.049 415.711 421.475 416.239 422.43 417.288C423.384 418.316 423.856 419.918 423.844 422.094L423.791 432.11L420.879 432.098L420.932 422.242C420.939 420.77 420.657 419.713 420.084 419.071C419.512 418.407 418.618 418.073 417.402 418.068C415.951 418.062 414.797 418.495 413.939 419.366C413.102 420.237 412.68 421.42 412.672 422.913L412.623 432.065L409.711 432.053ZM434.569 432.441C432.884 432.434 431.606 431.97 430.737 431.049C429.888 430.107 429.469 428.698 429.479 426.82L429.525 418.277L426.389 418.264L426.4 416.024L429.536 416.037L429.559 411.717L432.476 410.928L432.448 416.048L436.992 416.066L436.98 418.306L432.436 418.288L432.392 426.576C432.386 427.813 432.595 428.7 433.018 429.235C433.464 429.748 434.102 430.007 434.934 430.01C435.361 430.012 435.724 429.981 436.023 429.919C436.343 429.835 436.632 429.74 436.888 429.634L436.876 432.034C436.555 432.161 436.181 432.255 435.754 432.318C435.348 432.401 434.953 432.442 434.569 432.441ZM446.103 432.487C444.695 432.481 443.46 432.146 442.397 431.48C441.334 430.815 440.507 429.851 439.916 428.59C439.325 427.329 439.035 425.835 439.044 424.107C439.053 422.379 439.36 420.897 439.964 419.662C440.568 418.406 441.405 417.45 442.475 416.792C443.545 416.135 444.784 415.81 446.192 415.815C447.621 415.821 448.857 416.189 449.898 416.918C450.961 417.627 451.66 418.6 451.995 419.839L451.611 419.837L451.982 416.127L454.798 416.138C454.731 416.778 454.664 417.417 454.596 418.057C454.55 418.697 454.526 419.326 454.522 419.945L454.457 432.233L451.545 432.221L451.565 428.541L451.917 428.542C451.569 429.757 450.86 430.725 449.789 431.446C448.74 432.146 447.511 432.493 446.103 432.487ZM446.788 430.186C448.238 430.192 449.404 429.684 450.284 428.664C451.164 427.643 451.609 426.141 451.62 424.157C451.63 422.173 451.201 420.678 450.332 419.672C449.462 418.666 448.302 418.16 446.852 418.154C445.401 418.148 444.225 418.645 443.324 419.644C442.444 420.643 441.998 422.135 441.988 424.119C441.977 426.103 442.407 427.608 443.276 428.636C444.145 429.663 445.316 430.18 446.788 430.186ZM465.35 432.564C463.665 432.558 462.387 432.094 461.518 431.173C460.669 430.231 460.25 428.821 460.26 426.944L460.306 418.4L457.17 418.387L457.181 416.147L460.317 416.16L460.34 411.84L463.257 411.052L463.229 416.172L467.773 416.19L467.761 418.43L463.217 418.412L463.173 426.7C463.167 427.937 463.376 428.823 463.799 429.358C464.245 429.872 464.883 430.13 465.715 430.134C466.142 430.135 466.505 430.105 466.804 430.042C467.124 429.958 467.413 429.863 467.669 429.758L467.657 432.158C467.336 432.284 466.962 432.379 466.535 432.441C466.129 432.525 465.734 432.566 465.35 432.564ZM470.742 432.298L470.828 416.202L473.74 416.214L473.654 432.31L470.742 432.298ZM470.59 412.681L470.607 409.545L474.063 409.559L474.046 412.695L470.59 412.681ZM485.306 432.644C483.727 432.638 482.363 432.302 481.215 431.636C480.067 430.949 479.176 429.985 478.542 428.745C477.909 427.484 477.597 425.989 477.606 424.261C477.615 422.555 477.943 421.084 478.59 419.849C479.236 418.593 480.137 417.637 481.293 416.98C482.448 416.302 483.816 415.966 485.394 415.973C486.973 415.979 488.336 416.326 489.485 417.013C490.655 417.679 491.545 418.643 492.157 419.904C492.791 421.144 493.103 422.617 493.094 424.324C493.085 426.052 492.757 427.544 492.11 428.8C491.485 430.034 490.584 430.991 489.407 431.669C488.251 432.326 486.884 432.651 485.306 432.644ZM485.318 430.34C486.769 430.346 487.934 429.839 488.814 428.818C489.694 427.798 490.139 426.296 490.15 424.312C490.161 422.328 489.731 420.833 488.862 419.827C487.992 418.82 486.832 418.314 485.382 418.309C483.91 418.303 482.734 418.799 481.854 419.798C480.995 420.798 480.561 422.289 480.55 424.273C480.54 426.257 480.958 427.763 481.806 428.79C482.675 429.818 483.846 430.335 485.318 430.34ZM496.961 432.403L497.026 420.115C497.029 419.497 497.011 418.867 496.972 418.227C496.933 417.587 496.872 416.947 496.79 416.306L499.606 416.318L499.908 419.775L499.524 419.773C500.021 418.559 500.783 417.634 501.811 416.998C502.838 416.363 504.034 416.047 505.4 416.053C507.298 416.06 508.725 416.589 509.679 417.638C510.634 418.666 511.105 420.268 511.094 422.444L511.04 432.46L508.129 432.448L508.181 422.592C508.189 421.12 507.906 420.063 507.334 419.421C506.761 418.757 505.867 418.423 504.651 418.418C503.2 418.412 502.046 418.845 501.188 419.716C500.351 420.587 499.929 421.77 499.921 423.263L499.873 432.415L496.961 432.403ZM528.594 432.53L522.663 416.41L525.703 416.422L530.494 430.234L529.662 430.23L534.727 416.459L537.095 416.468L541.982 430.28L541.182 430.277L546.151 416.504L549.063 416.516L542.929 432.588L540.178 432.576L535.132 418.54L536.54 418.546L531.378 432.541L528.594 432.53ZM552.148 432.625L552.233 416.529L555.145 416.54L555.06 432.636L552.148 432.625ZM551.996 413.008L552.013 409.872L555.469 409.886L555.452 413.022L551.996 413.008ZM565.943 432.968C564.258 432.961 562.98 432.497 562.111 431.576C561.262 430.634 560.843 429.225 560.853 427.347L560.898 418.804L557.762 418.791L557.774 416.551L560.91 416.564L560.933 412.244L563.85 411.455L563.822 416.575L568.366 416.593L568.354 418.833L563.81 418.815L563.766 427.103C563.76 428.34 563.968 429.227 564.392 429.762C564.838 430.275 565.476 430.534 566.308 430.537C566.735 430.539 567.098 430.508 567.397 430.446C567.717 430.362 568.006 430.267 568.262 430.161L568.249 432.561C567.929 432.688 567.555 432.782 567.128 432.845C566.722 432.928 566.327 432.969 565.943 432.968ZM571.335 432.701L571.46 409.15L574.372 409.161L574.314 420.105L573.898 420.104C574.374 418.868 575.136 417.933 576.185 417.297C577.234 416.661 578.441 416.346 579.806 416.351C581.747 416.359 583.174 416.888 584.086 417.937C585.019 418.986 585.48 420.566 585.468 422.678L585.415 432.758L582.503 432.746L582.556 422.826C582.563 421.397 582.291 420.361 581.74 419.719C581.189 419.056 580.284 418.721 579.025 418.716C577.617 418.711 576.474 419.143 575.594 420.014C574.736 420.886 574.304 422.047 574.296 423.497L574.247 432.713L571.335 432.701ZM109.884 470.851L110.004 448.291L124.595 448.35L124.583 450.782L112.871 450.735L112.831 458.19L123.807 458.235L123.794 460.666L112.818 460.622L112.777 468.43L124.488 468.477L124.476 470.909L109.884 470.851ZM134.362 471.237C132.954 471.231 131.719 470.896 130.656 470.23C129.592 469.564 128.765 468.601 128.175 467.34C127.584 466.079 127.293 464.585 127.303 462.857C127.312 461.129 127.618 459.647 128.222 458.412C128.826 457.156 129.663 456.199 130.734 455.542C131.804 454.885 133.043 454.56 134.451 454.565C135.88 454.571 137.116 454.939 138.157 455.668C139.22 456.376 139.919 457.35 140.253 458.588L139.869 458.587L140.241 454.876L143.057 454.888C142.99 455.527 142.922 456.167 142.855 456.807C142.809 457.447 142.784 458.076 142.781 458.695L142.716 470.982L139.804 470.971L139.823 467.291L140.175 467.292C139.827 468.507 139.118 469.475 138.048 470.196C136.999 470.896 135.77 471.243 134.362 471.237ZM135.046 468.936C136.497 468.941 137.662 468.434 138.543 467.414C139.423 466.393 139.868 464.891 139.879 462.907C139.889 460.923 139.46 459.428 138.59 458.422C137.721 457.416 136.561 456.91 135.11 456.904C133.66 456.898 132.484 457.395 131.582 458.394C130.702 459.393 130.257 460.884 130.247 462.868C130.236 464.852 130.665 466.358 131.535 467.386C132.404 468.413 133.574 468.93 135.046 468.936ZM153.609 471.314C151.924 471.307 150.646 470.844 149.776 469.923C148.928 468.981 148.509 467.571 148.519 465.694L148.564 457.15L145.428 457.137L145.44 454.897L148.576 454.91L148.599 450.59L151.515 449.802L151.488 454.922L156.032 454.94L156.02 457.18L151.476 457.161L151.432 465.449C151.426 466.687 151.634 467.573 152.058 468.108C152.503 468.622 153.142 468.88 153.974 468.884C154.401 468.885 154.763 468.855 155.062 468.792C155.383 468.708 155.671 468.613 155.928 468.507L155.915 470.907C155.595 471.034 155.221 471.129 154.794 471.191C154.388 471.275 153.993 471.316 153.609 471.314ZM159.001 471.048L159.126 447.496L162.038 447.508L161.98 458.452L161.564 458.45C162.04 457.215 162.802 456.279 163.851 455.643C164.899 455.007 166.106 454.692 167.472 454.698C169.413 454.705 170.84 455.234 171.751 456.283C172.685 457.332 173.145 458.912 173.134 461.024L173.081 471.104L170.169 471.093L170.221 461.173C170.229 459.743 169.957 458.708 169.406 458.065C168.855 457.402 167.95 457.068 166.691 457.063C165.283 457.057 164.14 457.49 163.26 458.361C162.402 459.232 161.969 460.393 161.962 461.844L161.913 471.059L159.001 471.048ZM177.844 471.123L177.93 455.028L180.842 455.039L180.756 471.135L177.844 471.123ZM177.693 451.507L177.709 448.371L181.165 448.385L181.149 451.52L177.693 451.507ZM185.594 471.154L185.658 458.995C185.662 458.355 185.644 457.704 185.605 457.042C185.587 456.36 185.537 455.698 185.455 455.058L188.271 455.069L188.602 459.102L188.121 459.133C188.34 458.152 188.707 457.343 189.222 456.705C189.759 456.046 190.391 455.568 191.118 455.272C191.866 454.955 192.635 454.799 193.425 454.802C193.766 454.803 194.054 454.815 194.288 454.837C194.523 454.859 194.757 454.914 194.992 455L194.914 457.592C194.594 457.462 194.296 457.387 194.019 457.364C193.763 457.32 193.443 457.298 193.059 457.296C192.121 457.293 191.309 457.503 190.624 457.927C189.96 458.351 189.445 458.914 189.079 459.616C188.734 460.319 188.559 461.076 188.555 461.886L188.506 471.166L185.594 471.154ZM197.469 471.202L197.555 455.106L200.467 455.118L200.381 471.214L197.469 471.202ZM197.317 451.585L197.334 448.449L200.79 448.463L200.773 451.599L197.317 451.585ZM210.977 471.544C209.036 471.536 207.577 471.008 206.601 469.959C205.647 468.91 205.175 467.297 205.187 465.121L205.24 455.137L208.152 455.149L208.099 465.069C208.092 466.477 208.374 467.512 208.947 468.176C209.519 468.84 210.413 469.174 211.629 469.179C212.952 469.184 214.021 468.751 214.836 467.88C215.673 466.987 216.095 465.805 216.103 464.333L216.152 455.181L219.064 455.193L218.978 471.288L216.162 471.277L216.181 467.725L216.597 467.727C216.143 468.941 215.423 469.887 214.438 470.566C213.453 471.224 212.3 471.55 210.977 471.544ZM223.875 471.308L223.941 459.02C223.944 458.402 223.926 457.772 223.887 457.132C223.847 456.492 223.787 455.852 223.705 455.211L226.521 455.223L226.822 458.68L226.438 458.678C226.871 457.485 227.559 456.571 228.501 455.934C229.443 455.277 230.565 454.951 231.866 454.956C233.189 454.961 234.275 455.286 235.125 455.929C235.975 456.551 236.546 457.535 236.837 458.88L236.357 458.878C236.769 457.685 237.489 456.739 238.517 456.039C239.544 455.339 240.741 454.992 242.106 454.997C243.877 455.004 245.207 455.532 246.098 456.581C246.988 457.609 247.428 459.21 247.416 461.386L247.363 471.402L244.451 471.391L244.503 461.535C244.511 460.063 244.261 459.006 243.752 458.364C243.244 457.7 242.435 457.366 241.326 457.362C240.024 457.357 238.998 457.801 238.246 458.694C237.495 459.565 237.115 460.758 237.107 462.273L237.059 471.361L234.147 471.349L234.2 461.493C234.207 460.021 233.957 458.964 233.448 458.322C232.961 457.659 232.152 457.325 231.022 457.321C229.72 457.315 228.694 457.759 227.943 458.652C227.213 459.524 226.844 460.717 226.836 462.232L226.787 471.32L223.875 471.308ZM82.9458 507.895C81.9004 507.891 80.9311 507.642 80.0377 507.147C79.1444 506.632 78.4334 505.936 77.9048 505.059C77.3761 504.182 77.1146 503.21 77.1202 502.144C77.1255 501.162 77.3757 500.235 77.871 499.363C78.3877 498.49 79.0847 497.789 79.9622 497.259C80.8612 496.708 81.876 496.435 83.0066 496.439C84.0519 496.443 85.0106 496.703 85.8825 497.219C86.7546 497.713 87.455 498.388 87.9838 499.243C88.5339 500.099 88.806 501.081 88.8001 502.19C88.7946 503.236 88.5228 504.195 87.9848 505.067C87.4682 505.94 86.7605 506.63 85.8618 507.139C84.9844 507.647 84.0124 507.899 82.9458 507.895ZM109.671 510.85L109.791 488.291L112.415 488.301L121.204 508.368L120.245 508.365L129.247 488.369L131.839 488.379L131.719 510.939L128.999 510.928L129.098 492.336L130.09 492.34L121.639 510.898L119.751 510.891L111.498 492.265L112.49 492.269L112.391 510.861L109.671 510.85ZM142.64 511.27C140.699 511.263 139.24 510.734 138.264 509.685C137.31 508.636 136.838 507.023 136.85 504.847L136.903 494.863L139.815 494.875L139.762 504.795C139.755 506.203 140.037 507.239 140.61 507.902C141.182 508.566 142.076 508.9 143.292 508.905C144.615 508.91 145.684 508.477 146.499 507.606C147.336 506.713 147.758 505.531 147.766 504.059L147.815 494.907L150.727 494.919L150.641 511.015L147.825 511.003L147.844 507.451L148.26 507.453C147.806 508.667 147.086 509.614 146.101 510.292C145.116 510.95 143.963 511.276 142.64 511.27ZM160.977 511.344C159.675 511.339 158.46 511.163 157.331 510.817C156.224 510.472 155.309 509.977 154.587 509.334L155.526 507.322C156.312 507.923 157.174 508.385 158.111 508.708C159.069 509.011 160.05 509.164 161.052 509.168C162.268 509.173 163.187 508.953 163.808 508.507C164.45 508.062 164.773 507.466 164.777 506.719C164.781 506.122 164.58 505.641 164.177 505.277C163.774 504.912 163.135 504.643 162.261 504.469L159.225 503.849C157.861 503.523 156.829 503.007 156.129 502.3C155.45 501.572 155.113 500.643 155.12 499.512C155.124 498.574 155.385 497.743 155.901 497.02C156.417 496.275 157.145 495.702 158.086 495.3C159.048 494.877 160.169 494.669 161.449 494.674C162.623 494.678 163.71 494.854 164.711 495.199C165.733 495.544 166.573 496.049 167.231 496.713L166.26 498.661C165.602 498.082 164.858 497.642 164.027 497.34C163.218 497.017 162.387 496.854 161.534 496.85C160.296 496.845 159.378 497.087 158.778 497.575C158.178 498.042 157.876 498.659 157.872 499.427C157.869 500.003 158.048 500.484 158.408 500.87C158.769 501.234 159.354 501.513 160.164 501.709L163.201 502.329C164.628 502.633 165.703 503.128 166.425 503.814C167.146 504.499 167.504 505.407 167.498 506.538C167.493 507.541 167.211 508.404 166.653 509.127C166.115 509.85 165.355 510.402 164.372 510.782C163.41 511.162 162.278 511.349 160.977 511.344ZM171.444 511.098L171.53 495.002L174.442 495.014L174.356 511.11L171.444 511.098ZM171.293 491.481L171.309 488.345L174.765 488.359L174.749 491.495L171.293 491.481ZM186.136 511.445C184.536 511.438 183.151 511.102 181.981 510.436C180.812 509.749 179.899 508.775 179.245 507.513C178.612 506.231 178.3 504.715 178.309 502.965C178.318 501.237 178.657 499.767 179.324 498.553C179.992 497.319 180.915 496.384 182.091 495.749C183.268 495.092 184.646 494.767 186.225 494.773C187.27 494.777 188.282 494.963 189.262 495.329C190.241 495.675 191.039 496.179 191.654 496.843L190.651 498.887C190.035 498.287 189.355 497.847 188.61 497.567C187.865 497.265 187.13 497.113 186.404 497.11C184.826 497.104 183.585 497.611 182.684 498.631C181.783 499.63 181.327 501.09 181.317 503.01C181.306 504.951 181.747 506.446 182.637 507.495C183.527 508.544 184.762 509.071 186.341 509.078C187.045 509.081 187.771 508.945 188.519 508.67C189.267 508.396 189.963 507.962 190.606 507.367L191.587 509.387C190.943 510.067 190.119 510.586 189.115 510.945C188.132 511.282 187.139 511.449 186.136 511.445ZM203.889 511.228L204.009 488.668L206.313 488.678L220.358 507.422L219.59 507.419L219.689 488.731L222.473 488.743L222.353 511.302L220.081 511.293L206.036 492.549L206.772 492.552L206.673 511.239L203.889 511.228ZM227.826 511.324L227.946 488.764L242.218 488.822L242.205 491.254L230.909 491.208L230.869 498.76L241.429 498.803L241.416 501.235L230.856 501.192L230.802 511.336L227.826 511.324ZM251.422 511.419L251.528 491.387L243.72 491.356L243.734 488.828L262.39 488.903L262.376 491.431L254.536 491.399L254.43 511.431L251.422 511.419ZM273.889 511.509L274.008 488.949L276.984 488.961L276.878 508.961L288.11 509.006L288.096 511.566L273.889 511.509ZM297.273 511.891C295.865 511.885 294.63 511.549 293.567 510.884C292.504 510.218 291.677 509.255 291.086 507.994C290.495 506.733 290.205 505.238 290.214 503.51C290.223 501.782 290.53 500.301 291.133 499.066C291.737 497.81 292.575 496.853 293.645 496.196C294.715 495.539 295.954 495.213 297.362 495.219C298.791 495.225 300.027 495.592 301.068 496.322C302.131 497.03 302.83 498.004 303.165 499.242L302.781 499.241L303.152 495.53L305.968 495.541C305.901 496.181 305.834 496.821 305.766 497.461C305.72 498.1 305.695 498.73 305.692 499.348L305.627 511.636L302.715 511.625L302.734 507.945L303.086 507.946C302.739 509.161 302.029 510.128 300.959 510.849C299.91 511.549 298.681 511.896 297.273 511.891ZM297.958 509.589C299.408 509.595 300.574 509.088 301.454 508.067C302.334 507.047 302.779 505.545 302.79 503.561C302.8 501.577 302.371 500.082 301.502 499.076C300.632 498.069 299.472 497.563 298.022 497.558C296.571 497.552 295.395 498.048 294.494 499.047C293.614 500.047 293.168 501.538 293.158 503.522C293.147 505.506 293.577 507.012 294.446 508.039C295.315 509.067 296.486 509.584 297.958 509.589ZM316.232 511.967C314.291 511.959 312.832 511.43 311.857 510.381C310.902 509.332 310.431 507.719 310.442 505.543L310.495 495.56L313.407 495.571L313.355 505.491C313.347 506.899 313.63 507.935 314.202 508.599C314.775 509.262 315.669 509.596 316.885 509.601C318.207 509.607 319.276 509.174 320.092 508.302C320.928 507.41 321.351 506.227 321.359 504.755L321.407 495.603L324.319 495.615L324.234 511.711L321.418 511.7L321.437 508.148L321.853 508.149C321.398 509.363 320.678 510.31 319.693 510.989C318.709 511.646 317.555 511.972 316.232 511.967ZM329.131 511.731L329.196 499.443C329.199 498.824 329.181 498.195 329.142 497.554C329.103 496.914 329.042 496.274 328.96 495.634L331.776 495.645L332.078 499.102L331.694 499.101C332.191 497.887 332.953 496.962 333.981 496.326C335.008 495.69 336.204 495.375 337.57 495.38C339.468 495.388 340.895 495.916 341.849 496.965C342.804 497.993 343.275 499.595 343.264 501.771L343.211 511.787L340.299 511.775L340.351 501.919C340.359 500.447 340.076 499.39 339.504 498.748C338.931 498.084 338.037 497.75 336.821 497.745C335.37 497.739 334.216 498.172 333.358 499.043C332.521 499.915 332.099 501.097 332.091 502.59L332.043 511.742L329.131 511.731ZM354.885 512.122C353.285 512.115 351.9 511.779 350.73 511.113C349.56 510.426 348.648 509.451 347.993 508.19C347.36 506.908 347.048 505.392 347.058 503.642C347.067 501.914 347.405 500.444 348.073 499.23C348.741 497.996 349.663 497.061 350.84 496.425C352.017 495.769 353.395 495.444 354.973 495.45C356.019 495.454 357.031 495.64 358.01 496.006C358.99 496.351 359.787 496.856 360.402 497.52L359.399 499.564C358.784 498.964 358.104 498.524 357.358 498.244C356.613 497.942 355.878 497.79 355.153 497.787C353.574 497.78 352.334 498.287 351.433 499.308C350.531 500.307 350.076 501.766 350.065 503.686C350.055 505.628 350.495 507.123 351.386 508.172C352.276 509.221 353.511 509.748 355.089 509.755C355.793 509.757 356.519 509.622 357.267 509.347C358.016 509.073 358.711 508.638 359.354 508.044L360.336 510.064C359.692 510.744 358.868 511.263 357.863 511.622C356.88 511.959 355.887 512.126 354.885 512.122ZM363.88 511.87L364.006 488.318L366.917 488.33L366.859 499.274L366.443 499.272C366.919 498.037 367.682 497.101 368.73 496.465C369.779 495.829 370.986 495.514 372.351 495.52C374.293 495.528 375.719 496.056 376.631 497.105C377.564 498.154 378.025 499.735 378.014 501.847L377.96 511.926L375.048 511.915L375.101 501.995C375.109 500.566 374.837 499.53 374.285 498.888C373.734 498.224 372.829 497.89 371.571 497.885C370.163 497.879 369.019 498.312 368.14 499.183C367.282 500.054 366.849 501.215 366.841 502.666L366.792 511.882L363.88 511.87ZM382.687 518.857L382.789 499.658C382.793 499.039 382.775 498.41 382.735 497.769C382.696 497.129 382.635 496.489 382.553 495.849L385.369 495.86L385.702 499.573L385.35 499.572C385.676 498.336 386.364 497.368 387.413 496.668C388.462 495.947 389.712 495.589 391.163 495.595C392.592 495.601 393.839 495.937 394.902 496.602C395.965 497.268 396.781 498.231 397.35 499.492C397.941 500.732 398.232 502.216 398.223 503.944C398.214 505.672 397.907 507.164 397.303 508.42C396.72 509.676 395.894 510.633 394.824 511.29C393.753 511.947 392.504 512.273 391.074 512.267C389.645 512.261 388.41 511.904 387.368 511.196C386.348 510.467 385.66 509.493 385.303 508.276L385.655 508.277L385.599 518.869L382.687 518.857ZM390.415 509.96C391.887 509.966 393.063 509.459 393.943 508.438C394.823 507.418 395.268 505.916 395.279 503.932C395.289 501.948 394.86 500.453 393.991 499.447C393.121 498.44 391.951 497.934 390.479 497.928C389.007 497.923 387.831 498.419 386.951 499.418C386.092 500.418 385.657 501.909 385.647 503.893C385.636 505.877 386.055 507.383 386.903 508.41C387.772 509.438 388.943 509.954 390.415 509.96ZM408.241 512.336C406.833 512.33 405.598 511.995 404.535 511.329C403.471 510.663 402.644 509.7 402.054 508.439C401.463 507.178 401.172 505.683 401.182 503.955C401.191 502.227 401.497 500.746 402.101 499.511C402.705 498.255 403.542 497.298 404.613 496.641C405.683 495.984 406.922 495.658 408.33 495.664C409.759 495.67 410.995 496.037 412.036 496.767C413.099 497.475 413.798 498.449 414.133 499.687L413.749 499.686L414.12 495.975L416.936 495.987C416.869 496.626 416.801 497.266 416.734 497.906C416.688 498.546 416.663 499.175 416.66 499.794L416.595 512.081L413.683 512.07L413.702 508.39L414.054 508.391C413.706 509.606 412.997 510.574 411.927 511.295C410.878 511.994 409.649 512.341 408.241 512.336ZM408.925 510.035C410.376 510.04 411.541 509.533 412.422 508.513C413.302 507.492 413.747 505.99 413.758 504.006C413.768 502.022 413.339 500.527 412.469 499.521C411.6 498.515 410.44 498.009 408.989 498.003C407.539 497.997 406.363 498.494 405.461 499.493C404.581 500.492 404.136 501.983 404.126 503.967C404.115 505.951 404.544 507.457 405.414 508.484C406.283 509.512 407.453 510.029 408.925 510.035ZM427.616 512.414C426.208 512.408 424.973 512.072 423.909 511.407C422.846 510.741 422.019 509.778 421.429 508.517C420.838 507.256 420.547 505.761 420.557 504.033C420.566 502.305 420.872 500.824 421.476 499.589C422.08 498.333 422.917 497.376 423.987 496.719C425.058 496.062 426.297 495.736 427.705 495.742C429.113 495.747 430.337 496.104 431.379 496.813C432.442 497.521 433.151 498.494 433.508 499.733L433.124 499.732L433.183 488.596L436.095 488.607L435.97 512.159L433.09 512.148L433.109 508.404L433.461 508.405C433.113 509.662 432.404 510.651 431.334 511.372C430.285 512.072 429.045 512.419 427.616 512.414ZM428.3 510.112C429.751 510.118 430.916 509.611 431.796 508.59C432.698 507.57 433.154 506.068 433.164 504.084C433.175 502.1 432.735 500.605 431.844 499.598C430.975 498.592 429.815 498.086 428.364 498.08C426.914 498.075 425.738 498.571 424.836 499.57C423.956 500.569 423.511 502.061 423.5 504.045C423.49 506.029 423.919 507.535 424.788 508.562C425.679 509.59 426.85 510.106 428.3 510.112ZM82.7332 547.894C81.6879 547.89 80.7185 547.641 79.8252 547.147C78.9319 546.631 78.2209 545.935 77.6922 545.058C77.1635 544.181 76.902 543.21 76.9077 542.143C76.9129 541.162 77.1632 540.235 77.6585 539.362C78.1751 538.489 78.8722 537.788 79.7497 537.258C80.6486 536.707 81.6634 536.434 82.7941 536.439C83.8394 536.443 84.7981 536.703 85.67 537.218C86.542 537.712 87.2425 538.387 87.7713 539.243C88.3214 540.098 88.5935 541.081 88.5876 542.19C88.5821 543.235 88.3103 544.194 87.7723 545.067C87.2557 545.939 86.548 546.63 85.6493 547.138C84.7719 547.647 83.7999 547.899 82.7332 547.894ZM109.459 550.85L109.578 528.29L111.882 528.299L125.927 547.044L125.159 547.041L125.258 528.353L128.042 528.364L127.922 550.924L125.65 550.915L111.606 532.17L112.342 532.173L112.243 550.861L109.459 550.85ZM133.396 550.946L133.516 528.386L147.788 528.443L147.775 530.875L136.479 530.83L136.439 538.382L146.999 538.424L146.986 540.856L136.426 540.814L136.372 550.958L133.396 550.946ZM156.991 551.04L157.098 531.009L149.29 530.977L149.303 528.449L167.959 528.524L167.946 531.052L160.106 531.021L159.999 551.052L156.991 551.04ZM179.458 551.13L179.578 528.571L182.554 528.583L182.448 548.582L193.68 548.627L193.666 551.187L179.458 551.13ZM202.843 551.512C201.435 551.507 200.199 551.171 199.136 550.505C198.073 549.84 197.246 548.876 196.655 547.615C196.065 546.354 195.774 544.86 195.783 543.132C195.792 541.404 196.099 539.922 196.703 538.687C197.307 537.431 198.144 536.475 199.214 535.818C200.284 535.161 201.523 534.835 202.931 534.84C204.361 534.846 205.596 535.214 206.638 535.943C207.701 536.652 208.399 537.625 208.734 538.864L208.35 538.862L208.722 535.152L211.538 535.163C211.47 535.803 211.403 536.442 211.336 537.082C211.29 537.722 211.265 538.351 211.262 538.97L211.196 551.258L208.284 551.246L208.304 547.566L208.656 547.568C208.308 548.782 207.599 549.75 206.528 550.471C205.479 551.171 204.251 551.518 202.843 551.512ZM203.527 549.211C204.978 549.217 206.143 548.709 207.023 547.689C207.903 546.668 208.349 545.166 208.359 543.182C208.37 541.198 207.94 539.703 207.071 538.697C206.202 537.691 205.042 537.185 203.591 537.179C202.14 537.173 200.964 537.67 200.063 538.669C199.183 539.668 198.738 541.16 198.727 543.144C198.717 545.128 199.146 546.633 200.015 547.661C200.884 548.688 202.055 549.205 203.527 549.211ZM216.075 551.277L216.141 538.989C216.144 538.371 216.126 537.741 216.087 537.101C216.047 536.461 215.987 535.821 215.905 535.18L218.721 535.192L219.022 538.649L218.638 538.647C219.136 537.433 219.898 536.509 220.925 535.873C221.953 535.237 223.149 534.922 224.514 534.927C226.413 534.935 227.839 535.463 228.794 536.512C229.748 537.54 230.22 539.142 230.208 541.318L230.155 551.334L227.243 551.322L227.296 541.466C227.303 539.994 227.021 538.937 226.448 538.295C225.876 537.631 224.982 537.297 223.766 537.292C222.315 537.286 221.161 537.719 220.303 538.59C219.466 539.461 219.044 540.644 219.036 542.137L218.987 551.289L216.075 551.277ZM241.061 551.666C239.653 551.66 238.418 551.324 237.355 550.659C236.291 549.993 235.465 549.03 234.874 547.769C234.283 546.508 233.993 545.013 234.002 543.285C234.011 541.557 234.317 540.076 234.921 538.841C235.525 537.585 236.362 536.628 237.433 535.971C238.503 535.314 239.742 534.988 241.15 534.994C242.558 534.999 243.783 535.356 244.824 536.065C245.887 536.773 246.597 537.746 246.953 538.985L246.569 538.984L246.628 527.848L249.54 527.859L249.415 551.411L246.535 551.399L246.555 547.656L246.907 547.657C246.559 548.914 245.849 549.903 244.779 550.624C243.73 551.324 242.491 551.671 241.061 551.666ZM241.746 549.364C243.196 549.37 244.362 548.863 245.242 547.842C246.143 546.822 246.599 545.32 246.61 543.336C246.62 541.352 246.18 539.857 245.289 538.85C244.42 537.844 243.26 537.338 241.809 537.332C240.359 537.327 239.183 537.823 238.281 538.822C237.402 539.821 236.956 541.313 236.946 543.297C236.935 545.281 237.364 546.787 238.234 547.814C239.124 548.842 240.295 549.358 241.746 549.364ZM254.294 551.431L254.379 535.335L257.291 535.347L257.206 551.442L254.294 551.431ZM254.142 531.814L254.159 528.678L257.615 528.692L257.598 531.828L254.142 531.814ZM262.075 551.462L262.14 539.174C262.143 538.555 262.125 537.926 262.086 537.286C262.047 536.646 261.986 536.005 261.904 535.365L264.72 535.376L265.022 538.834L264.638 538.832C265.135 537.618 265.897 536.693 266.925 536.057C267.952 535.421 269.149 535.106 270.514 535.112C272.413 535.119 273.839 535.648 274.794 536.697C275.748 537.725 276.22 539.326 276.208 541.502L276.155 551.518L273.243 551.507L273.295 541.651C273.303 540.179 273.021 539.122 272.448 538.479C271.876 537.816 270.981 537.481 269.765 537.477C268.315 537.471 267.16 537.903 266.302 538.775C265.466 539.646 265.043 540.828 265.036 542.322L264.987 551.473L262.075 551.462ZM288.048 558.734C286.64 558.728 285.351 558.553 284.179 558.207C283.008 557.86 281.954 557.334 281.019 556.626L281.799 554.485C282.458 554.936 283.107 555.301 283.745 555.581C284.384 555.861 285.044 556.066 285.726 556.197C286.429 556.328 287.154 556.394 287.901 556.397C289.479 556.404 290.666 556.003 291.459 555.196C292.253 554.388 292.654 553.238 292.662 551.745L292.686 547.233L293.006 547.234C292.658 548.448 291.949 549.416 290.878 550.137C289.829 550.837 288.59 551.184 287.16 551.178C285.71 551.173 284.442 550.848 283.358 550.203C282.294 549.538 281.467 548.606 280.876 547.409C280.286 546.191 279.994 544.771 280.003 543.15C280.012 541.507 280.318 540.09 280.922 538.897C281.525 537.705 282.362 536.791 283.432 536.155C284.524 535.498 285.795 535.173 287.246 535.179C288.675 535.184 289.91 535.541 290.952 536.25C291.993 536.958 292.682 537.931 293.016 539.17L292.73 538.881L293.036 535.49L295.852 535.501C295.785 536.141 295.717 536.781 295.65 537.42C295.604 538.06 295.579 538.689 295.576 539.308L295.511 551.404C295.499 553.793 294.86 555.615 293.594 556.868C292.35 558.122 290.502 558.744 288.048 558.734ZM287.813 548.877C289.285 548.883 290.461 548.386 291.341 547.387C292.221 546.388 292.665 544.992 292.675 543.2C292.685 541.387 292.255 539.988 291.385 539.003C290.516 538.018 289.345 537.523 287.873 537.517C286.38 537.511 285.182 537.997 284.281 538.975C283.401 539.953 282.957 541.348 282.947 543.161C282.938 544.953 283.367 546.353 284.237 547.359C285.127 548.365 286.319 548.871 287.813 548.877ZM309.145 551.651L309.264 529.091L318.448 529.128C320.88 529.138 322.744 529.657 324.04 530.686C325.336 531.715 325.979 533.158 325.969 535.014C325.962 536.422 325.529 537.594 324.67 538.529C323.833 539.464 322.689 540.089 321.236 540.403L321.239 539.923C322.902 540.122 324.19 540.703 325.102 541.667C326.035 542.63 326.498 543.902 326.49 545.48C326.479 547.485 325.799 549.029 324.449 550.112C323.099 551.173 321.198 551.699 318.744 551.689L309.145 551.651ZM312.037 549.294L318.469 549.32C320.048 549.326 321.287 549.033 322.186 548.439C323.106 547.824 323.57 546.812 323.578 545.404C323.585 543.975 323.132 542.96 322.218 542.359C321.325 541.758 320.09 541.454 318.511 541.448L312.079 541.422L312.037 549.294ZM312.091 539.054L317.979 539.078C319.665 539.085 320.925 538.77 321.761 538.133C322.596 537.475 323.017 536.527 323.024 535.29C323.03 534.053 322.619 533.113 321.791 532.469C320.962 531.805 319.705 531.469 318.02 531.462L312.132 531.438L312.091 539.054ZM337.451 552.052C335.872 552.046 334.508 551.71 333.36 551.044C332.211 550.356 331.321 549.393 330.687 548.153C330.054 546.892 329.742 545.397 329.751 543.669C329.76 541.963 330.088 540.492 330.734 539.257C331.381 538.001 332.282 537.045 333.438 536.388C334.593 535.71 335.96 535.374 337.539 535.38C339.118 535.387 340.481 535.734 341.63 536.421C342.799 537.087 343.69 538.05 344.302 539.312C344.936 540.551 345.248 542.025 345.239 543.731C345.23 545.459 344.902 546.951 344.255 548.207C343.63 549.442 342.729 550.399 341.552 551.077C340.396 551.733 339.029 552.058 337.451 552.052ZM337.463 549.748C338.913 549.754 340.079 549.247 340.959 548.226C341.839 547.206 342.284 545.704 342.295 543.72C342.305 541.736 341.876 540.24 341.007 539.234C340.137 538.228 338.977 537.722 337.527 537.716C336.055 537.71 334.879 538.207 333.999 539.206C333.14 540.205 332.705 541.697 332.695 543.681C332.684 545.665 333.103 547.171 333.951 548.198C334.82 549.226 335.991 549.742 337.463 549.748ZM349.073 551.811L349.138 539.651C349.141 539.011 349.124 538.36 349.084 537.699C349.067 537.016 349.017 536.354 348.935 535.714L351.751 535.725L352.082 539.759L351.601 539.789C351.82 538.808 352.187 537.999 352.702 537.361C353.239 536.702 353.871 536.225 354.598 535.929C355.346 535.612 356.115 535.455 356.904 535.458C357.246 535.459 357.534 535.471 357.768 535.494C358.003 535.516 358.237 535.57 358.471 535.656L358.394 538.248C358.074 538.119 357.776 538.043 357.499 538.02C357.243 537.977 356.923 537.954 356.539 537.953C355.601 537.949 354.789 538.159 354.104 538.583C353.44 539.007 352.925 539.57 352.559 540.273C352.214 540.975 352.039 541.732 352.035 542.543L351.985 551.822L349.073 551.811ZM360.917 551.858L360.982 539.698C360.985 539.058 360.967 538.408 360.928 537.746C360.91 537.063 360.861 536.402 360.779 535.762L363.595 535.773L363.925 539.806L363.445 539.836C363.664 538.856 364.031 538.047 364.546 537.409C365.083 536.75 365.715 536.272 366.442 535.976C367.19 535.659 367.959 535.502 368.748 535.506C369.089 535.507 369.377 535.519 369.612 535.541C369.846 535.563 370.081 535.618 370.315 535.704L370.237 538.296C369.918 538.166 369.62 538.09 369.342 538.068C369.087 538.024 368.767 538.002 368.383 538C367.444 537.996 366.632 538.206 365.947 538.63C365.284 539.054 364.769 539.618 364.402 540.32C364.057 541.023 363.883 541.779 363.878 542.59L363.829 551.87L360.917 551.858ZM379.356 552.22C377.778 552.214 376.414 551.878 375.266 551.212C374.117 550.525 373.226 549.561 372.593 548.321C371.96 547.06 371.648 545.565 371.657 543.837C371.666 542.131 371.994 540.66 372.64 539.425C373.287 538.169 374.188 537.213 375.344 536.556C376.499 535.878 377.866 535.542 379.445 535.548C381.024 535.555 382.387 535.902 383.536 536.589C384.705 537.255 385.596 538.219 386.208 539.48C386.842 540.72 387.154 542.193 387.145 543.899C387.136 545.627 386.808 547.119 386.161 548.376C385.536 549.61 384.635 550.567 383.458 551.245C382.302 551.901 380.935 552.227 379.356 552.22ZM379.369 549.916C380.819 549.922 381.985 549.415 382.865 548.394C383.745 547.374 384.19 545.872 384.201 543.888C384.211 541.904 383.782 540.409 382.913 539.402C382.043 538.396 380.883 537.89 379.433 537.884C377.961 537.879 376.785 538.375 375.905 539.374C375.046 540.374 374.611 541.865 374.601 543.849C374.59 545.833 375.009 547.339 375.857 548.366C376.726 549.394 377.897 549.91 379.369 549.916ZM395.113 551.995L389.183 535.876L392.223 535.888L397.014 549.699L396.182 549.696L401.247 535.924L403.615 535.933L408.501 549.745L407.701 549.742L412.671 535.97L415.583 535.981L409.449 552.053L406.697 552.042L401.652 538.006L403.06 538.011L397.897 552.007L395.113 551.995ZM418.667 552.09L418.753 535.994L421.665 536.006L421.579 552.102L418.667 552.09ZM418.516 532.473L418.532 529.337L421.988 529.351L421.972 532.487L418.516 532.473ZM426.449 552.121L426.514 539.833C426.517 539.215 426.499 538.585 426.46 537.945C426.421 537.305 426.36 536.665 426.278 536.024L429.094 536.036L429.396 539.493L429.012 539.491C429.509 538.277 430.271 537.352 431.298 536.716C432.326 536.081 433.522 535.765 434.888 535.771C436.786 535.779 438.213 536.307 439.167 537.356C440.122 538.384 440.593 539.986 440.582 542.162L440.528 552.178L437.616 552.166L437.669 542.31C437.677 540.838 437.394 539.781 436.822 539.139C436.249 538.475 435.355 538.141 434.139 538.136C432.688 538.13 431.534 538.563 430.676 539.434C429.839 540.305 429.417 541.488 429.409 542.981L429.361 552.133L426.449 552.121ZM452.422 559.393C451.014 559.388 449.724 559.212 448.553 558.866C447.381 558.52 446.328 557.993 445.393 557.285L446.173 555.144C446.831 555.595 447.48 555.96 448.119 556.24C448.757 556.52 449.418 556.725 450.099 556.856C450.803 556.987 451.528 557.054 452.274 557.057C453.853 557.063 455.039 556.663 455.833 555.855C456.627 555.048 457.027 553.897 457.035 552.404L457.059 547.892L457.379 547.893C457.031 549.108 456.322 550.076 455.252 550.797C454.203 551.496 452.963 551.844 451.534 551.838C450.084 551.832 448.816 551.507 447.731 550.863C446.668 550.197 445.841 549.266 445.25 548.069C444.659 546.85 444.368 545.43 444.377 543.809C444.385 542.166 444.692 540.749 445.295 539.557C445.899 538.364 446.736 537.45 447.806 536.815C448.897 536.158 450.169 535.832 451.619 535.838C453.049 535.844 454.284 536.201 455.326 536.909C456.367 537.617 457.055 538.59 457.39 539.829L457.104 539.54L457.41 536.149L460.226 536.161C460.158 536.8 460.091 537.44 460.023 538.08C459.977 538.72 459.953 539.349 459.949 539.967L459.885 552.063C459.872 554.453 459.233 556.274 457.968 557.528C456.724 558.781 454.875 559.403 452.422 559.393ZM452.186 549.536C453.658 549.542 454.834 549.046 455.714 548.047C456.594 547.047 457.039 545.652 457.049 543.86C457.058 542.047 456.628 540.647 455.759 539.663C454.889 538.678 453.719 538.182 452.247 538.177C450.753 538.171 449.556 538.656 448.655 539.634C447.775 540.612 447.33 542.008 447.321 543.821C447.311 545.613 447.741 547.012 448.61 548.018C449.501 549.024 450.693 549.53 452.186 549.536Z" fill="#BA1E71"/>
<path d="M83.9199 327.5L83.9199 537.001" stroke="#0FA9D9"/>
</svg>
