<svg width="645" height="627" viewBox="0 0 645 627" fill="none" xmlns="http://www.w3.org/2000/svg">
<path d="M368 327.731L313.97 371.899V283.564L368 327.731Z" fill="#BA1E71"/>
<path fill-rule="evenodd" clip-rule="evenodd" d="M-0.000148057 371.731L53.8252 327.731L-0.000148057 283.731H313.97V371.731H-0.000148057Z" fill="#BA1E71"/>
<path d="M133.011 342V339.443L142.614 328.932C143.741 327.701 144.669 326.631 145.398 325.722C146.127 324.803 146.667 323.941 147.017 323.136C147.377 322.322 147.557 321.47 147.557 320.58C147.557 319.557 147.311 318.671 146.818 317.923C146.335 317.175 145.672 316.598 144.83 316.19C143.987 315.783 143.04 315.58 141.989 315.58C140.871 315.58 139.896 315.812 139.062 316.276C138.239 316.73 137.599 317.369 137.145 318.193C136.7 319.017 136.477 319.983 136.477 321.091H133.125C133.125 319.386 133.518 317.89 134.304 316.602C135.09 315.314 136.16 314.311 137.514 313.591C138.878 312.871 140.407 312.511 142.102 312.511C143.807 312.511 145.317 312.871 146.634 313.591C147.95 314.311 148.982 315.281 149.73 316.503C150.478 317.724 150.852 319.083 150.852 320.58C150.852 321.65 150.658 322.696 150.27 323.719C149.891 324.732 149.228 325.864 148.281 327.114C147.344 328.354 146.042 329.869 144.375 331.659L137.841 338.648V338.875H151.364V342H133.011ZM166.719 342.398C164.579 342.398 162.756 341.815 161.25 340.651C159.744 339.476 158.594 337.777 157.798 335.551C157.003 333.316 156.605 330.617 156.605 327.455C156.605 324.311 157.003 321.626 157.798 319.401C158.603 317.166 159.759 315.461 161.264 314.287C162.779 313.103 164.598 312.511 166.719 312.511C168.84 312.511 170.653 313.103 172.159 314.287C173.674 315.461 174.83 317.166 175.625 319.401C176.43 321.626 176.832 324.311 176.832 327.455C176.832 330.617 176.435 333.316 175.639 335.551C174.844 337.777 173.693 339.476 172.188 340.651C170.682 341.815 168.859 342.398 166.719 342.398ZM166.719 339.273C168.84 339.273 170.488 338.25 171.662 336.205C172.836 334.159 173.423 331.242 173.423 327.455C173.423 324.936 173.153 322.791 172.614 321.02C172.083 319.249 171.316 317.9 170.312 316.972C169.318 316.044 168.12 315.58 166.719 315.58C164.616 315.58 162.973 316.616 161.79 318.69C160.606 320.755 160.014 323.676 160.014 327.455C160.014 329.973 160.279 332.114 160.81 333.875C161.34 335.636 162.102 336.976 163.097 337.895C164.1 338.813 165.308 339.273 166.719 339.273ZM182.23 342V339.443L191.832 328.932C192.959 327.701 193.887 326.631 194.616 325.722C195.346 324.803 195.885 323.941 196.236 323.136C196.596 322.322 196.776 321.47 196.776 320.58C196.776 319.557 196.529 318.671 196.037 317.923C195.554 317.175 194.891 316.598 194.048 316.19C193.205 315.783 192.259 315.58 191.207 315.58C190.09 315.58 189.115 315.812 188.281 316.276C187.457 316.73 186.818 317.369 186.364 318.193C185.919 319.017 185.696 319.983 185.696 321.091H182.344C182.344 319.386 182.737 317.89 183.523 316.602C184.309 315.314 185.379 314.311 186.733 313.591C188.097 312.871 189.626 312.511 191.321 312.511C193.026 312.511 194.536 312.871 195.852 313.591C197.169 314.311 198.201 315.281 198.949 316.503C199.697 317.724 200.071 319.083 200.071 320.58C200.071 321.65 199.877 322.696 199.489 323.719C199.11 324.732 198.447 325.864 197.5 327.114C196.562 328.354 195.26 329.869 193.594 331.659L187.06 338.648V338.875H200.582V342H182.23ZM215.54 342.398C213.873 342.398 212.372 342.066 211.037 341.403C209.702 340.741 208.632 339.831 207.827 338.676C207.022 337.521 206.581 336.205 206.506 334.727H209.915C210.047 336.044 210.644 337.133 211.705 337.994C212.775 338.847 214.053 339.273 215.54 339.273C216.733 339.273 217.794 338.993 218.722 338.435C219.659 337.876 220.393 337.109 220.923 336.134C221.463 335.149 221.733 334.036 221.733 332.795C221.733 331.527 221.454 330.395 220.895 329.401C220.346 328.397 219.588 327.606 218.622 327.028C217.656 326.451 216.553 326.157 215.312 326.148C214.422 326.138 213.509 326.276 212.571 326.56C211.634 326.834 210.862 327.189 210.256 327.625L206.96 327.227L208.722 312.909H223.835V316.034H211.676L210.653 324.614H210.824C211.42 324.14 212.169 323.747 213.068 323.435C213.968 323.122 214.905 322.966 215.881 322.966C217.661 322.966 219.247 323.392 220.639 324.244C222.041 325.087 223.139 326.242 223.935 327.71C224.74 329.178 225.142 330.854 225.142 332.739C225.142 334.595 224.725 336.252 223.892 337.71C223.068 339.159 221.932 340.305 220.483 341.148C219.034 341.981 217.386 342.398 215.54 342.398ZM253.114 332.909H256.978L260.217 337.17L261.069 338.307L265.898 344.727H262.035L258.853 340.466L258.058 339.386L253.114 332.909ZM267.092 327.455C267.092 330.523 266.538 333.174 265.43 335.409C264.322 337.644 262.802 339.367 260.87 340.58C258.938 341.792 256.732 342.398 254.251 342.398C251.77 342.398 249.563 341.792 247.631 340.58C245.7 339.367 244.18 337.644 243.072 335.409C241.964 333.174 241.41 330.523 241.41 327.455C241.41 324.386 241.964 321.735 243.072 319.5C244.18 317.265 245.7 315.542 247.631 314.33C249.563 313.117 251.77 312.511 254.251 312.511C256.732 312.511 258.938 313.117 260.87 314.33C262.802 315.542 264.322 317.265 265.43 319.5C266.538 321.735 267.092 324.386 267.092 327.455ZM263.683 327.455C263.683 324.936 263.261 322.81 262.418 321.077C261.585 319.344 260.453 318.032 259.023 317.142C257.603 316.252 256.012 315.807 254.251 315.807C252.489 315.807 250.894 316.252 249.464 317.142C248.043 318.032 246.912 319.344 246.069 321.077C245.236 322.81 244.819 324.936 244.819 327.455C244.819 329.973 245.236 332.099 246.069 333.832C246.912 335.565 248.043 336.877 249.464 337.767C250.894 338.657 252.489 339.102 254.251 339.102C256.012 339.102 257.603 338.657 259.023 337.767C260.453 336.877 261.585 335.565 262.418 333.832C263.261 332.099 263.683 329.973 263.683 327.455ZM271.822 336.034V333.136L284.606 312.909H286.708V317.398H285.288L275.629 332.682V332.909H292.844V336.034H271.822ZM285.515 342V335.153V333.804V312.909H288.867V342H285.515Z" fill="black"/>
<path d="M83.3708 427.896C82.3255 427.892 81.3561 427.643 80.4627 427.148C79.5695 426.633 78.8585 425.937 78.3298 425.06C77.8011 424.183 77.5396 423.211 77.5453 422.145C77.5505 421.163 77.8008 420.236 78.2961 419.364C78.8127 418.491 79.5098 417.79 80.3873 417.26C81.2862 416.709 82.301 416.436 83.4317 416.44C84.477 416.444 85.4356 416.704 86.3076 417.22C87.1796 417.714 87.8801 418.389 88.4089 419.244C88.959 420.1 89.2311 421.082 89.2252 422.192C89.2196 423.237 88.9479 424.196 88.4099 425.068C87.8933 425.941 87.1856 426.631 86.2869 427.14C85.4095 427.648 84.4375 427.9 83.3708 427.896ZM110.096 430.851L110.216 408.292L113.192 408.304L113.086 428.303L124.318 428.348L124.304 430.908L110.096 430.851ZM133.481 431.233C132.073 431.227 130.837 430.892 129.774 430.226C128.711 429.561 127.884 428.597 127.294 427.336C126.703 426.075 126.412 424.581 126.421 422.853C126.431 421.125 126.737 419.643 127.341 418.408C127.945 417.152 128.782 416.196 129.852 415.538C130.923 414.881 132.162 414.556 133.57 414.561C134.999 414.567 136.234 414.935 137.276 415.664C138.339 416.373 139.038 417.346 139.372 418.585L138.988 418.583L139.36 414.873L142.176 414.884C142.109 415.524 142.041 416.163 141.974 416.803C141.928 417.443 141.903 418.072 141.9 418.691L141.834 430.979L138.922 430.967L138.942 427.287L139.294 427.288C138.946 428.503 138.237 429.471 137.167 430.192C136.118 430.892 134.889 431.239 133.481 431.233ZM134.165 428.932C135.616 428.938 136.781 428.43 137.661 427.41C138.541 426.389 138.987 424.887 138.997 422.903C139.008 420.919 138.578 419.424 137.709 418.418C136.84 417.412 135.68 416.906 134.229 416.9C132.779 416.894 131.603 417.391 130.701 418.39C129.821 419.389 129.376 420.881 129.365 422.865C129.355 424.849 129.784 426.354 130.653 427.382C131.523 428.409 132.693 428.926 134.165 428.932ZM145.975 438.259L145.315 435.889C146.319 435.658 147.153 435.384 147.816 435.067C148.478 434.771 149.035 434.378 149.486 433.889C149.936 433.4 150.334 432.783 150.68 432.038L151.49 430.121L151.419 431.337L144.499 414.893L147.635 414.906L153.161 428.72L152.329 428.717L158.003 414.947L161.011 414.959L153.526 432.274C153.073 433.317 152.578 434.19 152.041 434.892C151.525 435.594 150.956 436.167 150.335 436.613C149.736 437.058 149.072 437.408 148.346 437.661C147.619 437.914 146.829 438.113 145.975 438.259ZM170.727 431.383C168.167 431.372 166.144 430.628 164.659 429.15C163.195 427.672 162.47 425.643 162.483 423.061C162.492 421.355 162.82 419.884 163.467 418.649C164.135 417.393 165.047 416.426 166.202 415.748C167.358 415.049 168.704 414.702 170.24 414.708C171.712 414.714 172.958 415.039 173.979 415.683C174.999 416.306 175.773 417.195 176.301 418.349C176.828 419.503 177.087 420.869 177.079 422.448L177.074 423.408L164.754 423.359L164.763 421.631L175.099 421.672L174.553 422.086C174.561 420.422 174.195 419.13 173.453 418.209C172.733 417.289 171.658 416.826 170.229 416.82C168.671 416.814 167.463 417.353 166.604 418.438C165.745 419.501 165.311 420.961 165.301 422.817L165.299 423.105C165.289 425.067 165.761 426.552 166.715 427.558C167.691 428.565 169.043 429.072 170.771 429.079C171.731 429.083 172.628 428.947 173.462 428.673C174.295 428.399 175.098 427.944 175.869 427.307L176.818 429.327C176.089 429.985 175.18 430.494 174.09 430.852C173.021 431.21 171.901 431.387 170.727 431.383ZM180.806 431.135L180.871 418.975C180.874 418.335 180.856 417.684 180.817 417.023C180.799 416.34 180.75 415.679 180.668 415.038L183.484 415.05L183.814 419.083L183.334 419.113C183.553 418.133 183.92 417.323 184.435 416.685C184.972 416.026 185.604 415.549 186.331 415.253C187.079 414.936 187.848 414.779 188.637 414.782C188.978 414.784 189.266 414.795 189.501 414.818C189.736 414.84 189.97 414.894 190.204 414.981L190.126 417.572C189.807 417.443 189.509 417.367 189.232 417.345C188.976 417.301 188.656 417.278 188.272 417.277C187.333 417.273 186.521 417.483 185.836 417.907C185.173 418.331 184.658 418.894 184.291 419.597C183.946 420.299 183.772 421.056 183.767 421.867L183.718 431.147L180.806 431.135ZM202.655 431.223L202.669 428.695L207.949 428.716L208.042 411.212L209.546 411.218L203.221 415.097L203.236 412.185L208.887 408.687L211.031 408.696L210.925 428.728L215.885 428.748L215.871 431.276L202.655 431.223ZM229.064 431.329L229.184 408.769L231.808 408.779L240.597 428.847L239.637 428.843L248.64 408.847L251.232 408.857L251.112 431.417L248.392 431.406L248.491 412.814L249.483 412.818L241.032 431.377L239.144 431.369L230.891 412.744L231.883 412.748L231.784 431.339L229.064 431.329ZM262.449 431.75C261.041 431.745 259.805 431.409 258.742 430.744C257.679 430.078 256.852 429.115 256.261 427.854C255.671 426.593 255.38 425.098 255.389 423.37C255.398 421.642 255.705 420.161 256.309 418.926C256.913 417.669 257.75 416.713 258.82 416.056C259.89 415.399 261.129 415.073 262.537 415.079C263.967 415.084 265.202 415.452 266.243 416.182C267.306 416.89 268.005 417.863 268.34 419.102L267.956 419.1L268.328 415.39L271.144 415.401C271.076 416.041 271.009 416.681 270.941 417.32C270.895 417.96 270.871 418.589 270.867 419.208L270.802 431.496L267.89 431.484L267.91 427.804L268.262 427.806C267.914 429.02 267.205 429.988 266.134 430.709C265.085 431.409 263.857 431.756 262.449 431.75ZM263.133 429.449C264.584 429.455 265.749 428.948 266.629 427.927C267.509 426.907 267.955 425.404 267.965 423.421C267.976 421.437 267.546 419.941 266.677 418.935C265.808 417.929 264.648 417.423 263.197 417.417C261.746 417.412 260.57 417.908 259.669 418.907C258.789 419.906 258.344 421.398 258.333 423.382C258.323 425.366 258.752 426.872 259.621 427.899C260.49 428.927 261.661 429.443 263.133 429.449ZM275.681 431.516L275.767 415.42L278.679 415.431L278.593 431.527L275.681 431.516ZM275.529 411.899L275.546 408.763L279.002 408.777L278.985 411.913L275.529 411.899ZM283.462 431.547L283.528 419.259C283.531 418.64 283.513 418.011 283.474 417.371C283.434 416.731 283.374 416.09 283.292 415.45L286.108 415.461L286.409 418.918L286.025 418.917C286.523 417.703 287.285 416.778 288.312 416.142C289.34 415.506 290.536 415.191 291.901 415.196C293.8 415.204 295.227 415.732 296.181 416.782C297.135 417.809 297.607 419.411 297.595 421.587L297.542 431.603L294.63 431.592L294.683 421.736C294.69 420.264 294.408 419.207 293.835 418.564C293.263 417.901 292.369 417.566 291.153 417.561C289.702 417.556 288.548 417.988 287.69 418.86C286.853 419.731 286.431 420.913 286.423 422.407L286.374 431.558L283.462 431.547ZM302.306 431.622L302.371 419.334C302.374 418.716 302.357 418.086 302.317 417.446C302.278 416.806 302.217 416.166 302.135 415.526L304.951 415.537L305.253 418.994L304.869 418.993C305.366 417.779 306.128 416.854 307.156 416.218C308.183 415.582 309.38 415.267 310.745 415.272C312.644 415.28 314.07 415.808 315.025 416.857C315.979 417.885 316.451 419.487 316.439 421.663L316.386 431.679L313.474 431.667L313.526 421.811C313.534 420.339 313.252 419.282 312.679 418.64C312.107 417.976 311.212 417.642 309.996 417.637C308.546 417.631 307.391 418.064 306.533 418.935C305.697 419.807 305.274 420.989 305.267 422.482L305.218 431.634L302.306 431.622ZM328.476 432.015C325.916 432.005 323.893 431.261 322.408 429.783C320.944 428.305 320.218 426.275 320.232 423.694C320.241 421.988 320.569 420.517 321.215 419.282C321.884 418.026 322.795 417.059 323.951 416.381C325.107 415.682 326.453 415.335 327.989 415.341C329.461 415.347 330.707 415.672 331.727 416.316C332.748 416.939 333.522 417.827 334.049 418.982C334.576 420.136 334.836 421.502 334.827 423.081L334.822 424.041L322.502 423.991L322.512 422.263L332.848 422.305L332.301 422.719C332.31 421.055 331.944 419.762 331.202 418.842C330.482 417.922 329.407 417.459 327.977 417.453C326.42 417.447 325.212 417.986 324.353 419.071C323.494 420.134 323.059 421.593 323.049 423.449L323.048 423.737C323.037 425.7 323.51 427.185 324.464 428.191C325.44 429.198 326.792 429.705 328.52 429.711C329.48 429.715 330.377 429.58 331.21 429.306C332.044 429.032 332.846 428.577 333.618 427.94L334.567 429.96C333.838 430.618 332.929 431.126 331.839 431.485C330.77 431.843 329.649 432.02 328.476 432.015ZM344.57 432.08C342.885 432.073 341.607 431.609 340.737 430.688C339.889 429.746 339.47 428.337 339.48 426.459L339.525 417.916L336.389 417.903L336.401 415.663L339.537 415.676L339.56 411.356L342.476 410.567L342.449 415.687L346.993 415.705L346.981 417.945L342.437 417.927L342.393 426.215C342.387 427.452 342.595 428.339 343.019 428.874C343.464 429.387 344.103 429.646 344.935 429.649C345.362 429.651 345.724 429.62 346.023 429.558C346.344 429.474 346.632 429.379 346.889 429.273L346.876 431.673C346.556 431.8 346.182 431.894 345.755 431.957C345.349 432.04 344.954 432.081 344.57 432.08ZM358.719 431.849L358.839 409.289L361.815 409.301L361.695 431.861L358.719 431.849ZM366.837 431.881L366.902 419.593C366.905 418.975 366.887 418.345 366.848 417.705C366.809 417.065 366.748 416.425 366.666 415.784L369.482 415.796L369.784 419.253L369.4 419.251C369.833 418.058 370.52 417.144 371.462 416.508C372.405 415.85 373.526 415.524 374.828 415.529C376.15 415.534 377.237 415.859 378.087 416.502C378.937 417.124 379.507 418.108 379.799 419.453L379.319 419.451C379.731 418.258 380.45 417.312 381.478 416.612C382.506 415.912 383.702 415.565 385.068 415.57C386.838 415.577 388.169 416.105 389.059 417.154C389.95 418.182 390.389 419.784 390.378 421.96L390.324 431.975L387.412 431.964L387.465 422.108C387.473 420.636 387.222 419.579 386.714 418.937C386.205 418.273 385.396 417.94 384.287 417.935C382.986 417.93 381.959 418.374 381.208 419.267C380.457 420.138 380.077 421.332 380.069 422.846L380.021 431.934L377.109 431.922L377.161 422.067C377.169 420.595 376.918 419.538 376.41 418.895C375.923 418.232 375.114 417.898 373.983 417.894C372.682 417.889 371.655 418.332 370.904 419.225C370.174 420.097 369.805 421.29 369.797 422.805L369.749 431.893L366.837 431.881ZM395.05 438.906L395.152 419.707C395.155 419.088 395.137 418.459 395.098 417.818C395.058 417.178 394.998 416.538 394.916 415.898L397.732 415.909L398.064 419.622L397.712 419.621C398.039 418.385 398.727 417.417 399.776 416.717C400.825 415.996 402.075 415.638 403.525 415.644C404.955 415.65 406.201 415.986 407.264 416.651C408.327 417.317 409.143 418.28 409.713 419.541C410.304 420.781 410.594 422.265 410.585 423.993C410.576 425.721 410.269 427.213 409.665 428.469C409.083 429.725 408.256 430.682 407.186 431.339C406.116 431.996 404.866 432.322 403.437 432.316C402.008 432.31 400.772 431.953 399.73 431.245C398.71 430.516 398.022 429.542 397.666 428.325L398.018 428.326L397.962 438.918L395.05 438.906ZM402.777 430.009C404.249 430.015 405.425 429.508 406.305 428.487C407.185 427.467 407.631 425.965 407.641 423.981C407.652 421.997 407.222 420.502 406.353 419.496C405.484 418.489 404.313 417.983 402.841 417.977C401.369 417.972 400.193 418.468 399.313 419.467C398.454 420.467 398.02 421.958 398.009 423.942C397.999 425.926 398.417 427.432 399.265 428.459C400.134 429.487 401.305 430.003 402.777 430.009ZM414.461 432.072L414.586 408.521L417.498 408.532L417.373 432.084L414.461 432.072ZM429.569 432.421C427.009 432.411 424.986 431.666 423.501 430.188C422.036 428.711 421.311 426.681 421.325 424.1C421.334 422.393 421.662 420.922 422.308 419.688C422.976 418.432 423.888 417.465 425.044 416.787C426.2 416.087 427.545 415.741 429.081 415.747C430.553 415.753 431.8 416.078 432.82 416.722C433.841 417.345 434.615 418.233 435.142 419.387C435.669 420.541 435.929 421.908 435.92 423.486L435.915 424.446L423.595 424.397L423.605 422.669L433.941 422.71L433.394 423.124C433.403 421.46 433.037 420.168 432.295 419.248C431.574 418.327 430.5 417.864 429.07 417.859C427.513 417.852 426.305 418.392 425.446 419.476C424.587 420.539 424.152 421.999 424.142 423.855L424.141 424.143C424.13 426.106 424.602 427.59 425.557 428.597C426.533 429.603 427.885 430.11 429.613 430.117C430.573 430.121 431.47 429.986 432.303 429.712C433.137 429.438 433.939 428.982 434.711 428.345L435.66 430.365C434.931 431.024 434.022 431.532 432.932 431.89C431.863 432.249 430.742 432.426 429.569 432.421ZM439.68 432.173L439.745 419.886C439.748 419.267 439.73 418.637 439.691 417.997C439.652 417.357 439.591 416.717 439.509 416.077L442.325 416.088L442.627 419.545L442.243 419.544C442.676 418.351 443.364 417.436 444.306 416.8C445.248 416.142 446.369 415.816 447.671 415.821C448.993 415.827 450.08 416.151 450.93 416.794C451.78 417.416 452.35 418.4 452.642 419.745L452.162 419.743C452.574 418.55 453.293 417.604 454.321 416.904C455.349 416.204 456.545 415.857 457.911 415.862C459.681 415.869 461.012 416.397 461.902 417.446C462.793 418.474 463.232 420.076 463.221 422.252L463.168 432.268L460.256 432.256L460.308 422.4C460.316 420.928 460.065 419.871 459.557 419.229C459.048 418.566 458.239 418.232 457.13 418.227C455.829 418.222 454.802 418.666 454.051 419.559C453.3 420.431 452.92 421.624 452.912 423.138L452.864 432.226L449.952 432.215L450.004 422.359C450.012 420.887 449.762 419.83 449.253 419.188C448.766 418.524 447.957 418.19 446.826 418.186C445.525 418.181 444.499 418.625 443.747 419.518C443.017 420.389 442.648 421.583 442.64 423.097L442.592 432.185L439.68 432.173ZM475.256 432.604C472.696 432.594 470.673 431.85 469.188 430.372C467.724 428.894 466.998 426.864 467.012 424.283C467.021 422.576 467.349 421.106 467.996 419.871C468.664 418.615 469.575 417.648 470.731 416.97C471.887 416.27 473.233 415.924 474.769 415.93C476.241 415.936 477.487 416.261 478.507 416.905C479.528 417.528 480.302 418.416 480.829 419.57C481.357 420.724 481.616 422.091 481.608 423.669L481.602 424.629L469.283 424.58L469.292 422.852L479.628 422.894L479.081 423.307C479.09 421.643 478.724 420.351 477.982 419.431C477.262 418.511 476.187 418.048 474.757 418.042C473.2 418.036 471.992 418.575 471.133 419.659C470.274 420.723 469.839 422.182 469.829 424.038L469.828 424.326C469.817 426.289 470.29 427.773 471.244 428.78C472.22 429.787 473.572 430.293 475.3 430.3C476.26 430.304 477.157 430.169 477.99 429.895C478.824 429.621 479.626 429.166 480.398 428.529L481.347 430.548C480.618 431.207 479.709 431.715 478.619 432.074C477.55 432.432 476.429 432.609 475.256 432.604ZM485.367 432.357L485.432 420.069C485.436 419.45 485.418 418.821 485.378 418.181C485.339 417.54 485.278 416.9 485.196 416.26L488.012 416.271L488.314 419.728L487.93 419.727C488.427 418.513 489.189 417.588 490.217 416.952C491.244 416.316 492.441 416.001 493.806 416.006C495.705 416.014 497.131 416.542 498.086 417.592C499.04 418.619 499.512 420.221 499.5 422.397L499.447 432.413L496.535 432.401L496.587 422.546C496.595 421.074 496.313 420.016 495.74 419.374C495.168 418.711 494.273 418.376 493.057 418.371C491.607 418.366 490.452 418.798 489.594 419.669C488.758 420.541 488.335 421.723 488.328 423.216L488.279 432.368L485.367 432.357ZM510.225 432.744C508.54 432.738 507.262 432.274 506.392 431.353C505.544 430.411 505.125 429.001 505.135 427.124L505.18 418.58L502.044 418.567L502.056 416.327L505.192 416.34L505.215 412.02L508.131 411.232L508.104 416.352L512.648 416.37L512.636 418.61L508.092 418.592L508.048 426.88C508.042 428.117 508.25 429.003 508.674 429.538C509.119 430.052 509.758 430.31 510.59 430.314C511.017 430.316 511.379 430.285 511.678 430.222C511.999 430.138 512.287 430.043 512.544 429.938L512.531 432.338C512.21 432.464 511.837 432.559 511.41 432.621C511.004 432.705 510.609 432.746 510.225 432.744ZM521.759 432.791C520.351 432.785 519.116 432.449 518.052 431.784C516.989 431.118 516.162 430.155 515.572 428.894C514.981 427.633 514.69 426.138 514.7 424.41C514.709 422.682 515.015 421.201 515.619 419.966C516.223 418.71 517.06 417.753 518.13 417.096C519.201 416.439 520.44 416.113 521.848 416.119C523.277 416.125 524.512 416.492 525.554 417.222C526.617 417.93 527.316 418.903 527.65 420.142L527.266 420.141L527.638 416.43L530.454 416.441C530.387 417.081 530.319 417.721 530.252 418.361C530.206 419 530.181 419.63 530.178 420.248L530.113 432.536L527.201 432.524L527.22 428.844L527.572 428.846C527.224 430.061 526.515 431.028 525.445 431.749C524.396 432.449 523.167 432.796 521.759 432.791ZM522.443 430.489C523.894 430.495 525.059 429.988 525.939 428.967C526.82 427.947 527.265 426.445 527.275 424.461C527.286 422.477 526.857 420.982 525.987 419.975C525.118 418.969 523.958 418.463 522.507 418.458C521.057 418.452 519.881 418.948 518.979 419.947C518.099 420.947 517.654 422.438 517.644 424.422C517.633 426.406 518.062 427.912 518.932 428.939C519.801 429.967 520.971 430.483 522.443 430.489ZM541.006 432.868C539.321 432.861 538.043 432.397 537.173 431.476C536.325 430.534 535.906 429.125 535.916 427.247L535.961 418.703L532.825 418.691L532.837 416.451L535.973 416.464L535.996 412.144L538.912 411.355L538.885 416.475L543.429 416.493L543.417 418.733L538.873 418.715L538.829 427.003C538.823 428.24 539.031 429.127 539.455 429.662C539.9 430.175 540.539 430.434 541.371 430.437C541.798 430.439 542.16 430.408 542.459 430.346C542.78 430.262 543.068 430.167 543.325 430.061L543.312 432.461C542.991 432.588 542.618 432.682 542.191 432.745C541.785 432.828 541.39 432.869 541.006 432.868ZM546.398 432.601L546.483 416.506L549.395 416.517L549.31 432.613L546.398 432.601ZM546.246 412.985L546.263 409.849L549.719 409.863L549.702 412.999L546.246 412.985ZM560.961 432.948C559.383 432.942 558.019 432.605 556.871 431.939C555.722 431.252 554.831 430.289 554.198 429.049C553.565 427.787 553.253 426.293 553.262 424.565C553.271 422.858 553.599 421.388 554.245 420.153C554.892 418.897 555.793 417.94 556.948 417.284C558.104 416.606 559.471 416.27 561.05 416.276C562.629 416.282 563.992 416.629 565.14 417.317C566.31 417.983 567.201 418.946 567.813 420.207C568.447 421.447 568.759 422.92 568.75 424.627C568.74 426.355 568.413 427.847 567.766 429.103C567.141 430.338 566.239 431.294 565.063 431.972C563.907 432.629 562.54 432.954 560.961 432.948ZM560.974 430.644C562.424 430.65 563.59 430.142 564.47 429.122C565.35 428.101 565.795 426.599 565.806 424.615C565.816 422.631 565.387 421.136 564.517 420.13C563.648 419.124 562.488 418.618 561.037 418.612C559.565 418.606 558.39 419.103 557.51 420.102C556.651 421.101 556.216 422.593 556.206 424.577C556.195 426.561 556.614 428.066 557.462 429.094C558.331 430.121 559.502 430.638 560.974 430.644ZM572.616 432.707L572.682 420.419C572.685 419.8 572.667 419.171 572.628 418.531C572.588 417.89 572.528 417.25 572.446 416.61L575.262 416.621L575.563 420.078L575.179 420.077C575.677 418.863 576.439 417.938 577.466 417.302C578.494 416.666 579.69 416.351 581.055 416.356C582.954 416.364 584.38 416.892 585.335 417.942C586.289 418.969 586.761 420.571 586.749 422.747L586.696 432.763L583.784 432.751L583.837 422.896C583.844 421.424 583.562 420.366 582.989 419.724C582.417 419.06 581.523 418.726 580.307 418.721C578.856 418.716 577.702 419.148 576.844 420.019C576.007 420.891 575.585 422.073 575.577 423.566L575.528 432.718L572.616 432.707Z" fill="#BA1E71"/>
<path d="M91.9314 328.225C91.9314 332.767 87.6935 336.449 82.4657 336.449C77.2379 336.449 73 332.767 73 328.225C73 323.682 77.2379 320 82.4657 320C87.6935 320 91.9314 323.682 91.9314 328.225Z" fill="#D9D9D9"/>
<path d="M82.5 328L82.5 422.01" stroke="#0FA9D9"/>
</svg>
