<svg width="646" height="627" viewBox="0 0 646 627" fill="none" xmlns="http://www.w3.org/2000/svg">
<path d="M368 335L314 379.167V290.833L368 335Z" fill="#4CC9F0"/>
<path fill-rule="evenodd" clip-rule="evenodd" d="M0.204591 379L54 335L0.204591 291H314V379H0.204591ZM4.80711e-05 379L4.95911e-05 291H4.80711e-05V379Z" fill="#4CC9F0"/>
<path d="M133.011 349V346.443L142.614 335.932C143.741 334.701 144.669 333.631 145.398 332.722C146.127 331.803 146.667 330.941 147.017 330.136C147.377 329.322 147.557 328.47 147.557 327.58C147.557 326.557 147.311 325.671 146.818 324.923C146.335 324.175 145.672 323.598 144.83 323.19C143.987 322.783 143.04 322.58 141.989 322.58C140.871 322.58 139.896 322.812 139.062 323.276C138.239 323.73 137.599 324.369 137.145 325.193C136.7 326.017 136.477 326.983 136.477 328.091H133.125C133.125 326.386 133.518 324.89 134.304 323.602C135.09 322.314 136.16 321.311 137.514 320.591C138.878 319.871 140.407 319.511 142.102 319.511C143.807 319.511 145.317 319.871 146.634 320.591C147.95 321.311 148.982 322.281 149.73 323.503C150.478 324.724 150.852 326.083 150.852 327.58C150.852 328.65 150.658 329.696 150.27 330.719C149.891 331.732 149.228 332.864 148.281 334.114C147.344 335.354 146.042 336.869 144.375 338.659L137.841 345.648V345.875H151.364V349H133.011ZM166.719 349.398C164.579 349.398 162.756 348.815 161.25 347.651C159.744 346.476 158.594 344.777 157.798 342.551C157.003 340.316 156.605 337.617 156.605 334.455C156.605 331.311 157.003 328.626 157.798 326.401C158.603 324.166 159.759 322.461 161.264 321.287C162.779 320.103 164.598 319.511 166.719 319.511C168.84 319.511 170.653 320.103 172.159 321.287C173.674 322.461 174.83 324.166 175.625 326.401C176.43 328.626 176.832 331.311 176.832 334.455C176.832 337.617 176.435 340.316 175.639 342.551C174.844 344.777 173.693 346.476 172.188 347.651C170.682 348.815 168.859 349.398 166.719 349.398ZM166.719 346.273C168.84 346.273 170.488 345.25 171.662 343.205C172.836 341.159 173.423 338.242 173.423 334.455C173.423 331.936 173.153 329.791 172.614 328.02C172.083 326.249 171.316 324.9 170.312 323.972C169.318 323.044 168.12 322.58 166.719 322.58C164.616 322.58 162.973 323.616 161.79 325.69C160.606 327.755 160.014 330.676 160.014 334.455C160.014 336.973 160.279 339.114 160.81 340.875C161.34 342.636 162.102 343.976 163.097 344.895C164.1 345.813 165.308 346.273 166.719 346.273ZM182.23 349V346.443L191.832 335.932C192.959 334.701 193.887 333.631 194.616 332.722C195.346 331.803 195.885 330.941 196.236 330.136C196.596 329.322 196.776 328.47 196.776 327.58C196.776 326.557 196.529 325.671 196.037 324.923C195.554 324.175 194.891 323.598 194.048 323.19C193.205 322.783 192.259 322.58 191.207 322.58C190.09 322.58 189.115 322.812 188.281 323.276C187.457 323.73 186.818 324.369 186.364 325.193C185.919 326.017 185.696 326.983 185.696 328.091H182.344C182.344 326.386 182.737 324.89 183.523 323.602C184.309 322.314 185.379 321.311 186.733 320.591C188.097 319.871 189.626 319.511 191.321 319.511C193.026 319.511 194.536 319.871 195.852 320.591C197.169 321.311 198.201 322.281 198.949 323.503C199.697 324.724 200.071 326.083 200.071 327.58C200.071 328.65 199.877 329.696 199.489 330.719C199.11 331.732 198.447 332.864 197.5 334.114C196.562 335.354 195.26 336.869 193.594 338.659L187.06 345.648V345.875H200.582V349H182.23ZM205.142 343.034V340.136L217.926 319.909H220.028V324.398H218.608L208.949 339.682V339.909H226.165V343.034H205.142ZM218.835 349V342.153V340.804V319.909H222.188V349H218.835ZM253.817 339.909H257.681L260.92 344.17L261.772 345.307L266.602 351.727H262.738L259.556 347.466L258.761 346.386L253.817 339.909ZM267.795 334.455C267.795 337.523 267.241 340.174 266.133 342.409C265.025 344.644 263.505 346.367 261.573 347.58C259.641 348.792 257.435 349.398 254.954 349.398C252.473 349.398 250.266 348.792 248.335 347.58C246.403 346.367 244.883 344.644 243.775 342.409C242.667 340.174 242.113 337.523 242.113 334.455C242.113 331.386 242.667 328.735 243.775 326.5C244.883 324.265 246.403 322.542 248.335 321.33C250.266 320.117 252.473 319.511 254.954 319.511C257.435 319.511 259.641 320.117 261.573 321.33C263.505 322.542 265.025 324.265 266.133 326.5C267.241 328.735 267.795 331.386 267.795 334.455ZM264.386 334.455C264.386 331.936 263.964 329.81 263.121 328.077C262.288 326.344 261.156 325.032 259.727 324.142C258.306 323.252 256.715 322.807 254.954 322.807C253.192 322.807 251.597 323.252 250.167 324.142C248.746 325.032 247.615 326.344 246.772 328.077C245.939 329.81 245.522 331.936 245.522 334.455C245.522 336.973 245.939 339.099 246.772 340.832C247.615 342.565 248.746 343.877 250.167 344.767C251.597 345.657 253.192 346.102 254.954 346.102C256.715 346.102 258.306 345.657 259.727 344.767C261.156 343.877 262.288 342.565 263.121 340.832C263.964 339.099 264.386 336.973 264.386 334.455ZM283.036 349.398C281.161 349.398 279.49 349.076 278.022 348.432C276.564 347.788 275.404 346.893 274.542 345.747C273.69 344.592 273.226 343.252 273.15 341.727H276.729C276.805 342.665 277.127 343.474 277.695 344.156C278.263 344.829 279.007 345.349 279.925 345.719C280.844 346.088 281.862 346.273 282.979 346.273C284.229 346.273 285.337 346.055 286.303 345.619C287.269 345.184 288.027 344.578 288.576 343.801C289.125 343.025 289.4 342.125 289.4 341.102C289.4 340.032 289.135 339.09 288.604 338.276C288.074 337.452 287.298 336.808 286.275 336.344C285.252 335.88 284.002 335.648 282.525 335.648H280.195V332.523H282.525C283.68 332.523 284.693 332.314 285.565 331.898C286.445 331.481 287.132 330.894 287.624 330.136C288.126 329.379 288.377 328.489 288.377 327.466C288.377 326.481 288.159 325.624 287.724 324.895C287.288 324.166 286.673 323.598 285.877 323.19C285.091 322.783 284.163 322.58 283.093 322.58C282.089 322.58 281.142 322.764 280.252 323.134C279.371 323.493 278.652 324.019 278.093 324.71C277.534 325.392 277.231 326.216 277.184 327.182H273.775C273.832 325.657 274.291 324.322 275.153 323.176C276.014 322.021 277.141 321.121 278.533 320.477C279.935 319.833 281.474 319.511 283.15 319.511C284.949 319.511 286.493 319.876 287.781 320.605C289.068 321.325 290.058 322.277 290.749 323.46C291.441 324.644 291.786 325.922 291.786 327.295C291.786 328.934 291.355 330.33 290.494 331.486C289.641 332.641 288.481 333.441 287.013 333.886V334.114C288.851 334.417 290.285 335.198 291.317 336.457C292.35 337.707 292.866 339.256 292.866 341.102C292.866 342.684 292.435 344.104 291.573 345.364C290.721 346.614 289.556 347.598 288.079 348.318C286.602 349.038 284.921 349.398 283.036 349.398Z" fill="black"/>
<circle cx="92.5" cy="334.5" r="8.5" fill="#D9D9D9"/>
<path d="M93.2158 29.152C92.1705 29.152 91.1998 28.9067 90.3038 28.416C89.4078 27.904 88.6932 27.2107 88.1598 26.336C87.6265 25.4613 87.3598 24.4907 87.3598 23.424C87.3598 22.4427 87.6052 21.5147 88.0958 20.64C88.6078 19.7653 89.3012 19.0613 90.1758 18.528C91.0718 17.9733 92.0852 17.696 93.2158 17.696C94.2612 17.696 95.2212 17.952 96.0958 18.464C96.9705 18.9547 97.6745 19.6267 98.2078 20.48C98.7625 21.3333 99.0398 22.3147 99.0398 23.424C99.0398 24.4693 98.7732 25.4293 98.2398 26.304C97.7278 27.1787 97.0238 27.872 96.1278 28.384C95.2532 28.896 94.2825 29.152 93.2158 29.152ZM126.133 32L118.229 9.44H121.365L128.053 29.344H126.901L134.005 9.44H136.341L142.997 29.344H141.973L148.885 9.44H151.829L143.861 32H141.269L134.773 12.96H135.445L128.693 32H126.133ZM155.293 32V8.448H158.205V19.392H157.789C158.258 18.1547 159.016 17.216 160.061 16.576C161.106 15.936 162.312 15.616 163.677 15.616C165.618 15.616 167.048 16.1387 167.965 17.184C168.904 18.2293 169.373 19.808 169.373 21.92V32H166.461V22.08C166.461 20.6507 166.184 19.616 165.629 18.976C165.074 18.3147 164.168 17.984 162.909 17.984C161.501 17.984 160.36 18.4213 159.485 19.296C158.632 20.1707 158.205 21.3333 158.205 22.784V32H155.293ZM174.137 32V15.904H177.049V32H174.137ZM173.881 12.384V9.248H177.337V12.384H173.881ZM187.934 32.288C186.249 32.288 184.969 31.8293 184.094 30.912C183.241 29.9733 182.814 28.5653 182.814 26.688V18.144H179.678V15.904H182.814V11.584L185.726 10.784V15.904H190.27V18.144H185.726V26.432C185.726 27.6693 185.939 28.5547 186.366 29.088C186.814 29.6 187.454 29.856 188.286 29.856C188.713 29.856 189.075 29.824 189.374 29.76C189.694 29.6747 189.982 29.5787 190.238 29.472V31.872C189.918 32 189.545 32.096 189.118 32.16C188.713 32.2453 188.318 32.288 187.934 32.288ZM200.496 32.288C197.936 32.288 195.909 31.552 194.416 30.08C192.944 28.608 192.208 26.5813 192.208 24C192.208 22.2933 192.528 20.8213 193.168 19.584C193.829 18.3253 194.736 17.3547 195.888 16.672C197.04 15.968 198.384 15.616 199.92 15.616C201.392 15.616 202.64 15.936 203.664 16.576C204.688 17.1947 205.467 18.08 206 19.232C206.533 20.384 206.8 21.7493 206.8 23.328V24.288H194.48V22.56H204.816L204.272 22.976C204.272 21.312 203.899 20.0213 203.152 19.104C202.427 18.1867 201.349 17.728 199.92 17.728C198.363 17.728 197.157 18.272 196.304 19.36C195.451 20.4267 195.024 21.888 195.024 23.744V24.032C195.024 25.9947 195.504 27.4773 196.464 28.48C197.445 29.4827 198.8 29.984 200.528 29.984C201.488 29.984 202.384 29.8453 203.216 29.568C204.048 29.2907 204.848 28.832 205.616 28.192L206.576 30.208C205.851 30.8693 204.944 31.3813 203.856 31.744C202.789 32.1067 201.669 32.288 200.496 32.288ZM210.605 38.912V19.712C210.605 19.0933 210.584 18.464 210.541 17.824C210.499 17.184 210.435 16.544 210.349 15.904H213.165L213.517 19.616H213.165C213.485 18.3787 214.168 17.408 215.213 16.704C216.259 15.9787 217.507 15.616 218.957 15.616C220.387 15.616 221.635 15.9467 222.701 16.608C223.768 17.2693 224.589 18.2293 225.165 19.488C225.763 20.7253 226.061 22.208 226.061 23.936C226.061 25.664 225.763 27.1573 225.165 28.416C224.589 29.6747 223.768 30.6347 222.701 31.296C221.635 31.9573 220.387 32.288 218.957 32.288C217.528 32.288 216.291 31.936 215.245 31.232C214.221 30.5067 213.528 29.536 213.165 28.32H213.517V38.912H210.605ZM218.285 29.984C219.757 29.984 220.931 29.472 221.805 28.448C222.68 27.424 223.117 25.92 223.117 23.936C223.117 21.952 222.68 20.4587 221.805 19.456C220.931 18.4533 219.757 17.952 218.285 17.952C216.813 17.952 215.64 18.4533 214.765 19.456C213.912 20.4587 213.485 21.952 213.485 23.936C213.485 25.92 213.912 27.424 214.765 28.448C215.64 29.472 216.813 29.984 218.285 29.984ZM236.124 32.288C234.716 32.288 233.479 31.9573 232.412 31.296C231.346 30.6347 230.514 29.6747 229.916 28.416C229.319 27.1573 229.02 25.664 229.02 23.936C229.02 22.208 229.319 20.7253 229.916 19.488C230.514 18.2293 231.346 17.2693 232.412 16.608C233.479 15.9467 234.716 15.616 236.124 15.616C237.554 15.616 238.791 15.9787 239.836 16.704C240.903 17.408 241.607 18.3787 241.948 19.616H241.564L241.916 15.904H244.732C244.668 16.544 244.604 17.184 244.54 17.824C244.498 18.464 244.476 19.0933 244.476 19.712V32H241.564V28.32H241.916C241.575 29.536 240.871 30.5067 239.804 31.232C238.759 31.936 237.532 32.288 236.124 32.288ZM236.796 29.984C238.247 29.984 239.41 29.472 240.284 28.448C241.159 27.424 241.596 25.92 241.596 23.936C241.596 21.952 241.159 20.4587 240.284 19.456C239.41 18.4533 238.247 17.952 236.796 17.952C235.346 17.952 234.172 18.4533 233.276 19.456C232.402 20.4587 231.964 21.952 231.964 23.936C231.964 25.92 232.402 27.424 233.276 28.448C234.151 29.472 235.324 29.984 236.796 29.984ZM249.355 38.912V19.712C249.355 19.0933 249.334 18.464 249.291 17.824C249.249 17.184 249.185 16.544 249.099 15.904H251.915L252.267 19.616H251.915C252.235 18.3787 252.918 17.408 253.963 16.704C255.009 15.9787 256.257 15.616 257.707 15.616C259.137 15.616 260.385 15.9467 261.451 16.608C262.518 17.2693 263.339 18.2293 263.915 19.488C264.513 20.7253 264.811 22.208 264.811 23.936C264.811 25.664 264.513 27.1573 263.915 28.416C263.339 29.6747 262.518 30.6347 261.451 31.296C260.385 31.9573 259.137 32.288 257.707 32.288C256.278 32.288 255.041 31.936 253.995 31.232C252.971 30.5067 252.278 29.536 251.915 28.32H252.267V38.912H249.355ZM257.035 29.984C258.507 29.984 259.681 29.472 260.555 28.448C261.43 27.424 261.867 25.92 261.867 23.936C261.867 21.952 261.43 20.4587 260.555 19.456C259.681 18.4533 258.507 17.952 257.035 17.952C255.563 17.952 254.39 18.4533 253.515 19.456C252.662 20.4587 252.235 21.952 252.235 23.936C252.235 25.92 252.662 27.424 253.515 28.448C254.39 29.472 255.563 29.984 257.035 29.984ZM276.058 32.288C273.498 32.288 271.472 31.552 269.978 30.08C268.506 28.608 267.77 26.5813 267.77 24C267.77 22.2933 268.09 20.8213 268.73 19.584C269.392 18.3253 270.298 17.3547 271.45 16.672C272.602 15.968 273.946 15.616 275.482 15.616C276.954 15.616 278.202 15.936 279.226 16.576C280.25 17.1947 281.029 18.08 281.562 19.232C282.096 20.384 282.362 21.7493 282.362 23.328V24.288H270.042V22.56H280.378L279.834 22.976C279.834 21.312 279.461 20.0213 278.714 19.104C277.989 18.1867 276.912 17.728 275.482 17.728C273.925 17.728 272.72 18.272 271.866 19.36C271.013 20.4267 270.586 21.888 270.586 23.744V24.032C270.586 25.9947 271.066 27.4773 272.026 28.48C273.008 29.4827 274.362 29.984 276.09 29.984C277.05 29.984 277.946 29.8453 278.778 29.568C279.61 29.2907 280.41 28.832 281.178 28.192L282.138 30.208C281.413 30.8693 280.506 31.3813 279.418 31.744C278.352 32.1067 277.232 32.288 276.058 32.288ZM286.136 32V19.84C286.136 19.2 286.115 18.5493 286.072 17.888C286.051 17.2053 285.997 16.544 285.912 15.904H288.728L289.08 19.936L288.6 19.968C288.813 18.9867 289.176 18.176 289.688 17.536C290.221 16.8747 290.851 16.3947 291.576 16.096C292.323 15.776 293.091 15.616 293.88 15.616C294.221 15.616 294.509 15.6267 294.744 15.648C294.979 15.6693 295.213 15.7227 295.448 15.808L295.384 18.4C295.064 18.272 294.765 18.1973 294.488 18.176C294.232 18.1333 293.912 18.112 293.528 18.112C292.589 18.112 291.779 18.3253 291.096 18.752C290.435 19.1787 289.923 19.744 289.56 20.448C289.219 21.152 289.048 21.9093 289.048 22.72V32H286.136ZM311.185 32L304.305 15.904H307.441L313.041 29.728H312.145L317.841 15.904H320.817L313.905 32H311.185ZM330.551 32.288C329.015 32.288 327.543 32.0533 326.135 31.584C324.748 31.1147 323.586 30.4533 322.647 29.6L323.703 27.296C324.748 28.1493 325.826 28.768 326.935 29.152C328.044 29.536 329.218 29.728 330.455 29.728C332.098 29.728 333.346 29.3867 334.199 28.704C335.052 28 335.479 26.9973 335.479 25.696C335.479 24.416 335.042 23.4453 334.167 22.784C333.314 22.1227 332.055 21.792 330.391 21.792H326.935V19.328H330.167C331.575 19.328 332.706 18.9653 333.559 18.24C334.412 17.5147 334.839 16.5227 334.839 15.264C334.839 14.112 334.444 13.2373 333.655 12.64C332.887 12.0213 331.788 11.712 330.359 11.712C327.948 11.712 325.858 12.5547 324.087 14.24L323.031 11.968C323.927 11.072 325.036 10.3787 326.359 9.888C327.682 9.39733 329.079 9.152 330.551 9.152C332.791 9.152 334.551 9.664 335.831 10.688C337.111 11.712 337.751 13.1413 337.751 14.976C337.751 16.3627 337.356 17.5573 336.567 18.56C335.799 19.5413 334.743 20.192 333.399 20.512V20.16C334.978 20.4373 336.204 21.088 337.079 22.112C337.954 23.1147 338.391 24.3733 338.391 25.888C338.391 27.872 337.687 29.44 336.279 30.592C334.892 31.7227 332.983 32.288 330.551 32.288ZM93.2158 69.152C92.1705 69.152 91.1998 68.9067 90.3038 68.416C89.4078 67.904 88.6932 67.2107 88.1598 66.336C87.6265 65.4613 87.3598 64.4907 87.3598 63.424C87.3598 62.4427 87.6052 61.5147 88.0958 60.64C88.6078 59.7653 89.3012 59.0613 90.1758 58.528C91.0718 57.9733 92.0852 57.696 93.2158 57.696C94.2612 57.696 95.2212 57.952 96.0958 58.464C96.9705 58.9547 97.6745 59.6267 98.2078 60.48C98.7625 61.3333 99.0398 62.3147 99.0398 63.424C99.0398 64.4693 98.7732 65.4293 98.2398 66.304C97.7278 67.1787 97.0238 67.872 96.1278 68.384C95.2532 68.896 94.2825 69.152 93.2158 69.152ZM119.957 72V49.44H122.581L131.477 69.472H130.517L139.413 49.44H142.005V72H139.285V53.408H140.277L131.925 72H130.037L121.685 53.408H122.677V72H119.957ZM153.343 72.288C151.935 72.288 150.698 71.9573 149.631 71.296C148.564 70.6347 147.732 69.6747 147.135 68.416C146.538 67.1573 146.239 65.664 146.239 63.936C146.239 62.208 146.538 60.7253 147.135 59.488C147.732 58.2293 148.564 57.2693 149.631 56.608C150.698 55.9467 151.935 55.616 153.343 55.616C154.772 55.616 156.01 55.9787 157.055 56.704C158.122 57.408 158.826 58.3787 159.167 59.616H158.783L159.135 55.904H161.951C161.887 56.544 161.823 57.184 161.759 57.824C161.716 58.464 161.695 59.0933 161.695 59.712V72H158.783V68.32H159.135C158.794 69.536 158.09 70.5067 157.023 71.232C155.978 71.936 154.751 72.288 153.343 72.288ZM154.015 69.984C155.466 69.984 156.628 69.472 157.503 68.448C158.378 67.424 158.815 65.92 158.815 63.936C158.815 61.952 158.378 60.4587 157.503 59.456C156.628 58.4533 155.466 57.952 154.015 57.952C152.564 57.952 151.391 58.4533 150.495 59.456C149.62 60.4587 149.183 61.952 149.183 63.936C149.183 65.92 149.62 67.424 150.495 68.448C151.37 69.472 152.543 69.984 154.015 69.984ZM166.542 72V59.84C166.542 59.2 166.521 58.5493 166.478 57.888C166.457 57.2053 166.403 56.544 166.318 55.904H169.134L169.486 59.936L169.006 59.968C169.219 58.9867 169.582 58.176 170.094 57.536C170.627 56.8747 171.257 56.3947 171.982 56.096C172.729 55.776 173.497 55.616 174.286 55.616C174.627 55.616 174.915 55.6267 175.15 55.648C175.385 55.6693 175.619 55.7227 175.854 55.808L175.79 58.4C175.47 58.272 175.171 58.1973 174.894 58.176C174.638 58.1333 174.318 58.112 173.934 58.112C172.995 58.112 172.185 58.3253 171.502 58.752C170.841 59.1787 170.329 59.744 169.966 60.448C169.625 61.152 169.454 61.9093 169.454 62.72V72H166.542ZM185.367 79.168C183.959 79.168 182.668 78.9973 181.495 78.656C180.322 78.3147 179.266 77.792 178.327 77.088L179.095 74.944C179.756 75.392 180.407 75.7547 181.047 76.032C181.687 76.3093 182.348 76.512 183.031 76.64C183.735 76.768 184.46 76.832 185.207 76.832C186.786 76.832 187.97 76.4267 188.759 75.616C189.548 74.8053 189.943 73.6533 189.943 72.16V67.648H190.263C189.922 68.864 189.218 69.8347 188.151 70.56C187.106 71.264 185.868 71.616 184.439 71.616C182.988 71.616 181.719 71.296 180.631 70.656C179.564 69.9947 178.732 69.0667 178.135 67.872C177.538 66.656 177.239 65.2373 177.239 63.616C177.239 61.9733 177.538 60.5547 178.135 59.36C178.732 58.1653 179.564 57.248 180.631 56.608C181.719 55.9467 182.988 55.616 184.439 55.616C185.868 55.616 187.106 55.968 188.151 56.672C189.196 57.376 189.89 58.3467 190.231 59.584L189.943 59.296L190.231 55.904H193.047C192.983 56.544 192.919 57.184 192.855 57.824C192.812 58.464 192.791 59.0933 192.791 59.712V71.808C192.791 74.1973 192.162 76.0213 190.903 77.28C189.666 78.5387 187.82 79.168 185.367 79.168ZM185.079 69.312C186.551 69.312 187.724 68.8107 188.599 67.808C189.474 66.8053 189.911 65.408 189.911 63.616C189.911 61.8027 189.474 60.4053 188.599 59.424C187.724 58.4427 186.551 57.952 185.079 57.952C183.586 57.952 182.391 58.4427 181.495 59.424C180.62 60.4053 180.183 61.8027 180.183 63.616C180.183 65.408 180.62 66.8053 181.495 67.808C182.391 68.8107 183.586 69.312 185.079 69.312ZM197.668 72V55.904H200.58V72H197.668ZM197.412 52.384V49.248H200.868V52.384H197.412ZM205.449 72V59.712C205.449 59.0933 205.428 58.464 205.385 57.824C205.342 57.184 205.278 56.544 205.193 55.904H208.009L208.329 59.36H207.945C208.436 58.144 209.193 57.216 210.217 56.576C211.241 55.936 212.436 55.616 213.801 55.616C215.7 55.616 217.129 56.1387 218.089 57.184C219.049 58.208 219.529 59.808 219.529 61.984V72H216.617V62.144C216.617 60.672 216.329 59.616 215.753 58.976C215.177 58.3147 214.281 57.984 213.065 57.984C211.614 57.984 210.462 58.4213 209.609 59.296C208.777 60.1707 208.361 61.3547 208.361 62.848V72H205.449ZM238.458 72V51.968H230.65V49.44H249.306V51.968H241.466V72H238.458ZM249.667 72V59.84C249.667 59.2 249.646 58.5493 249.603 57.888C249.582 57.2053 249.528 56.544 249.443 55.904H252.259L252.611 59.936L252.131 59.968C252.344 58.9867 252.707 58.176 253.219 57.536C253.752 56.8747 254.382 56.3947 255.107 56.096C255.854 55.776 256.622 55.616 257.411 55.616C257.752 55.616 258.04 55.6267 258.275 55.648C258.51 55.6693 258.744 55.7227 258.979 55.808L258.915 58.4C258.595 58.272 258.296 58.1973 258.019 58.176C257.763 58.1333 257.443 58.112 257.059 58.112C256.12 58.112 255.31 58.3253 254.627 58.752C253.966 59.1787 253.454 59.744 253.091 60.448C252.75 61.152 252.579 61.9093 252.579 62.72V72H249.667ZM267.531 72.288C266.123 72.288 264.885 71.9573 263.819 71.296C262.752 70.6347 261.92 69.6747 261.323 68.416C260.725 67.1573 260.427 65.664 260.427 63.936C260.427 62.208 260.725 60.7253 261.323 59.488C261.92 58.2293 262.752 57.2693 263.819 56.608C264.885 55.9467 266.123 55.616 267.531 55.616C268.96 55.616 270.197 55.9787 271.243 56.704C272.309 57.408 273.013 58.3787 273.355 59.616H272.971L273.323 55.904H276.139C276.075 56.544 276.011 57.184 275.947 57.824C275.904 58.464 275.883 59.0933 275.883 59.712V72H272.971V68.32H273.323C272.981 69.536 272.277 70.5067 271.211 71.232C270.165 71.936 268.939 72.288 267.531 72.288ZM268.203 69.984C269.653 69.984 270.816 69.472 271.691 68.448C272.565 67.424 273.003 65.92 273.003 63.936C273.003 61.952 272.565 60.4587 271.691 59.456C270.816 58.4533 269.653 57.952 268.203 57.952C266.752 57.952 265.579 58.4533 264.683 59.456C263.808 60.4587 263.371 61.952 263.371 63.936C263.371 65.92 263.808 67.424 264.683 68.448C265.557 69.472 266.731 69.984 268.203 69.984ZM286.906 72.288C285.498 72.288 284.26 71.9573 283.194 71.296C282.127 70.6347 281.295 69.6747 280.698 68.416C280.1 67.1573 279.802 65.664 279.802 63.936C279.802 62.208 280.1 60.7253 280.698 59.488C281.295 58.2293 282.127 57.2693 283.194 56.608C284.26 55.9467 285.498 55.616 286.906 55.616C288.314 55.616 289.54 55.968 290.586 56.672C291.652 57.376 292.367 58.3467 292.73 59.584H292.346V48.448H295.258V72H292.378V68.256H292.73C292.388 69.5147 291.684 70.5067 290.618 71.232C289.572 71.936 288.335 72.288 286.906 72.288ZM287.578 69.984C289.028 69.984 290.191 69.472 291.066 68.448C291.962 67.424 292.41 65.92 292.41 63.936C292.41 61.952 291.962 60.4587 291.066 59.456C290.191 58.4533 289.028 57.952 287.578 57.952C286.127 57.952 284.954 58.4533 284.058 59.456C283.183 60.4587 282.746 61.952 282.746 63.936C282.746 65.92 283.183 67.424 284.058 68.448C284.954 69.472 286.127 69.984 287.578 69.984ZM307.465 72.288C304.905 72.288 302.878 71.552 301.385 70.08C299.913 68.608 299.177 66.5813 299.177 64C299.177 62.2933 299.497 60.8213 300.137 59.584C300.798 58.3253 301.705 57.3547 302.857 56.672C304.009 55.968 305.353 55.616 306.889 55.616C308.361 55.616 309.609 55.936 310.633 56.576C311.657 57.1947 312.435 58.08 312.969 59.232C313.502 60.384 313.769 61.7493 313.769 63.328V64.288H301.449V62.56H311.785L311.241 62.976C311.241 61.312 310.867 60.0213 310.121 59.104C309.395 58.1867 308.318 57.728 306.889 57.728C305.331 57.728 304.126 58.272 303.273 59.36C302.419 60.4267 301.993 61.888 301.993 63.744V64.032C301.993 65.9947 302.473 67.4773 303.433 68.48C304.414 69.4827 305.769 69.984 307.497 69.984C308.457 69.984 309.353 69.8453 310.185 69.568C311.017 69.2907 311.817 68.832 312.585 68.192L313.545 70.208C312.819 70.8693 311.913 71.3813 310.825 71.744C309.758 72.1067 308.638 72.288 307.465 72.288ZM330.364 72L324.348 55.904H327.388L332.252 69.696H331.42L336.412 55.904H338.78L343.74 69.696H342.94L347.836 55.904H350.748L344.7 72H341.948L336.828 57.984H338.236L333.148 72H330.364ZM353.918 72V55.904H356.83V72H353.918ZM353.662 52.384V49.248H357.118V52.384H353.662ZM367.715 72.288C366.03 72.288 364.75 71.8293 363.875 70.912C363.022 69.9733 362.595 68.5653 362.595 66.688V58.144H359.459V55.904H362.595V51.584L365.507 50.784V55.904H370.051V58.144H365.507V66.432C365.507 67.6693 365.72 68.5547 366.147 69.088C366.595 69.6 367.235 69.856 368.067 69.856C368.494 69.856 368.856 69.824 369.155 69.76C369.475 69.6747 369.763 69.5787 370.019 69.472V71.872C369.699 72 369.326 72.096 368.899 72.16C368.494 72.2453 368.099 72.288 367.715 72.288ZM373.105 72V48.448H376.017V59.392H375.601C376.071 58.1547 376.828 57.216 377.873 56.576C378.919 55.936 380.124 55.616 381.489 55.616C383.431 55.616 384.86 56.1387 385.777 57.184C386.716 58.2293 387.185 59.808 387.185 61.92V72H384.273V62.08C384.273 60.6507 383.996 59.616 383.441 58.976C382.887 58.3147 381.98 57.984 380.721 57.984C379.313 57.984 378.172 58.4213 377.297 59.296C376.444 60.1707 376.017 61.3333 376.017 62.784V72H373.105ZM400.707 72V49.44H403.683V69.44H414.915V72H400.707ZM424.577 72.288C422.998 72.288 421.633 71.9573 420.481 71.296C419.329 70.6133 418.433 69.6533 417.793 68.416C417.153 67.1573 416.833 65.664 416.833 63.936C416.833 62.2293 417.153 60.7573 417.793 59.52C418.433 58.2613 419.329 57.3013 420.481 56.64C421.633 55.9573 422.998 55.616 424.577 55.616C426.156 55.616 427.521 55.9573 428.673 56.64C429.846 57.3013 430.742 58.2613 431.361 59.52C432.001 60.7573 432.321 62.2293 432.321 63.936C432.321 65.664 432.001 67.1573 431.361 68.416C430.742 69.6533 429.846 70.6133 428.673 71.296C427.521 71.9573 426.156 72.288 424.577 72.288ZM424.577 69.984C426.028 69.984 427.19 69.472 428.065 68.448C428.94 67.424 429.377 65.92 429.377 63.936C429.377 61.952 428.94 60.4587 428.065 59.456C427.19 58.4533 426.028 57.952 424.577 57.952C423.105 57.952 421.932 58.4533 421.057 59.456C420.204 60.4587 419.777 61.952 419.777 63.936C419.777 65.92 420.204 67.424 421.057 68.448C421.932 69.472 423.105 69.984 424.577 69.984ZM436.23 72V59.712C436.23 59.0933 436.209 58.464 436.166 57.824C436.124 57.184 436.06 56.544 435.974 55.904H438.79L439.11 59.36H438.726C439.217 58.144 439.974 57.216 440.998 56.576C442.022 55.936 443.217 55.616 444.582 55.616C446.481 55.616 447.91 56.1387 448.87 57.184C449.83 58.208 450.31 59.808 450.31 61.984V72H447.398V62.144C447.398 60.672 447.11 59.616 446.534 58.976C445.958 58.3147 445.062 57.984 443.846 57.984C442.396 57.984 441.244 58.4213 440.39 59.296C439.558 60.1707 439.142 61.3547 439.142 62.848V72H436.23ZM462.242 79.168C460.834 79.168 459.543 78.9973 458.37 78.656C457.197 78.3147 456.141 77.792 455.202 77.088L455.97 74.944C456.631 75.392 457.282 75.7547 457.922 76.032C458.562 76.3093 459.223 76.512 459.906 76.64C460.61 76.768 461.335 76.832 462.082 76.832C463.661 76.832 464.845 76.4267 465.634 75.616C466.423 74.8053 466.818 73.6533 466.818 72.16V67.648H467.138C466.797 68.864 466.093 69.8347 465.026 70.56C463.981 71.264 462.743 71.616 461.314 71.616C459.863 71.616 458.594 71.296 457.506 70.656C456.439 69.9947 455.607 69.0667 455.01 67.872C454.413 66.656 454.114 65.2373 454.114 63.616C454.114 61.9733 454.413 60.5547 455.01 59.36C455.607 58.1653 456.439 57.248 457.506 56.608C458.594 55.9467 459.863 55.616 461.314 55.616C462.743 55.616 463.981 55.968 465.026 56.672C466.071 57.376 466.765 58.3467 467.106 59.584L466.818 59.296L467.106 55.904H469.922C469.858 56.544 469.794 57.184 469.73 57.824C469.687 58.464 469.666 59.0933 469.666 59.712V71.808C469.666 74.1973 469.037 76.0213 467.778 77.28C466.541 78.5387 464.695 79.168 462.242 79.168ZM461.954 69.312C463.426 69.312 464.599 68.8107 465.474 67.808C466.349 66.8053 466.786 65.408 466.786 63.616C466.786 61.8027 466.349 60.4053 465.474 59.424C464.599 58.4427 463.426 57.952 461.954 57.952C460.461 57.952 459.266 58.4427 458.37 59.424C457.495 60.4053 457.058 61.8027 457.058 63.616C457.058 65.408 457.495 66.8053 458.37 67.808C459.266 68.8107 460.461 69.312 461.954 69.312ZM489.124 72.288C487.716 72.288 486.479 71.9573 485.412 71.296C484.346 70.6347 483.514 69.6747 482.916 68.416C482.319 67.1573 482.02 65.664 482.02 63.936C482.02 62.208 482.319 60.7253 482.916 59.488C483.514 58.2293 484.346 57.2693 485.412 56.608C486.479 55.9467 487.716 55.616 489.124 55.616C490.554 55.616 491.791 55.9787 492.836 56.704C493.903 57.408 494.607 58.3787 494.948 59.616H494.564L494.916 55.904H497.732C497.668 56.544 497.604 57.184 497.54 57.824C497.498 58.464 497.476 59.0933 497.476 59.712V72H494.564V68.32H494.916C494.575 69.536 493.871 70.5067 492.804 71.232C491.759 71.936 490.532 72.288 489.124 72.288ZM489.796 69.984C491.247 69.984 492.41 69.472 493.284 68.448C494.159 67.424 494.596 65.92 494.596 63.936C494.596 61.952 494.159 60.4587 493.284 59.456C492.41 58.4533 491.247 57.952 489.796 57.952C488.346 57.952 487.172 58.4533 486.276 59.456C485.402 60.4587 484.964 61.952 484.964 63.936C484.964 65.92 485.402 67.424 486.276 68.448C487.151 69.472 488.324 69.984 489.796 69.984ZM502.355 72V59.712C502.355 59.0933 502.334 58.464 502.291 57.824C502.249 57.184 502.185 56.544 502.099 55.904H504.915L505.235 59.36H504.851C505.342 58.144 506.099 57.216 507.123 56.576C508.147 55.936 509.342 55.616 510.707 55.616C512.606 55.616 514.035 56.1387 514.995 57.184C515.955 58.208 516.435 59.808 516.435 61.984V72H513.523V62.144C513.523 60.672 513.235 59.616 512.659 58.976C512.083 58.3147 511.187 57.984 509.971 57.984C508.521 57.984 507.369 58.4213 506.515 59.296C505.683 60.1707 505.267 61.3547 505.267 62.848V72H502.355ZM527.343 72.288C525.935 72.288 524.698 71.9573 523.631 71.296C522.564 70.6347 521.732 69.6747 521.135 68.416C520.538 67.1573 520.239 65.664 520.239 63.936C520.239 62.208 520.538 60.7253 521.135 59.488C521.732 58.2293 522.564 57.2693 523.631 56.608C524.698 55.9467 525.935 55.616 527.343 55.616C528.751 55.616 529.978 55.968 531.023 56.672C532.09 57.376 532.804 58.3467 533.167 59.584H532.783V48.448H535.695V72H532.815V68.256H533.167C532.826 69.5147 532.122 70.5067 531.055 71.232C530.01 71.936 528.772 72.288 527.343 72.288ZM528.015 69.984C529.466 69.984 530.628 69.472 531.503 68.448C532.399 67.424 532.847 65.92 532.847 63.936C532.847 61.952 532.399 60.4587 531.503 59.456C530.628 58.4533 529.466 57.952 528.015 57.952C526.564 57.952 525.391 58.4533 524.495 59.456C523.62 60.4587 523.183 61.952 523.183 63.936C523.183 65.92 523.62 67.424 524.495 68.448C525.391 69.472 526.564 69.984 528.015 69.984ZM556.788 72.288C554.974 72.288 553.342 72.0533 551.892 71.584C550.441 71.1147 549.182 70.4533 548.116 69.6L549.14 67.232C549.886 67.7867 550.644 68.256 551.412 68.64C552.18 69.0027 553.001 69.28 553.876 69.472C554.772 69.6427 555.742 69.728 556.788 69.728C558.644 69.728 560.009 69.3973 560.884 68.736C561.78 68.0533 562.228 67.1573 562.228 66.048C562.228 65.088 561.918 64.352 561.3 63.84C560.681 63.328 559.604 62.9227 558.068 62.624L554.644 61.92C552.574 61.4933 551.028 60.8 550.004 59.84C549.001 58.8587 548.5 57.536 548.5 55.872C548.5 54.528 548.852 53.3547 549.556 52.352C550.281 51.328 551.273 50.5387 552.532 49.984C553.812 49.4293 555.305 49.152 557.012 49.152C558.59 49.152 560.052 49.3867 561.396 49.856C562.74 50.3253 563.87 51.0187 564.788 51.936L563.764 54.208C562.804 53.3333 561.769 52.704 560.66 52.32C559.572 51.9147 558.334 51.712 556.948 51.712C555.262 51.712 553.929 52.0747 552.948 52.8C551.966 53.5253 551.476 54.5067 551.476 55.744C551.476 56.7253 551.785 57.504 552.404 58.08C553.022 58.6347 554.046 59.0613 555.476 59.36L558.9 60.032C561.076 60.4587 562.665 61.1307 563.668 62.048C564.692 62.9653 565.204 64.2347 565.204 65.856C565.204 67.136 564.862 68.2667 564.18 69.248C563.497 70.208 562.526 70.9547 561.268 71.488C560.009 72.0213 558.516 72.288 556.788 72.288ZM575.889 72.288C574.311 72.288 572.945 71.9573 571.793 71.296C570.641 70.6133 569.745 69.6533 569.105 68.416C568.465 67.1573 568.145 65.664 568.145 63.936C568.145 62.2293 568.465 60.7573 569.105 59.52C569.745 58.2613 570.641 57.3013 571.793 56.64C572.945 55.9573 574.311 55.616 575.889 55.616C577.468 55.616 578.833 55.9573 579.985 56.64C581.159 57.3013 582.055 58.2613 582.673 59.52C583.313 60.7573 583.633 62.2293 583.633 63.936C583.633 65.664 583.313 67.1573 582.673 68.416C582.055 69.6533 581.159 70.6133 579.985 71.296C578.833 71.9573 577.468 72.288 575.889 72.288ZM575.889 69.984C577.34 69.984 578.503 69.472 579.377 68.448C580.252 67.424 580.689 65.92 580.689 63.936C580.689 61.952 580.252 60.4587 579.377 59.456C578.503 58.4533 577.34 57.952 575.889 57.952C574.417 57.952 573.244 58.4533 572.369 59.456C571.516 60.4587 571.089 61.952 571.089 63.936C571.089 65.92 571.516 67.424 572.369 68.448C573.244 69.472 574.417 69.984 575.889 69.984ZM587.511 72V59.84C587.511 59.2 587.49 58.5493 587.447 57.888C587.426 57.2053 587.372 56.544 587.287 55.904H590.103L590.455 59.936L589.975 59.968C590.188 58.9867 590.551 58.176 591.063 57.536C591.596 56.8747 592.226 56.3947 592.951 56.096C593.698 55.776 594.466 55.616 595.255 55.616C595.596 55.616 595.884 55.6267 596.119 55.648C596.354 55.6693 596.588 55.7227 596.823 55.808L596.759 58.4C596.439 58.272 596.14 58.1973 595.863 58.176C595.607 58.1333 595.287 58.112 594.903 58.112C593.964 58.112 593.154 58.3253 592.471 58.752C591.81 59.1787 591.298 59.744 590.935 60.448C590.594 61.152 590.423 61.9093 590.423 62.72V72H587.511ZM606.278 72.288C604.592 72.288 603.312 71.8293 602.438 70.912C601.584 69.9733 601.158 68.5653 601.158 66.688V58.144H598.022V55.904H601.158V51.584L604.07 50.784V55.904H608.614V58.144H604.07V66.432C604.07 67.6693 604.283 68.5547 604.71 69.088C605.158 69.6 605.798 69.856 606.63 69.856C607.056 69.856 607.419 69.824 607.718 69.76C608.038 69.6747 608.326 69.5787 608.582 69.472V71.872C608.262 72 607.888 72.096 607.462 72.16C607.056 72.2453 606.662 72.288 606.278 72.288ZM128.949 112.288C125.855 112.288 123.551 111.509 122.037 109.952C120.543 108.373 119.797 106.059 119.797 103.008V89.44H122.805V102.912C122.805 105.152 123.295 106.837 124.277 107.968C125.258 109.099 126.815 109.664 128.949 109.664C130.997 109.664 132.533 109.099 133.557 107.968C134.602 106.837 135.125 105.152 135.125 102.912V89.44H138.069V103.008C138.069 106.059 137.301 108.373 135.765 109.952C134.229 111.509 131.957 112.288 128.949 112.288ZM143.105 118.912V99.712C143.105 99.0933 143.084 98.464 143.041 97.824C142.999 97.184 142.935 96.544 142.849 95.904H145.665L146.017 99.616H145.665C145.985 98.3787 146.668 97.408 147.713 96.704C148.759 95.9787 150.007 95.616 151.457 95.616C152.887 95.616 154.135 95.9467 155.201 96.608C156.268 97.2693 157.089 98.2293 157.665 99.488C158.263 100.725 158.561 102.208 158.561 103.936C158.561 105.664 158.263 107.157 157.665 108.416C157.089 109.675 156.268 110.635 155.201 111.296C154.135 111.957 152.887 112.288 151.457 112.288C150.028 112.288 148.791 111.936 147.745 111.232C146.721 110.507 146.028 109.536 145.665 108.32H146.017V118.912H143.105ZM150.785 109.984C152.257 109.984 153.431 109.472 154.305 108.448C155.18 107.424 155.617 105.92 155.617 103.936C155.617 101.952 155.18 100.459 154.305 99.456C153.431 98.4533 152.257 97.952 150.785 97.952C149.313 97.952 148.14 98.4533 147.265 99.456C146.412 100.459 145.985 101.952 145.985 103.936C145.985 105.92 146.412 107.424 147.265 108.448C148.14 109.472 149.313 109.984 150.785 109.984ZM168.34 112.288C166.655 112.288 165.375 111.829 164.5 110.912C163.647 109.973 163.22 108.565 163.22 106.688V98.144H160.084V95.904H163.22V91.584L166.132 90.784V95.904H170.676V98.144H166.132V106.432C166.132 107.669 166.345 108.555 166.772 109.088C167.22 109.6 167.86 109.856 168.692 109.856C169.119 109.856 169.481 109.824 169.78 109.76C170.1 109.675 170.388 109.579 170.644 109.472V111.872C170.324 112 169.951 112.096 169.524 112.16C169.119 112.245 168.724 112.288 168.34 112.288ZM180.358 112.288C178.779 112.288 177.414 111.957 176.262 111.296C175.11 110.613 174.214 109.653 173.574 108.416C172.934 107.157 172.614 105.664 172.614 103.936C172.614 102.229 172.934 100.757 173.574 99.52C174.214 98.2613 175.11 97.3013 176.262 96.64C177.414 95.9573 178.779 95.616 180.358 95.616C181.937 95.616 183.302 95.9573 184.454 96.64C185.627 97.3013 186.523 98.2613 187.142 99.52C187.782 100.757 188.102 102.229 188.102 103.936C188.102 105.664 187.782 107.157 187.142 108.416C186.523 109.653 185.627 110.613 184.454 111.296C183.302 111.957 181.937 112.288 180.358 112.288ZM180.358 109.984C181.809 109.984 182.971 109.472 183.846 108.448C184.721 107.424 185.158 105.92 185.158 103.936C185.158 101.952 184.721 100.459 183.846 99.456C182.971 98.4533 181.809 97.952 180.358 97.952C178.886 97.952 177.713 98.4533 176.838 99.456C175.985 100.459 175.558 101.952 175.558 103.936C175.558 105.92 175.985 107.424 176.838 108.448C177.713 109.472 178.886 109.984 180.358 109.984ZM201.985 112V109.472H207.265V91.968H208.769L202.465 95.872V92.96L208.097 89.44H210.241V109.472H215.201V112H201.985ZM226.805 112.288C224.223 112.288 222.239 111.296 220.853 109.312C219.466 107.307 218.773 104.437 218.773 100.704C218.773 96.9067 219.466 94.0373 220.853 92.096C222.239 90.1333 224.223 89.152 226.805 89.152C229.407 89.152 231.391 90.1333 232.757 92.096C234.143 94.0373 234.837 96.896 234.837 100.672C234.837 104.427 234.143 107.307 232.757 109.312C231.37 111.296 229.386 112.288 226.805 112.288ZM226.805 109.76C228.511 109.76 229.781 109.024 230.613 107.552C231.466 106.08 231.893 103.787 231.893 100.672C231.893 97.5573 231.466 95.2853 230.613 93.856C229.781 92.4053 228.511 91.68 226.805 91.68C225.119 91.68 223.85 92.4053 222.997 93.856C222.143 95.2853 221.717 97.5573 221.717 100.672C221.717 103.787 222.143 106.08 222.997 107.552C223.85 109.024 225.119 109.76 226.805 109.76ZM236.552 112L245.64 99.904V101.056L236.936 89.44H240.456L247.4 98.912H246.472L253.32 89.44H256.872L248.168 101.056V99.904L257.256 112H253.704L246.344 101.952H247.464L240.072 112H236.552ZM268.613 112V89.44H271.589V109.44H282.821V112H268.613ZM293.027 112.288C290.467 112.288 288.44 111.552 286.947 110.08C285.475 108.608 284.739 106.581 284.739 104C284.739 102.293 285.059 100.821 285.699 99.584C286.36 98.3253 287.267 97.3547 288.419 96.672C289.571 95.968 290.915 95.616 292.451 95.616C293.923 95.616 295.171 95.936 296.195 96.576C297.219 97.1947 297.998 98.08 298.531 99.232C299.064 100.384 299.331 101.749 299.331 103.328V104.288H287.011V102.56H297.347L296.803 102.976C296.803 101.312 296.43 100.021 295.683 99.104C294.958 98.1867 293.88 97.728 292.451 97.728C290.894 97.728 289.688 98.272 288.835 99.36C287.982 100.427 287.555 101.888 287.555 103.744V104.032C287.555 105.995 288.035 107.477 288.995 108.48C289.976 109.483 291.331 109.984 293.059 109.984C294.019 109.984 294.915 109.845 295.747 109.568C296.579 109.291 297.379 108.832 298.147 108.192L299.107 110.208C298.382 110.869 297.475 111.381 296.387 111.744C295.32 112.107 294.2 112.288 293.027 112.288ZM307.654 112L300.774 95.904H303.91L309.51 109.728H308.614L314.31 95.904H317.286L310.374 112H307.654ZM327.09 112.288C324.53 112.288 322.503 111.552 321.01 110.08C319.538 108.608 318.802 106.581 318.802 104C318.802 102.293 319.122 100.821 319.762 99.584C320.423 98.3253 321.33 97.3547 322.482 96.672C323.634 95.968 324.978 95.616 326.514 95.616C327.986 95.616 329.234 95.936 330.258 96.576C331.282 97.1947 332.06 98.08 332.594 99.232C333.127 100.384 333.394 101.749 333.394 103.328V104.288H321.074V102.56H331.41L330.866 102.976C330.866 101.312 330.492 100.021 329.746 99.104C329.02 98.1867 327.943 97.728 326.514 97.728C324.956 97.728 323.751 98.272 322.898 99.36C322.044 100.427 321.618 101.888 321.618 103.744V104.032C321.618 105.995 322.098 107.477 323.058 108.48C324.039 109.483 325.394 109.984 327.122 109.984C328.082 109.984 328.978 109.845 329.81 109.568C330.642 109.291 331.442 108.832 332.21 108.192L333.17 110.208C332.444 110.869 331.538 111.381 330.45 111.744C329.383 112.107 328.263 112.288 327.09 112.288ZM337.167 112V99.84C337.167 99.2 337.146 98.5493 337.103 97.888C337.082 97.2053 337.028 96.544 336.943 95.904H339.759L340.111 99.936L339.631 99.968C339.844 98.9867 340.207 98.176 340.719 97.536C341.252 96.8747 341.882 96.3947 342.607 96.096C343.354 95.776 344.122 95.616 344.911 95.616C345.252 95.616 345.54 95.6267 345.775 95.648C346.01 95.6693 346.244 95.7227 346.479 95.808L346.415 98.4C346.095 98.272 345.796 98.1973 345.519 98.176C345.263 98.1333 344.943 98.112 344.559 98.112C343.62 98.112 342.81 98.3253 342.127 98.752C341.466 99.1787 340.954 99.744 340.591 100.448C340.25 101.152 340.079 101.909 340.079 102.72V112H337.167ZM355.031 112.288C353.623 112.288 352.385 111.957 351.319 111.296C350.252 110.635 349.42 109.675 348.823 108.416C348.225 107.157 347.927 105.664 347.927 103.936C347.927 102.208 348.225 100.725 348.823 99.488C349.42 98.2293 350.252 97.2693 351.319 96.608C352.385 95.9467 353.623 95.616 355.031 95.616C356.46 95.616 357.697 95.9787 358.743 96.704C359.809 97.408 360.513 98.3787 360.855 99.616H360.471L360.823 95.904H363.639C363.575 96.544 363.511 97.184 363.447 97.824C363.404 98.464 363.383 99.0933 363.383 99.712V112H360.471V108.32H360.823C360.481 109.536 359.777 110.507 358.711 111.232C357.665 111.936 356.439 112.288 355.031 112.288ZM355.703 109.984C357.153 109.984 358.316 109.472 359.191 108.448C360.065 107.424 360.503 105.92 360.503 103.936C360.503 101.952 360.065 100.459 359.191 99.456C358.316 98.4533 357.153 97.952 355.703 97.952C354.252 97.952 353.079 98.4533 352.183 99.456C351.308 100.459 350.871 101.952 350.871 103.936C350.871 105.92 351.308 107.424 352.183 108.448C353.057 109.472 354.231 109.984 355.703 109.984ZM375.43 119.168C374.022 119.168 372.731 118.997 371.558 118.656C370.384 118.315 369.328 117.792 368.39 117.088L369.158 114.944C369.819 115.392 370.47 115.755 371.11 116.032C371.75 116.309 372.411 116.512 373.094 116.64C373.798 116.768 374.523 116.832 375.27 116.832C376.848 116.832 378.032 116.427 378.822 115.616C379.611 114.805 380.006 113.653 380.006 112.16V107.648H380.326C379.984 108.864 379.28 109.835 378.214 110.56C377.168 111.264 375.931 111.616 374.502 111.616C373.051 111.616 371.782 111.296 370.694 110.656C369.627 109.995 368.795 109.067 368.198 107.872C367.6 106.656 367.302 105.237 367.302 103.616C367.302 101.973 367.6 100.555 368.198 99.36C368.795 98.1653 369.627 97.248 370.694 96.608C371.782 95.9467 373.051 95.616 374.502 95.616C375.931 95.616 377.168 95.968 378.214 96.672C379.259 97.376 379.952 98.3467 380.294 99.584L380.006 99.296L380.294 95.904H383.11C383.046 96.544 382.982 97.184 382.918 97.824C382.875 98.464 382.854 99.0933 382.854 99.712V111.808C382.854 114.197 382.224 116.021 380.966 117.28C379.728 118.539 377.883 119.168 375.43 119.168ZM375.142 109.312C376.614 109.312 377.787 108.811 378.662 107.808C379.536 106.805 379.974 105.408 379.974 103.616C379.974 101.803 379.536 100.405 378.662 99.424C377.787 98.4427 376.614 97.952 375.142 97.952C373.648 97.952 372.454 98.4427 371.558 99.424C370.683 100.405 370.246 101.803 370.246 103.616C370.246 105.408 370.683 106.805 371.558 107.808C372.454 108.811 373.648 109.312 375.142 109.312ZM395.058 112.288C392.498 112.288 390.472 111.552 388.978 110.08C387.506 108.608 386.77 106.581 386.77 104C386.77 102.293 387.09 100.821 387.73 99.584C388.392 98.3253 389.298 97.3547 390.45 96.672C391.602 95.968 392.946 95.616 394.482 95.616C395.954 95.616 397.202 95.936 398.226 96.576C399.25 97.1947 400.029 98.08 400.562 99.232C401.096 100.384 401.362 101.749 401.362 103.328V104.288H389.042V102.56H399.378L398.834 102.976C398.834 101.312 398.461 100.021 397.714 99.104C396.989 98.1867 395.912 97.728 394.482 97.728C392.925 97.728 391.72 98.272 390.866 99.36C390.013 100.427 389.586 101.888 389.586 103.744V104.032C389.586 105.995 390.066 107.477 391.026 108.48C392.008 109.483 393.362 109.984 395.09 109.984C396.05 109.984 396.946 109.845 397.778 109.568C398.61 109.291 399.41 108.832 400.178 108.192L401.138 110.208C400.413 110.869 399.506 111.381 398.418 111.744C397.352 112.107 396.232 112.288 395.058 112.288ZM418.405 117.76C417.488 116.181 416.731 114.624 416.133 113.088C415.557 111.573 415.131 110.037 414.853 108.48C414.597 106.901 414.469 105.269 414.469 103.584C414.469 101.877 414.597 100.245 414.853 98.688C415.131 97.1307 415.557 95.5947 416.133 94.08C416.731 92.5653 417.488 91.0187 418.405 89.44H420.773C419.685 91.8507 418.864 94.2293 418.309 96.576C417.755 98.9013 417.477 101.237 417.477 103.584C417.477 105.931 417.755 108.277 418.309 110.624C418.864 112.971 419.685 115.349 420.773 117.76H418.405ZM424.394 112V89.44H427.018L435.914 109.472H434.954L443.85 89.44H446.442V112H443.722V93.408H444.714L436.362 112H434.474L426.122 93.408H427.114V112H424.394ZM457.781 112.288C456.373 112.288 455.135 111.957 454.069 111.296C453.002 110.635 452.17 109.675 451.573 108.416C450.975 107.157 450.677 105.664 450.677 103.936C450.677 102.208 450.975 100.725 451.573 99.488C452.17 98.2293 453.002 97.2693 454.069 96.608C455.135 95.9467 456.373 95.616 457.781 95.616C459.21 95.616 460.447 95.9787 461.493 96.704C462.559 97.408 463.263 98.3787 463.605 99.616H463.221L463.573 95.904H466.389C466.325 96.544 466.261 97.184 466.197 97.824C466.154 98.464 466.133 99.0933 466.133 99.712V112H463.221V108.32H463.573C463.231 109.536 462.527 110.507 461.461 111.232C460.415 111.936 459.189 112.288 457.781 112.288ZM458.453 109.984C459.903 109.984 461.066 109.472 461.941 108.448C462.815 107.424 463.253 105.92 463.253 103.936C463.253 101.952 462.815 100.459 461.941 99.456C461.066 98.4533 459.903 97.952 458.453 97.952C457.002 97.952 455.829 98.4533 454.933 99.456C454.058 100.459 453.621 101.952 453.621 103.936C453.621 105.92 454.058 107.424 454.933 108.448C455.807 109.472 456.981 109.984 458.453 109.984ZM471.012 112V95.904H473.924V112H471.012ZM470.756 92.384V89.248H474.212V92.384H470.756ZM478.793 112V99.712C478.793 99.0933 478.772 98.464 478.729 97.824C478.686 97.184 478.622 96.544 478.537 95.904H481.353L481.673 99.36H481.289C481.78 98.144 482.537 97.216 483.561 96.576C484.585 95.936 485.78 95.616 487.145 95.616C489.044 95.616 490.473 96.1387 491.433 97.184C492.393 98.208 492.873 99.808 492.873 101.984V112H489.961V102.144C489.961 100.672 489.673 99.616 489.097 98.976C488.521 98.3147 487.625 97.984 486.409 97.984C484.958 97.984 483.806 98.4213 482.953 99.296C482.121 100.171 481.705 101.355 481.705 102.848V112H478.793ZM497.637 112V99.712C497.637 99.0933 497.615 98.464 497.573 97.824C497.53 97.184 497.466 96.544 497.381 95.904H500.197L500.517 99.36H500.133C500.623 98.144 501.381 97.216 502.405 96.576C503.429 95.936 504.623 95.616 505.989 95.616C507.887 95.616 509.317 96.1387 510.277 97.184C511.237 98.208 511.717 99.808 511.717 101.984V112H508.805V102.144C508.805 100.672 508.517 99.616 507.941 98.976C507.365 98.3147 506.469 97.984 505.253 97.984C503.802 97.984 502.65 98.4213 501.797 99.296C500.965 100.171 500.549 101.355 500.549 102.848V112H497.637ZM523.808 112.288C521.248 112.288 519.222 111.552 517.728 110.08C516.256 108.608 515.52 106.581 515.52 104C515.52 102.293 515.84 100.821 516.48 99.584C517.142 98.3253 518.048 97.3547 519.2 96.672C520.352 95.968 521.696 95.616 523.232 95.616C524.704 95.616 525.952 95.936 526.976 96.576C528 97.1947 528.779 98.08 529.312 99.232C529.846 100.384 530.112 101.749 530.112 103.328V104.288H517.792V102.56H528.128L527.584 102.976C527.584 101.312 527.211 100.021 526.464 99.104C525.739 98.1867 524.662 97.728 523.232 97.728C521.675 97.728 520.47 98.272 519.616 99.36C518.763 100.427 518.336 101.888 518.336 103.744V104.032C518.336 105.995 518.816 107.477 519.776 108.48C520.758 109.483 522.112 109.984 523.84 109.984C524.8 109.984 525.696 109.845 526.528 109.568C527.36 109.291 528.16 108.832 528.928 108.192L529.888 110.208C529.163 110.869 528.256 111.381 527.168 111.744C526.102 112.107 524.982 112.288 523.808 112.288ZM539.903 112.288C538.217 112.288 536.937 111.829 536.063 110.912C535.209 109.973 534.783 108.565 534.783 106.688V98.144H531.647V95.904H534.783V91.584L537.695 90.784V95.904H542.239V98.144H537.695V106.432C537.695 107.669 537.908 108.555 538.335 109.088C538.783 109.6 539.423 109.856 540.255 109.856C540.681 109.856 541.044 109.824 541.343 109.76C541.663 109.675 541.951 109.579 542.207 109.472V111.872C541.887 112 541.513 112.096 541.087 112.16C540.681 112.245 540.287 112.288 539.903 112.288ZM548.655 117.76H546.255C547.343 115.349 548.165 112.971 548.719 110.624C549.295 108.277 549.583 105.931 549.583 103.584C549.583 101.259 549.295 98.9227 548.719 96.576C548.165 94.2293 547.343 91.8507 546.255 89.44H548.655C549.573 91.0187 550.319 92.576 550.895 94.112C551.493 95.6267 551.919 97.1627 552.175 98.72C552.453 100.277 552.591 101.899 552.591 103.584C552.591 105.291 552.453 106.923 552.175 108.48C551.919 110.037 551.493 111.573 550.895 113.088C550.319 114.624 549.573 116.181 548.655 117.76ZM93.2158 149.152C92.1705 149.152 91.1998 148.907 90.3038 148.416C89.4078 147.904 88.6932 147.211 88.1598 146.336C87.6265 145.461 87.3598 144.491 87.3598 143.424C87.3598 142.443 87.6052 141.515 88.0958 140.64C88.6078 139.765 89.3012 139.061 90.1758 138.528C91.0718 137.973 92.0852 137.696 93.2158 137.696C94.2612 137.696 95.2212 137.952 96.0958 138.464C96.9705 138.955 97.6745 139.627 98.2078 140.48C98.7625 141.333 99.0398 142.315 99.0398 143.424C99.0398 144.469 98.7732 145.429 98.2398 146.304C97.7278 147.179 97.0238 147.872 96.1278 148.384C95.2532 148.896 94.2825 149.152 93.2158 149.152ZM119.957 152V129.44H127.605C130.122 129.44 132.245 129.877 133.973 130.752C135.722 131.627 137.045 132.907 137.941 134.592C138.837 136.256 139.285 138.293 139.285 140.704C139.285 143.115 138.837 145.163 137.941 146.848C137.045 148.533 135.722 149.813 133.973 150.688C132.245 151.563 130.122 152 127.605 152H119.957ZM122.933 149.472H127.381C130.389 149.472 132.618 148.747 134.069 147.296C135.519 145.845 136.245 143.648 136.245 140.704C136.245 137.76 135.519 135.573 134.069 134.144C132.618 132.693 130.389 131.968 127.381 131.968H122.933V149.472ZM143.605 152V139.84C143.605 139.2 143.583 138.549 143.541 137.888C143.519 137.205 143.466 136.544 143.381 135.904H146.197L146.549 139.936L146.069 139.968C146.282 138.987 146.645 138.176 147.157 137.536C147.69 136.875 148.319 136.395 149.045 136.096C149.791 135.776 150.559 135.616 151.349 135.616C151.69 135.616 151.978 135.627 152.213 135.648C152.447 135.669 152.682 135.723 152.917 135.808L152.853 138.4C152.533 138.272 152.234 138.197 151.957 138.176C151.701 138.133 151.381 138.112 150.997 138.112C150.058 138.112 149.247 138.325 148.565 138.752C147.903 139.179 147.391 139.744 147.029 140.448C146.687 141.152 146.517 141.909 146.517 142.72V152H143.605ZM161.468 152.288C160.06 152.288 158.823 151.957 157.756 151.296C156.689 150.635 155.857 149.675 155.26 148.416C154.663 147.157 154.364 145.664 154.364 143.936C154.364 142.208 154.663 140.725 155.26 139.488C155.857 138.229 156.689 137.269 157.756 136.608C158.823 135.947 160.06 135.616 161.468 135.616C162.897 135.616 164.135 135.979 165.18 136.704C166.247 137.408 166.951 138.379 167.292 139.616H166.908L167.26 135.904H170.076C170.012 136.544 169.948 137.184 169.884 137.824C169.841 138.464 169.82 139.093 169.82 139.712V152H166.908V148.32H167.26C166.919 149.536 166.215 150.507 165.148 151.232C164.103 151.936 162.876 152.288 161.468 152.288ZM162.14 149.984C163.591 149.984 164.753 149.472 165.628 148.448C166.503 147.424 166.94 145.92 166.94 143.936C166.94 141.952 166.503 140.459 165.628 139.456C164.753 138.453 163.591 137.952 162.14 137.952C160.689 137.952 159.516 138.453 158.62 139.456C157.745 140.459 157.308 141.952 157.308 143.936C157.308 145.92 157.745 147.424 158.62 148.448C159.495 149.472 160.668 149.984 162.14 149.984ZM175.595 152V138.144H172.459V135.904H176.395L175.595 136.64V134.048C175.595 132.171 176.064 130.752 177.003 129.792C177.942 128.811 179.307 128.32 181.099 128.32C181.526 128.32 181.974 128.352 182.443 128.416C182.934 128.48 183.339 128.587 183.659 128.736V131.104C183.403 130.997 183.083 130.912 182.699 130.848C182.315 130.784 181.942 130.752 181.579 130.752C180.939 130.752 180.384 130.88 179.915 131.136C179.446 131.392 179.094 131.776 178.859 132.288C178.624 132.779 178.507 133.429 178.507 134.24V136.512L178.059 135.904H182.955V138.144H178.507V152H175.595ZM190.965 152.288C189.28 152.288 188 151.829 187.125 150.912C186.272 149.973 185.845 148.565 185.845 146.688V138.144H182.709V135.904H185.845V131.584L188.757 130.784V135.904H193.301V138.144H188.757V146.432C188.757 147.669 188.97 148.555 189.397 149.088C189.845 149.6 190.485 149.856 191.317 149.856C191.744 149.856 192.106 149.824 192.405 149.76C192.725 149.675 193.013 149.579 193.269 149.472V151.872C192.949 152 192.576 152.096 192.149 152.16C191.744 152.245 191.349 152.288 190.965 152.288ZM210.649 152V141.44L211.289 143.392L201.881 129.44H205.337L212.569 140.448H211.833L219.065 129.44H222.425L213.017 143.392L213.625 141.44V152H210.649ZM229.152 152.288C226.592 152.288 224.565 151.552 223.072 150.08C221.6 148.608 220.864 146.581 220.864 144C220.864 142.293 221.184 140.821 221.824 139.584C222.485 138.325 223.392 137.355 224.544 136.672C225.696 135.968 227.04 135.616 228.576 135.616C230.048 135.616 231.296 135.936 232.32 136.576C233.344 137.195 234.123 138.08 234.656 139.232C235.189 140.384 235.456 141.749 235.456 143.328V144.288H223.136V142.56H233.472L232.928 142.976C232.928 141.312 232.555 140.021 231.808 139.104C231.083 138.187 230.005 137.728 228.576 137.728C227.019 137.728 225.813 138.272 224.96 139.36C224.107 140.427 223.68 141.888 223.68 143.744V144.032C223.68 145.995 224.16 147.477 225.12 148.48C226.101 149.483 227.456 149.984 229.184 149.984C230.144 149.984 231.04 149.845 231.872 149.568C232.704 149.291 233.504 148.832 234.272 148.192L235.232 150.208C234.507 150.869 233.6 151.381 232.512 151.744C231.445 152.107 230.325 152.288 229.152 152.288ZM239.262 152V128.448H242.174V152H239.262ZM247.043 152V128.448H249.955V152H247.043ZM261.608 152.288C260.029 152.288 258.664 151.957 257.512 151.296C256.36 150.613 255.464 149.653 254.824 148.416C254.184 147.157 253.864 145.664 253.864 143.936C253.864 142.229 254.184 140.757 254.824 139.52C255.464 138.261 256.36 137.301 257.512 136.64C258.664 135.957 260.029 135.616 261.608 135.616C263.187 135.616 264.552 135.957 265.704 136.64C266.877 137.301 267.773 138.261 268.392 139.52C269.032 140.757 269.352 142.229 269.352 143.936C269.352 145.664 269.032 147.157 268.392 148.416C267.773 149.653 266.877 150.613 265.704 151.296C264.552 151.957 263.187 152.288 261.608 152.288ZM261.608 149.984C263.059 149.984 264.221 149.472 265.096 148.448C265.971 147.424 266.408 145.92 266.408 143.936C266.408 141.952 265.971 140.459 265.096 139.456C264.221 138.453 263.059 137.952 261.608 137.952C260.136 137.952 258.963 138.453 258.088 139.456C257.235 140.459 256.808 141.952 256.808 143.936C256.808 145.92 257.235 147.424 258.088 148.448C258.963 149.472 260.136 149.984 261.608 149.984ZM277.364 152L271.348 135.904H274.388L279.252 149.696H278.42L283.412 135.904H285.78L290.74 149.696H289.94L294.836 135.904H297.748L291.7 152H288.948L283.828 137.984H285.236L280.148 152H277.364ZM300.918 158.912V139.712C300.918 139.093 300.897 138.464 300.854 137.824C300.811 137.184 300.747 136.544 300.662 135.904H303.478L303.83 139.616H303.478C303.798 138.379 304.481 137.408 305.526 136.704C306.571 135.979 307.819 135.616 309.27 135.616C310.699 135.616 311.947 135.947 313.014 136.608C314.081 137.269 314.902 138.229 315.478 139.488C316.075 140.725 316.374 142.208 316.374 143.936C316.374 145.664 316.075 147.157 315.478 148.416C314.902 149.675 314.081 150.635 313.014 151.296C311.947 151.957 310.699 152.288 309.27 152.288C307.841 152.288 306.603 151.936 305.558 151.232C304.534 150.507 303.841 149.536 303.478 148.32H303.83V158.912H300.918ZM308.598 149.984C310.07 149.984 311.243 149.472 312.118 148.448C312.993 147.424 313.43 145.92 313.43 143.936C313.43 141.952 312.993 140.459 312.118 139.456C311.243 138.453 310.07 137.952 308.598 137.952C307.126 137.952 305.953 138.453 305.078 139.456C304.225 140.459 303.798 141.952 303.798 143.936C303.798 145.92 304.225 147.424 305.078 148.448C305.953 149.472 307.126 149.984 308.598 149.984ZM326.437 152.288C325.029 152.288 323.792 151.957 322.725 151.296C321.658 150.635 320.826 149.675 320.229 148.416C319.632 147.157 319.333 145.664 319.333 143.936C319.333 142.208 319.632 140.725 320.229 139.488C320.826 138.229 321.658 137.269 322.725 136.608C323.792 135.947 325.029 135.616 326.437 135.616C327.866 135.616 329.104 135.979 330.149 136.704C331.216 137.408 331.92 138.379 332.261 139.616H331.877L332.229 135.904H335.045C334.981 136.544 334.917 137.184 334.853 137.824C334.81 138.464 334.789 139.093 334.789 139.712V152H331.877V148.32H332.229C331.888 149.536 331.184 150.507 330.117 151.232C329.072 151.936 327.845 152.288 326.437 152.288ZM327.109 149.984C328.56 149.984 329.722 149.472 330.597 148.448C331.472 147.424 331.909 145.92 331.909 143.936C331.909 141.952 331.472 140.459 330.597 139.456C329.722 138.453 328.56 137.952 327.109 137.952C325.658 137.952 324.485 138.453 323.589 139.456C322.714 140.459 322.277 141.952 322.277 143.936C322.277 145.92 322.714 147.424 323.589 148.448C324.464 149.472 325.637 149.984 327.109 149.984ZM339.668 158.912V139.712C339.668 139.093 339.647 138.464 339.604 137.824C339.561 137.184 339.497 136.544 339.412 135.904H342.228L342.58 139.616H342.228C342.548 138.379 343.231 137.408 344.276 136.704C345.321 135.979 346.569 135.616 348.02 135.616C349.449 135.616 350.697 135.947 351.764 136.608C352.831 137.269 353.652 138.229 354.228 139.488C354.825 140.725 355.124 142.208 355.124 143.936C355.124 145.664 354.825 147.157 354.228 148.416C353.652 149.675 352.831 150.635 351.764 151.296C350.697 151.957 349.449 152.288 348.02 152.288C346.591 152.288 345.353 151.936 344.308 151.232C343.284 150.507 342.591 149.536 342.228 148.32H342.58V158.912H339.668ZM347.348 149.984C348.82 149.984 349.993 149.472 350.868 148.448C351.743 147.424 352.18 145.92 352.18 143.936C352.18 141.952 351.743 140.459 350.868 139.456C349.993 138.453 348.82 137.952 347.348 137.952C345.876 137.952 344.703 138.453 343.828 139.456C342.975 140.459 342.548 141.952 342.548 143.936C342.548 145.92 342.975 147.424 343.828 148.448C344.703 149.472 345.876 149.984 347.348 149.984ZM366.371 152.288C363.811 152.288 361.784 151.552 360.291 150.08C358.819 148.608 358.083 146.581 358.083 144C358.083 142.293 358.403 140.821 359.043 139.584C359.704 138.325 360.611 137.355 361.763 136.672C362.915 135.968 364.259 135.616 365.795 135.616C367.267 135.616 368.515 135.936 369.539 136.576C370.563 137.195 371.342 138.08 371.875 139.232C372.408 140.384 372.675 141.749 372.675 143.328V144.288H360.355V142.56H370.691L370.147 142.976C370.147 141.312 369.774 140.021 369.027 139.104C368.302 138.187 367.224 137.728 365.795 137.728C364.238 137.728 363.032 138.272 362.179 139.36C361.326 140.427 360.899 141.888 360.899 143.744V144.032C360.899 145.995 361.379 147.477 362.339 148.48C363.32 149.483 364.675 149.984 366.403 149.984C367.363 149.984 368.259 149.845 369.091 149.568C369.923 149.291 370.723 148.832 371.491 148.192L372.451 150.208C371.726 150.869 370.819 151.381 369.731 151.744C368.664 152.107 367.544 152.288 366.371 152.288ZM376.448 152V139.84C376.448 139.2 376.427 138.549 376.384 137.888C376.363 137.205 376.31 136.544 376.224 135.904H379.04L379.392 139.936L378.912 139.968C379.126 138.987 379.488 138.176 380 137.536C380.534 136.875 381.163 136.395 381.888 136.096C382.635 135.776 383.403 135.616 384.192 135.616C384.534 135.616 384.822 135.627 385.056 135.648C385.291 135.669 385.526 135.723 385.76 135.808L385.696 138.4C385.376 138.272 385.078 138.197 384.8 138.176C384.544 138.133 384.224 138.112 383.84 138.112C382.902 138.112 382.091 138.325 381.408 138.752C380.747 139.179 380.235 139.744 379.872 140.448C379.531 141.152 379.36 141.909 379.36 142.72V152H376.448ZM397.082 152V129.44H400.058V149.44H411.29V152H397.082ZM420.468 152.288C419.06 152.288 417.823 151.957 416.756 151.296C415.689 150.635 414.857 149.675 414.26 148.416C413.663 147.157 413.364 145.664 413.364 143.936C413.364 142.208 413.663 140.725 414.26 139.488C414.857 138.229 415.689 137.269 416.756 136.608C417.823 135.947 419.06 135.616 420.468 135.616C421.897 135.616 423.135 135.979 424.18 136.704C425.247 137.408 425.951 138.379 426.292 139.616H425.908L426.26 135.904H429.076C429.012 136.544 428.948 137.184 428.884 137.824C428.841 138.464 428.82 139.093 428.82 139.712V152H425.908V148.32H426.26C425.919 149.536 425.215 150.507 424.148 151.232C423.103 151.936 421.876 152.288 420.468 152.288ZM421.14 149.984C422.591 149.984 423.753 149.472 424.628 148.448C425.503 147.424 425.94 145.92 425.94 143.936C425.94 141.952 425.503 140.459 424.628 139.456C423.753 138.453 422.591 137.952 421.14 137.952C419.689 137.952 418.516 138.453 417.62 139.456C416.745 140.459 416.308 141.952 416.308 143.936C416.308 145.92 416.745 147.424 417.62 148.448C418.495 149.472 419.668 149.984 421.14 149.984ZM432.999 159.264L432.327 156.896C433.33 156.661 434.162 156.384 434.823 156.064C435.484 155.765 436.039 155.371 436.487 154.88C436.935 154.389 437.33 153.771 437.671 153.024L438.471 151.104L438.407 152.32L431.399 135.904H434.535L440.135 149.696H439.303L444.903 135.904H447.911L440.519 153.248C440.071 154.293 439.58 155.168 439.047 155.872C438.535 156.576 437.97 157.152 437.351 157.6C436.754 158.048 436.092 158.4 435.367 158.656C434.642 158.912 433.852 159.115 432.999 159.264ZM457.715 152.288C455.155 152.288 453.128 151.552 451.635 150.08C450.163 148.608 449.427 146.581 449.427 144C449.427 142.293 449.747 140.821 450.387 139.584C451.048 138.325 451.955 137.355 453.107 136.672C454.259 135.968 455.603 135.616 457.139 135.616C458.611 135.616 459.859 135.936 460.883 136.576C461.907 137.195 462.685 138.08 463.219 139.232C463.752 140.384 464.019 141.749 464.019 143.328V144.288H451.699V142.56H462.035L461.491 142.976C461.491 141.312 461.117 140.021 460.371 139.104C459.645 138.187 458.568 137.728 457.139 137.728C455.581 137.728 454.376 138.272 453.523 139.36C452.669 140.427 452.243 141.888 452.243 143.744V144.032C452.243 145.995 452.723 147.477 453.683 148.48C454.664 149.483 456.019 149.984 457.747 149.984C458.707 149.984 459.603 149.845 460.435 149.568C461.267 149.291 462.067 148.832 462.835 148.192L463.795 150.208C463.069 150.869 462.163 151.381 461.075 151.744C460.008 152.107 458.888 152.288 457.715 152.288ZM467.792 152V139.84C467.792 139.2 467.771 138.549 467.728 137.888C467.707 137.205 467.653 136.544 467.568 135.904H470.384L470.736 139.936L470.256 139.968C470.469 138.987 470.832 138.176 471.344 137.536C471.877 136.875 472.507 136.395 473.232 136.096C473.979 135.776 474.747 135.616 475.536 135.616C475.877 135.616 476.165 135.627 476.4 135.648C476.635 135.669 476.869 135.723 477.104 135.808L477.04 138.4C476.72 138.272 476.421 138.197 476.144 138.176C475.888 138.133 475.568 138.112 475.184 138.112C474.245 138.112 473.435 138.325 472.752 138.752C472.091 139.179 471.579 139.744 471.216 140.448C470.875 141.152 470.704 141.909 470.704 142.72V152H467.792ZM481.204 152V149.472H486.484V131.968H487.988L481.684 135.872V132.96L487.316 129.44H489.46V149.472H494.42V152H481.204Z" fill="#4CC9F0"/>
<line x1="93.7046" y1="20" x2="93.7046" y2="335" stroke="#0FA9D9"/>
</svg>
