<svg width="646" height="627" viewBox="0 0 646 627" fill="none" xmlns="http://www.w3.org/2000/svg">
<path d="M367.8 340L313.8 384.167V295.833L367.8 340Z" fill="#4CC9F0"/>
<path fill-rule="evenodd" clip-rule="evenodd" d="M1 384L54.7955 340L1 296H314.795V384H1ZM0.795458 384L0.79546 296H0.795458V384Z" fill="#4CC9F0"/>
<path d="M141.011 354V351.443L150.614 340.932C151.741 339.701 152.669 338.631 153.398 337.722C154.127 336.803 154.667 335.941 155.017 335.136C155.377 334.322 155.557 333.47 155.557 332.58C155.557 331.557 155.311 330.671 154.818 329.923C154.335 329.175 153.672 328.598 152.83 328.19C151.987 327.783 151.04 327.58 149.989 327.58C148.871 327.58 147.896 327.812 147.062 328.276C146.239 328.73 145.599 329.369 145.145 330.193C144.7 331.017 144.477 331.983 144.477 333.091H141.125C141.125 331.386 141.518 329.89 142.304 328.602C143.09 327.314 144.16 326.311 145.514 325.591C146.878 324.871 148.407 324.511 150.102 324.511C151.807 324.511 153.317 324.871 154.634 325.591C155.95 326.311 156.982 327.281 157.73 328.503C158.478 329.724 158.852 331.083 158.852 332.58C158.852 333.65 158.658 334.696 158.27 335.719C157.891 336.732 157.228 337.864 156.281 339.114C155.344 340.354 154.042 341.869 152.375 343.659L145.841 350.648V350.875H159.364V354H141.011ZM174.719 354.398C172.579 354.398 170.756 353.815 169.25 352.651C167.744 351.476 166.594 349.777 165.798 347.551C165.003 345.316 164.605 342.617 164.605 339.455C164.605 336.311 165.003 333.626 165.798 331.401C166.603 329.166 167.759 327.461 169.264 326.287C170.779 325.103 172.598 324.511 174.719 324.511C176.84 324.511 178.653 325.103 180.159 326.287C181.674 327.461 182.83 329.166 183.625 331.401C184.43 333.626 184.832 336.311 184.832 339.455C184.832 342.617 184.435 345.316 183.639 347.551C182.844 349.777 181.693 351.476 180.188 352.651C178.682 353.815 176.859 354.398 174.719 354.398ZM174.719 351.273C176.84 351.273 178.488 350.25 179.662 348.205C180.836 346.159 181.423 343.242 181.423 339.455C181.423 336.936 181.153 334.791 180.614 333.02C180.083 331.249 179.316 329.9 178.312 328.972C177.318 328.044 176.12 327.58 174.719 327.58C172.616 327.58 170.973 328.616 169.79 330.69C168.606 332.755 168.014 335.676 168.014 339.455C168.014 341.973 168.279 344.114 168.81 345.875C169.34 347.636 170.102 348.976 171.097 349.895C172.1 350.813 173.308 351.273 174.719 351.273ZM190.23 354V351.443L199.832 340.932C200.959 339.701 201.887 338.631 202.616 337.722C203.346 336.803 203.885 335.941 204.236 335.136C204.596 334.322 204.776 333.47 204.776 332.58C204.776 331.557 204.529 330.671 204.037 329.923C203.554 329.175 202.891 328.598 202.048 328.19C201.205 327.783 200.259 327.58 199.207 327.58C198.09 327.58 197.115 327.812 196.281 328.276C195.457 328.73 194.818 329.369 194.364 330.193C193.919 331.017 193.696 331.983 193.696 333.091H190.344C190.344 331.386 190.737 329.89 191.523 328.602C192.309 327.314 193.379 326.311 194.733 325.591C196.097 324.871 197.626 324.511 199.321 324.511C201.026 324.511 202.536 324.871 203.852 325.591C205.169 326.311 206.201 327.281 206.949 328.503C207.697 329.724 208.071 331.083 208.071 332.58C208.071 333.65 207.877 334.696 207.489 335.719C207.11 336.732 206.447 337.864 205.5 339.114C204.562 340.354 203.26 341.869 201.594 343.659L195.06 350.648V350.875H208.582V354H190.23ZM224.278 354.398C222.403 354.398 220.732 354.076 219.264 353.432C217.806 352.788 216.646 351.893 215.784 350.747C214.932 349.592 214.468 348.252 214.392 346.727H217.972C218.047 347.665 218.369 348.474 218.938 349.156C219.506 349.829 220.249 350.349 221.168 350.719C222.086 351.088 223.104 351.273 224.222 351.273C225.472 351.273 226.58 351.055 227.545 350.619C228.511 350.184 229.269 349.578 229.818 348.801C230.367 348.025 230.642 347.125 230.642 346.102C230.642 345.032 230.377 344.09 229.847 343.276C229.316 342.452 228.54 341.808 227.517 341.344C226.494 340.88 225.244 340.648 223.767 340.648H221.438V337.523H223.767C224.922 337.523 225.936 337.314 226.807 336.898C227.688 336.481 228.374 335.894 228.866 335.136C229.368 334.379 229.619 333.489 229.619 332.466C229.619 331.481 229.402 330.624 228.966 329.895C228.53 329.166 227.915 328.598 227.119 328.19C226.333 327.783 225.405 327.58 224.335 327.58C223.331 327.58 222.384 327.764 221.494 328.134C220.614 328.493 219.894 329.019 219.335 329.71C218.777 330.392 218.473 331.216 218.426 332.182H215.017C215.074 330.657 215.533 329.322 216.395 328.176C217.257 327.021 218.384 326.121 219.776 325.477C221.177 324.833 222.716 324.511 224.392 324.511C226.191 324.511 227.735 324.876 229.023 325.605C230.311 326.325 231.3 327.277 231.991 328.46C232.683 329.644 233.028 330.922 233.028 332.295C233.028 333.934 232.598 335.33 231.736 336.486C230.884 337.641 229.723 338.441 228.256 338.886V339.114C230.093 339.417 231.527 340.198 232.56 341.457C233.592 342.707 234.108 344.256 234.108 346.102C234.108 347.684 233.677 349.104 232.815 350.364C231.963 351.614 230.798 352.598 229.321 353.318C227.844 354.038 226.163 354.398 224.278 354.398ZM262.247 344.909H266.111L269.349 349.17L270.202 350.307L275.031 356.727H271.168L267.986 352.466L267.19 351.386L262.247 344.909ZM276.224 339.455C276.224 342.523 275.67 345.174 274.562 347.409C273.455 349.644 271.935 351.367 270.003 352.58C268.071 353.792 265.865 354.398 263.384 354.398C260.902 354.398 258.696 353.792 256.764 352.58C254.832 351.367 253.313 349.644 252.205 347.409C251.097 345.174 250.543 342.523 250.543 339.455C250.543 336.386 251.097 333.735 252.205 331.5C253.313 329.265 254.832 327.542 256.764 326.33C258.696 325.117 260.902 324.511 263.384 324.511C265.865 324.511 268.071 325.117 270.003 326.33C271.935 327.542 273.455 329.265 274.562 331.5C275.67 333.735 276.224 336.386 276.224 339.455ZM272.815 339.455C272.815 336.936 272.394 334.81 271.551 333.077C270.718 331.344 269.586 330.032 268.156 329.142C266.736 328.252 265.145 327.807 263.384 327.807C261.622 327.807 260.027 328.252 258.597 329.142C257.176 330.032 256.045 331.344 255.202 333.077C254.368 334.81 253.952 336.936 253.952 339.455C253.952 341.973 254.368 344.099 255.202 345.832C256.045 347.565 257.176 348.877 258.597 349.767C260.027 350.657 261.622 351.102 263.384 351.102C265.145 351.102 266.736 350.657 268.156 349.767C269.586 348.877 270.718 347.565 271.551 345.832C272.394 344.099 272.815 341.973 272.815 339.455ZM291.864 324.909V354H288.341V328.602H288.17L281.068 333.318V329.739L288.341 324.909H291.864Z" fill="black"/>
<circle cx="94.5" cy="339.5" r="8.5" fill="#D9D9D9"/>
<path d="M94.0113 29.152C92.9659 29.152 91.9953 28.9067 91.0993 28.416C90.2033 27.904 89.4886 27.2107 88.9553 26.336C88.4219 25.4613 88.1553 24.4907 88.1553 23.424C88.1553 22.4427 88.4006 21.5147 88.8913 20.64C89.4033 19.7653 90.0966 19.0613 90.9713 18.528C91.8673 17.9733 92.8806 17.696 94.0113 17.696C95.0566 17.696 96.0166 17.952 96.8913 18.464C97.7659 18.9547 98.4699 19.6267 99.0033 20.48C99.5579 21.3333 99.8353 22.3147 99.8353 23.424C99.8353 24.4693 99.5686 25.4293 99.0353 26.304C98.5233 27.1787 97.8193 27.872 96.9233 28.384C96.0486 28.896 95.0779 29.152 94.0113 29.152ZM126.928 32L119.024 9.44H122.16L128.848 29.344H127.696L134.8 9.44H137.136L143.792 29.344H142.768L149.68 9.44H152.624L144.656 32H142.064L135.568 12.96H136.24L129.488 32H126.928ZM161.51 32.288C158.95 32.288 156.923 31.552 155.43 30.08C153.958 28.608 153.222 26.5813 153.222 24C153.222 22.2933 153.542 20.8213 154.182 19.584C154.843 18.3253 155.75 17.3547 156.902 16.672C158.054 15.968 159.398 15.616 160.934 15.616C162.406 15.616 163.654 15.936 164.678 16.576C165.702 17.1947 166.481 18.08 167.014 19.232C167.547 20.384 167.814 21.7493 167.814 23.328V24.288H155.494V22.56H165.83L165.286 22.976C165.286 21.312 164.913 20.0213 164.166 19.104C163.441 18.1867 162.363 17.728 160.934 17.728C159.377 17.728 158.171 18.272 157.318 19.36C156.465 20.4267 156.038 21.888 156.038 23.744V24.032C156.038 25.9947 156.518 27.4773 157.478 28.48C158.459 29.4827 159.814 29.984 161.542 29.984C162.502 29.984 163.398 29.8453 164.23 29.568C165.062 29.2907 165.862 28.832 166.63 28.192L167.59 30.208C166.865 30.8693 165.958 31.3813 164.87 31.744C163.803 32.1067 162.683 32.288 161.51 32.288ZM179.972 32.288C178.542 32.288 177.305 31.936 176.26 31.232C175.214 30.5067 174.521 29.5147 174.18 28.256H174.532V32H171.62V8.448H174.532V19.584H174.18C174.542 18.3467 175.236 17.376 176.26 16.672C177.305 15.968 178.542 15.616 179.972 15.616C181.401 15.616 182.649 15.9573 183.716 16.64C184.782 17.3013 185.604 18.2507 186.18 19.488C186.777 20.7253 187.076 22.2187 187.076 23.968C187.076 25.696 186.777 27.1893 186.18 28.448C185.604 29.6853 184.772 30.6347 183.684 31.296C182.617 31.9573 181.38 32.288 179.972 32.288ZM179.3 29.984C180.75 29.984 181.913 29.4827 182.788 28.48C183.684 27.456 184.132 25.952 184.132 23.968C184.132 21.984 183.684 20.4907 182.788 19.488C181.913 18.464 180.75 17.952 179.3 17.952C177.828 17.952 176.654 18.4533 175.78 19.456C174.926 20.4587 174.5 21.952 174.5 23.936C174.5 25.92 174.926 27.424 175.78 28.448C176.654 29.472 177.828 29.984 179.3 29.984ZM196.435 32.288C195.133 32.288 193.917 32.1173 192.786 31.776C191.677 31.4347 190.76 30.944 190.035 30.304L190.963 28.288C191.752 28.8853 192.616 29.344 193.555 29.664C194.515 29.9627 195.496 30.112 196.499 30.112C197.715 30.112 198.632 29.888 199.251 29.44C199.891 28.992 200.211 28.3947 200.211 27.648C200.211 27.0507 200.008 26.5707 199.603 26.208C199.197 25.8453 198.557 25.5787 197.683 25.408L194.643 24.8C193.277 24.48 192.243 23.968 191.539 23.264C190.856 22.5387 190.515 21.6107 190.515 20.48C190.515 19.5413 190.771 18.7093 191.283 17.984C191.795 17.2373 192.52 16.6613 193.459 16.256C194.419 15.8293 195.539 15.616 196.819 15.616C197.992 15.616 199.08 15.7867 200.083 16.128C201.107 16.4693 201.949 16.9707 202.611 17.632L201.651 19.584C200.989 19.008 200.243 18.5707 199.411 18.272C198.6 17.952 197.768 17.792 196.915 17.792C195.677 17.792 194.76 18.0373 194.163 18.528C193.565 18.9973 193.266 19.616 193.266 20.384C193.266 20.96 193.448 21.44 193.811 21.824C194.173 22.1867 194.76 22.464 195.571 22.656L198.611 23.264C200.04 23.5627 201.117 24.0533 201.843 24.736C202.568 25.4187 202.931 26.3253 202.931 27.456C202.931 28.4587 202.653 29.3227 202.099 30.048C201.565 30.7733 200.808 31.328 199.827 31.712C198.867 32.096 197.736 32.288 196.435 32.288ZM206.901 32V15.904H209.813V32H206.901ZM206.645 12.384V9.248H210.101V12.384H206.645ZM220.698 32.288C219.013 32.288 217.733 31.8293 216.858 30.912C216.005 29.9733 215.578 28.5653 215.578 26.688V18.144H212.442V15.904H215.578V11.584L218.49 10.784V15.904H223.034V18.144H218.49V26.432C218.49 27.6693 218.703 28.5547 219.13 29.088C219.578 29.6 220.218 29.856 221.05 29.856C221.477 29.856 221.839 29.824 222.138 29.76C222.458 29.6747 222.746 29.5787 223.002 29.472V31.872C222.682 32 222.309 32.096 221.882 32.16C221.477 32.2453 221.082 32.288 220.698 32.288ZM233.26 32.288C230.7 32.288 228.673 31.552 227.18 30.08C225.708 28.608 224.972 26.5813 224.972 24C224.972 22.2933 225.292 20.8213 225.932 19.584C226.593 18.3253 227.5 17.3547 228.652 16.672C229.804 15.968 231.148 15.616 232.684 15.616C234.156 15.616 235.404 15.936 236.428 16.576C237.452 17.1947 238.231 18.08 238.764 19.232C239.297 20.384 239.564 21.7493 239.564 23.328V24.288H227.244V22.56H237.58L237.036 22.976C237.036 21.312 236.663 20.0213 235.916 19.104C235.191 18.1867 234.113 17.728 232.684 17.728C231.127 17.728 229.921 18.272 229.068 19.36C228.215 20.4267 227.788 21.888 227.788 23.744V24.032C227.788 25.9947 228.268 27.4773 229.228 28.48C230.209 29.4827 231.564 29.984 233.292 29.984C234.252 29.984 235.148 29.8453 235.98 29.568C236.812 29.2907 237.612 28.832 238.38 28.192L239.34 30.208C238.615 30.8693 237.708 31.3813 236.62 31.744C235.553 32.1067 234.433 32.288 233.26 32.288ZM252.127 32V9.44H255.103V29.44H266.335V32H252.127ZM275.514 32.288C274.106 32.288 272.868 31.9573 271.802 31.296C270.735 30.6347 269.903 29.6747 269.306 28.416C268.708 27.1573 268.41 25.664 268.41 23.936C268.41 22.208 268.708 20.7253 269.306 19.488C269.903 18.2293 270.735 17.2693 271.802 16.608C272.868 15.9467 274.106 15.616 275.514 15.616C276.943 15.616 278.18 15.9787 279.226 16.704C280.292 17.408 280.996 18.3787 281.338 19.616H280.954L281.306 15.904H284.122C284.058 16.544 283.994 17.184 283.93 17.824C283.887 18.464 283.866 19.0933 283.866 19.712V32H280.954V28.32H281.306C280.964 29.536 280.26 30.5067 279.194 31.232C278.148 31.936 276.922 32.288 275.514 32.288ZM276.186 29.984C277.636 29.984 278.799 29.472 279.674 28.448C280.548 27.424 280.986 25.92 280.986 23.936C280.986 21.952 280.548 20.4587 279.674 19.456C278.799 18.4533 277.636 17.952 276.186 17.952C274.735 17.952 273.562 18.4533 272.666 19.456C271.791 20.4587 271.354 21.952 271.354 23.936C271.354 25.92 271.791 27.424 272.666 28.448C273.54 29.472 274.714 29.984 276.186 29.984ZM294.473 32.288C292.531 32.288 291.07 31.7653 290.089 30.72C289.129 29.6747 288.649 28.064 288.649 25.888V15.904H291.561V25.824C291.561 27.232 291.849 28.2667 292.425 28.928C293.001 29.5893 293.897 29.92 295.113 29.92C296.435 29.92 297.502 29.4827 298.313 28.608C299.145 27.712 299.561 26.528 299.561 25.056V15.904H302.472V32H299.657V28.448H300.073C299.625 29.664 298.91 30.6133 297.929 31.296C296.947 31.9573 295.795 32.288 294.473 32.288ZM307.37 32V19.712C307.37 19.0933 307.348 18.464 307.306 17.824C307.263 17.184 307.199 16.544 307.114 15.904H309.93L310.25 19.36H309.866C310.356 18.144 311.114 17.216 312.138 16.576C313.162 15.936 314.356 15.616 315.722 15.616C317.62 15.616 319.05 16.1387 320.01 17.184C320.97 18.208 321.45 19.808 321.45 21.984V32H318.538V22.144C318.538 20.672 318.25 19.616 317.674 18.976C317.098 18.3147 316.202 17.984 314.986 17.984C313.535 17.984 312.383 18.4213 311.53 19.296C310.698 20.1707 310.282 21.3547 310.282 22.848V32H307.37ZM333.125 32.288C331.525 32.288 330.139 31.9573 328.965 31.296C327.792 30.6133 326.875 29.6427 326.213 28.384C325.573 27.104 325.253 25.5893 325.253 23.84C325.253 22.112 325.584 20.64 326.245 19.424C326.907 18.1867 327.824 17.248 328.997 16.608C330.171 15.9467 331.547 15.616 333.125 15.616C334.171 15.616 335.184 15.7973 336.165 16.16C337.147 16.5013 337.947 17.0027 338.565 17.664L337.573 19.712C336.955 19.1147 336.272 18.6773 335.525 18.4C334.779 18.1013 334.043 17.952 333.317 17.952C331.739 17.952 330.501 18.464 329.605 19.488C328.709 20.4907 328.261 21.952 328.261 23.872C328.261 25.8133 328.709 27.3067 329.605 28.352C330.501 29.3973 331.739 29.92 333.317 29.92C334.021 29.92 334.747 29.7813 335.493 29.504C336.24 29.2267 336.933 28.7893 337.573 28.192L338.565 30.208C337.925 30.8907 337.104 31.4133 336.101 31.776C335.12 32.1173 334.128 32.288 333.125 32.288ZM342.12 32V8.448H345.032V19.392H344.616C345.085 18.1547 345.842 17.216 346.888 16.576C347.933 15.936 349.138 15.616 350.504 15.616C352.445 15.616 353.874 16.1387 354.792 17.184C355.73 18.2293 356.2 19.808 356.2 21.92V32H353.288V22.08C353.288 20.6507 353.01 19.616 352.456 18.976C351.901 18.3147 350.994 17.984 349.736 17.984C348.328 17.984 347.186 18.4213 346.312 19.296C345.458 20.1707 345.032 21.3333 345.032 22.784V32H342.12ZM94.0113 69.152C92.9659 69.152 91.9953 68.9067 91.0993 68.416C90.2033 67.904 89.4886 67.2107 88.9553 66.336C88.4219 65.4613 88.1553 64.4907 88.1553 63.424C88.1553 62.4427 88.4006 61.5147 88.8913 60.64C89.4033 59.7653 90.0966 59.0613 90.9713 58.528C91.8673 57.9733 92.8806 57.696 94.0113 57.696C95.0566 57.696 96.0166 57.952 96.8913 58.464C97.7659 58.9547 98.4699 59.6267 99.0033 60.48C99.5579 61.3333 99.8353 62.3147 99.8353 63.424C99.8353 64.4693 99.5686 65.4293 99.0353 66.304C98.5233 67.1787 97.8193 67.872 96.9233 68.384C96.0486 68.896 95.0779 69.152 94.0113 69.152ZM120.752 72V49.44H123.728V69.44H134.96V72H120.752ZM137.995 72V55.904H140.907V72H137.995ZM137.739 52.384V49.248H141.195V52.384H137.739ZM151.792 72.288C150.106 72.288 148.826 71.8293 147.952 70.912C147.098 69.9733 146.672 68.5653 146.672 66.688V58.144H143.536V55.904H146.672V51.584L149.584 50.784V55.904H154.128V58.144H149.584V66.432C149.584 67.6693 149.797 68.5547 150.224 69.088C150.672 69.6 151.312 69.856 152.144 69.856C152.57 69.856 152.933 69.824 153.232 69.76C153.552 69.6747 153.84 69.5787 154.096 69.472V71.872C153.776 72 153.402 72.096 152.976 72.16C152.57 72.2453 152.176 72.288 151.792 72.288ZM164.354 72.288C161.794 72.288 159.767 71.552 158.274 70.08C156.802 68.608 156.066 66.5813 156.066 64C156.066 62.2933 156.386 60.8213 157.026 59.584C157.687 58.3253 158.594 57.3547 159.746 56.672C160.898 55.968 162.242 55.616 163.778 55.616C165.25 55.616 166.498 55.936 167.522 56.576C168.546 57.1947 169.324 58.08 169.858 59.232C170.391 60.384 170.658 61.7493 170.658 63.328V64.288H158.338V62.56H168.674L168.13 62.976C168.13 61.312 167.756 60.0213 167.01 59.104C166.284 58.1867 165.207 57.728 163.778 57.728C162.22 57.728 161.015 58.272 160.162 59.36C159.308 60.4267 158.882 61.888 158.882 63.744V64.032C158.882 65.9947 159.362 67.4773 160.322 68.48C161.303 69.4827 162.658 69.984 164.386 69.984C165.346 69.984 166.242 69.8453 167.074 69.568C167.906 69.2907 168.706 68.832 169.474 68.192L170.434 70.208C169.708 70.8693 168.802 71.3813 167.714 71.744C166.647 72.1067 165.527 72.288 164.354 72.288ZM174.463 78.912V59.712C174.463 59.0933 174.442 58.464 174.399 57.824C174.357 57.184 174.293 56.544 174.207 55.904H177.023L177.375 59.616H177.023C177.343 58.3787 178.026 57.408 179.071 56.704C180.117 55.9787 181.365 55.616 182.815 55.616C184.245 55.616 185.493 55.9467 186.559 56.608C187.626 57.2693 188.447 58.2293 189.023 59.488C189.621 60.7253 189.919 62.208 189.919 63.936C189.919 65.664 189.621 67.1573 189.023 68.416C188.447 69.6747 187.626 70.6347 186.559 71.296C185.493 71.9573 184.245 72.288 182.815 72.288C181.386 72.288 180.149 71.936 179.103 71.232C178.079 70.5067 177.386 69.536 177.023 68.32H177.375V78.912H174.463ZM182.143 69.984C183.615 69.984 184.789 69.472 185.663 68.448C186.538 67.424 186.975 65.92 186.975 63.936C186.975 61.952 186.538 60.4587 185.663 59.456C184.789 58.4533 183.615 57.952 182.143 57.952C180.671 57.952 179.498 58.4533 178.623 59.456C177.77 60.4587 177.343 61.952 177.343 63.936C177.343 65.92 177.77 67.424 178.623 68.448C179.498 69.472 180.671 69.984 182.143 69.984ZM199.982 72.288C198.574 72.288 197.337 71.9573 196.27 71.296C195.204 70.6347 194.372 69.6747 193.774 68.416C193.177 67.1573 192.878 65.664 192.878 63.936C192.878 62.208 193.177 60.7253 193.774 59.488C194.372 58.2293 195.204 57.2693 196.27 56.608C197.337 55.9467 198.574 55.616 199.982 55.616C201.412 55.616 202.649 55.9787 203.694 56.704C204.761 57.408 205.465 58.3787 205.806 59.616H205.422L205.774 55.904H208.59C208.526 56.544 208.462 57.184 208.398 57.824C208.356 58.464 208.334 59.0933 208.334 59.712V72H205.422V68.32H205.774C205.433 69.536 204.729 70.5067 203.662 71.232C202.617 71.936 201.39 72.288 199.982 72.288ZM200.654 69.984C202.105 69.984 203.268 69.472 204.142 68.448C205.017 67.424 205.454 65.92 205.454 63.936C205.454 61.952 205.017 60.4587 204.142 59.456C203.268 58.4533 202.105 57.952 200.654 57.952C199.204 57.952 198.03 58.4533 197.134 59.456C196.26 60.4587 195.822 61.952 195.822 63.936C195.822 65.92 196.26 67.424 197.134 68.448C198.009 69.472 199.182 69.984 200.654 69.984ZM213.213 78.912V59.712C213.213 59.0933 213.192 58.464 213.149 57.824C213.107 57.184 213.043 56.544 212.957 55.904H215.773L216.125 59.616H215.773C216.093 58.3787 216.776 57.408 217.821 56.704C218.867 55.9787 220.115 55.616 221.565 55.616C222.995 55.616 224.243 55.9467 225.309 56.608C226.376 57.2693 227.197 58.2293 227.773 59.488C228.371 60.7253 228.669 62.208 228.669 63.936C228.669 65.664 228.371 67.1573 227.773 68.416C227.197 69.6747 226.376 70.6347 225.309 71.296C224.243 71.9573 222.995 72.288 221.565 72.288C220.136 72.288 218.899 71.936 217.853 71.232C216.829 70.5067 216.136 69.536 215.773 68.32H216.125V78.912H213.213ZM220.893 69.984C222.365 69.984 223.539 69.472 224.413 68.448C225.288 67.424 225.725 65.92 225.725 63.936C225.725 61.952 225.288 60.4587 224.413 59.456C223.539 58.4533 222.365 57.952 220.893 57.952C219.421 57.952 218.248 58.4533 217.373 59.456C216.52 60.4587 216.093 61.952 216.093 63.936C216.093 65.92 216.52 67.424 217.373 68.448C218.248 69.472 219.421 69.984 220.893 69.984ZM239.916 72.288C237.356 72.288 235.33 71.552 233.836 70.08C232.364 68.608 231.628 66.5813 231.628 64C231.628 62.2933 231.948 60.8213 232.588 59.584C233.25 58.3253 234.156 57.3547 235.308 56.672C236.46 55.968 237.804 55.616 239.34 55.616C240.812 55.616 242.06 55.936 243.084 56.576C244.108 57.1947 244.887 58.08 245.42 59.232C245.954 60.384 246.22 61.7493 246.22 63.328V64.288H233.9V62.56H244.236L243.692 62.976C243.692 61.312 243.319 60.0213 242.572 59.104C241.847 58.1867 240.77 57.728 239.34 57.728C237.783 57.728 236.578 58.272 235.724 59.36C234.871 60.4267 234.444 61.888 234.444 63.744V64.032C234.444 65.9947 234.924 67.4773 235.884 68.48C236.866 69.4827 238.22 69.984 239.948 69.984C240.908 69.984 241.804 69.8453 242.636 69.568C243.468 69.2907 244.268 68.832 245.036 68.192L245.996 70.208C245.271 70.8693 244.364 71.3813 243.276 71.744C242.21 72.1067 241.09 72.288 239.916 72.288ZM249.994 72V59.84C249.994 59.2 249.972 58.5493 249.93 57.888C249.908 57.2053 249.855 56.544 249.77 55.904H252.586L252.938 59.936L252.458 59.968C252.671 58.9867 253.034 58.176 253.546 57.536C254.079 56.8747 254.708 56.3947 255.434 56.096C256.18 55.776 256.948 55.616 257.738 55.616C258.079 55.616 258.367 55.6267 258.602 55.648C258.836 55.6693 259.071 55.7227 259.306 55.808L259.242 58.4C258.922 58.272 258.623 58.1973 258.346 58.176C258.09 58.1333 257.77 58.112 257.386 58.112C256.447 58.112 255.636 58.3253 254.954 58.752C254.292 59.1787 253.78 59.744 253.418 60.448C253.076 61.152 252.906 61.9093 252.906 62.72V72H249.994ZM94.0113 109.152C92.9659 109.152 91.9953 108.907 91.0993 108.416C90.2033 107.904 89.4886 107.211 88.9553 106.336C88.4219 105.461 88.1553 104.491 88.1553 103.424C88.1553 102.443 88.4006 101.515 88.8913 100.64C89.4033 99.7653 90.0966 99.0613 90.9713 98.528C91.8673 97.9733 92.8806 97.696 94.0113 97.696C95.0566 97.696 96.0166 97.952 96.8913 98.464C97.7659 98.9547 98.4699 99.6267 99.0033 100.48C99.5579 101.333 99.8353 102.315 99.8353 103.424C99.8353 104.469 99.5686 105.429 99.0353 106.304C98.5233 107.179 97.8193 107.872 96.9233 108.384C96.0486 108.896 95.0779 109.152 94.0113 109.152ZM126.16 112V91.968H118.352V89.44H137.008V91.968H129.168V112H126.16ZM144.185 112.288C142.606 112.288 141.241 111.957 140.089 111.296C138.937 110.613 138.041 109.653 137.401 108.416C136.761 107.157 136.441 105.664 136.441 103.936C136.441 102.229 136.761 100.757 137.401 99.52C138.041 98.2613 138.937 97.3013 140.089 96.64C141.241 95.9573 142.606 95.616 144.185 95.616C145.763 95.616 147.129 95.9573 148.281 96.64C149.454 97.3013 150.35 98.2613 150.969 99.52C151.609 100.757 151.929 102.229 151.929 103.936C151.929 105.664 151.609 107.157 150.969 108.416C150.35 109.653 149.454 110.613 148.281 111.296C147.129 111.957 145.763 112.288 144.185 112.288ZM144.185 109.984C145.635 109.984 146.798 109.472 147.673 108.448C148.547 107.424 148.985 105.92 148.985 103.936C148.985 101.952 148.547 100.459 147.673 99.456C146.798 98.4533 145.635 97.952 144.185 97.952C142.713 97.952 141.539 98.4533 140.665 99.456C139.811 100.459 139.385 101.952 139.385 103.936C139.385 105.92 139.811 107.424 140.665 108.448C141.539 109.472 142.713 109.984 144.185 109.984ZM155.838 112V88.448H158.75V103.008H158.814L166.078 95.904H169.694L161.054 104.352L161.086 102.976L170.462 112H166.75L158.814 104.512H158.75V112H155.838ZM179.541 112.288C176.981 112.288 174.955 111.552 173.461 110.08C171.989 108.608 171.253 106.581 171.253 104C171.253 102.293 171.573 100.821 172.213 99.584C172.875 98.3253 173.781 97.3547 174.933 96.672C176.085 95.968 177.429 95.616 178.965 95.616C180.437 95.616 181.685 95.936 182.709 96.576C183.733 97.1947 184.512 98.08 185.045 99.232C185.579 100.384 185.845 101.749 185.845 103.328V104.288H173.525V102.56H183.861L183.317 102.976C183.317 101.312 182.944 100.021 182.197 99.104C181.472 98.1867 180.395 97.728 178.965 97.728C177.408 97.728 176.203 98.272 175.349 99.36C174.496 100.427 174.069 101.888 174.069 103.744V104.032C174.069 105.995 174.549 107.477 175.509 108.48C176.491 109.483 177.845 109.984 179.573 109.984C180.533 109.984 181.429 109.845 182.261 109.568C183.093 109.291 183.893 108.832 184.661 108.192L185.621 110.208C184.896 110.869 183.989 111.381 182.901 111.744C181.835 112.107 180.715 112.288 179.541 112.288ZM189.651 112V99.712C189.651 99.0933 189.629 98.464 189.587 97.824C189.544 97.184 189.48 96.544 189.395 95.904H192.211L192.531 99.36H192.147C192.637 98.144 193.395 97.216 194.419 96.576C195.443 95.936 196.637 95.616 198.003 95.616C199.901 95.616 201.331 96.1387 202.291 97.184C203.251 98.208 203.731 99.808 203.731 101.984V112H200.819V102.144C200.819 100.672 200.531 99.616 199.955 98.976C199.379 98.3147 198.483 97.984 197.267 97.984C195.816 97.984 194.664 98.4213 193.811 99.296C192.979 100.171 192.563 101.355 192.563 102.848V112H189.651ZM222.66 112V91.968H214.852V89.44H233.508V91.968H225.668V112H222.66ZM241.229 112.288C238.669 112.288 236.642 111.552 235.149 110.08C233.677 108.608 232.941 106.581 232.941 104C232.941 102.293 233.261 100.821 233.901 99.584C234.562 98.3253 235.469 97.3547 236.621 96.672C237.773 95.968 239.117 95.616 240.653 95.616C242.125 95.616 243.373 95.936 244.397 96.576C245.421 97.1947 246.199 98.08 246.733 99.232C247.266 100.384 247.533 101.749 247.533 103.328V104.288H235.213V102.56H245.549L245.005 102.976C245.005 101.312 244.631 100.021 243.885 99.104C243.159 98.1867 242.082 97.728 240.653 97.728C239.095 97.728 237.89 98.272 237.037 99.36C236.183 100.427 235.757 101.888 235.757 103.744V104.032C235.757 105.995 236.237 107.477 237.197 108.48C238.178 109.483 239.533 109.984 241.261 109.984C242.221 109.984 243.117 109.845 243.949 109.568C244.781 109.291 245.581 108.832 246.349 108.192L247.309 110.208C246.583 110.869 245.677 111.381 244.589 111.744C243.522 112.107 242.402 112.288 241.229 112.288ZM256.778 112.288C255.477 112.288 254.261 112.117 253.13 111.776C252.021 111.435 251.104 110.944 250.378 110.304L251.306 108.288C252.096 108.885 252.96 109.344 253.898 109.664C254.858 109.963 255.84 110.112 256.842 110.112C258.058 110.112 258.976 109.888 259.594 109.44C260.234 108.992 260.554 108.395 260.554 107.648C260.554 107.051 260.352 106.571 259.946 106.208C259.541 105.845 258.901 105.579 258.026 105.408L254.986 104.8C253.621 104.48 252.586 103.968 251.882 103.264C251.2 102.539 250.858 101.611 250.858 100.48C250.858 99.5413 251.114 98.7093 251.626 97.984C252.138 97.2373 252.864 96.6613 253.802 96.256C254.762 95.8293 255.882 95.616 257.162 95.616C258.336 95.616 259.424 95.7867 260.426 96.128C261.45 96.4693 262.293 96.9707 262.954 97.632L261.994 99.584C261.333 99.008 260.586 98.5707 259.754 98.272C258.944 97.952 258.112 97.792 257.258 97.792C256.021 97.792 255.104 98.0373 254.506 98.528C253.909 98.9973 253.61 99.616 253.61 100.384C253.61 100.96 253.792 101.44 254.154 101.824C254.517 102.187 255.104 102.464 255.914 102.656L258.954 103.264C260.384 103.563 261.461 104.053 262.186 104.736C262.912 105.419 263.274 106.325 263.274 107.456C263.274 108.459 262.997 109.323 262.442 110.048C261.909 110.773 261.152 111.328 260.17 111.712C259.21 112.096 258.08 112.288 256.778 112.288ZM273.104 112.288C271.419 112.288 270.139 111.829 269.264 110.912C268.411 109.973 267.984 108.565 267.984 106.688V98.144H264.848V95.904H267.984V91.584L270.896 90.784V95.904H275.44V98.144H270.896V106.432C270.896 107.669 271.11 108.555 271.536 109.088C271.984 109.6 272.624 109.856 273.456 109.856C273.883 109.856 274.246 109.824 274.544 109.76C274.864 109.675 275.152 109.579 275.408 109.472V111.872C275.088 112 274.715 112.096 274.288 112.16C273.883 112.245 273.488 112.288 273.104 112.288ZM278.495 112V99.712C278.495 99.0933 278.473 98.464 278.431 97.824C278.388 97.184 278.324 96.544 278.239 95.904H281.055L281.375 99.36H280.991C281.481 98.144 282.239 97.216 283.263 96.576C284.287 95.936 285.481 95.616 286.847 95.616C288.745 95.616 290.175 96.1387 291.135 97.184C292.095 98.208 292.575 99.808 292.575 101.984V112H289.663V102.144C289.663 100.672 289.375 99.616 288.799 98.976C288.223 98.3147 287.327 97.984 286.111 97.984C284.66 97.984 283.508 98.4213 282.655 99.296C281.823 100.171 281.407 101.355 281.407 102.848V112H278.495ZM304.666 112.288C302.106 112.288 300.08 111.552 298.586 110.08C297.114 108.608 296.378 106.581 296.378 104C296.378 102.293 296.698 100.821 297.338 99.584C298 98.3253 298.906 97.3547 300.058 96.672C301.21 95.968 302.554 95.616 304.09 95.616C305.562 95.616 306.81 95.936 307.834 96.576C308.858 97.1947 309.637 98.08 310.17 99.232C310.704 100.384 310.97 101.749 310.97 103.328V104.288H298.65V102.56H308.986L308.442 102.976C308.442 101.312 308.069 100.021 307.322 99.104C306.597 98.1867 305.52 97.728 304.09 97.728C302.533 97.728 301.328 98.272 300.474 99.36C299.621 100.427 299.194 101.888 299.194 103.744V104.032C299.194 105.995 299.674 107.477 300.634 108.48C301.616 109.483 302.97 109.984 304.698 109.984C305.658 109.984 306.554 109.845 307.386 109.568C308.218 109.291 309.018 108.832 309.786 108.192L310.746 110.208C310.021 110.869 309.114 111.381 308.026 111.744C306.96 112.107 305.84 112.288 304.666 112.288ZM320.76 112.288C319.075 112.288 317.795 111.829 316.921 110.912C316.067 109.973 315.641 108.565 315.641 106.688V98.144H312.505V95.904H315.641V91.584L318.553 90.784V95.904H323.097V98.144H318.553V106.432C318.553 107.669 318.766 108.555 319.193 109.088C319.641 109.6 320.281 109.856 321.113 109.856C321.539 109.856 321.902 109.824 322.201 109.76C322.521 109.675 322.809 109.579 323.065 109.472V111.872C322.745 112 322.371 112.096 321.945 112.16C321.539 112.245 321.145 112.288 320.76 112.288ZM334.908 112V89.44H337.884V109.44H349.116V112H334.908ZM358.295 112.288C356.887 112.288 355.649 111.957 354.583 111.296C353.516 110.635 352.684 109.675 352.087 108.416C351.489 107.157 351.191 105.664 351.191 103.936C351.191 102.208 351.489 100.725 352.087 99.488C352.684 98.2293 353.516 97.2693 354.583 96.608C355.649 95.9467 356.887 95.616 358.295 95.616C359.724 95.616 360.961 95.9787 362.007 96.704C363.073 97.408 363.777 98.3787 364.119 99.616H363.735L364.087 95.904H366.903C366.839 96.544 366.775 97.184 366.711 97.824C366.668 98.464 366.647 99.0933 366.647 99.712V112H363.735V108.32H364.087C363.745 109.536 363.041 110.507 361.975 111.232C360.929 111.936 359.703 112.288 358.295 112.288ZM358.967 109.984C360.417 109.984 361.58 109.472 362.455 108.448C363.329 107.424 363.767 105.92 363.767 103.936C363.767 101.952 363.329 100.459 362.455 99.456C361.58 98.4533 360.417 97.952 358.967 97.952C357.516 97.952 356.343 98.4533 355.447 99.456C354.572 100.459 354.135 101.952 354.135 103.936C354.135 105.92 354.572 107.424 355.447 108.448C356.321 109.472 357.495 109.984 358.967 109.984ZM377.254 112.288C375.312 112.288 373.851 111.765 372.87 110.72C371.91 109.675 371.43 108.064 371.43 105.888V95.904H374.342V105.824C374.342 107.232 374.63 108.267 375.206 108.928C375.782 109.589 376.678 109.92 377.894 109.92C379.216 109.92 380.283 109.483 381.094 108.608C381.926 107.712 382.342 106.528 382.342 105.056V95.904H385.254V112H382.438V108.448H382.854C382.406 109.664 381.691 110.613 380.71 111.296C379.728 111.957 378.576 112.288 377.254 112.288ZM390.151 112V99.712C390.151 99.0933 390.129 98.464 390.087 97.824C390.044 97.184 389.98 96.544 389.895 95.904H392.711L393.031 99.36H392.647C393.137 98.144 393.895 97.216 394.919 96.576C395.943 95.936 397.137 95.616 398.503 95.616C400.401 95.616 401.831 96.1387 402.791 97.184C403.751 98.208 404.231 99.808 404.231 101.984V112H401.319V102.144C401.319 100.672 401.031 99.616 400.455 98.976C399.879 98.3147 398.983 97.984 397.767 97.984C396.316 97.984 395.164 98.4213 394.311 99.296C393.479 100.171 393.063 101.355 393.063 102.848V112H390.151ZM415.907 112.288C414.307 112.288 412.92 111.957 411.747 111.296C410.573 110.613 409.656 109.643 408.995 108.384C408.355 107.104 408.035 105.589 408.035 103.84C408.035 102.112 408.365 100.64 409.027 99.424C409.688 98.1867 410.605 97.248 411.779 96.608C412.952 95.9467 414.328 95.616 415.907 95.616C416.952 95.616 417.965 95.7973 418.947 96.16C419.928 96.5013 420.728 97.0027 421.347 97.664L420.355 99.712C419.736 99.1147 419.053 98.6773 418.307 98.4C417.56 98.1013 416.824 97.952 416.099 97.952C414.52 97.952 413.283 98.464 412.387 99.488C411.491 100.491 411.043 101.952 411.043 103.872C411.043 105.813 411.491 107.307 412.387 108.352C413.283 109.397 414.52 109.92 416.099 109.92C416.803 109.92 417.528 109.781 418.275 109.504C419.021 109.227 419.715 108.789 420.355 108.192L421.347 110.208C420.707 110.891 419.885 111.413 418.883 111.776C417.901 112.117 416.909 112.288 415.907 112.288ZM424.901 112V88.448H427.813V99.392H427.397C427.866 98.1547 428.623 97.216 429.669 96.576C430.714 95.936 431.919 95.616 433.285 95.616C435.226 95.616 436.655 96.1387 437.573 97.184C438.511 98.2293 438.981 99.808 438.981 101.92V112H436.069V102.08C436.069 100.651 435.791 99.616 435.237 98.976C434.682 98.3147 433.775 97.984 432.517 97.984C431.109 97.984 429.967 98.4213 429.093 99.296C428.239 100.171 427.813 101.333 427.813 102.784V112H424.901ZM94.0113 149.152C92.9659 149.152 91.9953 148.907 91.0993 148.416C90.2033 147.904 89.4886 147.211 88.9553 146.336C88.4219 145.461 88.1553 144.491 88.1553 143.424C88.1553 142.443 88.4006 141.515 88.8913 140.64C89.4033 139.765 90.0966 139.061 90.9713 138.528C91.8673 137.973 92.8806 137.696 94.0113 137.696C95.0566 137.696 96.0166 137.952 96.8913 138.464C97.7659 138.955 98.4699 139.627 99.0033 140.48C99.5579 141.333 99.8353 142.315 99.8353 143.424C99.8353 144.469 99.5686 145.429 99.0353 146.304C98.5233 147.179 97.8193 147.872 96.9233 148.384C96.0486 148.896 95.0779 149.152 94.0113 149.152ZM128.208 152.288C126.395 152.288 124.763 152.053 123.312 151.584C121.861 151.115 120.603 150.453 119.536 149.6L120.56 147.232C121.307 147.787 122.064 148.256 122.832 148.64C123.6 149.003 124.421 149.28 125.296 149.472C126.192 149.643 127.163 149.728 128.208 149.728C130.064 149.728 131.429 149.397 132.304 148.736C133.2 148.053 133.648 147.157 133.648 146.048C133.648 145.088 133.339 144.352 132.72 143.84C132.101 143.328 131.024 142.923 129.488 142.624L126.064 141.92C123.995 141.493 122.448 140.8 121.424 139.84C120.421 138.859 119.92 137.536 119.92 135.872C119.92 134.528 120.272 133.355 120.976 132.352C121.701 131.328 122.693 130.539 123.952 129.984C125.232 129.429 126.725 129.152 128.432 129.152C130.011 129.152 131.472 129.387 132.816 129.856C134.16 130.325 135.291 131.019 136.208 131.936L135.184 134.208C134.224 133.333 133.189 132.704 132.08 132.32C130.992 131.915 129.755 131.712 128.368 131.712C126.683 131.712 125.349 132.075 124.368 132.8C123.387 133.525 122.896 134.507 122.896 135.744C122.896 136.725 123.205 137.504 123.824 138.08C124.443 138.635 125.467 139.061 126.896 139.36L130.32 140.032C132.496 140.459 134.085 141.131 135.088 142.048C136.112 142.965 136.624 144.235 136.624 145.856C136.624 147.136 136.283 148.267 135.6 149.248C134.917 150.208 133.947 150.955 132.688 151.488C131.429 152.021 129.936 152.288 128.208 152.288ZM144.659 152L138.643 135.904H141.683L146.547 149.696H145.715L150.707 135.904H153.075L158.035 149.696H157.235L162.131 135.904H165.043L158.995 152H156.243L151.123 137.984H152.531L147.443 152H144.659ZM174.045 152.288C172.637 152.288 171.399 151.957 170.333 151.296C169.266 150.635 168.434 149.675 167.837 148.416C167.239 147.157 166.941 145.664 166.941 143.936C166.941 142.208 167.239 140.725 167.837 139.488C168.434 138.229 169.266 137.269 170.333 136.608C171.399 135.947 172.637 135.616 174.045 135.616C175.474 135.616 176.711 135.979 177.757 136.704C178.823 137.408 179.527 138.379 179.869 139.616H179.485L179.837 135.904H182.653C182.589 136.544 182.525 137.184 182.461 137.824C182.418 138.464 182.397 139.093 182.397 139.712V152H179.485V148.32H179.837C179.495 149.536 178.791 150.507 177.725 151.232C176.679 151.936 175.453 152.288 174.045 152.288ZM174.717 149.984C176.167 149.984 177.33 149.472 178.205 148.448C179.079 147.424 179.517 145.92 179.517 143.936C179.517 141.952 179.079 140.459 178.205 139.456C177.33 138.453 176.167 137.952 174.717 137.952C173.266 137.952 172.093 138.453 171.197 139.456C170.322 140.459 169.885 141.952 169.885 143.936C169.885 145.92 170.322 147.424 171.197 148.448C172.071 149.472 173.245 149.984 174.717 149.984ZM187.276 158.912V139.712C187.276 139.093 187.254 138.464 187.212 137.824C187.169 137.184 187.105 136.544 187.02 135.904H189.836L190.188 139.616H189.836C190.156 138.379 190.838 137.408 191.884 136.704C192.929 135.979 194.177 135.616 195.628 135.616C197.057 135.616 198.305 135.947 199.372 136.608C200.438 137.269 201.26 138.229 201.836 139.488C202.433 140.725 202.732 142.208 202.732 143.936C202.732 145.664 202.433 147.157 201.836 148.416C201.26 149.675 200.438 150.635 199.372 151.296C198.305 151.957 197.057 152.288 195.628 152.288C194.198 152.288 192.961 151.936 191.916 151.232C190.892 150.507 190.198 149.536 189.836 148.32H190.188V158.912H187.276ZM194.956 149.984C196.428 149.984 197.601 149.472 198.476 148.448C199.35 147.424 199.788 145.92 199.788 143.936C199.788 141.952 199.35 140.459 198.476 139.456C197.601 138.453 196.428 137.952 194.956 137.952C193.484 137.952 192.31 138.453 191.436 139.456C190.582 140.459 190.156 141.952 190.156 143.936C190.156 145.92 190.582 147.424 191.436 148.448C192.31 149.472 193.484 149.984 194.956 149.984ZM206.651 158.912V139.712C206.651 139.093 206.629 138.464 206.587 137.824C206.544 137.184 206.48 136.544 206.395 135.904H209.211L209.563 139.616H209.211C209.531 138.379 210.213 137.408 211.259 136.704C212.304 135.979 213.552 135.616 215.003 135.616C216.432 135.616 217.68 135.947 218.747 136.608C219.813 137.269 220.635 138.229 221.211 139.488C221.808 140.725 222.107 142.208 222.107 143.936C222.107 145.664 221.808 147.157 221.211 148.416C220.635 149.675 219.813 150.635 218.747 151.296C217.68 151.957 216.432 152.288 215.003 152.288C213.573 152.288 212.336 151.936 211.291 151.232C210.267 150.507 209.573 149.536 209.211 148.32H209.563V158.912H206.651ZM214.331 149.984C215.803 149.984 216.976 149.472 217.851 148.448C218.725 147.424 219.163 145.92 219.163 143.936C219.163 141.952 218.725 140.459 217.851 139.456C216.976 138.453 215.803 137.952 214.331 137.952C212.859 137.952 211.685 138.453 210.811 139.456C209.957 140.459 209.531 141.952 209.531 143.936C209.531 145.92 209.957 147.424 210.811 148.448C211.685 149.472 212.859 149.984 214.331 149.984ZM226.026 152V135.904H228.938V152H226.026ZM225.77 132.384V129.248H229.226V132.384H225.77ZM233.807 152V139.712C233.807 139.093 233.786 138.464 233.743 137.824C233.7 137.184 233.636 136.544 233.551 135.904H236.367L236.687 139.36H236.303C236.794 138.144 237.551 137.216 238.575 136.576C239.599 135.936 240.794 135.616 242.159 135.616C244.058 135.616 245.487 136.139 246.447 137.184C247.407 138.208 247.887 139.808 247.887 141.984V152H244.975V142.144C244.975 140.672 244.687 139.616 244.111 138.976C243.535 138.315 242.639 137.984 241.423 137.984C239.972 137.984 238.82 138.421 237.967 139.296C237.135 140.171 236.719 141.355 236.719 142.848V152H233.807ZM259.819 159.168C258.411 159.168 257.12 158.997 255.947 158.656C254.773 158.315 253.717 157.792 252.779 157.088L253.547 154.944C254.208 155.392 254.859 155.755 255.499 156.032C256.139 156.309 256.8 156.512 257.483 156.64C258.187 156.768 258.912 156.832 259.659 156.832C261.237 156.832 262.421 156.427 263.211 155.616C264 154.805 264.395 153.653 264.395 152.16V147.648H264.715C264.373 148.864 263.669 149.835 262.603 150.56C261.557 151.264 260.32 151.616 258.891 151.616C257.44 151.616 256.171 151.296 255.083 150.656C254.016 149.995 253.184 149.067 252.587 147.872C251.989 146.656 251.691 145.237 251.691 143.616C251.691 141.973 251.989 140.555 252.587 139.36C253.184 138.165 254.016 137.248 255.083 136.608C256.171 135.947 257.44 135.616 258.891 135.616C260.32 135.616 261.557 135.968 262.603 136.672C263.648 137.376 264.341 138.347 264.683 139.584L264.395 139.296L264.683 135.904H267.499C267.435 136.544 267.371 137.184 267.307 137.824C267.264 138.464 267.243 139.093 267.243 139.712V151.808C267.243 154.197 266.613 156.021 265.355 157.28C264.117 158.539 262.272 159.168 259.819 159.168ZM259.531 149.312C261.003 149.312 262.176 148.811 263.051 147.808C263.925 146.805 264.363 145.408 264.363 143.616C264.363 141.803 263.925 140.405 263.051 139.424C262.176 138.443 261.003 137.952 259.531 137.952C258.037 137.952 256.843 138.443 255.947 139.424C255.072 140.405 254.635 141.803 254.635 143.616C254.635 145.408 255.072 146.805 255.947 147.808C256.843 148.811 258.037 149.312 259.531 149.312ZM94.0113 189.152C92.9659 189.152 91.9953 188.907 91.0993 188.416C90.2033 187.904 89.4886 187.211 88.9553 186.336C88.4219 185.461 88.1553 184.491 88.1553 183.424C88.1553 182.443 88.4006 181.515 88.8913 180.64C89.4033 179.765 90.0966 179.061 90.9713 178.528C91.8673 177.973 92.8806 177.696 94.0113 177.696C95.0566 177.696 96.0166 177.952 96.8913 178.464C97.7659 178.955 98.4699 179.627 99.0033 180.48C99.5579 181.333 99.8353 182.315 99.8353 183.424C99.8353 184.469 99.5686 185.429 99.0353 186.304C98.5233 187.179 97.8193 187.872 96.9233 188.384C96.0486 188.896 95.0779 189.152 94.0113 189.152ZM120.432 192V168.448H123.344V192H120.432ZM128.213 192V175.904H131.125V192H128.213ZM127.957 172.384V169.248H131.413V172.384H127.957ZM147.579 198.912V188.32H147.931C147.589 189.536 146.885 190.507 145.819 191.232C144.773 191.936 143.547 192.288 142.139 192.288C140.731 192.288 139.493 191.957 138.427 191.296C137.36 190.635 136.528 189.675 135.931 188.416C135.333 187.157 135.035 185.664 135.035 183.936C135.035 182.208 135.333 180.725 135.931 179.488C136.528 178.229 137.36 177.269 138.427 176.608C139.493 175.947 140.731 175.616 142.139 175.616C143.568 175.616 144.805 175.979 145.851 176.704C146.917 177.408 147.621 178.379 147.963 179.616H147.579L147.931 175.904H150.747C150.683 176.544 150.619 177.184 150.555 177.824C150.512 178.464 150.491 179.093 150.491 179.712V198.912H147.579ZM142.811 189.984C144.261 189.984 145.424 189.472 146.299 188.448C147.173 187.424 147.611 185.92 147.611 183.936C147.611 181.952 147.173 180.459 146.299 179.456C145.424 178.453 144.261 177.952 142.811 177.952C141.36 177.952 140.187 178.453 139.291 179.456C138.416 180.459 137.979 181.952 137.979 183.936C137.979 185.92 138.416 187.424 139.291 188.448C140.165 189.472 141.339 189.984 142.811 189.984ZM161.098 192.288C159.156 192.288 157.695 191.765 156.714 190.72C155.754 189.675 155.274 188.064 155.274 185.888V175.904H158.186V185.824C158.186 187.232 158.474 188.267 159.05 188.928C159.626 189.589 160.522 189.92 161.738 189.92C163.06 189.92 164.127 189.483 164.938 188.608C165.77 187.712 166.186 186.528 166.186 185.056V175.904H169.097V192H166.282V188.448H166.698C166.25 189.664 165.535 190.613 164.554 191.296C163.572 191.957 162.42 192.288 161.098 192.288ZM173.995 192V175.904H176.907V192H173.995ZM173.739 172.384V169.248H177.195V172.384H173.739ZM187.92 192.288C186.512 192.288 185.274 191.957 184.208 191.296C183.141 190.635 182.309 189.675 181.712 188.416C181.114 187.157 180.816 185.664 180.816 183.936C180.816 182.208 181.114 180.725 181.712 179.488C182.309 178.229 183.141 177.269 184.208 176.608C185.274 175.947 186.512 175.616 187.92 175.616C189.328 175.616 190.554 175.968 191.6 176.672C192.666 177.376 193.381 178.347 193.744 179.584H193.36V168.448H196.272V192H193.392V188.256H193.744C193.402 189.515 192.698 190.507 191.632 191.232C190.586 191.936 189.349 192.288 187.92 192.288ZM188.592 189.984C190.042 189.984 191.205 189.472 192.08 188.448C192.976 187.424 193.424 185.92 193.424 183.936C193.424 181.952 192.976 180.459 192.08 179.456C191.205 178.453 190.042 177.952 188.592 177.952C187.141 177.952 185.968 178.453 185.072 179.456C184.197 180.459 183.76 181.952 183.76 183.936C183.76 185.92 184.197 187.424 185.072 188.448C185.968 189.472 187.141 189.984 188.592 189.984ZM215.028 192.288C213.727 192.288 212.511 192.117 211.38 191.776C210.271 191.435 209.354 190.944 208.628 190.304L209.556 188.288C210.346 188.885 211.21 189.344 212.148 189.664C213.108 189.963 214.09 190.112 215.092 190.112C216.308 190.112 217.226 189.888 217.844 189.44C218.484 188.992 218.804 188.395 218.804 187.648C218.804 187.051 218.602 186.571 218.196 186.208C217.791 185.845 217.151 185.579 216.276 185.408L213.236 184.8C211.871 184.48 210.836 183.968 210.132 183.264C209.45 182.539 209.108 181.611 209.108 180.48C209.108 179.541 209.364 178.709 209.876 177.984C210.388 177.237 211.114 176.661 212.052 176.256C213.012 175.829 214.132 175.616 215.412 175.616C216.586 175.616 217.674 175.787 218.676 176.128C219.7 176.469 220.543 176.971 221.204 177.632L220.244 179.584C219.583 179.008 218.836 178.571 218.004 178.272C217.194 177.952 216.362 177.792 215.508 177.792C214.271 177.792 213.354 178.037 212.756 178.528C212.159 178.997 211.86 179.616 211.86 180.384C211.86 180.96 212.042 181.44 212.404 181.824C212.767 182.187 213.354 182.464 214.164 182.656L217.204 183.264C218.634 183.563 219.711 184.053 220.436 184.736C221.162 185.419 221.524 186.325 221.524 187.456C221.524 188.459 221.247 189.323 220.692 190.048C220.159 190.773 219.402 191.328 218.42 191.712C217.46 192.096 216.33 192.288 215.028 192.288ZM231.354 192.288C229.669 192.288 228.389 191.829 227.514 190.912C226.661 189.973 226.234 188.565 226.234 186.688V178.144H223.098V175.904H226.234V171.584L229.146 170.784V175.904H233.69V178.144H229.146V186.432C229.146 187.669 229.36 188.555 229.786 189.088C230.234 189.6 230.874 189.856 231.706 189.856C232.133 189.856 232.496 189.824 232.794 189.76C233.114 189.675 233.402 189.579 233.658 189.472V191.872C233.338 192 232.965 192.096 232.538 192.16C232.133 192.245 231.738 192.288 231.354 192.288ZM242.889 192.288C241.481 192.288 240.243 191.957 239.177 191.296C238.11 190.635 237.278 189.675 236.681 188.416C236.083 187.157 235.785 185.664 235.785 183.936C235.785 182.208 236.083 180.725 236.681 179.488C237.278 178.229 238.11 177.269 239.177 176.608C240.243 175.947 241.481 175.616 242.889 175.616C244.318 175.616 245.555 175.979 246.601 176.704C247.667 177.408 248.371 178.379 248.713 179.616H248.329L248.681 175.904H251.497C251.433 176.544 251.369 177.184 251.305 177.824C251.262 178.464 251.241 179.093 251.241 179.712V192H248.329V188.32H248.681C248.339 189.536 247.635 190.507 246.569 191.232C245.523 191.936 244.297 192.288 242.889 192.288ZM243.561 189.984C245.011 189.984 246.174 189.472 247.049 188.448C247.923 187.424 248.361 185.92 248.361 183.936C248.361 181.952 247.923 180.459 247.049 179.456C246.174 178.453 245.011 177.952 243.561 177.952C242.11 177.952 240.937 178.453 240.041 179.456C239.166 180.459 238.729 181.952 238.729 183.936C238.729 185.92 239.166 187.424 240.041 188.448C240.915 189.472 242.089 189.984 243.561 189.984ZM256.12 192V168.448H259.032V183.008H259.096L266.36 175.904H269.976L261.336 184.352L261.368 182.976L270.744 192H267.032L259.096 184.512H259.032V192H256.12ZM272.87 192V175.904H275.782V192H272.87ZM272.614 172.384V169.248H276.07V172.384H272.614ZM280.651 192V179.712C280.651 179.093 280.629 178.464 280.587 177.824C280.544 177.184 280.48 176.544 280.395 175.904H283.211L283.531 179.36H283.147C283.637 178.144 284.395 177.216 285.419 176.576C286.443 175.936 287.637 175.616 289.003 175.616C290.901 175.616 292.331 176.139 293.291 177.184C294.251 178.208 294.731 179.808 294.731 181.984V192H291.819V182.144C291.819 180.672 291.531 179.616 290.955 178.976C290.379 178.315 289.483 177.984 288.267 177.984C286.816 177.984 285.664 178.421 284.811 179.296C283.979 180.171 283.563 181.355 283.563 182.848V192H280.651ZM306.663 199.168C305.255 199.168 303.964 198.997 302.791 198.656C301.617 198.315 300.561 197.792 299.623 197.088L300.391 194.944C301.052 195.392 301.703 195.755 302.343 196.032C302.983 196.309 303.644 196.512 304.327 196.64C305.031 196.768 305.756 196.832 306.503 196.832C308.081 196.832 309.265 196.427 310.055 195.616C310.844 194.805 311.239 193.653 311.239 192.16V187.648H311.559C311.217 188.864 310.513 189.835 309.447 190.56C308.401 191.264 307.164 191.616 305.735 191.616C304.284 191.616 303.015 191.296 301.927 190.656C300.86 189.995 300.028 189.067 299.431 187.872C298.833 186.656 298.535 185.237 298.535 183.616C298.535 181.973 298.833 180.555 299.431 179.36C300.028 178.165 300.86 177.248 301.927 176.608C303.015 175.947 304.284 175.616 305.735 175.616C307.164 175.616 308.401 175.968 309.447 176.672C310.492 177.376 311.185 178.347 311.527 179.584L311.239 179.296L311.527 175.904H314.343C314.279 176.544 314.215 177.184 314.151 177.824C314.108 178.464 314.087 179.093 314.087 179.712V191.808C314.087 194.197 313.457 196.021 312.199 197.28C310.961 198.539 309.116 199.168 306.663 199.168ZM306.375 189.312C307.847 189.312 309.02 188.811 309.895 187.808C310.769 186.805 311.207 185.408 311.207 183.616C311.207 181.803 310.769 180.405 309.895 179.424C309.02 178.443 307.847 177.952 306.375 177.952C304.881 177.952 303.687 178.443 302.791 179.424C301.916 180.405 301.479 181.803 301.479 183.616C301.479 185.408 301.916 186.805 302.791 187.808C303.687 188.811 304.881 189.312 306.375 189.312ZM318.259 193.792H315.795L324.147 168.032H326.643L318.259 193.792ZM328.245 192V168.448H331.157V192H328.245ZM342.81 192.288C341.231 192.288 339.866 191.957 338.714 191.296C337.562 190.613 336.666 189.653 336.026 188.416C335.386 187.157 335.066 185.664 335.066 183.936C335.066 182.229 335.386 180.757 336.026 179.52C336.666 178.261 337.562 177.301 338.714 176.64C339.866 175.957 341.231 175.616 342.81 175.616C344.388 175.616 345.754 175.957 346.906 176.64C348.079 177.301 348.975 178.261 349.594 179.52C350.234 180.757 350.554 182.229 350.554 183.936C350.554 185.664 350.234 187.157 349.594 188.416C348.975 189.653 348.079 190.613 346.906 191.296C345.754 191.957 344.388 192.288 342.81 192.288ZM342.81 189.984C344.26 189.984 345.423 189.472 346.298 188.448C347.172 187.424 347.61 185.92 347.61 183.936C347.61 181.952 347.172 180.459 346.298 179.456C345.423 178.453 344.26 177.952 342.81 177.952C341.338 177.952 340.164 178.453 339.29 179.456C338.436 180.459 338.01 181.952 338.01 183.936C338.01 185.92 338.436 187.424 339.29 188.448C340.164 189.472 341.338 189.984 342.81 189.984ZM361.375 192.288C359.775 192.288 358.389 191.957 357.215 191.296C356.042 190.613 355.125 189.643 354.463 188.384C353.823 187.104 353.503 185.589 353.503 183.84C353.503 182.112 353.834 180.64 354.495 179.424C355.157 178.187 356.074 177.248 357.247 176.608C358.421 175.947 359.797 175.616 361.375 175.616C362.421 175.616 363.434 175.797 364.415 176.16C365.397 176.501 366.197 177.003 366.815 177.664L365.823 179.712C365.205 179.115 364.522 178.677 363.775 178.4C363.029 178.101 362.293 177.952 361.567 177.952C359.989 177.952 358.751 178.464 357.855 179.488C356.959 180.491 356.511 181.952 356.511 183.872C356.511 185.813 356.959 187.307 357.855 188.352C358.751 189.397 359.989 189.92 361.567 189.92C362.271 189.92 362.997 189.781 363.743 189.504C364.49 189.227 365.183 188.789 365.823 188.192L366.815 190.208C366.175 190.891 365.354 191.413 364.351 191.776C363.37 192.117 362.378 192.288 361.375 192.288ZM370.37 192V168.448H373.282V183.008H373.346L380.61 175.904H384.226L375.586 184.352L375.618 182.976L384.994 192H381.282L373.346 184.512H373.282V192H370.37ZM394.073 192.288C391.513 192.288 389.486 191.552 387.993 190.08C386.521 188.608 385.785 186.581 385.785 184C385.785 182.293 386.105 180.821 386.745 179.584C387.406 178.325 388.313 177.355 389.465 176.672C390.617 175.968 391.961 175.616 393.497 175.616C394.969 175.616 396.217 175.936 397.241 176.576C398.265 177.195 399.043 178.08 399.577 179.232C400.11 180.384 400.377 181.749 400.377 183.328V184.288H388.057V182.56H398.393L397.849 182.976C397.849 181.312 397.475 180.021 396.729 179.104C396.003 178.187 394.926 177.728 393.497 177.728C391.939 177.728 390.734 178.272 389.881 179.36C389.027 180.427 388.601 181.888 388.601 183.744V184.032C388.601 185.995 389.081 187.477 390.041 188.48C391.022 189.483 392.377 189.984 394.105 189.984C395.065 189.984 395.961 189.845 396.793 189.568C397.625 189.291 398.425 188.832 399.193 188.192L400.153 190.208C399.427 190.869 398.521 191.381 397.433 191.744C396.366 192.107 395.246 192.288 394.073 192.288ZM410.326 192.288C408.918 192.288 407.681 191.957 406.614 191.296C405.547 190.635 404.715 189.675 404.118 188.416C403.521 187.157 403.222 185.664 403.222 183.936C403.222 182.208 403.521 180.725 404.118 179.488C404.715 178.229 405.547 177.269 406.614 176.608C407.681 175.947 408.918 175.616 410.326 175.616C411.734 175.616 412.961 175.968 414.006 176.672C415.073 177.376 415.787 178.347 416.15 179.584H415.766V168.448H418.678V192H415.798V188.256H416.15C415.809 189.515 415.105 190.507 414.038 191.232C412.993 191.936 411.755 192.288 410.326 192.288ZM410.998 189.984C412.449 189.984 413.611 189.472 414.486 188.448C415.382 187.424 415.83 185.92 415.83 183.936C415.83 181.952 415.382 180.459 414.486 179.456C413.611 178.453 412.449 177.952 410.998 177.952C409.547 177.952 408.374 178.453 407.478 179.456C406.603 180.459 406.166 181.952 406.166 183.936C406.166 185.92 406.603 187.424 407.478 188.448C408.374 189.472 409.547 189.984 410.998 189.984ZM437.435 192.288C436.133 192.288 434.917 192.117 433.786 191.776C432.677 191.435 431.76 190.944 431.035 190.304L431.963 188.288C432.752 188.885 433.616 189.344 434.555 189.664C435.515 189.963 436.496 190.112 437.499 190.112C438.715 190.112 439.632 189.888 440.251 189.44C440.891 188.992 441.211 188.395 441.211 187.648C441.211 187.051 441.008 186.571 440.603 186.208C440.197 185.845 439.557 185.579 438.683 185.408L435.643 184.8C434.277 184.48 433.243 183.968 432.539 183.264C431.856 182.539 431.515 181.611 431.515 180.48C431.515 179.541 431.771 178.709 432.283 177.984C432.795 177.237 433.52 176.661 434.459 176.256C435.419 175.829 436.539 175.616 437.819 175.616C438.992 175.616 440.08 175.787 441.083 176.128C442.107 176.469 442.949 176.971 443.611 177.632L442.651 179.584C441.989 179.008 441.243 178.571 440.411 178.272C439.6 177.952 438.768 177.792 437.915 177.792C436.677 177.792 435.76 178.037 435.163 178.528C434.565 178.997 434.266 179.616 434.266 180.384C434.266 180.96 434.448 181.44 434.811 181.824C435.173 182.187 435.76 182.464 436.571 182.656L439.611 183.264C441.04 183.563 442.117 184.053 442.843 184.736C443.568 185.419 443.931 186.325 443.931 187.456C443.931 188.459 443.653 189.323 443.099 190.048C442.565 190.773 441.808 191.328 440.827 191.712C439.867 192.096 438.736 192.288 437.435 192.288ZM453.76 192.288C452.075 192.288 450.795 191.829 449.921 190.912C449.067 189.973 448.641 188.565 448.641 186.688V178.144H445.505V175.904H448.641V171.584L451.553 170.784V175.904H456.097V178.144H451.553V186.432C451.553 187.669 451.766 188.555 452.193 189.088C452.641 189.6 453.281 189.856 454.113 189.856C454.539 189.856 454.902 189.824 455.201 189.76C455.521 189.675 455.809 189.579 456.065 189.472V191.872C455.745 192 455.371 192.096 454.945 192.16C454.539 192.245 454.145 192.288 453.76 192.288ZM465.295 192.288C463.887 192.288 462.649 191.957 461.583 191.296C460.516 190.635 459.684 189.675 459.087 188.416C458.489 187.157 458.191 185.664 458.191 183.936C458.191 182.208 458.489 180.725 459.087 179.488C459.684 178.229 460.516 177.269 461.583 176.608C462.649 175.947 463.887 175.616 465.295 175.616C466.724 175.616 467.961 175.979 469.007 176.704C470.073 177.408 470.777 178.379 471.119 179.616H470.735L471.087 175.904H473.903C473.839 176.544 473.775 177.184 473.711 177.824C473.668 178.464 473.647 179.093 473.647 179.712V192H470.735V188.32H471.087C470.745 189.536 470.041 190.507 468.975 191.232C467.929 191.936 466.703 192.288 465.295 192.288ZM465.967 189.984C467.417 189.984 468.58 189.472 469.455 188.448C470.329 187.424 470.767 185.92 470.767 183.936C470.767 181.952 470.329 180.459 469.455 179.456C468.58 178.453 467.417 177.952 465.967 177.952C464.516 177.952 463.343 178.453 462.447 179.456C461.572 180.459 461.135 181.952 461.135 183.936C461.135 185.92 461.572 187.424 462.447 188.448C463.321 189.472 464.495 189.984 465.967 189.984ZM478.526 192V168.448H481.438V183.008H481.502L488.766 175.904H492.382L483.742 184.352L483.774 182.976L493.15 192H489.438L481.502 184.512H481.438V192H478.526ZM495.276 192V175.904H498.188V192H495.276ZM495.02 172.384V169.248H498.476V172.384H495.02ZM503.057 192V179.712C503.057 179.093 503.036 178.464 502.993 177.824C502.95 177.184 502.886 176.544 502.801 175.904H505.617L505.937 179.36H505.553C506.044 178.144 506.801 177.216 507.825 176.576C508.849 175.936 510.044 175.616 511.409 175.616C513.308 175.616 514.737 176.139 515.697 177.184C516.657 178.208 517.137 179.808 517.137 181.984V192H514.225V182.144C514.225 180.672 513.937 179.616 513.361 178.976C512.785 178.315 511.889 177.984 510.673 177.984C509.222 177.984 508.07 178.421 507.217 179.296C506.385 180.171 505.969 181.355 505.969 182.848V192H503.057ZM529.069 199.168C527.661 199.168 526.37 198.997 525.197 198.656C524.023 198.315 522.967 197.792 522.029 197.088L522.797 194.944C523.458 195.392 524.109 195.755 524.749 196.032C525.389 196.309 526.05 196.512 526.733 196.64C527.437 196.768 528.162 196.832 528.909 196.832C530.487 196.832 531.671 196.427 532.461 195.616C533.25 194.805 533.645 193.653 533.645 192.16V187.648H533.965C533.623 188.864 532.919 189.835 531.853 190.56C530.807 191.264 529.57 191.616 528.141 191.616C526.69 191.616 525.421 191.296 524.333 190.656C523.266 189.995 522.434 189.067 521.837 187.872C521.239 186.656 520.941 185.237 520.941 183.616C520.941 181.973 521.239 180.555 521.837 179.36C522.434 178.165 523.266 177.248 524.333 176.608C525.421 175.947 526.69 175.616 528.141 175.616C529.57 175.616 530.807 175.968 531.853 176.672C532.898 177.376 533.591 178.347 533.933 179.584L533.645 179.296L533.933 175.904H536.749C536.685 176.544 536.621 177.184 536.557 177.824C536.514 178.464 536.493 179.093 536.493 179.712V191.808C536.493 194.197 535.863 196.021 534.605 197.28C533.367 198.539 531.522 199.168 529.069 199.168ZM528.781 189.312C530.253 189.312 531.426 188.811 532.301 187.808C533.175 186.805 533.613 185.408 533.613 183.616C533.613 181.803 533.175 180.405 532.301 179.424C531.426 178.443 530.253 177.952 528.781 177.952C527.287 177.952 526.093 178.443 525.197 179.424C524.322 180.405 523.885 181.803 523.885 183.616C523.885 185.408 524.322 186.805 525.197 187.808C526.093 188.811 527.287 189.312 528.781 189.312ZM94.0113 229.152C92.9659 229.152 91.9953 228.907 91.0993 228.416C90.2033 227.904 89.4886 227.211 88.9553 226.336C88.4219 225.461 88.1553 224.491 88.1553 223.424C88.1553 222.443 88.4006 221.515 88.8913 220.64C89.4033 219.765 90.0966 219.061 90.9713 218.528C91.8673 217.973 92.8806 217.696 94.0113 217.696C95.0566 217.696 96.0166 217.952 96.8913 218.464C97.7659 218.955 98.4699 219.627 99.0033 220.48C99.5579 221.333 99.8353 222.315 99.8353 223.424C99.8353 224.469 99.5686 225.429 99.0353 226.304C98.5233 227.179 97.8193 227.872 96.9233 228.384C96.0486 228.896 95.0779 229.152 94.0113 229.152ZM120.752 232V209.44H123.728V229.44H134.96V232H120.752ZM137.995 232V215.904H140.907V232H137.995ZM137.739 212.384V209.248H141.195V212.384H137.739ZM157.36 238.912V228.32H157.712C157.37 229.536 156.666 230.507 155.6 231.232C154.554 231.936 153.328 232.288 151.92 232.288C150.512 232.288 149.274 231.957 148.208 231.296C147.141 230.635 146.309 229.675 145.712 228.416C145.114 227.157 144.816 225.664 144.816 223.936C144.816 222.208 145.114 220.725 145.712 219.488C146.309 218.229 147.141 217.269 148.208 216.608C149.274 215.947 150.512 215.616 151.92 215.616C153.349 215.616 154.586 215.979 155.632 216.704C156.698 217.408 157.402 218.379 157.744 219.616H157.36L157.712 215.904H160.528C160.464 216.544 160.4 217.184 160.336 217.824C160.293 218.464 160.272 219.093 160.272 219.712V238.912H157.36ZM152.592 229.984C154.042 229.984 155.205 229.472 156.08 228.448C156.954 227.424 157.392 225.92 157.392 223.936C157.392 221.952 156.954 220.459 156.08 219.456C155.205 218.453 154.042 217.952 152.592 217.952C151.141 217.952 149.968 218.453 149.072 219.456C148.197 220.459 147.76 221.952 147.76 223.936C147.76 225.92 148.197 227.424 149.072 228.448C149.946 229.472 151.12 229.984 152.592 229.984ZM170.879 232.288C168.937 232.288 167.476 231.765 166.495 230.72C165.535 229.675 165.055 228.064 165.055 225.888V215.904H167.967V225.824C167.967 227.232 168.255 228.267 168.831 228.928C169.407 229.589 170.303 229.92 171.519 229.92C172.841 229.92 173.908 229.483 174.719 228.608C175.551 227.712 175.967 226.528 175.967 225.056V215.904H178.879V232H176.063V228.448H176.479C176.031 229.664 175.316 230.613 174.335 231.296C173.353 231.957 172.201 232.288 170.879 232.288ZM183.776 232V215.904H186.688V232H183.776ZM183.52 212.384V209.248H186.976V212.384H183.52ZM197.701 232.288C196.293 232.288 195.056 231.957 193.989 231.296C192.922 230.635 192.09 229.675 191.493 228.416C190.896 227.157 190.597 225.664 190.597 223.936C190.597 222.208 190.896 220.725 191.493 219.488C192.09 218.229 192.922 217.269 193.989 216.608C195.056 215.947 196.293 215.616 197.701 215.616C199.109 215.616 200.336 215.968 201.381 216.672C202.448 217.376 203.162 218.347 203.525 219.584H203.141V208.448H206.053V232H203.173V228.256H203.525C203.184 229.515 202.48 230.507 201.413 231.232C200.368 231.936 199.13 232.288 197.701 232.288ZM198.373 229.984C199.824 229.984 200.986 229.472 201.861 228.448C202.757 227.424 203.205 225.92 203.205 223.936C203.205 221.952 202.757 220.459 201.861 219.456C200.986 218.453 199.824 217.952 198.373 217.952C196.922 217.952 195.749 218.453 194.853 219.456C193.978 220.459 193.541 221.952 193.541 223.936C193.541 225.92 193.978 227.424 194.853 228.448C195.749 229.472 196.922 229.984 198.373 229.984ZM210.932 232V215.904H213.844V232H210.932ZM210.676 212.384V209.248H214.132V212.384H210.676ZM224.729 232.288C223.044 232.288 221.764 231.829 220.889 230.912C220.036 229.973 219.609 228.565 219.609 226.688V218.144H216.473V215.904H219.609V211.584L222.521 210.784V215.904H227.065V218.144H222.521V226.432C222.521 227.669 222.735 228.555 223.161 229.088C223.609 229.6 224.249 229.856 225.081 229.856C225.508 229.856 225.871 229.824 226.169 229.76C226.489 229.675 226.777 229.579 227.033 229.472V231.872C226.713 232 226.34 232.096 225.913 232.16C225.508 232.245 225.113 232.288 224.729 232.288ZM229.794 239.264L229.122 236.896C230.125 236.661 230.957 236.384 231.618 236.064C232.28 235.765 232.834 235.371 233.282 234.88C233.73 234.389 234.125 233.771 234.466 233.024L235.266 231.104L235.202 232.32L228.194 215.904H231.33L236.93 229.696H236.098L241.698 215.904H244.706L237.314 233.248C236.866 234.293 236.376 235.168 235.842 235.872C235.33 236.576 234.765 237.152 234.146 237.6C233.549 238.048 232.888 238.4 232.162 238.656C231.437 238.912 230.648 239.115 229.794 239.264ZM255.87 238.912V219.712C255.87 219.093 255.848 218.464 255.806 217.824C255.763 217.184 255.699 216.544 255.614 215.904H258.43L258.782 219.616H258.43C258.75 218.379 259.432 217.408 260.478 216.704C261.523 215.979 262.771 215.616 264.222 215.616C265.651 215.616 266.899 215.947 267.966 216.608C269.032 217.269 269.854 218.229 270.43 219.488C271.027 220.725 271.326 222.208 271.326 223.936C271.326 225.664 271.027 227.157 270.43 228.416C269.854 229.675 269.032 230.635 267.966 231.296C266.899 231.957 265.651 232.288 264.222 232.288C262.792 232.288 261.555 231.936 260.51 231.232C259.486 230.507 258.792 229.536 258.43 228.32H258.782V238.912H255.87ZM263.55 229.984C265.022 229.984 266.195 229.472 267.07 228.448C267.944 227.424 268.382 225.92 268.382 223.936C268.382 221.952 267.944 220.459 267.07 219.456C266.195 218.453 265.022 217.952 263.55 217.952C262.078 217.952 260.904 218.453 260.03 219.456C259.176 220.459 258.75 221.952 258.75 223.936C258.75 225.92 259.176 227.424 260.03 228.448C260.904 229.472 262.078 229.984 263.55 229.984ZM282.029 232.288C280.45 232.288 279.085 231.957 277.933 231.296C276.781 230.613 275.885 229.653 275.245 228.416C274.605 227.157 274.285 225.664 274.285 223.936C274.285 222.229 274.605 220.757 275.245 219.52C275.885 218.261 276.781 217.301 277.933 216.64C279.085 215.957 280.45 215.616 282.029 215.616C283.607 215.616 284.973 215.957 286.125 216.64C287.298 217.301 288.194 218.261 288.812 219.52C289.453 220.757 289.773 222.229 289.773 223.936C289.773 225.664 289.453 227.157 288.812 228.416C288.194 229.653 287.298 230.613 286.125 231.296C284.973 231.957 283.607 232.288 282.029 232.288ZM282.029 229.984C283.479 229.984 284.642 229.472 285.517 228.448C286.391 227.424 286.829 225.92 286.829 223.936C286.829 221.952 286.391 220.459 285.517 219.456C284.642 218.453 283.479 217.952 282.029 217.952C280.557 217.952 279.383 218.453 278.509 219.456C277.655 220.459 277.229 221.952 277.229 223.936C277.229 225.92 277.655 227.424 278.509 228.448C279.383 229.472 280.557 229.984 282.029 229.984ZM300.466 232.288C298.887 232.288 297.522 231.957 296.37 231.296C295.218 230.613 294.322 229.653 293.682 228.416C293.042 227.157 292.722 225.664 292.722 223.936C292.722 222.229 293.042 220.757 293.682 219.52C294.322 218.261 295.218 217.301 296.37 216.64C297.522 215.957 298.887 215.616 300.466 215.616C302.045 215.616 303.41 215.957 304.562 216.64C305.735 217.301 306.631 218.261 307.25 219.52C307.89 220.757 308.21 222.229 308.21 223.936C308.21 225.664 307.89 227.157 307.25 228.416C306.631 229.653 305.735 230.613 304.562 231.296C303.41 231.957 302.045 232.288 300.466 232.288ZM300.466 229.984C301.917 229.984 303.079 229.472 303.954 228.448C304.829 227.424 305.266 225.92 305.266 223.936C305.266 221.952 304.829 220.459 303.954 219.456C303.079 218.453 301.917 217.952 300.466 217.952C298.994 217.952 297.821 218.453 296.946 219.456C296.093 220.459 295.666 221.952 295.666 223.936C295.666 225.92 296.093 227.424 296.946 228.448C297.821 229.472 298.994 229.984 300.466 229.984ZM312.12 232V208.448H315.032V232H312.12ZM319.197 233.792H316.733L325.085 208.032H327.581L319.197 233.792ZM330.172 232V218.144H327.036V215.904H330.972L330.172 216.64V214.048C330.172 212.171 330.641 210.752 331.58 209.792C332.518 208.811 333.884 208.32 335.676 208.32C336.102 208.32 336.55 208.352 337.02 208.416C337.51 208.48 337.916 208.587 338.236 208.736V211.104C337.98 210.997 337.66 210.912 337.276 210.848C336.892 210.784 336.518 210.752 336.156 210.752C335.516 210.752 334.961 210.88 334.492 211.136C334.022 211.392 333.67 211.776 333.436 212.288C333.201 212.779 333.084 213.429 333.084 214.24V216.512L332.636 215.904H337.532V218.144H333.084V232H330.172ZM346.295 232.288C344.887 232.288 343.649 231.957 342.583 231.296C341.516 230.635 340.684 229.675 340.087 228.416C339.489 227.157 339.191 225.664 339.191 223.936C339.191 222.208 339.489 220.725 340.087 219.488C340.684 218.229 341.516 217.269 342.583 216.608C343.649 215.947 344.887 215.616 346.295 215.616C347.724 215.616 348.961 215.979 350.007 216.704C351.073 217.408 351.777 218.379 352.119 219.616H351.735L352.087 215.904H354.903C354.839 216.544 354.775 217.184 354.711 217.824C354.668 218.464 354.647 219.093 354.647 219.712V232H351.735V228.32H352.087C351.745 229.536 351.041 230.507 349.975 231.232C348.929 231.936 347.703 232.288 346.295 232.288ZM346.967 229.984C348.417 229.984 349.58 229.472 350.455 228.448C351.329 227.424 351.767 225.92 351.767 223.936C351.767 221.952 351.329 220.459 350.455 219.456C349.58 218.453 348.417 217.952 346.967 217.952C345.516 217.952 344.343 218.453 343.447 219.456C342.572 220.459 342.135 221.952 342.135 223.936C342.135 225.92 342.572 227.424 343.447 228.448C344.321 229.472 345.495 229.984 346.967 229.984ZM359.494 232V219.84C359.494 219.2 359.472 218.549 359.43 217.888C359.408 217.205 359.355 216.544 359.27 215.904H362.086L362.438 219.936L361.958 219.968C362.171 218.987 362.534 218.176 363.046 217.536C363.579 216.875 364.208 216.395 364.934 216.096C365.68 215.776 366.448 215.616 367.238 215.616C367.579 215.616 367.867 215.627 368.102 215.648C368.336 215.669 368.571 215.723 368.806 215.808L368.742 218.4C368.422 218.272 368.123 218.197 367.846 218.176C367.59 218.133 367.27 218.112 366.886 218.112C365.947 218.112 365.136 218.325 364.454 218.752C363.792 219.179 363.28 219.744 362.918 220.448C362.576 221.152 362.406 221.909 362.406 222.72V232H359.494ZM371.37 232V219.712C371.37 219.093 371.348 218.464 371.306 217.824C371.263 217.184 371.199 216.544 371.114 215.904H373.93L374.25 219.36H373.866C374.292 218.165 374.975 217.248 375.914 216.608C376.852 215.947 377.972 215.616 379.274 215.616C380.596 215.616 381.684 215.936 382.538 216.576C383.391 217.195 383.967 218.176 384.266 219.52H383.786C384.191 218.325 384.906 217.376 385.93 216.672C386.954 215.968 388.148 215.616 389.514 215.616C391.284 215.616 392.618 216.139 393.514 217.184C394.41 218.208 394.858 219.808 394.858 221.984V232H391.946V222.144C391.946 220.672 391.69 219.616 391.178 218.976C390.666 218.315 389.855 217.984 388.746 217.984C387.444 217.984 386.42 218.432 385.674 219.328C384.927 220.203 384.554 221.397 384.554 222.912V232H381.642V222.144C381.642 220.672 381.386 219.616 380.874 218.976C380.383 218.315 379.572 217.984 378.442 217.984C377.14 217.984 376.116 218.432 375.37 219.328C374.644 220.203 374.282 221.397 374.282 222.912V232H371.37ZM399.62 232V215.904H402.532V232H399.62ZM399.364 212.384V209.248H402.82V212.384H399.364ZM407.401 232V219.712C407.401 219.093 407.379 218.464 407.337 217.824C407.294 217.184 407.23 216.544 407.145 215.904H409.961L410.281 219.36H409.897C410.387 218.144 411.145 217.216 412.169 216.576C413.193 215.936 414.387 215.616 415.753 215.616C417.651 215.616 419.081 216.139 420.041 217.184C421.001 218.208 421.481 219.808 421.481 221.984V232H418.569V222.144C418.569 220.672 418.281 219.616 417.705 218.976C417.129 218.315 416.233 217.984 415.017 217.984C413.566 217.984 412.414 218.421 411.561 219.296C410.729 220.171 410.313 221.355 410.313 222.848V232H407.401ZM433.413 239.168C432.005 239.168 430.714 238.997 429.541 238.656C428.367 238.315 427.311 237.792 426.373 237.088L427.141 234.944C427.802 235.392 428.453 235.755 429.093 236.032C429.733 236.309 430.394 236.512 431.077 236.64C431.781 236.768 432.506 236.832 433.253 236.832C434.831 236.832 436.015 236.427 436.805 235.616C437.594 234.805 437.989 233.653 437.989 232.16V227.648H438.309C437.967 228.864 437.263 229.835 436.197 230.56C435.151 231.264 433.914 231.616 432.485 231.616C431.034 231.616 429.765 231.296 428.677 230.656C427.61 229.995 426.778 229.067 426.181 227.872C425.583 226.656 425.285 225.237 425.285 223.616C425.285 221.973 425.583 220.555 426.181 219.36C426.778 218.165 427.61 217.248 428.677 216.608C429.765 215.947 431.034 215.616 432.485 215.616C433.914 215.616 435.151 215.968 436.197 216.672C437.242 217.376 437.935 218.347 438.277 219.584L437.989 219.296L438.277 215.904H441.093C441.029 216.544 440.965 217.184 440.901 217.824C440.858 218.464 440.837 219.093 440.837 219.712V231.808C440.837 234.197 440.207 236.021 438.949 237.28C437.711 238.539 435.866 239.168 433.413 239.168ZM433.125 229.312C434.597 229.312 435.77 228.811 436.645 227.808C437.519 226.805 437.957 225.408 437.957 223.616C437.957 221.803 437.519 220.405 436.645 219.424C435.77 218.443 434.597 217.952 433.125 217.952C431.631 217.952 430.437 218.443 429.541 219.424C428.666 220.405 428.229 221.803 428.229 223.616C428.229 225.408 428.666 226.805 429.541 227.808C430.437 228.811 431.631 229.312 433.125 229.312ZM94.0113 269.152C92.9659 269.152 91.9953 268.907 91.0993 268.416C90.2033 267.904 89.4886 267.211 88.9553 266.336C88.4219 265.461 88.1553 264.491 88.1553 263.424C88.1553 262.443 88.4006 261.515 88.8913 260.64C89.4033 259.765 90.0966 259.061 90.9713 258.528C91.8673 257.973 92.8806 257.696 94.0113 257.696C95.0566 257.696 96.0166 257.952 96.8913 258.464C97.7659 258.955 98.4699 259.627 99.0033 260.48C99.5579 261.333 99.8353 262.315 99.8353 263.424C99.8353 264.469 99.5686 265.429 99.0353 266.304C98.5233 267.179 97.8193 267.872 96.9233 268.384C96.0486 268.896 95.0779 269.152 94.0113 269.152ZM118.448 272L128.432 249.44H131.024L141.168 272H138.096L135.312 265.6L136.592 266.368H122.864L124.272 265.6L121.488 272H118.448ZM129.68 252.768L124.688 264.608L123.92 263.936H135.536L134.928 264.608L129.808 252.768H129.68ZM144.057 272V248.448H146.969V272H144.057ZM151.838 278.912V259.712C151.838 259.093 151.817 258.464 151.774 257.824C151.732 257.184 151.668 256.544 151.582 255.904H154.398L154.75 259.616H154.398C154.718 258.379 155.401 257.408 156.446 256.704C157.492 255.979 158.74 255.616 160.19 255.616C161.62 255.616 162.868 255.947 163.934 256.608C165.001 257.269 165.822 258.229 166.398 259.488C166.996 260.725 167.294 262.208 167.294 263.936C167.294 265.664 166.996 267.157 166.398 268.416C165.822 269.675 165.001 270.635 163.934 271.296C162.868 271.957 161.62 272.288 160.19 272.288C158.761 272.288 157.524 271.936 156.478 271.232C155.454 270.507 154.761 269.536 154.398 268.32H154.75V278.912H151.838ZM159.518 269.984C160.99 269.984 162.164 269.472 163.038 268.448C163.913 267.424 164.35 265.92 164.35 263.936C164.35 261.952 163.913 260.459 163.038 259.456C162.164 258.453 160.99 257.952 159.518 257.952C158.046 257.952 156.873 258.453 155.998 259.456C155.145 260.459 154.718 261.952 154.718 263.936C154.718 265.92 155.145 267.424 155.998 268.448C156.873 269.472 158.046 269.984 159.518 269.984ZM171.213 272V248.448H174.125V259.392H173.709C174.179 258.155 174.936 257.216 175.981 256.576C177.027 255.936 178.232 255.616 179.597 255.616C181.539 255.616 182.968 256.139 183.885 257.184C184.824 258.229 185.293 259.808 185.293 261.92V272H182.381V262.08C182.381 260.651 182.104 259.616 181.549 258.976C180.995 258.315 180.088 257.984 178.829 257.984C177.421 257.984 176.28 258.421 175.405 259.296C174.552 260.171 174.125 261.333 174.125 262.784V272H171.213ZM196.201 272.288C194.793 272.288 193.556 271.957 192.489 271.296C191.422 270.635 190.59 269.675 189.993 268.416C189.396 267.157 189.097 265.664 189.097 263.936C189.097 262.208 189.396 260.725 189.993 259.488C190.59 258.229 191.422 257.269 192.489 256.608C193.556 255.947 194.793 255.616 196.201 255.616C197.63 255.616 198.868 255.979 199.913 256.704C200.98 257.408 201.684 258.379 202.025 259.616H201.641L201.993 255.904H204.809C204.745 256.544 204.681 257.184 204.617 257.824C204.574 258.464 204.553 259.093 204.553 259.712V272H201.641V268.32H201.993C201.652 269.536 200.948 270.507 199.881 271.232C198.836 271.936 197.609 272.288 196.201 272.288ZM196.873 269.984C198.324 269.984 199.486 269.472 200.361 268.448C201.236 267.424 201.673 265.92 201.673 263.936C201.673 261.952 201.236 260.459 200.361 259.456C199.486 258.453 198.324 257.952 196.873 257.952C195.422 257.952 194.249 258.453 193.353 259.456C192.478 260.459 192.041 261.952 192.041 263.936C192.041 265.92 192.478 267.424 193.353 268.448C194.228 269.472 195.401 269.984 196.873 269.984ZM218.19 272V249.44H225.838C228.355 249.44 230.478 249.877 232.206 250.752C233.955 251.627 235.278 252.907 236.174 254.592C237.07 256.256 237.518 258.293 237.518 260.704C237.518 263.115 237.07 265.163 236.174 266.848C235.278 268.533 233.955 269.813 232.206 270.688C230.478 271.563 228.355 272 225.838 272H218.19ZM221.166 269.472H225.614C228.622 269.472 230.851 268.747 232.302 267.296C233.752 265.845 234.478 263.648 234.478 260.704C234.478 257.76 233.752 255.573 232.302 254.144C230.851 252.693 228.622 251.968 225.614 251.968H221.166V269.472ZM249.198 272.288C246.638 272.288 244.611 271.552 243.118 270.08C241.646 268.608 240.91 266.581 240.91 264C240.91 262.293 241.23 260.821 241.87 259.584C242.531 258.325 243.438 257.355 244.59 256.672C245.742 255.968 247.086 255.616 248.622 255.616C250.094 255.616 251.342 255.936 252.366 256.576C253.39 257.195 254.168 258.08 254.702 259.232C255.235 260.384 255.502 261.749 255.502 263.328V264.288H243.182V262.56H253.518L252.974 262.976C252.974 261.312 252.6 260.021 251.854 259.104C251.128 258.187 250.051 257.728 248.622 257.728C247.064 257.728 245.859 258.272 245.006 259.36C244.152 260.427 243.726 261.888 243.726 263.744V264.032C243.726 265.995 244.206 267.477 245.166 268.48C246.147 269.483 247.502 269.984 249.23 269.984C250.19 269.984 251.086 269.845 251.918 269.568C252.75 269.291 253.55 268.832 254.318 268.192L255.278 270.208C254.552 270.869 253.646 271.381 252.558 271.744C251.491 272.107 250.371 272.288 249.198 272.288ZM256.942 272L264.238 262.976V264.416L257.358 255.904H260.846L265.87 262.336H264.814L269.838 255.904H273.294L266.51 264.352V263.04L273.71 272H270.19L264.814 265.12H265.87L260.43 272H256.942ZM285.158 272V249.44H288.134V269.44H299.366V272H285.158ZM308.545 272.288C307.137 272.288 305.899 271.957 304.833 271.296C303.766 270.635 302.934 269.675 302.337 268.416C301.739 267.157 301.441 265.664 301.441 263.936C301.441 262.208 301.739 260.725 302.337 259.488C302.934 258.229 303.766 257.269 304.833 256.608C305.899 255.947 307.137 255.616 308.545 255.616C309.974 255.616 311.211 255.979 312.257 256.704C313.323 257.408 314.027 258.379 314.369 259.616H313.985L314.337 255.904H317.153C317.089 256.544 317.025 257.184 316.961 257.824C316.918 258.464 316.897 259.093 316.897 259.712V272H313.985V268.32H314.337C313.995 269.536 313.291 270.507 312.225 271.232C311.179 271.936 309.953 272.288 308.545 272.288ZM309.217 269.984C310.667 269.984 311.83 269.472 312.705 268.448C313.579 267.424 314.017 265.92 314.017 263.936C314.017 261.952 313.579 260.459 312.705 259.456C311.83 258.453 310.667 257.952 309.217 257.952C307.766 257.952 306.593 258.453 305.697 259.456C304.822 260.459 304.385 261.952 304.385 263.936C304.385 265.92 304.822 267.424 305.697 268.448C306.571 269.472 307.745 269.984 309.217 269.984ZM327.504 272.288C325.562 272.288 324.101 271.765 323.12 270.72C322.16 269.675 321.68 268.064 321.68 265.888V255.904H324.592V265.824C324.592 267.232 324.88 268.267 325.456 268.928C326.032 269.589 326.928 269.92 328.144 269.92C329.466 269.92 330.533 269.483 331.344 268.608C332.176 267.712 332.592 266.528 332.592 265.056V255.904H335.504V272H332.688V268.448H333.104C332.656 269.664 331.941 270.613 330.96 271.296C329.978 271.957 328.826 272.288 327.504 272.288ZM340.401 272V259.712C340.401 259.093 340.379 258.464 340.337 257.824C340.294 257.184 340.23 256.544 340.145 255.904H342.961L343.281 259.36H342.897C343.387 258.144 344.145 257.216 345.169 256.576C346.193 255.936 347.387 255.616 348.753 255.616C350.651 255.616 352.081 256.139 353.041 257.184C354.001 258.208 354.481 259.808 354.481 261.984V272H351.569V262.144C351.569 260.672 351.281 259.616 350.705 258.976C350.129 258.315 349.233 257.984 348.017 257.984C346.566 257.984 345.414 258.421 344.561 259.296C343.729 260.171 343.313 261.355 343.313 262.848V272H340.401ZM366.157 272.288C364.557 272.288 363.17 271.957 361.997 271.296C360.823 270.613 359.906 269.643 359.245 268.384C358.605 267.104 358.285 265.589 358.285 263.84C358.285 262.112 358.615 260.64 359.277 259.424C359.938 258.187 360.855 257.248 362.029 256.608C363.202 255.947 364.578 255.616 366.157 255.616C367.202 255.616 368.215 255.797 369.197 256.16C370.178 256.501 370.978 257.003 371.597 257.664L370.605 259.712C369.986 259.115 369.303 258.677 368.557 258.4C367.81 258.101 367.074 257.952 366.349 257.952C364.77 257.952 363.533 258.464 362.637 259.488C361.741 260.491 361.293 261.952 361.293 263.872C361.293 265.813 361.741 267.307 362.637 268.352C363.533 269.397 364.77 269.92 366.349 269.92C367.053 269.92 367.778 269.781 368.525 269.504C369.271 269.227 369.965 268.789 370.605 268.192L371.597 270.208C370.957 270.891 370.135 271.413 369.133 271.776C368.151 272.117 367.159 272.288 366.157 272.288ZM375.151 272V248.448H378.063V259.392H377.647C378.116 258.155 378.873 257.216 379.919 256.576C380.964 255.936 382.169 255.616 383.535 255.616C385.476 255.616 386.905 256.139 387.823 257.184C388.761 258.229 389.231 259.808 389.231 261.92V272H386.319V262.08C386.319 260.651 386.041 259.616 385.487 258.976C384.932 258.315 384.025 257.984 382.767 257.984C381.359 257.984 380.217 258.421 379.343 259.296C378.489 260.171 378.063 261.333 378.063 262.784V272H375.151Z" fill="#4CC9F0"/>
<line x1="95" y1="19.9993" x2="95" y2="340.001" stroke="#0FA9D9"/>
</svg>
